<svg xmlns="http://www.w3.org/2000/svg">
  <symbol id="icon-car" viewBox="0 0 20 20">
    <path
      d="M8.74951 4.37097C9.09118 4.37097 9.37451 4.65431 9.37451 4.99597C9.37443 5.33757 9.09113 5.62097 8.74951 5.62097C7.25816 5.62097 6.51645 5.62074 6.0415 5.93738C5.59157 6.24572 5.32508 6.84592 4.7085 8.31238L4.18311 9.56238L4.74951 9.70398C4.93285 9.75398 5.01676 9.7713 5.1001 9.78796H14.9497C14.983 9.78796 15.0668 9.76225 15.2251 9.72058L16.5171 9.39539C16.7752 9.32902 17.0415 9.43775 17.1831 9.65417L17.7329 10.4706C18.2828 11.2954 18.6165 11.7874 18.7915 12.3622C18.9581 12.9288 18.9585 13.4956 18.9585 14.5204V17.0878C18.9585 17.5459 18.958 17.7958 18.8413 18.0624C18.6997 18.4206 18.4167 18.6956 18.0503 18.8456C17.792 18.9622 17.5247 18.9628 17.0747 18.9628L17.0913 18.954C16.6498 18.954 16.3828 18.9544 16.1079 18.8378C15.758 18.6961 15.4747 18.4123 15.3247 18.0458C15.2164 17.7875 15.2163 17.5373 15.2163 17.079C15.2163 16.8624 15.2164 16.6373 15.1997 16.579C15.1747 16.5291 15.1412 16.4955 15.0913 16.4706C15.0242 16.454 14.8076 16.454 14.5913 16.454H5.42529C5.20863 16.454 4.99144 16.4539 4.93311 16.4706C4.87489 16.4955 4.84187 16.5291 4.81689 16.579C4.80023 16.6373 4.80029 16.8624 4.80029 17.079C4.80029 17.5373 4.79977 17.7879 4.68311 18.0546C4.54142 18.4126 4.25844 18.6878 3.89209 18.8378C3.63376 18.9544 3.3665 18.954 2.9165 18.954C2.46659 18.954 2.20808 18.9544 1.93311 18.8378C1.58316 18.6961 1.29989 18.4124 1.1499 18.0458C1.04157 17.7874 1.0415 17.5373 1.0415 17.079V14.5126C1.0415 13.4876 1.04185 12.921 1.2085 12.3544C1.3835 11.7794 1.71709 11.2878 2.26709 10.4628L2.48291 10.1376L1.2915 9.24597C1.0166 9.03766 0.958304 8.64595 1.1665 8.37097C1.37484 8.09597 1.7665 8.03764 2.0415 8.24597L3.06689 9.01257L3.55811 7.82898C4.2081 6.27899 4.55843 5.42038 5.3501 4.89539C6.14164 4.3706 7.06665 4.37097 8.74951 4.37097ZM15.5581 10.9208C15.3249 10.9791 15.2162 11.0037 15.1079 11.0204C14.9415 11.037 14.8249 11.038 14.6001 11.038H5.4165C5.18339 11.038 5.07507 11.0375 4.9585 11.0292C4.79183 11.0042 4.69124 10.9796 4.48291 10.9296L3.6167 10.7128L3.31689 11.162C2.79199 11.9535 2.5332 12.3456 2.4165 12.7206C2.29984 13.1039 2.30029 13.5709 2.30029 14.5126V17.079C2.30029 17.2954 2.30028 17.5204 2.31689 17.579C2.34189 17.629 2.37529 17.6624 2.42529 17.6874C2.5593 17.7289 3.30789 17.7207 3.4165 17.6874C3.47484 17.6624 3.50869 17.629 3.53369 17.579C3.55026 17.5201 3.55029 17.2952 3.55029 17.079C3.55029 16.6209 3.54993 16.3709 3.6665 16.1044C3.80817 15.746 4.09183 15.4712 4.4585 15.3212C4.71679 15.2045 4.98323 15.204 5.43311 15.204H14.5913C15.0329 15.204 15.2997 15.2045 15.5747 15.3212C15.9246 15.4628 16.2079 15.7457 16.3579 16.1122C16.4662 16.3705 16.4663 16.6208 16.4663 17.079C16.4663 17.2952 16.4663 17.5201 16.4829 17.579C16.5079 17.6289 16.5415 17.6624 16.5913 17.6874C16.7246 17.729 17.4752 17.7207 17.5835 17.6874C17.6417 17.6624 17.6747 17.6289 17.6997 17.579C17.7163 17.5204 17.7163 17.2954 17.7163 17.079V14.5126C17.7163 13.5792 17.7168 13.1039 17.6001 12.7206C17.4834 12.3456 17.2246 11.9535 16.6997 11.162L16.3999 10.7128L15.5581 10.9208ZM5.0083 12.5038C5.46645 12.504 5.84131 12.8712 5.84131 13.3378C5.84117 13.8042 5.46636 14.1793 5.0083 14.1796V14.1708C4.55006 14.1708 4.17446 13.796 4.17432 13.3378C4.17432 12.8794 4.54997 12.5038 5.0083 12.5038ZM15.0083 12.5038C15.4664 12.504 15.8413 12.8712 15.8413 13.3378C15.8412 13.8042 15.4664 14.1793 15.0083 14.1796V14.1708C14.5501 14.1708 14.1745 13.796 14.1743 13.3378C14.1743 12.8794 14.55 12.5038 15.0083 12.5038ZM14.1743 1.03796C16.3576 1.03796 18.1333 2.81264 18.1333 4.99597C18.1332 7.17924 16.3576 8.95398 14.1743 8.95398C11.9911 8.95385 10.2164 7.17916 10.2163 4.99597C10.2163 2.81272 11.9911 1.03809 14.1743 1.03796ZM14.1743 2.28796C12.6828 2.28809 11.4663 3.50438 11.4663 4.99597C11.4664 6.48749 12.6828 7.70385 14.1743 7.70398C15.6659 7.70398 16.8832 6.48757 16.8833 4.99597C16.8833 3.50431 15.666 2.28796 14.1743 2.28796ZM14.1743 6.03796C14.516 6.03796 14.7993 6.31296 14.7993 6.66296C14.7991 7.01275 14.5158 7.29578 14.1743 7.29578V7.28796C13.8329 7.28783 13.5496 7.00434 13.5493 6.66296C13.5493 6.32138 13.8328 6.0381 14.1743 6.03796ZM14.1743 2.70398C14.5159 2.70398 14.7992 2.98739 14.7993 3.32898V4.99597C14.7992 5.33757 14.5159 5.62097 14.1743 5.62097C13.8328 5.62084 13.5494 5.3375 13.5493 4.99597V3.32898C13.5494 2.98747 13.8328 2.70411 14.1743 2.70398Z"
    />
  </symbol>

  <symbol id="icon-search" viewBox="0 0 24 24">
    <path fill-rule="evenodd" clip-rule="evenodd"
      d="M9.16675 1.04169C4.67943 1.04169 1.04175 4.67937 1.04175 9.16669C1.04175 13.654 4.67943 17.2917 9.16675 17.2917C11.1854 17.2917 13.0322 16.5555 14.4531 15.337L17.8915 18.7753C18.1355 19.0194 18.5313 19.0194 18.7754 18.7753C19.0194 18.5312 19.0194 18.1355 18.7754 17.8914L15.337 14.4531C16.5556 13.0321 17.2917 11.1854 17.2917 9.16669C17.2917 4.67937 13.6541 1.04169 9.16675 1.04169ZM2.29175 9.16669C2.29175 5.36973 5.36979 2.29169 9.16675 2.29169C12.9637 2.29169 16.0417 5.36973 16.0417 9.16669C16.0417 12.9636 12.9637 16.0417 9.16675 16.0417C5.36979 16.0417 2.29175 12.9636 2.29175 9.16669Z" />
 
 
  </symbol>

   <symbol id="icon-next-arrow" viewBox="0 0 24 24">
<path d="M6.59082 1.06055L2.87109 4.78027H17.0605V6.28027H2.87109L6.59082 10L5.53027 11.0605L0 5.53027L5.53027 0L6.59082 1.06055Z"/>
  </symbol>

     <symbol id="icon-previous-arrow" viewBox="0 0 24 24">
<path fill-rule="evenodd" clip-rule="evenodd" d="M18.1892 12.749L14.4696 16.4688L15.5303 17.5294L21.0605 11.999L15.5302 6.46875L14.4696 7.52941L18.1892 11.249L3.99989 11.2491L3.99989 12.7491L18.1892 12.749Z" fill="#384250"/>

  </symbol>

  <symbol id="icon-add" viewBox="0 0 24 24">
    <path
      d="M12 1.25C17.9371 1.25 22.75 6.06294 22.75 12C22.75 17.9371 17.9371 22.75 12 22.75C6.06294 22.75 1.25 17.9371 1.25 12C1.25 6.06294 6.06294 1.25 12 1.25ZM12 2.75C6.89137 2.75 2.75 6.89137 2.75 12C2.75 17.1086 6.89137 21.25 12 21.25C17.1086 21.25 21.25 17.1086 21.25 12C21.25 6.89137 17.1086 2.75 12 2.75ZM12 7.25C12.4142 7.25 12.75 7.58579 12.75 8V11.25H16C16.4142 11.25 16.75 11.5858 16.75 12C16.75 12.4142 16.4142 12.75 16 12.75H12.75V16C12.75 16.4142 12.4142 16.75 12 16.75C11.5858 16.75 11.25 16.4142 11.25 16V12.75H8C7.58579 12.75 7.25 12.4142 7.25 12C7.25 11.5858 7.58579 11.25 8 11.25H11.25V8C11.25 7.58579 11.5858 7.25 12 7.25Z" />
  </symbol>

  <symbol id="icon-title" viewBox="0 0 24 24">
   <path d="M11.3203 1.87402C10.7168 2.01996 10.137 2.47353 9.87673 3.00204L9.74657 3.27024H8.9538C7.85734 3.27024 7.82579 3.28996 7.82579 4.04328V4.45347H6.83188C6.09038 4.45347 5.77091 4.46925 5.58554 4.51263C4.82827 4.69406 4.19721 5.32512 4.04339 6.06267C4.01184 6.21254 4 8.33448 4 13.3435C4 20.2772 4 20.4232 4.07888 20.6717C4.27609 21.3067 4.82432 21.7839 5.55004 21.9456C5.80246 22.0008 6.48874 22.0048 12.0657 21.9969L18.2974 21.985L18.5617 21.8825C19.0468 21.6932 19.4728 21.3461 19.6581 20.9832C19.8671 20.5691 19.8554 20.9911 19.8554 13.3277C19.8554 5.58543 19.8671 6.05478 19.6305 5.55782C19.4924 5.2699 19.0389 4.82028 18.7431 4.67829C18.3369 4.48502 18.112 4.45347 17.0274 4.45347H16.0295V4.04328C16.0295 3.56211 15.998 3.45561 15.8244 3.34912C15.7061 3.27813 15.6233 3.27024 14.8778 3.27024H14.0614L13.9352 3.00204C13.7617 2.64312 13.3436 2.22505 12.9846 2.05151C12.5075 1.82669 11.8211 1.75176 11.3203 1.87402ZM12.4404 2.83639C12.8348 3.03754 13.0596 3.30574 13.1779 3.70409C13.316 4.18527 13.387 4.21682 14.3296 4.21682H15.0435V5.18313V6.14943H11.9277H8.81182V5.18708V4.22077L9.53753 4.20894C10.4092 4.19316 10.4289 4.18527 10.5906 3.75931C10.7405 3.35701 10.7997 3.25841 11.0205 3.0612C11.3085 2.80089 11.553 2.71412 11.9474 2.72989C12.1801 2.74173 12.3103 2.76934 12.4404 2.83639ZM7.83368 6.07844C7.84551 6.7095 7.8534 6.76866 7.93228 6.88304C7.97961 6.9501 8.07032 7.02898 8.12949 7.05264C8.21231 7.08419 9.22989 7.09602 11.975 7.08814L15.7061 7.07631L15.8126 6.9777C16.0019 6.80416 16.0295 6.67795 16.0295 6.00745V5.39217L17.0471 5.40795L18.0608 5.41978L18.2855 5.53022C18.5262 5.64853 18.6603 5.78264 18.8022 6.04689L18.889 6.2086L18.9009 13.2094C18.9088 18.6444 18.9009 20.2496 18.8614 20.3877C18.8022 20.6125 18.5538 20.8649 18.2934 20.9635C18.1081 21.0345 17.8912 21.0384 12.0302 21.0503C5.42777 21.0622 5.69992 21.07 5.34494 20.8452C5.15957 20.7269 5.04914 20.581 4.98998 20.368C4.95448 20.2496 4.94659 18.4354 4.95448 13.2094C4.96631 6.46103 4.97026 6.20466 5.04125 6.07055C5.23056 5.71164 5.48299 5.50655 5.81824 5.44344C5.9129 5.42373 6.40197 5.40795 6.90681 5.404L7.8179 5.40006L7.83368 6.07844Z" />
<path d="M9.54147 8.61051C9.47837 8.64207 9.07606 8.99704 8.65404 9.39934C8.23203 9.80164 7.87311 10.1329 7.86128 10.1329C7.8455 10.1329 7.69563 9.98701 7.52603 9.80558C7.13951 9.39934 7.06062 9.34412 6.84765 9.34412C6.55578 9.34412 6.36646 9.60443 6.42562 9.9239C6.44534 10.0422 6.55578 10.1763 7.02512 10.6496C7.34065 10.9691 7.6483 11.2531 7.71535 11.2807C7.94805 11.3753 8.05454 11.3043 9.10761 10.3065C10.066 9.39934 10.2317 9.21396 10.2317 9.04832C10.2317 8.91027 10.0936 8.70123 9.95166 8.62629C9.79389 8.54347 9.70318 8.53952 9.54147 8.61051Z" fill="#999999"/>
<path d="M11.2336 9.80169C11.0758 9.87663 10.9811 10.0462 10.9811 10.2513C10.9811 10.4761 11.1665 10.6654 11.4189 10.7049C11.5136 10.7168 12.8349 10.7246 14.3533 10.7168C17.3588 10.7049 17.2286 10.7128 17.3706 10.4761C17.5165 10.2435 17.4534 9.98706 17.2167 9.8293L17.0827 9.73859H14.2192C11.7503 9.73859 11.3401 9.75042 11.2336 9.80169Z" />
<path d="M9.50205 12.4679C9.45866 12.4916 9.07608 12.8466 8.65012 13.2568L7.87707 13.9982L7.51027 13.6235C7.12769 13.233 6.96992 13.1423 6.76483 13.1897C6.52424 13.2409 6.35859 13.5289 6.42169 13.7853C6.4493 13.8917 7.4866 15.0039 7.63648 15.0907C7.75086 15.1538 7.97962 15.1538 8.0861 15.0907C8.25965 14.9922 10.1449 13.1621 10.1923 13.0477C10.2593 12.886 10.1883 12.6573 10.0306 12.5231C9.9004 12.4127 9.64797 12.3851 9.50205 12.4679Z" />
<path d="M11.2336 13.6433C10.9101 13.7733 10.8984 14.3256 11.2178 14.4912C11.3913 14.5819 16.9998 14.5819 17.1892 14.4912C17.4259 14.3768 17.5166 14.085 17.3903 13.8404C17.2641 13.5959 17.3824 13.6038 14.2075 13.6078C12.618 13.6078 11.277 13.6235 11.2336 13.6433Z" />
<path d="M9.54147 16.3055C9.47837 16.3331 9.07606 16.6881 8.65404 17.0904C8.23203 17.4927 7.87311 17.824 7.86128 17.824C7.84945 17.824 7.69957 17.6781 7.52603 17.4967C7.13162 17.0865 7.05668 17.0352 6.84765 17.0352C6.55578 17.0352 6.36646 17.2955 6.42562 17.615C6.44534 17.7333 6.55578 17.8674 7.02512 18.3407C7.34065 18.6602 7.6483 18.9441 7.71535 18.9717C7.952 19.0704 8.05454 18.9954 9.10761 17.9976C10.066 17.0903 10.2317 16.905 10.2317 16.7394C10.2317 16.6013 10.0936 16.3923 9.95166 16.3173C9.79389 16.2346 9.70318 16.2306 9.54147 16.3055Z" fill="#999999"/>
<path d="M11.2729 17.469C11.2295 17.4847 11.1427 17.5557 11.0875 17.6267C10.8667 17.8871 10.9968 18.2814 11.3281 18.3761C11.549 18.4352 16.9524 18.4274 17.1338 18.3643C17.2088 18.3366 17.3073 18.2578 17.3587 18.1828C17.5164 17.9462 17.4612 17.6859 17.2166 17.5202L17.0826 17.4295L14.2191 17.4335C12.6454 17.4335 11.3202 17.4493 11.2729 17.469Z" />

  </symbol>


   <symbol id="icon-close" viewBox="0 0 24 24">
   
   <path fill-rule="evenodd" clip-rule="evenodd" d="M19.5298 4.46955C19.2369 4.17665 18.7621 4.17665 18.4692 4.46955L11.9995 10.9392L5.52984 4.46955C5.23695 4.17665 4.76207 4.17665 4.46918 4.46955C4.17629 4.76244 4.17629 5.23731 4.46918 5.53021L10.9389 11.9999L4.46918 18.4695C4.17629 18.7624 4.17629 19.2373 4.46918 19.5302C4.76207 19.8231 5.23695 19.8231 5.52984 19.5302L11.9995 13.0605L18.4692 19.5302C18.7621 19.8231 19.2369 19.8231 19.5298 19.5302C19.8227 19.2373 19.8227 18.7624 19.5298 18.4695L13.0602 11.9999L19.5298 5.53021C19.8227 5.23731 19.8227 4.76244 19.5298 4.46955Z" ></path>
   
     </symbol>

     <symbol id="icon-savelater" viewBox="0 0 24 24">
   <path fill-rule="evenodd" clip-rule="evenodd" d="M11.0135 1.24963C9.37373 1.25346 8.03492 1.27833 6.951 1.43994C5.627 1.63794 4.578 2.05394 3.761 2.96194C2.954 3.85794 2.593 4.99094 2.42 6.42294C2.27267 7.64148 2.25302 9.15968 2.2504 11.0486L2.2504 12.9493C2.25302 14.8382 2.27267 16.3564 2.42 17.5749C2.593 19.0069 2.954 20.1399 3.761 21.0359C4.578 21.9439 5.627 22.3599 6.951 22.5579C8.232 22.7489 9.869 22.7489 11.938 22.7489L12.5326 22.7488C14.3807 22.7478 15.8665 22.7342 17.049 22.5579C18.3725 22.3599 19.4223 21.9439 20.2395 21.0359C21.0464 20.1399 21.4066 19.0069 21.5798 17.5749C21.75 16.1689 21.75 14.3639 21.75 12.0509L21.7499 11.4911C21.7492 9.39502 21.7387 7.73521 21.5798 6.42294C21.4066 4.99094 21.0464 3.85794 20.2395 2.96194C19.4223 2.05394 18.3725 1.63794 17.049 1.43994C15.9651 1.27833 14.6263 1.25346 12.9865 1.24963L11.0135 1.24963ZM7.25 2.91293L7.25026 10.1618C7.25156 10.6236 7.25933 11.0344 7.306 11.3619C7.363 11.7639 7.508 12.2779 8.011 12.5689C8.462 12.8289 8.94 12.7619 9.283 12.6489C9.63 12.5349 9.965 12.3349 10.25 12.1409C10.54 11.9429 10.822 11.7189 11.057 11.5299L11.069 11.5209C11.314 11.3249 11.488 11.1859 11.614 11.1039C11.815 10.9729 11.921 10.9049 12 10.8639C12.079 10.9049 12.185 10.9729 12.386 11.1039C12.512 11.1859 12.686 11.3249 12.931 11.5209L12.943 11.5299C13.178 11.7189 13.46 11.9429 13.75 12.1409C14.035 12.3349 14.37 12.5349 14.717 12.6489C15.06 12.7619 15.538 12.8289 15.989 12.5689C16.492 12.2779 16.637 11.7639 16.694 11.3619C16.75 10.9689 16.75 10.4559 16.75 9.87894V2.91293C16.776 2.91593 16.801 2.91992 16.827 2.92392C17.954 3.09192 18.6236 3.40894 19.1245 3.96494C19.6356 4.53294 19.9344 5.31094 20.0907 6.60294C20.2487 7.90894 20.25 9.62293 20.25 11.9989L20.2499 12.4367C20.2492 14.5876 20.2388 16.1706 20.0907 17.3949C19.9344 18.6869 19.6356 19.4649 19.1245 20.0329C18.6236 20.5889 17.954 20.9059 16.827 21.0739C15.67 21.2469 14.145 21.2489 12 21.2489L11.5792 21.2488C9.6533 21.2479 8.25286 21.2354 7.173 21.0739C6.046 20.9059 5.376 20.5889 4.875 20.0329C4.364 19.4649 4.066 18.6869 3.909 17.3949C3.77075 16.2522 3.7527 14.7971 3.75035 12.8594L3.75035 11.1385C3.7527 9.2008 3.77075 7.74569 3.909 6.60294C4.066 5.31094 4.364 4.53294 4.875 3.96494C5.376 3.40894 6.046 3.09192 7.173 2.92392C7.199 2.91992 7.224 2.91593 7.25 2.91293ZM11.1732 2.74948L12.8268 2.74948C13.754 2.75121 14.5531 2.75838 15.25 2.78793L15.25 9.82492C15.25 10.4729 15.248 10.8759 15.209 11.1509C15.205 11.1799 15.201 11.2059 15.196 11.2279L15.185 11.2239C15.038 11.1759 14.84 11.0689 14.597 10.9029C14.359 10.7399 14.119 10.5499 13.88 10.3589L13.83 10.3189C13.621 10.1519 13.394 9.96992 13.204 9.84692L13.18 9.83093C13.008 9.71893 12.833 9.60493 12.674 9.52393C12.491 9.42993 12.269 9.34692 12 9.34692C11.731 9.34692 11.509 9.42993 11.326 9.52393C11.167 9.60493 10.992 9.71893 10.82 9.83093L10.796 9.84692C10.606 9.96992 10.379 10.1519 10.17 10.3189L10.12 10.3589C9.881 10.5499 9.641 10.7399 9.403 10.9029C9.16 11.0689 8.962 11.1759 8.815 11.2239L8.804 11.2279C8.799 11.2059 8.795 11.1799 8.791 11.1509C8.75633 10.9065 8.7509 10.5609 8.75012 10.032L8.75 2.78793C9.44689 2.75838 10.246 2.75121 11.1732 2.74948Z" />

     </symbol>

</svg>



