<svg width="29" height="27" viewBox="0 0 29 27" fill="none" xmlns="http://www.w3.org/2000/svg">
<path d="M2.47749 17.0455C3.54859 17.0455 4.41689 16.1772 4.41689 15.1061C4.41689 14.035 3.54859 13.1667 2.47749 13.1667C1.40639 13.1667 0.538086 14.035 0.538086 15.1061C0.538086 16.1772 1.40639 17.0455 2.47749 17.0455Z" fill="#A38664"/>
<path d="M26.6591 17.0455C27.7302 17.0455 28.5985 16.1772 28.5985 15.1061C28.5985 14.035 27.7302 13.1667 26.6591 13.1667C25.588 13.1667 24.7197 14.035 24.7197 15.1061C24.7197 16.1772 25.588 17.0455 26.6591 17.0455Z" fill="#A38664"/>
<path d="M24.9013 11.5C24.7497 5.9545 20.174 1.46969 14.5679 1.46969C8.96186 1.46969 4.41636 5.9242 4.23456 11.5H3.02246C3.20426 5.2879 8.29516 0.257568 14.5679 0.257568C20.8406 0.257568 25.9316 5.2576 26.1134 11.5H24.9013Z" fill="#A38664"/>
<path d="M17.4173 26.2575C16.69 26.2575 16.2051 26.2272 16.1445 26.2272L16.2051 25.5605C16.2657 25.5605 23.1748 26.0757 24.0233 23.2272C24.9324 20.0454 24.4779 16.712 24.4779 16.6817L25.1445 16.5908C25.1748 16.712 25.6294 20.106 24.6597 23.409C23.8718 25.9242 19.5991 26.2575 17.4173 26.2575Z" fill="#3F3F3F"/>
<path d="M17.7203 26.9242H14.6294C14.3567 26.9242 14.1445 26.7121 14.1445 26.4394V25.2273C14.1445 24.9546 14.3567 24.7424 14.6294 24.7424H17.7203C17.993 24.7424 18.2051 24.9546 18.2051 25.2273V26.4394C18.2051 26.7121 17.993 26.9242 17.7203 26.9242Z" fill="#A38664"/>
<path d="M5.02278 10.8635H2.87128C2.20458 10.8635 1.65918 11.4696 1.65918 12.2272V17.6514C1.65918 18.409 2.20458 19.015 2.87128 19.015H5.02278C5.47738 19.015 5.87128 18.5908 5.87128 18.0756V11.7726C5.84098 11.2575 5.47738 10.8635 5.02278 10.8635Z" fill="#0D8F75"/>
<path d="M26.2959 10.8635H24.1444C23.6898 10.8635 23.2959 11.2878 23.2959 11.8029V18.0453C23.2959 18.5605 23.6595 18.9847 24.1444 18.9847H26.2959C26.9626 18.9847 27.508 18.3787 27.508 17.6211V12.1666C27.4777 11.4393 26.9323 10.8635 26.2959 10.8635Z" fill="#0D8F75"/>
<path d="M17.1135 16.8635L16.5983 17.3787C15.8105 18.1666 15.0226 18.6817 14.3862 18.0454L10.6892 14.3484C10.0226 13.6817 10.5377 12.9241 11.3559 12.1363L11.8711 11.6211L9.35592 9.10596L8.62862 9.83316C7.32562 11.1363 7.32562 13.1969 8.62862 14.4696L14.265 20.106C15.568 21.409 17.6286 21.409 18.9014 20.106L19.6286 19.3787L17.1135 16.8635Z" fill="#0D8F75"/>
<path d="M12.2951 11.3788L9.62838 8.71207C9.38598 8.46967 8.99208 8.46967 8.74958 8.71207L8.29508 9.16657C8.05268 9.40907 8.05268 9.80297 8.29508 10.0454L10.9618 12.7121C11.2042 12.9545 11.5981 12.9545 11.8406 12.7121L12.2951 12.2575C12.5375 12.0454 12.5375 11.6515 12.2951 11.3788Z" fill="#0D8F75"/>
<path d="M20.0226 19.1061L17.356 16.4394C17.1135 16.197 16.7196 16.197 16.4772 16.4394L16.0226 16.8939C15.7802 17.1364 15.7802 17.5303 16.0226 17.7727L18.6893 20.4394C18.9317 20.6818 19.3257 20.6818 19.5681 20.4394L20.0226 19.9848C20.2651 19.7424 20.2651 19.3485 20.0226 19.1061Z" fill="#0D8F75"/>
<path d="M14.2351 11.8634C14.1745 11.8028 14.1139 11.7119 14.1139 11.6513C14.0532 11.3786 14.2048 11.1665 14.4775 11.0756C15.3866 10.8634 16.2957 11.1362 16.932 11.7725C17.5684 12.4089 17.8411 13.3483 17.629 14.2271C17.5684 14.4998 17.326 14.621 17.0532 14.5907C16.7805 14.5301 16.6593 14.2877 16.6896 14.015C16.8108 13.4392 16.6593 12.8331 16.2351 12.4089C15.8108 11.9847 15.2351 11.8028 14.629 11.9544C14.5078 12.015 14.3563 11.9544 14.2351 11.8634Z" fill="#A38664"/>
<path d="M13.8405 10.0151C13.7799 9.9545 13.7193 9.8635 13.7193 9.8029C13.6587 9.5302 13.8102 9.3181 14.083 9.2272C15.6284 8.8635 17.2042 9.3181 18.2951 10.4393C19.4163 11.5605 19.8708 13.106 19.5072 14.6514C19.4466 14.9241 19.2042 15.0757 18.9314 15.0151C18.6587 14.9545 18.5072 14.712 18.5678 14.4393C18.8405 13.2272 18.4769 11.9848 17.6284 11.106C16.7799 10.2272 15.5072 9.8635 14.2951 10.1666C14.1133 10.1666 13.9617 10.1363 13.8405 10.0151Z" fill="#A38664"/>
<path d="M13.447 8.16658C13.3864 8.10598 13.3258 8.01508 13.3258 7.95448C13.2652 7.68168 13.4167 7.46958 13.6894 7.37868C15.8409 6.89388 18.0833 7.53018 19.6591 9.07568C21.2349 10.6514 21.8712 12.8635 21.3561 15.0454C21.2955 15.3181 21.053 15.4696 20.7803 15.409C20.5076 15.3484 20.3561 15.106 20.4167 14.8332C20.8409 12.9848 20.2955 11.0757 18.9621 9.77258C17.6288 8.43928 15.7197 7.89388 13.9015 8.31808C13.7197 8.34838 13.5379 8.28778 13.447 8.16658Z" fill="#A38664"/>
</svg>
