<svg width="30" height="30" viewBox="0 0 30 30" fill="none" xmlns="http://www.w3.org/2000/svg">
<mask id="mask0_15823_4282" style="mask-type:luminance" maskUnits="userSpaceOnUse" x="0" y="0" width="30" height="30">
<path d="M29.5455 0H0V29.5455H29.5455V0Z" fill="white"/>
</mask>
<g mask="url(#mask0_15823_4282)">
<path d="M8.91526 8.40771H6.14546C5.82806 8.40771 5.56836 8.66742 5.56836 8.98482V12.2163C5.56836 12.5337 5.82806 12.7934 6.14546 12.7934H8.91526C9.23266 12.7934 9.49236 12.5337 9.49236 12.2163V8.98482C9.49236 8.66742 9.23266 8.40771 8.91526 8.40771ZM8.33826 11.6392H6.72246V9.56182H8.33826V11.6392Z" fill="#A38664"/>
<path d="M8.33846 9.56177H6.72266V11.6392H8.33846V9.56177Z" fill="white" fill-opacity="0.2"/>
<path d="M13.9359 8.40771H11.166C10.8486 8.40771 10.5889 8.66742 10.5889 8.98482V12.2163C10.5889 12.5337 10.8486 12.7934 11.166 12.7934H13.9359C14.2532 12.7934 14.5129 12.5337 14.5129 12.2163V8.98482C14.5129 8.66742 14.2532 8.40771 13.9359 8.40771ZM13.3588 11.6392H11.743V9.56182H13.3588V11.6392Z" fill="#A38664"/>
<path d="M13.359 9.56177H11.7432V11.6392H13.359V9.56177Z" fill="white" fill-opacity="0.2"/>
<path d="M23.9769 8.40771H21.207C20.8896 8.40771 20.6299 8.66742 20.6299 8.98482V12.2163C20.6299 12.5337 20.8896 12.7934 21.207 12.7934H23.9769C24.2943 12.7934 24.5539 12.5337 24.5539 12.2163V8.98482C24.5539 8.66742 24.2943 8.40771 23.9769 8.40771ZM23.3998 11.6392H21.784V9.56182H23.3998V11.6392Z" fill="#A38664"/>
<path d="M23.4 9.56177H21.7842V11.6392H23.4V9.56177Z" fill="white" fill-opacity="0.2"/>
<path d="M8.91526 14.8708H6.14546C5.82806 14.8708 5.56836 15.1306 5.56836 15.448V18.6794C5.56836 18.9968 5.82806 19.2565 6.14546 19.2565H8.91526C9.23266 19.2565 9.49236 18.9968 9.49236 18.6794V15.448C9.49236 15.1306 9.23266 14.8708 8.91526 14.8708ZM8.33826 18.1024H6.72246V16.025H8.33826V18.1024Z" fill="#A38664"/>
<path d="M8.91526 21.334H6.14546C5.82806 21.334 5.56836 21.5937 5.56836 21.911V25.1426C5.56836 25.46 5.82806 25.7196 6.14546 25.7196H8.91526C9.23266 25.7196 9.49236 25.46 9.49236 25.1426V21.911C9.49236 21.5937 9.23266 21.334 8.91526 21.334ZM8.33826 24.5655H6.72246V22.4881H8.33826V24.5655Z" fill="#A38664"/>
<path d="M23.9769 21.334H21.207C20.8896 21.334 20.6299 21.5937 20.6299 21.911V25.1426C20.6299 25.46 20.8896 25.7196 21.207 25.7196H23.9769C24.2943 25.7196 24.5539 25.46 24.5539 25.1426V21.911C24.5539 21.5937 24.2943 21.334 23.9769 21.334ZM23.3998 24.5655H21.784V22.4881H23.3998V24.5655Z" fill="#A38664"/>
<path d="M13.9359 8.40771H11.166C10.8486 8.40771 10.5889 8.66742 10.5889 8.98482V12.2163C10.5889 12.5337 10.8486 12.7934 11.166 12.7934H13.9359C14.2532 12.7934 14.5129 12.5337 14.5129 12.2163V8.98482C14.5129 8.66742 14.2532 8.40771 13.9359 8.40771ZM13.3588 11.6392H11.743V9.56182H13.3588V11.6392Z" fill="#A38664"/>
<path d="M18.9564 8.40771H16.1865C15.8691 8.40771 15.6094 8.66742 15.6094 8.98482V12.2163C15.6094 12.5337 15.8691 12.7934 16.1865 12.7934H18.9564C19.2737 12.7934 19.5334 12.5337 19.5334 12.2163V8.98482C19.5334 8.66742 19.2737 8.40771 18.9564 8.40771ZM18.3793 11.6392H16.7635V9.56182H18.3793V11.6392Z" fill="#A38664"/>
<path d="M18.3795 9.56177H16.7637V11.6392H18.3795V9.56177Z" fill="white" fill-opacity="0.2"/>
<path d="M8.91526 14.8708H6.14546C5.82806 14.8708 5.56836 15.1306 5.56836 15.448V18.6794C5.56836 18.9968 5.82806 19.2565 6.14546 19.2565H8.91526C9.23266 19.2565 9.49236 18.9968 9.49236 18.6794V15.448C9.49236 15.1306 9.23266 14.8708 8.91526 14.8708ZM8.33826 18.1024H6.72246V16.025H8.33826V18.1024Z" fill="#A38664"/>
<path d="M8.33846 16.0249H6.72266V18.1023H8.33846V16.0249Z" fill="white" fill-opacity="0.2"/>
<path d="M13.9359 14.8708H11.166C10.8486 14.8708 10.5889 15.1306 10.5889 15.448V18.6794C10.5889 18.9968 10.8486 19.2565 11.166 19.2565H13.9359C14.2532 19.2565 14.5129 18.9968 14.5129 18.6794V15.448C14.5129 15.1306 14.2532 14.8708 13.9359 14.8708ZM13.3588 18.1024H11.743V16.025H13.3588V18.1024Z" fill="#A38664"/>
<path d="M13.359 16.0249H11.7432V18.1023H13.359V16.0249Z" fill="white" fill-opacity="0.2"/>
<path d="M23.9769 14.8708H21.207C20.8896 14.8708 20.6299 15.1306 20.6299 15.448V18.6794C20.6299 18.9968 20.8896 19.2565 21.207 19.2565H23.9769C24.2943 19.2565 24.5539 18.9968 24.5539 18.6794V15.448C24.5539 15.1306 24.2943 14.8708 23.9769 14.8708ZM23.3998 18.1024H21.784V16.025H23.3998V18.1024Z" fill="#A38664"/>
<path d="M23.4 16.0249H21.7842V18.1023H23.4V16.0249Z" fill="white" fill-opacity="0.2"/>
<path d="M13.9359 14.8708H11.166C10.8486 14.8708 10.5889 15.1306 10.5889 15.448V18.6794C10.5889 18.9968 10.8486 19.2565 11.166 19.2565H13.9359C14.2532 19.2565 14.5129 18.9968 14.5129 18.6794V15.448C14.5129 15.1306 14.2532 14.8708 13.9359 14.8708ZM13.3588 18.1024H11.743V16.025H13.3588V18.1024Z" fill="#A38664"/>
<path d="M18.9564 14.8708H16.1865C15.8691 14.8708 15.6094 15.1306 15.6094 15.448V18.6794C15.6094 18.9968 15.8691 19.2565 16.1865 19.2565H18.9564C19.2737 19.2565 19.5334 18.9968 19.5334 18.6794V15.448C19.5334 15.1306 19.2737 14.8708 18.9564 14.8708ZM18.3793 18.1024H16.7635V16.025H18.3793V18.1024Z" fill="#A38664"/>
<path d="M18.3795 16.0249H16.7637V18.1023H18.3795V16.0249Z" fill="white" fill-opacity="0.2"/>
<path d="M8.91526 21.334H6.14546C5.82806 21.334 5.56836 21.5937 5.56836 21.911V25.1426C5.56836 25.46 5.82806 25.7196 6.14546 25.7196H8.91526C9.23266 25.7196 9.49236 25.46 9.49236 25.1426V21.911C9.49236 21.5937 9.23266 21.334 8.91526 21.334ZM8.33826 24.5655H6.72246V22.4881H8.33826V24.5655Z" fill="#A38664"/>
<path d="M8.33846 22.488H6.72266V24.5655H8.33846V22.488Z" fill="white" fill-opacity="0.2"/>
<path d="M23.9769 21.334H21.207C20.8896 21.334 20.6299 21.5937 20.6299 21.911V25.1426C20.6299 25.46 20.8896 25.7196 21.207 25.7196H23.9769C24.2943 25.7196 24.5539 25.46 24.5539 25.1426V21.911C24.5539 21.5937 24.2943 21.334 23.9769 21.334ZM23.3998 24.5655H21.784V22.4881H23.3998V24.5655Z" fill="#A38664"/>
<path d="M23.4 22.488H21.7842V24.5655H23.4V22.488Z" fill="white" fill-opacity="0.2"/>
<path d="M13.9359 14.8708H11.166C10.8486 14.8708 10.5889 15.1306 10.5889 15.448V18.6794C10.5889 18.9968 10.8486 19.2565 11.166 19.2565H13.9359C14.2532 19.2565 14.5129 18.9968 14.5129 18.6794V15.448C14.5129 15.1306 14.2532 14.8708 13.9359 14.8708ZM13.3588 18.1024H11.743V16.025H13.3588V18.1024Z" fill="#A38664"/>
<path d="M18.9564 14.8708H16.1865C15.8691 14.8708 15.6094 15.1306 15.6094 15.448V18.6794C15.6094 18.9968 15.8691 19.2565 16.1865 19.2565H18.9564C19.2737 19.2565 19.5334 18.9968 19.5334 18.6794V15.448C19.5334 15.1306 19.2737 14.8708 18.9564 14.8708ZM18.3793 18.1024H16.7635V16.025H18.3793V18.1024Z" fill="#A38664"/>
<path d="M23.9769 14.8708H21.207C20.8896 14.8708 20.6299 15.1306 20.6299 15.448V18.6794C20.6299 18.9968 20.8896 19.2565 21.207 19.2565H23.9769C24.2943 19.2565 24.5539 18.9968 24.5539 18.6794V15.448C24.5539 15.1306 24.2943 14.8708 23.9769 14.8708ZM23.3998 18.1024H21.784V16.025H23.3998V18.1024Z" fill="#A38664"/>
<path d="M28.9684 28.3913H26.8045V6.0072C26.8045 5.6898 26.5448 5.4301 26.2274 5.4301H23.0247V3.34695C23.0247 3.02956 22.765 2.76989 22.4477 2.76989H19.2738V0.57706C19.2738 0.25968 19.0142 0 18.6968 0H10.8488C10.5314 0 10.2717 0.25968 10.2717 0.57706V2.76989H7.0979C6.7805 2.76989 6.5208 3.02956 6.5208 3.34695V5.4301H3.3181C3.0007 5.4301 2.7411 5.6898 2.7411 6.0072V28.3913H0.5771C0.2597 28.3913 0 28.651 0 28.9684C0 29.2858 0.2597 29.5455 0.5771 29.5455H28.9684C29.2858 29.5455 29.5455 29.2858 29.5455 28.9684C29.5455 28.651 29.2858 28.3913 28.9684 28.3913ZM11.4258 1.15412H18.1197V2.76989H11.4258V1.15412ZM7.6749 3.924H21.8706V5.4301H10.3006H9.7812H7.6749V3.924ZM17.1964 22.7708V24.3981V28.3913H13.2032H12.3491V27.6123V25.1656V23.5383V21.4666H14.4208H16.0481H17.1964V22.7708ZM25.6503 28.3913H21.784H18.3505V21.4666H18.5525C18.8699 21.4666 19.1296 21.2069 19.1296 20.8896C19.1296 20.5722 18.8699 20.3125 18.5525 20.3125H10.993C10.6756 20.3125 10.416 20.5722 10.416 20.8896C10.416 21.2069 10.6756 21.4666 10.993 21.4666H11.195V28.3913H3.8952V6.5843H9.7812H10.3006H25.6503V28.3913Z" fill="#A38664"/>
<path d="M17.1959 22.7707V24.398V28.3913H13.2026H12.3486V27.6122V25.1655V23.5382V21.4666H14.4202H16.0475H17.1959V22.7707Z" fill="white" fill-opacity="0.2"/>
</g>
</svg>
