<svg width="40" height="31" viewBox="0 0 40 31" fill="none" xmlns="http://www.w3.org/2000/svg">
<path d="M39.7177 29.7455C39.7177 29.9316 39.5662 30.0787 39.3844 30.0787H1.16432C0.978205 30.0787 0.831055 29.9272 0.831055 29.7455V28.5466C0.831055 28.3605 0.982535 28.2134 1.16432 28.2134H39.3844C39.5705 28.2134 39.7177 28.3649 39.7177 28.5466V29.7455Z" fill="#A4A9AD"/>
<path d="M13.1143 8.57739H35.6369V28.209H13.1143V8.57739Z" fill="#00B3E3"/>
<path d="M13.1143 8.57739V28.2133H17.2345V10.7284H35.6369V8.57739H13.1143Z" fill="black"/>
<path d="M37.5585 5.97616C37.5585 5.52176 37.1863 5.14526 36.7275 5.14526H13.9452C13.4908 5.14526 13.1143 5.51746 13.1143 5.97616V8.78506C13.1143 9.23946 13.4865 9.61596 13.9452 9.61596H36.7275C37.182 9.61596 37.5585 9.24376 37.5585 8.78506V5.97616Z" fill="#333E48"/>
<path d="M20.9258 21.2668H30.6464V28.2089H20.9258V21.2668Z" fill="white"/>
<path d="M30.6465 20.6479H20.926C20.584 20.6479 20.3027 20.9249 20.3027 21.2712V28.2132H21.5492V21.8944H25.163V28.2132H26.4095V21.8944H30.0276V28.2132H31.2654V21.2668C31.2654 20.9249 30.9884 20.6479 30.6465 20.6479Z" fill="#333E48"/>
<path d="M15.9353 28.2134V1.60514C15.9353 1.1507 15.5631 0.77417 15.1043 0.77417H4.18061C3.72611 0.77417 3.34961 1.14637 3.34961 1.60514V28.2134H15.9353Z" fill="#0071CE"/>
<path d="M4.99023 7.7119C4.99023 8.3229 5.11063 8.9278 5.34443 9.4923C5.57823 10.0568 5.92093 10.5697 6.35293 11.0017C6.78503 11.4337 7.29793 11.7764 7.86233 12.0103C8.42683 12.2441 9.03183 12.3644 9.64283 12.3644C10.2538 12.3644 10.8588 12.2441 11.4232 12.0103C11.9877 11.7764 12.5006 11.4337 12.9326 11.0017C13.3647 10.5697 13.7074 10.0568 13.9412 9.4923C14.175 8.9278 14.2953 8.3229 14.2953 7.7119C14.2953 7.1009 14.175 6.4959 13.9412 5.9314C13.7074 5.3669 13.3647 4.85405 12.9326 4.42203C12.5006 3.99 11.9877 3.64729 11.4232 3.41348C10.8588 3.17967 10.2538 3.05933 9.64283 3.05933C9.03183 3.05933 8.42683 3.17967 7.86233 3.41348C7.29793 3.64729 6.78503 3.99 6.35293 4.42203C5.92093 4.85405 5.57823 5.3669 5.34443 5.9314C5.11063 6.4959 4.99023 7.1009 4.99023 7.7119Z" fill="white"/>
<path d="M9.35337 4.21239C9.06207 4.33668 7.31397 5.0828 7.02297 5.207C6.90067 5.2591 6.82617 5.3744 6.82617 5.5073C6.82617 6.959 6.88417 7.6086 7.14727 8.3567C7.49167 9.3361 8.16777 10.1167 9.31197 10.7706C9.41367 10.8289 9.54167 10.8289 9.64337 10.7706C10.7978 10.1107 11.4769 9.3328 11.8183 8.3567C12.0782 7.614 12.1292 6.9962 12.1292 5.5073C12.1292 5.3751 12.054 5.2594 11.9323 5.207L9.62287 4.21239C9.53927 4.1766 9.43687 4.1766 9.35337 4.21239ZM9.47767 4.865L11.465 5.7277C11.4938 8.1058 11.0278 9.1482 9.48067 10.0964C7.89337 9.1091 7.47177 8.0554 7.48807 5.7304C7.93977 5.5375 9.09547 5.0281 9.47767 4.865Z" fill="#A38664"/>
<path d="M9.47736 4.84839L11.4647 5.7111C11.4935 8.0892 11.0275 9.1316 9.48036 10.0798C7.89306 9.0925 7.47146 8.0388 7.48776 5.7138C7.93946 5.5209 9.09516 5.0115 9.47736 4.84839Z" fill="#A38664"/>
</svg>
