<svg width="36" height="34" viewBox="0 0 36 34" fill="none" xmlns="http://www.w3.org/2000/svg">
<mask id="mask0_15823_4499" style="mask-type:luminance" maskUnits="userSpaceOnUse" x="0" y="0" width="36" height="34">
<path d="M35.2273 0H0V33.5227H35.2273V0Z" fill="white"/>
</mask>
<g mask="url(#mask0_15823_4499)">
<path d="M7.55205 26.7659L3.52565 26.2368C3.52565 26.2368 3.50085 31.1291 3.47615 31.5874C3.45135 32.0457 3.72935 32.3783 4.13385 32.4071C4.84395 32.4543 6.18425 32.4543 6.66585 32.4307C7.14745 32.4071 7.47495 32.0693 7.50245 31.6345C7.52995 31.1998 7.50245 28.5991 7.50245 28.5991L7.55205 26.7659Z" fill="#4E433D"/>
<path d="M26.9486 28.4027C26.9486 28.4027 26.9238 31.1971 26.9238 31.7523C26.9238 32.3076 27.2541 32.5957 27.6339 32.5721C28.0137 32.5485 29.8384 32.5721 30.2429 32.5721C30.6475 32.5721 31.1043 32.2107 31.1043 31.6816C31.1043 31.1526 31.1814 26.428 31.1814 26.428L26.9486 28.4027Z" fill="#4E433D"/>
<path d="M5.39698 14.6296L4.47778 14.6846C4.47778 14.6846 4.50528 13.8282 4.44198 13.5192C4.37868 13.2102 3.98788 13.0268 3.69618 13.0111C3.40438 12.9954 2.04211 12.9954 1.65406 13.0426C1.26601 13.0897 0.600002 13.459 0.616512 14.3992C0.633022 15.3394 1.26601 15.8632 1.79993 15.8501C2.33384 15.837 3.62738 15.8763 4.02088 15.8658C4.52458 15.8501 5.62538 15.8972 5.62538 15.8972L5.39698 14.6296Z" fill="#474C4F"/>
<path d="M30.0947 14.7605L30.9231 14.7815C30.9231 14.7815 30.9424 13.8334 31.0552 13.5401C31.1681 13.2468 31.3965 13.0896 31.9139 13.0896C32.4313 13.0896 33.4468 13.1263 33.7881 13.142C34.1294 13.1577 34.7926 13.7129 34.8257 14.5458C34.8587 15.3786 34.2587 15.9024 33.6588 15.9652C33.0588 16.0281 30.8075 15.9652 30.8075 15.9652L30.0947 14.7605Z" fill="#474C4F"/>
<path d="M28.757 16.1643L31.2862 16.057C31.2862 16.057 32.2302 17.4843 32.1119 22.3137C31.999 26.8995 30.7551 28.6908 29.6542 28.9449C28.5533 29.1989 24.3976 29.5892 17.8145 29.6258C11.2314 29.6625 6.34087 29.3037 5.39967 29.0889C4.45837 28.8742 3.44017 27.549 3.33007 26.5826C3.16217 25.1003 3.15117 23.1072 3.22547 20.2787C3.29977 17.4503 3.94647 16.0308 3.94647 16.0308L28.757 16.1643Z" fill="#474C4F"/>
<path d="M7.37859 24.1443C5.95299 23.919 3.88339 23.0652 3.72649 23.6938C3.56959 24.3223 4.19989 25.0714 5.71079 25.5506C7.22169 26.0299 10.6839 26.3887 17.955 26.2394C25.2261 26.0901 27.681 25.9094 29.1287 25.5218C30.5763 25.1316 32.2441 24.084 31.7102 23.4843C31.1763 22.8845 29.7589 23.754 28.4682 23.9924C27.1774 24.2307 22.3282 24.359 17.8614 24.4428C13.0149 24.5319 8.88949 24.3826 7.37859 24.1443Z" fill="#858585"/>
<path d="M13.1089 23.1883C12.5337 23.2145 11.7246 22.9238 11.3833 22.0752C11.042 21.2241 11.0007 20.7186 11.1053 20.2734C11.2127 19.8282 11.5319 19.6658 12.275 19.6056C13.0208 19.5453 14.4684 19.4432 17.5756 19.4222C20.6855 19.4013 22.8349 19.4615 23.3881 19.5244C23.9413 19.5846 24.2605 19.7679 24.1752 20.3153C24.0899 20.8627 23.7926 21.9574 23.5587 22.4838C23.3881 22.8688 22.8569 23.1516 22.1524 23.1726C21.4533 23.1883 13.5575 23.1673 13.1089 23.1883Z" fill="#2F2F2F"/>
<path d="M31.6052 19.9512C31.3382 19.8019 25.4129 20.0271 25.223 20.1895C25.0303 20.3519 24.0038 22.3685 24.5212 22.5596C25.0111 22.743 31.4153 22.6461 31.6272 22.5439C31.9574 22.3868 31.8584 20.0926 31.6052 19.9512Z" fill="#FEA826"/>
<path d="M10.0648 20.2106C9.59418 20.0927 3.75418 19.9644 3.49818 20.2263C3.38538 20.3415 3.41288 22.0098 3.43488 22.3136C3.45688 22.6174 3.70188 22.7221 4.12568 22.7431C4.55228 22.764 10.0015 22.8033 10.362 22.764C10.7226 22.7248 10.8079 22.3791 10.7446 22.0753C10.6813 21.7688 10.4694 20.3127 10.0648 20.2106Z" fill="#FEA826"/>
<path d="M10.4248 7.24397C10.4661 7.00043 10.4881 5.27979 10.4881 5.27979L12.3403 5.52334L12.277 7.10258L10.4248 7.24397Z" fill="#474C4F"/>
<path d="M15.3242 5.70679L15.3655 6.94032H20.6028L20.6441 5.74607L15.3242 5.70679Z" fill="#474C4F"/>
<path d="M23.3906 5.66491V7.26508L25.1162 7.30438L25.0089 5.60205L23.3906 5.66491Z" fill="#474C4F"/>
<path d="M15.5359 3.37573H20.5393L21.453 4.93663L20.4952 6.07065H15.5359L14.5781 4.65117L15.5359 3.37573Z" fill="#CECECF"/>
<path d="M9.74512 5.54423C9.74512 5.80875 9.76722 6.01041 10.0424 6.03136C10.3203 6.05231 15.5356 6.07065 15.5356 6.07065V3.37573H10.4469C10.1057 3.37573 9.74512 3.76072 9.74512 4.06452V5.54423Z" fill="#0F64C7"/>
<path d="M20.5395 3.37573C20.5395 3.37573 24.8384 3.43597 25.1383 3.47787C25.4383 3.51978 25.7355 3.86286 25.7768 4.2688C25.8181 4.67474 25.7355 5.66733 25.7355 5.84803C25.7355 6.02874 25.4906 6.13874 25.0888 6.13874C24.6842 6.13874 20.501 6.07065 20.501 6.07065L20.5395 3.37573Z" fill="#DD0C26"/>
<path d="M3.93874 16.0307C3.98544 15.9469 4.55244 15.7557 4.89364 15.1848C5.13314 14.7841 5.82944 12.6313 6.74584 10.9106C7.66234 9.18998 8.04484 8.43828 8.30084 8.05338C8.55674 7.66838 8.93934 7.36458 9.59984 7.18118C10.2603 6.99789 12.5611 6.50291 18.0956 6.60504C23.6302 6.70718 25.0337 6.86432 25.5732 7.02932C26.008 7.16028 26.8226 7.56618 27.3538 8.49858C27.8849 9.43088 30.1389 14.2158 30.3536 14.64C30.5655 15.0643 31.2893 16.0517 31.2893 16.0517C31.2893 16.0517 29.3766 17.9452 24.9071 18.4375C20.889 18.8801 15.0545 19.2756 9.03014 18.2856C4.30194 17.5157 3.89194 16.1145 3.93874 16.0307Z" fill="#E3E4DE"/>
<path d="M8.85046 8.76302C8.36056 9.22922 7.25696 11.5339 6.70936 12.8591C6.16166 14.1843 5.83966 15.2738 6.58546 15.2973C7.33126 15.3209 14.4236 15.2266 17.561 15.2031C20.6984 15.1795 28.187 15.3445 28.7347 15.3445C29.2823 15.3445 29.6043 14.894 29.3566 14.3257C29.1089 13.7574 27.265 9.87352 26.8439 9.23442C26.4201 8.59542 25.8229 8.38072 24.7771 8.33352C23.7313 8.28642 19.8233 8.07422 17.1372 8.07422C14.4511 8.07422 9.29906 8.33882 8.85046 8.76302Z" fill="#2D2E35"/>
<path d="M7.18548 14.1974C7.29278 14.3519 14.0273 14.0717 18.0839 14.1424C22.1406 14.2131 27.565 14.3309 27.8402 14.3074C28.1127 14.2838 28.1402 13.9041 28.1127 13.7862C28.0879 13.6683 27.6146 12.7439 27.6146 12.7439C27.6146 12.7439 25.1514 10.0908 24.9505 10.0908C24.7524 10.0908 17.784 10.5177 17.784 10.5177L9.94588 10.3056L7.58178 13.0817C7.58178 13.0817 7.13598 14.1267 7.18548 14.1974Z" fill="#96C8ED"/>
<path d="M7.58203 13.0817C7.58203 13.0817 8.68013 10.5806 9.12313 9.94676C9.29653 9.70056 9.42313 9.47276 10.0203 9.40206C10.6176 9.33136 13.7027 8.90446 17.8336 8.97516C21.9646 9.04586 24.3534 9.20296 24.8516 9.23446C25.4405 9.27106 25.8478 9.47016 26.0708 9.82626C26.2937 10.1825 27.8624 13.2362 27.8624 13.2362L25.3304 13.0162C25.3304 13.0162 25.3139 11.9058 25.2754 11.5234C25.2424 11.1934 25.08 10.9211 24.5488 10.8923C24.0755 10.8687 23.0297 10.8451 22.6829 10.8687C22.3334 10.8923 22.0967 11.1673 22.0279 11.6387C21.9591 12.1127 21.8875 12.9586 21.8875 12.9586L14.0467 13.0031C14.0467 13.0031 14.0467 11.8351 13.9752 11.4134C13.9229 11.1096 13.722 10.9106 13.3119 10.9132C12.8358 10.9158 11.9331 10.8687 11.2863 10.9394C10.9863 10.9734 10.7634 11.3192 10.7386 11.8168C10.7194 12.1756 10.6891 12.977 10.6891 12.977L7.58203 13.0817Z" fill="#AFE3FB"/>
</g>
</svg>
