<svg width="165" height="161" viewBox="0 0 165 161" fill="none" xmlns="http://www.w3.org/2000/svg">
<path d="M30.2439 38.3535C21.0146 33.6135 10.6733 31.2748 0.266602 31.2162V0.000181322C15.4439 0.0441813 30.7559 3.54285 44.3293 10.4975L30.2439 38.3535Z" fill="#100F0D"/>
<path d="M53.8201 58.2549C47.6348 49.9242 39.5095 43.0014 30.2441 38.3534L44.3295 10.4974C57.9561 17.3481 69.8521 27.4668 78.9188 39.6948L53.8201 58.2549Z" fill="#100F0D"/>
<path d="M65.8727 86.5918C64.998 81.4866 63.5567 76.485 61.534 71.7183C59.4847 66.9642 56.8887 62.4397 53.8193 58.2547L78.918 39.6946C83.4287 45.8266 87.242 52.4771 90.2527 59.4839C93.234 66.5011 95.3727 73.8787 96.6527 81.3907L65.8727 86.5918Z" fill="#100F0D"/>
<path d="M66.8304 122.334V98.3282L66.7424 94.323C66.5624 91.7314 66.329 89.1444 65.873 86.5924L96.653 81.3913C97.313 85.146 97.6757 88.9392 97.9171 92.734L97.9944 95.5829L98.029 97.0069L98.0451 98.3282V103.13V122.334H66.8304Z" fill="#100F0D"/>
<path d="M66.8301 160.741V122.333H98.0448V160.741H66.8301Z" fill="#100F0D"/>
<path d="M120.547 10.4975C134.122 3.54285 149.432 0.0441813 164.61 0.000181322V31.2162C154.204 31.2748 143.863 33.6135 134.634 38.3535L120.547 10.4975Z" fill="#100F0D"/>
<path d="M85.958 39.6948C95.0247 27.4668 106.921 17.3481 120.546 10.4974L134.633 38.3534C125.367 43.0014 117.242 49.9242 111.055 58.2549L85.958 39.6948Z" fill="#100F0D"/>
<path d="M68.2227 81.3907C69.504 73.8787 71.6427 66.5011 74.624 59.4839C77.6333 52.4771 81.448 45.8266 85.9587 39.6946L111.056 58.2547C107.987 62.4397 105.392 66.9642 103.343 71.7183C101.319 76.485 99.876 81.4866 99.0013 86.5918L68.2227 81.3907Z" fill="#100F0D"/>
<path d="M66.8301 122.334V98.3282L66.8474 97.0069L66.8808 95.5829L66.9594 92.734C67.2007 88.9392 67.5634 85.146 68.2221 81.3913L99.0007 86.5924C98.5447 89.1444 98.3141 91.7314 98.1341 94.323L98.0448 98.3282V103.13V122.334H66.8301Z" fill="#100F0D"/>
<path d="M66.8301 160.741V122.333H98.0448V160.741H66.8301Z" fill="#100F0D"/>
<path d="M42.3753 14.3564C29.662 7.84178 15.1006 4.37245 0.264648 4.32578L0.267318 3.49779C15.2326 3.54579 29.9246 7.04579 42.754 13.6191L42.3753 14.3564Z" fill="white"/>
<path d="M32.0677 34.7432C22.529 29.8472 11.5317 27.2285 0.263672 27.1712L0.26901 26.3418C11.665 26.4005 22.7917 29.0512 32.445 34.0072L32.0677 34.7432Z" fill="white"/>
<path d="M5.35941 16.0605C4.27007 15.9752 3.15142 15.9526 2.07142 15.9326C1.46209 15.9206 0.854094 15.9086 0.246094 15.8859L0.287402 14.7832C0.887402 14.8059 1.49007 14.8165 2.09274 14.8285C3.19007 14.8499 4.32343 14.8712 5.44476 14.9592L5.35941 16.0605Z" fill="white"/>
<path d="M24.4167 19.5137C21.2887 18.5563 18.0034 17.7683 14.6514 17.1723L14.8434 16.0843C18.2407 16.6883 21.5701 17.487 24.7394 18.4577L24.4167 19.5137Z" fill="white"/>
<path d="M37.148 24.667C36.0986 24.1003 34.9853 23.6017 33.9066 23.119C33.4466 22.9137 32.9853 22.7083 32.5293 22.4963L32.992 21.495C33.4453 21.7043 33.9013 21.9083 34.3573 22.1123C35.4546 22.6017 36.5893 23.1097 37.6733 23.6963L37.148 24.667Z" fill="white"/>
<path d="M75.4406 42.2666C66.7086 30.4933 55.2766 20.8426 42.3779 14.3573L42.7512 13.6186C55.7632 20.1599 67.2979 29.8959 76.1046 41.7733L75.4406 42.2666Z" fill="white"/>
<path d="M57.0743 55.8506C50.449 46.9266 41.8036 39.6279 32.0703 34.7439L32.4423 34.0052C42.2903 38.9466 51.0383 46.3293 57.7383 55.3574L57.0743 55.8506Z" fill="white"/>
<path d="M41.6479 27.1191L39.4199 25.8378L37.1572 24.6725L37.6626 23.6911L39.9466 24.8685L42.1972 26.1618L41.6479 27.1191Z" fill="white"/>
<path d="M57.066 38.8105C54.626 36.4519 52.0566 34.2572 49.4326 32.2866L50.0953 31.4039C52.7566 33.4012 55.3606 35.6252 57.834 38.0159L57.066 38.8105Z" fill="white"/>
<path d="M66.1517 49.1465C65.1051 47.772 64.0758 46.4309 62.9824 45.1361L63.8251 44.4241C64.9357 45.7371 65.9744 47.0907 67.0291 48.4787L66.1517 49.1465Z" fill="white"/>
<path d="M69.8639 85.9189C68.9252 80.4351 67.3746 75.1247 65.2559 70.1325C63.0866 65.0992 60.3332 60.2924 57.0732 55.8487L57.7399 55.3591C61.0386 59.8523 63.8213 64.7137 66.0173 69.8069C68.1613 74.8591 69.7292 80.2325 70.6786 85.7804L69.8639 85.9189Z" fill="white"/>
<path d="M69.0333 53.332C68.4027 52.2987 67.68 51.2908 66.9827 50.3148C66.6987 49.9215 66.416 49.5267 66.1387 49.1278L67.0413 48.496C67.3187 48.8908 67.5973 49.2815 67.8787 49.6731C68.5893 50.6643 69.3227 51.6882 69.976 52.7559L69.0333 53.332Z" fill="white"/>
<path d="M77.5592 70.7246C76.4566 67.5767 75.1486 64.4615 73.6699 61.4658L74.6592 60.9777C76.1566 64.0126 77.4846 67.1699 78.6006 70.3605L77.5592 70.7246Z" fill="white"/>
<path d="M80.9905 84.043L80.5398 81.5132C80.4345 80.9976 80.3132 80.472 80.1905 79.9482L79.9785 79.0294L81.0558 78.7892L81.2638 79.6976C81.3905 80.232 81.5158 80.7679 81.6238 81.308L82.0772 83.8491L80.9905 84.043Z" fill="white"/>
<path d="M94.5448 122.336H93.7168V98.3223H94.5448V122.336Z" fill="white"/>
<path d="M71.7033 122.334H70.874V98.3282L70.7806 94.1059C70.6153 91.6804 70.3739 88.7949 69.8633 85.923L70.678 85.7768C71.198 88.6887 71.4393 91.6017 71.6073 94.0684L71.7033 98.3189V122.334Z" fill="white"/>
<path d="M81.6998 89.1133C81.6132 88.5133 81.5412 87.9106 81.4705 87.3081C81.3438 86.2346 81.2105 85.1242 80.9932 84.0575L82.0745 83.8362C82.3025 84.9482 82.4358 86.0815 82.5665 87.1789C82.6372 87.7721 82.7065 88.3654 82.7932 88.9559L81.6998 89.1133Z" fill="white"/>
<path d="M83.2642 108.551H82.1602V98.4346H83.2642V108.551Z" fill="white"/>
<path d="M83.2642 122.334H82.1602V117.211H83.2642V122.334Z" fill="white"/>
<path d="M94.5478 160.741H93.7197V122.333H94.5478V160.741Z" fill="white"/>
<path d="M71.7034 160.741H70.874V122.333H71.7034V160.741Z" fill="white"/>
<path d="M83.2642 127.456H82.1602V122.334H83.2642V127.456Z" fill="white"/>
<path d="M83.2642 146.959H82.1602V136.844H83.2642V146.959Z" fill="white"/>
<path d="M83.2642 160.741H82.1602V155.618H83.2642V160.741Z" fill="white"/>
<path d="M133.056 35.2305L132.679 34.4945C142.256 29.5771 153.297 26.9478 164.607 26.8891L164.612 27.7171C153.429 27.7745 142.519 30.3731 133.056 35.2305Z" fill="white"/>
<path d="M122.747 14.8457L122.37 14.1084C135.123 7.57237 149.73 4.09237 164.607 4.0457L164.61 4.8737C149.862 4.92036 135.386 8.36837 122.747 14.8457Z" fill="white"/>
<path d="M159.55 16.6055L159.465 15.5055C160.576 15.4188 161.699 15.3961 162.786 15.3761C163.387 15.3641 163.988 15.3521 164.589 15.3308L164.63 16.4335C164.024 16.4561 163.416 16.4681 162.809 16.4801C161.737 16.5001 160.629 16.5215 159.55 16.6055Z" fill="white"/>
<path d="M140.554 20.0576L140.231 19.0016C143.402 18.0283 146.731 17.2283 150.127 16.6229L150.319 17.711C146.97 18.3083 143.683 19.0963 140.554 20.0576Z" fill="white"/>
<path d="M127.977 25.1562L127.45 24.1843C128.528 23.6029 129.652 23.0989 130.741 22.6123C131.196 22.4096 131.649 22.2056 132.1 21.9976L132.564 22.9989C132.108 23.2096 131.65 23.4149 131.192 23.6203C130.122 24.0989 129.016 24.5922 127.977 25.1562Z" fill="white"/>
<path d="M108.242 56.1768L107.578 55.6829C114.229 46.723 122.91 39.3965 132.681 34.4938L133.053 35.2325C123.397 40.0792 114.818 47.3205 108.242 56.1768Z" fill="white"/>
<path d="M89.874 42.5918L89.21 42.0985C97.9686 30.2891 109.435 20.6105 122.373 14.1065L122.745 14.8465C109.922 21.2918 98.5553 30.8865 89.874 42.5918Z" fill="white"/>
<path d="M123.506 27.5908L122.957 26.6335L125.169 25.3615L127.461 24.1788L127.966 25.1615L125.697 26.3308L123.506 27.5908Z" fill="white"/>
<path d="M108.143 39.251L107.374 38.4576C109.845 36.0656 112.446 33.8403 115.11 31.843L115.771 32.7256C113.147 34.6963 110.579 36.891 108.143 39.251Z" fill="white"/>
<path d="M99.1654 49.4727L98.2881 48.8045C99.3348 47.4273 100.367 46.0847 101.471 44.7769L102.315 45.4888C101.227 46.7769 100.205 48.1071 99.1654 49.4727Z" fill="white"/>
<path d="M95.552 86.0107L94.7373 85.8707C95.6786 80.367 97.236 75.0347 99.3626 70.0243C101.54 64.9697 104.304 60.1457 107.577 55.6842L108.244 56.1733C105.008 60.5853 102.276 65.355 100.124 70.3493C98.0226 75.3003 96.4853 80.5697 95.552 86.0107Z" fill="white"/>
<path d="M82.5398 53.4678L82.3798 53.1866C80.3398 49.4214 78.0051 45.7454 75.4385 42.2612L76.1051 41.7706C78.5438 45.0823 80.7772 48.5652 82.7505 52.136C84.6892 48.6704 86.8598 45.2975 89.2091 42.0999L89.8758 42.5906C87.4011 45.9584 85.1252 49.5251 83.1132 53.188L83.0265 53.3464L82.5398 53.4678Z" fill="white"/>
<path d="M96.304 53.6299L95.3613 53.0553C96.008 51.9939 96.7373 50.9777 97.4413 49.9939C97.72 49.6044 98 49.2137 98.2747 48.822L99.1787 49.4539C98.9027 49.8496 98.62 50.2435 98.3387 50.6367C97.6467 51.6034 96.9293 52.6044 96.304 53.6299Z" fill="white"/>
<path d="M87.8122 70.9697L86.7695 70.6041C87.8882 67.4056 89.2135 64.2484 90.7069 61.2217L91.6975 61.7099C90.2229 64.6963 88.9162 67.8124 87.8122 70.9697Z" fill="white"/>
<path d="M84.4265 84.1348L83.3398 83.94L83.7878 81.4269C83.8985 80.8697 84.0265 80.3269 84.1532 79.7842L84.3545 78.9134L85.4318 79.155L85.2278 80.0364C85.1038 80.567 84.9798 81.0978 84.8732 81.6322L84.4265 84.1348Z" fill="white"/>
<path d="M94.5478 122.334H93.7197V98.3282L93.8144 94.1153C93.9824 91.6523 94.2224 88.7648 94.7371 85.8684L95.5517 86.0137C95.0437 88.87 94.8064 91.7315 94.6411 94.1523L94.5478 98.3377V122.334Z" fill="white"/>
<path d="M71.7063 122.336H70.877V98.3223H71.7063V122.336Z" fill="white"/>
<path d="M83.7213 89.1709L82.6279 89.0136C82.7119 88.4256 82.7826 87.8376 82.8533 87.2469C82.9826 86.1578 83.1159 85.0324 83.3426 83.927L84.4239 84.1485C84.2066 85.2084 84.076 86.3109 83.9493 87.3776C83.8773 87.9766 83.8066 88.575 83.7213 89.1709Z" fill="white"/>
<path d="M83.2642 108.551H82.1602V98.4346H83.2642V108.551Z" fill="white"/>
<path d="M83.2642 122.334H82.1602V117.211H83.2642V122.334Z" fill="white"/>
<path d="M94.5478 160.741H93.7197V122.333H94.5478V160.741Z" fill="white"/>
<path d="M71.7034 160.741H70.874V122.333H71.7034V160.741Z" fill="white"/>
<path d="M83.2642 127.456H82.1602V122.334H83.2642V127.456Z" fill="white"/>
<path d="M83.2642 146.959H82.1602V136.844H83.2642V146.959Z" fill="white"/>
<path d="M83.2642 160.741H82.1602V155.618H83.2642V160.741Z" fill="white"/>
</svg>
