<svg width="187" height="197" viewBox="0 0 187 197" fill="none" xmlns="http://www.w3.org/2000/svg">
<path d="M123.418 141.458C121.19 141.728 118.942 141.758 116.702 141.883L115.861 141.919C115.572 141.932 115.3 141.941 115.102 141.938H113.788H111.157H100.635H79.5908V110.723H100.635H111.157H113.788H115.102C115.345 110.726 115.51 110.716 115.657 110.704L116.13 110.672C117.388 110.565 118.661 110.6 119.91 110.44L123.418 141.458Z" fill="#100F0D"/>
<path d="M115.206 115.048H79.5908V114.22H115.102C115.388 114.224 115.593 114.209 115.793 114.195C115.918 114.185 116.045 114.176 116.188 114.171C116.736 114.127 117.304 114.104 117.87 114.081C118.672 114.051 119.5 114.017 120.297 113.917L120.401 114.739C119.569 114.844 118.722 114.877 117.904 114.909C117.348 114.931 116.79 114.952 116.236 114.997C116.086 115.003 115.972 115.01 115.854 115.02C115.658 115.033 115.464 115.048 115.206 115.048Z" fill="white"/>
<path d="M115.194 137.893H79.5908V137.064H115.102C115.37 137.072 115.72 137.051 116.064 137.035L116.606 137.011C117.24 136.974 117.882 136.946 118.528 136.918C119.956 136.856 121.432 136.791 122.866 136.617L122.969 137.438C121.501 137.618 120.008 137.682 118.562 137.746C117.922 137.774 117.284 137.8 116.645 137.838L116.104 137.862C115.781 137.878 115.458 137.893 115.194 137.893Z" fill="white"/>
<path d="M85.2054 126.608H79.5908V125.505H85.2054V126.608Z" fill="white"/>
<path d="M105.608 126.608H95.4922V125.505H105.608V126.608Z" fill="white"/>
<path d="M116.098 126.573L116.026 125.472C116.693 125.426 117.361 125.398 118.029 125.369C119.194 125.32 120.401 125.268 121.569 125.129L121.698 126.225C120.49 126.369 119.264 126.421 118.077 126.472C117.417 126.501 116.757 126.529 116.098 126.573Z" fill="white"/>
<path d="M169.8 116.442C164.047 123.349 156.976 129.147 149.056 133.435C141.146 137.737 132.36 140.469 123.419 141.457L119.911 110.44C129.919 109.4 139.375 104.235 145.828 96.4492L169.8 116.442Z" fill="#100F0D"/>
<path d="M120.392 114.738L120.306 113.916C131.156 112.783 141.436 107.233 148.512 98.6904L149.15 99.2195C141.938 107.926 131.456 113.584 120.392 114.738Z" fill="white"/>
<path d="M122.964 137.438L122.872 136.614C131.197 135.695 139.451 133.114 146.737 129.148C154.155 125.132 160.655 119.807 166.057 113.321L166.693 113.852C161.223 120.419 154.641 125.809 147.132 129.876C139.752 133.891 131.395 136.507 122.964 137.438Z" fill="white"/>
<path d="M121.726 126.222L121.541 125.134C122.198 125.022 122.86 124.926 123.52 124.831C124.676 124.664 125.872 124.492 127.018 124.228L127.265 125.304C126.074 125.579 124.856 125.753 123.677 125.924C123.026 126.018 122.374 126.111 121.726 126.222Z" fill="white"/>
<path d="M137.114 122.19L136.663 121.183C139.8 119.776 142.758 118.164 145.456 116.389L146.063 117.31C143.315 119.117 140.306 120.76 137.114 122.19Z" fill="white"/>
<path d="M154.192 110.759L153.42 109.969C154.268 109.143 155.079 108.24 155.861 107.365C156.305 106.872 156.748 106.379 157.199 105.893L158.007 106.648C157.56 107.127 157.121 107.615 156.684 108.103C155.888 108.991 155.065 109.908 154.192 110.759Z" fill="white"/>
<path d="M186.001 66.329C186.611 75.2677 185.541 84.3519 182.763 92.9383C179.997 101.521 175.557 109.542 169.8 116.442L145.828 96.4492C152.333 88.6981 155.599 78.5331 154.856 68.4171L186.001 66.329Z" fill="#100F0D"/>
<path d="M149.147 99.2217L148.515 98.6894C155.572 90.291 159.155 79.1722 158.345 68.1857L159.171 68.1244C159.996 79.3258 156.344 90.6602 149.147 99.2217Z" fill="white"/>
<path d="M158.036 106.613L157.172 105.928C157.929 104.972 158.657 103.992 159.385 103.012C159.764 102.5 160.144 101.989 160.528 101.481L161.409 102.147C161.028 102.652 160.649 103.161 160.272 103.669C159.536 104.66 158.803 105.649 158.036 106.613Z" fill="white"/>
<path d="M163.153 18.885C169.781 24.9437 175.248 32.273 179.156 40.3823C183.075 48.485 185.407 57.373 186.001 66.329L154.856 68.417C154.223 58.3637 149.563 48.7157 142.084 41.9143L163.153 18.885Z" fill="#100F0D"/>
<path d="M158.345 68.1816C157.659 57.2536 152.593 46.7403 144.445 39.335L145.003 38.723C153.308 46.271 158.472 56.9896 159.171 68.1296L158.345 68.1816Z" fill="white"/>
<path d="M181.138 66.6543C180.584 58.3263 178.38 49.9743 174.768 42.4996C171.162 35.0196 166.009 28.097 159.862 22.4796L160.422 21.869C166.644 27.5556 171.862 34.5663 175.513 42.1396C179.172 49.709 181.402 58.1663 181.965 66.5996L181.138 66.6543Z" fill="white"/>
<path d="M166.329 52.1533C165.786 50.436 164.972 48.7787 164.186 47.1747C163.865 46.5227 163.545 45.8693 163.241 45.2106C162.874 44.6346 162.489 43.9853 162.105 43.3373L162.008 43.172L162.956 42.6093L163.054 42.7747C163.434 43.4147 163.814 44.056 164.209 44.6853C164.544 45.3987 164.861 46.044 165.177 46.6893C165.981 48.3293 166.813 50.0253 167.381 51.8213L166.329 52.1533Z" fill="white"/>
<path d="M155.948 34.9414L154.069 32.8734C153.676 32.4627 153.241 32.0747 152.805 31.6854C152.553 31.4601 152.302 31.2347 152.056 31.0041L152.81 30.1987C153.05 30.4241 153.296 30.6427 153.541 30.8627C153.997 31.2707 154.453 31.6787 154.876 32.1214L156.765 34.1987L155.948 34.9414Z" fill="white"/>
<path d="M113.872 0.339049C122.828 0.159049 131.872 1.67238 140.304 4.85371C148.737 8.02038 156.531 12.8204 163.153 18.8857L142.084 41.915C134.643 35.063 124.66 31.3177 114.536 31.547L113.872 0.339049Z" fill="#100F0D"/>
<path d="M144.444 39.333C136.386 31.9063 125.494 27.781 114.463 28.0503L114.444 27.2223C125.63 26.9717 136.791 31.153 145.004 38.7237L144.444 39.333Z" fill="white"/>
<path d="M159.863 22.4805C153.72 16.8525 146.363 12.3338 138.588 9.41514C130.856 6.4978 122.368 5.0498 113.974 5.21113L113.959 4.38314C122.414 4.22181 131.05 5.68581 138.88 8.63914C146.752 11.5965 154.202 16.1711 160.423 21.8698L159.863 22.4805Z" fill="white"/>
<path d="M152.063 31.0098L149.996 29.1311L147.803 27.4911L148.464 26.6071L150.697 28.2804L152.805 30.1938L152.063 31.0098Z" fill="white"/>
<path d="M139.168 22.2373L136.574 20.988L132.12 19.356C131.378 19.088 130.593 18.8946 129.833 18.7066L130.096 17.636C130.885 17.8293 131.7 18.0293 132.497 18.3186L137.005 19.972L139.646 21.2426L139.168 22.2373Z" fill="white"/>
<path d="M119.761 16.9307L116.972 16.7893C116.094 16.732 115.168 16.6853 114.259 16.7667L114.16 15.6667C115.143 15.5773 116.121 15.6293 117.035 15.688L119.816 15.828L119.761 16.9307Z" fill="white"/>
<path d="M65.3857 20.9494C71.7451 14.5987 79.3257 9.46402 87.6243 5.93869C95.9117 2.40136 104.912 0.500024 113.872 0.338691L114.536 31.5467C104.427 31.676 94.5705 35.8734 87.4257 43.0547L65.3857 20.9494Z" fill="#100F0D"/>
<path d="M84.9576 40.5762L84.3711 39.9935C92.2946 32.0215 103.258 27.3669 114.448 27.2229L114.459 28.0508C103.483 28.1922 92.731 32.7575 84.9576 40.5762Z" fill="white"/>
<path d="M68.8265 24.4004L68.2412 23.8151C74.2213 17.8417 81.4729 12.9471 89.2109 9.66038C96.9453 6.36038 105.504 4.53506 113.959 4.38306L113.973 5.21105C105.624 5.36038 97.1735 7.16306 89.5355 10.4217C81.8932 13.6684 74.7328 18.5017 68.8265 24.4004Z" fill="white"/>
<path d="M108.749 17.1543L108.537 16.0716C109.504 15.8836 110.468 15.8436 111.398 15.805L114.182 15.665L114.237 16.7676L111.448 16.909C110.553 16.945 109.633 16.9836 108.749 17.1543Z" fill="white"/>
<path d="M89.6312 23.248L89.1104 22.2747C92.1432 20.6521 95.2958 19.2974 98.4806 18.2494L98.8265 19.2974C95.7021 20.3267 92.6084 21.656 89.6312 23.248Z" fill="white"/>
<path d="M76.9658 32.6084L76.2314 31.7844C76.7278 31.3417 77.2174 30.8924 77.707 30.4444C78.5934 29.6311 79.4804 28.8164 80.4024 28.0457L81.1101 28.8911C80.2018 29.6524 79.3278 30.4551 78.4528 31.2577C77.959 31.7097 77.4658 32.1631 76.9658 32.6084Z" fill="white"/>
<path d="M44.6357 69.3735C44.8257 60.4149 46.7539 51.4215 50.3164 43.1442C53.8675 34.8602 59.0211 27.2935 65.3857 20.9495L87.4257 43.0549C80.2347 50.1869 76.0019 60.0242 75.8415 70.1309L44.6357 69.3735Z" fill="#100F0D"/>
<path d="M72.3457 70.043L71.5176 70.0296C71.6957 58.8576 76.3816 47.9083 84.3728 39.991L84.9561 40.579C77.116 48.3456 72.5197 59.0843 72.3457 70.043Z" fill="white"/>
<path d="M49.5078 69.4912L48.6797 69.4739C48.8584 61.0165 50.7093 52.4659 54.0322 44.7445C57.3464 37.0152 62.2587 29.7779 68.2421 23.8152L68.8254 24.4005C62.9182 30.2899 58.065 37.4379 54.7926 45.0712C51.512 52.6952 49.6838 61.1392 49.5078 69.4912Z" fill="white"/>
<path d="M73.2708 36.7002L72.4375 35.9749C73.4246 34.8429 74.4418 33.7335 75.4574 32.6255L76.1918 31.8242L77.0068 32.5682L76.2708 33.3722C75.262 34.4722 74.2516 35.5749 73.2708 36.7002Z" fill="white"/>
<path d="M63.6719 54.2842L62.6328 53.9148C62.7536 53.5735 62.8812 53.2348 63.0104 52.8975C63.1703 52.4775 63.3307 52.0575 63.4751 51.6322L64.138 49.8188C64.2891 49.4095 64.4807 49.0188 64.6746 48.6282C64.7708 48.4322 64.8688 48.2362 64.9584 48.0375L66.6407 44.5735L67.6328 45.0562L65.9573 48.5082C65.8672 48.7055 65.7656 48.9122 65.6631 49.1188C65.488 49.4735 65.3115 49.8282 65.1746 50.1988L64.5156 52.0002C64.3708 52.4255 64.2074 52.8575 64.0427 53.2895C63.9167 53.6202 63.7907 53.9508 63.6719 54.2842Z" fill="white"/>
<path d="M61.0644 69.7871L59.9629 69.7311L60.1738 65.5471C60.2097 65.2058 60.2582 64.8991 60.3066 64.5924L60.3796 64.1151L61.4733 64.2724L61.3977 64.7644C61.352 65.0551 61.3066 65.3444 61.2728 65.6364L61.0644 69.7871Z" fill="white"/>
<path d="M44.5625 111.838V72.3818L44.565 71.0551L44.6354 69.3738L75.8412 70.1311L75.7802 71.0778L75.7786 72.3818V75.0111V80.2723V90.7936V111.838H44.5625Z" fill="#100F0D"/>
<path d="M72.2813 111.838H71.4531L71.4542 71.0738L71.5183 70.0111L72.3438 70.0604L72.2813 71.0991V111.838Z" fill="white"/>
<path d="M49.436 111.838H48.6084L48.6093 71.0564L48.6797 69.4644L49.5079 69.5004L49.4375 71.0764L49.436 111.838Z" fill="white"/>
<path d="M60.9962 75.373L59.8915 75.3544C59.9024 74.701 59.8971 74.0464 59.8915 73.3904C59.881 72.1864 59.8706 70.941 59.9623 69.717L61.0638 69.7997C60.9748 70.977 60.9858 72.1997 60.9962 73.381C61.0014 74.045 61.0066 74.7104 60.9962 75.373Z" fill="white"/>
<path d="M60.9963 95.7656H59.8916V85.6511H60.9963V95.7656Z" fill="white"/>
<path d="M60.9963 111.838H59.8916V106.224H60.9963V111.838Z" fill="white"/>
<path d="M44.5625 153.926V111.838H75.7786V153.926H44.5625Z" fill="#100F0D"/>
<path d="M72.2813 153.926H71.4531V111.838H72.2813V153.926Z" fill="white"/>
<path d="M49.436 153.926H48.6084V111.838H49.436V153.926Z" fill="white"/>
<path d="M60.9963 117.45H59.8916V111.837H60.9963V117.45Z" fill="white"/>
<path d="M60.9963 137.854H59.8916V127.738H60.9963V137.854Z" fill="white"/>
<path d="M60.9963 153.926H59.8916V148.312H60.9963V153.926Z" fill="white"/>
<path d="M44.5625 196.012V153.925H75.7786V196.012H44.5625Z" fill="#100F0D"/>
<path d="M72.2813 196.012H71.4531V153.925H72.2813V196.012Z" fill="white"/>
<path d="M49.436 196.012H48.6084V153.925H49.436V196.012Z" fill="white"/>
<path d="M60.9963 159.539H59.8916V153.926H60.9963V159.539Z" fill="white"/>
<path d="M60.9963 179.941H59.8916V169.826H60.9963V179.941Z" fill="white"/>
<path d="M0.304688 110.562H41.1755V141.777H0.304688V110.562Z" fill="#100F0D"/>
<path d="M41.1755 138.278H0.304688V137.45H41.1755V138.278Z" fill="white"/>
<path d="M41.1755 115.437H0.304688V114.608H41.1755V115.437Z" fill="white"/>
<path d="M41.1751 126.996H35.7236V125.891H41.1751V126.996Z" fill="white"/>
<path d="M25.7347 126.996H15.6191V125.891H25.7347V126.996Z" fill="white"/>
<path d="M5.75522 126.996H0.304688V125.891H5.75522V126.996Z" fill="white"/>
</svg>
