<svg width="86" height="185" viewBox="0 0 86 185" fill="none" xmlns="http://www.w3.org/2000/svg">
<path d="M21.0603 49.1748C14.8696 39.2801 7.90962 29.8695 0.265625 21.0428L23.7923 0.525459C32.5149 10.5895 40.4576 21.3268 47.5216 32.6135L21.0603 49.1748Z" fill="#100F0D"/>
<path d="M43.8556 34.9082C36.9343 23.8535 29.0863 13.2415 20.5303 3.36686L21.1556 2.82552C29.7409 12.7309 37.6143 23.3775 44.5569 34.4695L43.8556 34.9082Z" fill="white"/>
<path d="M24.4891 47.0283C18.2105 36.995 11.0851 27.3577 3.31445 18.383L3.93979 17.8417C11.7398 26.847 18.8891 36.5203 25.1931 46.5897L24.4891 47.0283Z" fill="white"/>
<path d="M15.0149 14.8037L11.8096 10.957L12.6589 10.2504L15.8629 14.0957L15.0149 14.8037Z" fill="white"/>
<path d="M26.743 30.0449L24.8976 27.3876L20.751 21.9276L21.631 21.2596L25.791 26.7383L27.6483 29.4169L26.743 30.0449Z" fill="white"/>
<path d="M72.376 102.545C69.1747 89.6503 65.0093 77.1279 60 65.3221L60.7627 64.9997C65.7893 76.8435 69.9667 89.4091 73.18 102.346L72.376 102.545Z" fill="white"/>
<path d="M78.8223 141.238C77.681 128.224 75.513 115.205 72.377 102.545L73.181 102.346C76.3276 115.048 78.5036 128.109 79.6476 141.166L78.8223 141.238Z" fill="white"/>
<path d="M79.7476 179.661C79.7423 177.443 79.7449 175.243 79.7476 173.043C79.7529 169.081 79.7583 164.982 79.7156 160.849L79.4863 151.024L78.8223 141.23L79.6476 141.174L80.3129 150.985L80.5436 160.834C80.5863 164.979 80.5809 169.079 80.5756 173.045C80.5729 175.243 80.5703 177.443 80.5756 179.66L79.7476 179.661Z" fill="white"/>
<path d="M34.0561 41.041L31.3975 36.7997L32.3321 36.2143L34.9908 40.4557L34.0561 41.041Z" fill="white"/>
<path d="M37.2649 80.1768C32.6756 69.4424 27.2516 59.0677 21.0596 49.1744L47.5209 32.613C54.5849 43.901 60.7702 55.7384 66.0009 67.9861L37.2649 80.1768Z" fill="#100F0D"/>
<path d="M62.0212 69.6758C56.8932 57.6744 50.7825 45.9771 43.8545 34.9091L44.5572 34.4705C51.5065 45.5745 57.6385 57.3091 62.7812 69.3503L62.0212 69.6758Z" fill="white"/>
<path d="M40.9893 78.5986C36.3333 67.7044 30.7813 57.0829 24.4893 47.0282L25.1932 46.5896C31.5066 56.6802 37.0773 67.3404 41.7506 78.2737L40.9893 78.5986Z" fill="white"/>
<path d="M36.7117 45.2842L34.0557 41.0415L34.9903 40.4562L37.6463 44.6975L36.7117 45.2842Z" fill="white"/>
<path d="M45.8665 62.2031L45.4731 61.4405C45.1091 60.7325 44.7451 60.0258 44.3931 59.3125C44.0211 58.6045 43.6558 57.8751 43.2931 57.1458C42.6451 55.8511 41.9758 54.5098 41.2305 53.2511L42.1811 52.6898C42.9465 53.9818 43.6251 55.3405 44.2798 56.6538C44.6398 57.3751 45.0011 58.0978 45.3758 58.8111C45.7318 59.5311 46.0931 60.2325 46.4558 60.9338L46.8491 61.6991L45.8665 62.2031Z" fill="white"/>
<path d="M48.0333 112.388C45.22 101.061 41.5627 89.9372 37 79.1902L65.736 66.9996C70.94 79.2601 75.12 91.9481 78.3293 104.869L48.0333 112.388Z" fill="#100F0D"/>
<path d="M53.7839 146.892C52.7612 135.262 50.8385 123.717 48.0332 112.387L78.3292 104.869C81.5319 117.794 83.7239 130.968 84.8852 144.236L53.7839 146.892Z" fill="#100F0D"/>
<path d="M54.6122 183.024V168.967C54.6068 167.422 54.6308 165.789 54.5788 164.379L54.3775 155.626L53.7842 146.891L84.8855 144.235L85.5602 154.2L85.7948 164.184C85.8468 165.896 85.8215 167.388 85.8282 168.967V173.653V183.024H54.6122Z" fill="#100F0D"/>
<path d="M51.3776 74.1904C50.9616 73.2076 50.519 72.2383 50.0763 71.268C49.827 70.7227 49.579 70.1784 49.335 69.6315L50.343 69.1826C50.5856 69.7252 50.8323 70.268 51.0803 70.8091C51.5283 71.7888 51.9736 72.768 52.3936 73.7586L51.3776 74.1904Z" fill="white"/>
<path d="M52.2243 112.4C49.3123 100.671 45.5323 89.2988 40.9883 78.5977L41.7509 78.2739C46.3109 89.0149 50.1056 100.43 53.0283 112.2L52.2243 112.4Z" fill="white"/>
<path d="M53.2334 78.8262L51.3721 74.1799L52.3987 73.769L54.2587 78.4168L53.2334 78.8262Z" fill="white"/>
<path d="M59.6441 96.957L58.7135 93.8585L56.4668 87.3809L57.5081 87.0194L59.7628 93.5185L60.7015 96.6398L59.6441 96.957Z" fill="white"/>
<path d="M63.1775 109.686L61.9521 104.832L63.0228 104.56L64.2482 109.415L63.1775 109.686Z" fill="white"/>
<path d="M58.0796 147.535C57.0423 135.722 55.073 123.9 52.2236 112.4L53.0276 112.2C55.8863 123.743 57.8623 135.607 58.905 147.463L58.0796 147.535Z" fill="white"/>
<path d="M64.3691 114.526C64.1411 113.48 63.8758 112.444 63.6104 111.407C63.4638 110.832 63.3158 110.256 63.1758 109.68L64.2491 109.419C64.3878 109.991 64.5331 110.561 64.6811 111.133C64.9491 112.183 65.2185 113.232 65.4478 114.292L64.3691 114.526Z" fill="white"/>
<path d="M67.8336 133.463L67.3243 130.267C67.1936 129.472 67.0683 128.67 66.9429 127.869C66.7176 126.41 66.4909 124.95 66.2109 123.5L67.2949 123.289C67.5776 124.753 67.8056 126.226 68.0336 127.699C68.1576 128.498 68.2816 129.295 68.4149 130.092L68.9243 133.294L67.8336 133.463Z" fill="white"/>
<path d="M69.3224 146.553C69.2718 145.494 69.1411 144.414 69.0158 143.37C68.9438 142.781 68.8731 142.193 68.8145 141.602L69.9145 141.494C69.9718 142.076 70.0411 142.657 70.1118 143.237C70.2398 144.301 70.3718 145.401 70.4238 146.5L69.3224 146.553Z" fill="white"/>
<path d="M58.9214 184.014C58.9174 181.863 58.9201 179.696 58.9228 177.529C58.9268 173.502 58.9321 169.336 58.8894 165.343L58.6854 156.419L58.0801 147.527L58.9054 147.471L59.5121 156.381L59.7174 165.329C59.7601 169.333 59.7547 173.5 59.7507 177.531C59.7494 179.696 59.7454 181.862 59.7507 184.012L58.9214 184.014Z" fill="white"/>
<path d="M69.6609 151.558L69.3223 146.564L70.4236 146.489L70.7623 151.484L69.6609 151.558Z" fill="white"/>
<path d="M71.3103 170.796H70.2063V167.56C70.197 166.097 70.161 164.631 70.1263 163.165C70.105 162.34 70.085 161.516 70.0703 160.693L71.1743 160.672C71.1903 161.493 71.209 162.316 71.2303 163.138C71.265 164.61 71.3023 166.084 71.3103 167.556V170.796Z" fill="white"/>
<path d="M71.311 184.012H70.207V179.012H71.311V184.012Z" fill="white"/>
</svg>
