<?xml version="1.0" encoding="UTF-8" standalone="no"?>
<svg
   xmlns:dc="http://purl.org/dc/elements/1.1/"
   xmlns:cc="http://creativecommons.org/ns#"
   xmlns:rdf="http://www.w3.org/1999/02/22-rdf-syntax-ns#"
   xmlns:svg="http://www.w3.org/2000/svg"
   xmlns="http://www.w3.org/2000/svg"
   viewBox="0 0 666.66669 666.66669"
   height="666.66669"
   width="666.66669"
   xml:space="preserve"
   id="svg2"
   version="1.1"><metadata
     id="metadata8"><rdf:RDF><cc:Work
         rdf:about=""><dc:format>image/svg+xml</dc:format><dc:type
           rdf:resource="http://purl.org/dc/dcmitype/StillImage" /></cc:Work></rdf:RDF></metadata><defs
     id="defs6"><clipPath
       id="clipPath20"
       clipPathUnits="userSpaceOnUse"><path
         id="path18"
         d="M 0,500 H 500 V 0 H 0 Z" /></clipPath></defs><g
     transform="matrix(1.3333333,0,0,-1.3333333,0,666.66667)"
     id="g10"><path
       id="path12"
       style="fill:#f7f7f7;fill-opacity:1;fill-rule:nonzero;stroke:none"
       d="M 0,0 H 500 V 500 H 0 Z" /><g
       id="g14"><g
         clip-path="url(#clipPath20)"
         id="g16"><g
           transform="translate(47.1837,292.5304)"
           id="g22"><path
             id="path24"
             style="fill:#cfe6f0;fill-opacity:1;fill-rule:nonzero;stroke:none"
             d="m 0,0 c -23.674,-55.806 9.54,-125.528 59.026,-160.541 41.262,-29.193 94.297,-35.837 144.841,-35.611 43.52,0.194 87.157,4.84 129.215,16.027 27.17,7.227 54.831,17.985 73.144,39.317 18.313,21.332 23.908,55.746 5.869,77.311 -15.465,18.489 -44.329,24.237 -54.717,45.988 -5.464,11.441 -4.389,24.742 -5.087,37.401 -0.697,12.66 -4.318,26.723 -15.269,33.112 -9.055,5.283 -20.598,3.778 -30.336,7.662 -14.199,5.664 -21.394,21.047 -31.283,32.705 -19.27,22.718 -50.791,32.018 -80.569,31.19 C 194.834,124.561 57.353,135.198 0,0" /></g><g
           transform="translate(387.0839,156.583)"
           id="g26"><path
             id="path28"
             style="fill:#002223;fill-opacity:1;fill-rule:nonzero;stroke:none"
             d="M 0,0 C 6.588,-0.434 13.06,-2.393 18.819,-5.618 14.685,-0.533 9.399,3.58 3.336,6.28 -1.865,8.597 -7.62,9.894 -13.681,9.894 c -16.618,0 -30.976,-9.679 -37.743,-23.707 -2.058,-4.265 -3.403,-8.935 -3.907,-13.853 11.063,4.534 19.098,15.143 29.553,21.424 C -18.082,-1.618 -8.959,0.591 0,0" /></g><g
           transform="translate(405.9032,150.965)"
           id="g30"><path
             id="path32"
             style="fill:#003437;fill-opacity:1;fill-rule:nonzero;stroke:none"
             d="M 0,0 C -5.76,3.225 -12.231,5.184 -18.819,5.618 -27.778,6.209 -36.901,4 -44.597,-0.624 c -10.455,-6.281 -18.49,-16.89 -29.554,-21.424 -0.146,-1.422 -0.231,-2.862 -0.231,-4.322 0,-23.131 18.751,-41.883 41.882,-41.883 23.131,0 41.883,18.752 41.883,41.883 C 9.383,-16.366 5.854,-7.2 0,0" /></g><g
           transform="translate(121.2208,131.5541)"
           id="g34"><path
             id="path36"
             style="fill:#003437;fill-opacity:1;fill-rule:nonzero;stroke:none"
             d="m 0,0 c -0.545,-2.653 -0.831,-5.399 -0.831,-8.213 0,-22.439 18.19,-40.629 40.629,-40.629 22.438,0 40.629,18.19 40.629,40.629 0,4.483 -0.737,8.792 -2.078,12.824 z" /></g><g
           transform="translate(161.0185,163.97)"
           id="g38"><path
             id="path40"
             style="fill:#002223;fill-opacity:1;fill-rule:nonzero;stroke:none"
             d="m 0,0 c -19.625,0 -36,-13.915 -39.798,-32.416 l 78.349,4.611 C 33.18,-11.653 17.956,0 0,0" /></g><g
           transform="translate(334.6052,227.3476)"
           id="g42"><path
             id="path44"
             style="fill:#00aaaa;fill-opacity:1;fill-rule:nonzero;stroke:none"
             d="m 0,0 c 0,0 -12.532,-3.939 -13.215,-15.326 -0.684,-11.387 -2.505,-29.964 6.604,-38.097 l 5.01,-4.261 c 0,0 6.763,11.113 5.545,35.047 0,0 -1.003,13.729 -3.944,22.637" /></g><g
           transform="translate(152.8344,218.0077)"
           id="g46"><path
             id="path48"
             style="fill:#fd5900;fill-opacity:1;fill-rule:nonzero;stroke:none"
             d="M 0,0 C 7.889,-5.654 76.927,-1.858 104.413,-0.1 92.01,18.363 52.742,19.748 52.742,19.748 H -7.206 C -6.615,11.937 -4.808,3.446 0,0" /></g><g
           transform="translate(152.8344,218.0077)"
           id="g50"><path
             id="path52"
             style="fill:#ea5100;fill-opacity:1;fill-rule:nonzero;stroke:none"
             d="m 0,0 c -4.808,3.446 -6.615,11.937 -7.206,19.748 h -1.091 c -2.849,0 -4.961,-2.645 -4.33,-5.424 l 4.133,-18.211 c 0.459,-2.022 2.257,-3.458 4.33,-3.458 h 8.468 l 101.548,4.826 c -0.422,0.841 -0.916,1.64 -1.439,2.419 C 76.927,-1.858 7.889,-5.654 0,0" /></g><g
           transform="translate(261.7304,321.2278)"
           id="g54"><path
             id="path56"
             style="fill:#f3d2b7;fill-opacity:1;fill-rule:nonzero;stroke:none"
             d="M 0,0 C -0.237,0.752 -0.454,1.444 -0.655,2.083 -0.435,1.383 -0.214,0.68 0,0" /></g><g
           transform="translate(262.4475,318.9489)"
           id="g58"><path
             id="path60"
             style="fill:#f3d2b7;fill-opacity:1;fill-rule:nonzero;stroke:none"
             d="M 0,0 C -0.217,0.69 -0.461,1.466 -0.717,2.279 -0.495,1.572 -0.256,0.812 0,0" /></g><g
           transform="translate(260.8972,323.8762)"
           id="g62"><path
             id="path64"
             style="fill:#f3d2b7;fill-opacity:1;fill-rule:nonzero;stroke:none"
             d="M 0,0 C -0.352,1.118 -0.645,2.051 -0.887,2.819 -0.618,1.965 -0.314,0.997 0,0" /></g><g
           transform="translate(261.0751,323.3107)"
           id="g66"><path
             id="path68"
             style="fill:#f3d2b7;fill-opacity:1;fill-rule:nonzero;stroke:none"
             d="M 0,0 C -0.06,0.189 -0.119,0.378 -0.178,0.565 -0.12,0.381 -0.061,0.195 0,0" /></g><g
           transform="translate(263.1876,316.5966)"
           id="g70"><path
             id="path72"
             style="fill:#f3d2b7;fill-opacity:1;fill-rule:nonzero;stroke:none"
             d="M 0,0 C -0.102,0.325 -0.262,0.832 -0.461,1.466 -0.313,0.994 -0.159,0.506 0,0" /></g><g
           transform="translate(262.7262,318.063)"
           id="g74"><path
             id="path76"
             style="fill:#f3d2b7;fill-opacity:1;fill-rule:nonzero;stroke:none"
             d="M 0,0 C -0.094,0.299 -0.189,0.6 -0.279,0.886 -0.18,0.571 -0.086,0.273 0,0" /></g><g
           transform="translate(263.3058,316.2208)"
           id="g78"><path
             id="path80"
             style="fill:#f3d2b7;fill-opacity:1;fill-rule:nonzero;stroke:none"
             d="M 0,0 C -0.041,0.129 -0.078,0.249 -0.118,0.376 -0.057,0.181 -0.015,0.049 0,0" /></g><g
           transform="translate(263.313,316.1981)"
           id="g82"><path
             id="path84"
             style="fill:#f3d2b7;fill-opacity:1;fill-rule:nonzero;stroke:none"
             d="M 0,0 C 0,0 -0.002,0.008 -0.007,0.023 -0.005,0.015 -0.002,0.008 0,0" /></g><g
           transform="translate(260.0101,326.6953)"
           id="g86"><path
             id="path88"
             style="fill:#f3d2b7;fill-opacity:1;fill-rule:nonzero;stroke:none"
             d="M 0,0 C -0.019,0.062 -0.039,0.125 -0.058,0.185 -0.04,0.126 -0.019,0.061 0,0" /></g><g
           transform="translate(259.552,328.1512)"
           id="g90"><path
             id="path92"
             style="fill:#f3d2b7;fill-opacity:1;fill-rule:nonzero;stroke:none"
             d="M 0,0 C -0.032,0.101 -0.063,0.199 -0.091,0.289 -0.062,0.197 -0.032,0.1 0,0" /></g><g
           transform="translate(266.5186,308.5453)"
           id="g94"><path
             id="path96"
             style="fill:#d59d7f;fill-opacity:1;fill-rule:nonzero;stroke:none"
             d="m 0,0 c -1.265,2.407 -2.356,4.952 -3.206,7.653 0,0 -5.445,-2.149 -11.424,-7.141 0,0 0.834,-2.644 2.957,-6.59 2.222,0.719 4.425,1.498 6.513,2.539 C -3.287,-2.606 -1.517,-1.431 0,0" /></g><g
           transform="translate(259.1414,329.4561)"
           id="g98"><path
             id="path100"
             style="fill:#f3d2b7;fill-opacity:1;fill-rule:nonzero;stroke:none"
             d="M 0,0 C -0.023,0.072 -0.041,0.129 -0.054,0.172 -0.041,0.129 -0.024,0.076 0,0" /></g><g
           transform="translate(259.0875,329.6277)"
           id="g102"><path
             id="path104"
             style="fill:#f3d2b7;fill-opacity:1;fill-rule:nonzero;stroke:none"
             d="M 0,0 C -0.036,0.115 -0.034,0.109 0,0" /></g><g
           transform="translate(322.9463,267.7561)"
           id="g106"><path
             id="path108"
             style="fill:#eab997;fill-opacity:1;fill-rule:nonzero;stroke:none"
             d="m 0,0 -1.468,3.187 c -1.057,2.296 -3.533,3.586 -6.021,3.138 l -7.658,-1.614 c 0,0 -28.299,11.376 -41.281,36.078 -1.517,-1.431 -3.287,-2.606 -5.16,-3.539 -2.088,-1.041 -4.291,-1.82 -6.513,-2.538 5.774,-10.731 21.166,-31.171 55.888,-34.854 l 2.291,-0.649 c 2.292,-1.757 0.237,-5.647 0.237,-5.647 0,0 5.9,1.368 9.023,3.658 C 0.198,-2.149 0.446,-0.969 0,0" /></g><g
           transform="translate(259.1502,329.428)"
           id="g110"><path
             id="path112"
             style="fill:#f3d2b7;fill-opacity:1;fill-rule:nonzero;stroke:none"
             d="M 0,0 C -0.003,0.008 -0.006,0.02 -0.009,0.028 -0.006,0.018 -0.003,0.01 0,0" /></g><g
           transform="translate(259.6523,327.8326)"
           id="g114"><path
             id="path116"
             style="fill:#f3d2b7;fill-opacity:1;fill-rule:nonzero;stroke:none"
             d="M 0,0 C -0.035,0.11 -0.068,0.216 -0.1,0.319 -0.068,0.217 -0.035,0.112 0,0" /></g><g
           transform="translate(259.9518,326.8806)"
           id="g118"><path
             id="path120"
             style="fill:#f3d2b7;fill-opacity:1;fill-rule:nonzero;stroke:none"
             d="M 0,0 C -0.112,0.355 -0.211,0.67 -0.3,0.952 -0.207,0.658 -0.107,0.34 0,0" /></g><g
           transform="translate(259.4611,328.4403)"
           id="g122"><path
             id="path124"
             style="fill:#f3d2b7;fill-opacity:1;fill-rule:nonzero;stroke:none"
             d="M 0,0 C -0.134,0.427 -0.241,0.767 -0.311,0.988 -0.246,0.781 -0.144,0.458 0,0" /></g><g
           transform="translate(267.5759,313.3543)"
           id="g126"><path
             id="path128"
             style="fill:#fd5900;fill-opacity:1;fill-rule:nonzero;stroke:none"
             d="m 0,0 c -1.174,4.242 -2.73,8.378 -4.642,12.342 -1.111,2.304 -3.315,6.829 -5.147,8.615 -1.832,1.785 -3.379,0.792 -5.932,0.626 0,0 -6.102,-0.489 -6.505,-8.639 -0.38,-7.691 2.738,-15.078 5.742,-22.168 0.061,-0.142 0.125,-0.29 0.24,-0.394 0.401,-0.362 1.007,0.029 1.471,0.307 0.857,0.513 1.889,0.611 2.873,0.783 3.733,0.651 7.136,2.491 10.464,4.303 l 1.558,0.767 c 0.676,0.333 0.961,1.146 0.642,1.828 z" /></g><g
           transform="translate(316.5616,269.2063)"
           id="g130"><path
             id="path132"
             style="fill:#d59d7f;fill-opacity:1;fill-rule:nonzero;stroke:none"
             d="m 0,0 c 0,0 0.392,-0.377 0.718,-1.126 0.15,-0.374 0.309,-0.826 0.39,-1.326 0.039,-0.256 0.076,-0.498 0.089,-0.787 0,-0.26 0.017,-0.509 0.003,-0.785 -0.034,-0.559 -0.133,-1.098 -0.318,-1.589 -0.178,-0.493 -0.485,-0.9 -0.781,-1.193 -0.3,-0.298 -0.634,-0.435 -0.855,-0.51 -0.229,-0.071 -0.365,-0.063 -0.365,-0.063 0,0 0.516,0.215 0.93,0.826 0.438,0.59 0.658,1.576 0.707,2.546 0.021,0.244 0.013,0.516 0.02,0.769 C 0.53,-2.995 0.521,-2.755 0.513,-2.523 0.478,-2.054 0.439,-1.612 0.353,-1.242 0.204,-0.496 0,0 0,0" /></g><g
           transform="translate(319.3456,270.2961)"
           id="g134"><path
             id="path136"
             style="fill:#d59d7f;fill-opacity:1;fill-rule:nonzero;stroke:none"
             d="M 0,0 C 0,0 0.421,-0.337 0.867,-1.018 1.078,-1.362 1.316,-1.786 1.458,-2.289 1.607,-2.787 1.66,-3.365 1.601,-3.919 1.557,-4.427 1.442,-5.006 1.274,-5.478 1.111,-5.967 0.861,-6.389 0.619,-6.721 0.376,-7.057 0.091,-7.267 -0.103,-7.398 c -0.202,-0.128 -0.335,-0.159 -0.335,-0.159 0,0 0.414,0.353 0.73,1.038 0.172,0.335 0.295,0.757 0.405,1.211 0.101,0.47 0.191,0.923 0.225,1.459 C 1.041,-2.885 0.81,-1.905 0.526,-1.193 0.25,-0.477 0,0 0,0" /></g><g
           transform="translate(245.0738,261.4685)"
           id="g138"><path
             id="path140"
             style="fill:#003437;fill-opacity:1;fill-rule:nonzero;stroke:none"
             d="m 0,0 c 34.591,-11.789 59.981,-28.77 60.043,-28.829 0,0 10.976,-4.411 4.667,-16.86 -4.199,-8.285 -13.841,-34.676 -18.961,-42.425 H 28.82 c 5.456,19.775 8.25,37.993 26.753,50.974 -17.268,-0.61 -36.557,4.185 -49.287,8.232 -11.388,3.621 -18.9,8.058 -19.726,19.979 -0.302,4.354 -0.636,14.734 1.589,19.864 l 0.6,5.069" /></g><g
           transform="translate(270.7212,159.3986)"
           id="g142"><path
             id="path144"
             style="fill:#eab997;fill-opacity:1;fill-rule:nonzero;stroke:none"
             d="m 0,0 5.071,13.956 h 11.444 l -3.654,-9.54 c 0,0 5.297,-12.425 -12.861,-11.14 z" /></g><g
           transform="translate(285.5985,145.4186)"
           id="g146"><path
             id="path148"
             style="fill:#fd5900;fill-opacity:1;fill-rule:nonzero;stroke:none"
             d="m 0,0 c 1.894,-0.219 3.76,-0.633 5.647,-0.907 8.498,-1.233 17.378,0.527 24.817,4.8 -0.075,0.088 -0.135,0.184 -0.223,0.265 -2.403,2.23 -5.723,3.554 -9,4.179 -2.115,0.404 -4.297,0.583 -6.299,1.375 -2.454,0.97 -5.828,2.786 -7.776,4.564 -1.465,1.337 -1.827,2.434 -3.028,4.011 -3.478,4.566 -6.258,2.438 -6.771,-2.686 -0.512,-5.124 -3.416,-4.783 -8.027,-5.466 -4.612,-0.683 -4.217,3.845 -4.217,3.845 -0.726,0.819 -2.15,0.642 -2.93,-0.126 -0.779,-0.768 -1.035,-1.923 -1.087,-3.016 -0.069,-1.461 0.161,-2.941 -0.095,-4.382 -0.201,-1.133 -0.689,-2.17 -1.249,-3.182 2.366,-1.291 4.951,-2.183 7.614,-2.603 C -8.458,0.014 -4.189,0.485 0,0" /></g><g
           transform="translate(265.3605,148.693)"
           id="g150"><path
             id="path152"
             style="fill:#cfdbdc;fill-opacity:1;fill-rule:nonzero;stroke:none"
             d="m 0,0 c -0.46,-0.83 -0.968,-1.644 -1.413,-2.477 -0.119,-0.224 -0.237,-0.48 -0.161,-0.721 0.061,-0.19 0.229,-0.323 0.39,-0.441 2.093,-1.534 4.421,-2.581 6.881,-3.296 0.343,1.504 0.632,3.019 0.884,4.542 C 4.285,-1.922 2.058,-1.123 0,0" /></g><g
           transform="translate(285.5985,145.4186)"
           id="g154"><path
             id="path156"
             style="fill:#cfdbdc;fill-opacity:1;fill-rule:nonzero;stroke:none"
             d="m 0,0 c -2.457,0.285 -4.941,0.243 -7.415,0.29 v -5.187 c 2.633,-0.209 5.306,-0.21 7.92,-0.146 -0.034,1.66 -0.068,3.321 -0.102,4.981 C 0.268,-0.044 0.135,-0.016 0,0" /></g><g
           transform="translate(272.9746,146.0898)"
           id="g158"><path
             id="path160"
             style="fill:#ffffff;fill-opacity:1;fill-rule:nonzero;stroke:none"
             d="M 0,0 C -0.347,0.055 -0.689,0.139 -1.033,0.21 -1.285,-1.312 -1.574,-2.828 -1.917,-4.332 0.37,-4.997 2.771,-5.374 5.209,-5.568 v 5.186 C 3.464,-0.348 1.723,-0.272 0,0" /></g><g
           transform="translate(293.1885,144.3154)"
           id="g162"><path
             id="path164"
             style="fill:#cfdbdc;fill-opacity:1;fill-rule:nonzero;stroke:none"
             d="m 0,0 c 0.029,-1.228 0.041,-2.457 0.034,-3.685 1.856,0.08 3.713,0.169 5.569,0.262 0.731,0.036 1.463,0.072 2.195,0.112 C 7.685,-2.197 7.572,-1.083 7.459,0.031 4.98,-0.229 2.482,-0.227 0,0" /></g><g
           transform="translate(293.1885,144.3154)"
           id="g166"><path
             id="path168"
             style="fill:#ffffff;fill-opacity:1;fill-rule:nonzero;stroke:none"
             d="m 0,0 c -0.648,0.059 -1.298,0.102 -1.943,0.196 -1.752,0.255 -3.489,0.618 -5.244,0.845 0.034,-1.66 0.068,-3.321 0.102,-4.981 0.382,0.009 0.763,0.018 1.142,0.03 1.993,0.06 3.985,0.138 5.977,0.225 C 0.041,-2.457 0.029,-1.228 0,0" /></g><g
           transform="translate(316.0629,149.3112)"
           id="g170"><path
             id="path172"
             style="fill:#cfdbdc;fill-opacity:1;fill-rule:nonzero;stroke:none"
             d="m 0,0 c -2.565,-1.473 -5.308,-2.624 -8.14,-3.48 0.468,-1.195 0.854,-2.421 1.194,-3.658 2.128,0.6 4.182,1.462 6.095,2.569 C 0.8,-3.614 1.194,-1.407 0,0" /></g><g
           transform="translate(300.6471,144.3464)"
           id="g174"><path
             id="path176"
             style="fill:#ffffff;fill-opacity:1;fill-rule:nonzero;stroke:none"
             d="m 0,0 c 0.113,-1.114 0.227,-2.228 0.34,-3.342 2.082,0.117 4.162,0.284 6.204,0.696 0.648,0.131 1.29,0.293 1.926,0.472 C 8.13,-0.936 7.744,0.289 7.276,1.485 4.902,0.767 2.466,0.259 0,0" /></g><g
           transform="translate(188.0261,123.3411)"
           id="g178"><path
             id="path180"
             style="fill:#ffffff;fill-opacity:1;fill-rule:nonzero;stroke:none"
             d="m 0,0 c 0,-14.916 -12.092,-27.008 -27.008,-27.008 -14.915,0 -27.007,12.092 -27.007,27.008 0,14.916 12.092,27.007 27.007,27.007 C -12.092,27.007 0,14.916 0,0" /></g><g
           transform="translate(171.426,120.6247)"
           id="g182"><path
             id="path184"
             style="fill:#00aaaa;fill-opacity:1;fill-rule:nonzero;stroke:none"
             d="m 0,0 c 7.045,-0.49 14.337,0.275 20.81,3.246 7.026,3.225 10.312,8.697 14.212,15.196 1.519,2.532 -1.397,4.699 -2.907,2.182 C 28.53,14.649 24.448,9.559 17.809,6.914 12.082,4.632 5.9,4.146 -0.203,4.57 -3.135,4.774 -2.908,0.202 0,0" /></g><g
           transform="translate(172.7206,123.3411)"
           id="g186"><path
             id="path188"
             style="fill:#044348;fill-opacity:1;fill-rule:nonzero;stroke:none"
             d="m 0,0 c 0,-6.463 -5.239,-11.702 -11.702,-11.702 -6.463,0 -11.702,5.239 -11.702,11.702 0,6.463 5.239,11.702 11.702,11.702 C -5.239,11.702 0,6.463 0,0" /></g><g
           transform="translate(167.3289,123.3411)"
           id="g190"><path
             id="path192"
             style="fill:#00aaaa;fill-opacity:1;fill-rule:nonzero;stroke:none"
             d="m 0,0 c 0,-3.485 -2.825,-6.31 -6.31,-6.31 -3.486,0 -6.311,2.825 -6.311,6.31 0,3.485 2.825,6.31 6.311,6.31 C -2.825,6.31 0,3.485 0,0" /></g><g
           transform="translate(399.0466,124.5947)"
           id="g194"><path
             id="path196"
             style="fill:#ffffff;fill-opacity:1;fill-rule:nonzero;stroke:none"
             d="m 0,0 c 0,-14.162 -11.481,-25.643 -25.643,-25.643 -14.163,0 -25.643,11.481 -25.643,25.643 0,14.162 11.48,25.643 25.643,25.643 C -11.481,25.643 0,14.162 0,0" /></g><g
           transform="translate(384.5143,124.5947)"
           id="g198"><path
             id="path200"
             style="fill:#044348;fill-opacity:1;fill-rule:nonzero;stroke:none"
             d="m 0,0 c 0,-6.136 -4.975,-11.111 -11.111,-11.111 -6.136,0 -11.111,4.975 -11.111,11.111 0,6.136 4.975,11.111 11.111,11.111 C -4.975,11.111 0,6.136 0,0" /></g><g
           transform="translate(372.8636,176.0793)"
           id="g202"><path
             id="path204"
             style="fill:#007478;fill-opacity:1;fill-rule:nonzero;stroke:none"
             d="m 0,0 -33.626,-16.411 8.274,29.989 -11.319,61.99 c 0,0 8.234,-21.334 17.853,-38.259 C -12.336,25.903 -7.521,13.397 4.595,7.36 6.881,6.221 9.611,4.844 10.453,1.717 c 2.694,-9.995 0,0 0,0 z" /></g><g
           transform="translate(327.994,173.9248)"
           id="g206"><path
             id="path208"
             style="fill:#007478;fill-opacity:1;fill-rule:nonzero;stroke:none"
             d="m 0,0 5.01,-4.261 c 0,0 -4.554,-27.59 -25.961,-37.48 h -93.1 c 1.348,1.33 2.609,2.744 3.753,4.251 l 1.897,1.802 -0.636,-0.03 c 1.226,1.842 2.281,3.807 3.113,5.908 5.796,14.633 -1.121,32.675 -13.444,41.572 -12.323,8.896 -28.582,9.736 -42.934,5.569 -25.522,-7.409 -46.401,-30.543 -52.688,-57.941 l -8.008,-0.369 c -1.739,-0.08 -2.892,1.796 -2.011,3.296 5.639,9.593 7.551,21.239 13.123,30.985 7.881,13.786 22.144,22.391 34.807,31.973 0.357,0.27 0.731,0.564 0.892,0.982 0.274,0.709 -0.146,1.471 -0.426,2.178 -1.467,3.699 1.778,8.379 5.757,8.303 l 101.549,4.826 c 2.238,0.106 4.072,-1.879 3.662,-4.199 -0.197,-1.12 -0.991,-2.041 -1.996,-2.574 -8.241,-4.37 -37.664,-22.461 -20.719,-50.439 16.215,-26.774 54.922,-16.732 72.24,-7.928 0,0 9.743,6.203 16.12,23.576" /></g><g
           transform="translate(333.0042,169.6634)"
           id="g210"><path
             id="path212"
             style="fill:#003437;fill-opacity:1;fill-rule:nonzero;stroke:none"
             d="m 0,0 c 0,0 13.405,35.982 -6.377,78.34 l 9.565,3.644 c 0,0 31.883,-59.732 -8.198,-109.767 0,0 -3.644,-7.55 -23.229,-9.696 0,0 18.219,6.963 28.239,37.479" /></g><g
           transform="translate(322.2092,128.7428)"
           id="g214"><path
             id="path216"
             style="fill:#008f8f;fill-opacity:1;fill-rule:nonzero;stroke:none"
             d="M 0,0 C -0.644,-0.143 -1.206,0.469 -1.003,1.097 1.269,8.112 12.502,39.55 34.024,48.663 59.302,59.367 80.486,41.343 88.42,28.242 89.301,26.787 87.8,25.093 86.001,25.487 77.103,27.436 57.976,35.683 38.144,23.838 23.896,15.329 18.359,4.077 0,0" /></g><g
           transform="translate(216.0237,246.8077)"
           id="g218"><path
             id="path220"
             style="fill:#044348;fill-opacity:1;fill-rule:nonzero;stroke:none"
             d="M 0,0 C 0.238,-11.947 8.741,-17.172 20.129,-20.792 32.86,-24.839 52.148,-29.635 69.417,-29.025 50.913,-42.005 48.12,-60.223 42.663,-79.999 h 16.929 c 5.12,7.749 22.617,38.007 26.816,46.292 6.309,12.449 -4.667,16.859 -4.667,16.859 -0.062,0.06 -3.95,3.066 -31.485,17.21 L 44.274,2.63 32.532,0.239 40.944,4.338 42.196,10.023 4.936,22.399 C 4.936,22.399 -0.201,10.095 0,0" /></g><g
           transform="translate(255.5143,152.8531)"
           id="g222"><path
             id="path224"
             style="fill:#f3d2b7;fill-opacity:1;fill-rule:nonzero;stroke:none"
             d="m 0,0 5.071,13.956 h 11.444 l -3.654,-9.54 c 0,0 5.297,-12.425 -12.861,-11.14 z" /></g><g
           transform="translate(270.3916,138.8731)"
           id="g226"><path
             id="path228"
             style="fill:#ff8f1d;fill-opacity:1;fill-rule:nonzero;stroke:none"
             d="m 0,0 c 1.894,-0.219 3.76,-0.633 5.647,-0.907 8.498,-1.233 17.378,0.527 24.817,4.8 -0.075,0.088 -0.135,0.184 -0.223,0.265 -2.403,2.23 -5.723,3.554 -9,4.179 -2.115,0.404 -4.296,0.583 -6.299,1.375 -2.454,0.97 -5.828,2.786 -7.776,4.564 -1.465,1.337 -1.827,2.433 -3.028,4.011 -3.478,4.566 -6.258,2.438 -6.771,-2.686 -0.512,-5.124 -3.416,-4.783 -8.027,-5.466 -4.612,-0.683 -4.217,3.845 -4.217,3.845 -0.726,0.819 -2.15,0.642 -2.93,-0.126 -0.779,-0.768 -1.035,-1.923 -1.087,-3.016 -0.069,-1.461 0.161,-2.941 -0.095,-4.382 -0.201,-1.133 -0.689,-2.17 -1.249,-3.182 2.366,-1.291 4.951,-2.183 7.614,-2.603 C -8.458,0.014 -4.189,0.485 0,0" /></g><g
           transform="translate(250.1537,142.1475)"
           id="g230"><path
             id="path232"
             style="fill:#cfdbdc;fill-opacity:1;fill-rule:nonzero;stroke:none"
             d="m 0,0 c -0.46,-0.83 -0.968,-1.644 -1.413,-2.477 -0.119,-0.224 -0.237,-0.48 -0.161,-0.721 0.061,-0.19 0.229,-0.323 0.39,-0.441 2.093,-1.534 4.421,-2.581 6.881,-3.296 0.343,1.504 0.632,3.019 0.884,4.542 C 4.285,-1.922 2.058,-1.123 0,0" /></g><g
           transform="translate(270.3916,138.8731)"
           id="g234"><path
             id="path236"
             style="fill:#cfdbdc;fill-opacity:1;fill-rule:nonzero;stroke:none"
             d="m 0,0 c -2.457,0.285 -4.941,0.243 -7.415,0.29 v -5.187 c 2.633,-0.209 5.306,-0.21 7.92,-0.147 C 0.471,-3.383 0.437,-1.722 0.403,-0.062 0.268,-0.044 0.135,-0.016 0,0" /></g><g
           transform="translate(257.7678,139.5443)"
           id="g238"><path
             id="path240"
             style="fill:#ffffff;fill-opacity:1;fill-rule:nonzero;stroke:none"
             d="M 0,0 C -0.347,0.055 -0.689,0.139 -1.033,0.21 -1.285,-1.312 -1.574,-2.828 -1.917,-4.332 0.37,-4.997 2.771,-5.374 5.209,-5.568 v 5.186 C 3.464,-0.348 1.723,-0.272 0,0" /></g><g
           transform="translate(277.9817,137.7699)"
           id="g242"><path
             id="path244"
             style="fill:#cfdbdc;fill-opacity:1;fill-rule:nonzero;stroke:none"
             d="m 0,0 c 0.029,-1.228 0.041,-2.457 0.034,-3.685 1.856,0.08 3.713,0.169 5.569,0.262 0.731,0.036 1.463,0.072 2.195,0.112 C 7.685,-2.197 7.572,-1.083 7.459,0.031 4.98,-0.229 2.482,-0.227 0,0" /></g><g
           transform="translate(277.9817,137.7699)"
           id="g246"><path
             id="path248"
             style="fill:#ffffff;fill-opacity:1;fill-rule:nonzero;stroke:none"
             d="m 0,0 c -0.648,0.059 -1.298,0.102 -1.943,0.196 -1.752,0.255 -3.489,0.618 -5.244,0.845 0.034,-1.66 0.068,-3.321 0.102,-4.981 0.382,0.009 0.763,0.018 1.142,0.03 1.993,0.06 3.985,0.138 5.977,0.225 C 0.041,-2.457 0.029,-1.228 0,0" /></g><g
           transform="translate(300.8561,142.7657)"
           id="g250"><path
             id="path252"
             style="fill:#cfdbdc;fill-opacity:1;fill-rule:nonzero;stroke:none"
             d="m 0,0 c -2.565,-1.473 -5.308,-2.624 -8.14,-3.48 0.468,-1.195 0.854,-2.42 1.194,-3.658 2.128,0.6 4.182,1.462 6.095,2.569 C 0.8,-3.614 1.194,-1.407 0,0" /></g><g
           transform="translate(285.4403,137.8009)"
           id="g254"><path
             id="path256"
             style="fill:#ffffff;fill-opacity:1;fill-rule:nonzero;stroke:none"
             d="m 0,0 c 0.113,-1.114 0.227,-2.228 0.34,-3.342 2.082,0.117 4.162,0.284 6.204,0.696 0.648,0.131 1.29,0.293 1.926,0.472 C 8.13,-0.936 7.744,0.289 7.276,1.485 4.902,0.767 2.466,0.259 0,0" /></g><g
           transform="translate(119.5472,182.5948)"
           id="g258"><path
             id="path260"
             style="fill:#044348;fill-opacity:1;fill-rule:nonzero;stroke:none"
             d="m 0,0 c -0.155,0.01 -0.313,0.012 -0.47,0.02 -6.092,-8.767 -10.719,-18.548 -13.651,-28.813 2.045,-1.54 4.573,-2.336 5.078,-0.495 C -4.721,-13.534 9.348,-0.106 9.348,-0.106 6.509,-0.766 2.909,-0.191 0,0" /></g><g
           transform="translate(110.8881,168.3723)"
           id="g262"><path
             id="path264"
             style="fill:#fd5900;fill-opacity:1;fill-rule:nonzero;stroke:none"
             d="M 0,0 C 2.325,4.966 5.06,9.739 8.189,14.242 5.409,14.369 2.436,13.997 0.44,12.092 -0.895,10.819 -1.601,9.039 -2.267,7.319 -3.034,5.34 -3.8,3.362 -4.566,1.384 -4.553,1.38 -4.539,1.375 -4.526,1.371 -3.029,0.875 -1.518,0.427 0,0" /></g><g
           transform="translate(106.3625,169.7432)"
           id="g266"><path
             id="path268"
             style="fill:#ff8f1d;fill-opacity:1;fill-rule:nonzero;stroke:none"
             d="m 0,0 c -0.014,0.005 -0.027,0.009 -0.041,0.013 -0.898,-2.318 -1.796,-4.637 -2.695,-6.956 -0.747,-1.927 -1.498,-4.077 -0.754,-6.006 0.39,-1.01 1.395,-2.12 2.553,-2.993 1.427,4.993 3.261,9.868 5.463,14.571 C 3.008,-0.944 1.496,-0.496 0,0" /></g><g
           transform="translate(392.5273,141.6758)"
           id="g270"><path
             id="path272"
             style="fill:#00aaaa;fill-opacity:1;fill-rule:nonzero;stroke:none"
             d="m 0,0 -16.094,-20.84 c -0.189,-0.304 -0.4,-0.592 -0.652,-0.844 l -0.001,-0.002 v 0 c -0.841,-0.841 -2.004,-1.361 -3.287,-1.361 -2.568,0 -4.649,2.081 -4.649,4.648 0,1.452 0.679,2.731 1.72,3.584 l -0.013,0.015 19.544,17.993 c 0,0 2.066,-1.43 3.432,-3.193" /></g><g
           transform="translate(255.208,338.5109)"
           id="g274"><path
             id="path276"
             style="fill:#ff8f1d;fill-opacity:1;fill-rule:nonzero;stroke:none"
             d="m 0,0 -18.005,6.843 c 0,0 -8.728,-4.14 -10.777,-25.821 0,0 -1.484,-1.767 -0.401,-6.36 0,0 -1.421,-1.163 -1.421,-4.358 0,-3.195 0,0 -1.822,-13.443 0,0 -1.367,-17.04 -2.505,-20.248 -1.139,-3.209 -2.434,-2.981 -2.434,-5.824 0,-4.315 40.377,-12.47 40.377,-12.47 1.983,28.578 3.664,36.355 3.869,46.76 C 7,-28.89 5.954,-12.27 2.857,-2.539" /></g><g
           transform="translate(255.208,338.5109)"
           id="g278"><path
             id="path280"
             style="fill:#ffffff;fill-opacity:1;fill-rule:nonzero;stroke:none"
             d="M 0,0 -0.771,-6.474 -19.779,8.214 c 0,0 -0.113,5.845 7.739,5.371 l -0.864,-2.98 z" /></g><g
           transform="translate(313.8752,129.5825)"
           id="g282"><path
             id="path284"
             style="fill:#044348;fill-opacity:1;fill-rule:nonzero;stroke:none"
             d="m 0,0 h -102.025 c -0.751,0 -1.366,0.615 -1.366,1.366 v 1.001 c 0,0.751 0.615,1.366 1.366,1.366 H 0 c 0.751,0 1.366,-0.615 1.366,-1.366 V 1.366 C 1.366,0.615 0.751,0 0,0" /></g><g
           transform="translate(242.3036,349.1164)"
           id="g286"><path
             id="path288"
             style="fill:#e0e6e6;fill-opacity:1;fill-rule:nonzero;stroke:none"
             d="m 0,0 -1.547,1.253 c 0,0 0.525,0.406 2.036,0.431 z" /></g><g
           transform="translate(255.208,338.5109)"
           id="g290"><path
             id="path292"
             style="fill:#ffffff;fill-opacity:1;fill-rule:nonzero;stroke:none"
             d="m 0,0 3.835,-5.843 v 1.597 c 0,0.851 -0.117,1.696 -0.346,2.511 -0.227,0.807 -0.634,1.553 -1.127,2.232 L 0.758,2.703 Z" /></g><g
           transform="translate(345.4585,285.8838)"
           id="g294"><path
             id="path296"
             style="fill:#007478;fill-opacity:1;fill-rule:nonzero;stroke:none"
             d="m 0,0 c -3.217,-0.648 -6.711,-2.021 -9.266,-4.859 -5.253,-5.837 -10.248,-6.605 -14.347,-8.882 -0.041,-0.023 -0.082,-0.046 -0.122,-0.069 -2.471,-1.425 -3.394,-4.545 -2.278,-7.171 l 7.182,-16.9 9.565,3.644 c 0,0 -4.555,7.738 -4.555,12.526 0,2.546 4.947,0.669 6.558,-0.01 0.392,-0.164 0.791,-0.328 1.191,-0.472 2.559,-0.918 4.539,-1.372 7.022,-1.57 C -1.865,-13.152 -1.007,-4.739 0,0" /></g><g
           transform="translate(246.2903,358.8855)"
           id="g298"><path
             id="path300"
             style="fill:#003437;fill-opacity:1;fill-rule:nonzero;stroke:none"
             d="m 0,0 c 0.093,-1.759 -0.152,-3.878 -1.279,-5.232 -0.553,0.33 0,0 -1.246,1.943 -0.408,-0.358 -0.815,-0.715 -1.222,-1.073 -0.08,0.537 -0.159,1.074 -0.239,1.61 -0.504,-0.269 -1.009,-0.539 -1.514,-0.809 0.342,3.295 -0.264,6.683 -1.729,9.653 l 2.872,1.276 z" /></g><g
           transform="translate(254.0734,381.4253)"
           id="g302"><path
             id="path304"
             style="fill:#007478;fill-opacity:1;fill-rule:nonzero;stroke:none"
             d="M 0,0 C -0.088,-0.054 -0.138,-0.087 -0.138,-0.087 -0.093,-0.056 -0.045,-0.03 0,0" /></g><g
           transform="translate(276.1463,382.1641)"
           id="g306"><path
             id="path308"
             style="fill:#044348;fill-opacity:1;fill-rule:nonzero;stroke:none"
             d="m 0,0 c -4.465,6.857 -9.908,5.852 -13.6,5.042 0.975,0.141 1.969,-0.002 2.957,-0.159 6.308,-0.998 6.632,-6.634 6.632,-6.634 0,0 2.49,0.175 4.011,1.751" /></g><g
           transform="translate(242.3035,349.1164)"
           id="g310"><path
             id="path312"
             style="fill:#eab997;fill-opacity:1;fill-rule:nonzero;stroke:none"
             d="M 0,0 C 0,0 7.335,-6.029 12.904,-10.605 L 13.135,-9.784 0.39,1.343 Z" /></g><g
           transform="translate(259.043,352.2321)"
           id="g314"><path
             id="path316"
             style="fill:#f3d2b7;fill-opacity:1;fill-rule:nonzero;stroke:none"
             d="m 0,0 c 0,0 -6.782,-0.337 -14.32,4.935 l -0.42,-1.162 -1.61,-5.545 12.745,-11.127 3.399,12.125 z" /></g><g
           transform="translate(239.2023,377.5978)"
           id="g318"><path
             id="path320"
             style="fill:#f3d2b7;fill-opacity:1;fill-rule:nonzero;stroke:none"
             d="m 0,0 c 0,0 -0.478,-18.507 8.094,-22.403 8.571,-3.896 10.575,-4.675 16.976,-2.922 6.401,1.753 6.596,13.052 7.375,22.013 C 33.224,5.649 30.19,18.312 16.22,18.117 16.22,18.117 2.231,20.065 0,0" /></g><g
           transform="translate(262.1177,371.304)"
           id="g322"><path
             id="path324"
             style="fill:#00aaaa;fill-opacity:1;fill-rule:nonzero;stroke:none"
             d="m 0,0 c -0.063,0.011 -0.124,0.032 -0.189,0.04 -2.337,0.295 -4.424,-1.372 -6.689,-2.022 -3.11,-0.893 -6.519,0.216 -9.119,2.142 -2.6,1.926 -4.542,4.588 -6.442,7.206 l 0.324,-6.565 c 0,0 1.877,2.256 2.199,-11.321 0.034,-1.453 1.055,-2.694 2.287,-3.72 -0.753,0.587 7.894,-5.801 16.482,-5.638 C 1.675,-9.605 1.14,-3.484 0,0" /></g><g
           transform="translate(271.4228,370.7666)"
           id="g326"><path
             id="path328"
             style="fill:#008f8f;fill-opacity:1;fill-rule:nonzero;stroke:none"
             d="m 0,0 c -2.041,-0.968 -4.396,-1.112 -6.537,-0.393 -0.924,0.311 -1.811,0.766 -2.768,0.93 1.14,-3.484 1.675,-9.604 -1.147,-19.878 1.107,0.021 2.213,0.137 3.298,0.405 C 0.333,-17.085 0,0 0,0" /></g><g
           transform="translate(239.1976,373.7466)"
           id="g330"><path
             id="path332"
             style="fill:#f3d2b7;fill-opacity:1;fill-rule:nonzero;stroke:none"
             d="m 0,0 c 0,0 -5.733,7.088 -6.122,0 -0.39,-7.088 6.729,-11.415 7.747,-8.605 z" /></g><g
           transform="translate(237.0643,376.0905)"
           id="g334"><path
             id="path336"
             style="fill:#003437;fill-opacity:1;fill-rule:nonzero;stroke:none"
             d="M 0,0 C -0.377,-1.142 0.595,-2.297 1.222,-3.323 2.678,-5.7 4.098,-8.409 5.008,-11.044 5.428,-8.72 5.01,-6.115 4.226,-3.888 4.845,-4.214 5.345,-4.763 5.611,-5.411 6.542,-3.469 5.11,-1.052 5.888,0.956 6.532,2.618 8.419,3.379 9.652,4.664 10.449,5.495 10.98,6.576 11.15,7.715 11.15,7.715 2.519,7.626 0,0" /></g><g
           transform="translate(254.4371,385.0757)"
           id="g338"><path
             id="path340"
             style="fill:#003437;fill-opacity:1;fill-rule:nonzero;stroke:none"
             d="m 0,0 c 2.001,-0.489 3.891,-1.43 5.487,-2.731 0.292,0.412 0.448,0.919 0.438,1.425 1.439,-1.536 3.347,-2.627 5.401,-3.088 -0.427,0.427 -0.681,1.022 -0.694,1.626 2.319,-1.347 6.102,-5.278 8.781,-5.411 C 18.51,1.269 14.504,2.924 10.935,4.759 7.366,6.594 3.474,6.414 -0.517,5.993" /></g><g
           transform="translate(241.6075,398.0526)"
           id="g342"><path
             id="path344"
             style="fill:#ff8f1d;fill-opacity:1;fill-rule:nonzero;stroke:none"
             d="m 0,0 c -10.364,-7.598 -7.614,-21.546 -7.614,-21.546 1.893,0.858 2.948,-0.714 2.948,-0.714 6.094,10.567 15.401,13.552 22.668,13.97 C 16.665,-3.048 14.989,0.841 13.454,3.637 8.898,4.113 4.078,2.989 0,0" /></g><g
           transform="translate(270.4782,388.7018)"
           id="g346"><path
             id="path348"
             style="fill:#fd5900;fill-opacity:1;fill-rule:nonzero;stroke:none"
             d="m 0,0 c -2.009,7.681 -8.394,12.254 -15.417,12.988 1.535,-2.796 3.212,-6.685 4.548,-11.927 C -4.7,1.416 0,0 0,0" /></g><g
           transform="translate(276.1463,382.1641)"
           id="g350"><path
             id="path352"
             style="fill:#ffffff;fill-opacity:1;fill-rule:nonzero;stroke:none"
             d="m 0,0 c 2.04,2.981 -5.668,6.538 -5.668,6.538 -22.208,6.428 -31.281,-9.409 -31.281,-9.409 3.942,-1.427 11.748,3.369 15.904,6.24 0,0 0.057,0.037 0.157,0.099 1.627,1.092 3.467,1.835 5.376,2.111 C -11.301,6.503 -5.342,6.182 0,0" /></g><g
           transform="translate(233.9937,373.5098)"
           id="g354"><path
             id="path356"
             style="fill:#eab997;fill-opacity:1;fill-rule:nonzero;stroke:none"
             d="M 0,0 C 0,0 0.035,0.145 0.165,0.378 0.233,0.492 0.328,0.625 0.465,0.765 0.606,0.9 0.807,1.037 1.078,1.075 1.349,1.105 1.643,1.033 1.896,0.889 2.15,0.742 2.378,0.552 2.562,0.32 2.954,-0.126 3.24,-0.664 3.498,-1.205 c 0.999,-2.192 1.136,-4.573 1.136,-4.573 0,0 -0.269,0.534 -0.584,1.348 -0.138,0.414 -0.373,0.869 -0.555,1.377 -0.087,0.257 -0.214,0.505 -0.316,0.767 -0.113,0.256 -0.203,0.533 -0.337,0.78 -0.123,0.252 -0.231,0.517 -0.364,0.755 -0.15,0.221 -0.25,0.489 -0.411,0.674 C 1.919,0.132 1.775,0.313 1.609,0.449 1.447,0.583 1.276,0.655 1.106,0.671 0.938,0.67 0.772,0.626 0.625,0.551 0.484,0.469 0.366,0.377 0.274,0.291 0.094,0.119 0,0 0,0" /></g><g
           transform="translate(237.8932,370.4384)"
           id="g358"><path
             id="path360"
             style="fill:#eab997;fill-opacity:1;fill-rule:nonzero;stroke:none"
             d="m 0,0 c 0,0 -0.193,-0.143 -0.379,-0.36 -0.193,-0.219 -0.363,-0.519 -0.51,-0.846 -0.145,-0.326 -0.294,-0.687 -0.41,-0.979 -0.112,-0.291 -0.233,-0.501 -0.233,-0.501 0,0 -0.029,0.052 -0.063,0.146 -0.022,0.093 -0.097,0.231 -0.108,0.397 -0.054,0.331 -0.045,0.804 0.159,1.241 0.186,0.445 0.605,0.783 0.953,0.887 C -0.236,0.095 0,0 0,0" /></g><g
           transform="translate(351.8943,285.6376)"
           id="g362"><path
             id="path364"
             style="fill:#044348;fill-opacity:1;fill-rule:nonzero;stroke:none"
             d="m 0,0 c -1.586,0.407 -3.924,0.752 -6.436,0.246 -1.007,-4.739 -1.865,-13.152 0.95,-23.762 2.494,-0.198 4.822,-0.148 6.216,-0.082 C -3.036,-15.518 -0.951,-4.117 0,0" /></g><g
           transform="translate(354.0453,262.3379)"
           id="g366"><path
             id="path368"
             style="fill:#003437;fill-opacity:1;fill-rule:nonzero;stroke:none"
             d="m 0,0 c -2.913,9.571 -1.68,16.907 -0.077,22.58 -0.001,0.004 -0.013,0.027 -0.013,0.027 0,0 -0.789,0.366 -2.061,0.693 -0.951,-4.117 -3.036,-15.518 0.73,-23.599 0.832,0.039 1.331,0.084 1.331,0.084 C -0.056,-0.143 -0.033,-0.072 0,0" /></g><g
           transform="translate(354.602,283.5725)"
           id="g370"><path
             id="path372"
             style="fill:#fd5900;fill-opacity:1;fill-rule:nonzero;stroke:none"
             d="m 0,0 c -0.342,0.805 -0.604,1.288 -0.633,1.346 -1.603,-5.674 -2.837,-13.01 0.076,-22.581 0.193,0.417 0.341,0.823 0.508,1.234 C -2.497,-10.649 -0.863,-2.973 0,0" /></g><g
           transform="translate(354.602,283.5725)"
           id="g374"><path
             id="path376"
             style="fill:#ff8f1d;fill-opacity:1;fill-rule:nonzero;stroke:none"
             d="M 0,0 C -0.863,-2.973 -2.497,-10.649 -0.049,-20.001 3.71,-10.764 1.279,-3.006 0,0" /></g><g
           transform="translate(206.0501,316.6265)"
           id="g378"><path
             id="path380"
             style="fill:#fd5900;fill-opacity:1;fill-rule:nonzero;stroke:none"
             d="m 0,0 c 0,2.22 -1.8,4.02 -4.02,4.02 h -74.854 c -2.22,0 -4.02,-1.8 -4.02,-4.02 V -16.095 H 0 Z" /></g><g
           transform="translate(123.1557,300.5311)"
           id="g382"><path
             id="path384"
             style="fill:#ff8f1d;fill-opacity:1;fill-rule:nonzero;stroke:none"
             d="m 0,0 v -58.758 c 0,-2.221 1.8,-4.021 4.02,-4.021 h 74.854 c 2.22,0 4.02,1.8 4.02,4.021 l 0,58.758 z" /></g><path
           id="path386"
           style="fill:#003437;fill-opacity:1;fill-rule:nonzero;stroke:none"
           d="m 152.834,294.143 h -4.637 v 12.432 h 4.637 z" /><path
           id="path388"
           style="fill:#003437;fill-opacity:1;fill-rule:nonzero;stroke:none"
           d="m 181.009,294.143 h -4.637 v 12.432 h 4.637 z" /><g
           transform="translate(173.5918,237.7525)"
           id="g390"><path
             id="path392"
             style="fill:#003437;fill-opacity:1;fill-rule:nonzero;stroke:none"
             d="m 0,0 h -2.78 v 3.402 c 0,0.562 0.456,1.017 1.017,1.017 h 0.746 C -0.455,4.419 0,3.964 0,3.402 Z" /></g><g
           transform="translate(122.2045,274.6955)"
           id="g394"><path
             id="path396"
             style="fill:#003437;fill-opacity:1;fill-rule:nonzero;stroke:none"
             d="M 0,0 C -0.358,0.857 -0.914,2.866 -0.35,3.607 -0.143,3.879 0.268,3.979 0.872,3.899 0.9,3.896 0.923,3.889 0.951,3.885 V 5.153 C -0.332,5.288 -1.018,4.812 -1.354,4.372 -2.509,2.856 -1.306,-0.149 -1.15,-0.52 6.688,-16.57 27.025,-29.271 53.963,-36.977 l 2.345,0.034 C 29.738,-29.343 7.655,-15.672 0,0" /></g><g
           transform="translate(155.6133,237.7525)"
           id="g398"><path
             id="path400"
             style="fill:#003437;fill-opacity:1;fill-rule:nonzero;stroke:none"
             d="m 0,0 h 2.78 v 3.402 c 0,0.562 -0.456,1.017 -1.018,1.017 H 1.017 C 0.455,4.419 0,3.964 0,3.402 Z" /></g><g
           transform="translate(207.0006,274.6955)"
           id="g402"><path
             id="path404"
             style="fill:#003437;fill-opacity:1;fill-rule:nonzero;stroke:none"
             d="M 0,0 C 0.358,0.857 0.914,2.866 0.35,3.607 0.143,3.879 -0.268,3.979 -0.872,3.899 -0.9,3.896 -0.923,3.889 -0.951,3.885 V 5.153 C 0.332,5.288 1.018,4.812 1.354,4.372 2.509,2.856 1.306,-0.149 1.15,-0.52 -6.688,-16.57 -27.025,-29.271 -53.963,-36.977 l -2.345,0.034 C -29.738,-29.343 -7.655,-15.672 0,0" /></g><g
           transform="translate(110.099,133.159)"
           id="g406"><path
             id="path408"
             style="fill:#044348;fill-opacity:1;fill-rule:nonzero;stroke:none"
             d="m 0,0 5.444,0.279 c 10.02,54.312 67.27,60.232 67.27,60.232 C 17.766,59.617 3.079,13.259 0,0" /></g><g
           transform="translate(208.626,185.6866)"
           id="g410"><path
             id="path412"
             style="fill:#008f8f;fill-opacity:1;fill-rule:nonzero;stroke:none"
             d="M 0,0 C -12.323,8.896 -28.582,9.736 -42.934,5.57 -59.02,0.9 -73.256,-10.02 -83.163,-24.313 c 10.697,2.227 42.155,8.206 69.991,7.834 0,0 15.941,0.456 9.109,-13.664 -3.174,-6.56 -6.937,-13.216 -10.058,-18.466 l 24.452,1.129 c 1.226,1.842 2.281,3.807 3.113,5.909 C 19.24,-26.938 12.323,-8.896 0,0" /></g><g
           transform="translate(195.4538,169.208)"
           id="g414"><path
             id="path416"
             style="fill:#00aaaa;fill-opacity:1;fill-rule:nonzero;stroke:none"
             d="m 0,0 c -27.836,0.371 -59.294,-5.608 -69.99,-7.834 -5.812,-8.385 -10.135,-17.929 -12.46,-28.059 l 81.501,3.763 c 3.121,5.249 6.884,11.906 10.058,18.466 C 15.941,0.455 0,0 0,0" /></g><g
           transform="translate(142.729,156.8524)"
           id="g418"><path
             id="path420"
             style="fill:#003437;fill-opacity:1;fill-rule:nonzero;stroke:none"
             d="m 0,0 c 0,0 0.677,0.139 1.868,0.337 1.194,0.177 2.894,0.485 4.948,0.728 2.054,0.246 4.449,0.556 7.024,0.786 2.575,0.244 5.326,0.436 8.08,0.596 1.378,0.061 2.755,0.122 4.111,0.182 1.356,0.07 2.693,0.069 3.986,0.103 2.585,0.048 5,0.003 7.068,-0.029 2.069,-0.018 3.792,-0.144 4.998,-0.196 1.205,-0.079 1.893,-0.124 1.893,-0.124 0,0 -0.688,-0.052 -1.892,-0.142 C 40.88,2.167 39.162,2.061 37.099,1.934 32.98,1.702 27.487,1.393 21.994,1.084 16.5,0.8 11.005,0.515 6.885,0.302 4.82,0.208 3.1,0.129 1.896,0.074 0.689,0.027 0,0 0,0" /></g><g
           transform="translate(142.6457,152.6096)"
           id="g422"><path
             id="path424"
             style="fill:#003437;fill-opacity:1;fill-rule:nonzero;stroke:none"
             d="m 0,0 c 0,0 0.677,0.139 1.868,0.337 1.194,0.177 2.894,0.485 4.948,0.728 2.054,0.246 4.449,0.556 7.024,0.786 2.575,0.244 5.326,0.436 8.08,0.596 1.378,0.061 2.755,0.122 4.111,0.182 1.356,0.07 2.693,0.069 3.986,0.103 2.585,0.048 5,0.003 7.068,-0.029 2.069,-0.018 3.792,-0.144 4.998,-0.196 1.205,-0.079 1.893,-0.124 1.893,-0.124 0,0 -0.688,-0.052 -1.892,-0.142 C 40.88,2.167 39.162,2.061 37.099,1.934 32.98,1.702 27.487,1.393 21.994,1.084 16.5,0.8 11.005,0.515 6.885,0.302 4.82,0.208 3.1,0.129 1.896,0.074 0.689,0.027 0,0 0,0" /></g><g
           transform="translate(142.5575,148.12)"
           id="g426"><path
             id="path428"
             style="fill:#003437;fill-opacity:1;fill-rule:nonzero;stroke:none"
             d="m 0,0 c 0,0 0.677,0.139 1.868,0.337 1.194,0.177 2.894,0.485 4.948,0.728 2.054,0.246 4.449,0.556 7.024,0.786 2.575,0.244 5.326,0.436 8.08,0.596 1.378,0.061 2.755,0.122 4.111,0.182 1.356,0.07 2.693,0.069 3.986,0.103 2.585,0.048 5,0.003 7.068,-0.029 2.069,-0.018 3.792,-0.144 4.998,-0.196 1.205,-0.079 1.893,-0.124 1.893,-0.124 0,0 -0.688,-0.052 -1.892,-0.142 C 40.88,2.167 39.162,2.061 37.099,1.934 32.98,1.702 27.487,1.393 21.994,1.084 16.5,0.8 11.005,0.515 6.885,0.302 4.82,0.208 3.1,0.129 1.896,0.074 0.689,0.027 0,0 0,0" /></g><g
           transform="translate(142.4557,142.9361)"
           id="g430"><path
             id="path432"
             style="fill:#003437;fill-opacity:1;fill-rule:nonzero;stroke:none"
             d="m 0,0 c 0,0 0.677,0.139 1.868,0.337 1.193,0.177 2.894,0.485 4.948,0.728 2.054,0.246 4.449,0.556 7.024,0.786 2.575,0.244 5.326,0.436 8.08,0.596 1.378,0.061 2.755,0.122 4.111,0.182 1.356,0.07 2.693,0.069 3.986,0.103 2.585,0.048 5,0.003 7.068,-0.029 2.069,-0.018 3.792,-0.144 4.998,-0.196 1.205,-0.079 1.893,-0.124 1.893,-0.124 0,0 -0.688,-0.052 -1.892,-0.142 C 40.88,2.167 39.162,2.061 37.099,1.934 32.98,1.702 27.487,1.393 21.994,1.084 16.5,0.8 11.005,0.515 6.885,0.302 4.82,0.208 3.1,0.129 1.896,0.074 0.689,0.027 0,0 0,0" /></g><g
           transform="translate(321.2329,262.8666)"
           id="g434"><path
             id="path436"
             style="fill:#044348;fill-opacity:1;fill-rule:nonzero;stroke:none"
             d="m 0,0 -20.751,-4.501 c -2.709,-0.649 -5.329,1.573 -4.981,4.336 0.004,0.035 0.009,0.07 0.014,0.105 0.257,1.833 1.822,3.205 3.668,3.355 l 20.172,1.253 c 0,0 2.32,0.251 3.06,-0.471 C 1.922,3.355 2.861,1.086 0,0" /></g><g
           transform="translate(249.4109,320.6291)"
           id="g438"><path
             id="path440"
             style="fill:#f3d2b7;fill-opacity:1;fill-rule:nonzero;stroke:none"
             d="M 0,0 C -0.2,0.77 -0.383,1.478 -0.553,2.132 -0.367,1.416 -0.18,0.696 0,0" /></g><g
           transform="translate(250.0158,318.296)"
           id="g442"><path
             id="path444"
             style="fill:#f3d2b7;fill-opacity:1;fill-rule:nonzero;stroke:none"
             d="M 0,0 C -0.183,0.706 -0.389,1.501 -0.605,2.333 -0.417,1.609 -0.216,0.832 0,0" /></g><g
           transform="translate(248.7082,323.3403)"
           id="g446"><path
             id="path448"
             style="fill:#f3d2b7;fill-opacity:1;fill-rule:nonzero;stroke:none"
             d="M 0,0 C -0.297,1.144 -0.544,2.099 -0.748,2.886 -0.522,2.012 -0.265,1.021 0,0" /></g><g
           transform="translate(248.8583,322.7614)"
           id="g450"><path
             id="path452"
             style="fill:#f3d2b7;fill-opacity:1;fill-rule:nonzero;stroke:none"
             d="M 0,0 C -0.05,0.194 -0.1,0.387 -0.15,0.579 -0.101,0.39 -0.052,0.2 0,0" /></g><g
           transform="translate(250.6399,315.8878)"
           id="g454"><path
             id="path456"
             style="fill:#f3d2b7;fill-opacity:1;fill-rule:nonzero;stroke:none"
             d="M 0,0 C -0.086,0.333 -0.221,0.852 -0.389,1.501 -0.264,1.018 -0.134,0.518 0,0" /></g><g
           transform="translate(250.2508,317.389)"
           id="g458"><path
             id="path460"
             style="fill:#f3d2b7;fill-opacity:1;fill-rule:nonzero;stroke:none"
             d="M 0,0 C -0.079,0.307 -0.159,0.614 -0.235,0.907 -0.152,0.585 -0.073,0.28 0,0" /></g><g
           transform="translate(250.7396,315.5031)"
           id="g462"><path
             id="path464"
             style="fill:#f3d2b7;fill-opacity:1;fill-rule:nonzero;stroke:none"
             d="M 0,0 C -0.034,0.132 -0.066,0.255 -0.1,0.385 -0.048,0.186 -0.013,0.05 0,0" /></g><g
           transform="translate(250.7456,315.4798)"
           id="g466"><path
             id="path468"
             style="fill:#f3d2b7;fill-opacity:1;fill-rule:nonzero;stroke:none"
             d="M 0,0 C 0,0 -0.002,0.008 -0.006,0.023 -0.004,0.015 -0.002,0.008 0,0" /></g><g
           transform="translate(247.9601,326.2264)"
           id="g470"><path
             id="path472"
             style="fill:#f3d2b7;fill-opacity:1;fill-rule:nonzero;stroke:none"
             d="M 0,0 C -0.016,0.063 -0.033,0.128 -0.049,0.19 -0.033,0.129 -0.016,0.063 0,0" /></g><g
           transform="translate(247.5738,327.7169)"
           id="g474"><path
             id="path476"
             style="fill:#f3d2b7;fill-opacity:1;fill-rule:nonzero;stroke:none"
             d="M 0,0 C -0.027,0.103 -0.053,0.204 -0.077,0.296 -0.052,0.201 -0.027,0.103 0,0" /></g><g
           transform="translate(253.5801,307.6041)"
           id="g478"><path
             id="path480"
             style="fill:#eab997;fill-opacity:1;fill-rule:nonzero;stroke:none"
             d="m 0,0 c -1.15,2.491 -2.118,5.111 -2.835,7.876 0,0 -5.597,-1.884 -11.878,-6.605 0,0 0.703,-2.707 2.638,-6.791 2.276,0.609 4.536,1.28 6.694,2.221 C -3.447,-2.456 -1.603,-1.364 0,0" /></g><g
           transform="translate(247.2275,329.0529)"
           id="g482"><path
             id="path484"
             style="fill:#f3d2b7;fill-opacity:1;fill-rule:nonzero;stroke:none"
             d="M 0,0 C -0.019,0.074 -0.034,0.132 -0.046,0.176 -0.034,0.132 -0.02,0.078 0,0" /></g><g
           transform="translate(247.182,329.2285)"
           id="g486"><path
             id="path488"
             style="fill:#f3d2b7;fill-opacity:1;fill-rule:nonzero;stroke:none"
             d="M 0,0 C -0.03,0.118 -0.029,0.112 0,0" /></g><g
           transform="translate(312.8912,265.1007)"
           id="g490"><path
             id="path492"
             style="fill:#f3d2b7;fill-opacity:1;fill-rule:nonzero;stroke:none"
             d="M 0,0 -1.305,3.262 C -2.251,5.63 -4.68,7.058 -7.209,6.735 l -8.23,-1.052 c 0,0 -32.069,11.262 -43.872,36.82 -1.603,-1.363 -3.447,-2.456 -5.382,-3.299 -2.157,-0.94 -4.417,-1.612 -6.693,-2.221 5.263,-11.109 19.579,-32.498 54.371,-38.002 0,0 3.054,3.99 6.987,0.711 2.238,-1.866 -0.075,-6.143 -0.075,-6.143 0,0 6.056,-0.879 9.791,4.006 C 0.219,-1.75 0.325,-0.812 0,0" /></g><g
           transform="translate(247.2349,329.0241)"
           id="g494"><path
             id="path496"
             style="fill:#f3d2b7;fill-opacity:1;fill-rule:nonzero;stroke:none"
             d="M 0,0 C -0.002,0.009 -0.005,0.02 -0.007,0.029 -0.005,0.019 -0.003,0.011 0,0" /></g><g
           transform="translate(247.6583,327.3907)"
           id="g498"><path
             id="path500"
             style="fill:#f3d2b7;fill-opacity:1;fill-rule:nonzero;stroke:none"
             d="M 0,0 C -0.029,0.113 -0.057,0.221 -0.085,0.326 -0.058,0.223 -0.03,0.115 0,0" /></g><g
           transform="translate(247.911,326.4161)"
           id="g502"><path
             id="path504"
             style="fill:#f3d2b7;fill-opacity:1;fill-rule:nonzero;stroke:none"
             d="M 0,0 C -0.094,0.363 -0.178,0.685 -0.253,0.975 -0.175,0.674 -0.09,0.348 0,0" /></g><g
           transform="translate(247.4971,328.0129)"
           id="g506"><path
             id="path508"
             style="fill:#f3d2b7;fill-opacity:1;fill-rule:nonzero;stroke:none"
             d="M 0,0 C -0.113,0.437 -0.204,0.786 -0.262,1.011 -0.207,0.8 -0.121,0.469 0,0" /></g><g
           transform="translate(254.8937,312.3945)"
           id="g510"><path
             id="path512"
             style="fill:#fd5900;fill-opacity:1;fill-rule:nonzero;stroke:none"
             d="m 0,0 c -0.964,4.334 -2.318,8.581 -4.039,12.674 -1.001,2.379 -2.152,4.745 -3.905,6.638 -1.753,1.894 -4.2,3.28 -6.78,3.245 0,0 -6.173,-0.178 -7,-8.368 -0.781,-7.729 1.98,-15.333 4.64,-22.63 0.054,-0.147 0.111,-0.299 0.221,-0.41 0.386,-0.386 1.016,-0.024 1.498,0.233 0.89,0.473 1.935,0.518 2.936,0.64 3.794,0.464 7.318,2.141 10.764,3.796 l 1.609,0.692 c 0.699,0.301 1.028,1.105 0.741,1.809 z" /></g><g
           transform="translate(306.1378,266.0207)"
           id="g514"><path
             id="path516"
             style="fill:#eab997;fill-opacity:1;fill-rule:nonzero;stroke:none"
             d="M 0,0 C 0,0 0.392,-0.377 0.718,-1.126 0.868,-1.5 1.027,-1.952 1.108,-2.452 1.147,-2.708 1.184,-2.95 1.197,-3.239 1.197,-3.499 1.214,-3.748 1.2,-4.024 1.166,-4.583 1.067,-5.122 0.882,-5.613 0.704,-6.106 0.397,-6.513 0.101,-6.806 -0.2,-7.104 -0.533,-7.241 -0.754,-7.316 c -0.229,-0.071 -0.365,-0.063 -0.365,-0.063 0,0 0.516,0.215 0.93,0.826 0.438,0.59 0.658,1.576 0.707,2.546 0.021,0.244 0.013,0.516 0.02,0.769 C 0.53,-2.995 0.521,-2.755 0.513,-2.523 0.478,-2.054 0.439,-1.612 0.353,-1.242 0.204,-0.496 0,0 0,0" /></g><g
           transform="translate(308.9218,267.1105)"
           id="g518"><path
             id="path520"
             style="fill:#eab997;fill-opacity:1;fill-rule:nonzero;stroke:none"
             d="M 0,0 C 0,0 0.421,-0.337 0.867,-1.018 1.078,-1.362 1.316,-1.786 1.458,-2.289 1.607,-2.787 1.66,-3.365 1.601,-3.919 1.557,-4.427 1.442,-5.006 1.274,-5.478 1.111,-5.967 0.861,-6.389 0.619,-6.721 0.376,-7.057 0.091,-7.267 -0.103,-7.398 c -0.202,-0.128 -0.335,-0.159 -0.335,-0.159 0,0 0.414,0.353 0.73,1.038 0.172,0.335 0.295,0.757 0.405,1.211 0.101,0.47 0.191,0.923 0.225,1.459 C 1.041,-2.885 0.81,-1.905 0.526,-1.193 0.25,-0.477 0,0 0,0" /></g><g
           transform="translate(325.7168,248.8573)"
           id="g522"><path
             id="path524"
             style="fill:#00aaaa;fill-opacity:1;fill-rule:nonzero;stroke:none"
             d="M 0,0 10.476,3.871 11.045,2.448 0.773,-1.423 Z" /></g><g
           transform="translate(167.392,356.1349)"
           id="g526"><path
             id="path528"
             style="fill:#ffffff;fill-opacity:1;fill-rule:nonzero;stroke:none"
             d="M 0,0 C -0.933,2.718 -5.416,3.591 -6.686,1.013 -10.899,7.536 -22.318,7.1 -26.02,0.275 c 1.362,6.587 -4.661,13.095 -11.334,13.935 -6.674,0.839 -13.252,-2.762 -17.868,-7.655 2.004,10.294 -7.742,21.097 -18.188,20.161 -10.445,-0.936 -18.114,-13.3 -14.313,-23.074 -3.067,4.293 -9.595,5.624 -14.099,2.876 -1.397,-0.853 -2.534,-2.06 -3.366,-3.458 -2.62,1.16 -5.356,1.861 -8.191,1.554 -5.446,-0.591 -10.303,-7.052 -7.247,-11.597 2.227,-3.311 6.912,-3.576 10.902,-3.499 32.61,0.627 65.219,1.254 97.829,1.88 2.874,0.056 5.87,0.141 8.406,1.493 C -0.953,-5.757 0.933,-2.718 0,0" /></g><g
           transform="translate(312.4814,312.4022)"
           id="g530"><path
             id="path532"
             style="fill:#ffffff;fill-opacity:1;fill-rule:nonzero;stroke:none"
             d="m 0,0 c 0.69,2.289 4.392,3.153 5.526,1.048 0.852,5.226 8.998,7.19 12.137,2.926 -1.299,2.699 0.827,6.039 3.611,7.142 2.785,1.103 5.914,0.612 8.865,0.104 -4.123,4.181 -2.607,11.98 2.251,15.279 4.858,3.298 11.723,2.485 16.547,-0.863 4.824,-3.348 7.848,-8.774 9.641,-14.365 -0.295,4.386 2.714,8.78 6.91,10.091 4.196,1.311 9.172,-0.588 11.427,-4.362 -0.618,2.719 3.878,4.097 5.846,2.123 1.663,-1.668 1.826,-4.204 1.582,-6.613 1.889,1.754 4.125,3.101 6.607,3.806 5.136,1.459 11.216,-0.201 14.34,-4.531 3.124,-4.331 2.496,-11.151 -1.785,-14.342 C 100.42,-4.855 96.295,-5.024 92.449,-5.101 65.021,-5.656 37.593,-6.21 10.166,-6.764 7.775,-6.812 5.281,-6.839 3.129,-5.798 0.976,-4.756 -0.69,-2.289 0,0" /></g></g></g></g></svg>