<svg width="233" height="136" viewBox="0 0 233 136" fill="none" xmlns="http://www.w3.org/2000/svg">
<path d="M121.981 93.22C128.76 86.46 132.627 77.12 132.613 67.5533H163.828C163.82 76.352 162.081 85.2213 158.684 93.3947C155.3 101.573 150.292 109.051 144.055 115.292L121.981 93.22Z" fill="#100F0D"/>
<path d="M96.3145 103.85C105.881 103.864 115.222 99.9971 121.981 93.2197L144.054 115.292C137.812 121.529 130.336 126.537 122.156 129.921C113.984 133.318 105.113 135.058 96.3145 135.066V103.85Z" fill="#100F0D"/>
<path d="M70.6476 93.2197C77.4076 99.9971 86.749 103.864 96.3143 103.85V135.066C87.517 135.058 78.6463 133.318 70.473 129.921C62.2943 126.537 54.819 121.529 48.5762 115.292L70.6476 93.2197Z" fill="#100F0D"/>
<path d="M60.017 67.5533C60.005 77.12 63.8703 86.46 70.6476 93.22L48.5762 115.292C42.3382 109.051 37.3303 101.573 33.9466 93.3947C30.5491 85.2213 28.8095 76.352 28.8018 67.5533H60.017Z" fill="#100F0D"/>
<path d="M70.6476 41.887C63.8703 48.6457 60.005 57.987 60.017 67.5537H28.8018C28.8095 58.755 30.5491 49.8857 33.9466 41.7124C37.3303 33.5324 42.3382 26.0577 48.5762 19.8151L70.6476 41.887Z" fill="#100F0D"/>
<path d="M96.3143 31.2547C86.749 31.2427 77.4076 35.1094 70.6476 41.8867L48.5762 19.8147C54.819 13.5761 62.2943 8.56938 70.473 5.18405C78.6463 1.78805 87.517 0.0480741 96.3143 0.0400741V31.2547Z" fill="#100F0D"/>
<path d="M121.981 41.8867C115.222 35.1094 105.881 31.2427 96.3145 31.2547V0.0400741C105.113 0.0480741 113.984 1.78805 122.156 5.18405C130.336 8.56938 137.812 13.5761 144.054 19.8147L121.981 41.8867Z" fill="#100F0D"/>
<path d="M132.613 67.5537C132.627 57.987 128.76 48.6457 121.981 41.887L144.055 19.8151C150.292 26.0577 155.3 33.5324 158.684 41.7124C162.081 49.8857 163.82 58.755 163.828 67.5537H132.613Z" fill="#100F0D"/>
<path d="M0.189453 51.9452H34.7097V83.1611H0.189453V51.9452Z" fill="#100F0D"/>
<path d="M194.505 51.9452H232.013V83.1611H194.505V51.9452Z" fill="#100F0D"/>
<path d="M156.997 51.9452H194.505V83.1611H156.997V51.9452Z" fill="#100F0D"/>
<path d="M160.328 67.8291H159.5V67.5491H160.328V67.8291Z" fill="white"/>
<path d="M125.432 96.6689L124.85 96.0823C132.38 88.5756 136.687 78.1769 136.66 67.5503L137.488 67.5476C137.515 78.3943 133.122 89.0089 125.432 96.6689Z" fill="white"/>
<path d="M148.758 73.0391L147.656 72.9804L147.944 67.5244L149.046 67.5831L148.758 73.0391Z" fill="white"/>
<path d="M142.796 92.3857L141.818 91.8711C143.306 89.0524 144.609 85.9457 145.69 82.6391L146.74 82.9818C145.638 86.3484 144.312 89.5111 142.796 92.3857Z" fill="white"/>
<path d="M133.625 104.816L132.8 104.083C133.23 103.6 133.668 103.123 134.105 102.646C134.884 101.798 135.689 100.923 136.426 100.027L137.278 100.73C136.522 101.648 135.706 102.535 134.918 103.392C134.484 103.864 134.05 104.338 133.625 104.816Z" fill="white"/>
<path d="M96.4129 108.723H96.3115L96.3142 107.895H96.4129C107.005 107.895 117.364 103.593 124.848 96.084L125.433 96.6693C117.797 104.333 107.222 108.723 96.4129 108.723Z" fill="white"/>
<path d="M96.2147 108.723C85.4 108.723 74.832 104.333 67.208 96.668L67.7947 96.0853C75.264 103.593 85.62 107.895 96.2147 107.895H96.312L96.3147 108.723H96.2147Z" fill="white"/>
<path d="M33.1279 67.8291H32.2998V67.5491H33.1279V67.8291Z" fill="white"/>
<path d="M67.2093 96.6689C59.5253 89.0249 55.126 78.4116 55.1407 67.549H55.9693C55.9547 78.193 60.264 88.5929 67.7933 96.0823L67.2093 96.6689Z" fill="white"/>
<path d="M59.0062 104.817C58.5836 104.341 58.1516 103.872 57.7209 103.403C56.9289 102.541 56.1116 101.652 55.3516 100.729L56.2022 100.027C56.9449 100.927 57.7516 101.805 58.5329 102.656C58.9689 103.129 59.4036 103.603 59.8316 104.083L59.0062 104.817Z" fill="white"/>
<path d="M49.7628 92.3037C48.2357 89.4184 46.9372 86.2397 45.9033 82.857L46.9581 82.5344C47.9727 85.8504 49.2445 88.9637 50.7393 91.7864L49.7628 92.3037Z" fill="white"/>
<path d="M43.8724 73.0391L43.585 67.5831L44.686 67.5244L44.974 72.9804L43.8724 73.0391Z" fill="white"/>
<path d="M55.1407 67.5498C55.126 56.6831 59.5253 46.0738 67.2093 38.4431L67.7933 39.0311C60.264 46.5058 55.9547 56.9018 55.9693 67.5498H55.1407Z" fill="white"/>
<path d="M44.686 67.583L43.585 67.5243L43.8724 62.0683L44.974 62.127L44.686 67.583Z" fill="white"/>
<path d="M46.9401 52.4678L45.8906 52.1238C46.9932 48.7531 48.3202 45.5891 49.8349 42.7211L50.8114 43.2371C49.3254 46.0491 48.0234 49.1558 46.9401 52.4678Z" fill="white"/>
<path d="M56.2022 35.0801L55.3516 34.3774C56.1116 33.4547 56.9289 32.5654 57.7209 31.7041C58.1516 31.2347 58.5836 30.7654 59.0062 30.2894L59.8316 31.0241C59.4036 31.5041 58.9689 31.9774 58.5329 32.4507C57.7516 33.3014 56.9449 34.1801 56.2022 35.0801Z" fill="white"/>
<path d="M51.6344 22.8691L51.0479 22.2825C56.9267 16.4038 64.1067 11.6105 71.808 8.41979C79.4733 5.23846 87.9466 3.54914 96.3133 3.53581L96.3146 4.3638C88.056 4.37714 79.692 6.04379 72.1266 9.18512C64.5226 12.3345 57.436 17.0665 51.6344 22.8691Z" fill="white"/>
<path d="M67.7947 39.0283L67.208 38.4457C74.8387 30.7737 85.4267 26.3763 96.2627 26.3763H96.3133V27.2043H96.2627C85.644 27.2043 75.272 31.5123 67.7947 39.0283Z" fill="white"/>
<path d="M59.7864 31.0693L59.0518 30.2453C59.5278 29.8227 59.9944 29.3907 60.4638 28.9613C61.3251 28.1693 62.2171 27.3507 63.1384 26.5907L63.8424 27.4413C62.9424 28.1827 62.0624 28.992 61.2104 29.7733C60.7384 30.208 60.2651 30.6427 59.7864 31.0693Z" fill="white"/>
<path d="M72.0814 21.9766L71.5654 21.0019C74.4521 19.4739 77.6294 18.1752 81.0108 17.1419L81.3334 18.1979C78.0188 19.2112 74.9068 20.4819 72.0814 21.9766Z" fill="white"/>
<path d="M90.8884 16.2139L90.8311 15.1112L96.2871 14.8232L96.3444 15.9258L90.8884 16.2139Z" fill="white"/>
<path d="M140.995 22.8691C135.184 17.0571 128.097 12.3265 120.503 9.18512C112.951 6.04379 104.585 4.37714 96.3135 4.3638V3.53581C104.695 3.54914 113.168 5.23846 120.819 8.41979C128.513 11.6025 135.693 16.3958 141.581 22.2825L140.995 22.8691Z" fill="white"/>
<path d="M124.848 39.0283C117.359 31.5123 106.979 27.2043 96.3641 27.2043H96.3135V26.3763H96.3641C107.197 26.3763 117.791 30.7723 125.433 38.4443L124.848 39.0283Z" fill="white"/>
<path d="M101.743 16.2139L96.2871 15.9258L96.3444 14.8232L101.8 15.1112L101.743 16.2139Z" fill="white"/>
<path d="M120.632 22.0498C117.813 20.5618 114.708 19.2605 111.401 18.1778L111.745 17.1285C115.111 18.2298 118.275 19.5578 121.147 21.0725L120.632 22.0498Z" fill="white"/>
<path d="M132.845 31.0693C132.361 30.6387 131.882 30.2 131.406 29.7613C130.56 28.9827 129.685 28.18 128.789 27.4413L129.492 26.5907C130.409 27.3467 131.296 28.1613 132.152 28.948C132.626 29.3827 133.098 29.8173 133.58 30.244L132.845 31.0693Z" fill="white"/>
<path d="M137.488 67.5508L136.66 67.5481C136.687 56.9161 132.382 46.5215 124.85 39.0308L125.432 38.4428C133.122 46.0908 137.515 56.6988 137.488 67.5508Z" fill="white"/>
<path d="M136.426 35.0801C135.689 34.1841 134.884 33.3081 134.105 32.4614C133.668 31.9841 133.23 31.5067 132.8 31.0241L133.625 30.2907C134.05 30.7694 134.484 31.2427 134.918 31.7147C135.706 32.5721 136.522 33.4587 137.278 34.3774L136.426 35.0801Z" fill="white"/>
<path d="M145.673 52.5723C144.658 49.2563 143.386 46.1429 141.892 43.3202L142.868 42.8029C144.396 45.6883 145.694 48.8669 146.728 52.2496L145.673 52.5723Z" fill="white"/>
<path d="M147.944 67.583L147.656 62.127L148.758 62.0683L149.046 67.5243L147.944 67.583Z" fill="white"/>
<path d="M51.0475 112.816C45.1455 106.912 40.346 99.7337 37.1715 92.0551C35.536 88.0991 34.2903 83.9297 33.4642 79.6577H0.193359V78.8284H34.1507L34.2132 79.1671C35.0283 83.5004 36.2808 87.7311 37.9371 91.7391C41.0699 99.3177 45.807 106.403 51.634 112.23L51.0475 112.816Z" fill="white"/>
<path d="M34.0611 56.8174H0.193359V55.9894H33.3668C34.1835 51.5254 35.4622 47.1761 37.1715 43.0574C40.3434 35.3854 45.1414 28.2027 51.0475 22.2841L51.634 22.8694C45.8043 28.7121 41.0674 35.8027 37.9371 43.3747C36.207 47.5427 34.9231 51.9507 34.1204 56.4747L34.0611 56.8174Z" fill="white"/>
<path d="M34.7091 68.3789H30.1055V67.2749H34.7091V68.3789Z" fill="white"/>
<path d="M21.6679 68.3789H11.5518V67.2749H21.6679V68.3789Z" fill="white"/>
<path d="M4.79305 68.3789H0.189453V67.2749H4.79305V68.3789Z" fill="white"/>
<path d="M232.013 79.6641H194.505V78.8361H232.013V79.6641Z" fill="white"/>
<path d="M232.013 56.8184H194.505V55.9904H232.013V56.8184Z" fill="white"/>
<path d="M217.844 68.3789H207.728V67.2749H217.844V68.3789Z" fill="white"/>
<path d="M199.508 68.3789H194.505V67.2749H199.508V68.3789Z" fill="white"/>
<path d="M141.582 112.816L140.995 112.23C146.822 106.403 151.559 99.3177 154.692 91.7391C156.363 87.7217 157.615 83.4937 158.414 79.1684L158.475 78.8284H194.502V79.6577H159.164C158.354 83.9217 157.107 88.0911 155.458 92.0551C152.283 99.7337 147.483 106.912 141.582 112.816Z" fill="white"/>
<path d="M194.502 56.8174H158.567L158.507 56.4734C157.73 52.0054 156.446 47.5987 154.692 43.3747C151.562 35.8027 146.824 28.7121 140.995 22.8694L141.582 22.2841C147.487 28.2027 152.286 35.3854 155.458 43.0574C157.19 47.2294 158.468 51.5787 159.262 55.9894H194.502V56.8174Z" fill="white"/>
<path d="M194.506 68.3789H189.503V67.2749H194.506V68.3789Z" fill="white"/>
<path d="M180.335 68.3789H170.219V67.2749H180.335V68.3789Z" fill="white"/>
<path d="M162 68.3789H156.997V67.2749H162V68.3789Z" fill="white"/>
</svg>
