<svg width="184" height="114" viewBox="0 0 184 114" fill="none" xmlns="http://www.w3.org/2000/svg">
<path d="M43.4265 113.603H0.839844V82.3865H43.4265V113.603Z" fill="#100F0D"/>
<path d="M43.4265 86.7139H0.839844V85.8859H43.4265V86.7139Z" fill="white"/>
<path d="M43.4265 109.558H0.839844V108.73H43.4265V109.558Z" fill="white"/>
<path d="M6.52116 98.2734H0.839844V97.1681H6.52116V98.2734Z" fill="white"/>
<path d="M27.0457 98.2734H16.9297V97.1681H27.0457V98.2734Z" fill="white"/>
<path d="M43.4267 98.2734H37.748V97.1681H43.4267V98.2734Z" fill="white"/>
<path d="M86.0148 113.603H43.4268V82.3865H86.0148V113.603Z" fill="#100F0D"/>
<path d="M86.0148 86.7139H43.4268V85.8859H86.0148V86.7139Z" fill="white"/>
<path d="M86.0148 109.558H43.4268V108.73H86.0148V109.558Z" fill="white"/>
<path d="M49.1068 98.2734H43.4268V97.1681H49.1068V98.2734Z" fill="white"/>
<path d="M69.6316 98.2734H59.5156V97.1681H69.6316V98.2734Z" fill="white"/>
<path d="M86.0144 98.2734H80.333V97.1681H86.0144V98.2734Z" fill="white"/>
<path d="M129.097 113.528L127.271 113.603H86.0146V82.3865H107.307H117.955H123.279H125.94H127.271L128.101 82.3279L129.097 113.528Z" fill="#100F0D"/>
<path d="M125.94 86.7139H86.0146V85.8859H127.271L128.2 85.8245L128.252 86.6512L127.297 86.7125L125.94 86.7139Z" fill="white"/>
<path d="M125.94 109.558H86.0146V108.73H127.271L128.937 108.658L128.973 109.484L127.289 109.556L125.94 109.558Z" fill="white"/>
<path d="M91.6946 98.2734H86.0146V97.1681H91.6946V98.2734Z" fill="white"/>
<path d="M112.219 98.2734H102.103V97.1681H112.219V98.2734Z" fill="white"/>
<path d="M126.093 98.2783C125.701 98.2783 125.31 98.2757 124.924 98.273C124.257 98.2677 123.589 98.261 122.93 98.273L122.913 97.1677C123.584 97.1583 124.258 97.1637 124.933 97.169C126.128 97.177 127.361 97.189 128.552 97.1037L128.63 98.205C127.789 98.265 126.936 98.2783 126.093 98.2783Z" fill="white"/>
<path d="M176.972 84.1723C172.178 92.703 165.339 100.112 156.932 105.174C152.806 107.819 148.23 109.714 143.563 111.203C141.188 111.812 138.827 112.524 136.391 112.82C135.18 112.999 133.97 113.207 132.754 113.33L129.098 113.528L128.102 82.3283C136.954 82.2043 145.339 76.8803 149.61 69.1483L176.972 84.1723Z" fill="#100F0D"/>
<path d="M128.233 86.6523L128.22 85.8243C138.149 85.6723 147.75 79.787 152.676 70.831L153.402 71.2297C148.334 80.443 138.456 86.4963 128.233 86.6523Z" fill="white"/>
<path d="M128.978 109.484L128.934 108.658L132.306 108.478C133.076 108.399 133.864 108.276 134.652 108.155L135.618 108.008C137.354 107.803 139.075 107.347 140.74 106.907C141.219 106.779 141.699 106.652 142.18 106.531C147.052 104.966 151.048 103.164 154.372 101.028C161.807 96.559 168.142 89.919 172.702 81.8217L173.423 82.2284C168.794 90.4497 162.358 97.195 154.81 101.732C151.435 103.9 147.375 105.732 142.408 107.326C141.906 107.454 141.428 107.58 140.952 107.707C139.258 108.155 137.508 108.619 135.726 108.83L134.779 108.972C133.976 109.098 133.174 109.222 132.368 109.303L128.978 109.484Z" fill="white"/>
<path d="M128.619 98.2051L128.564 97.1024L131.382 96.9611L134.116 96.5437L134.28 97.6357L131.491 98.0571L128.619 98.2051Z" fill="white"/>
<path d="M144.279 94.585L143.825 93.5783C146.845 92.217 149.703 90.4716 152.317 88.389L153.005 89.2516C150.319 91.3916 147.383 93.1863 144.279 94.585Z" fill="white"/>
<path d="M160.399 81.5957L159.544 80.8984C160.412 79.8357 161.139 78.6264 161.841 77.4557C162.085 77.0477 162.332 76.6384 162.584 76.2357L163.521 76.8184C163.272 77.2184 163.029 77.621 162.788 78.025C162.064 79.2277 161.316 80.4717 160.399 81.5957Z" fill="white"/>
<path d="M175.966 27.9919C181.08 36.3612 183.692 46.2119 183.914 55.9479C184.138 65.6932 181.622 75.5612 176.972 84.1719L149.609 69.1479C150.557 67.1745 151.53 65.1879 151.954 63.0279C152.314 61.9865 152.333 60.8692 152.56 59.7945C152.648 59.2519 152.609 58.6892 152.656 58.1385C152.658 57.5865 152.786 57.0332 152.702 56.4812C152.552 52.0612 151.481 47.7025 149.14 43.9545L175.966 27.9919Z" fill="#100F0D"/>
<path d="M153.412 71.2119L152.666 70.8479C153.633 68.8746 154.833 66.4186 155.346 63.8799C155.605 63.0946 155.71 62.3306 155.824 61.5212C155.888 61.0612 155.952 60.6026 156.041 60.1479C156.093 59.8093 156.104 59.4452 156.114 59.0599C156.122 58.8026 156.129 58.5452 156.149 58.2892C156.15 58.0786 156.17 57.8386 156.19 57.5986C156.221 57.2026 156.25 56.8306 156.204 56.4679C156.032 51.0973 154.633 46.1679 152.15 42.1733L152.854 41.7359C155.413 45.8546 156.856 50.9253 157.028 56.4013C157.084 56.8093 157.049 57.2439 157.016 57.6639C156.997 57.8853 156.978 58.1066 156.976 58.3279C156.956 58.5972 156.949 58.8399 156.942 59.0826C156.932 59.4773 156.92 59.8852 156.857 60.2932C156.766 60.7479 156.705 61.1919 156.644 61.6346C156.53 62.4453 156.414 63.2826 156.145 64.0932C155.624 66.6852 154.397 69.1946 153.412 71.2119Z" fill="white"/>
<path d="M173.427 82.2217L172.698 81.8283C177.052 73.7483 179.247 64.8283 179.042 56.0337C178.82 46.7217 176.308 37.8883 171.78 30.4883L172.486 30.0563C177.091 37.5803 179.644 46.5564 179.87 56.0137C180.078 64.9537 177.85 74.0163 173.427 82.2217Z" fill="white"/>
<path d="M163.54 76.7852L162.564 76.2692C162.838 75.7518 163.09 75.2225 163.343 74.6931C163.492 74.3771 163.642 74.0625 163.798 73.7492L164.014 73.3012C164.142 73.0358 164.272 72.7692 164.391 72.4972L164.862 71.2065L165.899 71.5852L165.415 72.9091C165.276 73.2265 165.14 73.5052 165.006 73.7838L164.791 74.2292C164.635 74.5465 164.487 74.8572 164.339 75.1665C164.08 75.7105 163.82 76.2532 163.54 76.7852Z" fill="white"/>
<path d="M168.365 61.4365L167.267 61.3218C167.417 59.8952 167.492 58.4525 167.492 57.0325C167.492 55.1405 167.36 53.2339 167.099 51.3659L168.193 51.2139C168.461 53.1312 168.596 55.0899 168.596 57.0325C168.596 58.4912 168.519 59.9725 168.365 61.4365Z" fill="white"/>
<path d="M164.397 41.3643L163.181 38.8189C163.107 38.6736 163.031 38.5149 162.957 38.3563C162.836 38.1003 162.716 37.8429 162.573 37.5976L161.847 36.4003L162.789 35.8269L163.521 37.0323C163.687 37.3149 163.82 37.6002 163.956 37.8856C164.027 38.0362 164.096 38.1843 164.171 38.3309L165.392 40.8882L164.397 41.3643Z" fill="white"/>
<path d="M127.18 0.245771C136.844 0.300437 146.773 2.76975 155.252 7.66042L158.39 9.5711C159.436 10.2084 160.382 10.9898 161.372 11.7071C163.378 13.1164 165.14 14.8191 166.945 16.4684C170.364 19.9511 173.534 23.7284 175.966 27.9924L149.14 43.9551C148.092 42.0137 146.592 40.3591 145.088 38.7551C144.244 38.0457 143.497 37.2191 142.565 36.6191C142.112 36.3084 141.713 35.9138 141.232 35.6471C140.754 35.3711 140.284 35.0871 139.82 34.7938C139.372 34.4644 138.842 34.2951 138.357 34.0431C137.853 33.8271 137.392 33.5098 136.865 33.3498C135.825 33.0098 134.829 32.5351 133.745 32.3391C131.632 31.6871 129.461 31.5884 127.18 31.4618V0.245771Z" fill="#100F0D"/>
<path d="M152.138 42.1533C150.896 39.8813 149.106 37.9133 147.528 36.2467C147.246 36.008 146.942 35.7293 146.638 35.4507C145.998 34.86 145.392 34.3013 144.694 33.844C144.477 33.6933 144.28 33.5373 144.081 33.3813C143.777 33.1413 143.49 32.916 143.177 32.7387L141.537 31.748C141.196 31.5053 140.838 31.3413 140.461 31.1693C140.264 31.08 140.068 30.9907 139.876 30.892C139.669 30.8027 139.444 30.6867 139.22 30.572C138.878 30.396 138.557 30.2293 138.217 30.1213C137.845 29.996 137.484 29.8613 137.124 29.7267C136.288 29.416 135.498 29.1227 134.658 28.9613C132.162 28.208 129.618 28.0827 127.158 27.9627L127.2 27.136C129.592 27.252 132.305 27.3853 134.857 28.1587C135.722 28.3227 136.582 28.6413 137.413 28.952C137.765 29.0827 138.118 29.2147 138.474 29.336C138.873 29.4613 139.242 29.652 139.598 29.836C139.806 29.9427 140.016 30.0507 140.23 30.144C140.434 30.248 140.618 30.3307 140.804 30.416C141.201 30.5973 141.613 30.784 141.993 31.0573L143.596 32.0253C143.953 32.2267 144.278 32.4827 144.592 32.7293C144.778 32.876 144.965 33.0227 145.157 33.1573C145.904 33.6467 146.562 34.2533 147.2 34.8413C147.496 35.1147 147.792 35.3867 148.097 35.648C149.744 37.3813 151.576 39.3973 152.865 41.756L152.138 42.1533Z" fill="white"/>
<path d="M171.772 30.4766C169.827 27.0486 167.207 23.7006 163.528 19.9432L162.662 19.1499C161.33 17.9232 159.952 16.6539 158.45 15.6046C158.144 15.3859 157.851 15.1619 157.556 14.9406C156.967 14.4952 156.359 14.0339 155.726 13.6499L152.832 11.8899C145.367 7.58588 136.252 5.17921 127.178 5.11921L127.183 4.29121C136.4 4.35255 145.659 6.7979 153.254 11.1779L156.155 12.9432C156.824 13.3486 157.45 13.8219 158.055 14.2792C158.346 14.4979 158.635 14.7179 158.928 14.9299C160.472 16.0072 161.87 17.2952 163.223 18.5406L164.102 19.3472C167.85 23.1739 170.511 26.5766 172.492 30.0686L171.772 30.4766Z" fill="white"/>
<path d="M161.853 36.4092C161.67 36.1238 161.497 35.8318 161.324 35.5398C161.014 35.0158 160.72 34.5212 160.373 34.0598L158.684 31.7998L159.566 31.1385L161.256 33.3972C161.638 33.9065 161.962 34.4505 162.273 34.9772C162.441 35.2585 162.608 35.5412 162.782 35.8159L161.853 36.4092Z" fill="white"/>
<path d="M151.377 24.752C148.724 22.7573 145.817 21.0946 142.741 19.8093L143.165 18.7906C146.327 20.1106 149.313 21.82 152.041 23.8693L151.377 24.752Z" fill="white"/>
<path d="M132.72 17.0908L131.324 16.8815L127.152 16.6788L127.207 15.5762L131.434 15.7841L132.884 16.0002L132.72 17.0908Z" fill="white"/>
<path d="M84.5918 0.244956H127.18V31.4609H84.5918V0.244956Z" fill="#100F0D"/>
<path d="M127.18 27.9629H84.5918V27.1349H127.18V27.9629Z" fill="white"/>
<path d="M127.18 5.11914H84.5918V4.29115H127.18V5.11914Z" fill="white"/>
<path d="M127.18 16.6787H121.5V15.5747H127.18V16.6787Z" fill="white"/>
<path d="M111.091 16.6787H100.975V15.5747H111.091V16.6787Z" fill="white"/>
<path d="M90.2718 16.6787H84.5918V15.5747H90.2718V16.6787Z" fill="white"/>
<path d="M27.0134 48.3789H22.0107V47.2749H27.0134V48.3789Z" fill="white"/>
</svg>
