<svg width="179" height="211" viewBox="0 0 179 211" fill="none" xmlns="http://www.w3.org/2000/svg">
<g clip-path="url(#clip0_16480_211499)">
<path d="M71 76.504V32H102.215V76.504H71Z" fill="#100F0D"/>
<path d="M98.7149 76.504H97.8867V32H98.7149V76.504Z" fill="white"/>
<path d="M75.8711 76.504H75.043V32H75.8711V76.504Z" fill="white"/>
<path d="M87.4324 37.936H86.3281V32H87.4324V37.936Z" fill="white"/>
<path d="M87.4324 58.9285H86.3281V48.8125H87.4324V58.9285Z" fill="white"/>
<path d="M87.4324 76.504H86.3281V70.5693H87.4324V76.504Z" fill="white"/>
<path d="M71 121.008V76.5039H102.215V121.008H71Z" fill="#100F0D"/>
<path d="M98.7149 121.008H97.8867V76.5039H98.7149V121.008Z" fill="white"/>
<path d="M75.8711 121.008H75.043V76.5039H75.8711V121.008Z" fill="white"/>
<path d="M87.4324 82.4399H86.3281V76.5039H87.4324V82.4399Z" fill="white"/>
<path d="M87.4324 103.432H86.3281V93.3164H87.4324V103.432Z" fill="white"/>
<path d="M87.4324 121.008H86.3281V115.073H87.4324V121.008Z" fill="white"/>
<path d="M71 165.512V121.008H102.215V165.512H71Z" fill="#100F0D"/>
<path d="M98.7149 165.512H97.8867V121.008H98.7149V165.512Z" fill="white"/>
<path d="M75.8711 165.512H75.043V121.008H75.8711V165.512Z" fill="white"/>
<path d="M87.4324 126.945H86.3281V121.008H87.4324V126.945Z" fill="white"/>
<path d="M87.4324 147.937H86.3281V137.821H87.4324V147.937Z" fill="white"/>
<path d="M87.4324 165.512H86.3281V159.577H87.4324V165.512Z" fill="white"/>
<path d="M71 210.016V165.512H102.215V210.016H71Z" fill="#100F0D"/>
<path d="M98.7149 210.016H97.8867V165.512H98.7149V210.016Z" fill="white"/>
<path d="M75.8711 210.016H75.043V165.512H75.8711V210.016Z" fill="white"/>
<path d="M87.4324 171.447H86.3281V165.511H87.4324V171.447Z" fill="white"/>
<path d="M87.4324 192.44H86.3281V182.324H87.4324V192.44Z" fill="white"/>
<path d="M87.4324 210.016H86.3281V204.081H87.4324V210.016Z" fill="white"/>
</g>
<g clip-path="url(#clip1_16480_211499)">
<path d="M44.504 32L0 32L-1.36446e-06 0.7848L44.504 0.784798L44.504 32Z" fill="#100F0D"/>
<path d="M44.504 4.28508L44.504 5.11328L0 5.11328L-3.62017e-08 4.28508L44.504 4.28508Z" fill="white"/>
<path d="M44.504 27.1289L44.504 27.957L0 27.957L-3.61987e-08 27.1289L44.504 27.1289Z" fill="white"/>
<path d="M5.93601 15.5676L5.93601 16.6719L0 16.6719L-4.82705e-08 15.5676L5.93601 15.5676Z" fill="white"/>
<path d="M26.9285 15.5676L26.9285 16.6719L16.8125 16.6719L16.8125 15.5676L26.9285 15.5676Z" fill="white"/>
<path d="M44.504 15.5676L44.504 16.6719L38.5693 16.6719L38.5693 15.5676L44.504 15.5676Z" fill="white"/>
<path d="M89.0079 32L44.5039 32L44.5039 0.7848L89.0079 0.784798L89.0079 32Z" fill="#100F0D"/>
<path d="M89.0079 4.28508L89.0079 5.11328L44.5039 5.11328L44.5039 4.28508L89.0079 4.28508Z" fill="white"/>
<path d="M89.0079 27.1289L89.0079 27.957L44.5039 27.957L44.5039 27.1289L89.0079 27.1289Z" fill="white"/>
<path d="M50.4399 15.5676L50.4399 16.6719L44.5039 16.6719L44.5039 15.5676L50.4399 15.5676Z" fill="white"/>
<path d="M71.4324 15.5676L71.4324 16.6719L61.3164 16.6719L61.3164 15.5676L71.4324 15.5676Z" fill="white"/>
<path d="M89.0079 15.5676L89.0079 16.6719L83.0732 16.6719L83.0732 15.5676L89.0079 15.5676Z" fill="white"/>
<path d="M133.512 32L89.0078 32L89.0078 0.7848L133.512 0.784798L133.512 32Z" fill="#100F0D"/>
<path d="M133.512 4.28508L133.512 5.11328L89.0078 5.11328L89.0078 4.28508L133.512 4.28508Z" fill="white"/>
<path d="M133.512 27.1289L133.512 27.957L89.0078 27.957L89.0078 27.1289L133.512 27.1289Z" fill="white"/>
<path d="M94.9451 15.5676L94.9451 16.6719L89.0078 16.6719L89.0078 15.5676L94.9451 15.5676Z" fill="white"/>
<path d="M115.937 15.5676L115.937 16.6719L105.821 16.6719L105.821 15.5676L115.937 15.5676Z" fill="white"/>
<path d="M133.512 15.5676L133.512 16.6719L127.577 16.6719L127.577 15.5676L133.512 15.5676Z" fill="white"/>
<path d="M178.016 32L133.512 32L133.512 0.7848L178.016 0.784798L178.016 32Z" fill="#100F0D"/>
<path d="M178.016 4.28508L178.016 5.11328L133.512 5.11328L133.512 4.28508L178.016 4.28508Z" fill="white"/>
<path d="M178.016 27.1289L178.016 27.957L133.512 27.957L133.512 27.1289L178.016 27.1289Z" fill="white"/>
<path d="M139.447 15.5676L139.447 16.6719L133.511 16.6719L133.511 15.5676L139.447 15.5676Z" fill="white"/>
<path d="M160.44 15.5676L160.44 16.6719L150.324 16.6719L150.324 15.5676L160.44 15.5676Z" fill="white"/>
<path d="M178.016 15.5676L178.016 16.6719L172.081 16.6719L172.081 15.5676L178.016 15.5676Z" fill="white"/>
</g>
<defs>
<clipPath id="clip0_16480_211499">
<rect width="32" height="179" fill="white" transform="translate(71 32)"/>
</clipPath>
<clipPath id="clip1_16480_211499">
<rect width="32" height="179" fill="white" transform="translate(0 32) rotate(-90)"/>
</clipPath>
</defs>
</svg>
