<svg width="262" height="308" viewBox="0 0 262 308" fill="none" xmlns="http://www.w3.org/2000/svg">
<path d="M1.99627 190.012H0.891602V184.398H1.99627V190.012Z" fill="white"/>
<g clip-path="url(#clip0_16480_211606)">
<path d="M150.981 179.22C157.76 172.46 161.627 163.12 161.613 153.554H192.828C192.82 162.352 191.081 171.222 187.684 179.395C184.3 187.573 179.292 195.051 173.055 201.292L150.981 179.22Z" fill="#100F0D"/>
<path d="M125.314 189.85C134.881 189.864 144.222 185.997 150.981 179.22L173.054 201.292C166.812 207.529 159.336 212.537 151.156 215.921C142.984 219.318 134.113 221.058 125.314 221.066V189.85Z" fill="#100F0D"/>
<path d="M99.6476 179.22C106.408 185.997 115.749 189.864 125.314 189.85V221.066C116.517 221.058 107.646 219.318 99.473 215.921C91.2943 212.537 83.819 207.529 77.5762 201.292L99.6476 179.22Z" fill="#100F0D"/>
<path d="M89.017 153.554C89.005 163.12 92.8703 172.46 99.6476 179.22L77.5762 201.292C71.3382 195.051 66.3303 187.573 62.9466 179.395C59.5491 171.222 57.8095 162.352 57.8018 153.554H89.017Z" fill="#100F0D"/>
<path d="M99.6476 127.887C92.8703 134.646 89.005 143.987 89.017 153.554H57.8018C57.8095 144.755 59.5491 135.886 62.9466 127.713C66.3303 119.533 71.3382 112.058 77.5762 105.815L99.6476 127.887Z" fill="#100F0D"/>
<path d="M125.314 117.255C115.749 117.243 106.408 121.109 99.6476 127.887L77.5762 105.815C83.819 99.5761 91.2943 94.5693 99.473 91.184C107.646 87.788 116.517 86.048 125.314 86.04V117.255Z" fill="#100F0D"/>
<path d="M150.981 127.887C144.222 121.109 134.881 117.243 125.314 117.255V86.04C134.113 86.048 142.984 87.788 151.156 91.184C159.336 94.5693 166.812 99.5761 173.054 105.815L150.981 127.887Z" fill="#100F0D"/>
<path d="M161.613 153.554C161.627 143.987 157.76 134.646 150.981 127.887L173.055 105.815C179.292 112.058 184.3 119.533 187.684 127.713C191.081 135.886 192.82 144.755 192.828 153.554H161.613Z" fill="#100F0D"/>
<path d="M29.1895 137.945H63.7097V169.161H29.1895V137.945Z" fill="#100F0D"/>
<path d="M223.505 137.945H261.013V169.161H223.505V137.945Z" fill="#100F0D"/>
<path d="M185.997 137.945H223.505V169.161H185.997V137.945Z" fill="#100F0D"/>
<path d="M189.328 153.829H188.5V153.549H189.328V153.829Z" fill="white"/>
<path d="M154.432 182.669L153.85 182.083C161.38 174.576 165.687 164.177 165.66 153.551L166.488 153.548C166.515 164.395 162.122 175.009 154.432 182.669Z" fill="white"/>
<path d="M177.758 159.039L176.656 158.98L176.944 153.524L178.046 153.583L177.758 159.039Z" fill="white"/>
<path d="M171.796 178.385L170.818 177.871C172.306 175.052 173.609 171.945 174.69 168.639L175.74 168.981C174.638 172.348 173.312 175.511 171.796 178.385Z" fill="white"/>
<path d="M162.625 190.816L161.8 190.083C162.23 189.6 162.668 189.123 163.105 188.646C163.884 187.798 164.689 186.923 165.426 186.027L166.278 186.73C165.522 187.648 164.706 188.535 163.918 189.392C163.484 189.864 163.05 190.338 162.625 190.816Z" fill="white"/>
<path d="M125.413 194.723H125.312L125.314 193.895H125.413C136.005 193.895 146.364 189.593 153.848 182.084L154.433 182.669C146.797 190.333 136.222 194.723 125.413 194.723Z" fill="white"/>
<path d="M125.215 194.723C114.4 194.723 103.832 190.333 96.208 182.668L96.7947 182.085C104.264 189.593 114.62 193.895 125.215 193.895H125.312L125.315 194.723H125.215Z" fill="white"/>
<path d="M62.1279 153.829H61.2998V153.549H62.1279V153.829Z" fill="white"/>
<path d="M96.2093 182.669C88.5253 175.025 84.126 164.411 84.1407 153.549H84.9693C84.9547 164.193 89.264 174.593 96.7933 182.082L96.2093 182.669Z" fill="white"/>
<path d="M88.0062 190.817C87.5836 190.341 87.1516 189.872 86.7209 189.403C85.9289 188.541 85.1116 187.652 84.3516 186.729L85.2022 186.027C85.9449 186.927 86.7516 187.805 87.5329 188.656C87.9689 189.129 88.4036 189.603 88.8316 190.083L88.0062 190.817Z" fill="white"/>
<path d="M78.7628 178.303C77.2357 175.418 75.9372 172.239 74.9033 168.857L75.9581 168.534C76.9727 171.85 78.2445 174.963 79.7393 177.786L78.7628 178.303Z" fill="white"/>
<path d="M72.8724 159.039L72.585 153.583L73.686 153.524L73.974 158.98L72.8724 159.039Z" fill="white"/>
<path d="M84.1407 153.55C84.126 142.683 88.5253 132.074 96.2093 124.443L96.7933 125.031C89.264 132.506 84.9547 142.902 84.9693 153.55H84.1407Z" fill="white"/>
<path d="M73.686 153.583L72.585 153.524L72.8724 148.068L73.974 148.127L73.686 153.583Z" fill="white"/>
<path d="M75.9401 138.467L74.8906 138.123C75.9932 134.753 77.3202 131.589 78.8349 128.721L79.8114 129.237C78.3254 132.049 77.0234 135.155 75.9401 138.467Z" fill="white"/>
<path d="M85.2022 121.08L84.3516 120.377C85.1116 119.454 85.9289 118.565 86.7209 117.704C87.1516 117.234 87.5836 116.765 88.0062 116.289L88.8316 117.024C88.4036 117.504 87.9689 117.977 87.5329 118.45C86.7516 119.301 85.9449 120.18 85.2022 121.08Z" fill="white"/>
<path d="M80.6343 108.869L80.0479 108.283C85.9267 102.404 93.1066 97.6108 100.808 94.4201C108.473 91.2388 116.947 89.5495 125.313 89.5361L125.315 90.3641C117.056 90.3775 108.692 92.0441 101.127 95.1854C93.5226 98.3348 86.4359 103.067 80.6343 108.869Z" fill="white"/>
<path d="M96.7947 125.028L96.208 124.445C103.839 116.773 114.427 112.376 125.263 112.376H125.313V113.204H125.263C114.644 113.204 104.272 117.512 96.7947 125.028Z" fill="white"/>
<path d="M88.7864 117.069L88.0518 116.245C88.5278 115.823 88.9944 115.391 89.4638 114.961C90.3251 114.169 91.2171 113.351 92.1384 112.591L92.8424 113.441C91.9424 114.183 91.0624 114.992 90.2104 115.773C89.7384 116.208 89.2651 116.643 88.7864 117.069Z" fill="white"/>
<path d="M101.081 107.976L100.565 107.002C103.452 105.474 106.629 104.175 110.011 103.142L110.333 104.198C107.019 105.211 103.907 106.482 101.081 107.976Z" fill="white"/>
<path d="M119.888 102.214L119.831 101.111L125.287 100.823L125.344 101.926L119.888 102.214Z" fill="white"/>
<path d="M169.995 108.869C164.184 103.057 157.097 98.3268 149.503 95.1854C141.951 92.0441 133.585 90.3775 125.313 90.3641V89.5361C133.695 89.5495 142.168 91.2388 149.819 94.4201C157.513 97.6028 164.693 102.396 170.581 108.283L169.995 108.869Z" fill="white"/>
<path d="M153.848 125.028C146.359 117.512 135.979 113.204 125.364 113.204H125.313V112.376H125.364C136.197 112.376 146.791 116.772 154.433 124.444L153.848 125.028Z" fill="white"/>
<path d="M130.743 102.214L125.287 101.926L125.344 100.823L130.8 101.111L130.743 102.214Z" fill="white"/>
<path d="M149.632 108.05C146.813 106.562 143.708 105.261 140.401 104.178L140.745 103.129C144.111 104.23 147.275 105.558 150.147 107.073L149.632 108.05Z" fill="white"/>
<path d="M161.845 117.069C161.361 116.639 160.882 116.2 160.406 115.761C159.56 114.983 158.685 114.18 157.789 113.441L158.492 112.591C159.409 113.347 160.296 114.161 161.152 114.948C161.626 115.383 162.098 115.817 162.58 116.244L161.845 117.069Z" fill="white"/>
<path d="M166.488 153.55L165.66 153.548C165.687 142.916 161.382 132.521 153.85 125.03L154.432 124.442C162.122 132.09 166.515 142.698 166.488 153.55Z" fill="white"/>
<path d="M165.426 121.08C164.689 120.184 163.884 119.308 163.105 118.462C162.668 117.984 162.23 117.507 161.8 117.024L162.625 116.291C163.05 116.77 163.484 117.243 163.918 117.715C164.706 118.572 165.522 119.459 166.278 120.378L165.426 121.08Z" fill="white"/>
<path d="M174.673 138.572C173.658 135.256 172.386 132.143 170.892 129.32L171.868 128.803C173.396 131.688 174.694 134.867 175.728 138.249L174.673 138.572Z" fill="white"/>
<path d="M176.944 153.583L176.656 148.127L177.758 148.068L178.046 153.524L176.944 153.583Z" fill="white"/>
<path d="M80.0475 198.816C74.1455 192.912 69.346 185.733 66.1715 178.055C64.536 174.099 63.2903 169.929 62.4642 165.657H29.1934V164.828H63.1507L63.2132 165.167C64.0283 169.5 65.2808 173.731 66.9371 177.739C70.0699 185.317 74.807 192.403 80.634 198.23L80.0475 198.816Z" fill="white"/>
<path d="M63.0611 142.817H29.1934V141.989H62.3668C63.1835 137.525 64.4622 133.176 66.1715 129.057C69.3434 121.385 74.1414 114.203 80.0475 108.284L80.634 108.869C74.8043 114.712 70.0674 121.803 66.9371 129.375C65.207 133.543 63.9231 137.951 63.1204 142.475L63.0611 142.817Z" fill="white"/>
<path d="M63.7091 154.379H59.1055V153.275H63.7091V154.379Z" fill="white"/>
<path d="M50.6679 154.379H40.5518V153.275H50.6679V154.379Z" fill="white"/>
<path d="M33.793 154.379H29.1895V153.275H33.793V154.379Z" fill="white"/>
<path d="M261.013 165.664H223.505V164.836H261.013V165.664Z" fill="white"/>
<path d="M261.013 142.818H223.505V141.99H261.013V142.818Z" fill="white"/>
<path d="M246.844 154.379H236.728V153.275H246.844V154.379Z" fill="white"/>
<path d="M228.508 154.379H223.505V153.275H228.508V154.379Z" fill="white"/>
<path d="M170.582 198.816L169.995 198.23C175.822 192.403 180.559 185.317 183.692 177.739C185.363 173.721 186.615 169.493 187.414 165.168L187.475 164.828H223.502V165.657H188.164C187.354 169.921 186.107 174.091 184.458 178.055C181.283 185.733 176.483 192.912 170.582 198.816Z" fill="white"/>
<path d="M223.502 142.817H187.567L187.507 142.473C186.73 138.005 185.446 133.599 183.692 129.375C180.562 121.803 175.824 114.712 169.995 108.869L170.582 108.284C176.487 114.203 181.286 121.385 184.458 129.057C186.19 133.229 187.468 137.579 188.262 141.989H223.502V142.817Z" fill="white"/>
<path d="M223.506 154.379H218.503V153.275H223.506V154.379Z" fill="white"/>
<path d="M209.335 154.379H199.219V153.275H209.335V154.379Z" fill="white"/>
<path d="M191 154.379H185.997V153.275H191V154.379Z" fill="white"/>
</g>
<g clip-path="url(#clip1_16480_211606)">
<path d="M108 240.376V218H139.215V240.376H108Z" fill="#100F0D"/>
<path d="M135.715 240.376H134.887V218H135.715V240.376Z" fill="white"/>
<path d="M112.871 240.376H112.043V218H112.871V240.376Z" fill="white"/>
<path d="M124.432 220.985H123.328V218H124.432V220.985Z" fill="white"/>
<path d="M124.432 231.539H123.328V226.453H124.432V231.539Z" fill="white"/>
<path d="M124.432 240.377H123.328V237.393H124.432V240.377Z" fill="white"/>
<path d="M108 262.752V240.376H139.215V262.752H108Z" fill="#100F0D"/>
<path d="M135.715 262.752H134.887V240.376H135.715V262.752Z" fill="white"/>
<path d="M112.871 262.752H112.043V240.376H112.871V262.752Z" fill="white"/>
<path d="M124.432 243.361H123.328V240.376H124.432V243.361Z" fill="white"/>
<path d="M124.432 253.915H123.328V248.829H124.432V253.915Z" fill="white"/>
<path d="M124.432 262.752H123.328V259.769H124.432V262.752Z" fill="white"/>
<path d="M108 285.129V262.753H139.215V285.129H108Z" fill="#100F0D"/>
<path d="M135.715 285.129H134.887V262.753H135.715V285.129Z" fill="white"/>
<path d="M112.871 285.129H112.043V262.753H112.871V285.129Z" fill="white"/>
<path d="M124.432 265.738H123.328V262.753H124.432V265.738Z" fill="white"/>
<path d="M124.432 276.292H123.328V271.206H124.432V276.292Z" fill="white"/>
<path d="M124.432 285.129H123.328V282.145H124.432V285.129Z" fill="white"/>
<path d="M108 307.505V285.129H139.215V307.505H108Z" fill="#100F0D"/>
<path d="M135.715 307.505H134.887V285.129H135.715V307.505Z" fill="white"/>
<path d="M112.871 307.505H112.043V285.129H112.871V307.505Z" fill="white"/>
<path d="M124.432 288.113H123.328V285.129H124.432V288.113Z" fill="white"/>
<path d="M124.432 298.668H123.328V293.582H124.432V298.668Z" fill="white"/>
<path d="M124.432 307.506H123.328V304.521H124.432V307.506Z" fill="white"/>
</g>
<g clip-path="url(#clip2_16480_211606)">
<path d="M108 22.3763V0H139.215V22.3763H108Z" fill="#100F0D"/>
<path d="M135.715 22.3763H134.887V0H135.715V22.3763Z" fill="white"/>
<path d="M112.871 22.3763H112.043V0H112.871V22.3763Z" fill="white"/>
<path d="M124.432 2.98458H123.328V0H124.432V2.98458Z" fill="white"/>
<path d="M124.432 13.5394H123.328V8.45312H124.432V13.5394Z" fill="white"/>
<path d="M124.432 22.3765H123.328V19.3926H124.432V22.3765Z" fill="white"/>
<path d="M108 44.7523V22.376H139.215V44.7523H108Z" fill="#100F0D"/>
<path d="M135.715 44.7523H134.887V22.376H135.715V44.7523Z" fill="white"/>
<path d="M112.871 44.7523H112.043V22.376H112.871V44.7523Z" fill="white"/>
<path d="M124.432 25.3606H123.328V22.376H124.432V25.3606Z" fill="white"/>
<path d="M124.432 35.9154H123.328V30.8291H124.432V35.9154Z" fill="white"/>
<path d="M124.432 44.7525H123.328V41.7686H124.432V44.7525Z" fill="white"/>
<path d="M108 67.1294V44.7529H139.215V67.1294H108Z" fill="#100F0D"/>
<path d="M135.715 67.1294H134.887V44.7529H135.715V67.1294Z" fill="white"/>
<path d="M112.871 67.1294H112.043V44.7529H112.871V67.1294Z" fill="white"/>
<path d="M124.432 47.7382H123.328V44.7529H124.432V47.7382Z" fill="white"/>
<path d="M124.432 58.2923H123.328V53.2061H124.432V58.2923Z" fill="white"/>
<path d="M124.432 67.1286H123.328V64.1445H124.432V67.1286Z" fill="white"/>
<path d="M108 89.5052V67.1289H139.215V89.5052H108Z" fill="#100F0D"/>
<path d="M135.715 89.5052H134.887V67.1289H135.715V89.5052Z" fill="white"/>
<path d="M112.871 89.5052H112.043V67.1289H112.871V89.5052Z" fill="white"/>
<path d="M124.432 70.1135H123.328V67.1289H124.432V70.1135Z" fill="white"/>
<path d="M124.432 80.6683H123.328V75.582H124.432V80.6683Z" fill="white"/>
<path d="M124.432 89.5056H123.328V86.5215H124.432V89.5056Z" fill="white"/>
</g>
<defs>
<clipPath id="clip0_16480_211606">
<rect width="233" height="136" fill="white" transform="translate(29 86)"/>
</clipPath>
<clipPath id="clip1_16480_211606">
<rect width="32" height="90" fill="white" transform="translate(108 218)"/>
</clipPath>
<clipPath id="clip2_16480_211606">
<rect width="32" height="90" fill="white" transform="translate(108)"/>
</clipPath>
</defs>
</svg>
