<svg width="76" height="102" viewBox="0 0 76 102" fill="none" xmlns="http://www.w3.org/2000/svg">
<path fill-rule="evenodd" clip-rule="evenodd" d="M33.0026 0.000488281H41.0973L65.9132 98.4297H9.28125L33.0026 0.000488281Z" fill="#FC792D"/>
<path fill-rule="evenodd" clip-rule="evenodd" d="M36.8213 0.000480652L27.9052 85.039C27.8146 85.8619 28.0879 86.6671 28.6359 87.2765C29.1839 87.8843 29.9599 88.2349 30.7813 88.2349H63.3426L64.6199 93.3016H27.0386L26.5052 98.4297H9.28125L33.0026 0.000480652H36.8213Z" fill="#E05A03"/>
<path fill-rule="evenodd" clip-rule="evenodd" d="M43.4396 21.5756H35.9237L35.7103 20.6169C35.5436 19.7649 35.6036 19.6116 35.665 19.2169C35.9236 17.5436 37.0196 16.2956 39.149 16.1436C39.241 16.1436 39.3317 16.1436 39.4237 16.1436C41.0517 16.2649 42.4209 17.3902 42.8463 18.9729L43.4396 21.5756ZM48.841 45.1289H41.3396L38.8756 34.4023H46.3917L48.841 45.1289ZM51.793 57.9553L55.521 74.1756C56.2063 77.797 49.7396 80.8236 48.385 75.8184L44.277 57.9553H51.793Z" fill="#FDA876"/>
<path fill-rule="evenodd" clip-rule="evenodd" d="M75.1947 99.7984C75.1947 97.348 74.2213 95.0052 72.5013 93.2866C70.7827 91.5667 68.44 90.5932 66.0054 90.5932C51.5347 90.5932 23.66 90.5932 9.20534 90.5932C6.756 90.5932 4.42803 91.5667 2.69336 93.2866C0.973359 95.0052 0 97.348 0 99.7984C0 100.879 0 101.609 0 101.609H75.1947C75.1947 101.609 75.1947 100.879 75.1947 99.7984Z" fill="#FC792D"/>
<path fill-rule="evenodd" clip-rule="evenodd" d="M31.4053 90.5932L30.248 101.609H0C0 101.609 0 100.879 0 99.7984C0 97.348 0.973359 95.0052 2.69336 93.2866C4.42803 91.5667 6.756 90.5932 9.20534 90.5932H31.4053Z" fill="#E05A03"/>
<path fill-rule="evenodd" clip-rule="evenodd" d="M30.3853 90.5932L29.6854 91.2626C28.5133 92.3735 26.9627 92.9975 25.3493 92.9975C20.2827 92.9975 9.34268 92.9975 9.34268 92.9975C9.34268 92.9975 3.88002 92.2052 3.42402 101.609H0C0 101.609 0 100.879 0 99.7984C0 97.348 0.973359 95.0052 2.69336 93.2866C4.42803 91.5667 6.756 90.5932 9.20534 90.5932H30.3853Z" fill="#CB4C03"/>
<path fill-rule="evenodd" clip-rule="evenodd" d="M38.876 34.402H24.7107L27.7987 21.5753H35.924L38.876 34.402ZM49.7707 34.402H46.392L43.44 21.5753H46.5293L49.7707 34.402ZM55.704 57.9551H51.7933L48.8414 45.1287H52.4787L55.704 57.9551ZM44.2774 57.9551H19.0347L22.124 45.1287H41.34L44.2774 57.9551Z" fill="#DEE9FA"/>
<path fill-rule="evenodd" clip-rule="evenodd" d="M32.0894 45.1287L30.7507 57.9551H19.0347L22.124 45.1287H32.0894ZM34.5547 21.5753L33.216 34.402H24.7107L27.7987 21.5753H34.5547Z" fill="#C5D8F6"/>
<path fill-rule="evenodd" clip-rule="evenodd" d="M46.3918 34.402H38.8758L35.9238 21.5753H43.4398L46.3918 34.402ZM51.7931 57.9551H44.2772L41.3398 45.1287H48.8412L51.7931 57.9551Z" fill="white"/>
<path fill-rule="evenodd" clip-rule="evenodd" d="M63.7534 92.6468C67.2988 92.2056 71.0414 94.0473 72.5934 97.5312C73.4454 99.4484 70.5387 101.548 69.4134 98.9468C68.4854 96.9228 66.2028 95.8269 64.0428 96.1165L63.9508 96.1312C61.7748 96.1921 59.5987 96.1312 57.4241 96.1312C57.4241 96.1312 56.0387 95.9031 55.7494 94.8681C55.4454 93.8192 56.1761 92.6774 57.4241 92.6468L63.6467 92.6629C63.6774 92.6468 63.7228 92.6468 63.7534 92.6468Z" fill="#FDA876"/>
</svg>
