<svg width="100" height="123" viewBox="0 0 100 123" fill="none" xmlns="http://www.w3.org/2000/svg">
<path d="M41.4207 62.903C41.3832 64.5417 39.5712 79.1938 38.5597 81.946C36.1353 88.5417 33.2416 89.2094 31.3572 92.0854C31.3572 92.0854 27.7239 100.555 28.0493 104.192C28.3103 107.109 31.6764 107.58 32.614 109.192C33.5515 110.803 30.7864 111.497 28.7493 111.632C25.6873 111.834 25.1572 109.828 24.6155 108.58C22.9744 104.801 24.3457 100.523 23.9968 95.9256C23.6477 91.3282 23.3483 91.1777 24.9051 89.3616C26.4619 87.5444 28.3389 84.9725 28.2572 81.946C28.1749 78.9188 26.3004 68.1737 19.9613 67.115C13.6223 66.0564 26.7124 56.8244 29.7493 56.5217C32.7868 56.2191 41.4207 62.903 41.4207 62.903Z" fill="#BC5B1B"/>
<path d="M24.2507 35.2861C26.6862 35.0928 32.7121 33.0648 37.6944 33.8222C42.6767 34.5781 49.8861 36.5195 53.1428 37.1515C55.8225 37.6715 59.3439 34.5115 60.5799 33.4861C61.8152 32.4595 64.3721 20.0501 63.5575 15.9648C62.7423 11.8781 65.2455 3.99148 70.1055 3.13414C74.3242 2.38881 80.3108 1.3408 84.3455 3.76213C88.3801 6.18346 88.9108 13.6941 88.6935 16.5701C88.4761 19.4448 86.6642 38.9675 87.2015 41.9941C87.7375 45.0208 91.9042 61.5155 89.9055 69.3849C87.9068 77.2541 87.8441 79.9781 88.2641 81.4927C88.6841 83.0047 86.0415 92.5396 85.9921 94.6583C85.9441 96.7765 84.4015 111.154 84.8068 113.273C85.2135 115.392 85.4788 119.069 82.4388 119.523C79.3975 119.977 76.8162 119.546 76.3055 117.231C75.7922 114.904 77.4068 115.375 77.6815 106.917C77.6815 106.917 78.7175 88.15 79.0975 84.8208C79.4762 81.4927 80.1908 76.8011 78.5242 76.8011C76.8575 76.8011 69.9735 79.6765 67.7188 78.9192C65.4628 78.162 64.3236 94.8099 64.5748 97.0797C64.8255 99.35 65.4788 117.055 66.3841 117.207C67.2908 117.358 69.3975 117.992 68.7548 119.566C68.1122 121.142 66.1121 122.504 63.8532 121.898C61.5944 121.293 58.4371 120.234 58.4819 118.266C58.5272 116.299 55.8928 82.1369 54.7428 79.4131C53.5933 76.6875 51.5589 76.6489 46.0887 70.7473C40.6184 64.8448 35.8627 60.8101 30.8147 62.9035C25.7674 64.9968 19.0403 74.2287 17.7345 78.314C16.4288 82.4011 8.06895 96.7765 7.38975 99.9541C6.71055 103.133 5.56001 107.068 7.16415 109.792C8.76841 112.516 9.19135 113.878 7.67308 114.029C6.15428 114.181 2.78975 115.542 1.32668 113.273C-0.00145268 111.211 -0.188381 108.402 0.164685 106.317C0.200685 106.105 0.242281 105.901 0.288147 105.706C0.288147 105.706 1.48082 99.9541 1.54708 97.0797C1.61322 94.2047 4.63295 94.6583 5.03655 90.2703C5.03655 90.2703 6.95749 67.2728 7.37362 61.0595C8.18402 48.9688 18.145 40.6315 18.1866 38.8155C18.2283 36.9995 14.0793 27.0635 12.9433 20.6355C12.2752 16.8515 13.7261 14.0848 14.5897 16.0515C15.4537 18.0195 21.8152 35.4808 24.2507 35.2861Z" fill="#E29040"/>
<path d="M4.04928 104.566C4.83674 103.093 5.15968 101.436 5.61968 99.8358C6.31128 97.4315 7.32634 95.1279 8.33781 92.8331C9.25968 90.7424 10.1878 88.6399 11.4561 86.7331C12.6082 84.9998 14.0457 83.417 14.8191 81.4919C15.5233 79.7383 15.6295 77.8118 16.2353 76.0252C17.0009 73.7664 18.5217 71.8399 20.0143 69.9648C21.4451 68.1691 22.9129 66.3371 24.8421 65.0918C26.1514 64.2451 27.7285 63.7105 29.2503 63.7411C24.4706 66.8025 18.9097 74.6383 17.7347 78.3143C16.429 82.4014 8.06914 96.7768 7.38994 99.956C6.71074 103.133 5.56021 107.068 7.16434 109.792C8.76861 112.516 9.19154 113.878 7.67327 114.029C6.15447 114.181 2.78994 115.542 1.32687 113.273C0.380072 111.804 0.0154089 109.954 0.0107422 108.259C1.70501 107.501 3.17328 106.205 4.04928 104.566Z" fill="#BC5B1B"/>
<path d="M62.2897 60.0246C63.6512 59.4192 65.1161 60.3686 66.5494 60.6993C69.3081 61.3366 72.2054 59.6099 75.0121 60.0166C76.2961 60.2019 77.4828 60.8259 78.7761 60.9353C82.1628 61.2206 85.3041 57.9606 88.6308 58.6179C89.3121 62.0046 88.6374 65.5313 87.9641 68.9514C87.5974 70.8165 87.0814 72.9044 85.4468 73.8976C84.2681 74.6154 82.8014 74.5632 81.4961 74.9914C80.3788 75.3566 79.4268 76.0514 78.5028 76.8019C77.4121 76.8154 74.2054 77.9941 71.4521 78.6367C71.9388 76.8539 72.2814 75.0342 72.4761 73.2034C72.5774 72.2539 72.5734 71.143 71.8334 70.5618C71.1388 70.0181 70.1028 70.2061 69.2988 70.6113C68.4948 71.0165 67.7748 71.6096 66.9121 71.8591C65.2068 72.3523 63.3908 71.3154 62.4308 69.858C61.4714 68.4006 61.1761 66.6086 60.9028 64.8726C60.6225 63.0926 60.6209 60.7659 62.2897 60.0246Z" fill="#EFA748"/>
<path d="M84.8066 113.273C84.5253 111.798 85.1853 104.391 85.6293 99.3061C84.4533 99.9514 83.6679 101.355 83.4546 102.726C83.1826 104.461 83.5519 106.213 83.5506 107.962C83.5493 109.711 83.0506 111.655 81.5733 112.631C80.2533 113.503 78.6239 113.338 77.0706 112.902C76.5533 115.364 75.9666 115.697 76.3053 117.231C76.8159 119.546 79.3973 119.976 82.4386 119.523C85.4786 119.069 85.2133 115.391 84.8066 113.273Z" fill="#BC5B1B"/>
<path d="M68.7548 119.566C69.3974 117.992 67.2907 117.358 66.3841 117.207C65.7321 117.098 65.2107 107.883 64.8761 101.887C63.847 101.699 62.7012 101.818 61.9465 101.13C61.2012 100.452 61.2001 99.3021 61.0282 98.3011C60.6146 95.8953 58.8037 93.838 56.5063 93.0489C57.3657 102.042 58.1897 112.801 58.4189 116.774C58.7235 116.549 59.0151 116.309 59.2803 116.071C60.4361 115.04 62.2662 114.062 63.3465 115.123C62.9881 117.223 62.6303 119.323 62.273 121.423C62.8137 121.605 63.3558 121.765 63.8531 121.898C66.1121 122.504 68.1121 121.142 68.7548 119.566Z" fill="#BC5B1B"/>
<path d="M62.0228 29.6233C61.5092 31.6473 60.9764 33.1567 60.5801 33.486C59.3441 34.5113 55.8228 37.6713 53.143 37.1513C49.8864 36.5193 42.6769 34.578 37.6946 33.822C32.7124 33.0647 26.6864 35.0927 24.2509 35.286C21.8154 35.4807 15.454 18.0193 14.59 16.0513C13.7264 14.0847 12.2754 16.8513 12.9436 20.6353C13.152 21.814 13.4629 23.11 13.829 24.4527C14.8509 26.5753 16.0446 28.6273 17.302 30.5873C19.6577 34.2593 22.6316 38.0207 26.9264 38.9353C29.7665 39.5393 32.7337 38.7833 35.6509 38.7727C40.0124 38.7567 44.143 40.3967 48.3425 41.4767C50.8056 42.1113 53.4764 42.546 55.8843 41.6273C58.7405 40.538 60.6665 37.7007 61.4493 34.7553C61.8957 33.0767 62.0244 31.354 62.0228 29.6233Z" fill="#BC5B1B"/>
<path d="M85.1373 5.99572C84.9506 5.40105 84.7613 4.79439 84.7453 4.16506C84.728 3.53439 84.9066 2.86372 85.3533 2.42638C85.8626 1.92772 86.6906 1.83039 87.2746 2.20106C87.904 2.59972 88.172 3.40106 88.332 4.15573C88.956 7.08906 88.6 10.2624 87.3386 13.0117C86.604 10.6731 85.8706 8.33439 85.1373 5.99572Z" fill="#BC5B1B"/>
<path d="M67.9853 5.69102C68.1986 5.09502 68.416 4.48968 68.4613 3.85902C68.508 3.22835 68.36 2.55903 67.9333 2.12036C67.4466 1.6217 66.624 1.52435 66.0226 1.89502C65.3746 2.29502 65.0693 3.09503 64.8746 3.84969C64.1156 6.78302 64.326 9.95636 65.4626 12.707C66.3026 10.3684 67.144 8.02968 67.9853 5.69102Z" fill="#BC5B1B"/>
<path d="M62.7969 16.037C63.1546 17.853 63.7327 19.621 64.5839 21.2276C66.0079 23.921 68.1599 26.0983 70.5306 27.869C71.9133 28.9023 73.3959 29.8183 75.0226 30.3303C76.6479 30.8436 78.4359 30.9303 80.0613 30.3276C81.4719 29.8036 82.6879 28.7943 83.8013 27.7196C85.3373 26.2356 86.7493 24.5716 87.7573 22.645C89.9706 18.4156 90.0413 13.2516 88.8959 8.64629C88.3599 6.49429 87.4733 4.28495 85.7119 3.11162C84.4493 2.27162 82.7853 1.71429 81.2933 1.55163C77.8306 1.17429 74.4013 1.24096 71.0013 2.16496C67.5999 3.08762 64.3229 5.45163 63.0614 8.95296C62.2499 11.2063 62.3374 13.705 62.7969 16.037Z" fill="#BC5B1B"/>
<path d="M68.1604 9.96177C67.8524 10.1418 67.631 10.4458 67.427 10.7471C67.0164 11.3578 66.6324 12.0218 66.5497 12.7551C66.439 13.7444 66.9484 14.7645 67.783 15.2218C68.5204 15.6271 69.415 15.5978 70.2497 15.4524C71.083 15.3084 71.9097 15.0591 72.751 15.0565C73.1724 15.0551 73.6164 15.1124 73.9977 14.9151C74.427 14.6951 74.6737 14.1871 74.7057 13.6951C74.7364 13.2018 74.5844 12.7191 74.3897 12.2738C74.1564 11.7405 73.8564 11.2298 73.439 10.8378C72.9217 10.3511 72.2484 10.0711 71.5604 9.92711C70.8724 9.78311 70.1644 9.76578 69.459 9.74844C69.0177 9.73778 68.551 9.73377 68.1604 9.96177Z" fill="#EFA748"/>
<path d="M79.0321 14.6907C79.2921 14.9361 79.6775 14.9601 80.0321 14.9721C81.3695 15.0134 82.7081 15.0561 84.0455 15.0987C84.6215 15.1174 85.2442 15.1214 85.7228 14.7721C86.0108 14.5614 86.2135 14.2401 86.3481 13.9014C86.6055 13.2627 86.6455 12.5361 86.4601 11.8814C86.2655 11.1907 85.8295 10.5934 85.2855 10.1574C84.7415 9.72007 84.0935 9.43606 83.4228 9.26006C82.5308 9.02406 81.5668 8.97874 80.6828 9.28807C79.7975 9.59741 79.0055 10.2961 78.6975 11.2147C78.4268 12.0187 78.5428 12.8921 78.6641 13.7254C78.7161 14.0761 78.7828 14.4547 79.0321 14.6907Z" fill="#EFA748"/>
<path d="M71.0256 7.05704C72.003 6.81704 73.0416 7.39036 73.515 8.27702C73.6736 8.57302 73.439 9.3157 73.2683 9.33436C72.4643 9.42236 71.643 9.30903 70.899 9.00103C70.515 8.84236 70.1083 8.5717 70.0576 8.14104C69.9963 7.61037 70.5216 7.18104 71.0256 7.05704Z" fill="#EB7323"/>
<path d="M83.5696 8.66917C83.2096 9.23184 82.5803 9.58384 81.9403 9.63984C81.299 9.69584 80.6576 9.4745 80.1456 9.08517C80.115 8.32917 80.7283 7.63183 81.4376 7.44917C82.147 7.2665 82.9016 7.52117 83.4763 7.97184C83.5616 8.03851 83.647 8.1145 83.6803 8.21984C83.727 8.3705 83.655 8.5345 83.5696 8.66917Z" fill="#EB7323"/>
<path d="M82.4734 17.1623C80.4254 16.5583 78.3 16.2236 76.1614 16.1676C73.1227 16.0903 69.668 16.8236 67.9747 19.5023C66.9854 21.0703 66.84 22.8943 67.0827 24.7476C68.1267 25.9063 69.296 26.9463 70.5307 27.869C71.9134 28.9023 73.396 29.8183 75.0227 30.3303C76.648 30.8436 78.436 30.9303 80.0614 30.3276C81.472 29.8036 82.688 28.7943 83.8014 27.7196C84.344 27.1943 84.8627 26.637 85.3627 26.0623C85.4827 25.5423 85.604 25.021 85.7627 24.5103C86.1934 23.113 86.796 21.6396 86.4094 20.249C85.9294 18.5236 84.1307 17.6516 82.4734 17.1623Z" fill="#EFA748"/>
<path d="M83.8016 27.7196C84.0723 27.4583 84.3203 27.1703 84.579 26.8943C84.4896 26.937 84.4096 26.9996 84.3176 27.0356C83.587 27.3316 82.7536 27.405 82.0603 27.0463C81.327 26.6676 80.8456 25.8543 80.6176 24.993C80.3896 24.1316 80.383 23.2143 80.379 22.3103C78.7336 22.6223 77.0403 22.5516 75.439 22.1023C74.727 23.9716 73.487 25.7116 71.775 26.437C70.8243 26.841 69.7336 26.829 68.8003 26.4503C69.359 26.9503 69.9363 27.425 70.531 27.869C71.9136 28.9023 73.3963 29.8183 75.023 30.3303C76.6483 30.8436 78.4363 30.9303 80.0616 30.3276C81.4723 29.8036 82.6883 28.7943 83.8016 27.7196Z" fill="#BC5B1B"/>
<path d="M68.6188 3.747C67.9775 3.935 67.2815 1.63901 66.6748 2.10435C66.0668 2.56834 65.1615 10.1017 64.3762 13.903C63.7856 16.7617 63.6147 19.3777 62.3736 19.375C61.1319 19.3737 55.2824 12.3203 54.5928 11.1017C53.9028 9.88301 52.5168 7.763 56.2294 6.57633C60.6444 5.16433 61.4704 3.86567 66.1362 1.14967C68.0628 0.0270061 69.2602 3.55767 68.6188 3.747Z" fill="#E29040"/>
<path d="M56.2293 6.57669C60.4564 5.22469 61.396 3.97537 65.5628 1.48871C63.8507 3.46204 62.5761 5.84736 61.8829 8.39403C61.5939 9.45803 61.2747 10.714 60.2908 11.13C59.6709 11.3927 58.9523 11.2114 58.4064 10.8327C57.86 10.4527 57.4517 9.89937 57.0532 9.35537C56.4647 8.55271 55.8761 7.75003 55.2876 6.94736C55.5575 6.81536 55.8684 6.69136 56.2293 6.57669Z" fill="#BC5B1B"/>
<path d="M58.9077 16.3443C59.8534 16.679 60.9217 16.9137 61.8477 16.479C62.5665 16.1417 63.0867 15.443 63.4034 14.6923C63.7206 13.939 63.8602 13.1257 64.0186 12.3243C64.4363 10.2123 65.0003 8.12967 65.703 6.095C65.2697 8.63767 64.8057 11.8257 64.3763 13.903C63.7858 16.7617 63.6149 19.3777 62.3738 19.375C61.8211 19.375 60.3561 17.9763 58.8389 16.3177C58.8623 16.327 58.8847 16.3363 58.9077 16.3443Z" fill="#BC5B1B"/>
<path d="M84.5935 4.05231C85.2255 4.24031 86.0268 1.9443 86.6135 2.40963C87.1988 2.87497 87.7588 10.407 88.3695 14.2083C88.8295 17.0683 88.8802 19.6843 90.1215 19.6816C91.3628 19.679 97.5362 12.627 98.2815 11.407C99.0282 10.1883 100.511 8.06831 96.8522 6.88164C92.5028 5.47097 91.7361 4.17231 87.1948 1.45631C85.3201 0.333647 83.9601 3.86431 84.5935 4.05231Z" fill="#E29040"/>
<path d="M96.852 6.88009C92.688 5.52943 91.8053 4.28009 87.752 1.79209C89.3746 3.76675 90.54 6.15209 91.116 8.69876C91.356 9.76143 91.6173 11.0174 92.5826 11.4348C93.1893 11.6974 93.9173 11.5161 94.4799 11.1361C95.0439 10.7574 95.4773 10.2041 95.9013 9.66009C96.5266 8.85742 97.1519 8.05476 97.7773 7.25076C97.5133 7.1201 97.208 6.99609 96.852 6.88009Z" fill="#BC5B1B"/>
<path d="M93.7267 16.6496C92.7654 16.9856 91.6854 17.219 90.78 16.7856C90.076 16.4483 89.588 15.7496 89.3054 14.9976C89.024 14.2456 88.9214 13.4323 88.8 12.631C88.4787 10.519 88.0094 8.43497 87.4014 6.40031C87.7174 8.94297 88.036 12.1323 88.3694 14.2083C88.8294 17.0683 88.88 19.6843 90.1214 19.6816C90.6734 19.6803 92.2027 18.283 93.796 16.6243C93.772 16.6323 93.7494 16.6416 93.7267 16.6496Z" fill="#BC5B1B"/>
<path d="M78.7857 24.4368C77.467 24.7315 76.439 24.6155 75.5324 23.6061C74.6244 22.5968 73.931 21.1968 74.063 19.9928C74.2604 18.2008 80.487 18.5115 81.3644 19.4795C81.9297 21.9941 80.1057 24.1435 78.7857 24.4368Z" fill="#28231D"/>
<path d="M78.267 20.2052C76.9843 20.4972 75.4856 19.3092 74.147 19.7279C74.9083 18.2372 80.5336 18.5625 81.3643 19.4799C81.391 19.5945 81.407 19.7079 81.423 19.8225C80.275 19.4705 79.179 20.1572 78.267 20.2052Z" fill="#4F453B"/>
<path d="M80.864 20.6109C80.7547 20.2856 80.2667 20.0869 79.9587 20.1576C78.9173 20.3949 78.8 21.6083 78.632 22.5096C78.4453 23.5109 76.9467 24.4976 76.6453 21.8709C76.6053 21.5256 76.5693 21.1536 76.3867 20.8563C76.1627 20.4936 75.7253 20.1576 75.2827 20.3363C74.784 20.5363 74.7987 21.0203 75.0293 21.3976C75.3053 21.8483 75.8013 21.7003 76.184 21.4816C76.24 21.8989 76.3067 22.4323 76.3147 22.5029C76.34 22.7349 76.4547 23.1389 76.5867 23.3243C76.876 23.7283 77.16 23.9669 77.6507 24.0536C78.0573 24.1256 78.5453 23.7469 78.736 23.4016C78.9147 23.0763 79.0307 22.7576 79.1053 22.3909C79.1667 22.0629 79.244 21.7376 79.336 21.4163C79.376 21.3216 79.4173 21.2283 79.456 21.1336C79.4667 21.1203 79.472 21.1163 79.4813 21.1029C79.9227 22.0923 81.2613 21.7856 80.864 20.6109Z" fill="black"/>
<path d="M72.7173 12.9217C72.9493 12.5604 73.02 12.1417 73.0533 11.731C73.0866 11.3244 73.0706 10.8777 72.768 10.5737C72.4266 10.2324 71.8266 10.1564 71.312 10.259C69.4093 10.643 68.6 12.1764 68.5826 12.5617C68.5653 12.9457 68.6893 13.351 69.0093 13.6084C69.3146 13.855 69.752 13.9364 70.172 13.9537C71.1493 13.9937 72.2333 13.6737 72.7173 12.9217Z" fill="black"/>
<path d="M72.4079 12.7856C72.6013 12.4842 72.6613 12.1336 72.6893 11.7909C72.7159 11.4509 72.7039 11.0762 72.4506 10.8229C72.1639 10.5362 71.6626 10.4722 71.2319 10.5589C69.6399 10.8802 68.9626 12.1629 68.9479 12.4856C68.9346 12.8069 69.0373 13.1456 69.3053 13.3616C69.5613 13.5682 69.9279 13.6349 70.2786 13.6496C71.0959 13.6829 72.0026 13.4162 72.4079 12.7856Z" fill="#7A4D25"/>
<path d="M70.4564 13.332C70.1204 13.32 69.771 13.2667 69.527 13.1027C69.2697 12.932 69.1697 12.664 69.183 12.408C69.1924 12.2107 69.0657 12.364 69.0537 12.6187C69.0417 12.8747 69.1417 13.1427 69.3977 13.3134C69.643 13.4774 69.9923 13.5307 70.327 13.5427C70.9123 13.5627 71.5444 13.448 71.987 13.1787C72.1337 13.0894 72.2257 12.908 72.0537 13.004C71.6164 13.248 71.015 13.3507 70.4564 13.332Z" fill="white"/>
<path d="M71.0536 10.7095C70.875 10.7268 70.707 10.8055 70.5776 10.9175C70.3363 11.1255 70.239 11.4282 70.1896 11.7202C70.139 12.0108 70.1296 12.3148 70.2576 12.5842C70.3843 12.8522 70.675 13.0748 71.0096 13.0762C71.2923 13.0762 71.5576 12.9202 71.7176 12.7135C71.879 12.5082 71.9483 12.2588 71.983 12.0135C72.0243 11.7175 72.0163 11.4068 71.8643 11.1428C71.7136 10.8802 71.3923 10.6775 71.0536 10.7095Z" fill="black"/>
<path d="M71.6773 11.4058C71.684 11.3098 71.676 11.2084 71.6213 11.1258C71.5667 11.0444 71.452 10.9858 71.3453 11.0138C71.3213 11.1791 71.2986 11.3458 71.276 11.5111C71.2693 11.5604 71.2627 11.6138 71.2893 11.6564C71.3413 11.7378 71.4907 11.7324 71.5693 11.6671C71.648 11.6018 71.6706 11.5004 71.6773 11.4058Z" fill="white"/>
<path d="M80.7961 12.8878C80.5854 12.5358 80.5361 12.1264 80.5214 11.7278C80.5081 11.3318 80.5427 10.8958 80.8521 10.5998C81.2001 10.2664 81.7881 10.1918 82.2854 10.2931C84.1227 10.6664 84.8441 12.1611 84.8427 12.5371C84.8427 12.9118 84.7041 13.3051 84.3801 13.5571C84.0707 13.7984 83.6414 13.8771 83.2321 13.8931C82.2774 13.9331 81.2347 13.6211 80.7961 12.8878Z" fill="black"/>
<path d="M81.063 12.7719C80.883 12.4706 80.8403 12.1199 80.8283 11.7759C80.8163 11.4372 80.847 11.0626 81.111 10.8092C81.4097 10.5226 81.915 10.4586 82.3417 10.5452C83.9177 10.8652 84.5377 12.1492 84.5363 12.4706C84.5363 12.7932 84.4177 13.1319 84.139 13.3466C83.8737 13.5532 83.5057 13.6212 83.1537 13.6359C82.335 13.6692 81.4403 13.4026 81.063 12.7719Z" fill="#7A4D25"/>
<path d="M82.9909 13.3181C83.3255 13.3074 83.6775 13.2541 83.9309 13.0901C84.1949 12.9194 84.3069 12.6501 84.3069 12.3954C84.3055 12.1981 84.4242 12.3501 84.4255 12.6061C84.4255 12.8608 84.3135 13.1301 84.0495 13.3008C83.7975 13.4648 83.4455 13.5181 83.1095 13.5287C82.5242 13.5501 81.8962 13.4354 81.4669 13.1661C81.3242 13.0768 81.2415 12.8954 81.4069 12.9901C81.8335 13.2341 82.4309 13.3381 82.9909 13.3181Z" fill="white"/>
<path d="M82.5137 10.6952C82.691 10.7112 82.8563 10.7912 82.9803 10.9019C83.211 11.1112 83.295 11.4139 83.331 11.7045C83.3683 11.9952 83.363 12.3005 83.2243 12.5685C83.0843 12.8379 82.783 13.0605 82.4483 13.0605C82.1657 13.0619 81.9083 12.9045 81.7577 12.6992C81.6057 12.4939 81.547 12.2445 81.5243 11.9992C81.4963 11.7032 81.519 11.3912 81.683 11.1285C81.847 10.8645 82.1763 10.6632 82.5137 10.6952Z" fill="black"/>
<path d="M81.8573 11.3921C81.8546 11.2961 81.8666 11.1948 81.9266 11.1121C81.9853 11.0294 82.1026 10.9721 82.2079 10.9988C82.2226 11.1654 82.2386 11.3308 82.2533 11.4974C82.2586 11.5468 82.2626 11.5988 82.2333 11.6428C82.1773 11.7241 82.0293 11.7188 81.9533 11.6534C81.8786 11.5868 81.8599 11.4868 81.8573 11.3921Z" fill="white"/>
</svg>
