<svg width="36" height="79" viewBox="0 0 36 79" fill="none" xmlns="http://www.w3.org/2000/svg">
<path d="M30.644 6.37658C30.644 6.37658 32.2634 7.54558 29.5918 8.82709L30.9304 9.94238C30.9304 9.94238 31.9761 7.85757 33.508 8.66456C33.508 8.66456 33.2156 7.50181 31.9761 7.85757C31.9761 7.85757 32.4103 6.40017 30.644 6.37658Z" fill="#F46F3A"/>
<path d="M21.3106 37.7549H17.1577V35.7664H21.3106V37.7549Z" fill="#F9AC7F"/>
<path d="M21.3106 36.3554V35.7655H17.1577V36.9766C18.791 37.1076 20.1839 36.8271 21.3106 36.3554Z" fill="#E99076"/>
<path d="M17.0978 74.2822H14.1858L13.52 62.7205H17.7612L17.0978 74.2822Z" fill="#F2A586"/>
<path d="M17.0978 74.2822H14.1858L13.52 62.7205H17.7612L17.0978 74.2822Z" fill="#F7AC80"/>
<path d="M17.2019 72.4717H16.0679L16.5225 65.14C16.8885 65.1039 17.2616 65.0397 17.6341 64.9377L17.2019 72.4717Z" fill="#F29065"/>
<path d="M13.9588 72.4719L13.9599 74.4914C13.9599 74.4914 13.4013 76.0923 15.125 76.2597C15.125 76.2597 17.2902 76.6739 17.2166 74.4914L17.2862 72.4719H13.9588Z" fill="white"/>
<path d="M15.8954 73.0195H15.22C14.5056 73.0013 14.2505 73.5474 14.2505 73.5474C13.8734 73.6193 13.7447 73.9813 13.7447 73.9813L12.6936 76.2665C12.6936 76.2665 12.0145 78.4271 15.6598 78.2427C15.6598 78.2427 17.5798 78.2537 17.5119 76.1173L17.3264 73.9813C17.2968 73.721 17.3244 73.6849 16.9516 73.5863C16.7748 73.0195 15.8954 73.0195 15.8954 73.0195Z" fill="#316E9D"/>
<path d="M15.6798 77.5787C13.6078 77.6847 12.8863 77.0585 12.6559 76.4694C12.5928 77.005 12.7096 78.3917 15.6602 78.2428C15.6602 78.2428 17.522 78.249 17.5083 76.2015C17.1315 77.5824 15.6798 77.5787 15.6798 77.5787Z" fill="white"/>
<path d="M15.2266 76.3711C15.1547 76.3711 15.0789 76.3691 14.9987 76.3649C14.9987 76.3649 13.4694 76.3129 13.7522 75.5483L13.7632 75.5036C13.7834 75.5121 13.8056 75.5166 13.8286 75.5166C13.9209 75.5166 13.9954 75.4423 13.9954 75.3499C13.9954 75.2627 13.9283 75.1911 13.8431 75.1837L13.9258 74.8518C13.9437 74.8585 13.9633 74.8623 13.9837 74.8623C14.0761 74.8623 14.1505 74.7875 14.1505 74.6951C14.1505 74.6106 14.0877 74.5407 14.0059 74.5298L14.0724 74.2633C14.0957 74.2755 14.1224 74.2826 14.1505 74.2826C14.2429 74.2826 14.3173 74.2084 14.3173 74.1159C14.3173 74.0241 14.2429 73.949 14.1508 73.9487L14.2508 73.5478C14.2508 73.5478 14.2508 73.5476 14.2511 73.5469C14.2511 73.5469 14.2511 73.5469 14.2514 73.5467C14.2514 73.5467 14.2514 73.5463 14.2517 73.5461C14.2517 73.5458 14.2517 73.5458 14.252 73.5456V73.5452C14.2719 73.5049 14.5259 73.0199 15.1848 73.0199C15.1965 73.0199 15.2084 73.0201 15.2204 73.0205H15.8958C15.8958 73.0205 16.7752 73.0205 16.952 73.587L16.8747 73.9578C16.8576 73.9522 16.8394 73.9487 16.8204 73.9487C16.7281 73.9487 16.6533 74.0237 16.6533 74.1159C16.6533 74.2039 16.721 74.2753 16.8071 74.282L16.7556 74.5295C16.7491 74.5287 16.7426 74.5284 16.736 74.5284C16.6437 74.5284 16.5692 74.6028 16.5692 74.6951C16.5692 74.7707 16.619 74.8344 16.6877 74.8552L16.5985 75.2848C16.5888 75.2831 16.5792 75.2822 16.5692 75.2822C16.4769 75.2822 16.4021 75.3558 16.4021 75.4481C16.4021 75.5272 16.457 75.5931 16.5306 75.6104L16.4845 75.8312C16.4845 75.8312 16.4104 76.3711 15.2266 76.3711Z" fill="#245073"/>
<path d="M15.6798 77.5795C13.6078 77.6852 12.8863 77.0584 12.6559 76.4704C12.5928 77.0054 12.7096 78.3921 15.6602 78.2427C15.6602 78.2427 17.522 78.2489 17.5083 76.2014C17.1315 77.5823 15.6798 77.5795 15.6798 77.5795Z" fill="white"/>
<path d="M14.0721 74.2627C14.0192 74.2348 13.9834 74.1794 13.9834 74.1153C13.9834 74.0232 14.0581 73.9481 14.1502 73.9481H14.1505L14.0721 74.2627Z" fill="#245073"/>
<path d="M14.1504 74.2822C14.1223 74.2822 14.0956 74.2751 14.0723 74.2629L14.1507 73.9484C14.2428 73.9487 14.3172 74.0237 14.3172 74.1155C14.3172 74.2081 14.2428 74.2822 14.1504 74.2822Z" fill="#1B3C56"/>
<path d="M13.9257 74.8516C13.8621 74.828 13.8169 74.7669 13.8169 74.6949C13.8169 74.6026 13.8913 74.5282 13.9837 74.5282C13.9911 74.5282 13.9987 74.5288 14.0059 74.5296L13.9257 74.8516Z" fill="#245073"/>
<path d="M13.9837 74.8623C13.9633 74.8623 13.9437 74.8585 13.9258 74.8518L14.0059 74.5298C14.0877 74.5406 14.1505 74.6106 14.1505 74.6951C14.1505 74.7875 14.0761 74.8623 13.9837 74.8623Z" fill="#1B3C56"/>
<path d="M13.7631 75.5039C13.7034 75.4783 13.6616 75.4192 13.6616 75.3502C13.6616 75.2581 13.7363 75.1834 13.8284 75.1834C13.8332 75.1834 13.8381 75.1837 13.8429 75.1839L13.7631 75.5039Z" fill="#245073"/>
<path d="M13.8281 75.5166C13.805 75.5166 13.7829 75.5121 13.7627 75.5036L13.8425 75.1836C13.9278 75.1911 13.9949 75.2627 13.9949 75.3499C13.9949 75.4422 13.9204 75.5166 13.8281 75.5166Z" fill="#1B3C56"/>
<path d="M16.82 74.2822C16.8154 74.2822 16.8112 74.282 16.8066 74.2817L16.8743 73.9574C16.9399 73.9802 16.9868 74.0425 16.9868 74.1155C16.9868 74.2081 16.9121 74.2822 16.82 74.2822Z" fill="#245073"/>
<path d="M16.807 74.2822C16.721 74.2755 16.6533 74.2041 16.6533 74.1161C16.6533 74.0239 16.7281 73.9489 16.8204 73.9489C16.8394 73.9489 16.8576 73.9524 16.8747 73.958L16.807 74.2822Z" fill="#1B3C56"/>
<path d="M16.7358 74.8623C16.719 74.8623 16.7028 74.8597 16.6875 74.8552L16.7554 74.5295C16.8384 74.5392 16.9026 74.6097 16.9026 74.6951C16.9026 74.7875 16.8279 74.8623 16.7358 74.8623Z" fill="#245073"/>
<path d="M16.6873 74.8545C16.6186 74.8337 16.5688 74.77 16.5688 74.6944C16.5688 74.6021 16.6433 74.5277 16.7356 74.5277C16.7422 74.5277 16.7487 74.5279 16.7553 74.5288L16.6873 74.8545Z" fill="#1B3C56"/>
<path d="M16.5689 75.6143C16.5556 75.6143 16.5425 75.6128 16.5303 75.6097L16.5982 75.284C16.6763 75.2977 16.7357 75.3651 16.7357 75.4474C16.7357 75.5396 16.661 75.6143 16.5689 75.6143Z" fill="#245073"/>
<path d="M16.5303 75.6104C16.4567 75.593 16.4019 75.5271 16.4019 75.4481C16.4019 75.3557 16.4766 75.2821 16.5689 75.2821C16.5789 75.2821 16.5885 75.283 16.5982 75.2847L16.5303 75.6104Z" fill="#1B3C56"/>
<path d="M13.999 74.7949C13.9667 74.7949 13.9354 74.7793 13.9158 74.7503C13.8854 74.7043 13.897 74.6417 13.9431 74.611C14.7628 74.0612 16.653 74.0004 16.7326 73.9984L16.7357 73.9975C16.7905 73.9975 16.8349 74.0407 16.8366 74.0957C16.8377 74.151 16.7945 74.1973 16.7385 74.1988C16.7198 74.1995 14.8265 74.2602 14.055 74.7778L13.999 74.7949Z" fill="#BFBEBE"/>
<path d="M13.8265 75.4502C13.7938 75.4502 13.7625 75.4345 13.7429 75.4056C13.7125 75.3595 13.7242 75.2965 13.7702 75.2661C14.5889 74.7176 16.5421 74.5997 16.6245 74.5949C16.6785 74.5949 16.7277 74.6335 16.7305 74.6896C16.7345 74.7446 16.6913 74.7921 16.6364 74.7952C16.6168 74.7967 14.6556 74.9149 13.8822 75.4331L13.8265 75.4502Z" fill="#BFBEBE"/>
<path d="M14.1505 74.2158C14.1073 74.2158 14.0673 74.1874 14.0545 74.1439C14.0389 74.0911 14.0681 74.0351 14.1213 74.0195C15.4599 73.616 16.7928 74.0022 16.8488 74.0184C16.9017 74.0351 16.9321 74.0905 16.9165 74.1439C16.9008 74.1971 16.8468 74.2266 16.792 74.2115C16.7781 74.2078 15.4579 73.8266 14.179 74.2113L14.1505 74.2158Z" fill="white"/>
<path d="M16.6304 74.7949L16.5744 74.7778C15.803 74.2602 14.2188 74.1995 14.2032 74.1988C14.1472 74.1968 14.104 74.1507 14.106 74.095C14.108 74.0396 14.1521 73.9857 14.21 73.9984C14.2768 74.0004 15.8669 74.0612 16.6864 74.611C16.7324 74.6417 16.7452 74.7043 16.714 74.7503C16.6941 74.7793 16.6628 74.7949 16.6304 74.7949Z" fill="#E0E0E0"/>
<path d="M16.4577 75.4502L16.4017 75.4331C15.6283 74.914 14.0442 74.7961 14.0285 74.7952C13.9725 74.7918 13.9313 74.7433 13.9353 74.6881C13.9393 74.6322 13.9814 74.5929 14.0422 74.5949C14.1101 74.5997 15.6962 74.718 16.5137 75.2661C16.5597 75.2965 16.5725 75.3595 16.5413 75.4056C16.5214 75.4345 16.4901 75.4502 16.4577 75.4502Z" fill="#E0E0E0"/>
<path d="M13.9992 74.8053C13.956 74.8053 13.9168 74.7775 13.9032 74.7338C13.8872 74.6809 13.9176 74.6249 13.9708 74.6092C15.3086 74.2063 16.6415 74.5931 16.6975 74.6087C16.7515 74.6249 16.7819 74.6803 16.7663 74.7338C16.7506 74.7868 16.6955 74.8161 16.6404 74.8022C16.6279 74.7977 15.3077 74.4169 14.0287 74.8017L13.9992 74.8053Z" fill="white"/>
<path d="M16.496 75.4941L16.4656 75.4894C16.4528 75.4848 15.1395 75.0804 13.8537 75.4427C13.8009 75.4584 13.7449 75.4269 13.7301 75.3728C13.7145 75.3189 13.7457 75.264 13.7997 75.2493C15.1443 74.8702 16.4704 75.2797 16.5264 75.2972C16.5796 75.3143 16.6088 75.3706 16.5923 75.4234C16.5784 75.466 16.5392 75.4941 16.496 75.4941Z" fill="white"/>
<path d="M15.1458 73.2645L15.1174 73.2686L15.0799 73.2921C15.0713 73.3236 15.0821 73.4256 15.3322 73.7161C15.3245 73.5609 15.2881 73.3757 15.2134 73.297C15.1858 73.2682 15.1634 73.2645 15.1458 73.2645ZM15.9329 73.2299C15.8201 73.2299 15.6149 73.5325 15.5461 73.7408C15.9121 73.5052 15.9769 73.3637 15.9869 73.3097C15.9917 73.2813 15.9829 73.2697 15.982 73.2686C15.9516 73.2299 15.9388 73.2299 15.9329 73.2299ZM15.4038 74.0332C15.3774 74.0332 15.3518 74.0221 15.333 74.0008L15.2998 73.9656C15.0574 73.7039 14.8415 73.4345 14.8963 73.2396C14.9122 73.1861 14.9543 73.1154 15.0693 73.0841C15.1881 73.0537 15.2773 73.087 15.3509 73.166C15.4157 73.2332 15.4561 73.3285 15.4814 73.4265C15.5993 73.2234 15.7692 73.0394 15.9329 73.0394C15.9849 73.0394 16.0605 73.0574 16.1233 73.1429C16.1449 73.1571 16.1852 73.2254 16.1772 73.3172C16.1596 73.5223 15.9221 73.7525 15.451 74.0204L15.4038 74.0332Z" fill="white"/>
<path d="M15.016 77.2822C14.8972 77.2791 14.7705 77.2731 14.642 77.2623C14.384 77.2378 14.1118 77.1742 13.847 77.0861C13.7194 77.0356 13.5839 76.9813 13.4611 76.9139C13.3955 76.8753 13.3315 76.8241 13.2727 76.7764C13.2227 76.7103 13.1608 76.6576 13.1315 76.5812C13.0528 76.4383 13.048 76.276 13.0784 76.1411C13.098 76.0581 13.1216 76.0163 13.1443 75.9655C13.1667 75.9157 13.1892 75.8688 13.2099 75.8225C13.3799 75.4574 13.5199 75.2229 13.5199 75.2229C13.5199 75.2229 13.4858 75.4943 13.3915 75.8853C13.3799 75.9353 13.3679 75.9856 13.3551 76.0391C13.3435 76.0899 13.3227 76.1518 13.3247 76.1828C13.3199 76.2729 13.3395 76.3664 13.3904 76.4409C13.4074 76.4832 13.4543 76.5081 13.4807 76.5454L13.6134 76.6292C13.7242 76.6855 13.8382 76.7267 13.9609 76.7708C14.0806 76.8105 14.2022 76.854 14.3241 76.8846C14.4485 76.9085 14.5665 76.9545 14.6861 76.9704C14.806 76.9884 14.9208 77.0125 15.0308 77.0327C15.1416 77.0401 15.2467 77.0523 15.3448 77.0631C15.4505 77.0802 15.5468 77.0819 15.6315 77.0819C15.6437 77.0819 15.6556 77.0819 15.6673 77.0819C15.6786 77.0819 15.69 77.0819 15.7011 77.0819C15.7463 77.0819 15.7872 77.0824 15.8238 77.0861C15.9426 77.0935 16.0114 77.0986 16.0114 77.0986C16.0114 77.0986 15.9466 77.1177 15.8326 77.1526C15.7755 77.1688 15.7051 77.1868 15.6246 77.2083C15.5442 77.233 15.4507 77.2507 15.3487 77.2549C15.2456 77.2655 15.1336 77.2762 15.016 77.2822Z" fill="#649AC2"/>
<path d="M21.4037 74.2822H24.3148L24.9812 62.7205H20.7402L21.4037 74.2822Z" fill="#F2A586"/>
<path d="M21.4037 74.2822H24.3148L24.9812 62.7205H20.7402L21.4037 74.2822Z" fill="#F7AC80"/>
<path d="M22.4336 72.4717H21.2996L20.8677 64.9468C21.2405 65.0466 21.6133 65.1088 21.9787 65.1432L22.4336 72.4717Z" fill="#F29065"/>
<path d="M24.5607 72.4719H21.2324L21.3009 74.4914C21.2282 76.6739 23.3945 76.2597 23.3945 76.2597C25.1182 76.0923 24.5595 74.4914 24.5595 74.4914L24.5607 72.4719Z" fill="white"/>
<path d="M21.6314 73.5863C21.2586 73.6849 21.2862 73.721 21.2566 73.9813L21.0711 76.1173C21.0032 78.2537 22.9232 78.2427 22.9232 78.2427C26.5685 78.4271 25.8894 76.2665 25.8894 76.2665L24.8384 73.9813C24.8384 73.9813 24.7096 73.6193 24.3337 73.5474C24.3337 73.5474 24.0774 73.0013 23.363 73.0195H22.6876C22.6876 73.0195 21.8082 73.0195 21.6314 73.5863Z" fill="#316E9D"/>
<path d="M22.9038 77.5787C24.9767 77.6847 25.6973 77.0585 25.9288 76.4694C25.9916 77.005 25.8749 78.3917 22.9234 78.2428C22.9234 78.2428 21.0616 78.249 21.0753 76.2015C21.4529 77.5824 22.9038 77.5787 22.9038 77.5787Z" fill="white"/>
<path d="M23.3576 76.3711C22.1729 76.3709 22.0985 75.8312 22.0985 75.8312L22.0527 75.6104C22.1263 75.5931 22.1812 75.5272 22.1812 75.4481C22.1812 75.3558 22.1064 75.2822 22.0144 75.2822C22.0042 75.2822 21.9945 75.2831 21.9848 75.2848L21.8953 74.8552C21.9641 74.8344 22.0144 74.7707 22.0144 74.6951C22.0144 74.6028 21.9396 74.5284 21.8473 74.5284C21.8408 74.5284 21.8342 74.5287 21.8277 74.5295L21.776 74.282C21.8629 74.2755 21.9297 74.2039 21.9297 74.1159C21.9297 74.0237 21.8561 73.9487 21.7629 73.9487C21.7442 73.9487 21.7257 73.9522 21.7086 73.9581L21.6313 73.587C21.8081 73.0205 22.6875 73.0205 22.6875 73.0205H23.363C23.3749 73.0201 23.3868 73.0199 23.3985 73.0199C24.0588 73.0199 24.3134 73.5072 24.3325 73.5456C24.3325 73.5458 24.3325 73.5458 24.3328 73.5461C24.3328 73.5463 24.3328 73.5463 24.3328 73.5463V73.5467C24.333 73.5469 24.333 73.5469 24.3333 73.5472C24.3333 73.5476 24.3336 73.5478 24.3336 73.5478L24.4333 73.9487C24.4331 73.9487 24.4328 73.9487 24.4328 73.9487C24.3416 73.9487 24.2657 74.0237 24.2657 74.1159C24.2657 74.2084 24.3416 74.2826 24.4328 74.2826C24.4615 74.2826 24.4882 74.2755 24.5115 74.263L24.5777 74.5298C24.4964 74.5403 24.4328 74.6106 24.4328 74.6951C24.4328 74.7875 24.5081 74.8623 24.5996 74.8623C24.62 74.8623 24.6399 74.8585 24.6578 74.8518L24.7405 75.1837C24.6556 75.1908 24.5879 75.2623 24.5879 75.3499C24.5879 75.4423 24.6632 75.5166 24.7547 75.5166C24.778 75.5166 24.8002 75.5121 24.8201 75.5036L24.8312 75.5483C25.1139 76.3129 23.5857 76.3649 23.5857 76.3649C23.5053 76.3691 23.4294 76.3711 23.3576 76.3711Z" fill="#245073"/>
<path d="M22.9038 77.5795C24.9767 77.6852 25.6973 77.0584 25.9288 76.4704C25.9916 77.0054 25.8749 78.3921 22.9234 78.2427C22.9234 78.2427 21.0616 78.2489 21.0753 76.2014C21.4529 77.5823 22.9038 77.5795 22.9038 77.5795Z" fill="white"/>
<path d="M24.5117 74.2627L24.4336 73.9484C24.5265 73.9487 24.5998 74.0237 24.5998 74.1155C24.5998 74.1797 24.5643 74.2348 24.5117 74.2627Z" fill="#245073"/>
<path d="M24.4327 74.2822C24.3415 74.2822 24.2656 74.2081 24.2656 74.1155C24.2656 74.0234 24.3415 73.9484 24.4327 73.9484C24.4327 73.9484 24.433 73.9484 24.4333 73.9484L24.5114 74.2627C24.4881 74.2751 24.4614 74.2822 24.4327 74.2822Z" fill="#1B3C56"/>
<path d="M24.6578 74.8516L24.5776 74.5296C24.5847 74.5285 24.5921 74.5282 24.5995 74.5282C24.6927 74.5282 24.7663 74.6026 24.7663 74.6949C24.7663 74.7669 24.7217 74.828 24.6578 74.8516Z" fill="#245073"/>
<path d="M24.5994 74.8623C24.5079 74.8623 24.4326 74.7875 24.4326 74.6951C24.4326 74.6106 24.4963 74.5403 24.5775 74.5298L24.6577 74.8518C24.6398 74.8585 24.6199 74.8623 24.5994 74.8623Z" fill="#1B3C56"/>
<path d="M24.8203 75.5039L24.7407 75.1839C24.7453 75.1837 24.7501 75.1834 24.7549 75.1834C24.8481 75.1834 24.9217 75.2581 24.9217 75.3502C24.9217 75.4192 24.8802 75.4786 24.8203 75.5039Z" fill="#245073"/>
<path d="M24.7547 75.5166C24.6632 75.5166 24.5879 75.4422 24.5879 75.3499C24.5879 75.2623 24.6555 75.1907 24.7405 75.1836L24.82 75.5036C24.8002 75.5121 24.778 75.5166 24.7547 75.5166Z" fill="#1B3C56"/>
<path d="M21.763 74.2822C21.6718 74.2822 21.5962 74.2081 21.5962 74.1155C21.5962 74.0425 21.6436 73.9805 21.7087 73.9578L21.7761 74.2817C21.7718 74.282 21.7675 74.2822 21.763 74.2822Z" fill="#245073"/>
<path d="M21.7758 74.2822L21.7085 73.9584C21.7255 73.9524 21.744 73.9489 21.7628 73.9489C21.856 73.9489 21.9296 74.0239 21.9296 74.1161C21.9296 74.2041 21.8628 74.2757 21.7758 74.2822Z" fill="#1B3C56"/>
<path d="M21.8475 74.8623C21.7551 74.8623 21.6807 74.7875 21.6807 74.6951C21.6807 74.6097 21.7449 74.5392 21.8279 74.5295L21.8955 74.8552C21.8804 74.8597 21.8642 74.8623 21.8475 74.8623Z" fill="#245073"/>
<path d="M21.8953 74.8545L21.8276 74.5288C21.8342 74.5279 21.8407 74.5277 21.8472 74.5277C21.9396 74.5277 22.0143 74.6021 22.0143 74.6944C22.0143 74.77 21.964 74.8337 21.8953 74.8545Z" fill="#1B3C56"/>
<path d="M22.0143 75.6143C21.9219 75.6143 21.8472 75.5396 21.8472 75.4474C21.8472 75.3651 21.9066 75.2977 21.9847 75.284L22.0526 75.6097C22.0401 75.6128 22.0273 75.6143 22.0143 75.6143Z" fill="#245073"/>
<path d="M22.0528 75.6104L21.9849 75.2847C21.9945 75.283 22.0042 75.2821 22.0144 75.2821C22.1065 75.2821 22.1812 75.3557 22.1812 75.4481C22.1812 75.5271 22.1264 75.593 22.0528 75.6104Z" fill="#1B3C56"/>
<path d="M24.5838 74.7949C24.6162 74.7949 24.6475 74.7793 24.6671 74.7503C24.6975 74.7043 24.6858 74.6417 24.6395 74.611C23.8203 74.0612 21.9296 74.0004 21.8503 73.9984L21.8472 73.9975C21.7932 73.9975 21.7483 74.0407 21.7471 74.0957C21.7451 74.151 21.7883 74.1973 21.8443 74.1988C21.8631 74.1995 23.7564 74.2602 24.5278 74.7778L24.5838 74.7949Z" fill="#BFBEBE"/>
<path d="M24.7562 75.4502C24.7889 75.4502 24.8202 75.4345 24.8398 75.4056C24.8702 75.3595 24.8585 75.2965 24.8125 75.2661C23.9939 74.7176 22.0406 74.5997 21.9582 74.5949C21.9051 74.5949 21.8551 74.6335 21.8522 74.6896C21.8491 74.7446 21.8911 74.7921 21.9463 74.7952C21.9659 74.7967 23.9279 74.9149 24.7005 75.4331L24.7562 75.4502Z" fill="#BFBEBE"/>
<path d="M24.4328 74.2158C24.476 74.2158 24.516 74.1874 24.5288 74.1439C24.5456 74.0911 24.5152 74.0351 24.462 74.0195C23.1243 73.616 21.7905 74.0022 21.7345 74.0184C21.6816 74.0351 21.6512 74.0905 21.6666 74.1439C21.6825 74.1971 21.7373 74.2266 21.7913 74.2115C21.8052 74.2078 23.1254 73.8266 24.4044 74.2113L24.4328 74.2158Z" fill="white"/>
<path d="M21.9524 74.7949L22.0084 74.7778C22.7798 74.2602 24.364 74.1995 24.3796 74.1988C24.4356 74.1968 24.4787 74.1507 24.4768 74.095C24.4748 74.0396 24.4307 73.9857 24.3728 73.9984C24.306 74.0004 22.7159 74.0612 21.8964 74.611C21.8504 74.6417 21.8384 74.7043 21.8688 74.7503C21.8884 74.7793 21.92 74.7949 21.9524 74.7949Z" fill="#E0E0E0"/>
<path d="M22.1253 75.4502L22.1813 75.4331C22.9547 74.914 24.5389 74.7961 24.5545 74.7952C24.6105 74.7918 24.6517 74.7433 24.6477 74.6881C24.6437 74.6322 24.6025 74.5929 24.5409 74.5949C24.4729 74.5997 22.8868 74.718 22.0693 75.2661C22.023 75.2965 22.0114 75.3595 22.0418 75.4056C22.0614 75.4345 22.0929 75.4502 22.1253 75.4502Z" fill="#E0E0E0"/>
<path d="M24.5841 74.8053C24.627 74.8053 24.6674 74.7775 24.6802 74.7338C24.6961 74.6809 24.6665 74.6249 24.6125 74.6092C23.2747 74.2063 21.9418 74.5931 21.8858 74.6087C21.8327 74.6249 21.8023 74.6803 21.8182 74.7338C21.8338 74.7868 21.8878 74.8161 21.9427 74.8022C21.9554 74.7977 23.2756 74.4169 24.5546 74.8017L24.5841 74.8053Z" fill="white"/>
<path d="M22.0871 75.4941L22.1175 75.4894C22.1303 75.4848 23.4436 75.0804 24.7294 75.4427C24.7823 75.4584 24.8385 75.4269 24.853 75.3728C24.8686 75.3189 24.8374 75.264 24.7842 75.2493C23.4388 74.8702 22.1127 75.2797 22.0567 75.2972C22.0036 75.3143 21.9743 75.3706 21.9911 75.4234C22.0047 75.466 22.045 75.4941 22.0871 75.4941Z" fill="white"/>
<path d="M23.3705 73.297C23.2961 73.3757 23.2597 73.5609 23.2509 73.7161C23.5021 73.4256 23.512 73.3236 23.5029 73.2921L23.4668 73.2686L23.4373 73.2645C23.4205 73.2645 23.3969 73.2682 23.3705 73.297ZM22.6019 73.2686C22.601 73.2697 22.5922 73.2813 22.597 73.3097C22.6061 73.3637 22.6709 73.5052 23.0369 73.7408C22.9681 73.5325 22.763 73.2299 22.6502 73.2299C22.6453 73.2299 22.6326 73.2299 22.6019 73.2686ZM23.1321 74.0204C22.661 73.7525 22.4234 73.5223 22.4058 73.3172C22.3979 73.2254 22.4382 73.1571 22.4595 73.1429C22.5226 73.0574 22.5982 73.0394 22.6502 73.0394C22.8141 73.0394 22.9849 73.2234 23.1017 73.4265C23.1273 73.3285 23.1685 73.2332 23.2321 73.166C23.3057 73.087 23.3949 73.0537 23.5137 73.0841C23.6288 73.1154 23.6708 73.1861 23.6868 73.2396C23.7424 73.4345 23.5256 73.7039 23.2833 73.9656L23.2497 74.0008C23.2313 74.0221 23.2057 74.0332 23.1793 74.0332L23.1321 74.0204Z" fill="white"/>
<path d="M23.5683 77.2822C23.4495 77.2762 23.3376 77.2655 23.2353 77.2549C23.1324 77.2507 23.0401 77.233 22.9585 77.2083C22.8781 77.1868 22.8085 77.1688 22.7505 77.1526C22.6366 77.1177 22.5718 77.0986 22.5718 77.0986C22.5718 77.0986 22.6405 77.0935 22.7593 77.0861C22.7963 77.0824 22.8375 77.0819 22.8826 77.0819C22.8937 77.0819 22.9051 77.0819 22.9167 77.0819C22.9284 77.0819 22.9403 77.0819 22.9523 77.0819C23.0372 77.0819 23.133 77.0802 23.2384 77.0631C23.3376 77.0523 23.4416 77.0401 23.5524 77.0327C23.6623 77.0125 23.7771 76.9884 23.8971 76.9704C24.0167 76.9545 24.1343 76.9085 24.2591 76.8846C24.381 76.854 24.5026 76.8105 24.6222 76.7708C24.745 76.7267 24.8589 76.6855 24.9697 76.6292L25.1021 76.5454C25.1288 76.5081 25.1769 76.4832 25.1925 76.4409C25.2445 76.3664 25.2644 76.2729 25.2584 76.1828C25.2613 76.1518 25.2408 76.0899 25.228 76.0391C25.2152 75.9856 25.2033 75.9353 25.1916 75.8853C25.0973 75.4943 25.0632 75.2229 25.0632 75.2229C25.0632 75.2229 25.2033 75.4574 25.3732 75.8225C25.394 75.8688 25.4164 75.9157 25.4389 75.9655C25.4616 76.0163 25.486 76.0581 25.5048 76.1411C25.5352 76.276 25.5304 76.4383 25.4516 76.5812C25.4224 76.6576 25.3604 76.7103 25.3113 76.7764C25.2516 76.8241 25.1877 76.8753 25.122 76.9139C24.9993 76.9813 24.8637 77.0356 24.7373 77.0861C24.4713 77.1742 24.1991 77.2378 23.9411 77.2623C23.8127 77.2731 23.6871 77.2791 23.5683 77.2822Z" fill="#649AC2"/>
<path d="M19.8666 60.681V64.5813C22.6904 65.9211 25.9786 64.5813 25.9786 64.5813V53.2892H12.4897V64.5813C12.4897 64.5813 15.7776 65.9211 18.6015 64.5813V60.681H19.8666Z" fill="#458BC5"/>
<path d="M18.0244 64.8252C18.0247 64.8224 18.025 64.8198 18.0253 64.817C18.2188 64.7499 18.4111 64.6718 18.6015 64.5814V60.6812H19.8666V60.6911H18.6015V64.5916C18.4111 64.6814 18.2188 64.7581 18.0244 64.8252ZM20.4263 64.8218C20.1436 64.7385 20.1445 64.7232 19.8666 64.5916V64.5814C20.0515 64.6689 20.2382 64.7453 20.4261 64.811C20.4261 64.8147 20.4261 64.8184 20.4263 64.8218Z" fill="#D2BFB8"/>
<path d="M18.0254 64.8164C18.2019 62.9132 17.7586 60.5047 16.3657 59.4164C16.3657 59.4164 17.5185 59.9745 19.2845 59.9748C20.1676 59.9748 21.2039 59.8353 22.3266 59.4164C21.2125 60.9298 20.3251 61.0116 20.4262 64.8104C20.2384 64.7448 20.0517 64.6684 19.8667 64.5808V60.6905V60.6806H18.6017V64.5808C18.4113 64.6712 18.2189 64.7493 18.0254 64.8164Z" fill="#3972A2"/>
<path d="M24.854 64.9258L24.8543 64.9195C25.5436 64.7584 25.9784 64.5814 25.9784 64.5814V57.4106V64.5916C25.9784 64.5916 25.5425 64.7667 24.854 64.9258Z" fill="#D2BFB8"/>
<path d="M24.3584 65.0273C24.3601 65.0251 24.3621 65.0231 24.3638 65.0211C24.5385 64.989 24.7028 64.9543 24.8548 64.9188L24.8545 64.9251C24.7011 64.9606 24.5351 64.9955 24.3584 65.0273Z" fill="#CC8D68"/>
<path d="M24.3633 65.0215C24.4303 64.9428 24.502 64.87 24.5659 64.7868C25.3609 63.7525 25.1325 62.3047 25.1617 61.0911C25.1995 59.5422 25.0975 58.1064 24.8685 56.6879C25.314 56.5817 25.6874 56.4762 25.9784 56.3864V56.6018C25.9741 56.6055 25.9699 56.6092 25.9656 56.6129C25.5337 56.9851 25.8304 57.3111 25.8304 57.3111C25.8716 57.3602 25.923 57.3926 25.9784 57.4102V64.5811C25.9784 64.5811 25.5436 64.7581 24.8543 64.9192C24.7023 64.9547 24.538 64.9894 24.3633 65.0215Z" fill="#3972A2"/>
<path d="M13.6477 64.9355C12.9396 64.7733 12.4897 64.5914 12.4897 64.5914V64.5812C12.4897 64.5812 12.9387 64.7642 13.6474 64.9273L13.6477 64.9355Z" fill="#D2BFB8"/>
<path d="M14.5383 65.0986C14.2121 65.054 13.912 64.9963 13.6477 64.9358L13.6475 64.9276C13.9069 64.9872 14.2013 65.0444 14.5212 65.0887C14.5266 65.0921 14.5326 65.0955 14.5383 65.0986Z" fill="#CC8D68"/>
<path d="M14.5211 65.0879C14.2012 65.0436 13.9068 64.9864 13.6474 64.9268C12.9387 64.7637 12.4897 64.5807 12.4897 64.5807V57.2633C12.5381 57.184 12.6085 57.0135 12.4897 56.8092V56.3861C12.773 56.4733 13.1342 56.5756 13.5644 56.679C13.3402 58.1285 13.3771 59.6524 13.3877 61.0606C13.3936 61.9219 13.0865 63.87 13.8187 64.5679C14.0233 64.7625 14.2626 64.9353 14.5211 65.0879Z" fill="#3972A2"/>
<path d="M11.1733 55.4804C11.1733 55.4804 9.68127 49.1546 13.8762 42.5714C13.8762 42.5714 13.4298 41.4865 12.4944 41.7568C12.4944 41.7568 6.82499 48.2181 9.63637 55.8338C9.63637 55.8338 10.5735 57.0929 11.1733 55.4804Z" fill="#F7AC80"/>
<path d="M9.78168 58.9973C9.06335 57.9738 8.98379 56.9647 8.98379 56.9647C8.98379 56.9647 8.84057 55.8941 9.35204 55.3894C9.35204 55.3894 10.1164 54.398 11.149 55.0223C11.4101 55.1803 11.5329 55.5102 11.6761 55.7645L11.7057 55.8165C11.8736 56.108 12.0628 56.3916 12.32 56.613C12.7528 56.9852 12.4555 57.3111 12.4555 57.3111C12.32 57.4717 12.0776 57.4555 11.9313 57.3179C11.7508 57.1474 11.5769 56.9676 11.3993 56.7931C11.0834 56.588 11.0834 56.8684 11.0834 56.8684C11.3422 57.6214 11.8372 58.4781 11.8372 58.4781C11.954 58.8109 11.7008 58.9416 11.7008 58.9416C11.7008 58.9416 11.4906 59.1683 11.0106 58.4463C11.0106 58.4463 10.5935 57.7783 10.4128 57.0687C10.4531 57.537 10.989 58.5665 10.989 58.5665C11.3385 58.9876 10.945 59.1595 10.945 59.1595C10.4611 59.2791 10.1352 58.3281 10.1352 58.3281C9.82402 57.4918 9.66404 57.158 9.66404 57.158L10.1695 58.5136C10.1695 58.5136 10.4239 58.9583 10.1951 59.0876C10.1951 59.0876 10.0184 59.2433 9.78168 58.9973Z" fill="#F7AC80"/>
<path d="M27.1131 55.4815C27.1131 55.4815 28.6041 49.1552 24.4092 42.5715C24.4092 42.5715 24.8559 41.4866 25.791 41.7579C25.791 41.7579 31.4604 48.2178 28.6504 55.8344C28.6504 55.8344 27.7119 57.0941 27.1131 55.4815Z" fill="#F7AC80"/>
<path d="M28.5044 58.9973C29.2218 57.9737 29.3023 56.9642 29.3023 56.9642C29.3023 56.9642 29.4455 55.8949 28.9351 55.3894C28.9351 55.3894 28.1705 54.3986 27.137 55.0223C26.8759 55.1803 26.7531 55.5113 26.6099 55.7645L26.5815 55.8165C26.4119 56.108 26.2232 56.3916 25.9661 56.6129C25.5341 56.9852 25.8308 57.3111 25.8308 57.3111C25.9661 57.4711 26.2076 57.4555 26.3548 57.3179C26.5355 57.1474 26.71 56.9673 26.887 56.7931C27.2038 56.5879 27.2038 56.8684 27.2038 56.8684C26.9447 57.6214 26.4488 58.4781 26.4488 58.4781C26.3312 58.8109 26.5863 58.9416 26.5863 58.9416C26.5863 58.9416 26.7955 59.1683 27.2754 58.446C27.2754 58.446 27.6925 57.7782 27.8721 57.0679C27.8329 57.5364 27.297 58.5665 27.297 58.5665C26.9475 58.9867 27.3413 59.1595 27.3413 59.1595C27.8261 59.2791 28.1509 58.3292 28.1509 58.3292C28.4632 57.4918 28.622 57.1577 28.622 57.1577L28.1156 58.5136C28.1156 58.5136 27.8625 58.9578 28.0921 59.0882C28.0921 59.0882 28.2677 59.2439 28.5044 58.9973Z" fill="#F7AC80"/>
<path d="M33.025 24.155C33.025 30.9107 26.8337 36.3877 19.1966 36.3877C11.5572 36.3877 5.3667 30.9107 5.3667 24.155C5.3667 17.3996 11.5572 11.9229 19.1966 11.9229C26.8337 11.9229 33.025 17.3996 33.025 24.155Z" fill="#F7AC80"/>
<path d="M3.62877 26.6062C3.69754 27.7127 4.471 28.5663 5.35726 28.5111C6.24353 28.4563 6.90616 27.5152 6.83739 26.4079C6.76863 25.3017 5.99631 24.4489 5.10891 24.5038C4.2235 24.5586 3.56115 25.5 3.62877 26.6062Z" fill="#F7AC80"/>
<path d="M4.41761 25.1253C4.5091 25.0605 4.69551 25.0313 4.80917 25.0293C5.39537 25.0176 5.81932 26.0173 5.22743 26.163C4.99585 26.3844 5.2118 26.6654 5.2118 26.6654C5.4002 26.9103 5.65423 27.2633 5.57779 27.594C5.53176 27.7912 5.32263 27.8884 5.13708 27.9287C4.98903 27.9597 4.9663 27.8344 5.08507 27.7804C5.17543 27.7392 5.25499 27.669 5.31665 27.5934L5.33627 27.5605L5.35103 27.5372C5.37263 27.4883 5.37463 27.4389 5.36468 27.392C5.22943 27.4872 5.00835 27.4991 4.91231 27.3624C4.80916 27.2138 4.90237 26.9913 4.87395 26.8245C4.8515 26.7092 4.80718 26.5972 4.75319 26.4907C4.50996 25.9925 4.99585 25.9351 4.99585 25.9351C5.06944 25.9403 5.12542 25.9488 5.17344 25.9579C5.42463 25.83 5.1706 25.4208 5.02426 25.3501C4.85548 25.2671 4.64152 25.2825 4.51081 25.4214C4.38038 25.5623 4.32042 25.7857 4.32241 25.9724C4.3244 26.2042 4.36674 26.4352 4.44914 26.6503C4.49518 26.7725 4.55599 26.9172 4.60429 27.0385C4.65828 27.1774 4.50996 27.2297 4.45483 27.0905C4.34117 26.7981 4.12323 26.3662 4.09169 25.967C4.0664 25.6359 4.13687 25.3237 4.41761 25.1253Z" fill="#E99076"/>
<path d="M34.7633 26.6062C34.6948 27.7127 33.9211 28.5663 33.0348 28.5111C32.1485 28.4563 31.4862 27.5152 31.5547 26.4079C31.6234 25.3017 32.396 24.4489 33.2832 24.5038C34.1686 24.5586 34.8312 25.5 34.7633 26.6062Z" fill="#F7AC80"/>
<path d="M33.9742 25.1253C33.8829 25.0605 33.6963 25.0313 33.5826 25.0293C32.9958 25.0176 32.5724 26.0173 33.1643 26.163C33.3962 26.3844 33.1802 26.6654 33.1802 26.6654C32.9916 26.9103 32.7375 27.2633 32.8151 27.594C32.8603 27.7912 33.0691 27.8884 33.2538 27.9287C33.403 27.9597 33.4255 27.8344 33.3067 27.7804C33.2163 27.7392 33.1371 27.669 33.0751 27.5934L33.0555 27.5605L33.0407 27.5372C33.0191 27.4883 33.0171 27.4389 33.0271 27.392C33.1623 27.4872 33.3834 27.4991 33.4795 27.3624C33.5826 27.2138 33.4883 26.9913 33.5178 26.8245C33.5405 26.7092 33.5846 26.5972 33.6386 26.4907C33.8829 25.9925 33.3962 25.9351 33.3962 25.9351C33.3215 25.9403 33.2666 25.9488 33.2194 25.9579C32.9671 25.83 33.2214 25.4208 33.3678 25.3501C33.5366 25.2671 33.7505 25.2825 33.881 25.4214C34.0117 25.5623 34.0713 25.7857 34.0705 25.9724C34.0676 26.2042 34.0253 26.4352 33.9437 26.6503C33.8966 26.7725 33.8358 26.9172 33.7877 27.0385C33.7338 27.1774 33.8829 27.2297 33.9378 27.0905C34.0506 26.7981 34.2688 26.3662 34.3001 25.967C34.3256 25.6359 34.256 25.3237 33.9742 25.1253Z" fill="#E99076"/>
<path d="M20.1898 28.54C20.0622 28.54 19.9582 28.436 19.9582 28.3085C19.9582 27.8882 19.6166 27.5458 19.1966 27.5458C18.7764 27.5458 18.4337 27.8882 18.4337 28.3085C18.4337 28.436 18.3308 28.54 18.2021 28.54C18.0745 28.54 17.9717 28.436 17.9717 28.3085C17.9717 27.6322 18.5201 27.0823 19.1966 27.0823C19.8718 27.0823 20.4213 27.6322 20.4213 28.3085C20.4213 28.436 20.3173 28.54 20.1898 28.54Z" fill="#EB8F73"/>
<path d="M11.6739 29.4668C10.5785 29.4668 9.69141 28.909 9.69141 28.2211C9.69141 27.5332 10.5785 26.9745 11.6739 26.9745C12.7693 26.9745 13.6576 27.5332 13.6576 28.2211C13.6576 28.909 12.7693 29.4668 11.6739 29.4668Z" fill="#F69280"/>
<path d="M26.7157 29.4668C25.6203 29.4668 24.7329 28.909 24.7329 28.2211C24.7329 27.5332 25.6203 26.9745 26.7157 26.9745C27.8103 26.9745 28.6994 27.5332 28.6994 28.2211C28.6994 28.909 27.8103 29.4668 26.7157 29.4668Z" fill="#F69280"/>
<path d="M27.9604 17.9585C30.2061 19.0701 31.227 19.735 31.978 22.4893C32.0417 22.7223 32.9259 24.5198 33.0192 24.5013C33.0192 24.5013 33.4923 24.4138 34.1089 24.8594C37.6119 12.4983 30.262 7.58191 30.262 7.58191C28.2119 6.27937 26.921 6.60614 26.921 6.60614C26.2581 3.77061 20.2443 3.66149 20.2443 3.66149C4.86442 4.03856 3.62382 15.3818 3.62382 15.3818C3.27631 19.1008 3.25954 20.5221 4.36687 24.7878C4.36687 24.7878 4.47655 24.5306 5.37276 24.517C5.35202 24.5175 5.8311 22.9377 5.84985 22.8413C6.54289 19.1176 9.69156 17.7082 9.69156 17.7082C9.69156 17.7082 21.8583 20.8176 25.0351 15.192C25.0351 15.192 25.0351 16.5108 27.9604 17.9585Z" fill="#F46F3A"/>
<path d="M11.6672 21.3669C12.0855 20.968 12.6066 20.789 13.1701 20.7103C13.4221 20.675 13.5557 20.3582 13.4949 20.1371C13.4213 19.8683 13.1738 19.7771 12.9226 19.8118C12.2011 19.9124 11.5377 20.203 11.0086 20.7085C10.5727 21.124 11.2333 21.7818 11.6672 21.3669Z" fill="#F46F3A"/>
<path d="M26.7243 21.3669C26.3063 20.968 25.7852 20.789 25.2217 20.7103C24.9703 20.675 24.8359 20.3582 24.897 20.1371C24.9703 19.8683 25.2186 19.7771 25.4701 19.8118C26.1904 19.9124 26.855 20.203 27.383 20.7085C27.8189 21.124 27.1594 21.7818 26.7243 21.3669Z" fill="#F46F3A"/>
<path d="M13.1601 27.1577C12.9362 27.1577 12.9362 27.5049 13.1601 27.5049C13.384 27.5049 13.384 27.1577 13.1601 27.1577Z" fill="#C97C66"/>
<path d="M11.5405 27.3119C11.3166 27.3119 11.3166 27.6592 11.5405 27.6592C11.7641 27.6592 11.7641 27.3119 11.5405 27.3119Z" fill="#C97C66"/>
<path d="M12.5439 28.0441C12.32 28.0441 12.32 28.3916 12.5439 28.3916C12.7675 28.3916 12.7675 28.0441 12.5439 28.0441Z" fill="#C97C66"/>
<path d="M14.0471 27.8513C13.8235 27.8513 13.8235 28.1982 14.0471 28.1982C14.271 28.1982 14.271 27.8513 14.0471 27.8513Z" fill="#C97C66"/>
<path d="M11.2312 28.2758C11.0076 28.2758 11.0076 28.623 11.2312 28.623C11.456 28.623 11.456 28.2758 11.2312 28.2758Z" fill="#C97C66"/>
<path d="M12.9677 29.0095C12.7438 29.0095 12.7438 29.3564 12.9677 29.3564C13.1914 29.3564 13.1914 29.0095 12.9677 29.0095Z" fill="#C97C66"/>
<path d="M26.2731 27.1577C26.0483 27.1577 26.0483 27.5049 26.2731 27.5049C26.497 27.5049 26.497 27.1577 26.2731 27.1577Z" fill="#C97C66"/>
<path d="M24.6526 27.3119C24.429 27.3119 24.429 27.6592 24.6526 27.6592C24.8765 27.6592 24.8765 27.3119 24.6526 27.3119Z" fill="#C97C66"/>
<path d="M25.6557 28.0441C25.4318 28.0441 25.4318 28.3916 25.6557 28.3916C25.8794 28.3916 25.8794 28.0441 25.6557 28.0441Z" fill="#C97C66"/>
<path d="M27.1596 27.8513C26.9357 27.8513 26.9357 28.1982 27.1596 28.1982C27.3833 28.1982 27.3833 27.8513 27.1596 27.8513Z" fill="#C97C66"/>
<path d="M24.3447 28.2758C24.1208 28.2758 24.1208 28.623 24.3447 28.623C24.5683 28.623 24.5683 28.2758 24.3447 28.2758Z" fill="#C97C66"/>
<path d="M26.0798 29.0095C25.8562 29.0095 25.8562 29.3564 26.0798 29.3564C26.3035 29.3564 26.3035 29.0095 26.0798 29.0095Z" fill="#C97C66"/>
<path d="M32.2013 19.7354C31.6978 16.9822 26 13.9432 26 13.9432C26.1389 13.929 26.2762 13.9222 26.4126 13.9222C28.6355 13.9222 30.4728 15.7328 30.4728 15.7328C29.9673 13.8912 27.7373 12.0363 27.7373 12.0363C34.0022 14.9562 33.1336 18.7056 33.1336 18.7056C32.9196 17.045 31.0667 16.3991 31.0667 16.3991C32.0629 18.1865 32.2013 19.7354 32.2013 19.7354Z" fill="#F57C47"/>
<path d="M17.6334 17.5127C16.282 17.5127 15.5364 16.9842 15.5364 16.9842C15.7441 17.0396 15.9464 17.0637 16.1416 17.0637C17.4669 17.0637 18.4555 15.9476 18.4555 15.9476C18.031 15.9982 17.6306 16.0184 17.2623 16.0184C15.868 16.0184 14.938 15.7302 14.938 15.7302C15.1181 15.7686 15.3077 15.7862 15.5052 15.7862C18.3089 15.7859 22.6507 12.1928 22.6507 12.1928C21.9693 14.5112 19.2971 15.6512 19.2971 15.6512C19.446 15.6694 19.5989 15.6777 19.7546 15.6777C21.5791 15.6777 23.7555 14.5237 23.7555 14.5237C21.1504 16.9276 19.0562 17.5127 17.6334 17.5127Z" fill="#F57C47"/>
<path d="M7.2117 16.1836C7.2117 16.1836 7.2296 14.6293 8.08233 12.769C8.08233 12.769 6.28622 13.5581 6.20297 15.2306C6.20297 15.2306 5.04364 11.561 11.0614 8.15977C11.0614 8.15977 8.98337 10.1826 8.62222 12.0583C8.62222 12.0583 10.4729 9.92406 12.8404 9.92406C12.874 9.92406 12.9072 9.92462 12.9407 9.92547C12.9407 9.92547 7.49841 13.3989 7.2117 16.1836Z" fill="#F57C47"/>
<path d="M30.1768 11.7598C30.1768 11.7598 26.3809 10.0705 23.5988 10.0705C22.912 10.0705 22.2874 10.1734 21.7964 10.4299C21.7964 10.4299 23.1021 9.58772 25.1249 9.27374C25.1249 9.27374 24.2838 8.73129 23.2785 8.73129C22.8759 8.73129 22.4471 8.81825 22.0351 9.06176C22.0351 9.06176 23.0756 7.77797 25.5244 7.77797C26.8128 7.77797 28.4907 8.13287 30.6124 9.21719C30.6124 9.21719 29.4952 8.97367 28.2273 8.97367C27.476 8.97367 26.6718 9.0592 26.016 9.33142C26.016 9.33142 28.8959 9.71048 30.1768 11.7598Z" fill="#F57C47"/>
<path d="M13.8831 8.13477C13.8831 8.13477 14.6262 7.21896 16.0111 6.51426C16.0111 6.51426 15.7304 6.44095 15.3448 6.44095C14.8566 6.44095 14.2002 6.55859 13.7319 7.0925C13.7319 7.0925 14.5204 5.02503 18.1408 5.02503C18.681 5.02503 19.2837 5.07078 19.9568 5.17648C19.9568 5.17648 17.7669 5.40011 16.6678 6.34604C16.6678 6.34604 17.0315 6.27756 17.5574 6.27756C18.3156 6.27756 19.4112 6.41964 20.2424 7.1141C20.2424 7.1141 19.474 7.03511 18.4548 7.03511C16.9062 7.03511 14.7776 7.21724 13.8831 8.13477Z" fill="#F57C47"/>
<path d="M19.1966 32.3779C17.9704 32.2918 17.0234 31.4397 17.0095 31.4289C16.9467 31.3823 16.9271 31.2831 16.9654 31.2075C17.0038 31.1311 17.0862 31.1086 17.1481 31.1552C17.1694 31.1703 19.1966 30.7844 21.2439 31.1552C21.3203 31.1689 21.3882 31.1311 21.4266 31.2075C21.4646 31.2831 21.445 31.3823 21.3831 31.4289C20.6588 31.9693 19.8441 32.3779 19.1966 32.3779Z" fill="#F37C74"/>
<path d="M19.1248 33.4268C18.5829 33.4268 18.2797 33.2503 18.2613 33.2395C18.1502 33.1736 18.1149 33.0304 18.1817 32.9204C18.2474 32.8099 18.3886 32.7741 18.4988 32.8389C18.5253 32.8536 19.0239 33.1236 19.9375 32.819C20.0594 32.778 20.1918 32.844 20.2321 32.9664C20.2733 33.0878 20.2074 33.2196 20.0849 33.2605C19.7119 33.385 19.3899 33.4268 19.1248 33.4268Z" fill="#F59679"/>
<path d="M15.562 24.9683C15.562 26.3222 14.4643 27.4199 13.1103 27.4199C11.7564 27.4199 10.6587 26.3222 10.6587 24.9683C10.6587 23.6143 11.7564 22.5166 13.1103 22.5166C14.4643 22.5166 15.562 23.6143 15.562 24.9683Z" fill="white"/>
<path d="M15.103 24.968C15.103 25.8864 14.396 26.6309 13.5239 26.6309C12.6516 26.6309 11.9443 25.8864 11.9443 24.968C11.9443 24.0496 12.6516 23.3052 13.5239 23.3052C14.396 23.3052 15.103 24.0496 15.103 24.968Z" fill="#94513A"/>
<path d="M13.1098 27.4198C13.1098 27.4198 13.0797 27.421 13.0229 27.4229C12.9661 27.4218 12.8839 27.4369 12.7774 27.4224C12.6697 27.4173 12.5407 27.3988 12.3941 27.3673C12.248 27.3329 12.0852 27.2812 11.9167 27.2005C11.7513 27.1152 11.5746 27.0123 11.4106 26.8723C11.2407 26.7387 11.0867 26.5668 10.9514 26.3724C10.817 26.1769 10.7093 25.9536 10.6318 25.7158C10.5585 25.4759 10.5238 25.2225 10.5161 24.9682C10.5226 24.7232 10.5582 24.4587 10.6315 24.2206C10.7085 23.9825 10.8167 23.7591 10.9509 23.5636C11.0864 23.3693 11.2401 23.1971 11.4101 23.0638C11.5743 22.9237 11.751 22.8208 11.9164 22.7356C12.0849 22.6549 12.2477 22.6029 12.3941 22.5688C12.541 22.5373 12.6694 22.5188 12.7762 22.514C12.8819 22.4995 12.9669 22.5145 13.0229 22.5134C13.0797 22.5154 13.1098 22.5165 13.1098 22.5165C13.1098 22.5165 13.0797 22.5208 13.0235 22.5287C12.9678 22.5387 12.8854 22.5427 12.7839 22.5688C12.6811 22.5873 12.5597 22.6217 12.4242 22.6702C12.2898 22.722 12.1446 22.7919 11.992 22.8765C11.844 22.9692 11.6882 23.0772 11.5481 23.2184C11.4021 23.3528 11.2785 23.5224 11.1609 23.7003C11.0446 23.881 10.9634 24.0879 10.8943 24.2999C10.8318 24.5161 10.8054 24.7318 10.8003 24.9682C10.8042 25.1949 10.8318 25.4214 10.8943 25.6365C10.9628 25.8488 11.0446 26.0553 11.1606 26.2363C11.2782 26.4139 11.4015 26.5838 11.5479 26.7182C11.688 26.8595 11.8437 26.9674 11.992 27.0598C12.1443 27.1448 12.2895 27.2147 12.4242 27.2664C12.56 27.315 12.6805 27.3494 12.7828 27.3678C12.8837 27.3937 12.9683 27.3977 13.0237 27.4076C13.08 27.4156 13.1098 27.4198 13.1098 27.4198Z" fill="#EB8F73"/>
<path d="M22.8301 24.9683C22.8301 26.3222 23.9275 27.4199 25.2817 27.4199C26.6357 27.4199 27.7334 26.3222 27.7334 24.9683C27.7334 23.6143 26.6357 22.5166 25.2817 22.5166C23.9275 22.5166 22.8301 23.6143 22.8301 24.9683Z" fill="white"/>
<path d="M23.2886 24.968C23.2886 25.8864 23.9958 26.6309 24.8676 26.6309C25.7402 26.6309 26.4475 25.8864 26.4475 24.968C26.4475 24.0496 25.7402 23.3052 24.8676 23.3052C23.9958 23.3052 23.2886 24.0496 23.2886 24.968Z" fill="#94513A"/>
<path d="M25.2817 27.4198C25.2817 27.4198 25.3116 27.4156 25.3676 27.4076C25.423 27.3977 25.5076 27.3937 25.6085 27.3678C25.7108 27.3494 25.8316 27.315 25.9674 27.2664C26.1018 27.2147 26.2473 27.1448 26.3996 27.0598C26.5479 26.9674 26.7033 26.8595 26.8434 26.7182C26.9898 26.5838 27.1131 26.4139 27.231 26.2363C27.3469 26.0553 27.4288 25.8488 27.4973 25.6365C27.5598 25.4214 27.587 25.1949 27.5913 24.9682C27.5859 24.7318 27.5598 24.5161 27.497 24.2999C27.4282 24.0879 27.3469 23.881 27.2307 23.7003C27.1131 23.5224 26.9892 23.3528 26.8431 23.2184C26.7033 23.0772 26.5476 22.9692 26.3996 22.8765C26.247 22.7919 26.1015 22.722 25.9671 22.6702C25.8318 22.6217 25.7102 22.5873 25.6077 22.5688C25.5059 22.5427 25.4235 22.5387 25.3678 22.5287C25.3116 22.5208 25.2817 22.5165 25.2817 22.5165C25.2817 22.5165 25.3119 22.5154 25.3684 22.5134C25.4247 22.5145 25.5093 22.4995 25.615 22.514C25.7219 22.5188 25.8503 22.5373 25.9975 22.5688C26.1436 22.6029 26.3067 22.6549 26.4749 22.7356C26.6403 22.8208 26.817 22.9237 26.9812 23.0638C27.1512 23.1971 27.3049 23.3693 27.4404 23.5636C27.5748 23.7591 27.6828 23.9825 27.7598 24.2206C27.8334 24.4587 27.8692 24.7232 27.8752 24.9682C27.8681 25.2225 27.8331 25.4759 27.7598 25.7158C27.6822 25.9536 27.5745 26.1769 27.4401 26.3724C27.3049 26.5668 27.1506 26.7387 26.981 26.8723C26.8167 27.0123 26.6403 27.1152 26.4749 27.2005C26.3064 27.2812 26.1433 27.3329 25.9975 27.3673C25.8506 27.3988 25.7216 27.4173 25.6139 27.4224C25.5076 27.4369 25.4252 27.4218 25.3684 27.4229C25.3119 27.421 25.2817 27.4198 25.2817 27.4198Z" fill="#EB8F73"/>
<path d="M25.84 39.4111C25.4464 38.1529 24.4658 37.9486 24.4658 37.9486L20.798 37.2243H19.2343H17.6698L14.0029 37.9486C14.0029 37.9486 13.0223 38.1529 12.6287 39.4111C12.3872 46.4947 12.1772 50.4413 11.7632 56.1371C11.7632 56.1371 14.8215 57.3808 19.2343 57.2637C23.6463 57.3808 26.7046 56.1371 26.7046 56.1371C26.535 53.1611 26.1923 46.6635 25.84 39.4111Z" fill="#F9AC7F"/>
<path d="M21.5703 37.3769L24.4658 37.9486C24.4658 37.9486 25.4464 38.1529 25.84 39.4111C26.1167 45.0265 26.2563 48.4252 26.7046 56.1371C26.7046 56.1371 23.6463 57.3808 19.2343 57.2637C14.8215 57.3808 11.7632 56.1371 11.7632 56.1371C12.1076 50.092 12.3176 46.7038 12.6287 39.4111C13.0223 38.1529 14.0029 37.9486 14.0029 37.9486L16.7728 37.4013C16.7728 37.4013 16.812 39.1812 19.1187 39.1344C19.1187 39.1344 21.3103 39.414 21.5703 37.3769Z" fill="white"/>
<path d="M16.7729 37.4015C16.7729 37.4015 16.8121 39.1814 19.1188 39.1345C19.1188 39.1345 21.3105 39.4141 21.5705 37.3771L22.1428 37.4893C22.1428 37.4893 22.1439 39.9168 19.1225 39.7753C19.1225 39.7753 16.3498 39.9952 16.1387 37.5268L16.7729 37.4015Z" fill="#F5A244"/>
<path d="M11.7749 55.9346C12.0014 51.9565 12.1702 49.1147 12.3497 45.4926C12.35 45.4923 12.35 45.4918 12.3503 45.4915C12.1704 49.1167 12.0017 51.9542 11.7749 55.9346Z" fill="#EDCDC5"/>
<path d="M12.3501 45.4922C12.3586 45.3189 12.3674 45.1435 12.376 44.9665H12.3765C12.3677 45.1433 12.3592 45.318 12.3507 45.491C12.3504 45.4913 12.3504 45.4919 12.3501 45.4922Z" fill="#E79971"/>
<path d="M11.7632 56.1377C11.7669 56.0698 11.7709 56.0019 11.7748 55.9348C11.7709 56.0022 11.7669 56.0698 11.7632 56.1377Z" fill="#E79971"/>
<path d="M26.2651 56.2949C26.5436 56.2026 26.6959 56.1412 26.7044 56.1378C26.7047 56.1375 26.7047 56.1375 26.7047 56.1375C26.7047 56.1375 26.5518 56.1997 26.2651 56.2949Z" fill="#E79971"/>
<path d="M18.6491 57.2715C18.8355 57.2715 19.0244 57.2689 19.2162 57.2641C19.0242 57.2689 18.8358 57.2715 18.6491 57.2715ZM19.8212 57.2715C23.8874 57.2712 26.667 56.1525 26.7047 56.1372C26.6962 56.1406 26.5439 56.2019 26.2654 56.2943C26.1813 56.3221 26.0856 56.3531 25.9787 56.3861C25.6878 56.4759 25.3144 56.5813 24.8688 56.6876C23.6564 56.9765 21.9086 57.2712 19.8212 57.2715ZM26.705 56.1369C26.682 55.7416 26.6598 55.3577 26.6385 54.9844C26.6647 55.4362 26.6695 55.5205 26.705 56.1369Z" fill="#E99A71"/>
<path d="M18.6487 57.2715C18.6484 57.2715 18.6479 57.2715 18.6476 57.2715C14.5808 57.2712 11.8013 56.1525 11.7635 56.1372C11.7632 56.1369 11.7632 56.1369 11.7632 56.1369C11.7669 56.069 11.7709 56.0013 11.7748 55.934C12.0016 51.9536 12.1704 49.1161 12.3502 45.4909C12.3588 45.3179 12.3673 45.1431 12.3761 44.9664H13.3158C13.1086 47.6831 13.0754 50.7798 13.3442 53.2641C13.6141 55.7501 16.4343 56.219 18.9559 56.219C19.5912 56.219 20.2078 56.1894 20.7597 56.1545C22.8209 56.0241 24.5335 55.7507 26.6271 54.7945C26.6313 54.8647 26.6347 54.9275 26.6382 54.9844C26.6595 55.3577 26.6816 55.7416 26.7046 56.1369C26.7046 56.1369 26.7046 56.1369 26.7044 56.1372C26.6666 56.1525 23.887 57.2712 19.8208 57.2715C19.8208 57.2715 19.8203 57.2715 19.82 57.2715H19.8197C19.6336 57.2715 19.4443 57.2689 19.2528 57.2641C19.2466 57.2641 19.2406 57.2638 19.2343 57.2635C19.2281 57.2638 19.2218 57.2641 19.2159 57.2641C19.0241 57.2689 18.8351 57.2715 18.6487 57.2715Z" fill="#EFE3E1"/>
<path d="M13.9362 37.9672C13.9362 37.9672 11.3391 38.0652 10.2909 41.3699L9.52734 43.3499C9.52734 43.3499 10.6776 45.4688 13.1923 45.3997C13.1923 45.3997 14.7577 40.6482 13.9362 37.9672Z" fill="white"/>
<path d="M13.9362 37.9672C13.9362 37.9672 11.3391 38.0652 10.2909 41.3699L9.52734 43.3499C9.52734 43.3499 10.6776 45.4688 13.1923 45.3997C13.1923 45.3997 14.7577 40.6482 13.9362 37.9672Z" fill="#F5A244"/>
<path d="M11.4414 43.6565C10.8955 42.7009 11.305 41.2906 11.665 40.3552C12.0801 39.2766 12.9292 38.5332 13.9393 38.0274L13.9501 38.0249L13.9362 37.9672C13.9362 37.9672 11.3391 38.0652 10.2909 41.3699L9.52734 43.3499C9.52734 43.3499 10.6776 45.4688 13.1923 45.3997C13.1923 45.3997 13.2582 45.1971 13.3543 44.8632C12.5652 44.7411 11.8633 44.3961 11.4414 43.6565Z" fill="#F28543"/>
<path d="M24.397 37.9672C24.397 37.9672 26.9942 38.0652 28.0424 41.3699L28.8062 43.3499C28.8062 43.3499 27.656 45.4688 25.1412 45.3997C25.1412 45.3997 23.5756 40.6482 24.397 37.9672Z" fill="#F5A244"/>
<path d="M26.8926 43.6565C27.4381 42.7009 27.0289 41.2906 26.6686 40.3552C26.2535 39.2766 25.4045 38.5332 24.3946 38.0274L24.3838 38.0249L24.3974 37.9672C24.3974 37.9672 26.9946 38.0652 28.0428 41.3699L28.8066 43.3499C28.8066 43.3499 27.6564 45.4688 25.1416 45.3997C25.1416 45.3997 25.0757 45.1971 24.9797 44.8632C25.7687 44.7411 26.4706 44.3961 26.8926 43.6565Z" fill="#F28543"/>
<path d="M35.055 19.8047C38.4676 1.96887 21.9588 0.665184 19.277 0.520267V0.508051C19.242 0.509187 19.1943 0.51089 19.14 0.513448C19.0855 0.51089 19.0374 0.509187 19.0028 0.508051V0.520267C16.3207 0.665184 0.00137248 1.96915 3.41373 19.8047C3.41373 19.8047 4.77168 14.4632 18.5078 14.7144C18.5078 14.7144 32.6661 13.7384 35.055 19.8047Z" fill="#D82930"/>
<path d="M35.0549 19.8047C33.001 14.5743 16.9457 15.1921 16.9457 15.1921C6.00281 14.9142 3.41363 19.8047 3.41363 19.8047C3.41363 19.8047 -1.08816 13.0007 1.55046 10.7147C1.55046 10.7147 5.23276 6.3766 17.447 6.58005C17.447 6.58005 30.2337 6.58006 32.8007 10.9679C32.8007 10.9679 34.4249 13.6528 35.0549 19.8047Z" fill="#A61E23"/>
</svg>
