<svg width="58" height="70" viewBox="0 0 58 70" fill="none" xmlns="http://www.w3.org/2000/svg">
<path d="M13.6583 31.065C13.6583 31.065 13.3089 33.2235 12.5786 34.1128C11.8484 35.0021 11.3086 36.1765 10.8322 36.4311C10.3559 36.685 10.1976 38.3045 9.46661 38.9712C8.73639 39.638 8.26003 39.9553 8.26003 39.9553C8.26003 39.9553 7.97483 41.2575 7.52981 42.4319C7.08557 43.6064 5.65647 47.3217 5.65647 47.3217L4.99598 56.2442L6.79959 61.3565C6.79959 61.3565 8.70505 61.6416 8.79985 62.3405C8.89544 63.0386 7.59327 63.3567 7.08556 63.4202C6.57786 63.4836 4.35509 63.5784 3.78314 63.4202C3.21197 63.2611 3.59275 62.2771 3.62487 61.6416C3.65621 61.007 3.72986 60.6255 3.47052 60.4351C3.21197 60.2447 3.49794 59.9274 3.33889 58.3079C3.17984 56.6884 2.98946 56.3076 2.98946 56.212C2.98946 56.1172 3.27152 54.0895 2.98946 52.3706C2.7074 50.6508 2.52249 48.7312 2.25924 48.1475C1.99599 47.563 1.43343 46.4646 1.56036 46.0196C1.68807 45.5753 2.95812 44.2097 2.95812 43.2577C2.95812 42.305 7.33942 25.3807 7.33942 25.3807L9.05448 24.2384L13.6583 31.065Z" fill="#AF6D30"/>
<path d="M41.6636 32.8745C41.3141 33.1292 40.7108 33.9542 40.7147 34.6413C40.7179 35.0472 40.4938 36.1409 40.2509 37.1117C40.0832 37.7855 39.907 38.3997 39.7894 38.6857C39.5042 39.3838 37.5674 43.2895 37.1224 45.0994C36.6782 46.9093 36.6147 49.0051 36.6782 49.7988C36.7416 50.5925 36.4557 51.2913 36.2269 51.8954C35.9965 52.4987 35.6941 55.3553 35.6307 56.435C35.5672 57.5146 35.9158 61.0709 36.2269 61.6742C36.5364 62.2775 36.9007 62.9121 36.9955 63.7379C37.0911 64.563 38.1386 65.1349 39.1548 65.6113C40.171 66.0876 40.7743 67.3577 40.7108 67.6429C40.6646 67.8513 40.551 68.1945 39.9767 68.4514C39.7636 68.5462 39.4854 68.6309 39.1227 68.6912C37.7892 68.9137 36.1384 68.5008 34.4875 68.3739C32.8359 68.2462 32.5821 67.5794 32.5186 67.0396C32.4551 66.5005 33.6296 65.5791 33.6296 65.3888C33.6296 65.1984 33.3757 64.6264 33.0898 64.3091C32.8046 63.9918 32.8046 62.9756 32.9315 62.7852C33.0584 62.5948 33.2809 60.7528 33.1854 59.7688C33.0898 58.7847 32.8359 54.879 32.6455 54.2757C32.4551 53.6724 32.0744 52.3068 31.8519 51.4183C31.6293 50.529 31.7884 49.0686 31.8519 48.6235C31.9153 48.1793 32.3282 46.6554 32.3282 45.8931C32.3282 45.1307 32.3596 42.7818 32.6142 41.2258C32.7309 40.505 32.9997 39.5452 33.2527 38.6888C33.5466 37.6961 33.8208 36.8414 33.8208 36.6533C33.8208 36.3039 33.0898 35.0338 33.0898 35.0338L38.832 30.9973L39.1869 30.7473C39.1869 30.7473 39.3327 30.8445 39.5544 30.9973C39.9289 31.2558 40.5212 31.6734 40.9866 32.0519C41.4567 32.4342 41.7991 32.7758 41.6636 32.8745Z" fill="#D9A54F"/>
<path d="M41.6636 32.874C41.3141 33.1287 40.7108 33.9537 40.7147 34.6408C40.7179 35.0467 40.4938 36.1404 40.2509 37.1112C39.3851 36.8589 38.5123 36.6113 38.2444 36.5525C37.6615 36.4241 35.3979 38.2676 34.6043 38.6884C33.8106 39.1083 33.2527 38.6884 33.2527 38.6884C33.5466 37.6957 33.8208 36.8409 33.8208 36.6528C33.8208 36.3034 33.0898 35.0334 33.0898 35.0334L38.832 30.9968H39.5544C39.9289 31.2553 40.5212 31.6729 40.9866 32.0514C41.4567 32.4337 41.7991 32.7753 41.6636 32.874Z" fill="#B78337"/>
<path d="M41.6636 32.875C41.3142 33.1289 40.7109 33.9547 40.7156 34.641C40.7195 35.3282 40.0762 37.9866 39.7903 38.6854C39.5043 39.3835 37.5675 43.2893 37.1233 45.0991C36.6782 46.909 36.6148 49.0048 36.6782 49.7985C36.7417 50.5922 36.4565 51.2911 36.2269 51.8951C35.9966 52.4984 35.6942 55.3551 35.6307 56.4347C35.5672 57.5144 35.9167 61.0707 36.2269 61.6739C36.5364 62.2772 36.9007 62.9119 36.9963 63.7377C37.0911 64.5635 38.1395 65.1346 39.1549 65.611C40.1711 66.0874 40.7743 67.3574 40.7109 67.6434C40.6654 67.851 40.551 68.1942 39.9775 68.4512C39.9728 67.9889 39.7903 67.8016 39.1235 66.9445C38.4568 66.0874 36.6148 65.8335 35.948 65.7066C35.2813 65.5789 34.6145 64.7539 34.7101 64.3088C34.8049 63.8646 35.8211 63.9915 35.3769 62.658C34.9318 61.3245 34.9318 58.594 34.8049 57.8638C34.678 57.1336 34.8049 55.9905 34.8684 55.3237C34.9318 54.657 34.6466 54.4658 34.2972 53.8625C33.9478 53.2592 33.567 51.9578 33.6304 51.2276C33.6939 50.4974 34.7414 49.1004 34.9953 48.5285C35.2499 47.9573 36.2019 46.8777 35.8211 46.9411C35.4403 47.0046 34.3607 48.6554 34.5832 47.8938C34.8049 47.1315 35.1865 45.8928 35.123 44.8774C35.0588 43.8612 35.3768 42.0192 35.5672 43.0354C35.7576 44.0516 36.4565 44.5914 36.7159 43.9881C36.9744 43.3848 36.9007 42.2096 37.0598 40.6857C37.2181 39.1618 38.6605 35.3141 38.9331 34.8753C39.6156 33.7729 40.4641 32.6894 40.9867 32.0516C41.4568 32.4339 41.7992 32.7763 41.6636 32.875Z" fill="#B78337"/>
<path d="M57.6664 3.66348C57.5709 4.05993 57.1266 4.53628 56.9206 4.711C56.8163 4.79954 56.6409 5.00325 56.4755 5.243C56.4755 5.243 56.4755 5.24378 56.4755 5.24456C56.4748 5.24534 56.4747 5.24614 56.4747 5.24614C56.3133 5.48275 56.1653 5.75383 56.1104 5.98104C55.9992 6.44174 55.9678 7.48927 56.0313 8.04477C56.0948 8.60027 56.0626 9.71205 55.9522 10.1249C55.8989 10.3208 55.7061 10.6718 55.5103 11.0134C55.294 11.3919 55.0723 11.7609 55.0308 11.9027C54.9516 12.173 54.856 13.1571 54.8247 13.4109C54.7926 13.6648 55.0308 17.3378 54.7456 18.5655C54.4596 19.7933 53.5703 22.016 53.094 22.5872C52.6176 23.1592 52.3003 24.81 52.269 25.5089C52.2368 26.207 50.8712 28.8105 50.4904 29.4773C50.1096 30.144 48.9031 31.9225 47.633 32.5893C46.486 33.1918 43.2595 33.3704 41.9433 33.2279H41.9425C41.8007 33.213 41.6824 33.1942 41.5891 33.1714C40.6372 32.9387 39.7103 32.5102 39.2026 32.4624C38.6949 32.4146 37.8848 32.6206 37.5996 32.9701C37.3136 33.3195 35.2812 34.6217 34.6466 34.9069C34.3739 35.0299 33.82 35.3276 33.2496 35.6786L33.2481 35.6794C32.4896 36.1456 31.7022 36.7034 31.5032 37.0662C31.1538 37.7016 31.2807 38.7491 31.2486 39.6063C31.2172 40.4634 30.9712 41.1302 30.8239 42.0516C30.6774 42.9722 30.201 44.6551 30.1376 45.893C30.0741 47.1317 30.3914 49.3224 30.4549 50.0526C30.5184 50.7828 30.2332 51.9894 29.8203 53.196C29.4074 54.4026 28.8989 55.7682 28.7406 57.0382C28.5816 58.3083 28.645 59.9278 28.772 60.8805C28.8989 61.8324 29.1214 62.7217 29.4708 63.2615C29.8203 63.8014 29.6291 64.881 29.6291 65.3253C29.6291 65.7703 31.0652 67.1673 31.8237 67.4211C32.5821 67.675 32.4622 68.8181 31.8237 68.9137C31.5675 68.9521 31.0339 68.9952 30.4048 69.0187C29.4701 69.0547 28.3254 69.0469 27.5654 68.9137C26.2953 68.6912 24.708 68.2469 24.708 68.0879C24.708 67.9288 24.6445 66.9447 25.0574 66.437C25.4703 65.9286 25.819 65.8338 25.5338 64.881C25.2478 63.9283 25.4539 62.8173 25.5173 62.5313C25.5808 62.2453 26.1159 59.9489 26.1794 58.8693C26.2428 57.7896 25.967 54.7841 25.7766 54.0853C25.5863 53.3864 25.3324 53.1325 25.3536 52.8787C25.3747 52.6248 25.3959 51.9894 25.2689 51.7567C25.142 51.524 24.7612 50.7194 24.867 50.0847C24.9728 49.4493 25.0574 47.3543 25.142 46.465C25.2266 45.5757 25.3536 43.501 25.2901 42.8664C25.2266 42.231 24.9516 39.5851 24.9093 39.014C24.867 38.442 24.8459 37.1296 24.8459 36.8758C24.8459 36.6219 24.1047 37.1508 23.4481 36.5796C22.7923 36.0077 21.48 35.8808 21.0349 35.5634C20.5907 35.2461 20.2734 34.8434 19.0457 34.4415C17.8179 34.0395 16.4209 33.7003 15.8278 33.4464C15.2355 33.1926 13.5204 31.8802 13.5204 31.8802C13.5204 31.8802 9.54108 27.752 8.73644 26.652C8.65417 26.5376 8.58209 26.4569 8.51941 26.4036C8.51941 26.4036 8.5194 26.4028 8.51784 26.402C7.98193 25.9445 8.18172 27.6063 8.14411 28.7549C8.1018 30.0382 7.67871 34.0795 7.84795 34.6413C8.01718 35.2038 7.29715 37.9978 7.0433 38.6747C6.78945 39.3524 6.40789 41.0033 6.28096 41.8502C6.15403 42.6972 5.9425 47.3112 6.02711 47.8196C6.11173 48.3274 6.02711 50.9952 6.06942 51.4182C6.11173 51.8413 5.73095 53.0268 5.81557 53.6199C5.90019 54.2122 6.41886 57.9275 6.57791 58.7212C6.73617 59.5149 7.08561 60.4041 7.30813 60.6259C7.52986 60.8484 8.06968 61.9915 8.10181 62.3409C8.13315 62.6904 8.89548 63.4206 9.68916 63.7058C10.4828 63.9918 10.5463 64.8176 10.4828 65.0714C10.4194 65.3253 8.7999 65.2618 8.7999 65.2618C8.7999 65.2618 7.65678 65.8016 6.83176 65.8651C6.00595 65.9286 4.64032 66.278 4.73591 65.3253C4.83149 64.3725 4.95842 63.8335 4.8315 63.3571C4.70457 62.8808 4.67245 62.1819 4.70457 61.2613C4.73591 60.3407 4.67245 57.6415 4.19609 55.5457C3.71972 53.4506 3.17989 51.9581 2.76699 50.815C2.35487 49.6718 1.87851 48.6243 1.87851 48.1158C1.87851 47.6081 2.38621 47.0048 2.38621 44.7186C2.38621 42.4323 2.35487 40.3365 2.0689 39.1934C1.78292 38.0503 0.98924 35.7006 0.925777 34.4305C0.862314 33.1605 0.671928 30.5569 0.576342 29.1286C0.481539 27.6995 -0.058292 25.0004 0.00517103 24.2067C0.0686341 23.413 0.226904 21.4128 1.30656 20.1106C2.38622 18.8092 3.05375 18.0477 3.91011 17.2532C3.91011 17.2532 5.85788 15.517 6.49329 14.5862C7.12792 13.6546 9.92186 12.6807 10.515 12.173C10.8628 11.8737 11.7842 10.6663 12.6899 9.40335C12.6915 9.401 12.6923 9.39866 12.6923 9.39866C13.3246 8.51722 13.9498 7.60914 14.3674 6.96511C14.7999 6.29914 15.4541 5.59479 16.1506 4.97191C17.0924 4.13122 18.1133 3.44096 18.7706 3.1973C19.4664 2.94031 20.398 2.5564 21.3922 2.68803C22.0308 2.77264 22.696 3.0688 23.3423 3.74809C24.7808 5.25945 25.8017 7.0607 27.9994 7.55587C28.3238 7.62952 28.6764 7.67418 29.0579 7.68514C30.7127 7.73294 32.7247 8.1623 34.4507 8.85804C34.457 8.8604 34.4625 8.86273 34.4695 8.86508C34.4695 8.86508 34.4813 8.86979 34.504 8.87919C34.522 8.88624 34.5393 8.89329 34.5565 8.90034C35.8767 9.44487 37.0206 10.1445 37.6944 10.9453C39.2606 12.8076 39.8114 14.6285 40.2345 15.4323C40.5064 15.9487 41.0227 17.0933 41.5249 17.8471C41.5265 17.8486 41.5288 17.851 41.5296 17.8518C41.8085 18.2694 42.0827 18.5655 42.3092 18.5655C42.9438 18.5655 44.2569 17.507 44.5531 16.4908C44.8493 15.4746 45.4424 13.3161 45.4847 11.7914C45.527 10.2675 46.0347 8.06592 46.4155 7.26206C46.797 6.45741 46.8495 6.07663 46.4155 5.60027C45.9814 5.1239 45.2198 3.72693 45.2198 2.96459C45.2198 2.20225 45.4259 1.34512 45.9979 1.28165C46.569 1.21819 47.2201 1.86143 47.474 2.35347C47.474 2.35347 47.7599 2.29785 48.1094 1.86927C48.458 1.4407 48.7127 1.36626 48.9031 1.27616C49.0935 1.18684 49.649 0.567107 50.141 0.392388C50.6338 0.218452 51.078 0.265453 51.7127 0.249783C52.3481 0.234113 52.7767 0.265453 53.2687 0.567098C53.7607 0.868743 54.4439 1.31377 54.7456 1.50415C55.0472 1.69454 55.0308 1.91707 55.0308 1.91707C55.0308 1.91707 55.2384 2.01029 55.4014 1.95388C55.4405 1.94056 55.4766 1.91864 55.5071 1.88494C55.6662 1.71023 56.2538 0.980003 56.9206 1.09126C57.5873 1.20252 57.5709 1.4407 57.6664 1.93273C57.762 2.42477 57.762 3.26625 57.6664 3.66348Z" fill="#D9A54F"/>
<path d="M48.9532 22.65C48.1407 22.1736 47.9331 22.0467 47.7513 19.8874C47.5695 17.7288 47.4881 16.5536 47.7513 15.633C47.9918 14.7892 47.3321 12.698 47.3188 10.8137C47.3165 10.6429 47.2648 10.4141 47.2397 10.1611C47.2397 10.1611 47.2405 10.1611 47.2397 10.1603C47.1739 9.41909 47.1903 8.72256 47.2201 8.39349C47.2836 7.69462 47.4105 6.20284 47.188 5.72647C46.9662 5.25011 46.7124 4.58337 46.5847 3.72622C46.4578 2.86908 47.3094 2.4217 47.4739 2.35275C47.6212 2.29085 47.7333 2.29556 48.0044 1.99234C48.1611 1.91713 48.3044 1.85367 48.4353 1.79805C49.2556 1.45252 49.5651 1.4627 49.6019 1.45643C49.6834 1.44311 49.2329 2.04563 48.8725 3.0438C48.3899 4.38279 48.6382 5.88789 48.6382 5.88789C48.6531 6.45905 50.1582 7.84349 49.4585 8.2893C49.2039 8.45148 47.8234 8.59329 47.7599 9.39794C47.6965 10.2034 47.9824 11.2509 48.3311 11.8229C48.5372 12.1605 48.7119 12.8735 48.8059 13.5834C48.8709 14.077 48.8983 14.5706 48.8717 14.9341C48.8075 15.8234 48.1728 17.0785 48.4901 18.1809C48.8074 19.2849 49.7288 20.0785 50.0775 20.0464C50.4269 20.0151 49.529 21.1261 48.914 20.4593C48.2997 19.7926 48.5912 20.8401 48.9532 21.2851C49.3159 21.7294 49.6623 22.0153 50.1566 22.2057C50.6495 22.3961 49.7664 23.1263 48.9532 22.65Z" fill="#EBBA75"/>
<path d="M54.8248 13.4111C54.7926 13.6649 55.0308 17.338 54.7456 18.5657C54.4597 19.7934 53.5704 22.0162 53.094 22.5874C52.6177 23.1593 52.3003 24.8101 52.269 25.509C52.2369 26.2071 50.8713 28.8107 50.4905 29.4774C50.1097 30.1442 48.9031 31.9227 47.6331 32.5895C46.486 33.192 43.2596 33.3706 41.9433 33.228C43.8229 33.065 46.3568 31.4409 47.1465 30.2672C47.9371 29.0927 47.8556 24.8736 48.3633 24.5563C48.871 24.239 48.7441 25.1275 49.5699 25.1275C50.3957 25.1275 50.9034 22.5239 50.9034 22.5239C50.9034 22.5239 51.6022 22.2066 51.7229 21C51.8428 19.7934 51.8968 16.6767 52.0778 15.4709C52.2588 14.2643 52.6772 13.0805 53.2938 12.3839C53.9104 11.6874 54.5842 11.0316 54.8585 10.263C55.1327 9.49517 56.0157 7.87569 56.0157 7.87569C56.0157 7.87569 56.1324 8.96946 56.0157 9.74355C55.8997 10.5176 55.5103 11.0136 55.5103 11.0136C55.2941 11.392 55.0723 11.761 55.0308 11.9029C54.9517 12.1732 54.8561 13.1572 54.8248 13.4111Z" fill="#B78337"/>
<path d="M35.8321 31.2187C35.5445 32.4715 33.8914 34.9081 33.3931 35.5898L33.2497 35.6775L33.2481 35.6783C32.4897 36.1445 31.7023 36.7023 31.5033 37.0651C31.1538 37.7005 31.2808 38.7481 31.2486 39.6052C31.2173 40.4623 30.9713 41.1291 30.824 42.0505C30.6775 42.9711 30.2011 44.654 30.1376 45.892C30.0742 47.1307 30.3915 49.3213 30.4549 50.0515C30.5184 50.7817 30.2332 51.9883 29.8203 53.1949C29.4074 54.4015 28.8989 55.7671 28.7407 57.0372C28.5816 58.3072 28.6451 59.9267 28.772 60.8794C28.8989 61.8314 29.1214 62.7206 29.4709 63.2605C29.8203 63.8003 29.6292 64.8799 29.6292 65.3242C29.6292 65.7692 31.0653 67.1662 31.8237 67.42C32.5821 67.6739 32.4623 68.817 31.8237 68.9126C31.5675 68.951 31.034 68.9941 30.4048 69.0176C31.1405 68.7151 30.8005 67.923 30.614 67.6425C30.4236 67.3566 28.9945 66.9758 28.5503 66.4994C28.1053 66.0231 27.4706 65.8327 27.1846 65.1973C26.8987 64.5626 27.4072 64.4146 27.4299 62.3822C27.4526 60.3498 27.9149 59.7152 27.9995 58.5297C28.0841 57.3443 27.7033 55.5658 27.4299 54.0842C27.1564 52.6026 27.7879 51.7133 28.0841 51.5441C28.3803 51.3748 29.3118 51.0787 29.3118 50.2513C29.3118 49.4232 28.2956 49.7232 28.1264 49.7507C27.9572 49.7773 28.0418 49.0463 28.508 48.5809C28.9734 48.1147 29.2272 46.8024 29.1003 45.1516C28.9734 43.4999 28.5503 42.9499 28.6772 42.103C28.8041 41.2568 28.3803 39.5629 28.0841 38.6736C27.7879 37.7851 28.8041 35.075 28.8692 34.3981C28.9334 33.7204 27.9995 33.4242 27.0679 33.2738C26.1371 33.1218 25.5017 32.5349 26.8141 32.4503C28.1264 32.3657 30.375 30.6475 31.7375 29.1487C33.6234 27.074 33.6524 20.4049 33.6234 19.5806C33.5388 17.2098 34.562 18.3952 34.9851 19.1991C35.4082 20.0037 36.2552 22.8408 36.4667 24.2377C36.6782 25.6347 36.1705 29.741 35.8321 31.2187Z" fill="#B78337"/>
<path d="M10.4829 65.0711C10.4194 65.325 8.79991 65.2615 8.79991 65.2615C8.73645 64.5947 8.35567 64.0236 7.94277 63.8967C7.52987 63.7697 6.70484 63.4524 6.51446 63.3247C6.32328 63.197 6.1329 61.6739 6.12193 61.2289C6.11018 60.7846 5.59307 56.911 5.4348 55.8948C5.27575 54.8786 4.99605 50.2114 4.609 49.9888C4.22196 49.7663 3.24337 49.6394 4.00571 48.9413C4.76805 48.2424 4.57688 47.1314 4.51342 46.496C4.44995 45.8614 4.10129 44.7183 4.33634 44.3054C4.57296 43.8925 4.52595 42.5347 4.43976 41.2576C4.39119 40.5391 4.50558 40.1059 4.90516 40.2202C5.35019 40.3472 5.59307 39.7016 5.59307 39.0027C5.59307 38.3046 5.48808 37.847 5.11671 37.5524C4.84797 37.3401 4.27053 35.8382 4.609 35.0022C5.03052 33.9617 5.84692 34.4302 5.75212 33.5417C5.65653 32.6525 5.5296 29.636 5.30787 28.1756C5.08536 26.7152 5.49826 24.8732 5.78346 23.9392C6.06943 23.0061 5.94251 20.6501 6.19636 21.4759C6.45021 22.3009 6.6837 22.9042 7.12794 24.005C7.56356 25.0831 8.48024 26.3493 8.51785 26.4018C7.98194 25.9442 8.18173 27.606 8.14412 28.7546C8.10182 30.0379 7.67873 34.0792 7.84796 34.641C8.0172 35.2035 7.29717 37.9975 7.04331 38.6744C6.78946 39.3521 6.4079 41.003 6.28098 41.8499C6.15405 42.6969 5.94251 47.3109 6.02713 47.8193C6.11175 48.3271 6.02712 50.9949 6.06943 51.4179C6.11174 51.841 5.73097 53.0265 5.81558 53.6196C5.9002 54.2119 6.41887 57.9272 6.57792 58.7209C6.73619 59.5146 7.08563 60.4038 7.30814 60.6256C7.52987 60.8481 8.0697 61.9912 8.10182 62.3406C8.13316 62.6901 8.8955 63.4203 9.68918 63.7055C10.4829 63.9915 10.5463 64.8173 10.4829 65.0711Z" fill="#B78337"/>
<path d="M53.7607 2.11727C53.6926 2.69627 52.5964 2.34996 52.3849 2.54113C52.1734 2.73152 52.1326 3.848 51.9187 3.85349C51.7064 3.85976 51.7221 2.79499 51.3585 2.57247C51.0749 2.40011 50.2366 2.68922 49.9929 2.59364C49.884 2.55133 49.7845 2.41108 49.7712 2.22304L49.7704 2.22226V2.22148C49.7555 1.98721 49.8738 1.67929 50.2789 1.39801C50.2789 1.39801 50.5006 0.720303 50.7333 0.572223C50.9668 0.424142 51.4196 0.000271879 51.7221 0.000271879C52.0253 0.000271879 52.4272 0.50876 52.5541 0.572223C52.6811 0.635686 53.1042 0.995298 53.253 1.24915C53.4011 1.50379 53.8242 1.57744 53.7607 2.11727Z" fill="#EBBA75"/>
<path d="M54.2527 5.75791C54.2527 6.23427 53.5601 7.2066 52.0778 7.1972C50.6839 7.1878 49.4742 6.17081 49.4585 5.75791C49.4507 5.5495 49.6293 5.39281 49.8088 5.29017H49.8095C49.9835 5.1891 50.1574 5.13895 50.1574 5.13895C50.6181 4.88118 51.295 4.82947 51.9187 4.85533C52.4632 4.87648 52.9678 4.95719 53.2522 5.01125C53.253 5.01125 53.2538 5.01125 53.2554 5.01203C53.4034 5.03945 53.4912 5.05982 53.4912 5.05982C53.4912 5.05982 53.5985 5.09037 53.7317 5.15462C53.8774 5.22435 54.0545 5.33326 54.1603 5.48291C54.2167 5.56204 54.2527 5.65449 54.2527 5.75791Z" fill="#EBBA75"/>
<path d="M54.089 5.39941C53.8218 5.68382 53.0783 5.8695 52.6098 5.76607C52.5048 5.74335 52.0394 5.60311 51.9477 5.60546C51.856 5.60859 51.288 5.76138 50.9566 5.79507C50.3635 5.85619 49.7704 5.48324 49.8088 5.2905H49.8095L51.9187 4.85566L52.258 4.78515C52.258 4.78515 52.7602 4.87995 53.2522 5.01158C53.253 5.01158 53.2538 5.01157 53.2554 5.01236C53.4222 5.05623 53.5883 5.1048 53.7317 5.15495C53.8774 5.22468 53.9621 5.28972 54.089 5.39941Z" fill="#B78337"/>
<path d="M54.4463 4.67643C54.4463 4.93577 54.0945 5.409 53.3956 5.4756C53.1191 5.50224 52.8245 5.4474 52.5706 5.3714C52.1828 5.25545 52.0982 5.11598 51.9478 5.12538C51.8279 5.13322 51.4048 5.3949 51.1447 5.44348C50.5445 5.55473 49.931 5.35416 49.6646 5.2288C49.2839 5.04859 49.2525 4.54089 49.432 4.02222C49.6122 3.50354 50.0619 2.95589 50.3424 2.77334C50.6229 2.59078 50.8728 2.52731 51.2371 2.52888C51.5489 2.53045 52.2141 2.51399 52.3959 2.50929C52.4257 2.50851 52.4421 2.50773 52.4421 2.50773C52.4421 2.50773 53.3243 2.45836 53.6338 2.70986C53.9316 2.9504 54.4463 4.29252 54.4463 4.67643Z" fill="#EBBA75"/>
<path d="M46.732 4.15697C46.732 4.15697 47.0477 3.54897 47.3541 3.4855C47.6612 3.42204 46.9043 3.26613 46.9412 3.1392C46.9788 3.01228 47.4222 2.85088 47.6761 2.82972C47.9307 2.80857 48.4126 2.83991 48.5928 3.08358C48.773 3.32725 48.3601 3.58658 48.3812 3.80596C48.4024 4.02533 48.4658 4.55498 48.4972 4.81902C48.5293 5.08384 48.1485 5.71846 47.8939 5.86733C47.64 6.01541 47.3964 5.34866 47.5029 5.23192C47.6087 5.11517 47.9472 5.09402 48.1376 4.69208C48.3279 4.29015 48.0741 4.74537 47.767 4.81902C47.4606 4.89345 47.1856 4.72734 47.148 4.32384C47.1112 3.91956 46.8464 4.23531 46.7617 4.28389C46.6771 4.33246 46.732 4.15697 46.732 4.15697Z" fill="#B78337"/>
<path d="M47.0133 4.09111C47.0133 4.09111 47.188 3.726 47.5218 3.75734C47.8555 3.78946 48.0295 4.26583 48.0295 4.26583C48.0295 4.26583 47.7121 4.74219 47.4105 4.74219C47.1089 4.74219 47.0133 4.09111 47.0133 4.09111Z" fill="#5E431C"/>
<path d="M56.7647 3.98215C56.7647 3.98215 56.4489 3.37416 56.1426 3.3107C55.8355 3.24724 56.5923 3.09131 56.5555 2.96439C56.5179 2.83746 56.0744 2.67606 55.8206 2.6549C55.5659 2.63375 55.0841 2.66509 54.9039 2.90876C54.7237 3.15243 55.1366 3.41176 55.1154 3.63114C55.0943 3.85051 55.0308 4.38016 54.9995 4.6442C54.9673 4.90902 55.3481 5.54444 55.6028 5.69252C55.8566 5.8406 56.1003 5.17384 55.9937 5.0571C55.8879 4.94036 55.5495 4.91921 55.3591 4.51728C55.1687 4.11535 55.4225 4.57055 55.7297 4.6442C56.0368 4.71863 56.311 4.55254 56.3486 4.14904C56.3855 3.74475 56.6503 4.06049 56.7349 4.10907C56.8195 4.15764 56.7647 3.98215 56.7647 3.98215Z" fill="#B78337"/>
<path d="M56.3282 3.837C56.3282 3.837 56.1535 3.4719 55.8205 3.50324C55.4867 3.53536 55.312 4.01171 55.312 4.01171C55.312 4.01171 55.6294 4.4873 55.931 4.4873C56.2326 4.4873 56.3282 3.837 56.3282 3.837Z" fill="#5E431C"/>
<path d="M55.8918 3.75581C55.8918 3.83886 55.8244 3.90625 55.7406 3.90625C55.6575 3.90625 55.5901 3.83886 55.5901 3.75581C55.5901 3.67276 55.6575 3.6046 55.7406 3.6046C55.8244 3.6046 55.8918 3.67276 55.8918 3.75581Z" fill="white"/>
<path d="M49.6466 9.87697C50.105 9.16948 50.9033 8.31938 51.1995 7.85398C51.4957 7.38859 52.1311 6.8801 52.6388 7.85398C53.1473 8.82787 54.2904 10.6902 54.5442 11.0506C54.7981 11.4103 53.8454 11.1987 53.253 10.7537C52.6599 10.3095 52.2368 9.73829 51.8874 9.73829C51.538 9.73829 50.6918 10.0133 50.3322 10.4999C49.9718 10.9872 49.0418 11.7621 48.8921 11.4103C48.7668 11.1141 49.2651 10.4662 49.6466 9.87697Z" fill="#B78337"/>
<path d="M52.5706 2.01172C52.5706 2.01172 53.0783 1.6944 53.38 1.6944C53.6816 1.6944 53.7451 1.8746 53.5547 1.9271C53.3643 1.98037 52.5706 2.01172 52.5706 2.01172Z" fill="#5E431C"/>
<path d="M50.9566 2.01152C50.9566 2.01152 50.4269 1.85326 50.2256 1.85326C50.025 1.85326 49.9192 1.89557 49.9404 2.05383C49.9615 2.21288 50.7764 2.05383 50.9566 2.01152Z" fill="#5E431C"/>
<path d="M54.2527 4.69814C54.2112 4.84936 53.8571 5.24423 53.3713 5.09145C52.8855 4.93945 52.6599 4.58453 52.5706 4.35575C52.4672 4.09406 52.3324 3.6271 52.2188 3.309C52.1451 3.10294 51.9806 2.55371 52.0574 2.51845C52.1475 2.47614 52.4162 2.47458 52.714 2.50514C52.9474 2.52943 53.2836 2.62658 53.4732 2.78484C53.5499 2.84987 53.7693 3.15309 53.9174 3.50096C54.1344 4.00788 54.2778 4.60804 54.2527 4.69814Z" fill="#D9A54F"/>
<path d="M27.7879 18.65C27.8412 19.3724 27.8411 22.1381 28.1592 23.662C28.3504 24.5819 27.9673 27.7354 27.1039 29.2507C26.5358 30.2473 25.4664 31.3019 25.1773 31.7845C24.8882 32.2672 24.9516 32.7482 25.6286 34.4414C25.7821 34.8245 26.369 35.2452 26.5076 35.6644C26.9824 37.0982 27.1039 38.2045 27.1039 39.5066C27.1039 40.808 27.8678 45.6422 27.8411 46.3967C27.8098 47.3142 27.3303 48.2661 27.1039 48.4925C26.8837 48.7127 26.615 49.2768 26.4693 50.1175C26.3235 50.9582 26.5813 52.6247 26.7717 53.387C26.9621 54.1486 27.0428 55.7743 27.1039 56.6205C27.1658 57.4675 26.7192 57.245 26.3807 55.6364C26.2632 55.0786 26.1574 54.4824 26.0603 53.894C26.0046 53.5594 25.7006 53.2585 25.6505 52.9373C25.6004 52.6161 25.819 52.2141 25.7461 51.8263C25.6497 51.3139 25.2611 50.8211 25.2063 50.5241C25.1404 50.1692 25.6388 49.7124 25.6184 49.2862C25.5737 48.3398 25.7116 47.7913 25.7774 46.9679C25.8432 46.1452 25.8409 45.4126 25.873 44.2374C25.9044 43.0629 25.2658 39.0138 25.1726 37.6592C25.0785 36.3037 25.3536 35.3095 24.7612 34.2298C24.1681 33.1502 23.9777 31.4993 24.3585 30.7472C24.7393 29.9958 24.9939 28.4296 24.7393 27.2442C24.4854 26.0587 24.1047 24.6618 24.7393 22.7563C25.3747 20.8516 27.7033 17.5069 27.7879 18.65Z" fill="#EBBA75"/>
<path d="M25.8401 13.3479C24.469 14.4784 21.628 14.2677 19.2783 14.6492C16.9286 15.03 11.3611 18.1844 12.7589 17.8028C14.1558 17.422 17.2883 16.8289 20.1676 17.2528C23.0462 17.6759 24.3162 20.4283 24.1611 21.3027C24.0067 22.1786 21.8607 25.2115 21.0569 25.8893C20.2522 26.567 18.5583 28.4293 14.7482 27.7093C10.938 26.9901 8.60949 24.5346 7.89024 23.0953C7.17021 21.6553 7.76331 19.3698 8.14409 18.9459C8.52487 18.5228 9.83723 16.2789 10.2188 14.7973C10.5925 13.3439 12.6147 9.54478 12.6899 9.40297C12.6915 9.40062 12.6923 9.39827 12.6923 9.39827C13.3246 8.51684 13.9498 7.60876 14.3674 6.96473C14.7999 6.29876 15.4541 5.59441 16.1506 4.97153C16.1522 4.97075 16.1538 4.96996 16.1553 4.96917C18.6202 3.41707 20.0955 3.4304 20.8508 4.08618C21.6069 4.74275 22.3927 6.32227 23.4692 7.38861C24.8725 8.77696 26.1034 9.67484 26.5499 10.3518C26.9965 11.0295 26.9378 12.4429 25.8401 13.3479Z" fill="#EBBA75"/>
<path d="M41.9433 18.3689C42.3679 18.8601 40.5103 18.4174 39.6218 17.5979C39.1149 17.1302 37.663 15.4496 37.1553 14.0095C36.6476 12.5702 36.4243 10.776 35.4082 10.056C34.4147 9.3524 34.1694 8.77028 34.4507 8.85803C34.457 8.86038 34.4625 8.86272 34.4695 8.86507C34.4695 8.86507 34.4813 8.86978 34.504 8.87918C34.5173 8.88466 34.5353 8.89171 34.5565 8.90033C35.8767 9.44486 37.0206 10.1445 37.6944 10.9452C39.2606 12.8076 39.8114 14.6285 40.2345 15.4323C40.5063 15.9487 41.8438 18.209 41.9433 18.3689Z" fill="#B78337"/>
<path d="M26.9621 7.76971C26.3909 7.7274 25.4382 7.00736 25.0786 6.75351C24.7182 6.49966 23.7874 5.39886 23.3212 4.82769C22.8558 4.25574 21.9877 3.51533 21.2261 3.17608C20.4638 2.83761 21.3899 2.68875 21.3899 2.68875L21.3922 2.68797C22.0308 2.77259 22.696 3.06874 23.3423 3.74803C24.7808 5.25939 25.8017 7.06064 27.9994 7.55581L28.0002 7.55659C28.2549 7.87077 27.534 7.81202 26.9621 7.76971Z" fill="#B78337"/>
<path d="M53.7607 2.11727C53.6925 2.69627 52.5964 2.34996 52.3849 2.54113C52.1733 2.73152 52.1326 3.848 51.9187 3.85349C51.7063 3.85976 51.722 2.79499 51.3585 2.57247C51.0748 2.40011 50.2365 2.68922 49.9929 2.59364C49.8839 2.55133 49.7844 2.41108 49.7711 2.22304C49.7805 2.24419 49.8597 2.41186 50.0759 2.41186C50.3062 2.41186 50.8375 2.35624 51.06 2.26927C51.2825 2.18152 51.6155 2.05459 51.7267 2.05459C51.838 2.05459 52.4256 2.20581 52.6795 2.23323C52.9333 2.26144 53.5013 2.32254 53.7607 2.11727Z" fill="#B78337"/>
</svg>
