<svg width="32" height="67" viewBox="0 0 32 67" fill="none" xmlns="http://www.w3.org/2000/svg">
<path d="M2.08236 21.9873C2.09363 21.4772 2.07563 20.9663 2.02843 20.4582L1.47216 14.4489C1.1105 10.5418 2.43983 5.52882 5.21456 2.75421C7.59935 0.369264 11.3089 -2.42246e-06 14.9482 -2.42246e-06H16.5222C20.1615 -2.42246e-06 23.8708 0.369264 26.2558 2.75421C29.0304 5.52882 30.3598 10.5418 29.9982 14.4489L29.4416 20.4582C29.3947 20.9663 29.3766 21.4772 29.3877 21.9873L30.1155 50.5497C30.1155 54.916 26.5758 67 22.2094 67H9.26081C4.89436 67 1.35464 54.916 1.35464 50.5497L2.08236 21.9873Z" fill="#E33024"/>
<path d="M27.2981 24.2604C27.2873 23.7742 28.7563 21.5523 28.801 21.0677L29.3314 15.3396C29.6765 11.6152 28.409 6.83645 25.764 4.19186C23.491 1.91847 19.9549 1.5665 16.4859 1.5665H14.9856C11.5164 1.5665 7.98058 1.91847 5.70727 4.19186C3.06252 6.83645 1.79508 11.6152 2.13993 15.3396L2.67035 21.0677C2.71528 21.5523 4.1841 23.7742 4.17325 24.2604V50.8252C4.17325 54.9877 5.40211 65.4326 9.56434 65.4326H21.9073C26.0694 65.4326 27.2981 54.9877 27.2981 50.8252V24.2604Z" fill="#E33024"/>
<path d="M3.02069 23.2241V24.5604L0.0255402 25.2979C0.0255402 25.2979 -0.481297 23.2241 3.02069 23.2241Z" fill="#E33024"/>
<path d="M3.75858 37.2924C3.75842 37.3762 3.75827 37.4601 3.75827 37.544C3.75827 44.191 4.17283 50.8262 4.17283 50.8262C4.17283 50.8262 5.83171 45.9882 5.83171 44.191V37.6824C5.14638 37.5197 4.45367 37.3866 3.75858 37.2924Z" fill="#3F4045"/>
<path d="M5.83108 36.9141V30.8505C5.83108 29.8138 4.1722 24.2612 4.1722 24.2612C4.1722 24.2612 3.808 30.0939 3.76245 36.3001C4.46162 36.4713 5.14876 36.6836 5.83108 36.9141Z" fill="#3F4045"/>
<path d="M27.712 37.2924C27.7124 37.3762 27.7124 37.4601 27.7124 37.544C27.7124 44.191 27.2977 50.8262 27.2977 50.8262C27.2977 50.8262 25.639 45.9882 25.639 44.191V37.6824C26.3241 37.5197 27.0169 37.3866 27.712 37.2924Z" fill="#3F4045"/>
<path d="M25.639 36.9141V30.8505C25.639 29.8138 27.2977 24.2612 27.2977 24.2612C27.2977 24.2612 27.6624 30.0939 27.7078 36.3001C27.0084 36.4713 26.321 36.6836 25.639 36.9141Z" fill="#3F4045"/>
<path d="M28.4499 23.2241V24.5604L31.4449 25.2979C31.4449 25.2979 31.9519 23.2241 28.4499 23.2241Z" fill="#E33024"/>
<path d="M24.0981 50.3233C22.5902 50.6715 18.7421 51.3785 15.7343 51.3785C12.7265 51.3785 8.87831 50.6715 7.37045 50.3233C6.96609 50.2303 6.57734 50.5284 6.56307 50.9431L6.2588 59.7062C6.25037 59.947 6.37362 60.1743 6.58111 60.297C10.098 62.3804 15.7343 62.0919 15.7343 62.0919C15.7343 62.0919 21.3704 62.3804 24.8874 60.297C25.0952 60.1743 25.2183 59.947 25.2098 59.7062L24.9055 50.9431C24.8909 50.5284 24.5028 50.2303 24.0981 50.3233ZM6.59119 29.0527L4.10269 19.4452C4.10269 19.4452 6.72944 15.782 15.7343 15.782C24.7393 15.782 27.3659 19.4452 27.3659 19.4452L24.8774 29.0527C24.8774 29.0527 19.8622 27.8779 15.7343 27.8779C11.6065 27.8779 6.59119 29.0527 6.59119 29.0527Z" fill="#3F4045"/>
<path d="M4.10269 5.04004C6.16278 4.52574 7.49547 2.17849 7.41234 1.56687C6.81734 1.89307 6.26768 2.29312 5.7775 2.78319C5.13637 3.42443 4.57737 4.19223 4.10269 5.04004Z" fill="white"/>
</svg>
