<svg width="29" height="66" viewBox="0 0 29 66" fill="none" xmlns="http://www.w3.org/2000/svg">
<path d="M12.8339 61.6299H10.1754L9.56787 51.0755H13.4396L12.8339 61.6299Z" fill="#F2A586"/>
<path d="M12.8339 61.6299H10.1754L9.56787 51.0755H13.4396L12.8339 61.6299Z" fill="#F7AC80"/>
<path d="M12.5521 61.6299H11.791L11.8286 61.0247C12.1378 61.0888 12.4919 61.2301 12.5474 61.543C12.549 61.5713 12.5508 61.6004 12.5521 61.6299Z" fill="#F29065"/>
<path d="M9.61223 51.8447H9.56787V51.0733L9.61223 51.8447Z" fill="#F7BDA7"/>
<path d="M12.8715 60.9736C12.6349 60.7164 12.2028 60.5917 11.8588 60.5314L12.3973 51.8451H9.61223L9.56787 51.0737H13.4396L12.8715 60.9736Z" fill="#F29065"/>
<path d="M11.6128 60.8561C11.0859 60.855 10.2777 60.9375 9.9695 61.4435V61.82C9.9695 61.82 9.45953 63.2814 11.033 63.4344C11.033 63.4344 13.0104 63.8118 12.9432 61.82L12.945 61.752C12.7398 61.2161 12.247 60.8569 11.6128 60.8561Z" fill="white"/>
<path d="M12.5478 61.5414C12.5764 62.0049 12.5647 62.6106 12.1912 62.9611C11.7647 63.3597 10.8963 63.1929 10.4206 62.9906C9.87687 62.7584 9.93393 61.8898 10.2128 61.4584C10.2128 61.4584 10.4135 60.9297 11.3481 60.9699C11.3481 60.9699 12.4464 60.9699 12.5478 61.5414ZM11.5217 65.2437C11.5217 65.2437 13.2744 65.2538 13.2127 63.3042L13.044 61.3536C12.9706 60.515 11.3471 60.4761 11.3471 60.4761C9.99411 60.5052 9.77363 61.3536 9.77363 61.3536L8.81491 63.4396C8.81491 63.4396 8.19393 65.412 11.5217 65.2437Z" fill="#B23373"/>
<path d="M11.5394 64.6383C9.64813 64.7347 8.9903 64.1626 8.7789 63.6258C8.72157 64.1142 8.82819 65.3801 11.5215 65.2437C11.5215 65.2437 13.2223 65.2494 13.2096 63.3802C12.8646 64.6408 11.5394 64.6383 11.5394 64.6383Z" fill="white"/>
<path d="M10.9335 64.3682C10.8251 64.3646 10.7097 64.3591 10.5922 64.3503C10.3574 64.3269 10.1084 64.2692 9.86666 64.1889C9.74993 64.1433 9.62646 64.0933 9.51544 64.0318C9.45448 63.9962 9.39612 63.9493 9.34242 63.9057C9.29651 63.8458 9.24022 63.7983 9.21428 63.728C9.14165 63.5976 9.13724 63.4489 9.16578 63.3262C9.1829 63.2499 9.20521 63.2123 9.22492 63.1656C9.24645 63.12 9.2672 63.0772 9.28588 63.0349C9.43995 62.7017 9.56809 62.4884 9.56809 62.4884C9.56809 62.4884 9.53671 62.7356 9.45085 63.0928C9.43995 63.1379 9.42932 63.1841 9.41765 63.2326C9.40701 63.2795 9.38808 63.3361 9.38989 63.3638C9.38548 63.4461 9.40312 63.5314 9.44981 63.5994C9.46511 63.638 9.50817 63.6608 9.5323 63.6954L9.65421 63.7714C9.75537 63.8227 9.85836 63.8611 9.97041 63.9006C10.0796 63.9371 10.1909 63.9771 10.303 64.0053C10.4166 64.0268 10.5232 64.0683 10.6326 64.0831C10.7429 64.1003 10.8477 64.1212 10.947 64.1397C11.0484 64.147 11.1442 64.1576 11.2339 64.1674C11.3338 64.1836 11.4243 64.1849 11.5037 64.1849C11.512 64.1849 11.52 64.1849 11.5283 64.1849C11.5356 64.1849 11.5426 64.1849 11.5499 64.1849C11.5945 64.1849 11.6352 64.1854 11.671 64.1889C11.7794 64.1962 11.8422 64.1999 11.8422 64.1999C11.8422 64.1999 11.783 64.2175 11.679 64.2491C11.6272 64.2642 11.5626 64.2803 11.4892 64.3005C11.4157 64.3226 11.3307 64.3387 11.2373 64.3425C11.1431 64.3522 11.0412 64.362 10.9335 64.3682Z" fill="#CF6098"/>
<path d="M16.7649 61.6299H19.4234L20.0309 51.0755H16.1592L16.7649 61.6299Z" fill="#F2A586"/>
<path d="M16.7649 61.6299H19.4234L20.0309 51.0755H16.1592L16.7649 61.6299Z" fill="#F7AC80"/>
<path d="M17.8072 61.6299H17.0625C17.0641 61.6004 17.0656 61.5713 17.0672 61.543C17.1216 61.2356 17.4646 61.0938 17.7699 61.0281L17.8072 61.6299Z" fill="#F29065"/>
<path d="M20.0302 51.8447H19.9858L20.0302 51.0733V51.8447Z" fill="#F7BDA7"/>
<path d="M16.7283 60.9922L16.1592 51.0748H20.0309L19.9865 51.8463H17.2004L17.7399 60.5354C17.391 60.5981 16.9573 60.7273 16.7283 60.9922Z" fill="#F29065"/>
<path d="M19.6449 61.406C19.2667 61.0257 18.8009 60.7448 18.2302 60.7842C17.6315 60.8245 16.9576 61.0091 16.6611 61.5453L16.6702 61.82C16.6038 63.8118 18.5814 63.4344 18.5814 63.4344C20.1546 63.2814 19.6449 61.82 19.6449 61.82V61.406Z" fill="white"/>
<path d="M18.2675 60.9699C19.201 60.9297 19.4036 61.4584 19.4036 61.4584C19.6822 61.8898 19.7387 62.7584 19.1951 62.9906C18.7198 63.1929 17.8498 63.3597 17.4244 62.9611C17.0507 62.6106 17.04 62.0049 17.0678 61.5414C17.1689 60.9699 18.2675 60.9699 18.2675 60.9699ZM20.8004 63.4396L19.8417 61.3536C19.8417 61.3536 19.6223 60.5052 18.2685 60.4761C18.2685 60.4761 16.6447 60.515 16.5723 61.3536L16.404 63.3042C16.3412 65.2538 18.0944 65.2437 18.0944 65.2437C21.4214 65.412 20.8004 63.4396 20.8004 63.4396Z" fill="#B23373"/>
<path d="M18.0753 64.6383C19.9668 64.7347 20.6254 64.1626 20.836 63.6258C20.8931 64.1142 20.7867 65.3801 18.094 65.2437C18.094 65.2437 16.3937 65.2494 16.4053 63.3802C16.7501 64.6408 18.0753 64.6383 18.0753 64.6383Z" fill="white"/>
<path d="M18.6818 64.3682C18.5734 64.362 18.4722 64.3522 18.3781 64.3425C18.285 64.3387 18.1988 64.3226 18.1262 64.3005C18.052 64.2803 17.9892 64.2642 17.9363 64.2491C17.8326 64.2175 17.7734 64.1999 17.7734 64.1999C17.7734 64.1999 17.836 64.1962 17.9444 64.1889C17.9802 64.1854 18.0209 64.1849 18.066 64.1849C18.073 64.1849 18.0803 64.1849 18.0876 64.1849C18.0956 64.1849 18.1039 64.1849 18.1122 64.1849C18.1918 64.1849 18.2826 64.1836 18.3828 64.1674C18.4712 64.1576 18.5672 64.147 18.6683 64.1397C18.7687 64.1212 18.8735 64.1003 18.983 64.0831C19.0914 64.0683 19.1998 64.0268 19.3127 64.0053C19.4237 63.9771 19.535 63.9371 19.645 63.9006C19.7562 63.8611 19.861 63.8227 19.9614 63.7714L20.0823 63.6954C20.1082 63.6608 20.1513 63.638 20.1656 63.5994C20.2122 63.5314 20.2312 63.4461 20.2257 63.3638C20.2275 63.3361 20.2086 63.2795 20.198 63.2326C20.1863 63.1841 20.1746 63.1379 20.1648 63.0928C20.0787 62.7356 20.0473 62.4884 20.0473 62.4884C20.0473 62.4884 20.1754 62.7017 20.3305 63.0349C20.3495 63.0772 20.3689 63.12 20.3904 63.1656C20.4094 63.2123 20.4327 63.2499 20.4496 63.3262C20.4773 63.4489 20.474 63.5976 20.4021 63.728C20.3762 63.7983 20.3189 63.8458 20.2732 63.9057C20.2195 63.9493 20.1611 63.9962 20.1012 64.0318C19.9892 64.0933 19.8654 64.1433 19.7479 64.1889C19.5072 64.2692 19.259 64.3269 19.0224 64.3503C18.9049 64.3591 18.7903 64.3646 18.6818 64.3682Z" fill="#CF6098"/>
<path d="M7.91455 44.6272L8.6865 54.1332C8.6865 54.1332 10.7808 55.3563 13.6606 54.1332L14.1392 50.4848H15.4294L16.1586 54.1332C19.0383 55.3563 21.4006 54.1332 21.4006 54.1332L21.6395 44.6272H7.91455Z" fill="#345CA8"/>
<path d="M16.669 28.417H12.8779V26.72H16.669V28.417Z" fill="#F9AC7F"/>
<path d="M16.669 27.2232V26.7198H12.8779V27.7537C14.3681 27.8658 15.6402 27.6256 16.669 27.2232Z" fill="#E99076"/>
<path d="M7.42587 44.4652C7.42587 44.4652 6.06484 38.6903 9.89347 32.6805C9.89347 32.6805 9.48571 31.6901 8.63179 31.9373C8.63179 31.9373 3.45657 37.8351 6.02359 44.7874C6.02359 44.7874 6.87855 45.9372 7.42587 44.4652Z" fill="#F7AC80"/>
<path d="M6.15471 47.6752C5.49897 46.7398 5.42633 45.8187 5.42633 45.8187C5.42633 45.8187 5.29638 44.8421 5.76225 44.3806C5.76225 44.3806 6.46027 43.4761 7.40368 44.0455C7.64103 44.1897 7.75334 44.4914 7.88408 44.723L7.91183 44.7707C8.0641 45.0366 8.23789 45.2955 8.47186 45.4976C8.86692 45.8374 8.59533 46.1349 8.59533 46.1349C8.47186 46.2814 8.25138 46.2667 8.11701 46.1411C7.95307 45.9857 7.79433 45.8213 7.63117 45.6623C7.34298 45.4747 7.34298 45.7308 7.34298 45.7308C7.57929 46.4181 8.03089 47.2002 8.03089 47.2002C8.13854 47.505 7.90638 47.6238 7.90638 47.6238C7.90638 47.6238 7.71573 47.8303 7.27736 47.1712C7.27736 47.1712 6.89579 46.5618 6.73082 45.9136C6.76765 46.3411 7.25687 47.2809 7.25687 47.2809C7.57566 47.6653 7.2164 47.8225 7.2164 47.8225C6.77492 47.932 6.47739 47.0632 6.47739 47.0632C6.1931 46.3009 6.04706 45.9951 6.04706 45.9951L6.50852 47.2326C6.50852 47.2326 6.74171 47.6386 6.53186 47.7571C6.53186 47.7571 6.37052 47.8993 6.15471 47.6752Z" fill="#F7AC80"/>
<path d="M21.9765 44.4673C21.9765 44.4673 23.3375 38.6919 19.5078 32.6821C19.5078 32.6821 19.9156 31.6912 20.7703 31.9389C20.7703 31.9389 25.9457 37.8367 23.3795 44.789C23.3795 44.789 22.523 45.9394 21.9765 44.4673Z" fill="#F7AC80"/>
<path d="M23.247 47.6746C23.9012 46.74 23.9746 45.8189 23.9746 45.8189C23.9746 45.8189 24.1054 44.8423 23.6395 44.3808C23.6395 44.3808 22.9415 43.4763 21.9988 44.0457C21.7597 44.1899 21.6476 44.4921 21.5169 44.724L21.491 44.7707C21.3366 45.0371 21.1646 45.2957 20.9291 45.498C20.5348 45.8376 20.8054 46.1351 20.8054 46.1351C20.9291 46.2816 21.1496 46.2669 21.2847 46.1413C21.4487 45.9859 21.6082 45.8212 21.7695 45.6622C22.0588 45.4757 22.0588 45.731 22.0588 45.731C21.8222 46.4183 21.3698 47.2004 21.3698 47.2004C21.2624 47.5042 21.4954 47.624 21.4954 47.624C21.4954 47.624 21.6871 47.8305 22.1241 47.1714C22.1241 47.1714 22.5052 46.5618 22.6699 45.9138C22.6341 46.3413 22.1441 47.2811 22.1441 47.2811C21.8251 47.6655 22.1853 47.8224 22.1853 47.8224C22.6268 47.9322 22.9244 47.0645 22.9244 47.0645C23.2084 46.3001 23.3537 45.9953 23.3537 45.9953L22.8922 47.2328C22.8922 47.2328 22.66 47.6383 22.8696 47.7573C22.8696 47.7573 23.0302 47.8995 23.247 47.6746Z" fill="#F7AC80"/>
<path d="M20.8144 29.7954C20.4549 28.6471 19.56 28.4603 19.56 28.4603L16.2115 27.7991H14.7843H13.3569L10.0084 28.4603C10.0084 28.4603 9.11349 28.6471 8.75424 29.7954C8.53375 36.2618 8.34206 39.8655 7.96387 45.064C7.96387 45.064 10.7557 46.1994 14.7843 46.0925C18.8127 46.1994 21.6045 45.064 21.6045 45.064C21.4486 42.3474 21.1361 36.4159 20.8144 29.7954Z" fill="#F9AC7F"/>
<path d="M16.9058 27.9389L19.5482 28.4603C19.5482 28.4603 20.4431 28.6471 20.8026 29.7954C21.0553 34.9223 21.1832 38.0241 21.593 45.064C21.593 45.064 18.8009 46.1994 14.7726 46.0925C10.745 46.1994 7.95312 45.064 7.95312 45.064C8.26673 39.5465 8.45842 36.4527 8.74245 29.7954C9.10171 28.6471 9.99688 28.4603 9.99688 28.4603L12.5262 27.9612C12.5262 27.9612 12.562 29.5856 14.6667 29.5428C14.6667 29.5428 16.6685 29.798 16.9058 27.9389Z" fill="#C653B1"/>
<path d="M9.94827 28.4772C9.94827 28.4772 7.57742 28.5667 6.62052 31.584L5.92432 33.3909C5.92432 33.3909 6.97356 35.3257 9.26996 35.2621C9.26996 35.2621 10.6992 30.9248 9.94827 28.4772Z" fill="#9149AA"/>
<path d="M19.4974 28.4772C19.4974 28.4772 21.8682 28.5667 22.8251 31.584L23.5221 33.3909C23.5221 33.3909 22.4729 35.3257 20.1765 35.2621C20.1765 35.2621 18.7475 30.9248 19.4974 28.4772Z" fill="#9149AA"/>
<path d="M4.62303 27.6035C4.62303 27.6035 13.2981 24.6348 24.9755 27.6035L27.2036 13.9623H2.28516L4.62303 27.6035Z" fill="#4A1611"/>
<path d="M1.24707 16.5456L2.03822 29.0361L4.62332 27.6027V14.0464L1.24707 16.5456Z" fill="#902F28"/>
<path d="M28.3518 16.5456L27.5607 29.0361L24.9756 27.6027V14.0464L28.3518 16.5456Z" fill="#902F28"/>
<path d="M27.4093 15.9682C27.4093 22.1355 21.7574 27.1348 14.7849 27.1348C7.81216 27.1348 2.16016 22.1355 2.16016 15.9682C2.16016 9.80112 7.81216 4.80134 14.7849 4.80134C21.7574 4.80134 27.4093 9.80112 27.4093 15.9682Z" fill="#F7AC80"/>
<path d="M0.573185 18.2057C0.635906 19.216 1.34275 19.9955 2.15185 19.9449C2.96001 19.8957 3.56582 19.0355 3.50302 18.0257C3.4403 17.0151 2.73437 16.2364 1.92527 16.2865C1.117 16.3368 0.511398 17.1962 0.573185 18.2057Z" fill="#F7AC80"/>
<path d="M1.294 16.8535C1.3774 16.7954 1.54764 16.7674 1.65158 16.7656C2.18647 16.755 2.57263 17.668 2.03338 17.8006C1.82182 18.0031 2.01898 18.2594 2.01898 18.2594C2.19104 18.4825 2.42309 18.8049 2.35225 19.1069C2.31111 19.2871 2.12022 19.3756 1.95089 19.4124C1.81564 19.4412 1.79497 19.3263 1.90337 19.2773C1.98585 19.2397 2.05841 19.1753 2.11485 19.1066L2.13277 19.076L2.14533 19.055C2.1659 19.0101 2.16774 18.9652 2.15871 18.9219C2.03418 19.0093 1.83346 19.021 1.74571 18.8955C1.65158 18.7593 1.73671 18.5569 1.71077 18.4055C1.68919 18.2996 1.64986 18.1974 1.5997 18.0999C1.3774 17.6452 1.82182 17.5928 1.82182 17.5928C1.8891 17.5964 1.94015 17.6052 1.98414 17.6133C2.21342 17.4968 1.98129 17.1233 1.84695 17.0587C1.69373 16.9824 1.49747 16.997 1.37911 17.1241C1.26015 17.2522 1.20534 17.4563 1.20625 17.6268C1.20809 17.8382 1.24739 18.0496 1.32186 18.2459C1.36484 18.357 1.42046 18.489 1.46435 18.5997C1.51368 18.7266 1.3774 18.7735 1.32723 18.6477C1.2243 18.3803 1.0253 17.986 0.99661 17.6218C0.973421 17.3194 1.03695 17.0346 1.294 16.8535Z" fill="#E99076"/>
<path d="M28.9957 18.2057C28.933 19.216 28.2261 19.9955 27.4178 19.9449C26.6088 19.8957 26.0039 19.0355 26.0659 18.0257C26.1284 17.0151 26.8347 16.2364 27.6446 16.2865C28.4528 16.3368 29.0575 17.1962 28.9957 18.2057Z" fill="#F7AC80"/>
<path d="M28.2754 16.8535C28.1922 16.7954 28.021 16.7674 27.918 16.7656C27.3821 16.755 26.9959 17.668 27.5362 17.8006C27.7468 18.0031 27.5504 18.2594 27.5504 18.2594C27.3785 18.4825 27.1466 18.8049 27.2163 19.1069C27.2584 19.2871 27.4485 19.3756 27.6179 19.4124C27.7541 19.4412 27.7746 19.3263 27.6661 19.2773C27.5836 19.2397 27.5102 19.1753 27.4537 19.1066L27.4368 19.076L27.4233 19.055C27.4036 19.0101 27.4018 18.9652 27.4106 18.9219C27.5344 19.0093 27.7359 19.021 27.8231 18.8955C27.918 18.7593 27.8319 18.5569 27.8589 18.4055C27.8794 18.2996 27.9198 18.1974 27.9691 18.0999C28.1911 17.6452 27.7468 17.5928 27.7468 17.5928C27.6796 17.5964 27.6296 17.6052 27.5855 17.6133C27.3562 17.4968 27.5881 17.1233 27.7219 17.0587C27.8757 16.9824 28.071 16.997 28.1904 17.1241C28.3094 17.2522 28.3642 17.4563 28.3631 17.6268C28.3605 17.8382 28.3211 18.0496 28.2467 18.2459C28.2046 18.357 28.1491 18.489 28.1053 18.5997C28.056 18.7266 28.1911 18.7735 28.2412 18.6477C28.3452 18.3803 28.5442 17.986 28.5719 17.6218C28.5963 17.3194 28.5317 17.0346 28.2754 16.8535Z" fill="#E99076"/>
<path d="M15.6924 19.9717C15.5749 19.9717 15.481 19.8767 15.481 19.7603C15.481 19.3759 15.1689 19.0641 14.7847 19.0641C14.4011 19.0641 14.0893 19.3759 14.0893 19.7603C14.0893 19.8767 13.9944 19.9717 13.8779 19.9717C13.7614 19.9717 13.6665 19.8767 13.6665 19.7603C13.6665 19.1429 14.1682 18.641 14.7847 18.641C15.4018 18.641 15.903 19.1429 15.903 19.7603C15.903 19.8767 15.8088 19.9717 15.6924 19.9717Z" fill="#EB8F73"/>
<mask id="mask0_16162_202343" style="mask-type:luminance" maskUnits="userSpaceOnUse" x="6" y="18" width="4" height="3">
<path d="M7.91893 20.8164C6.91793 20.8164 6.10889 20.3075 6.10889 19.6803C6.10889 19.052 6.91793 18.5423 7.91893 18.5423C8.91889 18.5423 9.72974 19.052 9.72974 19.6803C9.72974 20.3075 8.91889 20.8164 7.91893 20.8164Z" fill="white"/>
</mask>
<g mask="url(#mask0_16162_202343)">
<path d="M6.10889 20.8164H9.72974V18.5424H6.10889V20.8164Z" fill="#F69280"/>
</g>
<path d="M21.6499 20.8164C20.6499 20.8164 19.8398 20.3075 19.8398 19.6803C19.8398 19.052 20.6499 18.5423 21.6499 18.5423C22.6488 18.5423 23.4607 19.052 23.4607 19.6803C23.4607 20.3075 22.6488 20.8164 21.6499 20.8164Z" fill="#F69280"/>
<path d="M14.7846 23.418C13.6664 23.3391 12.8018 22.5617 12.7883 22.5516C12.7318 22.5091 12.7139 22.4183 12.7489 22.3495C12.7839 22.28 12.8591 22.259 12.9154 22.3015C12.9344 22.3153 14.7846 23.0335 16.6546 22.3015C16.7207 22.2756 16.7853 22.28 16.8211 22.3495C16.8561 22.4183 16.8382 22.5091 16.7817 22.5516C16.1197 23.0452 15.3768 23.418 14.7846 23.418Z" fill="#F37C74"/>
<path d="M14.7197 24.376C14.225 24.376 13.9472 24.2144 13.9311 24.205C13.83 24.1438 13.7978 24.0131 13.8577 23.9127C13.9179 23.8123 14.0476 23.7796 14.148 23.839C14.1713 23.8517 14.6273 24.0984 15.4615 23.8206C15.5728 23.783 15.6937 23.8429 15.7303 23.955C15.7682 24.0655 15.7072 24.1869 15.5959 24.2237C15.2553 24.3376 14.9617 24.376 14.7197 24.376Z" fill="#F59679"/>
<path d="M7.91174 13.7114C8.29253 13.3472 8.76825 13.1838 9.28263 13.1122C9.51375 13.0798 9.63566 12.7903 9.58015 12.5887C9.51297 12.3433 9.28626 12.2598 9.0567 12.2912C8.39914 12.3836 7.79346 12.6487 7.31047 13.1104C6.91282 13.4901 7.51565 14.0901 7.91174 13.7114Z" fill="#902F28"/>
<path d="M21.6571 13.7114C21.2756 13.3472 20.7996 13.1838 20.2855 13.1122C20.0551 13.0798 19.9332 12.7903 19.989 12.5887C20.0562 12.3433 20.2818 12.2598 20.5112 12.2912C21.1697 12.3836 21.7754 12.6487 22.2584 13.1104C22.6563 13.4901 22.0532 14.0901 21.6571 13.7114Z" fill="#902F28"/>
<path d="M2.69977 19.4167C2.69977 19.7145 2.45791 19.957 2.15951 19.957C1.8611 19.957 1.61914 19.7145 1.61914 19.4167C1.61914 19.1179 1.8611 18.8764 2.15951 18.8764C2.45791 18.8764 2.69977 19.1179 2.69977 19.4167Z" fill="white"/>
<path d="M2.28952 19.7052C2.05292 19.7052 1.8611 19.5137 1.8611 19.2777C1.8611 19.0868 1.98745 18.9319 2.16041 18.8764H2.15951C1.8611 18.8764 1.61914 19.1179 1.61914 19.4167C1.61914 19.7145 1.8611 19.957 2.15951 19.957C2.45791 19.957 2.69977 19.7145 2.69977 19.4167L2.69635 19.3786C2.64973 19.5648 2.48933 19.7052 2.28952 19.7052Z" fill="#E9E9E9"/>
<path d="M27.7439 19.4167C27.7439 19.7145 27.5022 19.957 27.2036 19.957C26.9056 19.957 26.6636 19.7145 26.6636 19.4167C26.6636 19.1179 26.9056 18.8764 27.2036 18.8764C27.5022 18.8764 27.7439 19.1179 27.7439 19.4167Z" fill="white"/>
<path d="M27.3328 19.7052C27.0973 19.7052 26.9056 19.5137 26.9056 19.2777C26.9056 19.0868 27.0317 18.9319 27.2036 18.8764C26.9056 18.8764 26.6636 19.1179 26.6636 19.4167C26.6636 19.7145 26.9056 19.957 27.2036 19.957C27.5022 19.957 27.7439 19.7145 27.7439 19.4167L27.7406 19.3786C27.6939 19.5648 27.5336 19.7052 27.3328 19.7052Z" fill="#E9E9E9"/>
<path d="M9.27488 18.7096C9.07048 18.7096 9.07048 19.0264 9.27488 19.0264C9.47902 19.0264 9.47902 18.7096 9.27488 18.7096Z" fill="#C97C66"/>
<path d="M7.79686 18.8507C7.59245 18.8507 7.59245 19.168 7.79686 19.168C8.00126 19.168 8.00126 18.8507 7.79686 18.8507Z" fill="#C97C66"/>
<path d="M8.71141 19.5195C8.50701 19.5195 8.50701 19.8359 8.71141 19.8359C8.91659 19.8359 8.91659 19.5195 8.71141 19.5195Z" fill="#C97C66"/>
<path d="M10.0847 19.3425C9.88061 19.3425 9.88061 19.6592 10.0847 19.6592C10.2891 19.6592 10.2891 19.3425 10.0847 19.3425Z" fill="#C97C66"/>
<path d="M7.51395 19.7296C7.3098 19.7296 7.3098 20.0469 7.51395 20.0469C7.71835 20.0469 7.71835 19.7296 7.51395 19.7296Z" fill="#C97C66"/>
<path d="M9.09842 20.3986C8.89428 20.3986 8.89428 20.7148 9.09842 20.7148C9.3036 20.7148 9.3036 20.3986 9.09842 20.3986Z" fill="#C97C66"/>
<path d="M21.2446 18.7096C21.0402 18.7096 21.0402 19.0264 21.2446 19.0264C21.4488 19.0264 21.4488 18.7096 21.2446 18.7096Z" fill="#C97C66"/>
<path d="M19.7659 18.8507C19.5618 18.8507 19.5618 19.168 19.7659 19.168C19.9703 19.168 19.9703 18.8507 19.7659 18.8507Z" fill="#C97C66"/>
<path d="M20.6819 19.5195C20.4778 19.5195 20.4778 19.8359 20.6819 19.8359C20.8863 19.8359 20.8863 19.5195 20.6819 19.5195Z" fill="#C97C66"/>
<path d="M22.055 19.3425C21.8508 19.3425 21.8508 19.6592 22.055 19.6592C22.2594 19.6592 22.2594 19.3425 22.055 19.3425Z" fill="#C97C66"/>
<path d="M19.4853 19.7296C19.2809 19.7296 19.2809 20.0469 19.4853 20.0469C19.6895 20.0469 19.6895 19.7296 19.4853 19.7296Z" fill="#C97C66"/>
<path d="M21.0693 20.3986C20.8649 20.3986 20.8649 20.7148 21.0693 20.7148C21.2735 20.7148 21.2735 20.3986 21.0693 20.3986Z" fill="#C97C66"/>
<path d="M11.4673 16.802C11.4673 18.038 10.4653 19.04 9.22925 19.04C7.99324 19.04 6.99121 18.038 6.99121 16.802C6.99121 15.5657 7.99324 14.564 9.22925 14.564C10.4653 14.564 11.4673 15.5657 11.4673 16.802Z" fill="white"/>
<path d="M11.0489 16.8023C11.0489 17.6407 10.4036 18.3203 9.60775 18.3203C8.81115 18.3203 8.16553 17.6407 8.16553 16.8023C8.16553 15.9637 8.81115 15.2844 9.60775 15.2844C10.4036 15.2844 11.0489 15.9637 11.0489 16.8023Z" fill="#3BBEC5"/>
<path d="M9.2288 19.0408C9.2288 19.0408 9.20105 19.0415 9.14943 19.0436C9.09781 19.0423 9.02258 19.0563 8.92531 19.0431C8.827 19.0384 8.70924 19.0216 8.57539 18.9925C8.4418 18.9614 8.29343 18.9142 8.13936 18.8403C7.98839 18.7627 7.8273 18.6685 7.67764 18.5407C7.52252 18.419 7.38193 18.2621 7.25846 18.0844C7.1355 17.9062 7.03745 17.702 6.96664 17.4849C6.89972 17.2663 6.86807 17.0349 6.86133 16.8027C6.86703 16.5791 6.89946 16.3376 6.96664 16.1203C7.03668 15.9029 7.1355 15.699 7.2582 15.5205C7.38167 15.3431 7.522 15.1859 7.67712 15.064C7.82704 14.9361 7.98839 14.8422 8.13936 14.7647C8.29317 14.6908 8.4418 14.6433 8.57539 14.6124C8.7095 14.5834 8.82674 14.5665 8.92453 14.5621C9.02077 14.5491 9.09833 14.5626 9.14969 14.5616C9.20131 14.5637 9.2288 14.5647 9.2288 14.5647C9.2288 14.5647 9.20131 14.5683 9.15021 14.5756C9.09937 14.5849 9.02388 14.5883 8.93128 14.6122C8.83738 14.629 8.72636 14.6604 8.60263 14.7048C8.4802 14.7522 8.34764 14.8158 8.20835 14.8933C8.07321 14.9776 7.93106 15.0765 7.80318 15.2051C7.66985 15.3281 7.55702 15.4829 7.44963 15.6453C7.34354 15.8103 7.26935 15.9989 7.20632 16.1924C7.14925 16.39 7.12513 16.5869 7.12046 16.8027C7.12409 17.0097 7.14899 17.2165 7.20632 17.4128C7.26883 17.6066 7.34354 17.7952 7.44937 17.9601C7.55676 18.1225 7.66933 18.2776 7.80292 18.4003C7.9308 18.529 8.07295 18.6278 8.20809 18.7121C8.34739 18.7897 8.47994 18.8535 8.60263 18.9007C8.72662 18.945 8.83712 18.9762 8.93024 18.993C9.02233 19.0169 9.09988 19.0205 9.15021 19.0296C9.20131 19.0369 9.2288 19.0408 9.2288 19.0408Z" fill="#EB8F73"/>
<path d="M18.1025 16.802C18.1025 18.038 19.1043 19.04 20.3406 19.04C21.5766 19.04 22.5784 18.038 22.5784 16.802C22.5784 15.5657 21.5766 14.564 20.3406 14.564C19.1043 14.564 18.1025 15.5657 18.1025 16.802Z" fill="white"/>
<path d="M18.5205 16.8023C18.5205 17.6407 19.1661 18.3203 19.962 18.3203C20.7585 18.3203 21.4042 17.6407 21.4042 16.8023C21.4042 15.9637 20.7585 15.2844 19.962 15.2844C19.1661 15.2844 18.5205 15.9637 18.5205 16.8023Z" fill="#3BBEC5"/>
<path d="M20.3403 19.0408C20.3403 19.0408 20.3676 19.0369 20.4187 19.0296C20.4693 19.0205 20.5465 19.0169 20.6386 18.993C20.732 18.9762 20.8423 18.945 20.9662 18.9007C21.0889 18.8535 21.2215 18.7897 21.3608 18.7121C21.4962 18.6278 21.6381 18.529 21.766 18.4003C21.8995 18.2776 22.0121 18.1225 22.1198 17.9601C22.2256 17.7952 22.3003 17.6066 22.3628 17.4128C22.4201 17.2196 22.4448 17.0032 22.4487 16.8092C22.4437 16.5804 22.4199 16.3929 22.3626 16.1924C22.2998 15.9989 22.2256 15.8103 22.1195 15.6453C22.0121 15.4829 21.899 15.3281 21.7657 15.2051C21.6378 15.0765 21.4959 14.9776 21.3608 14.8933C21.2215 14.8158 21.0887 14.7522 20.9662 14.7048C20.8425 14.6604 20.7315 14.629 20.6376 14.6122C20.545 14.5883 20.4698 14.5849 20.4187 14.5756C20.3676 14.5683 20.3403 14.5647 20.3403 14.5647C20.3403 14.5647 20.3676 14.5637 20.4192 14.5616C20.4705 14.5626 20.5481 14.5491 20.6443 14.5621C20.7421 14.5665 20.8594 14.5834 20.9937 14.6124C21.1271 14.6433 21.2757 14.6908 21.4295 14.7647C21.5805 14.8422 21.7418 14.9361 21.8918 15.064C22.0469 15.1859 22.1875 15.3431 22.3109 15.5205C22.4336 15.699 22.5322 15.9029 22.6025 16.1203C22.6694 16.3345 22.7024 16.5859 22.7075 16.796C22.7013 17.0414 22.6694 17.2631 22.6022 17.4849C22.5317 17.702 22.4334 17.9062 22.3107 18.0846C22.1872 18.2621 22.0464 18.419 21.8915 18.5409C21.7416 18.6685 21.5805 18.7627 21.4295 18.8405C21.2757 18.9142 21.1271 18.9614 20.9937 18.9925C20.8596 19.0216 20.7419 19.0384 20.6436 19.0431C20.5463 19.0563 20.4711 19.0423 20.4194 19.0436C20.3678 19.0415 20.3403 19.0408 20.3403 19.0408Z" fill="#EB8F73"/>
<path d="M25.2603 13.3176C25.8652 13.3534 26.1796 14.1411 26.5497 14.622C26.6439 14.745 27.4664 16.2731 27.4036 16.2842C27.4036 16.2842 27.8355 16.2046 28.3982 16.6113C28.3613 16.5844 28.5172 15.6876 28.5227 15.6202C28.5828 14.7704 28.5774 13.9152 28.5416 13.0649C28.4459 10.7506 28.1678 8.33126 26.9002 6.33497C25.6771 4.40872 23.9441 2.7328 21.9263 1.66514C20.1147 0.705903 18.0922 0.163773 16.0487 0.0307045C14.4913 -0.0699398 12.9368 0.102554 11.3965 0.326409C11.3958 0.326409 -0.878615 2.11259 1.24679 16.546C1.24679 16.546 1.34801 16.3102 2.16611 16.2985C2.14637 16.299 2.57558 14.855 2.60059 14.7691C3.50735 11.6686 6.35602 10.8243 6.35602 10.8243C6.35602 10.8243 10.1556 9.55533 10.9908 7.99716C10.9908 7.99716 11.7433 12.5116 25.2603 13.3176Z" fill="#902F28"/>
<path d="M19.4571 8.63867C14.834 8.08228 14.0195 5.80273 14.0195 5.80273C13.8843 5.70857 13.7619 5.66863 13.6516 5.66863C13.0384 5.66863 12.799 6.90204 12.799 6.90204C12.9316 5.32753 11.5376 4.70369 11.5376 4.70369L11.9487 1.26804C11.9487 1.26804 12.4315 1.21771 13.1946 1.21771C15.422 1.21771 20.0384 1.64727 22.0145 5.01522C19.9422 4.0936 17.7975 3.95197 16.6746 3.95197C16.1763 3.95197 15.8796 3.97972 15.8796 3.97972C20.8827 6.42086 21.3766 7.95751 21.3766 7.95751C18.8945 6.09144 15.6108 5.52233 15.6108 5.52233C16.202 7.39852 19.4571 8.63867 19.4571 8.63867Z" fill="#9A3C33"/>
<path d="M4.10791 7.68652C5.17132 5.43629 7.63373 3.78085 7.63373 3.78085C5.73238 4.2034 4.3596 5.5761 4.3596 5.5761C7.84513 1.42219 11.5376 1.28057 11.5376 1.28057L10.9373 6.82767C10.9373 6.82767 10.6777 6.23522 9.50083 6.23522C8.77298 6.23522 7.69417 6.46167 6.1085 7.1955C7.08356 5.89309 8.97115 4.80182 8.97115 4.80182C6.61302 5.50607 4.10791 7.68652 4.10791 7.68652Z" fill="#9A3C33"/>
<path d="M27.2037 13.9609C26.3428 11.5551 20.7617 9.66099 20.7617 9.66099C21.101 9.56813 21.4416 9.52922 21.7739 9.52922C23.5253 9.52922 25.0544 10.6111 25.0544 10.6111C24.3268 9.02652 22.0439 7.68572 22.0439 7.68572C28.1186 9.39044 27.8901 12.8959 27.8901 12.8959C27.452 11.4313 25.6878 11.1242 25.6878 11.1242C26.8499 12.5875 27.2037 13.9609 27.2037 13.9609Z" fill="#9A3C33"/>
<path d="M2.28532 13.7549C2.28532 13.7549 2.39193 12.3399 3.27729 10.6956C3.27729 10.6956 1.59448 11.3096 1.42163 12.8283C1.42163 12.8283 0.578417 9.41733 6.25916 6.66932C6.25916 6.66932 4.24841 8.39091 3.81037 10.0785C3.81037 10.0785 5.49214 8.37249 7.54497 8.37249C7.6521 8.37249 7.76027 8.37716 7.86921 8.38702C7.86921 8.38702 2.70837 11.2349 2.28532 13.7549Z" fill="#9A3C33"/>
</svg>
