<svg width="103" height="35" viewBox="0 0 103 35" fill="none" xmlns="http://www.w3.org/2000/svg">
<path d="M103 34.5391H0.729492C4.66465 29.7224 6.91045 30.6662 9.38189 28.0048C10.572 26.8706 12.0567 25.3456 12.6551 24.9417C12.8786 24.7991 14.0263 24.4922 14.9518 23.9196C16.2047 23.1947 18.3013 20.9796 18.9418 21.1908C19.106 21.1451 19.2951 20.9262 19.5058 20.6454C19.8579 20.1654 20.1674 19.5754 20.176 19.5613C22.617 19.1585 21.5509 18.992 22.4164 18.0776C23.521 17.8512 23.6146 16.7497 24.207 16.1064C24.5074 15.8767 25.0464 15.7776 25.2871 15.1093C25.4417 15.0614 25.9061 15.0712 26.2345 14.9841C27.1212 14.8197 27.6856 14.4529 28.2627 14.0905C28.8367 15.3335 29.1619 14.0872 29.5082 13.6932C30.9177 13.0781 30.3825 13.3949 31.1787 12.3728C31.4549 12.2879 31.638 12.8626 31.9187 12.8637C33.414 12.0778 34.6608 11.8579 34.7601 11.994C35.0939 12.0833 34.985 12.2639 36.1802 11.0807C36.7733 11.2103 37.4179 12.5546 37.8028 11.1515C38.7887 10.9382 38.9169 10.4516 39.5946 9.65264C39.9165 9.14757 41.3986 7.76516 41.9601 6.83231C42.5237 5.86899 43.3119 6.50142 43.6197 5.36938C43.6797 1.97543 47.0751 0.785697 49.7956 0.982716C50.2708 0.974008 50.5796 1.66084 50.9822 1.77622C51.8426 1.90357 53.1709 1.69569 53.5933 2.58826C53.7759 2.98883 54.1222 2.84187 54.4616 3.28163C54.6222 3.50259 54.5465 3.75295 54.895 4.03161C55.6725 4.31135 56.1808 5.39986 55.9598 5.98547C56.3754 6.20752 57.3604 6.67775 57.8709 6.79313C58.9165 7.51481 59.0382 8.60658 59.8585 8.99626C60.0397 9.77454 60.0899 10.838 61.2007 10.6671C61.7576 10.5844 62.2364 10.4287 62.8154 10.1468C64.1139 9.48717 63.7459 9.97048 64.1952 10.6377C64.4786 10.8456 65.1814 10.8152 65.3192 10.9447C65.1031 13.2273 66.3277 12.7342 67.5169 13.4722C72.4545 15.9017 67.8856 12.2618 76.0835 16.0204C78.0658 16.5385 78.6825 14.6706 79.7104 17.3266C80.5337 16.6419 81.1622 16.9891 81.7058 17.061C84.3821 17.0327 83.7297 19.423 84.9166 20.4005C89.2012 21.0144 87.0305 20.5409 88.0394 22.977C90.509 23.1446 90.9295 21.9886 93.129 23.9556C93.5751 24.4291 102.997 34.5358 103 34.5391Z" fill="#F09F50"/>
<path d="M21.2596 28.0943C22.439 26.1557 23.6538 24.6143 25.0724 22.5636C25.9574 20.7817 24.8912 19.396 27.1621 18.289C25.9319 19.6355 26.3541 20.6184 26.2774 21.8387C26.2949 22.7193 25.7084 23.712 24.6751 25.0574C24.7573 26.1219 27.2573 22.6953 27.9363 22.2936C28.0934 22.1641 28.1048 22.2686 28.0378 22.4275C26.8909 24.5 26.9173 25.0889 25.9876 25.9369C24.5316 27.2931 21.3433 29.2601 21.9121 29.8936C24.0679 30.686 27.5669 29.0075 30.0493 28.0681C31.0453 27.6404 34.3522 26.6009 34.4 26.2536C33.8495 25.0051 31.8229 24.8538 32.1638 22.0204C32.8241 17.8819 31.8552 19.4592 31.0508 17.0231C31.0281 16.2209 31.76 15.2619 31.8109 14.8711C30.8715 12.5189 31.6299 13.1959 32.7015 14.4499C33.2718 15.2772 33.4422 14.9854 33.4493 13.9753C33.4569 13.3407 33.4203 12.6963 33.6434 12.9793C34.6213 16.4429 33.8485 17.957 34.9867 18.4839C35.1066 18.7266 35.0721 18.9606 35.0815 19.2687C35.106 22.0879 34.7168 25.3229 36.3174 27.4738C37.5665 29.5028 38.6497 28.5504 40.2134 28.9825C41.8794 30.2266 49.9732 33.4062 48.2374 33.33C47.6792 33.2244 45.903 32.2992 45.3926 32.3188C43.1037 32.2045 39.6949 32.433 38.6695 31.6994C37.685 31.1551 37.9289 30.3322 37.1697 29.6421C35.4455 27.8406 31.9657 30.3268 31.3951 29.6378C31.7606 28.8867 28.636 31.6711 27.4343 31.6678C27.19 30.7611 24.0752 31.448 21.8796 31.1671C20.2432 30.7034 20.1599 31.4806 18.1322 33.097C17.7313 33.4301 17.4897 33.5934 17.5881 33.3757C18.7022 31.7125 20.7676 28.7528 21.2596 28.0943Z" fill="#FFC98F"/>
<path d="M39.4856 10.7791C40.2971 9.67539 41.4266 9.22695 41.8482 8.63045C42.2699 8.03395 42.0998 7.70413 42.4687 7.21648C42.8376 6.72774 43.4934 6.61889 43.8242 5.58808C44.1551 4.55727 44.8929 2.98328 45.5253 2.65782C46.1577 2.33236 44.9752 4.68571 44.6589 5.12003C44.3427 5.55325 43.9914 8.5586 44.505 9.20952C44.7151 9.4762 42.7617 9.72112 42.4455 9.99216C42.1293 10.2632 41.4411 12.3945 41.0898 13.7083C40.7385 15.0232 40.2231 15.3356 40.2739 14.6967C40.3498 13.742 40.9871 11.9253 40.8294 11.7305C40.5659 11.405 38.6741 11.8829 39.4856 10.7791Z" fill="#FFC98F"/>
<path d="M45.1563 5.53331C44.9273 6.07974 44.3657 7.40551 44.6556 7.89425C44.9454 8.38299 45.2301 9.27774 45.0088 9.87533C44.7874 10.4718 45.1878 11.0759 45.1563 11.4482C45.1427 11.6093 41.9571 15.2743 41.5927 16.1331C41.4059 16.5729 45.6492 12.7076 45.9248 12.5106C46.6967 11.9598 47.085 11.1413 46.7372 10.2008C46.3641 9.19066 45.6555 5.75101 45.6555 5.75101C45.6555 5.75101 45.3329 5.11206 45.1563 5.53331Z" fill="#D6832D"/>
<path d="M47.9008 12.5097C47.7828 10.5635 47.3483 6.29872 47.0777 3.94538C46.4009 2.33548 45.9452 3.51759 45.8201 4.43193C44.9125 8.65423 46.5436 8.82841 46.3673 10.6429C46.3835 12.4999 44.3191 13.4839 43.4844 14.2535C42.3954 15.2114 40.2035 17.371 41.3034 17.2164C41.4844 17.3144 42.905 15.846 43.1128 15.6598C43.733 15.2168 45.5784 14.4168 45.6936 14.7226C44.5692 16.8452 43.8664 18.6064 42.1462 20.3295C42.1652 21.615 44.713 18.4148 44.8136 17.9326C45.1525 17.4265 45.9518 17.2382 46.0522 17.1456C47.0632 16.2738 47.9314 13.6766 47.9008 12.5097Z" fill="#FFC98F"/>
<path d="M58.138 31.7115C58.136 31.7093 54.8328 28.5625 53.5148 27.1126C52.5986 26.0165 51.25 24.1442 49.9241 23.0928C49.446 22.468 48.4668 20.7122 48.7444 19.6074C48.7857 18.8443 48.6107 17.8821 49.0384 17.5261C49.6998 20.944 49.4246 22.2513 50.5912 22.0652C50.2305 20.9549 50.3185 20.4509 50.4448 19.4811C50.2856 19.0555 50.0886 17.1321 50.4835 16.6826C50.7328 17.0276 50.6951 18.8694 50.9792 19.4419C51.1365 19.4223 51.1807 18.7246 51.204 18.2141C51.1923 16.6619 51.775 18.9445 51.988 19.6378C52.2376 20.4052 50.9187 22.1632 51.6732 23.2451C52.2351 24.0463 53.2931 24.9127 53.2936 25.1479C54.6329 27.6852 55.5431 27.2617 56.3049 28.2054C56.6777 28.7519 59.9811 33.4597 58.138 31.7115Z" fill="#D6832D"/>
<path d="M31.8581 12.8592C31.589 12.734 32.4059 14.0261 32.8802 14.1066C33.3545 14.1882 33.2472 13.1847 32.7723 13.0758C32.2973 12.967 31.9959 12.9223 31.8581 12.8592Z" fill="#D6832D"/>
<path d="M32.8011 25.7965C33.1999 26.2515 31.9344 25.5918 30.91 25.7747C29.0564 26.4779 24.2384 29.8131 25.8508 28.2206C28.933 25.5418 30.0297 24.2889 29.7725 21.6068C29.876 20.7981 26.0439 15.8857 29.39 18.4458C29.5981 18.5024 29.1687 17.3976 29.9299 17.833C30.1308 17.9244 30.2701 17.9527 30.1171 17.3464C29.8344 16.0195 29.7316 17.0852 29.4389 17.1973C29.0551 17.4259 28.9737 16.2928 29.005 15.8519C28.4984 16.1317 28.7425 16.2677 28.4212 16.8882C27.6627 17.3628 27.1131 18.1051 26.4745 18.5569C25.7799 16.9742 25.8326 16.9666 26.8085 15.9129C27.0275 15.73 26.8566 15.0551 26.8816 14.9594C27.279 14.4684 27.4662 15.41 27.3619 15.9249C27.4101 16.9404 28.1067 14.1179 28.3036 14.1071C28.4013 14.4064 28.5834 14.8821 28.9641 14.5185C30.7049 14.6524 29.8606 15.0214 29.7471 15.6995C31.0929 16.6825 30.6736 19.0151 30.7109 20.3191C30.9366 22.4765 31.6703 24.0941 32.8011 25.7965Z" fill="#D6832D"/>
<path d="M25.2279 18.127C24.9114 17.6601 24.5368 16.1079 24.7531 15.8161C23.6537 16.011 24.388 17.5588 24.4007 18.1934C25.2892 18.1238 24.9042 19.3091 24.8243 19.8817C24.166 19.2253 24.4516 20.3084 24.2395 20.3694C23.796 20.4368 23.0889 20.7035 22.8203 20.1571C22.6887 19.9775 22.6345 20.0123 22.5055 20.1854C22.241 20.7688 22.0159 20.9745 21.6973 21.2935C20.9691 22.4244 21.9552 24.1715 21.8584 24.695C21.2415 26.9972 21.3388 25.1794 20.5519 25.4995C20.4226 25.9708 19.7893 27.99 20.8359 27.3064C20.107 27.8125 18.9416 28.8074 19.284 27.8397C19.6138 25.8151 20.1546 25.3264 20.5061 24.0964C20.7922 23.1886 20.997 22.4995 20.8192 21.7322C20.7883 21.2402 20.7644 20.6154 20.5129 20.4749C19.7637 20.4717 20.0225 20.9441 20.1207 21.411C19.8405 21.7507 18.3787 20.6774 18.2984 21.6636C18.4104 22.1349 18.5617 22.5365 18.4994 23.0133C18.7168 23.5042 18.7743 23.8645 18.7105 24.473C18.6981 24.6983 18.8783 24.8311 18.8831 25.0379C18.4904 25.3765 18.1736 25.5593 18.3475 25.961C18.5132 26.5292 18.6689 27.4882 18.7952 27.8768C18.3614 28.5059 17.9385 29.269 17.7996 30.0298C16.9371 32.2003 14.0748 32.7696 12.2539 33.1897C12.0865 33.4847 10.5233 34.4557 10.2979 34.5351C10.3744 34.4959 15.3694 34.6037 15.2598 34.5079C16.1139 33.7645 18.3985 30.4141 18.5648 30.1125C19.3117 29.0371 22.669 25.7509 21.7548 26.5836C22.4093 25.7879 23.1862 24.1323 23.6688 23.1102C23.5514 22.0391 23.9238 21.2554 24.5726 20.6513C24.7468 20.3955 24.9415 20.3781 24.8938 20.0188C25.4496 19.1426 26.5469 18.5766 25.2279 18.127Z" fill="#D6832D"/>
<path d="M12.9033 26.5076C13.2365 26.2518 12.8686 25.5323 12.935 25.3429C13.0002 25.3473 13.0758 25.356 13.0843 25.1524C12.9633 24.5559 13.4715 24.6974 13.7465 24.5167C13.9275 24.889 13.3215 27.0399 12.9033 26.5076Z" fill="#D6832D"/>
<path d="M10.1365 33.5896C10.4272 32.4978 10.1947 32.3313 11.0167 31.8175C11.0895 31.1655 11.4344 30.6038 11.7556 30.0248C11.8782 29.622 11.9005 29.0886 12.0112 29.2759C12.6383 30.63 11.5905 30.9881 11.3699 31.8502C11.3456 32.6295 11.1276 32.98 10.4744 33.6375C9.40284 34.9948 9.73908 34.2982 10.1365 33.5896Z" fill="#D6832D"/>
<path d="M3.68846 34.5394C4.54337 32.7118 4.71176 33.5369 5.21389 33.0079C5.45107 31.6157 5.48612 32.0739 6.21324 31.313C6.43987 30.9353 7.49539 29.8664 7.59531 29.9698C7.3123 30.5751 6.04257 32.9959 6.03538 33.0862C3.67622 34.522 5.06999 34.6167 3.68846 34.5394Z" fill="#D6832D"/>
<path d="M3.78936 34.3295C3.38806 33.2214 4.1101 32.847 4.42501 32.3354C4.16399 32.5215 3.76558 34.9717 3.78936 34.3295Z" fill="#D6832D"/>
<path d="M45.4549 29.5022C46.0741 29.6568 52.6021 32.9952 52.7679 33.5928C51.3949 33.2281 47.5586 30.8487 46.4035 30.4067C46.3584 30.4198 50.5942 32.8167 50.527 33.5199C48.4749 32.7938 47.4294 31.3211 45.3747 30.1792C44.4041 29.6426 42.916 29.2671 45.4549 29.5022Z" fill="#D6832D"/>
<path d="M57.7675 27.9086C57.6598 28.0599 57.5796 28.1981 57.5217 28.3265C56.6948 27.188 56.8997 27.1052 56.3039 26.1343C55.5189 24.7225 54.5012 23.856 55.0641 23.0081C53.7582 22.318 54.2017 22.3049 54.0327 20.9672C53.8182 20.4055 54.462 19.6185 54.4465 18.8217C54.2894 17.7354 54.4352 16.267 54.3607 15.0425C54.0535 14.2054 54.165 12.2831 53.57 11.9348C52.7373 11.6169 52.6723 11.0357 52.1536 9.53354C51.356 7.89752 51.2047 6.72303 50.8533 4.44588C50.8621 3.88203 50.9707 3.94626 51.608 4.17811C52.5342 4.5297 52.1898 6.0068 52.95 6.366C53.0103 6.10585 52.7082 5.73684 52.8446 5.37872C53.1528 6.23755 53.8775 7.6918 53.8224 8.11849C53.2448 9.96895 54.6019 11.8597 54.9091 13.7689C55.2808 14.7747 55.3952 16.2072 55.7236 17.5613C55.8454 17.9836 56.2045 18.3199 56.1424 18.8141C56.0742 19.624 55.1706 19.7731 55.709 21.3394C56.3833 23.007 56.5206 23.9126 57.6495 25.1252C57.886 25.5922 58.3275 27.8117 57.7675 27.9086ZM71.3244 22.4497C71.5749 22.6652 71.6639 22.921 71.781 23.0571C71.8947 23.5208 72.0917 24.0378 72.2291 24.3383C74.3898 31.6835 74.9581 29.0994 81.7612 34.5397H103C102.889 34.4907 98.9023 31.1196 97.6729 31.1131C96.5388 30.9825 94.6517 31.2644 93.6491 30.9618C92.9389 30.7691 92.0747 29.1995 90.9941 28.2558C90.1247 27.4198 89.887 27.6745 88.4658 27.1662C84.2228 25.9732 85.1862 26.1463 81.2397 19.4531C79.794 17.6168 81.2941 21.568 83.0452 24.3372C84.0144 26.1974 86.2573 28.1872 86.7183 30.189C86.3741 30.5993 85.5982 28.6923 84.844 27.8868C82.4718 25.8458 81.6731 30.3152 79.0807 26.0211C77.9197 24.6757 77.5973 24.815 76.6696 23.1692C75.3145 22.7621 80.2636 29.2844 76.24 26.8886C74.9183 26.1724 74.6441 26.6143 74.0233 24.8161C73.4985 24.1902 72.8004 23.9116 72.5462 23.0723C72.4979 22.9733 72.4604 22.8623 72.4228 22.7501C72.4232 22.6239 72.3573 22.4835 72.2554 22.3419C72.2109 22.2647 72.1575 22.195 72.0897 22.1384C71.8439 21.8685 71.5195 21.6061 71.3231 21.4232C69.4826 19.8645 69.4637 19.883 68.2418 17.7985C68.7447 15.8098 69.0688 15.3853 67.0472 14.0432C66.7919 13.9888 67.373 14.3828 67.4877 14.619C67.5897 14.8683 67.1974 15.3255 67.0457 15.7043C66.6483 16.2812 67.533 16.4727 67.2571 17.0649C67.0549 17.3207 66.6851 16.9386 66.6103 16.7057C66.2123 15.4114 66.6575 14.5929 66.3547 14.0922C66.2089 13.7471 66.0515 13.5033 66.0015 13.5131C64.9492 13.2257 64.4525 10.8441 64.0817 10.5034C63.8214 10.7244 65.5059 14.299 65.788 14.7246C65.87 15.1883 65.9226 16.8733 66.0958 17.239C66.6441 17.8007 67.6523 20.1845 66.1272 18.6574C65.9737 18.8587 67.2051 21.0815 67.0283 21.1087C66.9856 21.3166 67.1975 22.5716 66.8713 22.5052C66.5072 22.4802 65.6849 21.9664 65.7788 22.3561C65.9519 22.9004 66.1069 22.5945 66.2071 23.0767C66.3077 24.1075 66.9683 24.323 67.0401 24.4819C67.0523 24.5984 66.9861 25.7239 67.2113 26.4206C69.0348 29.1233 69.7521 30.89 70.4605 32.0666C69.3231 31.9001 68.7855 30.8519 67.7352 29.8885C66.6539 28.9905 65.6272 28.4234 65.1583 27.9749C64.2319 27.3208 64.7071 26.1147 63.9663 25.1688C63.7545 25.0458 64.2785 21.0205 63.101 21.3797C62.5131 20.5013 63.0806 18.2002 62.5613 17.1585C61.9303 16.291 61.993 16.107 62.0752 14.5777C62.0894 14.1194 61.7505 14.2783 61.5117 14.1107C61.2664 13.45 60.5313 11.5581 61.2007 10.6688C59.5804 10.3793 60.821 12.4638 60.9724 13.5534C60.9852 13.7297 61.013 13.8778 60.9179 13.7624C60.6704 13.3204 59.9183 13.0298 59.71 12.9133C58.5436 11.5037 58.1271 10.3325 56.707 9.25815C57.5332 7.95303 56.0037 8.36449 56.8032 8.06951C56.5684 7.83113 56.5091 7.20414 56.239 6.97337C54.4791 5.31232 56.161 4.59936 54.7112 3.84612L54.5107 5.04456C54.4257 3.55875 54.7557 3.22893 53.7202 2.76631C53.8319 3.8559 53.6581 5.23504 54.2528 6.38886C54.6974 6.95597 54.8525 7.47843 54.9125 8.07929C55.2565 8.22297 56.4643 11.5952 56.5394 10.4337C58.081 11.937 58.8356 14.0868 59.289 16.3693C59.3587 16.8984 58.8844 15.2819 59.0566 17.5319C59.0332 17.989 58.526 16.6186 58.2686 16.1484C58.1931 15.9971 58.0022 15.7892 57.9225 15.885C57.8551 16.2605 58.3679 17.1607 58.3692 17.4753C58.5746 20.178 59.4484 17.9782 60.1622 19.1777C60.7786 20.9726 61.0997 22.6348 61.9414 23.6318C62.2976 23.9235 63.5473 25.6575 63.676 27.2739C63.8813 27.3393 64.0583 27.9564 63.6358 28.6084C61.1049 27.8792 61.5755 27.287 60.685 26.3302C60.2001 26.0178 59.2904 25.7272 59.1985 25.5846C59.0738 25.331 57.7413 23.4958 57.7379 22.7512C56.6948 20.9497 57.2694 21.0281 57.3097 19.7263C57.2669 18.8326 56.1488 17.6516 56.0343 16.8483C55.6618 15.6781 55.7337 14.7507 55.6745 13.7928C55.7784 12.8437 54.4226 11.3981 54.1425 10.3967C53.7241 9.18412 55.4919 12.2679 55.3102 11.0857C55.1445 8.99473 53.9349 7.03869 52.6696 4.87584C52.579 4.73324 52.5769 4.44152 52.6044 4.21402C52.5394 3.74923 52.021 3.27792 51.8568 2.64985C51.4745 1.75183 51.5274 1.82911 50.8151 1.71046C50.4487 1.46228 50.1976 1.04212 49.9469 1.00838C49.9563 1.0345 50.7284 2.09689 50.8386 2.43215C50.9741 3.58596 51.4114 4.32615 49.8725 3.15492C49.7536 2.9481 49.6768 2.32113 49.5509 2.38208C48.7154 3.10811 50.8678 4.43608 50.2826 4.47309C50.0123 4.45132 49.4383 4.15743 49.2736 4.12369C49.2762 4.12369 49.2665 4.12585 49.248 4.1313C48.9781 3.47711 48.644 3.55765 48.5041 3.48472C48.3764 3.58378 48.4115 1.20105 48.2588 1.4144C48.1843 1.43182 48.3058 2.24384 48.0293 3.02538C48.1313 3.88857 48.8278 3.34104 48.5884 4.48614C48.2461 5.04346 50.1445 5.70636 50.1453 5.77058C50.9968 8.11195 49.9117 9.60102 50.9025 10.9029C51.1999 11.3579 51.5481 11.8031 51.7683 12.8981C51.7744 13.0287 51.8396 13.1517 51.9616 13.1713C53.0106 12.7827 53.9037 16.0188 52.5973 14.6832C52.4595 14.6266 52.3255 15.0446 52.1851 15.2123C51.6915 15.4876 52.1502 14.2239 52.0009 14.0465C51.8856 13.7569 51.1051 14.0236 51.0124 14.5602C51.2823 14.8367 51.3019 15.3625 51.3512 15.7293C51.4403 15.9764 51.7607 16.2964 51.6641 16.5511C51.6592 16.685 51.2643 16.8439 51.3107 16.8603C51.3541 16.9963 51.8677 17.5591 51.8389 17.5787C52.0377 18.1773 52.3437 19.5674 52.7718 20.3543C52.8434 20.8659 52.5336 21.2513 52.8345 21.5495C53.3281 21.9675 53.5217 22.2919 53.6846 22.7022C54.8146 26.438 59.8356 32.3475 61.4775 34.4831C61.2306 34.6431 66.4036 34.4875 66.7229 34.5397C66.7229 34.5397 66.722 34.5364 66.7206 34.5321C67.2426 34.556 76.6073 34.4984 76.6337 34.5092C76.6332 34.5092 76.6134 34.4994 76.5786 34.482C76.8912 34.5016 77.2204 34.5212 77.5705 34.5397C77.5711 33.891 72.8249 29.6316 71.861 28.775C71.6027 28.5584 71.8402 28.6901 71.3918 28.5159C70.6818 28.2492 68.9685 27.5363 68.7085 26.8005C68.3638 22.4073 69.3763 22.4911 67.9287 20.3652C68.0292 20.1932 70.2975 21.4113 71.3244 22.4497Z" fill="#D6832D"/>
<path d="M55.6748 32.7718C54.7819 32.6412 54.078 32.7185 53.2734 32.2776C51.8588 31.126 48.257 30.585 46.4291 29.9275C44.7854 29.5052 44.8853 26.6272 43.7457 25.1566C40.6826 21.8672 39.7162 21.8421 40.0279 18.2816C40.1073 17.1496 40.2823 16.5781 39.8197 15.6529C39.6217 15.1762 39.8892 14.8246 39.5336 14.4773C39.1818 14.0713 39.6437 13.2212 38.966 13.2299C38.7059 12.6367 38.8184 12.9143 38.2444 12.6574C38.0109 12.2775 38.0275 11.2924 38.2868 11.0507C37.4077 10.894 37.9864 12.001 37.2055 11.7147C36.7558 11.6864 36.625 11.3533 36.4136 11.1345C36.5701 11.3936 36.3492 12.0608 36.5681 12.0521C37.3284 11.6951 37.6257 12.3765 38.1998 12.8413C38.3365 12.9676 38.3494 13.6163 38.3776 14.1323C38.3375 14.5503 38.5813 15.002 38.8673 15.0477C38.3923 15.4994 38.8267 17.0386 39.1374 17.9257C39.1591 18.6104 39.1974 19.9667 39.5848 20.8429C39.2045 20.7765 39.1691 20.3161 39.1286 19.8915C38.9594 16.5651 36.7143 15.1838 37.4761 14.0191C37.4578 13.981 37.3978 13.9287 37.286 13.8471C37.2426 13.7241 36.0125 13.1907 35.7019 12.7336C35.6273 12.4603 35.5379 12.1229 35.4772 11.7299L35.0201 12.1C35.3927 12.7303 35.6776 13.1015 35.7421 13.2223C37.3539 14.3184 36.9238 14.0953 36.8775 15.8227C34.0725 15.2556 35.0841 11.0899 32.382 12.6399C33.0643 12.5605 33.5118 12.5039 33.7331 12.8337C34.4146 14.3946 34.6304 17.0081 35.4053 17.4185C37.0296 17.9605 37.2564 19.4278 38.0279 20.2845C37.6423 20.6023 36.7055 20.1027 36.2709 20.1158C35.1934 20.6818 36.7338 22.7598 36.3926 22.9448C34.7903 19.9732 36.0808 24.2771 36.3647 25.5289C36.7515 26.9157 37.9633 27.8931 39.4028 28.064C40.6343 27.9475 43.3773 30.1474 42.8822 29.0959C42.0559 26.7121 40.73 25.5365 40.0206 24.7974C39.2564 23.6305 39.7751 22.4876 41.1242 23.6044C43.7124 26.8819 42.4578 28.1838 44.2595 29.847C45.7961 30.3542 46.8568 31.0552 48.7528 32.2635C51.4037 34.3784 50.3493 34.6212 51.7842 34.5395C53.8012 34.5395 58.9086 34.5384 58.9144 34.5395C58.9144 34.5395 56.78 32.9329 55.6748 32.7718Z" fill="#D6832D"/>
<path d="M16.8592 23.4099C16.3664 24.629 16.1572 25.2854 15.694 25.9972C15.3514 27.2371 14.1343 31.554 14.4428 28.134C13.2645 31.0609 12.3666 32.9354 9.78438 34.4168C9.77785 34.5736 10.6977 34.5779 11.4131 34.3667C12.4835 34.0739 12.4687 33.2586 13.0394 32.5087C14.3351 31.2482 14.4889 31.0697 15.1729 29.1746C15.8879 27.8259 16.2631 26.806 16.4853 25.3659C16.5137 24.506 18.192 21.5975 16.8592 23.4099Z" fill="#D6832D"/>
<path d="M47.4519 18.9777C47.375 20.3122 48.224 23.3143 48.8574 23.7203C49.9587 24.8066 54.783 28.8918 54.6845 29.3718C53.9145 29.6885 52.607 28.1135 51.5493 27.0239C50.3951 25.8352 49.0551 25.8091 47.9992 24.6422C45.8098 20.6594 47.1528 22.9202 44.2173 21.9242C43.5417 21.5999 45.3837 21.983 46.0353 20.4657C47.3756 18.1744 47.794 13.6701 47.4519 18.9777Z" fill="#FFC98F"/>
</svg>
