<svg width="32" height="179" viewBox="0 0 32 179" fill="none" xmlns="http://www.w3.org/2000/svg">
<path d="M0 44.5039V-9.50036e-05H31.2152V44.5039H0Z" fill="#100F0D"/>
<path d="M27.7149 44.5039H26.8867V-9.50036e-05H27.7149V44.5039Z" fill="white"/>
<path d="M4.8711 44.5039H4.04297V-9.50036e-05H4.8711V44.5039Z" fill="white"/>
<path d="M16.4324 5.93555H15.3281V-0.000456039H16.4324V5.93555Z" fill="white"/>
<path d="M16.4324 26.9287H15.3281V16.8127H16.4324V26.9287Z" fill="white"/>
<path d="M16.4324 44.5039H15.3281V38.5692H16.4324V44.5039Z" fill="white"/>
<path d="M0 89.0078V44.5038H31.2152V89.0078H0Z" fill="#100F0D"/>
<path d="M27.7149 89.0078H26.8867V44.5038H27.7149V89.0078Z" fill="white"/>
<path d="M4.8711 89.0078H4.04297V44.5038H4.8711V89.0078Z" fill="white"/>
<path d="M16.4324 50.4395H15.3281V44.5035H16.4324V50.4395Z" fill="white"/>
<path d="M16.4324 71.4326H15.3281V61.3166H16.4324V71.4326Z" fill="white"/>
<path d="M16.4324 89.0078H15.3281V83.0731H16.4324V89.0078Z" fill="white"/>
<path d="M0 133.512V89.0077H31.2152V133.512H0Z" fill="#100F0D"/>
<path d="M27.7149 133.512H26.8867V89.0077H27.7149V133.512Z" fill="white"/>
<path d="M4.8711 133.512H4.04297V89.0077H4.8711V133.512Z" fill="white"/>
<path d="M16.4324 94.9453H15.3281V89.008H16.4324V94.9453Z" fill="white"/>
<path d="M16.4324 115.937H15.3281V105.821H16.4324V115.937Z" fill="white"/>
<path d="M16.4324 133.512H15.3281V127.577H16.4324V133.512Z" fill="white"/>
<path d="M0 178.016V133.512H31.2152V178.016H0Z" fill="#100F0D"/>
<path d="M27.7149 178.016H26.8867V133.512H27.7149V178.016Z" fill="white"/>
<path d="M4.8711 178.016H4.04297V133.512H4.8711V178.016Z" fill="white"/>
<path d="M16.4324 139.447H15.3281V133.511H16.4324V139.447Z" fill="white"/>
<path d="M16.4324 160.44H15.3281V150.324H16.4324V160.44Z" fill="white"/>
<path d="M16.4324 178.016H15.3281V172.081H16.4324V178.016Z" fill="white"/>
</svg>
