<svg width="35" height="93" viewBox="0 0 35 93" fill="none" xmlns="http://www.w3.org/2000/svg">
<path d="M21.4667 6.14062H13.8047V30.1596H21.4667V6.14062Z" fill="#232323"/>
<path d="M17.6362 0.166992C11.3342 0.166992 11.9912 9.48699 11.9912 9.48699H17.6362H23.2812C23.2812 9.48699 23.9382 0.166992 17.6362 0.166992Z" fill="#3C3C3C"/>
<path d="M17.1721 0.224609C12.8791 0.824609 13.3311 9.48661 13.3311 9.48661H15.7351C15.7351 9.48661 15.5121 2.90161 17.1721 0.224609Z" fill="#232323"/>
<path d="M18.1973 0.224609C22.4903 0.824609 22.0383 9.48661 22.0383 9.48661H19.6343C19.6343 9.48661 19.8563 2.90161 18.1973 0.224609Z" fill="#232323"/>
<path d="M17.6362 13.4902C11.3342 13.4902 11.9912 22.8102 11.9912 22.8102H17.6362H23.2812C23.2812 22.8102 23.9382 13.4902 17.6362 13.4902Z" fill="#3C3C3C"/>
<path d="M17.1721 13.5479C12.8791 14.1479 13.3311 22.8099 13.3311 22.8099H15.7351C15.7351 22.8099 15.5121 16.2249 17.1721 13.5479Z" fill="#232323"/>
<path d="M18.1973 13.5479C22.4903 14.1479 22.0383 22.8099 22.0383 22.8099H19.6343C19.6343 22.8099 19.8563 16.2249 18.1973 13.5479Z" fill="#232323"/>
<path d="M5.87115 42.6133H2.13016C1.43416 42.6133 0.869141 42.0263 0.869141 41.3013V37.3833C0.869141 36.6583 1.43416 36.0713 2.13016 36.0713H5.87115C6.56715 36.0713 7.13214 36.6583 7.13214 37.3833V41.3013C7.13214 42.0263 6.56715 42.6133 5.87115 42.6133Z" fill="#201A1B"/>
<path d="M33.1436 42.6133H29.4026C28.7066 42.6133 28.1416 42.0263 28.1416 41.3013V37.3833C28.1416 36.6583 28.7056 36.0713 29.4026 36.0713H33.1436C33.8396 36.0713 34.4046 36.6583 34.4046 37.3833V41.3013C34.4046 42.0263 33.8396 42.6133 33.1436 42.6133Z" fill="#201A1B"/>
<path d="M5.87115 62.1221H2.13016C1.43416 62.1221 0.869141 61.5341 0.869141 60.8101V56.8921C0.869141 56.1671 1.43416 55.5801 2.13016 55.5801H5.87115C6.56715 55.5801 7.13214 56.1671 7.13214 56.8921V60.8101C7.13214 61.5351 6.56715 62.1221 5.87115 62.1221Z" fill="#201A1B"/>
<path d="M33.1436 62.1221H29.4026C28.7066 62.1221 28.1416 61.5341 28.1416 60.8101V56.8921C28.1416 56.1671 28.7056 55.5801 29.4026 55.5801H33.1436C33.8396 55.5801 34.4046 56.1671 34.4046 56.8921V60.8101C34.4046 61.5351 33.8396 62.1221 33.1436 62.1221Z" fill="#201A1B"/>
<path d="M5.87115 81.6309H2.13016C1.43416 81.6309 0.869141 81.0439 0.869141 80.3189V76.4009C0.869141 75.6759 1.43416 75.0889 2.13016 75.0889H5.87115C6.56715 75.0889 7.13214 75.6769 7.13214 76.4009V80.3189C7.13214 81.0429 6.56715 81.6309 5.87115 81.6309Z" fill="#201A1B"/>
<path d="M33.1436 81.6309H29.4026C28.7066 81.6309 28.1416 81.0439 28.1416 80.3189V76.4009C28.1416 75.6759 28.7056 75.0889 29.4026 75.0889H33.1436C33.8396 75.0889 34.4046 75.6769 34.4046 76.4009V80.3189C34.4046 81.0429 33.8396 81.6309 33.1436 81.6309Z" fill="#201A1B"/>
<path d="M31.8201 26.0635H3.45312V92.9925H31.8201V26.0635Z" fill="#201A1B"/>
<path d="M30.6316 27.6377H4.6416V91.4197H30.6316V27.6377Z" fill="#3C3C3C"/>
<path d="M9.36841 30.2408C9.36841 31.1288 8.6484 31.8498 7.7594 31.8498C6.8714 31.8498 6.15039 31.1298 6.15039 30.2408C6.15039 29.3518 6.8704 28.6318 7.7594 28.6318C8.6474 28.6328 9.36841 29.3528 9.36841 30.2408Z" fill="#130C0E"/>
<path d="M9.17633 29.9964C9.17633 30.6704 8.63033 31.2164 7.95633 31.2164C7.28233 31.2164 6.73633 30.6704 6.73633 29.9964C6.73633 29.3224 7.28233 28.7764 7.95633 28.7764C8.63033 28.7764 9.17633 29.3224 9.17633 29.9964Z" fill="#706C6D"/>
<path d="M8.77774 29.9968C8.77774 30.4508 8.40973 30.8178 7.95673 30.8178C7.50373 30.8178 7.13574 30.4508 7.13574 29.9968C7.13574 29.5438 7.50273 29.1758 7.95673 29.1758C8.41073 29.1758 8.77774 29.5428 8.77774 29.9968Z" fill="#5C5759"/>
<path d="M29.6154 30.2408C29.6154 31.1288 28.8955 31.8498 28.0065 31.8498C27.1185 31.8498 26.3975 31.1298 26.3975 30.2408C26.3975 29.3518 27.1175 28.6318 28.0065 28.6318C28.8945 28.6328 29.6154 29.3528 29.6154 30.2408Z" fill="#130C0E"/>
<path d="M29.4234 29.9964C29.4234 30.6704 28.8774 31.2164 28.2034 31.2164C27.5294 31.2164 26.9834 30.6704 26.9834 29.9964C26.9834 29.3224 27.5294 28.7764 28.2034 28.7764C28.8774 28.7764 29.4234 29.3224 29.4234 29.9964Z" fill="#706C6D"/>
<path d="M29.0248 29.9968C29.0248 30.4508 28.6568 30.8178 28.2038 30.8178C27.7508 30.8178 27.3828 30.4508 27.3828 29.9968C27.3828 29.5438 27.7508 29.1758 28.2038 29.1758C28.6568 29.1758 29.0248 29.5428 29.0248 29.9968Z" fill="#5C5759"/>
<path d="M9.36841 49.8736C9.36841 50.7616 8.6484 51.4827 7.7594 51.4827C6.8714 51.4827 6.15039 50.7626 6.15039 49.8736C6.15039 48.9856 6.8704 48.2646 7.7594 48.2646C8.6474 48.2656 9.36841 48.9856 9.36841 49.8736Z" fill="#130C0E"/>
<path d="M9.17633 49.6292C9.17633 50.3032 8.63033 50.8492 7.95633 50.8492C7.28233 50.8492 6.73633 50.3032 6.73633 49.6292C6.73633 48.9552 7.28233 48.4092 7.95633 48.4092C8.63033 48.4092 9.17633 48.9552 9.17633 49.6292Z" fill="#706C6D"/>
<path d="M8.77774 49.6296C8.77774 50.0826 8.40973 50.4506 7.95673 50.4506C7.50373 50.4506 7.13574 50.0826 7.13574 49.6296C7.13574 49.1766 7.50273 48.8086 7.95673 48.8086C8.41073 48.8086 8.77774 49.1766 8.77774 49.6296Z" fill="#5C5759"/>
<path d="M29.6154 49.8736C29.6154 50.7616 28.8955 51.4827 28.0065 51.4827C27.1185 51.4827 26.3975 50.7626 26.3975 49.8736C26.3975 48.9856 27.1175 48.2646 28.0065 48.2646C28.8945 48.2656 29.6154 48.9856 29.6154 49.8736Z" fill="#130C0E"/>
<path d="M29.4234 49.6292C29.4234 50.3032 28.8774 50.8492 28.2034 50.8492C27.5294 50.8492 26.9834 50.3032 26.9834 49.6292C26.9834 48.9552 27.5294 48.4092 28.2034 48.4092C28.8774 48.4092 29.4234 48.9552 29.4234 49.6292Z" fill="#706C6D"/>
<path d="M29.0248 49.6296C29.0248 50.0826 28.6568 50.4506 28.2038 50.4506C27.7508 50.4506 27.3828 50.0826 27.3828 49.6296C27.3828 49.1766 27.7508 48.8086 28.2038 48.8086C28.6568 48.8086 29.0248 49.1766 29.0248 49.6296Z" fill="#5C5759"/>
<path d="M9.36841 69.5074C9.36841 70.3954 8.6484 71.1164 7.7594 71.1164C6.8714 71.1164 6.15039 70.3964 6.15039 69.5074C6.15039 68.6194 6.8704 67.8984 7.7594 67.8984C8.6474 67.8984 9.36841 68.6184 9.36841 69.5074Z" fill="#130C0E"/>
<path d="M9.17633 69.262C9.17633 69.936 8.63033 70.482 7.95633 70.482C7.28233 70.482 6.73633 69.936 6.73633 69.262C6.73633 68.588 7.28233 68.042 7.95633 68.042C8.63033 68.042 9.17633 68.589 9.17633 69.262Z" fill="#706C6D"/>
<path d="M8.77774 69.2624C8.77774 69.7154 8.40973 70.0834 7.95673 70.0834C7.50373 70.0834 7.13574 69.7154 7.13574 69.2624C7.13574 68.8094 7.50273 68.4414 7.95673 68.4414C8.41073 68.4414 8.77774 68.8094 8.77774 69.2624Z" fill="#5C5759"/>
<path d="M29.6154 69.5074C29.6154 70.3954 28.8955 71.1164 28.0065 71.1164C27.1185 71.1164 26.3975 70.3964 26.3975 69.5074C26.3975 68.6194 27.1175 67.8984 28.0065 67.8984C28.8945 67.8984 29.6154 68.6184 29.6154 69.5074Z" fill="#130C0E"/>
<path d="M29.4234 69.262C29.4234 69.936 28.8774 70.482 28.2034 70.482C27.5294 70.482 26.9834 69.936 26.9834 69.262C26.9834 68.588 27.5294 68.042 28.2034 68.042C28.8774 68.042 29.4234 68.589 29.4234 69.262Z" fill="#706C6D"/>
<path d="M28.2038 70.0834C28.6573 70.0834 29.0248 69.7158 29.0248 69.2624C29.0248 68.809 28.6573 68.4414 28.2038 68.4414C27.7504 68.4414 27.3828 68.809 27.3828 69.2624C27.3828 69.7158 27.7504 70.0834 28.2038 70.0834Z" fill="#5C5759"/>
<path d="M9.36841 89.1403C9.36841 90.0283 8.6484 90.7493 7.7594 90.7493C6.8714 90.7493 6.15039 90.0293 6.15039 89.1403C6.15039 88.2523 6.8704 87.5312 7.7594 87.5312C8.6474 87.5312 9.36841 88.2513 9.36841 89.1403Z" fill="#130C0E"/>
<path d="M9.17633 88.8948C9.17633 89.5688 8.63033 90.1148 7.95633 90.1148C7.28233 90.1148 6.73633 89.5688 6.73633 88.8948C6.73633 88.2208 7.28233 87.6748 7.95633 87.6748C8.63033 87.6748 9.17633 88.2218 9.17633 88.8948Z" fill="#706C6D"/>
<path d="M8.77774 88.8952C8.77774 89.3482 8.40973 89.7162 7.95673 89.7162C7.50373 89.7162 7.13574 89.3482 7.13574 88.8952C7.13574 88.4422 7.50273 88.0742 7.95673 88.0742C8.41073 88.0742 8.77774 88.4422 8.77774 88.8952Z" fill="#5C5759"/>
<path d="M29.6154 89.1403C29.6154 90.0283 28.8955 90.7493 28.0065 90.7493C27.1185 90.7493 26.3975 90.0293 26.3975 89.1403C26.3975 88.2523 27.1175 87.5312 28.0065 87.5312C28.8945 87.5312 29.6154 88.2513 29.6154 89.1403Z" fill="#130C0E"/>
<path d="M29.4234 88.8948C29.4234 89.5688 28.8774 90.1148 28.2034 90.1148C27.5294 90.1148 26.9834 89.5688 26.9834 88.8948C26.9834 88.2208 27.5294 87.6748 28.2034 87.6748C28.8774 87.6748 29.4234 88.2218 29.4234 88.8948Z" fill="#706C6D"/>
<path d="M28.2038 89.7162C28.6573 89.7162 29.0248 89.3486 29.0248 88.8952C29.0248 88.4418 28.6573 88.0742 28.2038 88.0742C27.7504 88.0742 27.3828 88.4418 27.3828 88.8952C27.3828 89.3486 27.7504 89.7162 28.2038 89.7162Z" fill="#5C5759"/>
<path d="M17.636 48.5553C22.7983 48.5553 26.9831 44.3705 26.9831 39.2083C26.9831 34.0461 22.7983 29.8613 17.636 29.8613C12.4738 29.8613 8.28906 34.0461 8.28906 39.2083C8.28906 44.3705 12.4738 48.5553 17.636 48.5553Z" fill="#FC0C00"/>
<path d="M17.6358 36.6945C17.9138 36.6945 18.1388 36.4695 18.1388 36.1915C18.1388 35.9135 17.9138 35.6875 17.6358 35.6875C17.3578 35.6875 17.1328 35.9125 17.1328 36.1915C17.1328 36.4695 17.3578 36.6945 17.6358 36.6945Z" fill="#FC0C00"/>
<path d="M17.6358 41.7227C17.3578 41.7227 17.1328 41.9477 17.1328 42.2257C17.1328 42.5037 17.3578 42.7287 17.6358 42.7287C17.9138 42.7287 18.1388 42.5037 18.1388 42.2257C18.1388 41.9477 17.9138 41.7227 17.6358 41.7227Z" fill="#FC0C00"/>
<path d="M16.6743 36.8858C16.9313 36.7798 17.0534 36.4848 16.9464 36.2278C16.8404 35.9708 16.5453 35.8488 16.2883 35.9558C16.0313 36.0618 15.9093 36.3568 16.0163 36.6138C16.1233 36.8708 16.4173 36.9928 16.6743 36.8858Z" fill="#FC0C00"/>
<path d="M18.5979 41.532C18.3409 41.638 18.2189 41.933 18.3259 42.19C18.4319 42.447 18.7269 42.569 18.9839 42.462C19.2409 42.356 19.3629 42.061 19.2559 41.804C19.1489 41.547 18.8549 41.425 18.5979 41.532Z" fill="#FC0C00"/>
<path d="M15.8578 37.4301C16.0548 37.2331 16.0548 36.9151 15.8578 36.7181C15.6608 36.5211 15.3428 36.5211 15.1458 36.7181C14.9488 36.9151 14.9488 37.2331 15.1458 37.4301C15.3428 37.6271 15.6618 37.6271 15.8578 37.4301Z" fill="#FC0C00"/>
<path d="M19.4144 40.9866C19.2174 41.1836 19.2174 41.5016 19.4144 41.6986C19.6114 41.8956 19.9294 41.8956 20.1264 41.6986C20.3234 41.5016 20.3234 41.1836 20.1264 40.9866C19.9294 40.7896 19.6104 40.7896 19.4144 40.9866Z" fill="#FC0C00"/>
<path d="M15.313 38.246C15.419 37.989 15.298 37.695 15.041 37.588C14.784 37.482 14.49 37.604 14.383 37.86C14.277 38.117 14.399 38.411 14.655 38.518C14.911 38.625 15.207 38.503 15.313 38.246Z" fill="#FC0C00"/>
<path d="M19.9591 40.1702C19.8531 40.4272 19.9751 40.7212 20.2321 40.8282C20.4891 40.9342 20.7831 40.8122 20.8901 40.5562C20.9961 40.2992 20.8741 40.0052 20.6181 39.8982C20.3601 39.7912 20.0651 39.9132 19.9591 40.1702Z" fill="#FC0C00"/>
<path d="M15.1223 39.2081C15.1223 38.9301 14.8972 38.7051 14.6192 38.7051C14.3412 38.7051 14.1152 38.9301 14.1152 39.2081C14.1152 39.4861 14.3402 39.7111 14.6192 39.7111C14.8972 39.7111 15.1223 39.4861 15.1223 39.2081Z" fill="#FC0C00"/>
<path d="M20.1504 39.2081C20.1504 39.4861 20.3754 39.7111 20.6544 39.7111C20.9324 39.7111 21.1574 39.4861 21.1574 39.2081C21.1574 38.9301 20.9324 38.7051 20.6544 38.7051C20.3754 38.7051 20.1504 38.9301 20.1504 39.2081Z" fill="#FC0C00"/>
<path d="M15.3145 40.1706C15.2085 39.9136 14.9135 39.7916 14.6565 39.8976C14.3995 40.0036 14.2775 40.2986 14.3845 40.5556C14.4905 40.8126 14.7855 40.9346 15.0425 40.8276C15.2985 40.7216 15.4205 40.4276 15.3145 40.1706Z" fill="#FC0C00"/>
<path d="M19.9597 38.2466C20.0657 38.5036 20.3607 38.6256 20.6177 38.5186C20.8747 38.4126 20.9967 38.1176 20.8897 37.8606C20.7837 37.6036 20.4887 37.4816 20.2317 37.5886C19.9747 37.6956 19.8527 37.9896 19.9597 38.2466Z" fill="#FC0C00"/>
<path d="M15.8578 40.9866C15.6608 40.7896 15.3428 40.7896 15.1458 40.9866C14.9488 41.1836 14.9488 41.5016 15.1458 41.6986C15.3428 41.8956 15.6608 41.8956 15.8578 41.6986C16.0548 41.5016 16.0548 41.1826 15.8578 40.9866Z" fill="#FC0C00"/>
<path d="M19.4144 37.4301C19.6114 37.6261 19.9294 37.6261 20.1264 37.4301C20.3234 37.2341 20.3234 36.9151 20.1264 36.7181C19.9294 36.5211 19.6114 36.5211 19.4144 36.7181C19.2174 36.9151 19.2174 37.2341 19.4144 37.4301Z" fill="#FC0C00"/>
<path d="M16.6738 41.5315C16.4168 41.4255 16.1228 41.5465 16.0158 41.8035C15.9098 42.0605 16.0318 42.3545 16.2878 42.4615C16.5448 42.5675 16.8388 42.4455 16.9458 42.1895C17.0528 41.9315 16.9308 41.6375 16.6738 41.5315Z" fill="#FC0C00"/>
<path d="M18.5979 36.8854C18.8549 36.9914 19.1489 36.8694 19.2559 36.6134C19.3629 36.3574 19.2399 36.0624 18.9839 35.9554C18.7269 35.8494 18.4329 35.9704 18.3259 36.2274C18.2189 36.4854 18.3409 36.7794 18.5979 36.8854Z" fill="#FC0C00"/>
<path d="M17.636 35.6119C18.034 35.6119 18.356 35.2899 18.356 34.8919C18.356 34.4939 18.034 34.1719 17.636 34.1719C17.238 34.1719 16.916 34.4939 16.916 34.8919C16.916 35.2899 17.238 35.6119 17.636 35.6119Z" fill="#FC0C00"/>
<path d="M17.636 42.8027C17.238 42.8027 16.916 43.1247 16.916 43.5227C16.916 43.9207 17.238 44.2427 17.636 44.2427C18.034 44.2427 18.356 43.9207 18.356 43.5227C18.356 43.1257 18.034 42.8027 17.636 42.8027Z" fill="#FC0C00"/>
<path d="M16.26 35.8859C16.627 35.7339 16.802 35.3129 16.65 34.9459C16.498 34.5779 16.077 34.4039 15.709 34.5559C15.342 34.7079 15.167 35.1289 15.32 35.4969C15.472 35.8639 15.893 36.0379 16.26 35.8859Z" fill="#FC0C00"/>
<path d="M19.0118 42.5296C18.6448 42.6816 18.4698 43.1026 18.6228 43.4706C18.7748 43.8376 19.1958 44.0126 19.5628 43.8596C19.9298 43.7076 20.1048 43.2866 19.9528 42.9186C19.7998 42.5516 19.3788 42.3776 19.0118 42.5296Z" fill="#FC0C00"/>
<path d="M15.094 36.6663C15.375 36.3853 15.375 35.9292 15.094 35.6482C14.813 35.3672 14.357 35.3672 14.076 35.6482C13.795 35.9292 13.795 36.3853 14.076 36.6663C14.357 36.9473 14.813 36.9473 15.094 36.6663Z" fill="#FC0C00"/>
<path d="M20.1775 41.7498C19.8965 42.0308 19.8965 42.4868 20.1775 42.7678C20.4585 43.0488 20.9146 43.0488 21.1956 42.7678C21.4766 42.4868 21.4766 42.0308 21.1956 41.7498C20.9146 41.4688 20.4595 41.4688 20.1775 41.7498Z" fill="#FC0C00"/>
<path d="M14.3137 37.8319C14.4657 37.4649 14.2916 37.0439 13.9246 36.8909C13.5566 36.7389 13.1357 36.9129 12.9837 37.2809C12.8317 37.6479 13.0057 38.0689 13.3737 38.2219C13.7407 38.3739 14.1617 38.1989 14.3137 37.8319Z" fill="#FC0C00"/>
<path d="M20.9573 40.5835C20.8053 40.9505 20.9793 41.3715 21.3473 41.5245C21.7143 41.6765 22.1353 41.5025 22.2873 41.1345C22.4393 40.7675 22.2653 40.3465 21.8973 40.1935C21.5303 40.0415 21.1093 40.2165 20.9573 40.5835Z" fill="#FC0C00"/>
<path d="M14.0406 39.2083C14.0406 38.8103 13.7186 38.4883 13.3206 38.4883C12.9226 38.4883 12.6006 38.8103 12.6006 39.2083C12.6006 39.6063 12.9226 39.9283 13.3206 39.9283C13.7176 39.9283 14.0406 39.6063 14.0406 39.2083Z" fill="#FC0C00"/>
<path d="M21.2314 39.2083C21.2314 39.6063 21.5534 39.9283 21.9514 39.9283C22.3484 39.9283 22.6714 39.6063 22.6714 39.2083C22.6714 38.8103 22.3494 38.4883 21.9514 38.4883C21.5534 38.4883 21.2314 38.8103 21.2314 39.2083Z" fill="#FC0C00"/>
<path d="M14.3137 40.5835C14.1617 40.2165 13.7407 40.0415 13.3737 40.1935C13.0057 40.3455 12.8317 40.7665 12.9837 41.1345C13.1357 41.5015 13.5566 41.6765 13.9246 41.5235C14.2916 41.3715 14.4657 40.9505 14.3137 40.5835Z" fill="#FC0C00"/>
<path d="M20.9573 37.8318C21.1093 38.1988 21.5303 38.3738 21.8983 38.2208C22.2653 38.0688 22.4403 37.6478 22.2883 37.2808C22.1363 36.9138 21.7153 36.7388 21.3483 36.8908C20.9793 37.0438 20.8053 37.4648 20.9573 37.8318Z" fill="#FC0C00"/>
<path d="M15.094 41.7498C14.813 41.4688 14.357 41.4688 14.076 41.7498C13.795 42.0308 13.795 42.4868 14.076 42.7678C14.357 43.0488 14.813 43.0488 15.094 42.7678C15.375 42.4868 15.375 42.0318 15.094 41.7498Z" fill="#FC0C00"/>
<path d="M20.1783 36.6663C20.4593 36.9473 20.9153 36.9473 21.1963 36.6663C21.4773 36.3853 21.4773 35.9292 21.1963 35.6482C20.9153 35.3672 20.4593 35.3672 20.1783 35.6482C19.8963 35.9292 19.8963 36.3843 20.1783 36.6663Z" fill="#FC0C00"/>
<path d="M16.2596 42.5296C15.8926 42.3776 15.4716 42.5516 15.3186 42.9186C15.1666 43.2866 15.3406 43.7076 15.7086 43.8596C16.0756 44.0116 16.4966 43.8376 16.6496 43.4696C16.8016 43.1026 16.6276 42.6816 16.2596 42.5296Z" fill="#FC0C00"/>
<path d="M19.0118 35.8859C19.3788 36.0379 19.7998 35.8639 19.9528 35.4959C20.1048 35.1289 19.9308 34.7079 19.5628 34.5559C19.1958 34.4039 18.7748 34.5779 18.6228 34.9449C18.4698 35.3129 18.6448 35.7339 19.0118 35.8859Z" fill="#FC0C00"/>
<path d="M17.6362 33.9893C18.0392 33.9893 18.3652 33.6633 18.3652 33.2603C18.3652 32.8573 18.0392 32.5312 17.6362 32.5312C17.2332 32.5312 16.9072 32.8573 16.9072 33.2603C16.9072 33.6633 17.2332 33.9893 17.6362 33.9893Z" fill="#FC0C00"/>
<path d="M17.6362 44.4258C17.2332 44.4258 16.9072 44.7518 16.9072 45.1558C16.9072 45.5588 17.2332 45.8848 17.6362 45.8848C18.0392 45.8848 18.3652 45.5588 18.3652 45.1558C18.3652 44.7528 18.0392 44.4258 17.6362 44.4258Z" fill="#FC0C00"/>
<path d="M15.6394 34.387C16.0114 34.233 16.1884 33.806 16.0344 33.434C15.8804 33.062 15.4534 32.885 15.0814 33.039C14.7094 33.193 14.5324 33.62 14.6864 33.992C14.8404 34.364 15.2674 34.541 15.6394 34.387Z" fill="#FC0C00"/>
<path d="M19.6332 44.0292C19.2612 44.1832 19.0842 44.6102 19.2382 44.9822C19.3922 45.3542 19.8192 45.5312 20.1912 45.3772C20.5632 45.2232 20.7402 44.7962 20.5862 44.4242C20.4322 44.0522 20.0052 43.8752 19.6332 44.0292Z" fill="#FC0C00"/>
<path d="M13.946 35.5182C14.231 35.2332 14.231 34.7712 13.946 34.4872C13.661 34.2022 13.1989 34.2022 12.9139 34.4872C12.6289 34.7722 12.6289 35.2342 12.9139 35.5192C13.1999 35.8032 13.661 35.8032 13.946 35.5182Z" fill="#FC0C00"/>
<path d="M21.3261 42.8982C21.0411 43.1832 21.0411 43.6452 21.3261 43.9302C21.6111 44.2152 22.0721 44.2152 22.3571 43.9302C22.6421 43.6452 22.6421 43.1832 22.3571 42.8992C22.0731 42.6132 21.6111 42.6132 21.3261 42.8982Z" fill="#FC0C00"/>
<path d="M12.8147 37.2109C12.9687 36.8389 12.7927 36.4119 12.4197 36.2579C12.0477 36.1039 11.6207 36.2799 11.4667 36.6529C11.3127 37.0249 11.4897 37.4519 11.8617 37.6059C12.2337 37.7599 12.6607 37.5829 12.8147 37.2109Z" fill="#FC0C00"/>
<path d="M22.457 41.2055C22.303 41.5775 22.4799 42.0045 22.8519 42.1585C23.2239 42.3125 23.6509 42.1355 23.8049 41.7635C23.9589 41.3915 23.783 40.9645 23.41 40.8105C23.038 40.6565 22.611 40.8335 22.457 41.2055Z" fill="#FC0C00"/>
<path d="M12.418 39.2085C12.418 38.8055 12.091 38.4795 11.689 38.4795C11.286 38.4795 10.96 38.8055 10.96 39.2085C10.96 39.6115 11.287 39.9375 11.689 39.9375C12.091 39.9375 12.418 39.6115 12.418 39.2085Z" fill="#FC0C00"/>
<path d="M22.8555 39.2085C22.8555 39.6115 23.1825 39.9375 23.5845 39.9375C23.9875 39.9375 24.3134 39.6115 24.3134 39.2085C24.3134 38.8055 23.9865 38.4795 23.5845 38.4795C23.1815 38.4795 22.8555 38.8055 22.8555 39.2085Z" fill="#FC0C00"/>
<path d="M12.8147 41.2055C12.6607 40.8335 12.2337 40.6565 11.8617 40.8105C11.4897 40.9645 11.3127 41.3915 11.4667 41.7635C11.6207 42.1355 12.0477 42.3125 12.4197 42.1585C12.7917 42.0045 12.9687 41.5775 12.8147 41.2055Z" fill="#FC0C00"/>
<path d="M22.457 37.2117C22.611 37.5837 23.038 37.7607 23.41 37.6067C23.782 37.4527 23.9589 37.0257 23.8049 36.6537C23.6509 36.2817 23.2239 36.1047 22.8519 36.2587C22.4799 36.4127 22.303 36.8397 22.457 37.2117Z" fill="#FC0C00"/>
<path d="M13.9459 42.8983C13.6609 42.6133 13.1989 42.6133 12.9149 42.8983C12.6299 43.1833 12.6299 43.6453 12.9149 43.9303C13.1999 44.2153 13.6609 44.2153 13.9459 43.9303C14.2309 43.6453 14.2309 43.1833 13.9459 42.8983Z" fill="#FC0C00"/>
<path d="M21.3261 35.5182C21.6111 35.8032 22.0731 35.8032 22.3571 35.5182C22.6421 35.2332 22.6421 34.7722 22.3571 34.4872C22.0721 34.2022 21.6101 34.2022 21.3261 34.4872C21.0411 34.7712 21.0411 35.2332 21.3261 35.5182Z" fill="#FC0C00"/>
<path d="M15.6386 44.0294C15.2666 43.8754 14.8396 44.0514 14.6856 44.4244C14.5316 44.7964 14.7076 45.2234 15.0806 45.3774C15.4526 45.5314 15.8796 45.3544 16.0336 44.9824C16.1876 44.6104 16.0106 44.1834 15.6386 44.0294Z" fill="#FC0C00"/>
<path d="M19.6332 34.3871C20.0052 34.5411 20.4322 34.3641 20.5862 33.9921C20.7402 33.6201 20.5632 33.1931 20.1912 33.0391C19.8192 32.8851 19.3922 33.0611 19.2382 33.4341C19.0842 33.8061 19.2612 34.2331 19.6332 34.3871Z" fill="#FC0C00"/>
<path d="M17.6358 32.4191C18.0518 32.4191 18.3888 32.0821 18.3888 31.6661C18.3888 31.2501 18.0518 30.9131 17.6358 30.9131C17.2198 30.9131 16.8828 31.2501 16.8828 31.6661C16.8828 32.0821 17.2198 32.4191 17.6358 32.4191Z" fill="#FC0C00"/>
<path d="M17.6358 45.9971C17.2198 45.9971 16.8828 46.3341 16.8828 46.7501C16.8828 47.1661 17.2198 47.5031 17.6358 47.5031C18.0518 47.5031 18.3888 47.1661 18.3888 46.7501C18.3888 46.3341 18.0518 45.9971 17.6358 45.9971Z" fill="#FC0C00"/>
<path d="M15.0375 32.9358C15.4215 32.7768 15.6045 32.3358 15.4455 31.9518C15.2865 31.5668 14.8455 31.3848 14.4615 31.5438C14.0775 31.7028 13.8944 32.1438 14.0534 32.5278C14.2124 32.9118 14.6535 33.0948 15.0375 32.9358Z" fill="#FC0C00"/>
<path d="M20.2339 45.4802C19.8499 45.6392 19.6669 46.0802 19.8259 46.4642C19.9849 46.8482 20.4259 47.0312 20.8099 46.8722C21.1939 46.7132 21.3769 46.2722 21.2179 45.8882C21.0589 45.5042 20.6189 45.3212 20.2339 45.4802Z" fill="#FC0C00"/>
<path d="M12.8363 34.4085C13.1303 34.1145 13.1303 33.6375 12.8363 33.3435C12.5423 33.0495 12.0653 33.0495 11.7703 33.3435C11.4763 33.6375 11.4763 34.1145 11.7703 34.4095C12.0643 34.7025 12.5413 34.7025 12.8363 34.4085Z" fill="#FC0C00"/>
<path d="M22.4373 44.0093C22.1433 44.3033 22.1433 44.7803 22.4373 45.0743C22.7313 45.3683 23.2083 45.3683 23.5023 45.0743C23.7963 44.7803 23.7963 44.3033 23.5023 44.0093C23.2083 43.7143 22.7313 43.7143 22.4373 44.0093Z" fill="#FC0C00"/>
<path d="M11.3636 36.6098C11.5226 36.2258 11.3406 35.7848 10.9556 35.6258C10.5706 35.4668 10.1305 35.6488 9.97155 36.0338C9.81255 36.4178 9.99457 36.8589 10.3796 37.0179C10.7636 37.1769 11.2046 36.9938 11.3636 36.6098Z" fill="#FC0C00"/>
<path d="M23.9081 41.8062C23.7491 42.1902 23.9311 42.6312 24.3161 42.7902C24.7001 42.9492 25.1411 42.7672 25.3001 42.3822C25.4591 41.9972 25.2771 41.5572 24.8921 41.3982C24.5081 41.2392 24.0681 41.4222 23.9081 41.8062Z" fill="#FC0C00"/>
<path d="M10.8468 39.2081C10.8468 38.7921 10.5098 38.4551 10.0938 38.4551C9.67784 38.4551 9.33984 38.7921 9.33984 39.2081C9.33984 39.6241 9.67684 39.9611 10.0938 39.9611C10.5098 39.9611 10.8468 39.6241 10.8468 39.2081Z" fill="#FC0C00"/>
<path d="M24.4248 39.2081C24.4248 39.6241 24.7618 39.9611 25.1778 39.9611C25.5938 39.9611 25.9308 39.6241 25.9308 39.2081C25.9308 38.7921 25.5938 38.4551 25.1778 38.4551C24.7618 38.4551 24.4248 38.7921 24.4248 39.2081Z" fill="#FC0C00"/>
<path d="M11.3636 41.8062C11.2046 41.4222 10.7636 41.2392 10.3796 41.3982C9.99457 41.5572 9.81255 41.9982 9.97155 42.3822C10.1305 42.7662 10.5716 42.9492 10.9556 42.7892C11.3406 42.6312 11.5226 42.1902 11.3636 41.8062Z" fill="#FC0C00"/>
<path d="M23.9079 36.6098C24.0669 36.9938 24.5079 37.1769 24.8919 37.0179C25.2759 36.8589 25.4589 36.4178 25.2999 36.0338C25.1409 35.6488 24.7 35.4668 24.316 35.6258C23.932 35.7848 23.7489 36.2248 23.9079 36.6098Z" fill="#FC0C00"/>
<path d="M12.8363 44.0096C12.5423 43.7156 12.0653 43.7156 11.7713 44.0096C11.4773 44.3036 11.4773 44.7806 11.7713 45.0756C12.0653 45.3696 12.5423 45.3696 12.8363 45.0756C13.1303 44.7806 13.1303 44.3036 12.8363 44.0096Z" fill="#FC0C00"/>
<path d="M22.4371 34.4085C22.7311 34.7025 23.2081 34.7025 23.5021 34.4085C23.7961 34.1145 23.7961 33.6375 23.5021 33.3435C23.2081 33.0495 22.7311 33.0495 22.4371 33.3435C22.1421 33.6365 22.1421 34.1135 22.4371 34.4085Z" fill="#FC0C00"/>
<path d="M15.0376 45.4803C14.6536 45.3213 14.2126 45.5033 14.0536 45.8883C13.8946 46.2733 14.0766 46.7133 14.4616 46.8733C14.8456 47.0323 15.2866 46.8503 15.4456 46.4653C15.6046 46.0803 15.4216 45.6393 15.0376 45.4803Z" fill="#FC0C00"/>
<path d="M20.2339 32.9358C20.6179 33.0948 21.0589 32.9128 21.2179 32.5278C21.3769 32.1438 21.1949 31.7028 20.8099 31.5438C20.4259 31.3848 19.9849 31.5668 19.8259 31.9518C19.6669 32.3358 19.8499 32.7768 20.2339 32.9358Z" fill="#FC0C00"/>
<path d="M17.6366 39.7449C17.9326 39.7449 18.1726 39.5049 18.1726 39.2089C18.1726 38.9128 17.9326 38.6729 17.6366 38.6729C17.3405 38.6729 17.1006 38.9128 17.1006 39.2089C17.1006 39.5049 17.3405 39.7449 17.6366 39.7449Z" fill="#FC0C00"/>
<path d="M17.6366 38.2204C17.9326 38.2204 18.1726 37.9804 18.1726 37.6844C18.1726 37.3884 17.9326 37.1484 17.6366 37.1484C17.3406 37.1484 17.1006 37.3884 17.1006 37.6844C17.1006 37.9804 17.3406 38.2204 17.6366 38.2204Z" fill="#FC0C00"/>
<path d="M17.6366 40.1963C17.3406 40.1963 17.1006 40.4363 17.1006 40.7323C17.1006 41.0283 17.3406 41.2683 17.6366 41.2683C17.9326 41.2683 18.1726 41.0283 18.1726 40.7323C18.1726 40.4363 17.9326 40.1963 17.6366 40.1963Z" fill="#FC0C00"/>
<path d="M16.9372 38.5092C17.1472 38.2992 17.1472 37.9603 16.9372 37.7512C16.7272 37.5413 16.3882 37.5413 16.1792 37.7512C15.9702 37.9603 15.9702 38.3002 16.1792 38.5092C16.3882 38.7182 16.7282 38.7182 16.9372 38.5092Z" fill="#FC0C00"/>
<path d="M18.3355 39.9075C18.1265 40.1165 18.1265 40.4565 18.3355 40.6655C18.5445 40.8745 18.8845 40.8745 19.0935 40.6655C19.3035 40.4565 19.3035 40.1165 19.0935 39.9075C18.8845 39.6975 18.5445 39.6975 18.3355 39.9075Z" fill="#FC0C00"/>
<path d="M16.1112 39.7449C16.4072 39.7449 16.6472 39.5049 16.6472 39.2089C16.6472 38.9128 16.4072 38.6729 16.1112 38.6729C15.8152 38.6729 15.5752 38.9128 15.5752 39.2089C15.5752 39.5049 15.8152 39.7449 16.1112 39.7449Z" fill="#FC0C00"/>
<path d="M18.624 39.2089C18.624 39.5049 18.864 39.7449 19.16 39.7449C19.456 39.7449 19.696 39.5049 19.696 39.2089C19.696 38.9129 19.456 38.6729 19.16 38.6729C18.865 38.6729 18.624 38.9129 18.624 39.2089Z" fill="#FC0C00"/>
<path d="M16.937 39.9077C16.727 39.6987 16.388 39.6987 16.179 39.9077C15.969 40.1167 15.969 40.4567 16.179 40.6657C16.388 40.8747 16.728 40.8747 16.937 40.6657C17.147 40.4567 17.147 40.1167 16.937 39.9077Z" fill="#FC0C00"/>
<path d="M18.3355 38.5092C18.5445 38.7182 18.8845 38.7182 19.0935 38.5092C19.3025 38.3002 19.3025 37.9603 19.0935 37.7512C18.8845 37.5413 18.5445 37.5413 18.3355 37.7512C18.1265 37.9603 18.1265 38.3002 18.3355 38.5092Z" fill="#FC0C00"/>
<path d="M17.636 69.1452C22.7983 69.1452 26.9831 64.9604 26.9831 59.7982C26.9831 54.636 22.7983 50.4512 17.636 50.4512C12.4738 50.4512 8.28906 54.636 8.28906 59.7982C8.28906 64.9604 12.4738 69.1452 17.636 69.1452Z" fill="#FCAC00"/>
<path d="M17.6358 57.2853C17.9138 57.2853 18.1388 57.0603 18.1388 56.7823C18.1388 56.5043 17.9138 56.2793 17.6358 56.2793C17.3578 56.2793 17.1328 56.5043 17.1328 56.7823C17.1328 57.0593 17.3578 57.2853 17.6358 57.2853Z" fill="#FCAC00"/>
<path d="M17.6358 62.3135C17.3578 62.3135 17.1328 62.5385 17.1328 62.8165C17.1328 63.0945 17.3578 63.3195 17.6358 63.3195C17.9138 63.3195 18.1388 63.0945 18.1388 62.8165C18.1388 62.5385 17.9138 62.3135 17.6358 62.3135Z" fill="#FCAC00"/>
<path d="M16.6743 57.4766C16.9313 57.3706 17.0534 57.0756 16.9464 56.8186C16.8404 56.5616 16.5453 56.4396 16.2883 56.5466C16.0313 56.6526 15.9093 56.9476 16.0163 57.2046C16.1233 57.4606 16.4173 57.5826 16.6743 57.4766Z" fill="#FCAC00"/>
<path d="M18.5979 62.1212C18.3409 62.2272 18.2189 62.5222 18.3259 62.7792C18.4319 63.0362 18.7269 63.1582 18.9839 63.0512C19.2409 62.9452 19.3629 62.6502 19.2559 62.3932C19.1489 62.1372 18.8549 62.0152 18.5979 62.1212Z" fill="#FCAC00"/>
<path d="M15.8578 58.0209C16.0548 57.8239 16.0548 57.5059 15.8578 57.3089C15.6608 57.1119 15.3428 57.1119 15.1458 57.3089C14.9488 57.5059 14.9488 57.8239 15.1458 58.0209C15.3428 58.2169 15.6618 58.2169 15.8578 58.0209Z" fill="#FCAC00"/>
<path d="M19.4144 61.5767C19.2174 61.7727 19.2174 62.0917 19.4144 62.2887C19.6114 62.4847 19.9294 62.4847 20.1264 62.2887C20.3234 62.0917 20.3234 61.7737 20.1264 61.5767C19.9294 61.3807 19.6104 61.3807 19.4144 61.5767Z" fill="#FCAC00"/>
<path d="M15.313 58.837C15.419 58.58 15.298 58.286 15.041 58.179C14.784 58.073 14.49 58.194 14.383 58.451C14.277 58.708 14.399 59.002 14.655 59.109C14.913 59.215 15.207 59.093 15.313 58.837Z" fill="#FCAC00"/>
<path d="M19.9591 60.761C19.8531 61.018 19.9751 61.312 20.2321 61.419C20.4891 61.525 20.7831 61.404 20.8901 61.147C20.9961 60.89 20.8741 60.596 20.6181 60.489C20.3601 60.382 20.0651 60.504 19.9591 60.761Z" fill="#FCAC00"/>
<path d="M15.1223 59.7989C15.1223 59.5209 14.8972 59.2959 14.6192 59.2959C14.3412 59.2959 14.1152 59.5209 14.1152 59.7989C14.1152 60.0769 14.3402 60.3019 14.6192 60.3019C14.8972 60.3019 15.1223 60.0769 15.1223 59.7989Z" fill="#FCAC00"/>
<path d="M20.1504 59.7989C20.1504 60.0769 20.3754 60.3019 20.6544 60.3019C20.9324 60.3019 21.1574 60.0769 21.1574 59.7989C21.1574 59.5209 20.9324 59.2959 20.6544 59.2959C20.3754 59.2949 20.1504 59.5209 20.1504 59.7989Z" fill="#FCAC00"/>
<path d="M15.3145 60.761C15.2085 60.504 14.9135 60.382 14.6565 60.489C14.3995 60.595 14.2775 60.89 14.3845 61.147C14.4905 61.404 14.7855 61.526 15.0425 61.419C15.2985 61.312 15.4205 61.017 15.3145 60.761Z" fill="#FCAC00"/>
<path d="M19.9597 58.8369C20.0657 59.0939 20.3607 59.2159 20.6177 59.1089C20.8747 59.0029 20.9967 58.7079 20.8897 58.4509C20.7837 58.1939 20.4887 58.0719 20.2317 58.1779C19.9747 58.2849 19.8527 58.5799 19.9597 58.8369Z" fill="#FCAC00"/>
<path d="M15.8578 61.5765C15.6608 61.3795 15.3428 61.3795 15.1458 61.5765C14.9488 61.7735 14.9488 62.0915 15.1458 62.2885C15.3428 62.4845 15.6608 62.4845 15.8578 62.2885C16.0548 62.0915 16.0548 61.7735 15.8578 61.5765Z" fill="#FCAC00"/>
<path d="M19.4144 58.0209C19.6114 58.2179 19.9294 58.2179 20.1264 58.0209C20.3234 57.8239 20.3234 57.5059 20.1264 57.3089C19.9294 57.1119 19.6114 57.1119 19.4144 57.3089C19.2174 57.5059 19.2174 57.8239 19.4144 58.0209Z" fill="#FCAC00"/>
<path d="M16.6738 62.1212C16.4168 62.0152 16.1228 62.1372 16.0158 62.3932C15.9098 62.6502 16.0318 62.9442 16.2878 63.0512C16.5448 63.1572 16.8388 63.0352 16.9458 62.7792C17.0528 62.5222 16.9308 62.2282 16.6738 62.1212Z" fill="#FCAC00"/>
<path d="M18.5979 57.476C18.8549 57.582 19.1489 57.4601 19.2559 57.2041C19.3619 56.9471 19.2399 56.653 18.9839 56.546C18.7269 56.44 18.4329 56.5621 18.3259 56.8181C18.2189 57.0751 18.3409 57.369 18.5979 57.476Z" fill="#FCAC00"/>
<path d="M17.636 56.2027C18.034 56.2027 18.356 55.8807 18.356 55.4827C18.356 55.0847 18.034 54.7627 17.636 54.7627C17.238 54.7627 16.916 55.0847 16.916 55.4827C16.916 55.8807 17.238 56.2027 17.636 56.2027Z" fill="#FCAC00"/>
<path d="M17.636 63.3936C17.238 63.3936 16.916 63.7156 16.916 64.1136C16.916 64.5106 17.238 64.8336 17.636 64.8336C18.034 64.8336 18.356 64.5116 18.356 64.1136C18.356 63.7156 18.034 63.3936 17.636 63.3936Z" fill="#FCAC00"/>
<path d="M16.26 56.4768C16.627 56.3248 16.802 55.9038 16.65 55.5358C16.498 55.1678 16.077 54.9938 15.709 55.1458C15.342 55.2978 15.167 55.7188 15.32 56.0868C15.472 56.4538 15.893 56.6288 16.26 56.4768Z" fill="#FCAC00"/>
<path d="M19.0118 63.1193C18.6448 63.2713 18.4698 63.6923 18.6228 64.0603C18.7748 64.4273 19.1958 64.6023 19.5628 64.4503C19.9298 64.2983 20.1048 63.8773 19.9528 63.5103C19.7998 63.1423 19.3788 62.9673 19.0118 63.1193Z" fill="#FCAC00"/>
<path d="M15.094 57.2561C15.375 56.9751 15.375 56.5191 15.094 56.2381C14.813 55.9571 14.357 55.9571 14.076 56.2381C13.795 56.5191 13.795 56.9751 14.076 57.2561C14.357 57.5371 14.813 57.5371 15.094 57.2561Z" fill="#FCAC00"/>
<path d="M20.1775 62.3406C19.8965 62.6216 19.8965 63.0776 20.1775 63.3586C20.4585 63.6396 20.9146 63.6396 21.1956 63.3586C21.4766 63.0776 21.4766 62.6216 21.1956 62.3406C20.9146 62.0596 20.4595 62.0596 20.1775 62.3406Z" fill="#FCAC00"/>
<path d="M14.3137 58.4227C14.4657 58.0557 14.2916 57.6347 13.9246 57.4817C13.5566 57.3297 13.1357 57.5037 12.9837 57.8717C12.8317 58.2387 13.0057 58.6597 13.3737 58.8127C13.7407 58.9637 14.1617 58.7897 14.3137 58.4227Z" fill="#FCAC00"/>
<path d="M20.9573 61.1745C20.8053 61.5415 20.9793 61.9624 21.3473 62.1144C21.7143 62.2664 22.1353 62.0924 22.2873 61.7254C22.4393 61.3584 22.2653 60.9364 21.8973 60.7844C21.5303 60.6324 21.1093 60.8065 20.9573 61.1745Z" fill="#FCAC00"/>
<path d="M14.0406 59.7991C14.0406 59.4011 13.7186 59.0791 13.3206 59.0791C12.9226 59.0791 12.6006 59.4011 12.6006 59.7991C12.6006 60.1961 12.9226 60.5191 13.3206 60.5191C13.7176 60.5181 14.0406 60.1961 14.0406 59.7991Z" fill="#FCAC00"/>
<path d="M21.2314 59.7991C21.2314 60.1961 21.5534 60.5191 21.9514 60.5191C22.3484 60.5191 22.6714 60.1971 22.6714 59.7991C22.6714 59.4011 22.3494 59.0791 21.9514 59.0791C21.5534 59.0791 21.2314 59.4011 21.2314 59.7991Z" fill="#FCAC00"/>
<path d="M14.3137 61.1743C14.1617 60.8073 13.7407 60.6323 13.3737 60.7843C13.0057 60.9363 12.8317 61.3573 12.9837 61.7253C13.1357 62.0923 13.5566 62.2673 13.9246 62.1143C14.2916 61.9623 14.4657 61.5413 14.3137 61.1743Z" fill="#FCAC00"/>
<path d="M20.9573 58.4226C21.1093 58.7896 21.5303 58.9646 21.8983 58.8116C22.2653 58.6596 22.4403 58.2386 22.2883 57.8716C22.1363 57.5046 21.7153 57.3296 21.3483 57.4816C20.9793 57.6336 20.8053 58.0546 20.9573 58.4226Z" fill="#FCAC00"/>
<path d="M15.094 62.3406C14.813 62.0596 14.357 62.0596 14.076 62.3406C13.795 62.6216 13.795 63.0776 14.076 63.3586C14.357 63.6396 14.813 63.6396 15.094 63.3586C15.375 63.0776 15.375 62.6216 15.094 62.3406Z" fill="#FCAC00"/>
<path d="M20.1783 57.2561C20.4593 57.5371 20.9153 57.5371 21.1963 57.2561C21.4773 56.9751 21.4773 56.5191 21.1963 56.2381C20.9153 55.9571 20.4593 55.9571 20.1783 56.2381C19.8963 56.5191 19.8963 56.9751 20.1783 57.2561Z" fill="#FCAC00"/>
<path d="M16.2596 63.1194C15.8926 62.9674 15.4716 63.1414 15.3186 63.5084C15.1666 63.8764 15.3406 64.2974 15.7086 64.4494C16.0756 64.6014 16.4966 64.4274 16.6496 64.0594C16.8016 63.6924 16.6276 63.2714 16.2596 63.1194Z" fill="#FCAC00"/>
<path d="M19.0118 56.4767C19.3788 56.6287 19.7998 56.4547 19.9528 56.0867C20.1048 55.7197 19.9308 55.2988 19.5628 55.1468C19.1958 54.9948 18.7748 55.1688 18.6228 55.5368C18.4698 55.9028 18.6448 56.3247 19.0118 56.4767Z" fill="#FCAC00"/>
<path d="M17.6362 54.5801C18.0392 54.5801 18.3652 54.2531 18.3652 53.8511C18.3652 53.4481 18.0392 53.1211 17.6362 53.1211C17.2332 53.1211 16.9072 53.4471 16.9072 53.8511C16.9072 54.2541 17.2332 54.5801 17.6362 54.5801Z" fill="#FCAC00"/>
<path d="M17.6362 65.0176C17.2332 65.0176 16.9072 65.3436 16.9072 65.7476C16.9072 66.1506 17.2332 66.4766 17.6362 66.4766C18.0392 66.4766 18.3652 66.1506 18.3652 65.7476C18.3652 65.3436 18.0392 65.0176 17.6362 65.0176Z" fill="#FCAC00"/>
<path d="M15.6394 54.9768C16.0114 54.8228 16.1884 54.3958 16.0344 54.0238C15.8804 53.6518 15.4534 53.4748 15.0814 53.6288C14.7094 53.7828 14.5324 54.2098 14.6864 54.5818C14.8404 54.9548 15.2674 55.1308 15.6394 54.9768Z" fill="#FCAC00"/>
<path d="M19.6332 64.6202C19.2612 64.7742 19.0842 65.2012 19.2382 65.5732C19.3922 65.9452 19.8192 66.1222 20.1912 65.9682C20.5632 65.8142 20.7402 65.3872 20.5862 65.0152C20.4322 64.6422 20.0052 64.4662 19.6332 64.6202Z" fill="#FCAC00"/>
<path d="M13.946 56.109C14.231 55.824 14.231 55.362 13.946 55.078C13.661 54.793 13.1989 54.793 12.9139 55.078C12.6289 55.363 12.6289 55.825 12.9139 56.11C13.1999 56.393 13.661 56.393 13.946 56.109Z" fill="#FCAC00"/>
<path d="M21.3261 63.489C21.0411 63.774 21.0411 64.236 21.3261 64.521C21.6111 64.806 22.0721 64.806 22.3571 64.521C22.6421 64.236 22.6421 63.774 22.3571 63.49C22.0731 63.204 21.6111 63.204 21.3261 63.489Z" fill="#FCAC00"/>
<path d="M12.8147 57.8017C12.9687 57.4297 12.7927 57.0027 12.4197 56.8487C12.0477 56.6947 11.6207 56.8707 11.4667 57.2437C11.3127 57.6157 11.4897 58.0427 11.8617 58.1967C12.2337 58.3497 12.6607 58.1737 12.8147 57.8017Z" fill="#FCAC00"/>
<path d="M22.457 61.7964C22.303 62.1684 22.4799 62.5954 22.8519 62.7494C23.2239 62.9034 23.6509 62.7274 23.8049 62.3544C23.9589 61.9824 23.783 61.5554 23.41 61.4014C23.038 61.2474 22.611 61.4234 22.457 61.7964Z" fill="#FCAC00"/>
<path d="M12.418 59.7993C12.418 59.3963 12.091 59.0703 11.689 59.0703C11.286 59.0703 10.96 59.3973 10.96 59.7993C10.96 60.2023 11.287 60.5283 11.689 60.5283C12.091 60.5283 12.418 60.2013 12.418 59.7993Z" fill="#FCAC00"/>
<path d="M22.8555 59.7993C22.8555 60.2023 23.1825 60.5283 23.5845 60.5283C23.9875 60.5283 24.3134 60.2023 24.3134 59.7993C24.3134 59.3963 23.9865 59.0703 23.5845 59.0703C23.1815 59.0693 22.8555 59.3963 22.8555 59.7993Z" fill="#FCAC00"/>
<path d="M12.8147 61.7963C12.6607 61.4243 12.2337 61.2473 11.8617 61.4013C11.4897 61.5553 11.3127 61.9823 11.4667 62.3543C11.6207 62.7263 12.0477 62.9033 12.4197 62.7493C12.7917 62.5943 12.9687 62.1683 12.8147 61.7963Z" fill="#FCAC00"/>
<path d="M22.457 57.8016C22.611 58.1736 23.038 58.3506 23.41 58.1966C23.782 58.0426 23.9589 57.6156 23.8049 57.2436C23.6509 56.8716 23.2239 56.6946 22.8519 56.8486C22.4799 57.0036 22.303 57.4296 22.457 57.8016Z" fill="#FCAC00"/>
<path d="M13.9459 63.4891C13.6609 63.2041 13.1989 63.2041 12.9149 63.4891C12.6299 63.7741 12.6299 64.2361 12.9149 64.5211C13.1999 64.8061 13.6609 64.8061 13.9459 64.5211C14.2309 64.2351 14.2309 63.7731 13.9459 63.4891Z" fill="#FCAC00"/>
<path d="M21.3261 56.108C21.6111 56.393 22.0731 56.393 22.3571 56.108C22.6421 55.823 22.6421 55.361 22.3571 55.077C22.0721 54.792 21.6101 54.792 21.3261 55.077C21.0411 55.362 21.0411 55.824 21.3261 56.108Z" fill="#FCAC00"/>
<path d="M15.6386 64.62C15.2666 64.466 14.8396 64.643 14.6856 65.015C14.5316 65.387 14.7076 65.814 15.0806 65.968C15.4526 66.122 15.8796 65.945 16.0336 65.573C16.1876 65.201 16.0106 64.774 15.6386 64.62Z" fill="#FCAC00"/>
<path d="M19.6332 54.9768C20.0052 55.1308 20.4322 54.9538 20.5862 54.5818C20.7402 54.2098 20.5632 53.7828 20.1912 53.6288C19.8192 53.4748 19.3922 53.6518 19.2382 54.0238C19.0842 54.3968 19.2612 54.8228 19.6332 54.9768Z" fill="#FCAC00"/>
<path d="M17.6358 53.009C18.0518 53.009 18.3888 52.672 18.3888 52.256C18.3888 51.84 18.0518 51.502 17.6358 51.502C17.2198 51.502 16.8828 51.839 16.8828 52.256C16.8828 52.672 17.2198 53.009 17.6358 53.009Z" fill="#FCAC00"/>
<path d="M17.6358 66.5879C17.2198 66.5879 16.8828 66.9249 16.8828 67.3409C16.8828 67.7569 17.2198 68.0939 17.6358 68.0939C18.0518 68.0939 18.3888 67.7569 18.3888 67.3409C18.3888 66.9249 18.0518 66.5879 17.6358 66.5879Z" fill="#FCAC00"/>
<path d="M15.0375 53.5257C15.4215 53.3667 15.6045 52.9257 15.4455 52.5417C15.2865 52.1567 14.8455 51.9747 14.4615 52.1337C14.0775 52.2927 13.8944 52.7337 14.0534 53.1177C14.2124 53.5027 14.6535 53.6857 15.0375 53.5257Z" fill="#FCAC00"/>
<path d="M20.2339 66.0706C19.8499 66.2296 19.6669 66.6706 19.8259 67.0546C19.9849 67.4386 20.4259 67.6216 20.8099 67.4626C21.1939 67.3036 21.3769 66.8626 21.2179 66.4786C21.0589 66.0936 20.6189 65.9106 20.2339 66.0706Z" fill="#FCAC00"/>
<path d="M12.8363 54.9984C13.1303 54.7044 13.1303 54.2274 12.8363 53.9334C12.5423 53.6394 12.0653 53.6394 11.7703 53.9334C11.4763 54.2274 11.4763 54.7044 11.7703 54.9984C12.0643 55.2924 12.5413 55.2924 12.8363 54.9984Z" fill="#FCAC00"/>
<path d="M22.4373 64.5994C22.1433 64.8934 22.1433 65.3704 22.4373 65.6644C22.7313 65.9584 23.2083 65.9584 23.5023 65.6644C23.7963 65.3704 23.7963 64.8934 23.5023 64.5994C23.2083 64.3054 22.7313 64.3054 22.4373 64.5994Z" fill="#FCAC00"/>
<path d="M11.3636 57.2007C11.5226 56.8167 11.3406 56.3757 10.9556 56.2167C10.5706 56.0577 10.1305 56.2397 9.97155 56.6247C9.81255 57.0087 9.99457 57.4497 10.3796 57.6087C10.7636 57.7667 11.2046 57.5847 11.3636 57.2007Z" fill="#FCAC00"/>
<path d="M23.9081 62.3971C23.7491 62.7811 23.9311 63.2221 24.3161 63.3811C24.7001 63.5401 25.1411 63.3581 25.3001 62.9731C25.4591 62.5891 25.2771 62.1481 24.8921 61.9891C24.5081 61.8301 24.0681 62.0121 23.9081 62.3971Z" fill="#FCAC00"/>
<path d="M10.8468 59.7989C10.8468 59.3829 10.5098 59.0459 10.0938 59.0459C9.67784 59.0459 9.33984 59.3829 9.33984 59.7989C9.33984 60.2149 9.67684 60.5519 10.0938 60.5519C10.5098 60.5519 10.8468 60.2149 10.8468 59.7989Z" fill="#FCAC00"/>
<path d="M24.4248 59.7989C24.4248 60.2149 24.7618 60.5519 25.1778 60.5519C25.5938 60.5519 25.9308 60.2149 25.9308 59.7989C25.9308 59.3829 25.5938 59.0459 25.1778 59.0459C24.7618 59.0449 24.4248 59.3819 24.4248 59.7989Z" fill="#FCAC00"/>
<path d="M11.3636 62.397C11.2046 62.013 10.7636 61.83 10.3796 61.989C9.99457 62.148 9.81255 62.589 9.97155 62.973C10.1305 63.357 10.5716 63.54 10.9556 63.381C11.3406 63.221 11.5226 62.781 11.3636 62.397Z" fill="#FCAC00"/>
<path d="M23.9079 57.2005C24.0669 57.5845 24.5079 57.7675 24.8919 57.6085C25.2759 57.4495 25.4589 57.0085 25.2999 56.6245C25.1409 56.2405 24.7 56.0575 24.316 56.2165C23.932 56.3745 23.7489 56.8155 23.9079 57.2005Z" fill="#FCAC00"/>
<path d="M12.8363 64.5994C12.5423 64.3054 12.0653 64.3054 11.7713 64.5994C11.4773 64.8934 11.4773 65.3704 11.7713 65.6644C12.0653 65.9584 12.5423 65.9584 12.8363 65.6644C13.1303 65.3704 13.1303 64.8934 12.8363 64.5994Z" fill="#FCAC00"/>
<path d="M22.4371 54.9984C22.7311 55.2924 23.2081 55.2924 23.5021 54.9984C23.7961 54.7044 23.7961 54.2274 23.5021 53.9334C23.2081 53.6394 22.7311 53.6394 22.4371 53.9334C22.1421 54.2274 22.1421 54.7044 22.4371 54.9984Z" fill="#FCAC00"/>
<path d="M15.0376 66.0712C14.6536 65.9122 14.2126 66.0942 14.0536 66.4792C13.8946 66.8632 14.0766 67.3042 14.4616 67.4632C14.8456 67.6222 15.2866 67.4402 15.4456 67.0552C15.6046 66.6712 15.4216 66.2302 15.0376 66.0712Z" fill="#FCAC00"/>
<path d="M20.2339 53.5257C20.6179 53.6847 21.0589 53.5027 21.2179 53.1177C21.3769 52.7337 21.1949 52.2927 20.8099 52.1337C20.4259 51.9747 19.9849 52.1567 19.8259 52.5417C19.6669 52.9257 19.8499 53.3667 20.2339 53.5257Z" fill="#FCAC00"/>
<path d="M17.6366 60.3357C17.9326 60.3357 18.1726 60.0957 18.1726 59.7997C18.1726 59.5036 17.9326 59.2637 17.6366 59.2637C17.3405 59.2637 17.1006 59.5036 17.1006 59.7997C17.1006 60.0957 17.3405 60.3357 17.6366 60.3357Z" fill="#FCAC00"/>
<path d="M17.6366 58.8103C17.9326 58.8103 18.1726 58.5703 18.1726 58.2743C18.1726 57.9783 17.9326 57.7383 17.6366 57.7383C17.3406 57.7383 17.1006 57.9783 17.1006 58.2743C17.1006 58.5703 17.3406 58.8103 17.6366 58.8103Z" fill="#FCAC00"/>
<path d="M17.6366 60.7871C17.3406 60.7871 17.1006 61.0271 17.1006 61.3231C17.1006 61.6191 17.3406 61.8591 17.6366 61.8591C17.9326 61.8591 18.1726 61.6191 18.1726 61.3231C18.1726 61.0271 17.9326 60.7871 17.6366 60.7871Z" fill="#FCAC00"/>
<path d="M16.9372 59.1001C17.1472 58.8901 17.1472 58.5511 16.9372 58.3421C16.7272 58.1321 16.3882 58.1321 16.1792 58.3421C15.9702 58.5511 15.9702 58.8911 16.1792 59.1001C16.3882 59.3091 16.7282 59.3091 16.9372 59.1001Z" fill="#FCAC00"/>
<path d="M18.3355 60.4976C18.1265 60.7066 18.1265 61.0466 18.3355 61.2556C18.5445 61.4656 18.8845 61.4656 19.0935 61.2556C19.3035 61.0466 19.3035 60.7066 19.0935 60.4976C18.8845 60.2886 18.5445 60.2886 18.3355 60.4976Z" fill="#FCAC00"/>
<path d="M16.1112 60.3357C16.4072 60.3357 16.6472 60.0957 16.6472 59.7997C16.6472 59.5036 16.4072 59.2637 16.1112 59.2637C15.8152 59.2637 15.5752 59.5036 15.5752 59.7997C15.5752 60.0957 15.8152 60.3357 16.1112 60.3357Z" fill="#FCAC00"/>
<path d="M18.624 59.7997C18.624 60.0957 18.864 60.3357 19.16 60.3357C19.456 60.3357 19.696 60.0957 19.696 59.7997C19.696 59.5037 19.456 59.2637 19.16 59.2637C18.865 59.2627 18.624 59.5027 18.624 59.7997Z" fill="#FCAC00"/>
<path d="M16.937 60.4976C16.727 60.2886 16.388 60.2886 16.179 60.4976C15.969 60.7066 15.969 61.0466 16.179 61.2556C16.388 61.4656 16.728 61.4656 16.937 61.2556C17.147 61.0466 17.147 60.7076 16.937 60.4976Z" fill="#FCAC00"/>
<path d="M18.3355 59.1001C18.5445 59.3091 18.8845 59.3091 19.0935 59.1001C19.3025 58.8901 19.3025 58.5511 19.0935 58.3421C18.8845 58.1321 18.5445 58.1321 18.3355 58.3421C18.1265 58.5511 18.1265 58.8901 18.3355 59.1001Z" fill="#FCAC00"/>
<path d="M17.636 89.734C22.7983 89.734 26.9831 85.5492 26.9831 80.387C26.9831 75.2248 22.7983 71.04 17.636 71.04C12.4738 71.04 8.28906 75.2248 8.28906 80.387C8.28906 85.5492 12.4738 89.734 17.636 89.734Z" fill="#2FD1A4"/>
<path d="M17.6358 77.8732C17.9138 77.8732 18.1388 77.6482 18.1388 77.3702C18.1388 77.0922 17.9138 76.8672 17.6358 76.8672C17.3578 76.8672 17.1328 77.0922 17.1328 77.3702C17.1328 77.6482 17.3578 77.8732 17.6358 77.8732Z" fill="#2FD1A4"/>
<path d="M17.6358 82.9014C17.3578 82.9014 17.1328 83.1264 17.1328 83.4044C17.1328 83.6824 17.3578 83.9074 17.6358 83.9074C17.9138 83.9074 18.1388 83.6824 18.1388 83.4044C18.1388 83.1264 17.9138 82.9014 17.6358 82.9014Z" fill="#2FD1A4"/>
<path d="M16.6743 78.0645C16.9313 77.9585 17.0534 77.6635 16.9464 77.4065C16.8404 77.1495 16.5453 77.0275 16.2883 77.1345C16.0313 77.2405 15.9093 77.5355 16.0163 77.7925C16.1233 78.0495 16.4173 78.1715 16.6743 78.0645Z" fill="#2FD1A4"/>
<path d="M18.5979 82.7107C18.3409 82.8167 18.2189 83.1117 18.3259 83.3687C18.4319 83.6257 18.7269 83.7477 18.9839 83.6407C19.2409 83.5347 19.3629 83.2397 19.2559 82.9827C19.1489 82.7257 18.8549 82.6037 18.5979 82.7107Z" fill="#2FD1A4"/>
<path d="M15.8578 78.6088C16.0548 78.4118 16.0548 78.0938 15.8578 77.8968C15.6608 77.6998 15.3428 77.6998 15.1458 77.8968C14.9488 78.0938 14.9488 78.4118 15.1458 78.6088C15.3428 78.8058 15.6618 78.8058 15.8578 78.6088Z" fill="#2FD1A4"/>
<path d="M19.4144 82.1653C19.2174 82.3613 19.2174 82.6803 19.4144 82.8773C19.6114 83.0733 19.9294 83.0733 20.1264 82.8773C20.3234 82.6803 20.3234 82.3623 20.1264 82.1653C19.9294 81.9683 19.6104 81.9683 19.4144 82.1653Z" fill="#2FD1A4"/>
<path d="M15.313 79.4249C15.419 79.1679 15.298 78.8739 15.041 78.7669C14.784 78.6609 14.49 78.7819 14.383 79.0389C14.277 79.2959 14.399 79.5899 14.655 79.6969C14.913 79.8039 15.207 79.6819 15.313 79.4249Z" fill="#2FD1A4"/>
<path d="M19.9591 81.3489C19.8531 81.6059 19.9751 81.8999 20.2321 82.0069C20.4891 82.1129 20.7831 81.9909 20.8901 81.7349C20.9961 81.4779 20.8741 81.1839 20.6181 81.0769C20.3601 80.9699 20.0651 81.0919 19.9591 81.3489Z" fill="#2FD1A4"/>
<path d="M15.1223 80.3868C15.1223 80.1088 14.8972 79.8838 14.6192 79.8838C14.3412 79.8838 14.1152 80.1088 14.1152 80.3868C14.1152 80.6648 14.3402 80.8898 14.6192 80.8898C14.8972 80.8898 15.1223 80.6648 15.1223 80.3868Z" fill="#2FD1A4"/>
<path d="M20.1504 80.3868C20.1504 80.6648 20.3754 80.8898 20.6544 80.8898C20.9324 80.8898 21.1574 80.6648 21.1574 80.3868C21.1574 80.1088 20.9324 79.8838 20.6544 79.8838C20.3754 79.8838 20.1504 80.1088 20.1504 80.3868Z" fill="#2FD1A4"/>
<path d="M15.3145 81.3489C15.2085 81.0919 14.9135 80.9699 14.6565 81.0769C14.3995 81.1829 14.2775 81.4779 14.3845 81.7349C14.4905 81.9919 14.7855 82.1139 15.0425 82.0069C15.2985 81.8999 15.4205 81.6059 15.3145 81.3489Z" fill="#2FD1A4"/>
<path d="M19.9597 79.4253C20.0657 79.6823 20.3607 79.8043 20.6177 79.6973C20.8747 79.5913 20.9967 79.2963 20.8897 79.0393C20.7837 78.7823 20.4887 78.6603 20.2317 78.7673C19.9747 78.8743 19.8527 79.1683 19.9597 79.4253Z" fill="#2FD1A4"/>
<path d="M15.8578 82.1653C15.6608 81.9683 15.3428 81.9683 15.1458 82.1653C14.9488 82.3623 14.9488 82.6803 15.1458 82.8773C15.3428 83.0733 15.6608 83.0733 15.8578 82.8773C16.0548 82.6803 16.0548 82.3613 15.8578 82.1653Z" fill="#2FD1A4"/>
<path d="M19.4144 78.6088C19.6114 78.8058 19.9294 78.8058 20.1264 78.6088C20.3234 78.4118 20.3234 78.0938 20.1264 77.8968C19.9294 77.6998 19.6114 77.6998 19.4144 77.8968C19.2174 78.0938 19.2174 78.4128 19.4144 78.6088Z" fill="#2FD1A4"/>
<path d="M16.6738 82.7101C16.4168 82.6041 16.1228 82.7261 16.0158 82.9821C15.9098 83.2391 16.0318 83.5331 16.2878 83.6401C16.5448 83.7461 16.8388 83.6241 16.9458 83.3671C17.0528 83.1101 16.9308 82.8161 16.6738 82.7101Z" fill="#2FD1A4"/>
<path d="M18.5979 78.0639C18.8549 78.1699 19.1489 78.0479 19.2559 77.7919C19.3619 77.5349 19.2399 77.2409 18.9839 77.1339C18.7269 77.0279 18.4329 77.1499 18.3259 77.4059C18.2189 77.6639 18.3409 77.9579 18.5979 78.0639Z" fill="#2FD1A4"/>
<path d="M17.636 76.7916C18.034 76.7916 18.356 76.4696 18.356 76.0716C18.356 75.6736 18.034 75.3516 17.636 75.3516C17.238 75.3516 16.916 75.6736 16.916 76.0716C16.916 76.4686 17.238 76.7916 17.636 76.7916Z" fill="#2FD1A4"/>
<path d="M17.636 83.9814C17.238 83.9814 16.916 84.3034 16.916 84.7014C16.916 85.0994 17.238 85.4214 17.636 85.4214C18.034 85.4214 18.356 85.0994 18.356 84.7014C18.356 84.3044 18.034 83.9814 17.636 83.9814Z" fill="#2FD1A4"/>
<path d="M16.26 77.0646C16.627 76.9126 16.802 76.4916 16.65 76.1246C16.498 75.7566 16.077 75.5826 15.709 75.7346C15.342 75.8866 15.167 76.3076 15.32 76.6756C15.472 77.0426 15.893 77.2166 16.26 77.0646Z" fill="#2FD1A4"/>
<path d="M19.0118 83.7083C18.6448 83.8603 18.4698 84.2813 18.6228 84.6493C18.7748 85.0163 19.1958 85.1913 19.5628 85.0393C19.9298 84.8873 20.1048 84.4663 19.9528 84.0983C19.7998 83.7303 19.3788 83.5563 19.0118 83.7083Z" fill="#2FD1A4"/>
<path d="M15.094 77.845C15.375 77.564 15.375 77.108 15.094 76.827C14.813 76.546 14.357 76.546 14.076 76.827C13.795 77.108 13.795 77.564 14.076 77.845C14.357 78.126 14.813 78.126 15.094 77.845Z" fill="#2FD1A4"/>
<path d="M20.1775 82.9285C19.8965 83.2095 19.8965 83.6655 20.1775 83.9465C20.4585 84.2275 20.9146 84.2275 21.1956 83.9465C21.4766 83.6655 21.4766 83.2095 21.1956 82.9285C20.9146 82.6475 20.4595 82.6475 20.1775 82.9285Z" fill="#2FD1A4"/>
<path d="M14.3137 79.0106C14.4657 78.6436 14.2916 78.2226 13.9246 78.0696C13.5566 77.9176 13.1357 78.0916 12.9837 78.4586C12.8317 78.8256 13.0057 79.2466 13.3737 79.3996C13.7407 79.5526 14.1617 79.3776 14.3137 79.0106Z" fill="#2FD1A4"/>
<path d="M20.9573 81.7622C20.8053 82.1292 20.9793 82.5502 21.3473 82.7032C21.7143 82.8552 22.1353 82.6812 22.2873 82.3132C22.4393 81.9462 22.2653 81.5242 21.8973 81.3722C21.5303 81.2202 21.1093 81.3952 20.9573 81.7622Z" fill="#2FD1A4"/>
<path d="M14.0406 80.387C14.0406 79.989 13.7186 79.667 13.3206 79.667C12.9226 79.667 12.6006 79.989 12.6006 80.387C12.6006 80.784 12.9226 81.107 13.3206 81.107C13.7176 81.107 14.0406 80.785 14.0406 80.387Z" fill="#2FD1A4"/>
<path d="M21.2314 80.387C21.2314 80.784 21.5534 81.107 21.9514 81.107C22.3484 81.107 22.6714 80.785 22.6714 80.387C22.6714 79.989 22.3494 79.667 21.9514 79.667C21.5534 79.667 21.2314 79.989 21.2314 80.387Z" fill="#2FD1A4"/>
<path d="M14.3137 81.7622C14.1617 81.3952 13.7407 81.2202 13.3737 81.3722C13.0057 81.5242 12.8317 81.9452 12.9837 82.3132C13.1357 82.6802 13.5566 82.8552 13.9246 82.7022C14.2916 82.5502 14.4657 82.1292 14.3137 81.7622Z" fill="#2FD1A4"/>
<path d="M20.9573 79.0105C21.1093 79.3775 21.5303 79.5525 21.8983 79.3995C22.2653 79.2475 22.4403 78.8265 22.2883 78.4595C22.1363 78.0925 21.7153 77.9175 21.3483 78.0695C20.9793 78.2225 20.8053 78.6435 20.9573 79.0105Z" fill="#2FD1A4"/>
<path d="M15.094 82.9285C14.813 82.6475 14.357 82.6475 14.076 82.9285C13.795 83.2095 13.795 83.6655 14.076 83.9465C14.357 84.2275 14.813 84.2275 15.094 83.9465C15.375 83.6655 15.375 83.2105 15.094 82.9285Z" fill="#2FD1A4"/>
<path d="M20.1783 77.845C20.4593 78.126 20.9153 78.126 21.1963 77.845C21.4773 77.564 21.4773 77.108 21.1963 76.827C20.9153 76.546 20.4593 76.546 20.1783 76.827C19.8963 77.108 19.8963 77.563 20.1783 77.845Z" fill="#2FD1A4"/>
<path d="M16.2596 83.7083C15.8926 83.5563 15.4716 83.7303 15.3186 84.0973C15.1666 84.4653 15.3406 84.8863 15.7086 85.0383C16.0756 85.1903 16.4966 85.0163 16.6496 84.6483C16.8016 84.2813 16.6276 83.8603 16.2596 83.7083Z" fill="#2FD1A4"/>
<path d="M19.0118 77.0647C19.3788 77.2167 19.7998 77.0427 19.9528 76.6747C20.1048 76.3077 19.9308 75.8867 19.5628 75.7347C19.1958 75.5827 18.7748 75.7567 18.6228 76.1237C18.4698 76.4917 18.6448 76.9127 19.0118 77.0647Z" fill="#2FD1A4"/>
<path d="M17.6362 75.169C18.0392 75.169 18.3652 74.843 18.3652 74.44C18.3652 74.037 18.0392 73.71 17.6362 73.71C17.2332 73.71 16.9072 74.037 16.9072 74.44C16.9072 74.842 17.2332 75.169 17.6362 75.169Z" fill="#2FD1A4"/>
<path d="M17.6362 85.6045C17.2332 85.6045 16.9072 85.9305 16.9072 86.3335C16.9072 86.7365 17.2332 87.0625 17.6362 87.0625C18.0392 87.0625 18.3652 86.7365 18.3652 86.3335C18.3652 85.9315 18.0392 85.6045 17.6362 85.6045Z" fill="#2FD1A4"/>
<path d="M15.6394 75.5657C16.0114 75.4117 16.1884 74.9847 16.0344 74.6127C15.8804 74.2407 15.4534 74.0637 15.0814 74.2177C14.7094 74.3717 14.5324 74.7987 14.6864 75.1707C14.8404 75.5427 15.2674 75.7197 15.6394 75.5657Z" fill="#2FD1A4"/>
<path d="M19.6332 85.2079C19.2612 85.3619 19.0842 85.7889 19.2382 86.1609C19.3922 86.5329 19.8192 86.7099 20.1912 86.5559C20.5632 86.4019 20.7402 85.9749 20.5862 85.6029C20.4322 85.2309 20.0052 85.0539 19.6332 85.2079Z" fill="#2FD1A4"/>
<path d="M13.946 76.6969C14.231 76.4119 14.231 75.9499 13.946 75.6659C13.661 75.3809 13.1989 75.3809 12.9139 75.6659C12.6289 75.9509 12.6289 76.4129 12.9139 76.6979C13.1999 76.9819 13.661 76.9819 13.946 76.6969Z" fill="#2FD1A4"/>
<path d="M21.3261 84.077C21.0411 84.362 21.0411 84.823 21.3261 85.108C21.6111 85.393 22.0721 85.393 22.3571 85.108C22.6421 84.823 22.6421 84.361 22.3571 84.077C22.0731 83.792 21.6111 83.792 21.3261 84.077Z" fill="#2FD1A4"/>
<path d="M12.8147 78.3896C12.9687 78.0176 12.7927 77.5906 12.4197 77.4366C12.0477 77.2826 11.6207 77.4586 11.4667 77.8316C11.3127 78.2036 11.4897 78.6306 11.8617 78.7846C12.2337 78.9386 12.6607 78.7616 12.8147 78.3896Z" fill="#2FD1A4"/>
<path d="M22.457 82.3842C22.303 82.7562 22.4799 83.1832 22.8519 83.3372C23.2239 83.4912 23.6509 83.3142 23.8049 82.9422C23.9589 82.5702 23.783 82.1432 23.41 81.9892C23.038 81.8352 22.611 82.0122 22.457 82.3842Z" fill="#2FD1A4"/>
<path d="M12.418 80.3872C12.418 79.9842 12.091 79.6582 11.689 79.6582C11.286 79.6582 10.96 79.9842 10.96 80.3872C10.96 80.7902 11.287 81.1162 11.689 81.1162C12.091 81.1162 12.418 80.7902 12.418 80.3872Z" fill="#2FD1A4"/>
<path d="M22.8555 80.3872C22.8555 80.7902 23.1825 81.1162 23.5845 81.1162C23.9875 81.1162 24.3134 80.7902 24.3134 80.3872C24.3134 79.9842 23.9865 79.6582 23.5845 79.6582C23.1815 79.6582 22.8555 79.9842 22.8555 80.3872Z" fill="#2FD1A4"/>
<path d="M12.8147 82.3842C12.6607 82.0122 12.2337 81.8352 11.8617 81.9892C11.4897 82.1432 11.3127 82.5702 11.4667 82.9422C11.6207 83.3142 12.0477 83.4912 12.4197 83.3372C12.7917 83.1832 12.9687 82.7562 12.8147 82.3842Z" fill="#2FD1A4"/>
<path d="M22.457 78.3904C22.611 78.7624 23.038 78.9394 23.41 78.7854C23.782 78.6314 23.9589 78.2044 23.8049 77.8324C23.6509 77.4604 23.2239 77.2834 22.8519 77.4374C22.4799 77.5914 22.303 78.0184 22.457 78.3904Z" fill="#2FD1A4"/>
<path d="M13.9459 84.077C13.6609 83.792 13.1989 83.792 12.9149 84.077C12.6299 84.362 12.6299 84.824 12.9149 85.109C13.1999 85.394 13.6609 85.394 13.9459 85.109C14.2309 84.824 14.2309 84.362 13.9459 84.077Z" fill="#2FD1A4"/>
<path d="M21.3261 76.6969C21.6111 76.9819 22.0731 76.9819 22.3571 76.6969C22.6421 76.4119 22.6421 75.9499 22.3571 75.6659C22.0721 75.3809 21.6101 75.3809 21.3261 75.6659C21.0411 75.9499 21.0411 76.4119 21.3261 76.6969Z" fill="#2FD1A4"/>
<path d="M15.6386 85.2081C15.2666 85.0541 14.8396 85.2301 14.6856 85.6031C14.5316 85.9751 14.7076 86.4021 15.0806 86.5561C15.4526 86.7101 15.8796 86.5341 16.0336 86.1611C16.1876 85.7891 16.0106 85.3621 15.6386 85.2081Z" fill="#2FD1A4"/>
<path d="M19.6332 75.5657C20.0052 75.7197 20.4322 75.5427 20.5862 75.1707C20.7402 74.7987 20.5632 74.3717 20.1912 74.2177C19.8192 74.0637 19.3922 74.2407 19.2382 74.6127C19.0842 74.9847 19.2612 75.4117 19.6332 75.5657Z" fill="#2FD1A4"/>
<path d="M17.6358 73.5978C18.0518 73.5978 18.3888 73.2608 18.3888 72.8448C18.3888 72.4288 18.0518 72.0908 17.6358 72.0908C17.2198 72.0908 16.8828 72.4278 16.8828 72.8448C16.8828 73.2608 17.2198 73.5978 17.6358 73.5978Z" fill="#2FD1A4"/>
<path d="M17.6358 87.1758C17.2198 87.1758 16.8828 87.5128 16.8828 87.9288C16.8828 88.3448 17.2198 88.6818 17.6358 88.6818C18.0518 88.6818 18.3888 88.3448 18.3888 87.9288C18.3888 87.5128 18.0518 87.1758 17.6358 87.1758Z" fill="#2FD1A4"/>
<path d="M15.0375 74.1145C15.4215 73.9555 15.6045 73.5145 15.4455 73.1305C15.2865 72.7455 14.8455 72.5635 14.4615 72.7225C14.0775 72.8815 13.8944 73.3225 14.0534 73.7065C14.2124 74.0905 14.6535 74.2735 15.0375 74.1145Z" fill="#2FD1A4"/>
<path d="M20.2339 86.6589C19.8499 86.8179 19.6669 87.2589 19.8259 87.6429C19.9849 88.0269 20.4259 88.2099 20.8099 88.0509C21.1939 87.8919 21.3769 87.4509 21.2179 87.0669C21.0589 86.6829 20.6189 86.4999 20.2339 86.6589Z" fill="#2FD1A4"/>
<path d="M12.8363 75.5873C13.1303 75.2933 13.1303 74.8163 12.8363 74.5223C12.5423 74.2283 12.0653 74.2283 11.7703 74.5223C11.4763 74.8163 11.4763 75.2933 11.7703 75.5873C12.0643 75.8813 12.5413 75.8813 12.8363 75.5873Z" fill="#2FD1A4"/>
<path d="M22.4373 85.188C22.1433 85.482 22.1433 85.959 22.4373 86.253C22.7313 86.547 23.2083 86.547 23.5023 86.253C23.7963 85.959 23.7963 85.482 23.5023 85.188C23.2083 84.893 22.7313 84.893 22.4373 85.188Z" fill="#2FD1A4"/>
<path d="M11.3636 77.7886C11.5226 77.4046 11.3406 76.9636 10.9556 76.8046C10.5706 76.6456 10.1305 76.8276 9.97155 77.2126C9.81255 77.5966 9.99457 78.0376 10.3796 78.1966C10.7636 78.3556 11.2046 78.1726 11.3636 77.7886Z" fill="#2FD1A4"/>
<path d="M23.9081 82.9849C23.7491 83.3689 23.9311 83.8099 24.3161 83.9689C24.7001 84.1279 25.1411 83.9459 25.3001 83.5609C25.4591 83.1769 25.2771 82.7359 24.8921 82.5769C24.5081 82.4179 24.0681 82.6009 23.9081 82.9849Z" fill="#2FD1A4"/>
<path d="M10.8468 80.3868C10.8468 79.9708 10.5098 79.6338 10.0938 79.6338C9.67784 79.6338 9.33984 79.9708 9.33984 80.3868C9.33984 80.8028 9.67684 81.1398 10.0938 81.1398C10.5098 81.1398 10.8468 80.8028 10.8468 80.3868Z" fill="#2FD1A4"/>
<path d="M24.4248 80.3868C24.4248 80.8028 24.7618 81.1398 25.1778 81.1398C25.5938 81.1398 25.9308 80.8028 25.9308 80.3868C25.9308 79.9708 25.5938 79.6338 25.1778 79.6338C24.7618 79.6338 24.4248 79.9708 24.4248 80.3868Z" fill="#2FD1A4"/>
<path d="M11.3636 82.9849C11.2046 82.6009 10.7636 82.4179 10.3796 82.5769C9.99457 82.7359 9.81255 83.1769 9.97155 83.5609C10.1305 83.9449 10.5716 84.1279 10.9556 83.9689C11.3406 83.8099 11.5226 83.3689 11.3636 82.9849Z" fill="#2FD1A4"/>
<path d="M23.9079 77.7884C24.0669 78.1724 24.5079 78.3554 24.8919 78.1964C25.2759 78.0374 25.4589 77.5964 25.2999 77.2124C25.1409 76.8284 24.7 76.6454 24.316 76.8044C23.932 76.9634 23.7489 77.4044 23.9079 77.7884Z" fill="#2FD1A4"/>
<path d="M12.8363 85.1883C12.5423 84.8943 12.0653 84.8943 11.7713 85.1883C11.4773 85.4823 11.4773 85.9593 11.7713 86.2533C12.0653 86.5473 12.5423 86.5473 12.8363 86.2533C13.1303 85.9593 13.1303 85.4823 12.8363 85.1883Z" fill="#2FD1A4"/>
<path d="M22.4371 75.5873C22.7311 75.8813 23.2081 75.8813 23.5021 75.5873C23.7961 75.2933 23.7961 74.8163 23.5021 74.5223C23.2081 74.2283 22.7311 74.2283 22.4371 74.5223C22.1421 74.8153 22.1421 75.2923 22.4371 75.5873Z" fill="#2FD1A4"/>
<path d="M15.0376 86.6591C14.6536 86.5001 14.2126 86.6821 14.0536 87.0671C13.8946 87.4521 14.0766 87.8921 14.4616 88.0511C14.8456 88.2101 15.2866 88.0281 15.4456 87.6431C15.6046 87.2591 15.4216 86.8181 15.0376 86.6591Z" fill="#2FD1A4"/>
<path d="M20.2339 74.1145C20.6179 74.2735 21.0589 74.0915 21.2179 73.7065C21.3769 73.3225 21.1949 72.8815 20.8099 72.7225C20.4259 72.5635 19.9849 72.7455 19.8259 73.1305C19.6669 73.5145 19.8499 73.9555 20.2339 74.1145Z" fill="#2FD1A4"/>
<path d="M17.6366 80.9236C17.9326 80.9236 18.1726 80.6836 18.1726 80.3876C18.1726 80.0915 17.9326 79.8516 17.6366 79.8516C17.3405 79.8516 17.1006 80.0915 17.1006 80.3876C17.1006 80.6836 17.3405 80.9236 17.6366 80.9236Z" fill="#2FD1A4"/>
<path d="M17.6366 79.3991C17.9326 79.3991 18.1726 79.1591 18.1726 78.8631C18.1726 78.5671 17.9326 78.3271 17.6366 78.3271C17.3406 78.3271 17.1006 78.5671 17.1006 78.8631C17.1006 79.1591 17.3406 79.3991 17.6366 79.3991Z" fill="#2FD1A4"/>
<path d="M17.6366 81.375C17.3406 81.375 17.1006 81.615 17.1006 81.911C17.1006 82.207 17.3406 82.447 17.6366 82.447C17.9326 82.447 18.1726 82.207 18.1726 81.911C18.1726 81.616 17.9326 81.375 17.6366 81.375Z" fill="#2FD1A4"/>
<path d="M16.9372 79.688C17.1472 79.479 17.1472 79.139 16.9372 78.93C16.7272 78.72 16.3882 78.72 16.1792 78.93C15.9702 79.139 15.9702 79.479 16.1792 79.688C16.3882 79.898 16.7282 79.898 16.9372 79.688Z" fill="#2FD1A4"/>
<path d="M18.3355 81.0864C18.1265 81.2964 18.1265 81.6354 18.3355 81.8444C18.5445 82.0534 18.8845 82.0534 19.0935 81.8444C19.3035 81.6354 19.3035 81.2954 19.0935 81.0864C18.8845 80.8774 18.5445 80.8774 18.3355 81.0864Z" fill="#2FD1A4"/>
<path d="M16.6482 80.3876C16.6482 80.0916 16.4082 79.8516 16.1122 79.8516C15.8162 79.8516 15.5762 80.0916 15.5762 80.3876C15.5762 80.6836 15.8162 80.9236 16.1122 80.9236C16.4082 80.9236 16.6482 80.6836 16.6482 80.3876Z" fill="#2FD1A4"/>
<path d="M18.624 80.3876C18.624 80.6836 18.864 80.9236 19.16 80.9236C19.456 80.9236 19.696 80.6836 19.696 80.3876C19.696 80.0916 19.456 79.8516 19.16 79.8516C18.865 79.8516 18.624 80.0916 18.624 80.3876Z" fill="#2FD1A4"/>
<path d="M16.937 81.0864C16.727 80.8774 16.388 80.8774 16.179 81.0864C15.969 81.2964 15.969 81.6354 16.179 81.8444C16.388 82.0534 16.728 82.0534 16.937 81.8444C17.147 81.6354 17.147 81.2954 16.937 81.0864Z" fill="#2FD1A4"/>
<path d="M18.3355 79.688C18.5445 79.897 18.8845 79.897 19.0935 79.688C19.3025 79.479 19.3025 79.139 19.0935 78.93C18.8845 78.72 18.5445 78.72 18.3355 78.93C18.1265 79.139 18.1265 79.479 18.3355 79.688Z" fill="#2FD1A4"/>
</svg>
