<svg width="46" height="118" viewBox="0 0 46 118" fill="none" xmlns="http://www.w3.org/2000/svg">
<path d="M36.8428 58.6512C36.8428 62.9422 38.1465 65.2232 38.6619 64.9706C39.1387 64.7366 38.367 62.5165 38.6762 62.3649C38.8895 62.2604 39.4399 63.7839 39.7011 65.057C39.9529 66.285 40.3954 67.7887 40.8703 67.7204C41.3803 67.6462 41.7401 66.134 41.751 65.9016C41.8153 64.5204 41.6007 63.8953 41.5489 63.6352C41.1014 61.3978 40.7413 58.4297 39.5423 57.5871C39.0312 57.2278 36.8428 58.1396 36.8428 58.6512Z" fill="#D89F64"/>
<mask id="mask0_16162_199443" style="mask-type:luminance" maskUnits="userSpaceOnUse" x="30" y="26" width="13" height="38">
<path d="M36.9483 26.8759C38.4159 31.8245 38.1484 38.5425 39.136 46.2433C39.7989 51.4129 41.4611 58.8177 42.0262 63.7637C42.0262 63.7637 40.9184 63.602 39.5404 62.9941C38.5223 62.5453 37.2039 62.3115 36.2288 61.2606C36.2288 61.2606 35.4699 57.4773 33.9595 45.6745C33.4468 41.6664 32.6079 37.607 32.6079 35.8869C32.6079 33.8851 29.5015 30.7925 30.5864 27.8683C31.7016 24.8622 36.9483 26.8759 36.9483 26.8759Z" fill="white"/>
</mask>
<g mask="url(#mask0_16162_199443)">
<path d="M36.9483 26.8759C38.4159 31.8245 38.1484 38.5425 39.136 46.2433C39.7989 51.4129 41.4611 58.8177 42.0262 63.7637C42.0262 63.7637 40.9184 63.602 39.5404 62.9941C38.5223 62.5453 37.2039 62.3115 36.2288 61.2606C36.2288 61.2606 35.4699 57.4773 33.9595 45.6745C33.4468 41.6664 32.6079 37.607 32.6079 35.8869C32.6079 33.8851 29.5015 30.7925 30.5864 27.8683C31.7016 24.8622 36.9483 26.8759 36.9483 26.8759Z" fill="url(#paint0_linear_16162_199443)"/>
</g>
<path d="M36.8714 26.6066L36.6674 26.1091C36.6674 26.1091 31.4854 26.8079 30.2244 33.9325C28.5502 31.7845 28.972 29.236 28.972 26.3051C28.972 22.359 26.624 29.466 24.6953 38.1597C24.6953 38.1597 28.2266 40.1216 31.4638 38.178C32.2408 37.7116 33.0899 36.8421 33.0899 34.8286C33.0899 31.1378 31.9874 28.9687 36.8714 26.6066Z" fill="#040606"/>
<path d="M9.48821 58.6512C9.48821 62.9422 8.18471 65.2232 7.66938 64.9706C7.19233 64.7366 7.96427 62.5165 7.65502 62.3649C7.44176 62.2604 6.89105 63.7839 6.63019 65.057C6.37837 66.285 5.9359 67.7887 5.46072 67.7204C4.95096 67.6462 4.59119 66.134 4.58029 65.9016C4.51594 64.5204 4.73052 63.8953 4.78237 63.6352C5.2299 61.3978 5.58995 58.4297 6.78894 57.5871C7.30002 57.2278 9.48821 58.1396 9.48821 58.6512Z" fill="#D89F64"/>
<path d="M9.45851 58.6512C9.45851 62.9422 8.15501 65.2232 7.63967 64.9706C7.16262 64.7366 7.9343 62.5165 7.62532 62.3649C7.41179 62.2604 6.86135 63.7839 6.60023 65.057C6.34867 66.285 5.9062 67.7887 5.43128 67.7204C4.92126 67.6462 4.56148 66.134 4.55058 65.9016C4.48596 64.5204 4.70082 63.8953 4.75267 63.6352C5.2002 61.3978 5.56025 58.4297 6.75924 57.5871C7.27032 57.2278 9.45851 58.1396 9.45851 58.6512Z" fill="#D89F64"/>
<mask id="mask1_16162_199443" style="mask-type:luminance" maskUnits="userSpaceOnUse" x="4" y="26" width="12" height="38">
<path d="M9.3547 26.8759C7.88687 31.8245 8.15465 38.5425 7.16705 46.2433C6.50387 51.4129 4.84192 58.8177 4.27686 63.7637C4.27686 63.7637 5.38464 63.602 6.76233 62.9941C7.7805 62.5453 9.09916 62.3115 10.0743 61.2606C10.0743 61.2606 10.8332 57.4773 12.3435 45.6745C12.8562 41.6664 13.6952 37.607 13.6952 35.8869C13.6952 33.8851 16.8015 30.7925 15.7166 27.8683C14.6014 24.8622 9.3547 26.8759 9.3547 26.8759Z" fill="white"/>
</mask>
<g mask="url(#mask1_16162_199443)">
<path d="M9.3547 26.8759C7.88687 31.8245 8.15465 38.5425 7.16705 46.2433C6.50387 51.4129 4.84192 58.8177 4.27686 63.7637C4.27686 63.7637 5.38464 63.602 6.76233 62.9941C7.7805 62.5453 9.09916 62.3115 10.0743 61.2606C10.0743 61.2606 10.8332 57.4773 12.3435 45.6745C12.8562 41.6664 13.6952 37.607 13.6952 35.8869C13.6952 33.8851 16.8015 30.7925 15.7166 27.8683C14.6014 24.8622 9.3547 26.8759 9.3547 26.8759Z" fill="url(#paint1_linear_16162_199443)"/>
</g>
<path d="M9.43066 26.6066L9.63435 26.1091C9.63435 26.1091 14.8164 26.8079 16.0774 33.9325C17.7516 31.7845 17.3301 29.236 17.3301 26.3051C17.3301 22.359 19.6781 29.466 21.6067 38.1597C21.6067 38.1597 18.0754 40.1216 14.838 38.178C14.061 37.7116 13.2122 36.8421 13.2122 34.8286C13.2122 31.1378 14.3147 28.9687 9.43066 26.6066Z" fill="#040606"/>
<mask id="mask2_16162_199443" style="mask-type:luminance" maskUnits="userSpaceOnUse" x="0" y="23" width="46" height="90">
<path d="M45.4742 107.594L45.4782 107.594C45.4782 107.594 33.2128 57.5038 31.7936 45.4248C31.5841 43.6411 31.4634 38.1769 31.4634 38.1769C31.4634 38.1769 28.7178 39.4923 25.8532 36.5862C26.4924 36.9489 27.2285 37.1611 28.0164 37.1611C30.446 37.1611 32.2874 35.2298 32.2874 32.4013C32.2874 27.0841 36.9475 26.8746 36.9475 26.8746C36.667 25.0111 35.7775 24.1955 35.7775 24.1955C26.5211 21.5848 25.2509 31.4464 23.1879 31.4562C23.1821 31.4562 23.1765 31.4562 23.1706 31.4565C23.1651 31.4562 23.1592 31.4562 23.1534 31.4562C21.0904 31.4464 19.8204 21.5848 10.5638 24.1955C10.5638 24.1955 9.67431 25.0111 9.39404 26.8746C9.39404 26.8746 14.0539 27.0841 14.0539 32.4013C14.0539 35.2298 15.8956 37.1611 18.3252 37.1611C19.0783 37.1611 19.7824 36.964 20.402 36.6306C17.5541 39.4758 14.8381 38.1769 14.8381 38.1769C14.8381 38.1769 14.7117 43.469 14.5118 45.2698C12.7517 61.1035 0.844727 107.594 0.844727 107.594L15.9458 112.057L23.0329 111.511C35.3842 111.509 45.5237 112.102 45.5237 108.059C45.5237 107.903 45.5037 107.748 45.4742 107.594Z" fill="white"/>
</mask>
<g mask="url(#mask2_16162_199443)">
<path d="M45.4742 107.594L45.4782 107.594C45.4782 107.594 33.2128 57.5038 31.7936 45.4248C31.5841 43.6411 31.4634 38.1769 31.4634 38.1769C31.4634 38.1769 28.7178 39.4923 25.8532 36.5862C26.4924 36.9489 27.2285 37.1611 28.0164 37.1611C30.446 37.1611 32.2874 35.2298 32.2874 32.4013C32.2874 27.0841 36.9475 26.8746 36.9475 26.8746C36.667 25.0111 35.7775 24.1955 35.7775 24.1955C26.5211 21.5848 25.2509 31.4464 23.1879 31.4562C23.1821 31.4562 23.1765 31.4562 23.1706 31.4565C23.1651 31.4562 23.1592 31.4562 23.1534 31.4562C21.0904 31.4464 19.8204 21.5848 10.5638 24.1955C10.5638 24.1955 9.67431 25.0111 9.39404 26.8746C9.39404 26.8746 14.0539 27.0841 14.0539 32.4013C14.0539 35.2298 15.8956 37.1611 18.3252 37.1611C19.0783 37.1611 19.7824 36.964 20.402 36.6306C17.5541 39.4758 14.8381 38.1769 14.8381 38.1769C14.8381 38.1769 14.7117 43.469 14.5118 45.2698C12.7517 61.1035 0.844727 107.594 0.844727 107.594L15.9458 112.057L23.0329 111.511C35.3842 111.509 45.5237 112.102 45.5237 108.059C45.5237 107.903 45.5037 107.748 45.4742 107.594Z" fill="url(#paint2_linear_16162_199443)"/>
</g>
<path d="M35.9613 66.8625C39.8795 85.3612 44.3931 100.464 39.9896 100.464C35.5864 100.464 31.999 73.9222 31.999 73.9222C31.999 78.7301 35.0905 103.117 29.7762 103.117C28.8902 103.117 28.1627 102.439 27.5623 101.281C24.5604 95.4937 23.5693 75.386 23.1614 69.4708C23.1614 69.4708 20.9376 108.78 16.0619 108.78C11.0276 108.78 13.0257 78.5722 13.0257 78.5722L8.06006 113.384C8.61821 113.858 9.18061 114.273 9.74328 114.644C16.3062 118.973 22.9099 116.635 23.3072 116.531C32.6401 119.082 38.5542 113.384 38.5542 113.384C45.2887 112.693 45.6695 108.602 45.6695 108.602C42.4637 91.9316 35.2904 63.6952 35.9613 66.8625Z" fill="#040606"/>
<path d="M9.23846 113.574C9.23846 113.574 1.0444 114.141 0.746582 107.939L7.52094 80.2238C7.52094 80.2238 3.42697 106.013 5.52607 106.967C7.62518 107.921 11.5516 89.9311 11.5516 89.9311C11.5516 89.9311 12.0055 111.141 9.23846 113.574Z" fill="#040606"/>
<path d="M32.7112 21.9993C30.4978 20.9939 27.886 20.4568 27.3273 19.8053H23.1991H23.1711H19.0429C18.4842 20.4568 15.8729 20.9952 13.6587 21.9993C9.07545 24.0777 9.65168 26.9578 9.65168 26.9578C9.79474 25.6325 10.9416 24.0607 12.7831 26.4541C14.2543 28.3663 17.0552 28.1246 17.7825 28.7487C18.3297 29.2183 18.8751 31.8125 23.1709 31.8125H23.185C27.481 31.8125 28.0405 29.2183 28.5878 28.7487C29.315 28.1246 32.1885 28.42 33.5869 26.4541C34.9024 24.6052 36.2059 24.4085 36.6672 25.7428C36.6672 25.7428 36.4662 23.7043 32.7112 21.9993Z" fill="#040606"/>
<path d="M15.3247 10.5839C15.3247 15.8928 18.8499 20.1963 23.1989 20.1963V0.971429C18.8499 0.971429 15.3247 5.2752 15.3247 10.5839Z" fill="#151516"/>
<path d="M23.1992 0.971429V20.1963C27.5479 20.1963 31.0731 15.8928 31.0731 10.5839C31.0731 5.2752 27.5479 0.971429 23.1992 0.971429Z" fill="#151516"/>
<path d="M31.8108 18.4691C31.8108 20.7493 30.1739 22.5977 28.1546 22.5977C26.1355 22.5977 24.4985 20.7493 24.4985 18.4691C24.4985 16.1889 26.1355 14.3403 28.1546 14.3403C30.1739 14.3403 31.8108 16.1889 31.8108 18.4691Z" fill="#151516"/>
<path d="M14.2559 20.7499C14.2559 23.0301 16.1683 22.5983 18.1874 22.5983C20.2067 22.5983 21.8436 20.7499 21.8436 18.4697C21.8436 16.1895 20.2067 14.3409 18.1874 14.3409C16.1683 14.3409 14.2559 18.4697 14.2559 20.7499Z" fill="#151516"/>
<path d="M32.7912 20.5895C32.7912 20.5895 32.8598 19.5996 31.4816 19.3153C29.7423 18.9568 23.1711 17.91 23.1711 17.91V18.4697C23.1711 18.4697 16.5398 18.7372 14.8608 19.3153C13.1821 19.8937 13.2526 21.3107 13.2526 21.3107C11.246 21.4971 10.7666 23.9642 10.7666 23.9642C12.119 23.2593 12.9396 24.6686 12.9396 24.6686C14.2453 27.4479 18.0172 27.9707 18.0172 27.9707C19.8084 30.2969 21.7136 30.5381 23.1711 30.5381C24.6286 30.5381 26.5982 30.1153 28.3253 27.9707C28.3253 27.9707 32.0972 27.4479 33.4028 24.6686C33.4028 24.6686 34.2232 23.2593 35.5759 23.9642C35.5759 23.9642 35.378 21.3604 32.7912 20.5895Z" fill="#151516"/>
<path d="M31.7163 19.4063C30.7458 21.0794 28.7416 24.8303 23.1992 24.8303C17.6568 24.8303 16.3857 22.013 16.3857 22.013C17.0242 24.583 19.2733 26.764 23.171 27.0611C27.3275 27.3778 33.1512 24.6418 33.0017 20.5611C32.9653 19.5698 31.7254 19.3908 31.7163 19.4063Z" fill="#040606"/>
<path d="M30.5704 18.8929C30.7352 19.2176 29.5586 21.9174 26.4442 22.8476C23.3482 23.8373 20.8526 22.2727 20.8061 21.9116C20.6221 21.5262 22.6308 22.3982 25.7265 21.4084C28.8411 20.478 30.5044 18.4712 30.5704 18.8929Z" fill="#040606"/>
<path d="M16.3724 15.3774C16.3724 15.3774 18.0498 21.3102 26.5172 18.9983C26.5172 18.9983 24.731 21.0107 21.505 21.0107C18.0498 21.0107 15.8142 19.0922 16.3724 15.3774Z" fill="#040606"/>
<path d="M33.5871 24.0714C33.5871 24.2089 33.4759 24.3203 33.3385 24.3203C33.201 24.3203 33.0898 24.2089 33.0898 24.0714C33.0898 23.9342 33.201 23.8228 33.3385 23.8228C33.4759 23.8228 33.5871 23.9342 33.5871 24.0714Z" fill="white"/>
<path d="M34.8679 23.2455C34.8679 23.3827 34.7567 23.4941 34.6192 23.4941C34.482 23.4941 34.3706 23.3827 34.3706 23.2455C34.3706 23.108 34.482 22.9966 34.6192 22.9966C34.7567 22.9966 34.8679 23.108 34.8679 23.2455Z" fill="white"/>
<path d="M32.6171 25.3322C32.6171 25.4696 32.5057 25.5811 32.3683 25.5811C32.231 25.5811 32.1196 25.4696 32.1196 25.3322C32.1196 25.1949 32.231 25.0835 32.3683 25.0835C32.5057 25.0835 32.6171 25.1949 32.6171 25.3322Z" fill="white"/>
<path d="M31.0832 26.3588C31.0832 26.496 30.972 26.6074 30.8346 26.6074C30.6971 26.6074 30.5859 26.496 30.5859 26.3588C30.5859 26.2213 30.6971 26.1099 30.8346 26.1099C30.972 26.1099 31.0832 26.2213 31.0832 26.3588Z" fill="white"/>
<path d="M29.0854 27.129C29.0854 27.2665 28.974 27.3779 28.8365 27.3779C28.6993 27.3779 28.5879 27.2665 28.5879 27.129C28.5879 26.9918 28.6993 26.8804 28.8365 26.8804C28.974 26.8804 29.0854 26.9918 29.0854 27.129Z" fill="white"/>
<path d="M27.4809 28.1166C27.4809 28.2541 27.3695 28.3652 27.232 28.3652C27.0948 28.3652 26.9834 28.2541 26.9834 28.1166C26.9834 27.9791 27.0948 27.868 27.232 27.868C27.3695 27.868 27.4809 27.9791 27.4809 28.1166Z" fill="white"/>
<path d="M25.5971 29.2182C25.5971 29.3556 25.4857 29.4668 25.3482 29.4668C25.211 29.4668 25.0996 29.3556 25.0996 29.2182C25.0996 29.081 25.211 28.9695 25.3482 28.9695C25.4857 28.9695 25.5971 29.081 25.5971 29.2182Z" fill="white"/>
<path d="M12.7549 24.0714C12.7549 24.2089 12.8663 24.3203 13.0035 24.3203C13.141 24.3203 13.2524 24.2089 13.2524 24.0714C13.2524 23.9342 13.141 23.8228 13.0035 23.8228C12.8663 23.8228 12.7549 23.9342 12.7549 24.0714Z" fill="white"/>
<path d="M11.4863 23.2455C11.4863 23.3827 11.5975 23.4941 11.735 23.4941C11.8724 23.4941 11.9836 23.3827 11.9836 23.2455C11.9836 23.108 11.8724 22.9966 11.735 22.9966C11.5975 22.9966 11.4863 23.108 11.4863 23.2455Z" fill="white"/>
<path d="M13.7251 25.3322C13.7251 25.4696 13.8363 25.5811 13.9737 25.5811C14.1112 25.5811 14.2224 25.4696 14.2224 25.3322C14.2224 25.1949 14.1112 25.0835 13.9737 25.0835C13.8363 25.0835 13.7251 25.1949 13.7251 25.3322Z" fill="white"/>
<path d="M15.2588 26.3588C15.2588 26.496 15.3702 26.6074 15.5074 26.6074C15.6449 26.6074 15.7563 26.496 15.7563 26.3588C15.7563 26.2213 15.6449 26.1099 15.5074 26.1099C15.3702 26.1099 15.2588 26.2213 15.2588 26.3588Z" fill="white"/>
<path d="M17.2568 27.129C17.2568 27.2665 17.368 27.3779 17.5055 27.3779C17.6429 27.3779 17.7541 27.2665 17.7541 27.129C17.7541 26.9918 17.6429 26.8804 17.5055 26.8804C17.368 26.8804 17.2568 26.9918 17.2568 27.129Z" fill="white"/>
<path d="M18.8608 28.1166C18.8608 28.2541 18.972 28.3652 19.1095 28.3652C19.2469 28.3652 19.3581 28.2541 19.3581 28.1166C19.3581 27.9791 19.2469 27.868 19.1095 27.868C18.972 27.868 18.8608 27.9791 18.8608 28.1166Z" fill="white"/>
<path d="M20.7451 29.2182C20.7451 29.3556 20.8565 29.4668 20.9937 29.4668C21.1312 29.4668 21.2424 29.3556 21.2424 29.2182C21.2424 29.081 21.1312 28.9695 20.9937 28.9695C20.8565 28.9695 20.7451 29.081 20.7451 29.2182Z" fill="white"/>
<path d="M23.4196 29.4669C23.4196 29.6044 23.3085 29.7158 23.171 29.7158C23.0338 29.7158 22.9224 29.6044 22.9224 29.4669C22.9224 29.3297 23.0338 29.2183 23.171 29.2183C23.3085 29.2183 23.4196 29.3297 23.4196 29.4669Z" fill="white"/>
<path d="M13.0889 21.3545C13.0889 21.3545 13.4162 23.7405 16.1522 24.7178C16.1522 24.7178 13.5904 21.6585 14.4006 19.5144C14.4006 19.5144 13.2992 19.7851 13.0889 21.3545Z" fill="#040606"/>
<path d="M17.5532 10.5941C17.5532 14.7917 20.081 18.1943 23.1991 18.1943V2.99378C20.081 2.99378 17.5532 6.39665 17.5532 10.5941Z" fill="#040606"/>
<path d="M23.1992 2.99378V18.1943C26.3173 18.1943 28.8448 14.7917 28.8448 10.5941C28.8448 6.39665 26.3173 2.99378 23.1992 2.99378Z" fill="#040606"/>
<path d="M28.239 9.24091C28.239 5.84814 25.9474 3.60305 23.1992 3.60225V17.3438C25.7897 17.3422 28.239 13.4343 28.239 9.24091Z" fill="#D89F64"/>
<path d="M18.1592 9.24091C18.1592 5.84814 20.4511 3.60305 23.199 3.60225V17.3438C20.6088 17.3422 18.1592 13.4343 18.1592 9.24091Z" fill="#D89F64"/>
<path d="M20.1121 4.46626C18.8921 5.47698 18.1887 7.13946 18.1616 9.13965C18.56 8.67563 19.0115 8.27411 19.5047 7.94145C19.4928 7.21338 19.5603 5.83543 20.1121 4.46626Z" fill="#25935F"/>
<path d="M23.1987 3.40634C22.9004 3.40634 22.6129 3.42947 22.3366 3.47361C22.1526 4.25113 21.9628 5.46183 22.0601 6.91663C22.4313 6.85307 22.8115 6.81984 23.1987 6.81957C25.1707 6.82037 26.9704 7.66597 28.2364 9.13965C28.1909 5.80406 26.1182 3.40634 23.1987 3.40634Z" fill="#25935F"/>
<path d="M22.3369 3.47356C21.4766 3.61077 20.7284 3.95513 20.112 4.46621C19.5602 5.83539 19.4927 7.21334 19.5046 7.94141C20.2702 7.42474 21.1363 7.07507 22.0603 6.91658C21.963 5.46178 22.1528 4.25109 22.3369 3.47356Z" fill="#29B070"/>
<path d="M23.4913 12.3254C23.5817 12.2074 23.9186 11.8518 24.1513 12.0845C24.3839 12.3172 23.2384 12.6554 23.4913 12.3254Z" fill="#A15832"/>
<path d="M22.9316 12.3254C22.8412 12.2074 22.5043 11.8518 22.2716 12.0845C22.039 12.3172 23.1842 12.6554 22.9316 12.3254Z" fill="#A15832"/>
<path d="M21.5327 14.0273C21.5327 14.0273 21.8125 15.0684 23.1989 15.0684V14.1018L21.5327 14.0273Z" fill="#A15832"/>
<path d="M22.7761 13.6232C22.5275 13.6232 21.7441 14.0279 21.5327 14.0279C21.5327 14.0279 21.5745 14.2175 22.2943 14.1566C22.8447 14.1098 22.8663 14.3398 23.1989 14.3398V13.787C23.0763 13.787 23.025 13.6232 22.7761 13.6232Z" fill="#A15832"/>
<path d="M24.8657 14.0273C24.8657 14.0273 24.5859 15.0684 23.1992 15.0684V14.1018L24.8657 14.0273Z" fill="#A15832"/>
<path d="M23.622 13.6232C23.8709 13.6232 24.6543 14.0279 24.8657 14.0279C24.8657 14.0279 24.8237 14.2175 24.1041 14.1566C23.5534 14.1098 23.5319 14.3398 23.1992 14.3398V13.787C23.3218 13.787 23.3734 13.6232 23.622 13.6232Z" fill="#A15832"/>
<path d="M25.4598 7.8903C26.983 7.70177 27.104 8.96777 27.104 8.96777C26.3916 7.6438 25.2202 8.64149 24.3808 8.6024C23.8101 8.57608 23.7338 8.10409 25.4598 7.8903Z" fill="#040606"/>
<path d="M24.2319 9.89453C24.2319 9.89453 24.2992 8.86918 25.6716 8.69288C26.7065 8.55992 26.5935 9.75067 26.5935 9.75067C26.5935 9.75067 25.3602 8.78462 24.2319 9.89453Z" fill="#A15832"/>
<path d="M24.2319 9.89469C24.2319 9.89469 24.2745 10.0957 25.1653 10.3627C25.9657 10.6025 26.5935 9.75083 26.5935 9.75083C26.5935 9.75083 26.1337 9.27006 25.2291 9.33229C24.4213 9.38813 24.2319 9.89469 24.2319 9.89469Z" fill="white"/>
<path d="M25.9931 9.88005C25.9647 10.1986 25.6879 10.4339 25.3736 10.4071C25.059 10.3802 24.8269 10.0997 24.8542 9.78273C24.8811 9.46417 25.1587 9.22777 25.4722 9.25569C25.7884 9.28122 26.0208 9.56281 25.9931 9.88005Z" fill="#362115"/>
<path d="M25.2132 9.71819C25.207 9.78679 25.1485 9.83679 25.0813 9.82934C25.0151 9.82589 24.9651 9.76579 24.9706 9.69824C24.977 9.62991 25.0358 9.57858 25.1025 9.58602C25.169 9.59267 25.219 9.65118 25.2132 9.71819Z" fill="white"/>
<path d="M25.7527 10.1691C25.7468 10.2372 25.6883 10.2869 25.6208 10.2819C25.5548 10.2763 25.5048 10.2162 25.5102 10.1487C25.5149 10.0816 25.5753 10.0298 25.6423 10.0356C25.7088 10.042 25.7588 10.1016 25.7527 10.1691Z" fill="white"/>
<path d="M25.6028 9.86428C25.5932 9.96426 25.5073 10.0392 25.406 10.0294C25.309 10.0214 25.234 9.93314 25.2441 9.83183C25.2515 9.73158 25.3401 9.65739 25.4387 9.66617C25.5379 9.67468 25.6118 9.7635 25.6028 9.86428Z" fill="#040606"/>
<path d="M24.2319 9.89453C24.2319 9.89453 24.5508 9.15211 25.4107 9.13615C26.3704 9.11834 26.5935 9.75067 26.5935 9.75067C26.5935 9.75067 25.3602 8.78462 24.2319 9.89453Z" fill="#040606"/>
<path d="M20.9383 7.8903C19.4152 7.70177 19.2939 8.96777 19.2939 8.96777C20.0063 7.6438 21.1777 8.64149 22.0171 8.6024C22.5881 8.57608 22.6644 8.10409 20.9383 7.8903Z" fill="#040606"/>
<path d="M22.1662 9.89453C22.1662 9.89453 22.0987 8.86918 20.7266 8.69288C19.6914 8.55992 19.8044 9.75067 19.8044 9.75067C19.8044 9.75067 21.0377 8.78462 22.1662 9.89453Z" fill="#A15832"/>
<path d="M22.1665 9.89469C22.1665 9.89469 22.1237 10.0957 21.2332 10.3627C20.4328 10.6025 19.8047 9.75083 19.8047 9.75083C19.8047 9.75083 20.2644 9.27006 21.1691 9.33229C21.9769 9.38813 22.1665 9.89469 22.1665 9.89469Z" fill="white"/>
<path d="M20.405 9.88005C20.4337 10.1986 20.7106 10.4339 21.0246 10.4071C21.3394 10.3802 21.5716 10.0997 21.5439 9.78273C21.5171 9.46417 21.2395 9.22777 20.9259 9.25569C20.61 9.28122 20.3776 9.56281 20.405 9.88005Z" fill="#362115"/>
<path d="M21.1851 9.71819C21.1909 9.78679 21.2494 9.83679 21.317 9.82934C21.3829 9.82589 21.4329 9.76579 21.4276 9.69824C21.4209 9.62991 21.3624 9.57858 21.2954 9.58602C21.2292 9.59267 21.179 9.65118 21.1851 9.71819Z" fill="white"/>
<path d="M20.646 10.1691C20.6521 10.2372 20.7106 10.2869 20.7781 10.2819C20.8441 10.2763 20.8941 10.2162 20.8885 10.1487C20.8837 10.0816 20.8233 10.0298 20.7563 10.0356C20.6901 10.042 20.6401 10.1016 20.646 10.1691Z" fill="white"/>
<path d="M20.7952 9.86428C20.8048 9.96426 20.8906 10.0392 20.992 10.0294C21.089 10.0214 21.1643 9.93314 21.1539 9.83183C21.1465 9.73158 21.0579 9.65739 20.9595 9.66617C20.8601 9.67468 20.7861 9.7635 20.7952 9.86428Z" fill="#040606"/>
<path d="M22.1665 9.89453C22.1665 9.89453 21.8477 9.15211 20.9875 9.13615C20.0278 9.11834 19.8047 9.75067 19.8047 9.75067C19.8047 9.75067 21.038 8.78462 22.1665 9.89453Z" fill="#040606"/>
<defs>
<linearGradient id="paint0_linear_16162_199443" x1="31.3355" y1="44.8497" x2="44.598" y2="45.1359" gradientUnits="userSpaceOnUse">
<stop stop-color="#040606"/>
<stop offset="0.855072" stop-color="#151516"/>
<stop offset="1" stop-color="#151516"/>
</linearGradient>
<linearGradient id="paint1_linear_16162_199443" x1="5.75984" y1="44.7345" x2="17.9277" y2="45.8091" gradientUnits="userSpaceOnUse">
<stop stop-color="#151516"/>
<stop offset="0.144928" stop-color="#151516"/>
<stop offset="0.847777" stop-color="#040606"/>
<stop offset="1" stop-color="#040606"/>
</linearGradient>
<linearGradient id="paint2_linear_16162_199443" x1="23.1842" y1="116.85" x2="23.1842" y2="25.8428" gradientUnits="userSpaceOnUse">
<stop stop-color="#040606"/>
<stop offset="0.661836" stop-color="#151516"/>
<stop offset="1" stop-color="#0D0D0D"/>
</linearGradient>
</defs>
</svg>
