<svg width="101" height="114" viewBox="0 0 101 114" fill="none" xmlns="http://www.w3.org/2000/svg">
<path d="M63.2319 69.5662C63.2319 69.5662 61.901 73.9297 63.2319 80.6603C64.5636 87.3909 75.0659 87.9089 75.0659 87.9089C75.0659 87.9089 70.6322 102.18 50.3667 101.878C30.1019 101.575 25.5381 87.9089 25.5381 87.9089C25.5381 87.9089 36.0411 87.3909 37.3721 80.6603C38.7037 73.9297 37.3721 69.5662 37.3721 69.5662C37.3721 69.5662 63.2319 69.3151 63.2319 69.5662Z" fill="#FFD9C0"/>
<path opacity="0.64" d="M37.5971 79.3916C38.9614 80.7649 40.501 81.9638 42.1727 82.9109C43.6532 83.7502 45.2609 84.3893 46.9395 84.6911C48.5201 84.9755 50.1487 84.9226 51.7279 84.6577C54.8843 84.1285 57.8452 82.7294 60.4904 80.9618C61.345 80.3909 62.1712 79.7775 62.9695 79.1301C62.103 73.2771 63.233 69.5659 63.233 69.5659C63.233 69.3155 37.3732 69.5659 37.3732 69.5659C37.3732 69.5659 38.5379 73.387 37.5971 79.3916Z" fill="#EB936D"/>
<path d="M50.476 103.22C70.2492 103.093 72.8979 87.4833 72.8979 87.4833C73.1621 86.4263 71.5287 86.0904 69.9196 85.6343C68.3105 85.1781 68.4064 85.2741 68.3105 85.6586C68.2187 86.0244 66.75 97.4731 52.163 98.1324C36.7193 98.5711 32.6729 88.5695 32.3697 85.6586C32.3286 85.2643 32.3697 85.1781 30.7606 85.6343C29.1514 86.0904 27.5187 86.427 27.7829 87.4833C27.7829 87.4833 30.7028 103.346 50.476 103.22Z" fill="#843AD6"/>
<path d="M100.34 113.64C96.0384 90.6525 72.8975 87.4829 72.8975 87.4829C72.8975 87.4829 70.2481 103.094 50.4756 103.219C30.7025 103.346 27.7826 87.4829 27.7826 87.4829C27.7826 87.4829 4.64166 90.6525 0.340027 113.64H43.5594C43.5594 113.64 57.5254 113.505 57.1221 113.64H100.34Z" fill="#AE6BF1"/>
<path d="M82.9369 42.7269C82.1525 39.9593 79.1964 38.6846 76.3829 39.8682C74.7738 40.5455 73.5833 42.1205 72.9018 43.649C72.5048 44.5397 72.2704 45.4987 72.1397 46.4472C71.5305 48.1641 71.228 50.0312 71.3115 51.7912C71.3706 53.0373 71.4999 55.3188 72.7996 55.9384C74.0666 56.542 76.1034 55.3675 77.1944 54.6701C78.5796 53.7848 79.7284 52.5777 80.6664 51.2509C82.4334 48.7538 83.7658 45.6531 82.9369 42.7269Z" fill="#F9BC93"/>
<path opacity="0.64" d="M74.1466 56.0538C74.3329 55.4162 74.5109 54.7771 74.6785 54.1346C75.3468 51.5749 75.8718 48.9714 76.1124 46.3546C76.3057 44.2504 76.3217 42.1156 75.9956 40.0552C74.5826 40.8062 73.527 42.2463 72.9018 43.6489C72.5048 44.5397 72.2704 45.4986 72.1397 46.4471C71.5305 48.164 71.228 50.0311 71.3115 51.7911C71.3706 53.0372 71.4999 55.3188 72.7996 55.9384C73.1918 56.1247 73.6577 56.1407 74.1466 56.0538Z" fill="#EB936D"/>
<path opacity="0.64" d="M81.6051 42.8759C81.3054 42.3585 80.7491 42.0706 80.1671 42.0199C78.8271 41.9024 77.4335 42.9392 76.5706 43.96C74.6492 46.2332 74.2529 49.4159 74.1054 52.2253C74.0971 52.3894 74.3321 52.2649 74.3502 52.1495C74.4232 51.6947 74.4976 51.2323 74.5783 50.7671C74.6263 51.0953 74.7 51.4159 74.7737 51.7031C74.9183 52.267 75.2556 52.758 75.8682 52.7635C77.3473 52.7774 78.398 50.9131 79.1289 49.8408C79.1977 49.74 79.0482 49.7184 78.9912 49.788C78.3125 50.6085 77.6067 51.6766 76.6067 52.1008C75.8015 52.4416 75.4552 51.8609 75.2473 51.1906C75.0762 50.6384 74.8008 50.0022 74.9309 49.4013C74.9489 49.3179 74.9183 49.2769 74.8704 49.2637C75.1729 47.8833 75.5915 46.5232 76.2855 45.3021C76.8884 44.2423 77.7937 43.2597 78.9356 42.839C79.713 42.5525 80.5551 42.6471 81.0217 43.3564C81.4577 44.0184 81.3075 44.9252 81.4035 45.7005C81.4146 45.793 81.5606 45.6971 81.5648 45.6317C81.6246 44.7138 82.0954 43.7222 81.6051 42.8759Z" fill="#EB936D"/>
<path d="M20.1337 51.4441C21.0717 52.7702 22.2205 53.9781 23.6057 54.8633C24.6968 55.5608 26.7328 56.7353 28.0005 56.1317C29.3002 55.5128 29.4295 53.2313 29.4886 51.9844C29.5721 50.2244 29.2696 48.3573 28.6604 46.6404C28.5297 45.6919 28.2954 44.733 27.8983 43.8422C27.2175 42.3145 26.027 40.7387 24.4172 40.0614C21.6037 38.8772 18.6469 40.1518 17.8632 42.9202C17.035 45.8463 18.3674 48.947 20.1337 51.4441Z" fill="#F9BC93"/>
<path opacity="0.64" d="M26.6542 56.2475C26.4679 55.6098 26.2899 54.9707 26.1223 54.3289C25.454 51.7692 24.929 49.1657 24.6884 46.549C24.4951 44.4448 24.4791 42.3099 24.8052 40.2495C26.2182 41.0005 27.2738 42.4407 27.899 43.8432C28.296 44.734 28.5304 45.693 28.6611 46.6415C29.2703 48.3584 29.5728 50.2255 29.4893 51.9855C29.4302 53.2316 29.3009 55.5131 28.0012 56.1327C27.6083 56.3184 27.1424 56.3344 26.6542 56.2475Z" fill="#EB936D"/>
<path opacity="0.64" d="M19.1957 43.0688C19.4954 42.5514 20.0517 42.2635 20.6337 42.2128C21.9737 42.0952 23.3673 43.1313 24.2303 44.1529C26.1516 46.4261 26.548 49.6088 26.6954 52.4182C26.7037 52.5823 26.4687 52.4578 26.4506 52.3424C26.3776 51.8876 26.3032 51.4252 26.2225 50.9599C26.1745 51.2875 26.1008 51.6087 26.0271 51.8959C25.8825 52.4599 25.5452 52.9508 24.9326 52.9564C23.4535 52.9703 22.4028 51.106 21.672 50.0337C21.6031 49.9329 21.7526 49.9113 21.8096 49.9808C22.4883 50.8014 23.1941 51.8695 24.1941 52.2937C24.9994 52.6344 25.3457 52.0538 25.5536 51.3834C25.7246 50.8313 26 50.195 25.87 49.5942C25.8519 49.5108 25.8825 49.4697 25.9305 49.4565C25.628 48.0762 25.2094 46.716 24.5154 45.4949C23.9125 44.4352 23.0071 43.4526 21.8653 43.0319C21.0878 42.7454 20.2457 42.84 19.7791 43.5493C19.3431 44.2113 19.4933 45.1181 19.3974 45.8934C19.3862 45.9859 19.2402 45.8899 19.236 45.8246C19.1762 44.906 18.7055 43.915 19.1957 43.0688Z" fill="#EB936D"/>
<path d="M25.51 33.2173C25.51 33.2173 25.9565 41.1627 27.028 50.8939C28.0996 60.6251 31.313 66.2493 36.8482 70.5349C42.3834 74.8206 45.4188 76.8733 50.1509 76.8733C54.8822 76.8733 58.9892 74.9089 65.3282 69.1956C71.6666 63.4817 72.6492 56.7859 73.4524 49.6443C74.2555 42.502 74.4343 30.3607 72.8272 21.7901C71.2202 13.2195 61.2568 7.40823 47.0411 9.07158C33.8059 10.6209 24.7062 18.7548 25.51 33.2173Z" fill="#FFD9C0"/>
<path d="M26.473 43.7036C26.473 43.7036 25.8798 35.9104 27.1169 34.293C28.3533 32.6755 31.3129 29.6896 31.9846 23.3713C36.5553 16.3814 46.3686 15.1039 48.9895 16.1797C50.3336 15.373 50.6027 14.9023 50.6027 14.9023C50.6027 14.9023 50.7369 16.3807 50.5353 16.9856C54.4336 15.0365 61.2894 15.3056 68.28 22.363C69.6917 24.5138 69.1541 30.6979 73.8591 34.7978C74.5315 36.0752 73.8591 43.737 73.8591 43.737C73.8591 43.737 81.7607 30.7264 80.3115 19.8089C78.7991 8.41646 64.9867 -3.68248 50.2669 1.45917C46.9395 -0.658264 35.8495 -0.859923 27.078 6.70165C18.3064 14.2639 17.399 30.2945 26.473 43.7036Z" fill="#FDC25B"/>
<path d="M79.9547 27.9267C78.9171 28.855 77.6557 29.4934 76.2351 29.1137C74.9743 28.7771 73.9702 27.8091 73.1761 26.8189C71.9752 25.3218 71.2339 23.5395 70.3883 21.8337C69.953 20.9562 69.4808 20.0946 68.8939 19.3081C68.4211 18.6746 67.8661 18.0995 67.2772 17.5738C66.0463 16.4758 64.6403 15.5788 63.1501 14.8764C60.2267 13.4996 56.6907 12.7597 53.5642 13.8883C53.3848 13.953 53.2986 13.5559 53.3619 13.4488C53.7214 12.8431 54.2784 12.3585 54.7561 11.8488C54.9821 11.6075 55.2053 11.3613 55.3938 11.0887C55.4856 10.9566 55.6872 10.6958 55.6462 10.5185C55.6288 10.4427 55.4334 10.3231 55.3409 10.273C55.1205 10.1527 54.8743 10.0734 54.6344 10.0018C54.0656 9.83284 53.4801 9.72436 52.8981 9.61588C52.476 9.5373 52.0205 9.49002 51.6179 9.33425C51.4531 9.27097 51.4364 8.97196 51.5497 8.8607C52.307 8.12151 53.3125 7.73696 54.2617 7.29748C53.551 6.86634 52.7117 6.71406 51.9002 6.54091C51.3175 6.41713 50.5609 6.26414 50.3516 5.61674C50.2271 5.2308 50.3231 4.80732 50.4608 4.43946C50.6485 3.9367 50.9148 3.46732 51.2319 3.03479C51.9475 2.05848 52.8904 1.27131 53.8758 0.580796C53.9085 0.557848 53.9418 0.537681 53.9745 0.514734C52.7493 0.713613 51.5115 1.02236 50.2667 1.45767C49.5408 0.995244 48.4441 0.6246 47.0826 0.40625C47.7947 0.794273 48.4699 1.30538 48.853 2.01954C50.0387 4.23294 47.7509 5.7127 46.0096 6.80376C47.1452 6.76064 48.271 6.88372 49.257 7.52765C49.3926 7.61596 49.3704 7.90316 49.2369 7.98243C48.6041 8.36072 47.9261 8.66807 47.3162 9.08322C47.6215 9.2814 47.9219 9.48793 48.2015 9.72018C49.0853 10.4538 49.9232 11.6693 49.0651 12.7458C48.714 13.1867 48.2001 13.4912 47.7043 13.7416C47.0485 14.0733 46.3517 14.3222 45.6522 14.5441C44.1147 15.0322 42.5411 15.3855 40.9827 15.7978C40.4014 15.9515 39.8138 16.1052 39.2547 16.3291C38.1831 16.7588 37.1734 17.3652 36.2701 18.0822C34.3502 19.6071 32.9538 21.6481 31.7181 23.7398C30.4484 25.8878 29.3323 28.1464 27.8365 30.1519C27.0069 31.2638 26.1572 32.4056 25.03 33.2359C24.1239 33.9028 23.0391 34.32 21.9133 34.384C21.891 34.3854 21.8695 34.3847 21.8479 34.3854C22.9028 37.5389 24.434 40.6855 26.4743 43.7C26.4743 43.7 25.8811 35.9069 27.1182 34.2894C28.3546 32.6719 31.3141 29.686 31.9859 23.3677C36.5566 16.3778 46.3698 15.1004 48.9907 16.1761C50.3349 15.3695 50.604 14.8987 50.604 14.8987C50.604 14.8987 50.7382 16.3771 50.5366 16.9821C54.4349 15.0329 61.2906 15.302 68.2813 22.3594C69.6929 24.5103 69.1554 30.6943 73.8596 34.7942C74.5321 36.0717 73.8596 43.7334 73.8596 43.7334C73.8596 43.7334 78.3824 36.2838 79.9547 27.9267Z" fill="#FDC25B"/>
</svg>
