<svg width="101" height="114" viewBox="0 0 101 114" fill="none" xmlns="http://www.w3.org/2000/svg">
<path d="M63.2311 69.5662C63.2311 69.5662 61.8995 73.9297 63.2311 80.6603C64.5628 87.3909 75.0651 87.9089 75.0651 87.9089C75.0651 87.9089 70.6314 102.18 50.3659 101.878C30.1011 101.575 25.5373 87.9089 25.5373 87.9089C25.5373 87.9089 36.0396 87.3909 37.3713 80.6603C38.703 73.9297 37.3713 69.5662 37.3713 69.5662C37.3713 69.5662 63.2311 69.3151 63.2311 69.5662Z" fill="#F9BC93"/>
<path opacity="0.64" d="M37.5971 79.3916C38.9614 80.7649 40.501 81.9638 42.1727 82.9109C43.6532 83.7502 45.2609 84.3893 46.9395 84.6911C48.5201 84.9755 50.1487 84.9226 51.7279 84.6577C54.8843 84.1285 57.8452 82.7294 60.4904 80.9618C61.345 80.3909 62.1712 79.7775 62.9695 79.1301C62.103 73.2771 63.233 69.5659 63.233 69.5659C63.233 69.3155 37.3732 69.5659 37.3732 69.5659C37.3732 69.5659 38.5372 73.387 37.5971 79.3916Z" fill="#EB936D"/>
<path d="M50.4755 103.22C70.2486 103.093 72.8973 87.4833 72.8973 87.4833C73.1616 86.4263 71.5288 86.0904 69.919 85.6343C68.3099 85.1781 68.4059 85.2741 68.3099 85.6586C68.2181 86.0244 66.7488 97.4731 52.1625 98.1324C36.7187 98.5712 32.6723 88.5695 32.3691 85.6586C32.3281 85.2643 32.3691 85.1781 30.76 85.6343C29.1509 86.0904 27.5181 86.427 27.7824 87.4833C27.7824 87.4833 30.7023 103.346 50.4755 103.22Z" fill="#D66E10"/>
<path d="M100.34 113.64C96.0384 90.6525 72.8975 87.4829 72.8975 87.4829C72.8975 87.4829 70.2488 103.094 50.4756 103.219C30.7025 103.346 27.7826 87.4829 27.7826 87.4829C27.7826 87.4829 4.64166 90.6525 0.340027 113.64H43.5587C43.5587 113.64 57.5247 113.505 57.1214 113.64H100.34Z" fill="#F1953B"/>
<path d="M82.9361 42.7269C82.1517 39.9593 79.1956 38.6846 76.3821 39.8682C74.773 40.5455 73.5825 42.1205 72.901 43.649C72.504 44.5397 72.2696 45.4987 72.1389 46.4472C71.5297 48.1641 71.2272 50.0312 71.3107 51.7912C71.3698 53.0373 71.4992 55.3188 72.7988 55.9384C74.0658 56.542 76.1026 55.3675 77.1936 54.6701C78.5788 53.7848 79.7276 52.5777 80.6657 51.2509C82.4333 48.7538 83.7657 45.6531 82.9361 42.7269Z" fill="#F9BC93"/>
<path opacity="0.64" d="M74.1458 56.0538C74.3321 55.4162 74.5101 54.7771 74.6777 54.1346C75.346 51.5749 75.871 48.9714 76.1116 46.3546C76.3049 44.2504 76.3209 42.1156 75.9948 40.0552C74.5818 40.8062 73.5262 42.2463 72.901 43.6489C72.504 44.5397 72.2696 45.4986 72.1389 46.4471C71.5297 48.164 71.2272 50.0311 71.3107 51.7911C71.3698 53.0372 71.4992 55.3188 72.7988 55.9384C73.1917 56.1247 73.6569 56.1407 74.1458 56.0538Z" fill="#EB936D"/>
<path opacity="0.64" d="M81.6043 42.8759C81.3046 42.3585 80.7483 42.0706 80.1662 42.0199C78.8262 41.9024 77.4327 42.9392 76.5697 43.96C74.6484 46.2332 74.252 49.4159 74.1039 52.2253C74.0956 52.3894 74.3306 52.2649 74.3487 52.1495C74.4224 51.6947 74.4961 51.2323 74.5768 50.7671C74.6248 51.0953 74.6985 51.4159 74.7722 51.7031C74.9168 52.267 75.2541 52.758 75.8667 52.7635C77.3458 52.7774 78.3965 50.9131 79.1273 49.8408C79.1962 49.74 79.0467 49.7184 78.9897 49.788C78.311 50.6085 77.6052 51.6766 76.6052 52.1008C75.7999 52.4416 75.4536 51.8609 75.2457 51.1906C75.0747 50.6384 74.7993 50.0022 74.9293 49.4013C74.9474 49.3179 74.9168 49.2769 74.8688 49.2637C75.1713 47.8833 75.5899 46.5232 76.2839 45.3021C76.8868 44.2423 77.7922 43.2597 78.934 42.839C79.7115 42.5525 80.5536 42.6471 81.0202 43.3564C81.4555 44.0184 81.306 44.9252 81.4019 45.7005C81.4131 45.793 81.5591 45.6971 81.5633 45.6317C81.6238 44.7138 82.0945 43.7222 81.6043 42.8759Z" fill="#EB936D"/>
<path d="M20.1341 51.4441C21.0728 52.7702 22.2209 53.9781 23.6061 54.8633C24.6972 55.5608 26.7332 56.7353 28.0009 56.1317C29.3006 55.5128 29.4299 53.2313 29.489 51.9844C29.5725 50.2244 29.27 48.3573 28.6608 46.6404C28.5301 45.6919 28.2958 44.733 27.8987 43.8422C27.2179 42.3145 26.0274 40.7387 24.4176 40.0614C21.6041 38.8772 18.6473 40.1518 17.8637 42.9202C17.0348 45.8463 18.3671 48.947 20.1341 51.4441Z" fill="#F9BC93"/>
<path opacity="0.64" d="M26.6549 56.2475C26.4686 55.6098 26.2905 54.9707 26.123 54.3289C25.4547 51.7692 24.9297 49.1657 24.6891 46.549C24.4958 44.4448 24.4798 42.3099 24.8059 40.2495C26.2189 41.0005 27.2745 42.4407 27.8997 43.8432C28.2967 44.734 28.5311 45.693 28.6618 46.6415C29.271 48.3584 29.5734 50.2255 29.49 51.9855C29.4309 53.2316 29.3015 55.5131 28.0019 56.1327C27.609 56.3184 27.1431 56.3344 26.6549 56.2475Z" fill="#EB936D"/>
<path opacity="0.64" d="M19.1954 43.0688C19.4951 42.5514 20.0514 42.2635 20.6334 42.2128C21.9734 42.0952 23.367 43.1313 24.2299 44.1529C26.1513 46.4261 26.5476 49.6088 26.6958 52.4182C26.7041 52.5823 26.4691 52.4578 26.451 52.3424C26.3773 51.8876 26.3036 51.4252 26.2229 50.96C26.1749 51.2875 26.1012 51.6087 26.0275 51.8959C25.8829 52.4599 25.5456 52.9508 24.933 52.9564C23.4539 52.9703 22.4032 51.106 21.6723 50.0337C21.6035 49.9329 21.753 49.9113 21.81 49.9809C22.4887 50.8014 23.1945 51.8695 24.1945 52.2937C24.9997 52.6344 25.346 52.0538 25.5539 51.3834C25.725 50.8313 26.0004 50.195 25.8703 49.5942C25.8523 49.5108 25.8829 49.4697 25.9308 49.4565C25.6283 48.0762 25.2097 46.716 24.5157 45.4949C23.9128 44.4352 23.0075 43.4526 21.8656 43.0319C21.0882 42.7454 20.2461 42.84 19.7795 43.5493C19.3442 44.2113 19.4937 45.1181 19.3977 45.8934C19.3866 45.9859 19.2406 45.8899 19.2364 45.8246C19.1759 44.906 18.7051 43.915 19.1954 43.0688Z" fill="#EB936D"/>
<path d="M25.5086 33.2173C25.5086 33.2173 25.955 41.1627 27.0266 50.8939C28.0982 60.6251 31.3116 66.2493 36.8468 70.535C42.382 74.8206 45.4174 76.8734 50.1487 76.8734C54.8801 76.8734 58.987 74.9089 65.3261 69.1957C71.6645 63.4817 72.6471 56.7859 73.4503 49.6443C74.2541 42.5021 74.4321 30.3607 72.8251 21.7901C71.2181 13.2195 61.2547 7.40823 47.039 9.07158C33.8045 10.6209 24.7054 18.7548 25.5086 33.2173Z" fill="#F9BC93"/>
<path d="M26.4721 43.7036C26.4721 43.7036 25.8789 35.9104 27.116 34.293C28.3531 32.6755 31.312 29.6896 31.9837 23.3713C36.5544 16.3814 46.3677 15.1039 48.9885 16.1797C50.3327 15.3731 50.6018 14.9023 50.6018 14.9023C50.6018 14.9023 50.736 16.3807 50.5344 16.9857C54.4327 15.0365 61.2884 15.3056 68.2791 22.363C69.6907 24.5138 69.1532 30.6979 73.8582 34.7978C74.5299 36.0753 73.8582 43.737 73.8582 43.737C73.8582 43.737 81.7598 30.7264 80.3106 19.8089C78.7982 8.41646 64.9858 -3.68248 50.266 1.45917C46.9386 -0.658264 35.8486 -0.859924 27.0771 6.70165C18.3055 14.2639 17.3981 30.2946 26.4721 43.7036Z" fill="#AC5F33"/>
<path d="M79.9534 27.9267C78.9158 28.855 77.6544 29.4934 76.2338 29.1137C74.973 28.7771 73.9689 27.8091 73.1748 26.8189C71.9738 25.3218 71.2326 23.5395 70.387 21.8337C69.9517 20.9562 69.4795 20.0946 68.8919 19.3081C68.4191 18.6746 67.8641 18.0995 67.2752 17.5738C66.0443 16.4758 64.6383 15.5788 63.1481 14.8764C60.2247 13.4996 56.688 12.7597 53.5622 13.8883C53.3828 13.953 53.2959 13.5559 53.3599 13.4488C53.7194 12.8431 54.2764 12.3585 54.7541 11.8488C54.9801 11.6075 55.2033 11.3613 55.3918 11.0887C55.4836 10.9566 55.6852 10.6958 55.6442 10.5185C55.6268 10.4427 55.4314 10.3231 55.3389 10.273C55.1178 10.1527 54.8723 10.0734 54.6324 10.0018C54.0636 9.83284 53.4781 9.72436 52.8961 9.61588C52.474 9.5373 52.0185 9.49002 51.6159 9.33425C51.4511 9.27097 51.4344 8.97196 51.5477 8.8607C52.305 8.12151 53.3098 7.73696 54.2597 7.29748C53.549 6.86635 52.7097 6.71406 51.8982 6.54091C51.3155 6.41713 50.5589 6.26414 50.3496 5.61674C50.2251 5.2308 50.3211 4.80732 50.4587 4.43946C50.6465 3.9367 50.9128 3.46732 51.2299 3.03479C51.9455 2.05848 52.8884 1.27131 53.8738 0.580796C53.9057 0.557848 53.9398 0.537681 53.9725 0.514734C52.7472 0.713613 51.5095 1.02236 50.2647 1.45767C49.5388 0.995244 48.4421 0.6246 47.0806 0.40625C47.7927 0.794273 48.4679 1.30538 48.851 2.01954C50.0367 4.23294 47.7488 5.7127 46.0076 6.80376C47.1432 6.76064 48.269 6.88373 49.255 7.52765C49.3906 7.61596 49.3684 7.90316 49.2349 7.98243C48.6021 8.36072 47.9241 8.66807 47.3142 9.08322C47.6195 9.2814 47.9199 9.48793 48.1995 9.72019C49.0833 10.4538 49.9205 11.6693 49.0631 12.7458C48.7119 13.1867 48.1981 13.4912 47.7022 13.7416C47.0465 14.0733 46.3497 14.3222 45.6509 14.5441C44.1134 15.0322 42.5397 15.3855 40.9814 15.7978C40.4001 15.9515 39.8125 16.1052 39.2534 16.3291C38.1818 16.7588 37.1721 17.3652 36.2688 18.0822C34.3495 19.6071 32.9525 21.6481 31.7161 23.7398C30.4464 25.8878 29.3303 28.1464 27.8345 30.1519C27.0049 31.2638 26.1552 32.4056 25.028 33.2359C24.1219 33.9028 23.0371 34.32 21.9113 34.384C21.889 34.3854 21.8674 34.3847 21.8459 34.3854C22.9008 37.5389 24.432 40.6855 26.4716 43.7C26.4716 43.7 25.8784 35.9069 27.1155 34.2894C28.3519 32.6719 31.3114 29.686 31.9832 23.3677C36.5539 16.3778 46.3671 15.1004 48.988 16.1761C50.3322 15.3695 50.6013 14.8987 50.6013 14.8987C50.6013 14.8987 50.7355 16.3771 50.5338 16.9821C54.4322 15.0329 61.2879 15.302 68.2786 22.3594C69.6902 24.5103 69.1527 30.6943 73.8576 34.7942C74.5294 36.0717 73.8576 43.7334 73.8576 43.7334C73.8576 43.7334 78.3804 36.2838 79.9534 27.9267Z" fill="#AC5F33"/>
</svg>
