<svg width="101" height="114" viewBox="0 0 101 114" fill="none" xmlns="http://www.w3.org/2000/svg">
<path d="M63.2319 69.5649C63.2319 69.5649 61.901 73.9284 63.2319 80.659C64.5636 87.3896 75.0659 87.9069 75.0659 87.9069C75.0659 87.9069 70.6322 102.178 50.3667 101.876C30.1019 101.573 25.5381 87.9069 25.5381 87.9069C25.5381 87.9069 36.0411 87.3896 37.3721 80.659C38.703 73.9284 37.3721 69.5649 37.3721 69.5649C37.3721 69.5649 63.2319 69.3145 63.2319 69.5649Z" fill="#98482A"/>
<path opacity="0.47" d="M37.5971 79.3906C38.9614 80.764 40.501 81.9628 42.1727 82.9099C43.6532 83.7493 45.2609 84.3883 46.9395 84.6901C48.5201 84.9745 50.1487 84.9217 51.7279 84.6567C54.8843 84.1275 57.8452 82.7284 60.4904 80.9608C61.345 80.3899 62.1712 79.7765 62.9695 79.1291C62.103 73.2754 63.233 69.5649 63.233 69.5649C63.233 69.3145 37.3732 69.5649 37.3732 69.5649C37.3732 69.5649 38.5379 73.3853 37.5971 79.3906Z" fill="#834D2A"/>
<path d="M50.476 103.219C70.2492 103.093 72.8979 87.4828 72.8979 87.4828C73.1621 86.4258 71.5287 86.0899 69.9196 85.6338C68.3105 85.1776 68.4064 85.2736 68.3105 85.6581C68.2187 86.0239 66.75 97.4726 52.163 98.1319C36.7193 98.5707 32.6729 88.569 32.3697 85.6581C32.3286 85.2638 32.3697 85.1776 30.7606 85.6338C29.1514 86.0899 27.5187 86.4265 27.7829 87.4828C27.7829 87.4828 30.7028 103.345 50.476 103.219Z" fill="#2E7715"/>
<path d="M100.34 113.639C96.0384 90.6515 72.8975 87.4819 72.8975 87.4819C72.8975 87.4819 70.2481 103.093 50.4756 103.218C30.7025 103.345 27.7826 87.4819 27.7826 87.4819C27.7826 87.4819 4.64166 90.6515 0.340027 113.639H43.5594C43.5594 113.639 57.5254 113.504 57.1221 113.639H100.34Z" fill="#2AA331"/>
<path d="M82.9369 42.7262C82.1525 39.9586 79.1964 38.6833 76.3829 39.8675C74.7738 40.5448 73.5833 42.1198 72.9018 43.6483C72.5048 44.5391 72.2704 45.498 72.1397 46.4465C71.5305 48.1634 71.228 50.0305 71.3115 51.7905C71.3706 53.0366 71.4999 55.3182 72.7996 55.9378C74.0666 56.5413 76.1034 55.3668 77.1944 54.6694C78.5796 53.7842 79.7284 52.577 80.6664 51.2509C82.4334 48.7524 83.7658 45.6524 82.9369 42.7262Z" fill="#96442B"/>
<path opacity="0.47" d="M74.1466 56.0531C74.3329 55.4155 74.5109 54.7764 74.6785 54.1346C75.3468 51.5749 75.8718 48.9714 76.1124 46.3546C76.3057 44.2504 76.3217 42.1156 75.9956 40.0552C74.5826 40.8062 73.527 42.2463 72.9018 43.6489C72.5048 44.5397 72.2704 45.4986 72.1397 46.4471C71.5305 48.164 71.228 50.0311 71.3115 51.7911C71.3706 53.0372 71.4999 55.3188 72.7996 55.9384C73.1918 56.1241 73.6577 56.14 74.1466 56.0531Z" fill="#834D2A"/>
<path opacity="0.47" d="M81.6051 42.8749C81.3054 42.3576 80.749 42.0697 80.167 42.0189C78.827 41.9014 77.4335 42.9375 76.5705 43.959C74.6492 46.2322 74.2528 49.415 74.1054 52.2243C74.097 52.3884 74.3321 52.264 74.3502 52.1492C74.4232 51.6937 74.4976 51.232 74.5782 50.7668C74.6262 51.0943 74.6999 51.4156 74.7736 51.7028C74.9183 52.2667 75.2555 52.7577 75.8682 52.7632C77.3472 52.7772 78.398 50.9128 79.1288 49.8406C79.1977 49.7397 79.0482 49.7189 78.9911 49.7877C78.3124 50.6083 77.6066 51.6764 76.6067 52.1005C75.8014 52.4413 75.4551 51.8606 75.2472 51.191C75.0761 50.6389 74.8008 50.0026 74.9308 49.4018C74.9489 49.3183 74.9183 49.2773 74.8703 49.2641C75.1728 47.8838 75.5914 46.5236 76.2854 45.3025C76.8883 44.2427 77.7937 43.2602 78.9355 42.8395C79.7129 42.553 80.555 42.6475 81.0216 43.3568C81.4576 44.0188 81.3074 44.9256 81.4034 45.701C81.4145 45.7934 81.5606 45.6975 81.5647 45.6321C81.6245 44.7121 82.0953 43.7212 81.6051 42.8749Z" fill="#834D2A"/>
<path d="M20.1337 51.4432C21.0718 52.7699 22.2206 53.9771 23.6058 54.8617C24.6968 55.5591 26.7329 56.7336 28.0006 56.13C29.3002 55.5111 29.4296 53.2296 29.4887 51.9835C29.5721 50.2235 29.2696 48.3564 28.6605 46.6395C28.5298 45.691 28.2954 44.732 27.8984 43.8412C27.2176 42.3128 26.0271 40.7378 24.4173 40.0605C21.6038 38.8762 18.647 40.1509 17.8633 42.9192C17.0351 45.8453 18.3675 48.9453 20.1337 51.4432Z" fill="#96442B"/>
<path opacity="0.47" d="M26.6544 56.2462C26.468 55.6085 26.29 54.9695 26.1224 54.3269C25.4541 51.7672 24.9291 49.1637 24.6885 46.547C24.4952 44.4428 24.4792 42.308 24.8054 40.2476C26.2184 40.9986 27.274 42.4387 27.8991 43.8413C28.2962 44.7321 28.5305 45.691 28.6612 46.6395C29.2704 48.3564 29.5729 50.2235 29.4894 51.9835C29.4303 53.2296 29.301 55.5112 28.0013 56.1301C27.6084 56.3164 27.1425 56.3324 26.6544 56.2462Z" fill="#834D2A"/>
<path opacity="0.47" d="M19.1957 43.0682C19.4954 42.5508 20.0517 42.2629 20.6337 42.2122C21.9737 42.0953 23.3673 43.1315 24.2303 44.1523C26.1516 46.4255 26.548 49.6089 26.6954 52.4176C26.7037 52.5817 26.4687 52.4572 26.4506 52.3425C26.3776 51.887 26.3032 51.4253 26.2225 50.9601C26.1745 51.2876 26.1008 51.6089 26.0271 51.896C25.8825 52.46 25.5452 52.9509 24.9326 52.9565C23.4535 52.9704 22.4028 51.1061 21.672 50.0338C21.6031 49.933 21.7526 49.9121 21.8096 49.981C22.4883 50.8022 23.1941 51.8696 24.1941 52.2938C24.9994 52.6345 25.3457 52.0539 25.5536 51.3842C25.7246 50.8321 26 50.1958 25.87 49.595C25.8519 49.5116 25.8825 49.4706 25.9305 49.4573C25.628 48.077 25.2094 46.7168 24.5154 45.4958C23.9125 44.436 23.0071 43.4534 21.8653 43.0327C21.0878 42.7462 20.2457 42.8408 19.7791 43.5501C19.3431 44.2121 19.4933 45.1189 19.3974 45.8942C19.3862 45.9867 19.2402 45.8907 19.236 45.8254C19.1762 44.9054 18.7055 43.9145 19.1957 43.0682Z" fill="#834D2A"/>
<path d="M25.51 33.2165C25.51 33.2165 25.9565 41.162 27.028 50.8931C28.0996 60.6243 31.313 66.2485 36.8482 70.5342C42.3834 74.8198 45.4188 76.8726 50.1509 76.8726C54.8822 76.8726 58.9892 74.9081 65.3282 69.1949C71.6666 63.4809 72.6492 56.7851 73.4524 49.6428C74.2555 42.5006 74.4343 30.3592 72.8272 21.7886C71.2202 13.2181 61.2568 7.40677 47.0411 9.07012C33.8059 10.6194 24.7062 18.7533 25.51 33.2165Z" fill="#AE5733"/>
<path d="M26.4731 43.7029C26.4731 43.7029 25.8799 35.9098 27.117 34.2923C28.3534 32.6748 31.3129 29.6889 31.9847 23.3706C36.5554 16.3807 46.3686 15.1032 48.9895 16.179C50.3337 15.3724 50.6028 14.9016 50.6028 14.9016C50.6028 14.9016 50.737 16.38 50.5353 16.985C54.4337 15.0358 61.2894 15.3042 68.2801 22.3623C69.6917 24.5131 69.1542 30.6965 73.8591 34.7971C74.5316 36.0739 73.8591 43.7363 73.8591 43.7363C73.8591 43.7363 81.7607 30.7257 80.3116 19.8082C78.7991 8.41577 64.9868 -3.68317 50.2669 1.45917C46.9395 -0.658263 35.8496 -0.859924 27.078 6.70165C18.3065 14.2632 17.399 30.2939 26.4731 43.7029Z" fill="#312324"/>
<path opacity="0.31" d="M79.8861 27.9262C78.8486 28.8545 77.5872 29.4929 76.1665 29.1132C74.9058 28.7766 73.9017 27.8087 73.1076 26.8184C71.9066 25.3213 71.1654 23.539 70.3198 21.8332C69.8845 20.9557 69.4123 20.0941 68.8247 19.3076C68.3518 18.6741 67.7969 18.099 67.2079 17.5733C65.9771 16.4753 64.5711 15.5783 63.0809 14.876C60.1568 13.4991 56.6215 12.7592 53.495 13.8878C53.3156 13.9525 53.2294 13.5554 53.2927 13.4483C53.6522 12.8427 54.2092 12.358 54.6869 11.8483C54.9129 11.607 55.1361 11.3608 55.3246 11.0882C55.4164 10.9561 55.618 10.6953 55.577 10.5187C55.5596 10.4429 55.3642 10.3233 55.2717 10.2732C55.0506 10.1529 54.8051 10.0736 54.5652 10.002C53.9964 9.83305 53.4109 9.72457 52.8289 9.61539C52.4068 9.53681 51.9513 9.48953 51.5487 9.33376C51.3838 9.27048 51.3672 8.97147 51.4805 8.86021C52.2378 8.12102 53.2433 7.73647 54.1925 7.29699C53.4818 6.86585 52.6425 6.71357 51.831 6.54042C51.2483 6.41664 50.4917 6.26365 50.2824 5.61625C50.1579 5.23032 50.2539 4.80683 50.3915 4.43897C50.5793 3.93621 50.8456 3.46683 51.1627 3.0343C51.8783 2.05799 52.8212 1.27082 53.8066 0.580302C53.8392 0.557355 53.8726 0.536493 53.9053 0.514241C52.68 0.71312 51.4423 1.02187 50.1975 1.45718C49.4715 0.99475 48.3749 0.624111 47.0134 0.405762C47.7254 0.793784 48.4007 1.30489 48.7838 2.01905C49.9694 4.23245 47.6816 5.71222 45.9404 6.80327C47.076 6.76016 48.2018 6.88324 49.1878 7.52716C49.3234 7.61547 49.3012 7.90267 49.1677 7.98194C48.5349 8.36023 47.8569 8.66759 47.247 9.08273C47.5523 9.28091 47.8527 9.48744 48.1322 9.7197C49.0161 10.4533 49.8533 11.6689 48.9959 12.7453C48.6447 13.1862 48.1309 13.4908 47.635 13.7411C46.9793 14.0728 46.2825 14.3217 45.5837 14.5436C44.0462 15.0317 42.4725 15.385 40.9142 15.7973C40.3329 15.951 39.7453 16.1047 39.1862 16.3286C38.1146 16.7583 37.1049 17.3647 36.2016 18.0817C34.2823 19.6066 32.8853 21.6476 31.6489 23.7393C30.3792 25.8873 29.2631 28.1459 27.7673 30.1514C26.9377 31.2633 26.088 32.4051 24.9608 33.2354C24.0547 33.9023 22.9699 34.3195 21.8441 34.3835C21.8218 34.3849 21.8002 34.3842 21.7787 34.3849C22.8336 37.5384 24.3648 40.685 26.4051 43.6995C26.4051 43.6995 25.8119 35.9064 27.049 34.2889C28.2854 32.6715 31.2449 29.6855 31.9166 23.3672C36.4874 16.3773 46.3006 15.0999 48.9215 16.1756C50.2657 15.369 50.5348 14.8982 50.5348 14.8982C50.5348 14.8982 50.669 16.3766 50.4673 16.9816C54.3656 15.0324 61.2214 15.3015 68.2121 22.3589C69.6237 24.5098 69.0862 30.6931 73.7911 34.7938C74.4629 36.0705 73.7911 43.7329 73.7911 43.7329C73.7911 43.7329 78.3132 36.2833 79.8861 27.9262Z" fill="#312324"/>
</svg>
