<svg width="101" height="114" viewBox="0 0 101 114" fill="none" xmlns="http://www.w3.org/2000/svg">
<path d="M63.2319 69.5659C63.2319 69.5659 61.9003 73.9294 63.2319 80.66C64.5636 87.3906 75.0659 87.9079 75.0659 87.9079C75.0659 87.9079 70.6322 102.179 50.3667 101.877C30.1019 101.574 25.5381 87.9079 25.5381 87.9079C25.5381 87.9079 36.0404 87.3906 37.3721 80.66C38.7037 73.9294 37.3721 69.5659 37.3721 69.5659C37.3721 69.5659 63.2319 69.3155 63.2319 69.5659Z" fill="#4B260E"/>
<path opacity="0.47" d="M37.5971 79.3916C38.9614 80.765 40.501 81.9638 42.1727 82.9109C43.6532 83.7502 45.2609 84.3893 46.9395 84.6911C48.5201 84.9755 50.1487 84.9226 51.7279 84.6577C54.8843 84.1285 57.8452 82.7294 60.4904 80.9618C61.345 80.3908 62.1712 79.7775 62.9695 79.1301C62.103 73.2764 63.233 69.5659 63.233 69.5659C63.233 69.3155 37.3732 69.5659 37.3732 69.5659C37.3732 69.5659 38.5372 73.3863 37.5971 79.3916Z" fill="#5B2F13"/>
<path d="M50.476 103.22C70.2492 103.093 72.8979 87.4833 72.8979 87.4833C73.1621 86.4263 71.5294 86.0904 69.9196 85.6343C68.3105 85.1781 68.4064 85.2741 68.3105 85.6586C68.2187 86.0244 66.7493 97.4731 52.163 98.1324C36.7193 98.5711 32.6728 88.5695 32.3697 85.6586C32.3286 85.2643 32.3697 85.1781 30.7606 85.6343C29.1514 86.0904 27.5187 86.427 27.7829 87.4833C27.7829 87.4833 30.7028 103.346 50.476 103.22Z" fill="#3E65BF"/>
<path d="M100.34 113.64C96.0384 90.6525 72.8975 87.4829 72.8975 87.4829C72.8975 87.4829 70.2488 103.094 50.4756 103.219C30.7025 103.346 27.7826 87.4829 27.7826 87.4829C27.7826 87.4829 4.64166 90.6525 0.340027 113.64H43.5587C43.5587 113.64 57.5247 113.505 57.1214 113.64H100.34Z" fill="#5A63EB"/>
<path d="M82.9369 42.7267C82.1525 39.9591 79.1964 38.6837 76.3829 39.868C74.7738 40.5453 73.5833 42.1203 72.9018 43.6488C72.5048 44.5395 72.2704 45.4985 72.1397 46.447C71.5305 48.1639 71.228 50.031 71.3115 51.791C71.3706 53.0371 71.4999 55.3187 72.7996 55.9382C74.0666 56.5418 76.1034 55.3673 77.1944 54.6699C78.5796 53.7846 79.7284 52.5775 80.6665 51.2514C82.4341 48.7529 83.7665 45.6529 82.9369 42.7267Z" fill="#3D1F0B"/>
<path opacity="0.47" d="M74.1466 56.0536C74.3329 55.4159 74.5109 54.7769 74.6785 54.1351C75.3468 51.5754 75.8718 48.9718 76.1124 46.3551C76.3057 44.2509 76.3217 42.1161 75.9956 40.0557C74.5826 40.8067 73.527 42.2468 72.9018 43.6494C72.5048 44.5402 72.2704 45.4991 72.1397 46.4476C71.5305 48.1645 71.228 50.0316 71.3115 51.7916C71.3706 53.0377 71.4999 55.3193 72.7996 55.9389C73.1925 56.1245 73.6577 56.1405 74.1466 56.0536Z" fill="#3D1F0B"/>
<path opacity="0.47" d="M81.6044 42.8754C81.3047 42.358 80.7484 42.0702 80.1664 42.0194C78.8264 41.9019 77.4328 42.938 76.5699 43.9595C74.6485 46.2327 74.2522 49.4155 74.104 52.2248C74.0957 52.3889 74.3307 52.2644 74.3488 52.1497C74.4225 51.6942 74.4962 51.2325 74.5769 50.7673C74.6249 51.0948 74.6986 51.4161 74.7723 51.7033C74.9169 52.2672 75.2542 52.7582 75.8668 52.7637C77.3459 52.7776 78.3966 50.9133 79.1275 49.841C79.1963 49.7402 79.0468 49.7194 78.9898 49.7882C78.3111 50.6087 77.6053 51.6769 76.6053 52.101C75.8001 52.4418 75.4538 51.8611 75.2459 51.1915C75.0748 50.6393 74.7994 50.0031 74.9294 49.4023C74.9475 49.3188 74.9169 49.2778 74.869 49.2646C75.1715 47.8842 75.5901 46.5241 76.284 45.303C76.8869 44.2432 77.7923 43.2606 78.9341 42.8399C79.7116 42.5534 80.5537 42.648 81.0203 43.3573C81.4556 44.0193 81.3061 44.9261 81.4021 45.7014C81.4132 45.7939 81.5592 45.698 81.5634 45.6326C81.6239 44.7126 82.0947 43.7217 81.6044 42.8754Z" fill="#3D1F0B"/>
<path d="M20.1341 51.4441C21.0728 52.7709 22.2209 53.9781 23.6061 54.8626C24.6972 55.5601 26.7332 56.7346 28.0009 56.131C29.3006 55.5121 29.4299 53.2306 29.489 51.9844C29.5725 50.2244 29.27 48.3573 28.6608 46.6404C28.5301 45.6919 28.2958 44.733 27.8987 43.8422C27.2179 42.3138 26.0274 40.7387 24.4176 40.0614C21.6041 38.8772 18.6473 40.1518 17.8637 42.9202C17.0348 45.8463 18.3671 48.9463 20.1341 51.4441Z" fill="#3D1F0B"/>
<path opacity="0.47" d="M26.6544 56.2472C26.468 55.6095 26.29 54.9705 26.1224 54.3279C25.4542 51.7682 24.9291 49.1647 24.6885 46.548C24.4952 44.4438 24.4792 42.309 24.8054 40.2485C26.2184 40.9995 27.274 42.4397 27.8991 43.8423C28.2962 44.733 28.5305 45.692 28.6613 46.6405C29.2704 48.3574 29.5729 50.2245 29.4894 51.9845C29.4303 53.2306 29.301 55.5122 28.0013 56.131C27.6084 56.3174 27.1425 56.3334 26.6544 56.2472Z" fill="#3D1F0B"/>
<path opacity="0.47" d="M19.1957 43.0692C19.4954 42.5518 20.0517 42.2639 20.6337 42.2131C21.9737 42.0963 23.3673 43.1324 24.2302 44.1533C26.1516 46.4265 26.5479 49.6099 26.6961 52.4186C26.7044 52.5827 26.4694 52.4582 26.4513 52.3435C26.3776 51.888 26.3039 51.4262 26.2232 50.961C26.1752 51.2886 26.1015 51.6098 26.0278 51.897C25.8832 52.461 25.5459 52.9519 24.9333 52.9575C23.4542 52.9714 22.4035 51.1071 21.6726 50.0348C21.6038 49.934 21.7533 49.9131 21.8103 49.9819C22.489 50.8032 23.1948 51.8706 24.1948 52.2948C25 52.6355 25.3463 52.0549 25.5542 51.3852C25.7253 50.8331 26.0007 50.1968 25.8706 49.596C25.8526 49.5126 25.8832 49.4715 25.9311 49.4583C25.6286 48.078 25.21 46.7178 24.516 45.4967C23.9131 44.437 23.0078 43.4544 21.8659 43.0337C21.0885 42.7472 20.2464 42.8418 19.7798 43.5511C19.3445 44.2131 19.494 45.1198 19.398 45.8952C19.3869 45.9877 19.2409 45.8917 19.2367 45.8263C19.1762 44.9064 18.7054 43.9154 19.1957 43.0692Z" fill="#3D1F0B"/>
<path d="M25.5086 33.2175C25.5086 33.2175 25.955 41.1629 27.0266 50.8941C28.0982 60.6253 31.3116 66.2495 36.8468 70.5352C42.382 74.8208 45.4174 76.8736 50.1487 76.8736C54.8801 76.8736 58.987 74.9091 65.3261 69.1959C71.6645 63.4819 72.6471 56.7861 73.4503 49.6438C74.2541 42.5016 74.4321 30.3602 72.8251 21.7896C71.2181 13.219 61.2547 7.40774 47.039 9.0711C33.8045 10.6204 24.7054 18.7543 25.5086 33.2175Z" fill="#3D1F0B"/>
<path d="M26.4717 43.7036C26.4717 43.7036 25.8786 35.9105 27.1157 34.293C28.3527 32.6755 31.3116 29.6896 31.9833 23.3713C36.5541 16.3814 46.3673 15.1039 48.9882 16.1797C50.3323 15.3731 50.6015 14.9023 50.6015 14.9023C50.6015 14.9023 50.7357 16.3807 50.534 16.9856C54.4323 15.0365 61.2881 15.3049 68.2787 22.363C69.6904 24.5138 69.1529 30.6972 73.8578 34.7978C74.5295 36.0746 73.8578 43.737 73.8578 43.737C73.8578 43.737 81.7594 30.7264 80.3102 19.8089C78.7978 8.41577 64.9854 -3.68248 50.2656 1.45917C46.9382 -0.658264 35.8482 -0.859923 27.0767 6.70165C18.3052 14.2639 17.3977 30.2946 26.4717 43.7036Z" fill="#311C10"/>
<path opacity="0.31" d="M79.897 27.9267C78.8602 28.855 77.5981 29.4934 76.1774 29.1137C74.9167 28.7771 73.9126 27.8091 73.1184 26.8189C71.9175 25.3218 71.1762 23.5395 70.3307 21.8337C69.8953 20.9562 69.4232 20.0946 68.8356 19.3081C68.3627 18.6746 67.8078 18.0995 67.2188 17.5738C65.988 16.4758 64.5819 15.5788 63.0917 14.8764C60.1683 13.4996 56.6316 12.7597 53.5059 13.8883C53.3265 13.953 53.2403 13.5559 53.3035 13.4488C53.6631 12.8431 54.22 12.3585 54.6978 11.8487C54.9238 11.6075 55.147 11.3613 55.3354 11.0887C55.4272 10.9566 55.6289 10.6958 55.5879 10.5192C55.5705 10.4434 55.3751 10.3238 55.2826 10.2737C55.0615 10.1534 54.816 10.0741 54.5761 10.0025C54.0073 9.83353 53.4217 9.72506 52.8397 9.61588C52.4176 9.5373 51.9621 9.49002 51.5595 9.33425C51.3947 9.27097 51.378 8.97196 51.4914 8.8607C52.2486 8.12151 53.2535 7.73696 54.2034 7.29748C53.4927 6.86634 52.6534 6.71405 51.8418 6.5409C51.2591 6.41713 50.5025 6.26414 50.2932 5.61674C50.1688 5.23081 50.2647 4.80732 50.4024 4.43946C50.5902 3.9367 50.8565 3.46732 51.1736 3.03479C51.8891 2.05848 52.8321 1.2713 53.8174 0.580791C53.8494 0.557843 53.8835 0.536982 53.9162 0.51473C52.6909 0.713609 51.4531 1.02236 50.2084 1.45767C49.4824 0.995238 48.3858 0.6246 47.0242 0.40625C47.7363 0.794273 48.4115 1.30538 48.7947 2.01953C49.9803 4.23293 47.6925 5.7127 45.9513 6.80376C47.0868 6.76064 48.2127 6.88373 49.1987 7.52765C49.3343 7.61596 49.312 7.90316 49.1785 7.98243C48.5457 8.36072 47.8677 8.66808 47.2579 9.08322C47.5632 9.2814 47.8636 9.48793 48.1431 9.72019C49.0269 10.4538 49.8642 11.6693 49.0068 12.7458C48.6556 13.1867 48.1417 13.4912 47.6459 13.7416C46.9902 14.0733 46.2934 14.3222 45.5938 14.544C44.057 15.0322 42.4827 15.3855 40.9244 15.7978C40.343 15.9515 39.7554 16.1052 39.1963 16.3291C38.1248 16.7588 37.1151 17.3652 36.2118 18.0821C34.2925 19.6071 32.8955 21.6481 31.6598 23.7398C30.39 25.8878 29.2739 28.1464 27.7782 30.1519C26.9486 31.2638 26.0988 32.4056 24.9716 33.2359C24.0655 33.9028 22.9807 34.32 21.8549 34.384C21.8327 34.3854 21.8111 34.3847 21.7896 34.3854C22.8444 37.5389 24.3757 40.6855 26.4152 43.7C26.4152 43.7 25.8221 35.9069 27.0592 34.2894C28.2955 32.6719 31.2551 29.686 31.9268 23.3677C36.4976 16.3778 46.3108 15.1004 48.9317 16.1761C50.2758 15.3695 50.545 14.8987 50.545 14.8987C50.545 14.8987 50.6792 16.3771 50.4775 16.9821C54.3758 15.0329 61.2316 15.302 68.2222 22.3594C69.6339 24.5103 69.0963 30.6936 73.8013 34.7943C74.473 36.071 73.8013 43.7334 73.8013 43.7334C73.8013 43.7334 78.3241 36.2838 79.897 27.9267Z" fill="#311C10"/>
</svg>
