<svg width="82" height="125" viewBox="0 0 82 125" fill="none" xmlns="http://www.w3.org/2000/svg">
<path d="M41.5304 79.7392C62.2173 79.7392 78.9874 62.9691 78.9874 42.2822C78.9874 21.5953 62.2173 4.8252 41.5304 4.8252C20.8434 4.8252 4.07336 21.5953 4.07336 42.2822C4.07336 62.9691 20.8434 79.7392 41.5304 79.7392Z" fill="#F8DABB"/>
<path d="M47.4804 117.255C54.9534 112.801 62.0414 107.731 68.7004 102.154L63.5954 55.9912L28.7704 75.1732L33.7524 124.813C38.5274 122.566 43.1604 119.83 47.4804 117.255Z" fill="#F8DABB"/>
<path d="M6.70138 43.3999C2.28638 49.2889 3.13438 58.0099 3.80238 64.8679C4.70238 74.1019 7.64238 82.2129 8.62438 91.3929C9.10438 95.8839 10.6944 100.819 14.7344 102.839C18.6454 104.795 23.3214 103.303 27.4244 101.791C34.2074 99.2909 41.6844 96.1559 44.5304 89.5099C46.0634 85.9299 45.2524 84.9779 48.0384 78.5509C49.5484 75.0669 51.3414 71.9009 52.2534 70.2999C53.7494 67.6729 53.9784 67.5299 56.3354 63.6469C61.3884 55.3249 61.7404 53.6729 61.6234 51.9909C61.5704 51.2259 61.2254 48.2599 59.0384 46.0099C58.3784 45.3309 57.5504 44.7629 56.4904 44.3069C52.1074 42.4219 47.2524 41.1819 42.6314 40.0289C32.7264 37.5579 14.1794 33.4239 6.70138 43.3999Z" fill="#F8DABB"/>
<path d="M4.14436 40.1411C4.60636 53.2571 -0.57164 71.6511 0.18136 73.8951C0.93436 76.1391 11.7634 73.8951 11.7634 73.8951" fill="#F8DABB"/>
<path d="M66.2893 80.349C65.5133 80.194 65.5003 79.029 63.7873 73.737C61.0153 65.173 60.0833 65.238 60.1153 62.438C60.1723 57.429 63.1663 56.251 62.2333 52.127C62.1353 51.691 61.2193 47.912 57.8653 46.38C53.3943 44.336 48.7523 48.187 48.5203 48.39C46.3923 50.247 45.1333 52.962 44.8813 55.756C44.7533 57.176 44.8433 60.254 42.2723 59.225C41.3133 58.841 40.8173 57.794 40.4803 56.817C39.3633 53.58 39.3263 50.156 38.5693 46.837C37.4043 41.728 37.2813 40.668 36.4333 40.141C34.8933 39.184 33.6443 40.385 32.2903 39.475C30.1643 38.047 32.0873 34.309 30.4063 31.129C29.5463 29.502 27.8723 28.265 20.4253 26.421C9.40333 23.692 7.54033 25.134 5.05633 22.981C-0.0436704 18.561 0.381332 5.982 6.12133 1.757C9.76433 -0.924998 12.6203 1.916 25.5103 3.069C37.3833 4.131 40.5273 2.219 54.3243 4.011C61.0073 4.879 63.7223 5.77601 66.2493 7.14801C73.2333 10.941 76.5673 17.16 77.7673 19.47C84.6213 32.663 80.2313 47.159 76.0753 60.885C73.3393 69.921 68.7613 80.842 66.2893 80.349Z" fill="#08051A"/>
<path d="M55.0214 50.9512C52.9664 51.0522 51.1334 52.4622 50.0974 54.2392C49.0614 56.0172 48.7184 58.1172 48.6404 60.1732C48.9274 59.4772 49.8874 59.1642 50.5294 59.5552C51.1724 59.9462 51.3334 60.9432 50.8474 61.5172" stroke="#08051A" stroke-width="1.5765" stroke-miterlimit="10" stroke-linecap="round" stroke-linejoin="round"/>
<path d="M49.7253 73.041C49.6713 75.772 49.1723 82.61 44.5293 89.511C40.3443 95.731 34.9673 98.812 31.9543 100.199C32.4083 103.435 32.8293 106.675 33.2273 109.917C39.4343 105.748 43.5924 101.44 46.1364 98.362C48.6274 95.347 50.4643 93.079 51.5503 89.586C53.7923 82.373 51.0333 75.724 49.7253 73.041Z" fill="#E9C49E"/>
</svg>
