<svg width="80" height="121" viewBox="0 0 80 121" fill="none" xmlns="http://www.w3.org/2000/svg">
<path d="M41.6494 75.6464C62.3364 75.6464 79.1064 58.8764 79.1064 38.1894C79.1064 17.5025 62.3364 0.732422 41.6494 0.732422C20.9625 0.732422 4.19244 17.5025 4.19244 38.1894C4.19244 58.8764 20.9625 75.6464 41.6494 75.6464Z" fill="#F8DABB"/>
<path d="M47.5994 113.162C55.0724 108.708 62.1604 103.638 68.8194 98.0614L63.7144 51.8984L28.8894 71.0804L33.8714 120.72C38.6464 118.473 43.2794 115.737 47.5994 113.162Z" fill="#F8DABB"/>
<path d="M6.82046 39.3077C2.40546 45.1967 3.25346 53.9177 3.92146 60.7757C4.82146 70.0097 7.76146 78.1206 8.74346 87.3006C9.22346 91.7916 10.8135 96.7266 14.8535 98.7466C18.7645 100.703 23.4405 99.2106 27.5435 97.6986C34.3265 95.1986 41.8035 92.0637 44.6495 85.4177C46.1825 81.8377 45.3715 80.8857 48.1575 74.4587C49.6675 70.9747 51.4605 67.8086 52.3725 66.2076C53.8685 63.5806 54.0975 63.4376 56.4545 59.5546C61.5075 51.2326 61.8595 49.5807 61.7425 47.8987C61.6895 47.1337 61.3445 44.1677 59.1575 41.9177C58.4975 41.2387 57.6695 40.6706 56.6095 40.2146C52.2265 38.3296 47.3715 37.0896 42.7505 35.9366C32.8455 33.4656 14.2985 29.3317 6.82046 39.3077Z" fill="#F8DABB"/>
<path d="M4.26344 36.0483C4.72544 49.1643 -0.452561 67.5583 0.300439 69.8023C1.05344 72.0463 11.8824 69.8023 11.8824 69.8023" fill="#F8DABB"/>
<path d="M55.1405 46.8584C53.0855 46.9594 51.2525 48.3694 50.2165 50.1464C49.1805 51.9244 48.8375 54.0244 48.7595 56.0804C49.0465 55.3844 50.0065 55.0714 50.6485 55.4624C51.2915 55.8534 51.4525 56.8504 50.9665 57.4244" stroke="#08051A" stroke-width="1.5765" stroke-miterlimit="10" stroke-linecap="round" stroke-linejoin="round"/>
<path d="M49.8444 68.9482C49.7904 71.6792 49.2914 78.5172 44.6484 85.4182C40.4634 91.6382 35.0864 94.7192 32.0734 96.1062C32.5274 99.3422 32.9484 102.582 33.3464 105.824C39.5534 101.655 43.7114 97.3473 46.2554 94.2693C48.7464 91.2543 50.5834 88.9863 51.6694 85.4933C53.9114 78.2803 51.1524 71.6312 49.8444 68.9482Z" fill="#E9C49E"/>
<path d="M63.9652 78.763C63.1892 78.608 63.1762 77.443 61.4632 72.151C58.6912 63.587 57.7592 63.652 57.7912 60.852C57.8482 55.843 60.8422 54.665 59.9102 50.541C59.8112 50.105 58.8952 46.326 55.5422 44.794C51.0712 42.75 46.4292 46.601 46.1972 46.804C44.0692 48.661 42.8102 51.376 42.5582 54.17C42.4302 55.59 42.5202 58.668 39.9492 57.639C38.9902 57.255 38.4942 56.208 38.1572 55.231C37.0402 51.994 37.0032 48.57 36.2462 45.251C35.1752 40.555 35.2122 39.139 34.1102 38.555C32.7712 37.846 31.5562 38.624 31.2362 38.181C29.9232 36.37 51.3712 22.641 49.0802 16.335C47.5132 12.019 34.9172 11.382 34.0612 11.344C32.3372 11.269 29.5422 11.302 25.4452 10.638C21.3532 9.97501 19.3072 9.64301 19.2282 9.02401C18.9382 6.74101 42.0812 -5.24799 61.1922 4.49601C63.3432 5.59201 71.0062 9.34502 75.4432 17.884C82.2972 31.077 77.9072 45.573 73.7512 59.299C71.0152 68.334 66.4372 79.256 63.9652 78.763Z" fill="#08051A"/>
</svg>
