<svg width="80" height="121" viewBox="0 0 80 121" fill="none" xmlns="http://www.w3.org/2000/svg">
<path d="M41.7644 75.6874C62.4513 75.6874 79.2214 58.9174 79.2214 38.2304C79.2214 17.5435 62.4513 0.773438 41.7644 0.773438C21.0774 0.773438 4.30737 17.5435 4.30737 38.2304C4.30737 58.9174 21.0774 75.6874 41.7644 75.6874Z" fill="#F8DABB"/>
<path d="M47.7144 113.203C55.1874 108.749 62.2754 103.679 68.9344 98.1024L63.8294 51.9395L29.0044 71.1214L33.9864 120.761C38.7614 118.514 43.3944 115.778 47.7144 113.203Z" fill="#F8DABB"/>
<path d="M6.93539 39.3487C2.52039 45.2377 3.36839 53.9587 4.03639 60.8167C4.93639 70.0507 7.87639 78.1617 8.85839 87.3417C9.33839 91.8327 10.9284 96.7677 14.9684 98.7877C18.8794 100.744 23.5554 99.2517 27.6584 97.7397C34.4414 95.2397 41.9184 92.1047 44.7644 85.4587C46.2974 81.8787 45.4864 80.9267 48.2724 74.4997C49.7824 71.0157 51.5754 67.8497 52.4874 66.2487C53.9834 63.6217 54.2124 63.4787 56.5694 59.5957C61.6224 51.2737 61.9744 49.6217 61.8574 47.9397C61.8044 47.1747 61.4594 44.2087 59.2724 41.9587C58.6124 41.2797 57.7844 40.7117 56.7244 40.2557C52.3414 38.3707 47.4864 37.1307 42.8654 35.9777C32.9604 33.5067 14.4134 29.3727 6.93539 39.3487Z" fill="#F8DABB"/>
<path d="M4.37837 36.0894C4.84037 49.2054 -0.337632 67.5994 0.415368 69.8434C1.16837 72.0874 11.9974 69.8434 11.9974 69.8434" fill="#F8DABB"/>
<path d="M55.2554 46.8994C53.2004 47.0004 51.3674 48.4104 50.3314 50.1874C49.2954 51.9654 48.9524 54.0654 48.8744 56.1214C49.1614 55.4254 50.1214 55.1124 50.7634 55.5034C51.4064 55.8944 51.5674 56.8914 51.0814 57.4654" stroke="#08051A" stroke-width="1.5765" stroke-miterlimit="10" stroke-linecap="round" stroke-linejoin="round"/>
<path d="M49.9594 68.9893C49.9054 71.7203 49.4064 78.5583 44.7634 85.4593C40.5784 91.6793 35.2014 94.7603 32.1884 96.1473C32.6424 99.3833 33.0633 102.623 33.4613 105.865C39.6683 101.696 43.8264 97.3883 46.3704 94.3103C48.8614 91.2953 50.6983 89.0273 51.7843 85.5343C54.0263 78.3213 51.2674 71.6723 49.9594 68.9893Z" fill="#E9C49E"/>
<path d="M65.8201 66.7379C65.0441 66.5829 62.3046 77.0285 60.5916 71.7365C57.8196 63.1725 56.8876 63.2375 56.9196 60.4375C56.9766 55.4285 59.9706 54.2505 59.0386 50.1265C58.9396 49.6905 58.0236 45.9115 54.6706 44.3795C50.1996 42.3365 45.5576 46.1865 45.3256 46.3895C43.1976 48.2465 41.9386 50.9615 41.6866 53.7555C41.5586 55.1755 41.6486 58.2534 39.0776 57.2244C38.1186 56.8404 37.6226 55.7935 37.2856 54.8165C36.1686 51.5795 36.1316 48.1554 35.3746 44.8364C34.2096 39.7264 34.0866 38.6674 33.2386 38.1404C31.6986 37.1834 30.4496 38.3844 29.0956 37.4744C26.9696 36.0464 28.8926 32.3085 27.2116 29.1285C26.3516 27.5015 24.6776 26.2645 17.2306 24.4205C12.8201 24.2379 12.3201 24.7379 9.32013 25.2379C8.59213 24.8639 6.62091 26.2482 6.49591 26.0412C6.49538 23.7379 10.6209 16.0462 13.4959 13.5412C14.6499 12.5352 20.7159 5.21704 29.9959 2.54104C40.9998 -0.518326 47.9998 0.5 55.9998 3.53955C63.5037 6.78379 71.8969 14.4541 74.9959 20.4201C80.9959 33.7379 79.9998 42.2379 75.8182 54.7379C69.826 63.2379 68.3201 65.2379 65.8201 66.7379Z" fill="#08051A" fill-opacity="0.09"/>
</svg>
