<svg width="1197" height="746" viewBox="0 0 1197 746" fill="none" xmlns="http://www.w3.org/2000/svg">
<path d="M996.924 5.12018L996.888 5.12552C992.761 5.86285 989.448 8.65616 988.023 12.5988L955.647 102.197C954.224 106.14 954.985 110.407 957.687 113.612C960.381 116.807 964.443 118.28 968.556 117.559L968.592 117.552L1062.37 100.79C1066.5 100.052 1069.82 97.2588 1071.24 93.3175C1072.66 89.3748 1071.9 85.1068 1069.2 81.9028L1007.79 9.06549C1005.1 5.87082 1001.04 4.39751 996.924 5.12018ZM969.408 122.422C963.543 123.451 957.753 121.349 953.913 116.793C950.061 112.224 948.973 106.14 951.005 100.519L983.38 10.9215C985.411 5.30148 990.135 1.31752 996.019 0.266853L996.071 0.257484C1001.94 -0.773186 1007.73 1.32817 1011.57 5.88417L1072.97 78.7215C1076.83 83.2895 1077.91 89.3735 1075.88 94.9948C1073.85 100.615 1069.13 104.599 1063.24 105.651L969.46 122.412L969.408 122.422Z" fill="#DADBD8"/>
<path d="M996.575 40.1068L1008.06 38.0069L1012.76 74.6815L1005.08 76.0869L996.575 40.1068ZM1004.96 89.0215C1004.35 85.6829 1006.5 82.5642 1010.15 81.8962C1013.72 81.2428 1016.76 83.4135 1017.37 86.7509C1017.98 90.0882 1015.92 93.2735 1012.35 93.9255C1008.7 94.5935 1005.57 92.3575 1004.96 89.0215Z" fill="#DADBD8"/>
<path d="M967.763 79.2933H214.274C201.285 79.2933 190.755 89.8214 190.755 102.811V635.017C190.755 648.006 201.285 658.538 214.274 658.538H503.462C503.462 658.538 521.857 715.421 464.833 744.853H735.237C735.237 744.853 670.852 722.78 687.408 658.538H967.765C980.752 658.538 991.282 648.006 991.282 635.018V102.813C991.282 89.8214 980.752 79.2933 967.763 79.2933Z" fill="#E2E8F0"/>
<path d="M601.079 601.23C611.33 615.879 595.287 631.92 580.634 621.672C580.154 621.334 579.712 620.894 579.375 620.412C569.154 605.764 585.176 589.744 599.818 599.969C600.302 600.308 600.742 600.745 601.079 601.23Z" fill="#33535F"/>
<path d="M978.309 559.837H203.729V104.903C203.729 95.4055 211.428 87.7076 220.926 87.7076H961.111C970.609 87.7076 978.309 95.4055 978.309 104.903V559.837Z" fill="white"/>
<path d="M978.309 126.938H203.729V103.94C203.729 94.9746 210.997 87.7076 219.961 87.7076H964.98C972.341 87.7076 978.309 93.673 978.309 101.034V126.938Z" fill="#F2F3F5"/>
<path d="M233.837 108.145C233.837 111.151 231.401 113.587 228.395 113.587C225.391 113.587 222.955 111.151 222.955 108.145C222.955 105.141 225.391 102.704 228.395 102.704C231.401 102.704 233.837 105.141 233.837 108.145Z" fill="#33535F"/>
<path d="M250.058 108.145C250.058 111.151 247.623 113.587 244.617 113.587C241.611 113.587 239.175 111.151 239.175 108.145C239.175 105.141 241.611 102.704 244.617 102.704C247.623 102.704 250.058 105.141 250.058 108.145Z" fill="#33535F"/>
<path d="M265.484 108.145C265.484 111.151 263.047 113.587 260.042 113.587C257.038 113.587 254.601 111.151 254.601 108.145C254.601 105.141 257.038 102.704 260.042 102.704C263.047 102.704 265.484 105.141 265.484 108.145Z" fill="#33535F"/>
<path d="M833.051 657.276C833.051 657.525 725.828 657.729 593.595 657.729C461.314 657.729 354.117 657.525 354.117 657.276C354.117 657.027 461.314 656.825 593.595 656.825C725.828 656.825 833.051 657.027 833.051 657.276Z" fill="#33535F"/>
<path d="M1196.4 745.537C1196.4 745.792 928.702 746 598.56 746C268.305 746 0.666534 745.792 0.666534 745.537C0.666534 745.284 268.305 745.075 598.56 745.075C928.702 745.075 1196.4 745.284 1196.4 745.537Z" fill="#17282F"/>
<path d="M402.1 425.6H328.6C318.4 425.6 310 417.3 310 407.1V407C310 404.7 310.4 402.4 311.3 400.2L360.3 274.1C362.5 268.5 367.8 264.9 373.8 264.9C381.8 264.9 388.3 271.3 388.3 279.3C388.3 281.2 387.9 283.1 387.2 284.8L343.6 391C342.2 394.5 343.8 398.5 347.4 400C348.2 400.3 349.1 400.5 350 400.5H402.1V355.3C402.1 347.3 408.5 340.9 416.5 340.9C424.5 340.9 430.9 347.3 430.9 355.3V400.5H441.4C448.4 400.5 454 406.1 454 413.1C454 420.1 448.4 425.7 441.4 425.7H430.9V448.1C430.9 456.1 424.5 462.5 416.5 462.5C408.5 462.5 402.1 456.1 402.1 448.1V425.6Z" fill="#003F6E"/>
<path d="M407.1 420H333.6C323.3 420 315 411.7 315 401.5V401.4C315 399.1 315.4 396.8 316.3 394.6L365.3 268.5C367.5 262.9 372.8 259.3 378.8 259.3C386.8 259.3 393.3 265.7 393.3 273.7C393.3 275.6 392.9 277.5 392.2 279.2L348.6 385.4C347.2 388.9 348.8 392.9 352.4 394.4C353.2 394.7 354.1 394.9 355 394.9H407.3V349.7C407.3 341.7 413.7 335.3 421.7 335.3C429.7 335.3 436.1 341.7 436.1 349.7V394.9H446.6C453.6 394.9 459.2 400.5 459.2 407.5C459.2 414.5 453.6 420.1 446.6 420.1H435.8V442.5C435.8 450.5 429.4 456.9 421.4 456.9C413.4 456.9 407 450.5 407 442.5L407.1 420Z" fill="#003F6E" stroke="#13005A" stroke-opacity="0.2" stroke-width="0.53" stroke-miterlimit="10"/>
<path d="M500 438.7C486.1 422.8 479.2 396.8 479.2 360.4C479.2 324 486.2 298 500.2 282.1C514.2 266.2 535.6 258.3 564.5 258.3C593.4 258.3 614.7 266.2 628.6 282.1C642.5 298 649.4 324.1 649.4 360.4C649.4 396.7 642.5 422.8 628.6 438.7C614.7 454.6 593.4 462.5 564.5 462.5C535.4 462.5 513.9 454.6 500 438.7ZM593.9 430.7C601.4 425.8 606.8 417.7 610.3 406.4C613.8 395.1 615.5 379.8 615.5 360.5C615.5 341.2 613.8 325.9 610.3 314.7C606.8 303.5 601.3 295.5 593.9 290.5C586.5 285.5 576.6 283.1 564.5 283.1C552.4 283.1 542.6 285.6 535.1 290.5C527.6 295.4 522.2 303.5 518.7 314.7C515.2 325.9 513.5 341.1 513.5 360.5C513.5 379.9 515.2 395.1 518.7 406.4C522.2 417.7 527.7 425.8 535.1 430.7C542.5 435.6 552.4 438.1 564.5 438.1C576.6 438.1 586.4 435.6 593.9 430.7Z" fill="#0D8F75"/>
<path d="M505.4 438.5C491.5 422.6 484.6 396.6 484.6 360.2C484.6 323.8 491.6 297.8 505.6 281.9C519.6 266 541 258.1 569.9 258.1C598.8 258.1 620.1 266 634 281.9C647.9 297.8 654.8 323.9 654.8 360.2C654.8 396.5 647.9 422.6 634 438.5C620.1 454.4 598.8 462.3 569.9 462.3C540.8 462.3 519.3 454.4 505.4 438.5ZM599.3 430.5C606.8 425.6 612.2 417.5 615.7 406.2C619.2 394.9 620.9 379.6 620.9 360.3C620.9 341 619.2 325.7 615.7 314.5C612.2 303.3 606.7 295.3 599.3 290.3C591.9 285.3 582 282.9 569.9 282.9C557.8 282.9 548 285.4 540.5 290.3C533 295.2 527.6 303.3 524.1 314.5C520.6 325.7 518.9 340.9 518.9 360.3C518.9 379.7 520.6 394.9 524.1 406.2C527.6 417.5 533.1 425.6 540.5 430.5C547.9 435.4 557.8 437.9 569.9 437.9C582 437.9 591.8 435.4 599.3 430.5Z" fill="#0D8F75" stroke="#13005A" stroke-opacity="0.2" stroke-width="0.53" stroke-miterlimit="10"/>
<path d="M695.6 438.7C681.7 422.8 674.8 396.8 674.8 360.4C674.8 324 681.8 298 695.8 282.1C709.8 266.2 731.2 258.3 760.1 258.3C789 258.3 810.3 266.2 824.2 282.1C838.1 298 845 324.1 845 360.4C845 396.7 838.1 422.8 824.2 438.7C810.3 454.6 789 462.5 760.1 462.5C731 462.5 709.5 454.6 695.6 438.7ZM789.5 430.7C797 425.8 802.4 417.7 805.9 406.4C809.4 395.1 811.1 379.8 811.1 360.5C811.1 341.2 809.4 325.9 805.9 314.7C802.4 303.5 796.9 295.5 789.5 290.5C782.1 285.5 772.2 283.1 760.1 283.1C748 283.1 738.2 285.6 730.7 290.5C723.2 295.4 717.8 303.5 714.3 314.7C710.8 325.9 709.1 341.1 709.1 360.5C709.1 379.9 710.8 395.1 714.3 406.4C717.8 417.7 723.3 425.8 730.7 430.7C738.1 435.6 748 438.1 760.1 438.1C772.2 438.1 782 435.6 789.5 430.7Z" fill="#003F6E"/>
<path d="M701 438.5C687.1 422.6 680.2 396.6 680.2 360.2C680.2 323.8 687.2 297.8 701.2 281.9C715.2 266 736.6 258.1 765.5 258.1C794.4 258.1 815.7 266 829.6 281.9C843.5 297.8 850.4 323.9 850.4 360.2C850.4 396.5 843.5 422.6 829.6 438.5C815.7 454.4 794.4 462.3 765.5 462.3C736.4 462.3 714.9 454.4 701 438.5ZM794.9 430.5C802.4 425.6 807.8 417.5 811.3 406.2C814.8 394.9 816.5 379.6 816.5 360.3C816.5 341 814.8 325.7 811.3 314.5C807.8 303.3 802.3 295.3 794.9 290.3C787.5 285.3 777.6 282.9 765.5 282.9C753.4 282.9 743.6 285.4 736.1 290.3C728.6 295.2 723.2 303.3 719.7 314.5C716.2 325.7 714.5 340.9 714.5 360.3C714.5 379.7 716.2 394.9 719.7 406.2C723.2 417.5 728.7 425.6 736.1 430.5C743.5 435.4 753.4 437.9 765.5 437.9C777.6 437.9 787.4 435.4 794.9 430.5Z" fill="#003F6E" stroke="#13005A" stroke-opacity="0.2" stroke-width="0.53" stroke-miterlimit="10"/>
</svg>
