<svg width="862" height="586" viewBox="0 0 862 586" fill="none" xmlns="http://www.w3.org/2000/svg">
<g clip-path="url(#clip0_92_22587)">
<path d="M774 11.5H23C16.6487 11.5 11.5 16.6487 11.5 23V563C11.5 569.351 16.6487 574.5 23 574.5H774C780.351 574.5 785.5 569.351 785.5 563V23C785.5 16.6487 780.351 11.5 774 11.5Z" stroke="#EEEEEE" stroke-width="23"/>
<path d="M772 17.5H25C21.4101 17.5 18.5 20.4101 18.5 24V122C18.5 125.59 21.4101 128.5 25 128.5H772C775.59 128.5 778.5 125.59 778.5 122V24C778.5 20.4101 775.59 17.5 772 17.5Z" stroke="#EEEEEE" stroke-width="21"/>
<path d="M67 80C71.9706 80 76 75.9706 76 71C76 66.0294 71.9706 62 67 62C62.0294 62 58 66.0294 58 71C58 75.9706 62.0294 80 67 80Z" stroke="#C3996B" stroke-width="4"/>
<path d="M93 82C99.0751 82 104 77.0751 104 71C104 64.9249 99.0751 60 93 60C86.9249 60 82 64.9249 82 71C82 77.0751 86.9249 82 93 82Z" fill="#EEEEEE"/>
<path d="M119 80C123.971 80 128 75.9706 128 71C128 66.0294 123.971 62 119 62C114.029 62 110 66.0294 110 71C110 75.9706 114.029 80 119 80Z" stroke="#C3996B" stroke-width="4"/>
<path d="M261.906 244.133V395.977H290.797V435.617H261.906V485H213.531V435.617H108.551V394.129C117.845 383.715 127.475 372.349 137.441 360.031C147.408 347.602 157.038 334.836 166.332 321.734C175.626 308.633 184.249 295.475 192.199 282.262C200.262 268.936 207.092 256.227 212.691 244.133H261.906ZM156.086 395.977H213.531V311.824C209.612 319.103 205.357 326.493 200.766 333.996C196.174 341.387 191.359 348.721 186.32 356C181.281 363.167 176.186 370.165 171.035 376.996C165.884 383.715 160.901 390.042 156.086 395.977ZM397.457 489.199C340.124 489.199 311.457 448.943 311.457 368.43C311.457 326.661 319.184 294.859 334.637 273.023C350.202 251.076 372.71 240.102 402.16 240.102C458.15 240.102 486.145 281.03 486.145 362.887C486.145 403.647 478.474 434.889 463.133 456.613C447.904 478.337 426.012 489.199 397.457 489.199ZM399.809 280.582C376.853 280.582 365.375 309.417 365.375 367.086C365.375 421.396 376.629 448.551 399.137 448.551C421.085 448.551 432.059 420.556 432.059 364.566C432.059 308.577 421.309 280.582 399.809 280.582ZM637.484 238.758V485H584.574V298.555C581.663 301.13 578.191 303.594 574.16 305.945C570.241 308.185 566.042 310.257 561.562 312.16C557.083 313.952 552.436 315.52 547.621 316.863C542.806 318.095 538.047 318.991 533.344 319.551V274.871C547.117 270.84 560.107 265.689 572.312 259.418C584.518 253.147 595.548 246.26 605.402 238.758H637.484Z" fill="#E3E1E1"/>
<path d="M787 226.5C815.995 226.5 839.5 250.005 839.5 279V373C839.5 401.995 815.995 425.5 787 425.5C758.005 425.5 734.5 401.995 734.5 373V279C734.5 250.005 758.005 226.5 787 226.5Z" fill="white" stroke="#D9272D"/>
<path d="M831.5 279C831.5 254.423 811.577 234.5 787 234.5C762.423 234.5 742.5 254.423 742.5 279V373C742.5 397.577 762.423 417.5 787 417.5C811.577 417.5 831.5 397.577 831.5 373V279Z" stroke="#D9272D" stroke-width="17"/>
<path d="M832 313H741C724.432 313 711 326.431 711 343V408C711 424.569 724.432 438 741 438H832C848.569 438 862 424.569 862 408V343C862 326.431 848.569 313 832 313Z" fill="white"/>
<path d="M832 319H741C727.745 319 717 329.745 717 343V408C717 421.255 727.745 432 741 432H832C845.255 432 856 421.255 856 408V343C856 329.745 845.255 319 832 319Z" stroke="#EEEEEE" stroke-width="12"/>
</g>
<defs>
<clipPath id="clip0_92_22587">
<rect width="862" height="586" fill="white"/>
</clipPath>
</defs>
</svg>
