<svg width="487" height="417" viewBox="0 0 487 417" fill="none" xmlns="http://www.w3.org/2000/svg">
<g clip-path="url(#clip0_139_4623)">
<path d="M174.4 392.4C160.5 376.5 153.6 350.5 153.6 314.1C153.6 277.7 160.6 251.7 174.6 235.8C188.6 219.9 210 212 238.9 212C267.8 212 289.1 219.9 303 235.8C316.9 251.7 323.8 277.8 323.8 314.1C323.8 350.4 316.9 376.5 303 392.4C289.1 408.3 267.8 416.2 238.9 416.2C209.8 416.2 188.3 408.3 174.4 392.4ZM268.3 384.4C275.8 379.5 281.2 371.4 284.7 360.1C288.2 348.8 289.9 333.5 289.9 314.2C289.9 294.9 288.2 279.6 284.7 268.4C281.2 257.2 275.7 249.2 268.3 244.2C260.9 239.2 251 236.8 238.9 236.8C226.8 236.8 217 239.3 209.5 244.2C202 249.1 196.6 257.2 193.1 268.4C189.6 279.6 187.9 294.8 187.9 314.2C187.9 333.6 189.6 348.8 193.1 360.1C196.6 371.4 202.1 379.5 209.5 384.4C216.9 389.3 226.8 391.8 238.9 391.8C251 391.8 260.8 389.3 268.3 384.4Z" fill="#0D8F75"/>
<path d="M427.4 376.4H353.9C343.6 376.4 335.3 368.1 335.3 357.9V357.8C335.3 355.5 335.7 353.2 336.6 351L385.6 224.9C387.8 219.3 393.1 215.7 399.1 215.7C407.1 215.7 413.6 222.1 413.6 230.1C413.6 232 413.2 233.9 412.5 235.6L368.9 341.8C367.5 345.3 369.1 349.3 372.7 350.8C373.5 351.1 374.4 351.3 375.3 351.3H427.6V306.1C427.6 298.1 434 291.7 442 291.7C450 291.7 456.4 298.1 456.4 306.1V351.3H466.9C473.9 351.3 479.5 356.9 479.5 363.9C479.5 370.9 473.9 376.5 466.9 376.5H456.1V398.9C456.1 406.9 449.7 413.3 441.7 413.3C433.7 413.3 427.3 406.9 427.3 398.9L427.4 376.4Z" fill="#003F6E"/>
<path d="M92.1 376.4H18.6C8.4 376.4 0 368.1 0 357.9V357.8C0 355.5 0.4 353.2 1.3 351L50.3 224.9C52.5 219.3 57.8 215.7 63.8 215.7C71.8 215.7 78.3 222.1 78.3 230.1C78.3 232 77.9 233.9 77.2 235.6L33.6 341.8C32.2 345.3 33.8 349.3 37.4 350.8C38.2 351.1 39.1 351.3 40 351.3H92.1V306.1C92.1 298.1 98.5 291.7 106.5 291.7C114.5 291.7 120.9 298.1 120.9 306.1V351.3H131.4C138.4 351.3 144 356.9 144 363.9C144 370.9 138.4 376.5 131.4 376.5H120.9V398.9C120.9 406.9 114.5 413.3 106.5 413.3C98.5 413.3 92.1 406.9 92.1 398.9V376.4Z" fill="#003F6E"/>
<path d="M434.1 371.8H360.6C350.3 371.8 342 363.5 342 353.3V353.2C342 350.9 342.4 348.6 343.3 346.4L392.3 220.3C394.5 214.7 399.8 211.1 405.8 211.1C413.8 211.1 420.3 217.5 420.3 225.5C420.3 227.4 419.9 229.3 419.2 231L375.6 337.2C374.2 340.7 375.8 344.7 379.4 346.2C380.2 346.5 381.1 346.7 382 346.7H434.3V301.5C434.3 293.5 440.7 287.1 448.7 287.1C456.7 287.1 463.1 293.5 463.1 301.5V346.7H473.6C480.6 346.7 486.2 352.3 486.2 359.3C486.2 366.3 480.6 371.9 473.6 371.9H462.8V394.3C462.8 402.3 456.4 408.7 448.4 408.7C440.4 408.7 434 402.3 434 394.3L434.1 371.8Z" stroke="#3F3D56" stroke-width="0.53" stroke-miterlimit="10"/>
<path d="M97.1 370.8H23.6C13.3 370.8 5 362.5 5 352.3V352.2C5 349.9 5.39999 347.6 6.29999 345.4L55.3 219.3C57.5 213.7 62.8 210.1 68.8 210.1C76.8 210.1 83.3 216.5 83.3 224.5C83.3 226.4 82.9 228.3 82.2 230L38.6 336.2C37.2 339.7 38.8 343.7 42.4 345.2C43.2 345.5 44.1 345.7 45 345.7H97.3V300.5C97.3 292.5 103.7 286.1 111.7 286.1C119.7 286.1 126.1 292.5 126.1 300.5V345.7H136.6C143.6 345.7 149.2 351.3 149.2 358.3C149.2 365.3 143.6 370.9 136.6 370.9H125.8V393.3C125.8 401.3 119.4 407.7 111.4 407.7C103.4 407.7 97 401.3 97 393.3L97.1 370.8Z" stroke="#3F3D56" stroke-width="0.53" stroke-miterlimit="10"/>
<path d="M167.3 30.9C167.3 24.7 172.3 19.7 178.5 19.7C178.5 19.2 178.5 18.6 178.6 18.1C178.6 17.6 178.7 17.1 178.8 16.6C178.8 16.4 178.9 16.2 179 16C179.1 15.7 179.2 15.3 179.2 15C179.3 14.6 179.4 14.2 179.6 13.9C179.7 13.6 179.8 13.3 180 13L180.6 11.8L180.7 11.7C181.2 10.9 181.7 10.2 182.2 9.4C182.4 9.1 182.7 8.8 183 8.5L183.2 8.3C183.3 8.1 183.4 8.1 183.6 7.9L184.2 7.3C184.4 7.1 184.8 6.8 185 6.6C185.1 6.5 185.2 6.4 185.4 6.4C185.6 6.2 186 6 186.2 5.8C186.9 5.2 187.7 4.8 188.6 4.5L189.9 4C190.4 3.8 190.8 3.8 191.3 3.6L192.3 3.4C192.8 3.3 193.4 3.2 193.9 3.2C194.4 3.1 194.9 3.1 195.4 3.1C196.8 3.1 198.2 3.3 199.6 3.7C199.1 3.8 198.7 3.9 198.2 4.1L196.9 4.6C196 4.9 195.2 5.3 194.5 5.9C194.2 6.1 193.9 6.3 193.7 6.5C193.6 6.6 193.5 6.7 193.3 6.7C193.1 6.9 192.7 7.2 192.5 7.4L191.9 8C191.7 8.1 191.7 8.2 191.5 8.4L191.3 8.6C191.1 8.9 190.7 9.2 190.5 9.5C189.9 10.2 189.4 11 189 11.8C189 11.9 189 11.9 188.9 11.9L188.3 13.1C188.1 13.4 188.1 13.7 187.9 14C187.7 14.3 187.7 14.7 187.5 15.1C187.4 15.4 187.3 15.8 187.3 16.1C187.2 16.3 187.2 16.6 187.1 16.7C187 17.2 186.9 17.7 186.9 18.2C186.8 18.7 186.8 19.3 186.8 19.8C180.6 19.8 175.6 24.8 175.6 31C175.6 37.2 180.6 42.2 186.8 42.2H178.4C175.4 42.2 172.6 41 170.5 38.9C168.5 36.7 167.3 33.9 167.3 30.9Z" fill="white"/>
<path d="M200.8 51.1C189.1 55.9 183.5 69.3 188.3 81C189.5 83.9 191.2 86.5 193.4 88.6C179.6 93.4 172.3 108.6 177.1 122.4C180.2 131.3 187.8 137.8 197 139.7C195.6 139.9 194.3 140.1 192.9 140.1C191.5 140.1 190.1 140 188.7 139.7C174.3 136.9 164.9 123 167.7 108.6C169.5 99.3 176.1 91.7 185 88.6C180.6 84.3 178.1 78.4 178.1 72.2C177.9 59.9 187.7 49.8 200 49.6H200.1L200.8 51.1Z" fill="white"/>
<path d="M305.8 28.7C298.4 30.6 293.2 37.3 293.2 44.9C287 44.9 282 49.9 282 56.1C282 62.3 287 67.3 293.2 67.3H284.8C278.6 67.3 273.6 62.3 273.6 56.1C273.6 49.9 278.6 44.9 284.8 44.9C284.8 37.2 290 30.5 297.4 28.7C300.1 27.9 303.1 27.9 305.8 28.7Z" fill="white"/>
<path d="M192.9 142.9C178.9 142.8 167 132.5 164.9 118.6C164.7 117 164.5 115.4 164.5 113.8H170.1C170.1 115.1 170.3 116.5 170.4 117.8C171.3 123.2 174 128.2 178.1 131.8C182.2 135.4 187.5 137.4 192.9 137.4V142.9Z" fill="white"/>
<path d="M173.8 133.6C174 133.6 174.2 133.5 174.4 133.4C174.6 133.3 174.7 133.2 174.9 133.2C175.1 133.1 175.2 133 175.3 132.9C175.8 132.4 176.1 131.7 176.2 131C176.2 130.7 176.2 130.3 176 130C175.7 129 174.8 128.3 173.8 128.2C173.5 128.2 173.1 128.2 172.8 128.3C172.5 128.4 172.1 128.5 171.8 128.7C171.2 129.1 170.8 129.8 170.7 130.5C170.6 131.3 170.9 132.1 171.3 132.8C171.8 133.4 172.5 133.7 173.3 133.8L173.8 133.6Z" fill="#565656"/>
<path d="M329.6 131.7C331.1 131.7 332.4 130.4 332.4 128.9C332.4 127.4 331.1 126.1 329.6 126.1H326.8C326.8 124.6 325.5 123.3 324 123.3C322.5 123.3 321.2 124.6 321.2 126.1H276.4V123.2C276.4 121.7 275.2 120.4 273.6 120.4C272.1 120.4 270.8 121.6 270.8 123.2V126H268C266.5 126 265.2 127.3 265.2 128.8C265.2 130.3 266.5 131.6 268 131.6H270.8V140H268C266.5 140 265.2 141.3 265.2 142.8C265.2 144.3 266.5 145.6 268 145.6H270.8V148.4H268C266.5 148.4 265.2 149.7 265.2 151.2C265.2 152.7 266.5 154 268 154H270.8V162.4H223.2V139.2C227.4 141.5 232 142.7 236.8 142.7C253 142.2 265.7 128.7 265.2 112.5C264.9 101.8 258.7 92.1 249.2 87.3C257.5 75.9 255 59.8 243.6 51.5C240.7 49.4 237.4 47.9 233.9 47.2C236.9 40.6 236.4 32.9 232.5 26.8C228.6 20.7 221.9 16.9 214.7 16.6H214.5C212.9 5.9 202.8 -1.4 192.1 0.2C183.5 1.5 176.8 8.4 175.7 17C168.6 18.4 163.7 25 164.4 32.2C165.1 39.4 171.1 44.9 178.4 44.9H194.7C194.9 45.7 195.2 46.5 195.6 47.2C183.7 49.6 175.3 60.1 175.4 72.2C175.4 77.7 177.1 83 180.3 87.4C170.5 92.4 164.3 102.5 164.3 113.6C164.3 115.2 164.5 116.8 164.7 118.4L165.3 121.4C165.5 122.2 166 122.8 166.7 123.2C167.4 123.6 168.2 123.6 169 123.4C170.4 122.9 171.2 121.5 170.9 120L170.3 117.6C170.1 116.3 170 114.9 170 113.6C169.9 103.5 176.3 94.4 185.9 91.2C186.8 90.9 187.5 90.1 187.8 89.2C188 88.2 187.8 87.2 187.1 86.5C183.2 82.7 181.1 77.5 181.1 72.1C180.9 61.4 189.4 52.6 200.1 52.3C201.2 52.4 202.3 51.8 202.9 50.8C203.4 49.9 203.3 48.7 202.7 47.9C200.6 45.1 199.5 41.7 199.5 38.2C199.2 29.6 205.9 22.5 214.4 22.1C223 21.8 230.1 28.5 230.5 37C230.5 37.4 230.5 37.7 230.5 38.1C230.5 41.6 229.4 45 227.3 47.8C226.4 49.1 226.7 50.8 228 51.7C228.5 52 229 52.2 229.6 52.2C240.4 52.4 249 61.2 248.8 72C248.8 77.4 246.7 82.6 242.8 86.4C242.1 87.1 241.8 88.1 242.1 89.1C242.3 90.1 243 90.9 244 91.1C256.4 95.4 262.9 109 258.5 121.4C255.3 130.6 246.7 136.9 237 137.2C229.4 137.2 222.3 133.3 218.2 126.8L236.6 108.4C237.6 107.3 237.6 105.5 236.6 104.4C235.5 103.3 233.7 103.3 232.6 104.4L217.8 119.2V90.7L231 77.5C232 76.4 232 74.6 231 73.5C229.9 72.4 228.1 72.4 227 73.5L217.8 82.7V69.9C217.8 68.4 216.5 67.1 215 67.1C213.5 67.1 212.2 68.4 212.2 69.9V82.7L203 73.5C201.9 72.5 200.1 72.5 199 73.5C197.9 74.6 197.9 76.4 199 77.5L212.2 90.7V119.2L197.4 104.4C196.3 103.4 194.5 103.4 193.4 104.4C192.3 105.5 192.3 107.3 193.4 108.4L211.8 126.8C205.8 136.4 193.5 139.9 183.4 134.9C182.1 134.3 180.5 134.8 179.8 136.1C179.4 136.8 179.3 137.6 179.6 138.4C179.8 139.1 180.4 139.7 181.1 140C184.8 141.8 188.9 142.7 193.1 142.7C197.9 142.7 202.5 141.5 206.7 139.2V162.4H167.5C166 162.4 164.7 163.7 164.7 165.2C164.7 166.7 166 168 167.5 168H329.8C331.3 168 332.6 166.7 332.6 165.2C332.6 163.7 331.3 162.4 329.8 162.4H327.4V154H330.2C331.7 154 333 152.7 333 151.2C333 149.7 331.7 148.4 330.2 148.4H327.4V145.7H330.2C331.7 145.7 333 144.4 333 142.9C333 141.4 331.7 140.1 330.2 140.1H327.4V131.7H329.6ZM193.7 38.3C193.7 38.6 193.7 39 193.8 39.3H178.5C173.9 39.3 170.1 35.5 170.1 30.9C170.1 26.3 173.9 22.5 178.5 22.5C179.2 22.5 180 22.2 180.5 21.7C181.1 21.2 181.4 20.5 181.3 19.7C181.4 12 187.7 5.8 195.5 5.9C202.3 6 208 10.9 209.1 17.5C200 20.3 193.7 28.7 193.7 38.3ZM212.1 162.5V135.2C213.1 134.2 214 133.2 214.9 132.2C215.8 133.2 216.7 134.2 217.7 135.2V162.5H212.1ZM321.2 162.5H276.4V154.2H321.2V162.5ZM321.2 148.5H276.4V145.8H321.2V148.5ZM321.2 140.1H276.4V131.7H321.2V140.1Z" fill="#565656"/>
<path d="M321.1 42.4C319.7 31.7 309.8 24.2 299.1 25.6C290.3 26.8 283.4 33.7 282.3 42.4C275.2 43.8 270.4 50.3 271 57.5C271.7 64.7 277.7 70.2 285 70.2H318.6C325.8 70.2 331.9 64.7 332.6 57.5C333.1 50.3 328.2 43.8 321.1 42.4ZM318.4 64.6H284.8C280.2 64.6 276.4 60.8 276.4 56.2C276.4 51.6 280.2 47.8 284.8 47.8C285.5 47.8 286.3 47.5 286.8 47C287.3 46.5 287.6 45.8 287.6 45C287.6 37.3 293.9 31 301.6 31C309.3 31 315.6 37.3 315.6 45C315.6 45.7 315.9 46.5 316.4 47C316.9 47.5 317.6 47.8 318.4 47.8C323 47.8 326.8 51.6 326.8 56.2C326.8 60.8 323.1 64.6 318.4 64.6Z" fill="#565656"/>
<path d="M179.8 392.2C165.9 376.3 159 350.3 159 313.9C159 277.5 166 251.5 180 235.6C194 219.7 215.4 211.8 244.3 211.8C273.2 211.8 294.5 219.7 308.4 235.6C322.3 251.5 329.2 277.6 329.2 313.9C329.2 350.2 322.3 376.3 308.4 392.2C294.5 408.1 273.2 416 244.3 416C215.2 416 193.7 408.1 179.8 392.2ZM273.7 384.2C281.2 379.3 286.6 371.2 290.1 359.9C293.6 348.6 295.3 333.3 295.3 314C295.3 294.7 293.6 279.4 290.1 268.2C286.6 257 281.1 249 273.7 244C266.3 239 256.4 236.6 244.3 236.6C232.2 236.6 222.4 239.1 214.9 244C207.4 248.9 202 257 198.5 268.2C195 279.4 193.3 294.6 193.3 314C193.3 333.4 195 348.6 198.5 359.9C202 371.2 207.5 379.3 214.9 384.2C222.3 389.1 232.2 391.6 244.3 391.6C256.4 391.6 266.2 389.1 273.7 384.2Z" stroke="#3F3D56" stroke-width="0.53" stroke-miterlimit="10"/>
</g>
<defs>
<clipPath id="clip0_139_4623">
<rect width="486.5" height="416.3" fill="white"/>
</clipPath>
</defs>
</svg>
