<svg width="54" height="75" viewBox="0 0 54 75" fill="none" xmlns="http://www.w3.org/2000/svg">
<path fill-rule="evenodd" clip-rule="evenodd" d="M54 8.22824C54 8.49548 54 8.72454 54 8.95361C54 27.0495 54 45.1073 54 63.2032C54 64.6158 53.4674 65.3793 51.9926 65.532C50.5997 65.6847 49.1659 65.5702 47.691 65.5702C47.691 65.3411 47.691 65.1121 47.691 64.883C47.691 46.8253 47.691 28.7675 47.691 10.6716C47.691 9.18267 48.2646 8.41913 49.7804 8.26642C51.1323 8.11371 52.5661 8.22824 54 8.22824Z" fill="#0E9346"/>
<path fill-rule="evenodd" clip-rule="evenodd" d="M6.27314 23.0028C6.27314 23.3464 6.27314 23.6137 6.27314 23.8427C6.27314 40.0298 6.27314 56.2169 6.27314 72.4039C6.27314 74.1219 5.49476 74.8855 3.65123 74.9618C2.62705 75 1.60287 74.9618 0.57869 75C0.169018 75 -0.0358225 74.8473 0.00514479 74.4655C0.00514479 74.2746 0.00514479 74.0837 0.00514479 73.8928C0.00514479 57.9348 0.00514479 41.9387 0.00514479 25.9806C0.00514479 23.9191 0.619655 23.1174 3.20059 23.041C4.14284 22.9647 5.16702 23.0028 6.27314 23.0028Z" fill="#0E9346"/>
<path fill-rule="evenodd" clip-rule="evenodd" d="M44.3726 13.6494C44.3726 13.9548 44.4136 14.2221 44.4136 14.4893C44.4136 30.6764 44.4136 46.8635 44.4136 63.0505C44.4136 64.8067 43.6352 65.5702 41.7098 65.6466C40.7266 65.6848 39.7024 65.6466 38.7192 65.6848C38.2685 65.6848 38.1047 65.5321 38.1456 65.1121C38.1866 64.8067 38.1456 64.4631 38.1456 64.1195C38.1456 48.2379 38.1456 32.3562 38.1456 16.4364C38.1456 14.4893 38.8011 13.764 40.9314 13.6494C42.0375 13.6113 43.1436 13.6494 44.3726 13.6494Z" fill="#0E9346"/>
<path fill-rule="evenodd" clip-rule="evenodd" d="M25.4048 23.0409C25.4048 23.3845 25.4048 23.6518 25.4048 23.8808C25.4048 36.8992 25.4048 49.9558 25.4048 62.9741C25.4048 64.7685 24.6265 65.532 22.701 65.6084C21.5949 65.6465 20.5297 65.6084 19.4236 65.6084C19.3417 65.6084 19.2598 65.5702 19.0959 65.532C19.0959 65.2648 19.0959 64.9975 19.0959 64.6921C19.0959 51.7119 19.0959 38.7699 19.0959 25.7897C19.0959 23.8808 19.6694 23.2318 21.6768 23.0028C22.8239 22.9264 24.0529 23.0409 25.4048 23.0409Z" fill="#0E9346"/>
<path fill-rule="evenodd" clip-rule="evenodd" d="M34.9093 23.0028C34.9093 23.3082 34.9093 23.5755 34.9093 23.8045C34.9093 36.9374 34.9093 50.0322 34.9093 63.1651C34.9093 64.8067 34.1309 65.5702 32.3283 65.6466C31.2632 65.6848 30.239 65.6466 29.1738 65.6848C28.7642 65.6848 28.5593 65.5321 28.6003 65.1503C28.6003 64.9594 28.6003 64.7685 28.6003 64.5776C28.6003 51.7501 28.6003 38.9226 28.6003 26.0952C28.6003 24.0718 29.0509 23.1555 31.8777 23.0792C32.8199 23.0028 33.8031 23.0028 34.9093 23.0028Z" fill="#0E9346"/>
<path fill-rule="evenodd" clip-rule="evenodd" d="M9.55049 65.6465C9.55049 65.2648 9.55049 64.9593 9.55049 64.6539C9.55049 51.6737 9.55049 38.7317 9.55049 25.7515C9.55049 23.8808 10.0421 23.27 12.0495 23.0409C13.2785 22.9264 14.5075 23.0027 15.7775 23.0027C15.7775 23.27 15.8185 23.5372 15.8185 23.7663C15.8185 36.861 15.8185 49.9557 15.8185 63.0505C15.8185 64.7684 15.0401 65.532 13.2375 65.5702C12.0495 65.6465 10.8614 65.6465 9.55049 65.6465Z" fill="#0E9346"/>
<path fill-rule="evenodd" clip-rule="evenodd" d="M12.664 19.7196C10.8614 19.7196 9.42757 18.3834 9.42757 16.7418C9.42757 15.062 10.9024 13.6495 12.7049 13.6876C14.5075 13.6876 15.9414 15.062 15.9414 16.78C15.9004 18.4216 14.5075 19.7196 12.664 19.7196Z" fill="#0E9346"/>
<path fill-rule="evenodd" clip-rule="evenodd" d="M31.7548 19.7196C29.9112 19.7196 28.5183 18.4215 28.5183 16.6654C28.5183 14.9856 29.9932 13.6494 31.7548 13.6494C33.5573 13.6494 35.0321 15.062 34.9912 16.7418C34.9912 18.3834 33.5573 19.7196 31.7548 19.7196Z" fill="#0E9346"/>
<path fill-rule="evenodd" clip-rule="evenodd" d="M22.2094 19.7196C20.4069 19.7196 18.973 18.4216 18.9321 16.7418C18.9321 15.062 20.4069 13.6495 22.2094 13.6876C24.012 13.6876 25.4868 15.1002 25.4458 16.78C25.4458 18.4216 24.012 19.7196 22.2094 19.7196Z" fill="#0E9346"/>
<path fill-rule="evenodd" clip-rule="evenodd" d="M44.3727 71.1442C44.3727 72.7858 42.8979 74.1601 41.1363 74.1601C39.3337 74.1601 37.8589 72.7858 37.8589 71.106C37.8589 69.4262 39.2928 68.1282 41.0953 68.1282C42.9798 68.1282 44.3727 69.4262 44.3727 71.1442Z" fill="#0E9346"/>
<path fill-rule="evenodd" clip-rule="evenodd" d="M53.959 5.74681C51.8697 5.74681 49.8214 5.74681 47.773 5.74681C47.3633 2.92171 50.8046 -0.285166 53.959 0.0202507C53.959 1.89093 53.959 3.7616 53.959 5.74681Z" fill="#0E9346"/>
</svg>
