<svg width="234" height="253" viewBox="0 0 234 253" fill="none" xmlns="http://www.w3.org/2000/svg">
<mask id="mask0_4731_3981" style="mask-type:luminance" maskUnits="userSpaceOnUse" x="0" y="0" width="234" height="253">
<path d="M0 3.05176e-05H234V252.654H0V3.05176e-05Z" fill="white"/>
</mask>
<g mask="url(#mask0_4731_3981)">
<path d="M136.549 24.3383C115.815 24.0977 95.0681 30.0907 76.5615 40.1888C58.0549 50.2868 41.908 66.198 32.9678 86.3987C24.0276 106.599 22.8815 131.184 31.9555 151.315C35.3565 158.861 40.4942 166.016 47.7608 168.996C57.0473 172.803 67.3457 169.037 77.2724 168.639C90.726 168.098 103.699 173.854 115.635 180.578C127.571 187.302 139.112 195.159 151.985 199.409C164.86 203.66 179.713 203.823 190.905 195.741C201.465 188.115 207.066 174.307 208.405 160.665C209.743 147.023 207.378 133.31 205.023 119.83C202.566 105.759 190.629 24.9649 136.549 24.3383Z" fill="#5AE4A7"/>
<mask id="mask1_4731_3981" style="mask-type:luminance" maskUnits="userSpaceOnUse" x="25" y="24" width="184" height="179">
<path d="M25.6818 24.3316H208.793V202.295H25.6818V24.3316Z" fill="white"/>
</mask>
<g mask="url(#mask1_4731_3981)">
<g opacity="0.699997">
<path d="M136.549 24.3383C115.815 24.0977 95.0681 30.0907 76.5615 40.1888C58.0549 50.2868 41.908 66.198 32.9678 86.3987C24.0276 106.599 22.8815 131.184 31.9555 151.315C35.3565 158.861 40.4942 166.016 47.7608 168.996C57.0473 172.803 67.3457 169.037 77.2724 168.639C90.726 168.098 103.699 173.854 115.635 180.578C127.571 187.302 139.112 195.159 151.985 199.409C164.86 203.66 179.713 203.823 190.905 195.741C201.465 188.115 207.066 174.307 208.405 160.665C209.743 147.023 207.378 133.31 205.023 119.83C202.566 105.759 190.629 24.9649 136.549 24.3383Z" fill="white"/>
</g>
</g>
</g>
<mask id="mask2_4731_3981" style="mask-type:luminance" maskUnits="userSpaceOnUse" x="0" y="0" width="234" height="253">
<path d="M0 3.05176e-05H234V252.654H0V3.05176e-05Z" fill="white"/>
</mask>
<g mask="url(#mask2_4731_3981)">
<path d="M185.235 220.709C185.235 224.555 155.063 227.673 117.843 227.673C80.6236 227.673 50.4512 224.555 50.4512 220.709C50.4512 216.863 80.6236 213.745 117.843 213.745C155.063 213.745 185.235 216.863 185.235 220.709Z" fill="#5AE4A7"/>
<mask id="mask3_4731_3981" style="mask-type:luminance" maskUnits="userSpaceOnUse" x="50" y="213" width="136" height="15">
<path d="M50.4514 213.745H185.235V227.674H50.4514V213.745Z" fill="white"/>
</mask>
<g mask="url(#mask3_4731_3981)">
<g opacity="0.5">
<path d="M185.235 220.709C185.235 224.555 155.063 227.673 117.843 227.673C80.6236 227.673 50.4512 224.555 50.4512 220.709C50.4512 216.863 80.6236 213.745 117.843 213.745C155.063 213.745 185.235 216.863 185.235 220.709Z" fill="white"/>
</g>
</g>
</g>
<path d="M167.053 174.241H77.1965V45.2827H167.053V174.241Z" fill="white"/>
<path d="M77.431 173.989H166.819V45.5353H77.431V173.989ZM167.053 174.494H77.197C77.0674 174.494 76.963 174.381 76.963 174.241V45.2827C76.963 45.1427 77.0674 45.03 77.197 45.03H167.053C167.182 45.03 167.287 45.1427 167.287 45.2827V174.241C167.287 174.381 167.182 174.494 167.053 174.494Z" fill="#1A2E35"/>
<path d="M155.432 114.76H87.0386V111.728H155.432V114.76Z" fill="#1A2E35"/>
<path d="M155.432 76.5763H99.7162V73.5445H155.432V76.5763Z" fill="#1A2E35"/>
<path d="M155.432 95.6684H87.0386V92.6365H155.432V95.6684Z" fill="#1A2E35"/>
<path d="M137.859 149.91C136.988 150.935 136.099 151.946 135.191 152.941H87.0387V149.91H137.859Z" fill="#1A2E35"/>
<path d="M151.295 130.819C150.696 131.824 150.083 132.835 149.446 133.851H87.0387V130.819H151.295Z" fill="#1A2E35"/>
<path d="M111.225 170.758C111.225 170.758 107.228 172.856 96.0337 173.988L77.4312 173.989" stroke="#1A2E35" stroke-width="1.33333" stroke-miterlimit="10" stroke-linecap="round" stroke-linejoin="round"/>
<path d="M165.107 100.546C165.799 99.4254 166.215 98.1343 166.324 96.7922C166.461 95.1019 166.564 93.1378 166.597 91.9407L166.775 85.3268V99.5557L165.107 100.546Z" fill="#1A2E35"/>
<path d="M166.252 98.9594C166.252 99.5759 161.02 114.472 151.295 130.819C150.696 131.825 150.083 132.835 149.446 133.851C146.062 139.288 142.188 144.791 137.859 149.91C136.988 150.935 136.099 151.946 135.191 152.941C128.335 160.45 120.435 166.842 111.585 170.506C112.091 170.228 119.799 166.029 121.479 152.941C121.605 151.981 121.694 150.971 121.745 149.91C121.97 145.483 121.53 140.177 120.042 133.851C119.813 132.866 119.555 131.855 119.269 130.819C117.108 122.931 113.392 113.583 107.472 102.527L105.946 98.9392L115.914 101.961C160.435 113.123 166.248 98.9392 166.248 98.9392C166.248 98.9442 166.252 98.9493 166.252 98.9594Z" fill="white"/>
<path d="M166.252 98.9594C166.252 99.5759 161.02 114.472 151.295 130.819C150.696 131.825 150.083 132.835 149.446 133.851C146.062 139.288 142.188 144.791 137.859 149.91C136.988 150.935 136.099 151.946 135.191 152.941C128.335 160.45 120.435 166.842 111.585 170.506C112.091 170.228 119.799 166.029 121.479 152.941C121.605 151.981 121.694 150.971 121.745 149.91C121.97 145.483 121.53 140.177 120.042 133.851C119.813 132.866 119.555 131.855 119.269 130.819C117.108 122.931 113.392 113.583 107.472 102.527L105.946 98.9392L115.914 101.961C160.435 113.123 166.248 98.9392 166.248 98.9392C166.248 98.9442 166.252 98.9493 166.252 98.9594Z" stroke="#1A2E35" stroke-width="1.33333" stroke-miterlimit="10" stroke-linecap="round" stroke-linejoin="round"/>
<path d="M127.946 143.926C127.986 145.716 127.889 146.61 127.889 146.61L127.946 143.926Z" fill="white"/>
<path d="M127.946 143.926C127.986 145.716 127.889 146.61 127.889 146.61" stroke="#1A2E35" stroke-width="1.33333" stroke-miterlimit="10" stroke-linecap="round" stroke-linejoin="round"/>
<path d="M117.237 109.523C123.704 118.567 126.966 133.851 127.819 141.103L117.237 109.523Z" fill="white"/>
<path d="M117.237 109.523C123.704 118.567 126.966 133.851 127.819 141.103" stroke="#1A2E35" stroke-width="1.33333" stroke-miterlimit="10" stroke-linecap="round" stroke-linejoin="round"/>
<path d="M88.0395 59.3387C85.4449 59.3387 83.3342 57.0592 83.3342 54.2578C83.3342 51.4564 85.4449 49.1774 88.0395 49.1774C88.4275 49.1774 88.7415 49.517 88.7415 49.9354C88.7415 50.3543 88.4275 50.6934 88.0395 50.6934C86.219 50.6934 84.7382 52.2927 84.7382 54.2578C84.7382 56.2234 86.219 57.8227 88.0395 57.8227C89.86 57.8227 91.3412 56.2234 91.3412 54.2578C91.3412 53.8394 91.6553 53.4998 92.0432 53.4998C92.4307 53.4998 92.7452 53.8394 92.7452 54.2578C92.7452 57.0592 90.6341 59.3387 88.0395 59.3387Z" fill="#1A2E35"/>
<path d="M87.9278 57.2389C83.6269 57.2389 83.3919 47.207 83.3882 45.1959V45.1317C83.3882 43.11 83.6072 33.0246 87.9278 33.0246C92.2362 33.0246 92.5488 43.9129 92.5699 45.1545L88.8263 45.2303C88.7735 42.1575 88.3359 39.7714 87.8988 38.3227C87.5047 39.7255 87.1322 42.0479 87.1322 45.1317V45.1924C87.1378 48.3157 87.5253 50.6522 87.9264 52.0353C87.9699 51.8882 88.0144 51.7265 88.0593 51.5487L88.3555 50.4501L90.9646 51.2717C91.5089 51.443 91.8211 52.058 91.6624 52.6457C90.8972 55.6816 89.6374 57.2389 87.9278 57.2389Z" fill="#C0C0C0"/>
<path d="M87.9278 57.2389C83.6269 57.2389 83.3919 47.207 83.3882 45.1959V45.1317C83.3882 43.11 83.6072 33.0246 87.9278 33.0246C92.2362 33.0246 92.5488 43.9129 92.5699 45.1545L88.8263 45.2303C88.7735 42.1575 88.3359 39.7714 87.8988 38.3227C87.5047 39.7255 87.1322 42.0479 87.1322 45.1317V45.1924C87.1378 48.3157 87.5253 50.6522 87.9264 52.0353C87.9699 51.8882 88.0144 51.7265 88.0593 51.5487L88.3555 50.4501L90.9646 51.2717C91.5089 51.443 91.8211 52.058 91.6624 52.6457C90.8972 55.6816 89.6374 57.2389 87.9278 57.2389Z" stroke="#1A2E35" stroke-width="1.33333" stroke-miterlimit="10" stroke-linecap="round" stroke-linejoin="round"/>
<path d="M92.043 55.0159C91.655 55.0159 91.341 54.6768 91.341 54.2579C91.341 52.2923 89.8598 50.6935 88.0393 50.6935C87.6518 50.6935 87.3373 50.3539 87.3373 49.9355C87.3373 49.5166 87.6518 49.1776 88.0393 49.1776C90.6339 49.1776 92.745 51.4565 92.745 54.2579C92.745 54.6768 92.431 55.0159 92.043 55.0159Z" fill="#1A2E35"/>
<path d="M110.226 59.3387C107.631 59.3387 105.52 57.0592 105.52 54.2578C105.52 51.4564 107.631 49.1774 110.226 49.1774C110.614 49.1774 110.928 49.517 110.928 49.9354C110.928 50.3543 110.614 50.6934 110.226 50.6934C108.405 50.6934 106.924 52.2927 106.924 54.2578C106.924 56.2234 108.405 57.8227 110.226 57.8227C112.046 57.8227 113.527 56.2234 113.527 54.2578C113.527 53.8394 113.841 53.4998 114.229 53.4998C114.617 53.4998 114.931 53.8394 114.931 54.2578C114.931 57.0592 112.82 59.3387 110.226 59.3387Z" fill="#1A2E35"/>
<path d="M110.114 57.2389C105.813 57.2389 105.578 47.207 105.574 45.1959V45.1317C105.574 43.11 105.793 33.0246 110.114 33.0246C114.422 33.0246 114.735 43.9129 114.756 45.1545L111.012 45.2303C110.959 42.1575 110.522 39.7714 110.085 38.3227C109.691 39.7255 109.318 42.0479 109.318 45.1317V45.1924C109.324 48.3157 109.711 50.6522 110.112 52.0353C110.156 51.8882 110.2 51.7265 110.245 51.5487L110.541 50.4501L113.15 51.2717C113.695 51.443 114.007 52.058 113.848 52.6457C113.083 55.6816 111.823 57.2389 110.114 57.2389Z" fill="#C0C0C0"/>
<path d="M110.114 57.2389C105.813 57.2389 105.578 47.207 105.574 45.1959V45.1317C105.574 43.11 105.793 33.0246 110.114 33.0246C114.422 33.0246 114.735 43.9129 114.756 45.1545L111.012 45.2303C110.959 42.1575 110.522 39.7714 110.085 38.3227C109.691 39.7255 109.318 42.0479 109.318 45.1317V45.1924C109.324 48.3157 109.711 50.6522 110.112 52.0353C110.156 51.8882 110.2 51.7265 110.245 51.5487L110.541 50.4501L113.15 51.2717C113.695 51.443 114.007 52.058 113.848 52.6457C113.083 55.6816 111.823 57.2389 110.114 57.2389Z" stroke="#1A2E35" stroke-width="1.33333" stroke-miterlimit="10" stroke-linecap="round" stroke-linejoin="round"/>
<path d="M114.229 55.0159C113.841 55.0159 113.527 54.6768 113.527 54.2579C113.527 52.2923 112.046 50.6935 110.226 50.6935C109.838 50.6935 109.524 50.3539 109.524 49.9355C109.524 49.5166 109.838 49.1776 110.226 49.1776C112.82 49.1776 114.931 51.4565 114.931 54.2579C114.931 54.6768 114.617 55.0159 114.229 55.0159Z" fill="#1A2E35"/>
<path d="M132.411 59.3387C129.817 59.3387 127.706 57.0592 127.706 54.2578C127.706 51.4564 129.817 49.1774 132.411 49.1774C132.799 49.1774 133.113 49.517 133.113 49.9354C133.113 50.3543 132.799 50.6934 132.411 50.6934C130.591 50.6934 129.11 52.2927 129.11 54.2578C129.11 56.2234 130.591 57.8227 132.411 57.8227C134.232 57.8227 135.713 56.2234 135.713 54.2578C135.713 53.8394 136.028 53.4998 136.415 53.4998C136.803 53.4998 137.117 53.8394 137.117 54.2578C137.117 57.0592 135.006 59.3387 132.411 59.3387Z" fill="#1A2E35"/>
<path d="M132.3 57.2389C127.999 57.2389 127.764 47.207 127.76 45.1959V45.1317C127.76 43.11 127.979 33.0246 132.3 33.0246C136.608 33.0246 136.921 43.9129 136.942 45.1545L133.199 45.2303C133.146 42.1575 132.708 39.7714 132.27 38.3227C131.876 39.7255 131.504 42.0479 131.504 45.1317V45.1924C131.51 48.3157 131.897 50.6522 132.298 52.0353C132.342 51.8882 132.387 51.7265 132.431 51.5487L132.727 50.4501L135.336 51.2717C135.881 51.443 136.193 52.058 136.034 52.6457C135.269 55.6816 134.009 57.2389 132.3 57.2389Z" fill="#C0C0C0"/>
<path d="M132.3 57.2389C127.999 57.2389 127.764 47.207 127.76 45.1959V45.1317C127.76 43.11 127.979 33.0246 132.3 33.0246C136.608 33.0246 136.921 43.9129 136.942 45.1545L133.199 45.2303C133.146 42.1575 132.708 39.7714 132.27 38.3227C131.876 39.7255 131.504 42.0479 131.504 45.1317V45.1924C131.51 48.3157 131.897 50.6522 132.298 52.0353C132.342 51.8882 132.387 51.7265 132.431 51.5487L132.727 50.4501L135.336 51.2717C135.881 51.443 136.193 52.058 136.034 52.6457C135.269 55.6816 134.009 57.2389 132.3 57.2389Z" stroke="#1A2E35" stroke-width="1.33333" stroke-miterlimit="10" stroke-linecap="round" stroke-linejoin="round"/>
<path d="M136.415 55.0159C136.028 55.0159 135.713 54.6768 135.713 54.2579C135.713 52.2923 134.232 50.6935 132.411 50.6935C132.024 50.6935 131.709 50.3539 131.709 49.9355C131.709 49.5166 132.024 49.1776 132.411 49.1776C135.006 49.1776 137.117 51.4565 137.117 54.2579C137.117 54.6768 136.803 55.0159 136.415 55.0159Z" fill="#1A2E35"/>
<path d="M154.598 59.3387C152.003 59.3387 149.892 57.0592 149.892 54.2578C149.892 51.4564 152.003 49.1774 154.598 49.1774C154.985 49.1774 155.3 49.517 155.3 49.9354C155.3 50.3543 154.985 50.6934 154.598 50.6934C152.777 50.6934 151.296 52.2927 151.296 54.2578C151.296 56.2234 152.777 57.8227 154.598 57.8227C156.418 57.8227 157.899 56.2234 157.899 54.2578C157.899 53.8394 158.213 53.4998 158.601 53.4998C158.988 53.4998 159.303 53.8394 159.303 54.2578C159.303 57.0592 157.192 59.3387 154.598 59.3387Z" fill="#1A2E35"/>
<path d="M154.486 57.2389C150.185 57.2389 149.95 47.207 149.947 45.1959V45.1317C149.947 43.11 150.166 33.0246 154.486 33.0246C158.794 33.0246 159.107 43.9129 159.128 45.1545L155.385 45.2303C155.332 42.1575 154.894 39.7714 154.457 38.3227C154.063 39.7255 153.691 42.0479 153.691 45.1317V45.1924C153.696 48.3157 154.083 50.6522 154.484 52.0353C154.528 51.8882 154.573 51.7265 154.617 51.5487L154.913 50.4501L157.523 51.2717C158.066 51.443 158.379 52.058 158.22 52.6457C157.455 55.6816 156.195 57.2389 154.486 57.2389Z" fill="#C0C0C0"/>
<path d="M154.486 57.2389C150.185 57.2389 149.95 47.207 149.947 45.1959V45.1317C149.947 43.11 150.166 33.0246 154.486 33.0246C158.794 33.0246 159.107 43.9129 159.128 45.1545L155.385 45.2303C155.332 42.1575 154.894 39.7714 154.457 38.3227C154.063 39.7255 153.691 42.0479 153.691 45.1317V45.1924C153.696 48.3157 154.083 50.6522 154.484 52.0353C154.528 51.8882 154.573 51.7265 154.617 51.5487L154.913 50.4501L157.523 51.2717C158.066 51.443 158.379 52.058 158.22 52.6457C157.455 55.6816 156.195 57.2389 154.486 57.2389Z" stroke="#1A2E35" stroke-width="1.33333" stroke-miterlimit="10" stroke-linecap="round" stroke-linejoin="round"/>
<path d="M158.601 55.0159C158.213 55.0159 157.899 54.6768 157.899 54.2579C157.899 52.2923 156.418 50.6935 154.597 50.6935C154.21 50.6935 153.895 50.3539 153.895 49.9355C153.895 49.5166 154.21 49.1776 154.597 49.1776C157.192 49.1776 159.303 51.4565 159.303 54.2579C159.303 54.6768 158.988 55.0159 158.601 55.0159Z" fill="#1A2E35"/>
<path d="M179.476 168.538C179.476 179.012 171.611 187.504 161.909 187.504C152.208 187.504 144.343 179.012 144.343 168.538C144.343 158.063 152.208 149.571 161.909 149.571C171.611 149.571 179.476 158.063 179.476 168.538Z" fill="#5AE4A7"/>
<path d="M179.476 168.538C179.476 179.012 171.611 187.504 161.909 187.504C152.208 187.504 144.343 179.012 144.343 168.538C144.343 158.063 152.208 149.571 161.909 149.571C171.611 149.571 179.476 158.063 179.476 168.538Z" stroke="#1A2E35" stroke-width="1.33333" stroke-miterlimit="10"/>
<path d="M172.154 168.535C172.154 169.515 171.424 170.304 170.516 170.304H163.547V177.833C163.547 178.808 162.812 179.601 161.909 179.601C161.006 179.601 160.271 178.808 160.271 177.833V170.304H153.303C152.399 170.304 151.665 169.515 151.665 168.535C151.665 167.56 152.399 166.767 153.303 166.767H160.271V159.242C160.271 158.268 161.006 157.474 161.909 157.474C162.812 157.474 163.547 158.268 163.547 159.242V166.767H170.516C171.424 166.767 172.154 167.56 172.154 168.535Z" fill="white"/>
</svg>
