<svg width="581" height="587" viewBox="0 0 581 587" fill="none" xmlns="http://www.w3.org/2000/svg">
<path fill-rule="evenodd" clip-rule="evenodd" d="M288.78 1.1777C288.069 1.85698 287.488 2.15043 287.488 1.82718C287.488 1.50542 286.562 2.07148 285.432 3.08742C284.301 4.10335 283.375 4.66196 283.375 4.32977C283.375 3.99758 281.524 4.99713 279.262 6.55082C277 8.10451 274.925 9.37666 274.651 9.37666C274.378 9.37666 273.057 10.26 271.712 11.3415C270.368 12.4215 268.824 13.3063 268.28 13.3063C267.736 13.3063 266.767 14.0005 266.128 14.8496C265.487 15.6987 263.926 16.6103 262.656 16.877C261.387 17.1436 260.349 17.6874 260.349 18.0851C260.349 18.4828 259.824 18.809 259.183 18.809C258.543 18.809 257.895 19.0772 257.745 19.4064C257.594 19.7341 250.994 23.8723 243.079 28.5989C223.947 40.026 217.848 43.7337 213.749 46.4284C211.866 47.6678 209.923 48.6808 209.432 48.6808C208.939 48.6808 208.537 48.9936 208.537 49.3749C208.537 49.7563 207.891 50.2777 207.099 50.5309C205.699 50.9808 202.79 52.603 201.959 53.3969C201.364 53.9645 198.464 55.6746 197.024 56.3062C195.475 56.9855 193.324 58.9935 193.324 59.7607C193.324 60.0795 192.987 60.6351 192.574 60.9956C192.133 61.3814 192.091 61.2131 192.471 60.5844C193.388 59.0725 189.85 60.2091 187.71 62.1128C186.816 62.9098 185.77 63.376 185.387 63.1496C185.002 62.9232 184.689 63.1332 184.689 63.6159C184.689 64.1 184.316 64.2743 183.86 64.0062C183.404 63.7365 182.811 64.0672 182.541 64.7405C182.27 65.4139 181.715 65.7684 181.307 65.5271C180.899 65.2857 180.344 65.6403 180.073 66.3136C179.803 66.9869 179.25 67.3414 178.846 67.1031C178.441 66.8633 178.109 67.042 178.109 67.5008C178.109 67.9582 177.554 68.3321 176.876 68.3321C176.197 68.3321 175.642 68.7074 175.642 69.1648C175.642 69.6236 175.329 69.8128 174.944 69.5848C174.56 69.3584 173.49 69.847 172.564 70.6708C171.64 71.4945 170.667 71.9623 170.404 71.7105C170.139 71.4588 169.692 71.8312 169.407 72.5388C169.123 73.2464 168.615 73.6635 168.278 73.4653C167.942 73.2657 166.887 73.799 165.933 74.6481C164.978 75.4987 163.812 76.1929 163.341 76.1929C162.869 76.1929 162.484 76.5683 162.484 77.0256C162.484 77.4844 162.113 77.6393 161.661 77.3727C161.209 77.106 160.838 77.2609 160.838 77.7197C160.838 78.1771 160.284 78.5525 159.606 78.5525C158.926 78.5525 158.371 78.9055 158.371 79.3375C158.371 79.771 157.908 80.124 157.343 80.124C156.777 80.124 153.202 82.0695 149.399 84.4469C145.597 86.8259 142.335 88.7714 142.15 88.7714C141.966 88.7714 140.6 89.6547 139.118 90.7362C137.636 91.8177 135.995 92.701 135.473 92.701C134.95 92.701 134.523 92.999 134.523 93.3639C134.523 93.7274 133.145 94.7001 131.46 95.5254C129.777 96.3506 127.656 97.657 126.749 98.4317C125.841 99.2048 124.257 100.039 123.23 100.285C122.205 100.531 121.365 101.047 121.365 101.433C121.365 101.819 120.808 102.135 120.13 102.135C119.452 102.135 118.896 102.509 118.896 102.968C118.896 103.425 118.558 103.599 118.145 103.355C117.73 103.111 117.269 103.258 117.116 103.683C116.965 104.107 113.325 106.52 109.028 109.047L101.216 113.638L100.703 135.203C99.5824 182.236 88.904 223.293 70.7248 250.458C69.1867 252.755 68.1799 254.635 68.4869 254.635C68.7939 254.635 68.3264 255.155 67.449 255.79C66.57 256.424 66.1119 256.956 66.4298 256.969C66.7477 256.983 66.0994 257.93 64.9914 259.074C63.8817 260.218 62.9747 261.548 62.9747 262.03C62.9747 262.511 62.2189 263.355 61.2979 263.905C60.3753 264.456 59.8251 265.222 60.0729 265.606C60.3223 265.992 59.4122 267.066 58.0501 267.993C56.6865 268.919 55.5722 270.123 55.5722 270.667C55.5722 271.21 54.6636 272.472 53.5524 273.469C52.4428 274.467 51.6091 275.661 51.7026 276.125C51.7961 276.588 51.3161 276.984 50.6382 277.003C49.9602 277.023 49.4039 277.452 49.4039 277.957C49.4039 278.46 49.0673 279.168 48.6558 279.528C48.2257 279.905 48.1431 279.789 48.4641 279.256C49.7639 277.087 47.3093 277.641 45.2351 279.984C43.9899 281.392 42.6512 282.45 42.2584 282.338C41.8673 282.226 41.3312 282.669 41.0694 283.321C40.8075 283.973 40.167 284.507 39.645 284.507C39.1229 284.507 37.7748 285.323 36.6496 286.321C35.5229 287.321 34.2309 288.201 33.779 288.28C33.327 288.36 32.4013 288.879 31.7234 289.434C31.0439 289.99 30.1821 290.479 29.805 290.522C29.4294 290.565 27.5795 291.566 25.6938 292.746C23.8081 293.926 21.6497 295.006 20.897 295.144C20.1442 295.283 16.9993 296.448 13.9074 297.732C10.8154 299.016 6.34272 300.717 3.96766 301.512C-1.17829 303.233 -1.07855 301.86 2.88299 316.343C9.017 338.78 21.4424 367.068 34.647 388.664C36.2335 391.257 37.8964 394.087 38.3405 394.953C38.7847 395.817 39.8881 397.585 40.792 398.883C41.6943 400.18 42.6574 401.86 42.9301 402.617C43.2044 403.374 43.6953 403.992 44.0226 403.992C44.3499 403.992 45.3239 405.406 46.1888 407.134C47.0522 408.862 48.1805 410.126 48.6948 409.945C49.2667 409.741 49.4693 410.199 49.2153 411.126C48.9878 411.959 49.2153 412.639 49.7202 412.639C50.2252 412.639 50.6382 413.17 50.6382 413.819C50.6382 414.467 51.0075 414.998 51.461 414.998C51.913 414.998 52.2823 415.528 52.2823 416.177C52.2823 416.825 52.6532 417.356 53.1052 417.356C53.5571 417.356 53.928 417.925 53.928 418.619C53.928 419.392 54.3846 419.715 55.1046 419.45C55.9275 419.149 56.1893 419.478 55.9742 420.545C55.8059 421.385 55.9727 422.072 56.3467 422.072C56.7192 422.072 57.2319 422.826 57.4828 423.746C57.8085 424.933 58.3493 425.272 59.3405 424.908C60.4376 424.506 60.5436 424.621 59.8283 425.444C59.1301 426.249 59.4683 427.074 61.2667 428.955C62.5586 430.308 63.4189 431.604 63.1773 431.835C62.9358 432.066 63.3472 432.478 64.0906 432.751C64.8324 433.024 65.4417 433.736 65.4417 434.334C65.4417 434.933 66.182 435.864 67.0859 436.405C67.9914 436.944 68.73 437.68 68.73 438.038C68.73 441.121 113.615 487.315 115.519 486.192C115.916 485.956 116.749 486.357 117.364 487.084C118.136 487.993 118.165 488.222 117.458 487.815C115.722 486.819 116.318 488.516 118.341 490.333C120.428 492.207 121.957 491.763 120.353 489.749C119.806 489.061 120.353 489.344 121.569 490.381C122.786 491.416 123.587 492.563 123.35 492.928C122.922 493.592 124.171 494.844 130.137 499.721C131.87 501.139 135.14 503.872 137.401 505.795C139.662 507.72 141.763 509.302 142.07 509.311C142.377 509.32 143.117 509.786 143.716 510.346C148.139 514.489 172.773 530.936 187.567 539.622C191.186 541.748 194.635 543.936 195.233 544.487C195.83 545.038 196.818 545.488 197.426 545.488C198.034 545.488 198.655 545.771 198.807 546.115C198.956 546.461 202.403 548.286 206.465 550.172C210.526 552.058 215.318 554.618 217.113 555.861C218.91 557.104 221.966 558.505 223.907 558.971C225.845 559.437 227.207 560.167 226.932 560.593C226.657 561.019 227.262 560.943 228.275 560.423C229.748 559.671 229.989 559.682 229.473 560.479C229.012 561.192 229.23 561.329 230.239 560.96C231.015 560.675 231.457 560.741 231.222 561.104C230.742 561.847 230.951 561.947 246.368 568.39C252.474 570.94 258.58 573.519 259.938 574.119C262.469 575.239 271.151 578.357 287.076 583.869L296.123 587L305.17 584.03C316.26 580.39 325.414 577.084 333.541 573.781C341.972 570.356 359.541 562.847 362.138 561.558C363.307 560.979 364.568 560.684 364.939 560.903C365.311 561.123 365.615 560.908 365.615 560.423C365.615 559.941 365.985 559.763 366.438 560.032C366.89 560.298 367.26 560.121 367.26 559.638C367.26 559.154 367.63 558.978 368.082 559.245C368.534 559.512 368.905 559.437 368.905 559.078C368.905 557.9 376.01 554.654 377.135 555.318C377.841 555.735 378.005 555.642 377.618 555.043C377.296 554.544 377.424 554.091 377.902 554.037C379.627 553.842 380.037 553.683 382.063 552.415C383.193 551.707 386.028 550.124 388.361 548.898C401.054 542.224 435.131 520.769 437.079 518.225C437.352 517.869 439.147 516.558 441.07 515.311C442.992 514.064 444.564 512.739 444.564 512.366C444.564 511.992 445.054 511.687 445.65 511.687C446.247 511.687 447.549 510.89 448.541 509.917C449.534 508.945 451.66 507.088 453.263 505.791C454.869 504.493 457.325 502.296 458.723 500.905C460.12 499.515 461.486 498.475 461.755 498.594C462.025 498.712 464.094 496.843 466.353 494.44C468.611 492.036 469.351 490.954 467.997 492.034L465.536 493.999L467.364 492.007C468.369 490.911 470.026 489.955 471.045 489.88C472.795 489.755 475.518 487.236 490.895 471.525C498.802 463.445 508.711 452.407 508.711 451.678C508.711 451.44 510.004 449.9 511.586 448.254C513.167 446.608 514.462 445.015 514.465 444.713C514.466 444.41 515.394 443.21 516.525 442.043C517.655 440.877 518.581 439.481 518.581 438.943C518.581 438.404 519.135 437.759 519.813 437.51C520.493 437.262 521.048 436.554 521.048 435.937C521.048 435.322 521.626 434.606 522.333 434.346C523.041 434.087 523.413 433.555 523.161 433.165C522.908 432.775 523.278 432.245 523.982 431.987C524.687 431.728 525.032 431.159 524.749 430.719C524.465 430.281 524.811 429.711 525.519 429.45C526.226 429.191 526.804 428.486 526.804 427.884C526.804 427.281 527.174 426.789 527.627 426.789C528.079 426.789 528.449 426.296 528.449 425.695C528.449 425.091 529.028 424.387 529.734 424.128C530.442 423.868 530.791 423.299 530.509 422.864C530.227 422.429 530.411 422.072 530.916 422.072C531.422 422.072 531.608 421.719 531.327 421.287C531.048 420.855 531.212 420.5 531.69 420.5C532.169 420.5 532.561 419.97 532.561 419.322C532.561 418.672 532.931 418.142 533.384 418.142C533.836 418.142 534.205 417.637 534.205 417.019C534.205 416.401 534.712 415.412 535.331 414.82C535.949 414.229 536.714 412.966 537.031 412.014C537.347 411.06 537.952 410.281 538.373 410.281C538.795 410.281 539.139 409.776 539.139 409.158C539.139 408.54 539.607 407.567 540.177 406.997C540.748 406.425 541.675 405.074 542.236 403.992C542.797 402.912 545.309 398.489 547.818 394.166C550.326 389.843 553.313 384.36 554.454 381.983C555.595 379.604 557.393 375.89 558.449 373.729C569.367 351.369 583.271 307.395 580.686 303.397C580.176 302.607 573.188 299.443 571.955 299.443C571.574 299.443 569.308 298.605 566.92 297.58C564.533 296.556 561.587 295.494 560.375 295.22C559.162 294.948 557.682 294.268 557.085 293.713C555.254 292.007 549.833 289.056 549.807 289.749C549.793 290.108 549.4 289.776 548.933 289.01C548.467 288.244 547.776 287.8 547.399 288.024C547.022 288.246 546.492 287.878 546.223 287.204C545.951 286.531 545.397 286.177 544.988 286.418C544.581 286.659 544.019 286.287 543.74 285.593C543.433 284.83 542.627 284.48 541.706 284.709C540.67 284.97 540.212 284.688 540.277 283.835C540.33 283.145 539.965 282.572 539.465 282.561C538.966 282.551 537.537 281.381 536.289 279.965C534.65 278.103 533.741 277.608 533.013 278.186C532.29 278.76 531.445 278.377 530.023 276.832L528.037 274.681L530.506 276.643L532.973 278.606L530.585 276.081C529.271 274.693 527.888 273.74 527.51 273.963C527.132 274.187 527.021 273.875 527.264 273.272C527.506 272.669 526.494 270.97 525.014 269.497C523.535 268.025 521.945 266.26 521.481 265.576C521.016 264.893 517.901 260.471 514.557 255.751C493.278 225.709 482.051 185.552 480.852 135.203L480.34 113.638L472.526 109.056C468.229 106.537 464.062 103.948 463.265 103.304C462.467 102.661 461.45 102.135 461.004 102.135C460.557 102.135 460.191 101.819 460.191 101.433C460.191 101.047 459.351 100.531 458.324 100.285C457.297 100.039 455.724 99.2048 454.828 98.4317C453.934 97.657 451.812 96.3253 450.115 95.4703C448.42 94.6152 447.033 93.6425 447.033 93.3088C447.033 92.9751 446.508 92.701 445.867 92.701C445.226 92.701 444.578 92.3897 444.427 92.0098C444.277 91.63 442.858 90.6394 441.276 89.8097C439.692 88.9799 435.256 86.373 431.416 84.0164C427.576 81.6598 424.152 79.8201 423.807 79.9274C423.465 80.0361 423.182 79.771 423.182 79.3375C423.182 78.9055 422.813 78.5525 422.363 78.5525C421.911 78.5525 419.69 77.2803 417.427 75.7266C415.166 74.1729 413.314 73.1793 413.314 73.519C413.314 73.8586 412.77 73.449 412.107 72.6103C411.443 71.7701 410.888 71.3635 410.872 71.7046C410.858 72.0457 410.051 71.6152 409.077 70.7482C408.105 69.8828 406.993 69.3584 406.61 69.5848C406.227 69.8128 405.912 69.6236 405.912 69.1648C405.912 68.7074 405.357 68.3321 404.679 68.3321C404 68.3321 403.445 67.9582 403.445 67.5008C403.445 67.042 403.072 66.8886 402.617 67.1567C402.162 67.4263 401.567 67.0957 401.297 66.4223C401.026 65.749 400.474 65.393 400.069 65.6328C399.664 65.8712 399.334 65.6924 399.334 65.2351C399.334 64.7763 398.777 64.4024 398.099 64.4024C397.421 64.4024 396.867 64.0479 396.867 63.6159C396.867 63.1839 396.404 62.9187 395.838 63.026C395.272 63.1347 394.898 62.7936 395.006 62.2692C395.118 61.7181 394.685 61.5036 393.977 61.7627C393.304 62.01 392.754 61.8209 392.754 61.3427C392.754 60.863 392.199 60.4712 391.521 60.4712C390.842 60.4712 390.287 60.1182 390.287 59.6862C390.287 59.2527 389.759 58.8997 389.112 58.8997C388.465 58.8997 387.447 58.4379 386.851 57.8733C386.252 57.3087 384.468 56.1587 382.886 55.3186C381.303 54.4784 379.822 53.6129 379.596 53.3969C378.765 52.603 375.854 50.9808 374.456 50.5309C373.665 50.2777 373.016 49.7563 373.016 49.3749C373.016 48.9936 372.614 48.6808 372.123 48.6808C371.631 48.6808 369.689 47.6678 367.805 46.4284C363.706 43.7337 357.607 40.026 338.477 28.5989C330.56 23.8723 323.961 19.7341 323.81 19.4064C323.659 19.0772 323.012 18.809 322.37 18.809C321.73 18.809 321.206 18.4932 321.206 18.1089C321.206 17.7231 320.366 17.2062 319.339 16.9589C318.312 16.7131 316.662 15.791 315.672 14.9092C314.683 14.0273 313.487 13.3063 313.017 13.3063C312.544 13.3063 312.159 12.9533 312.159 12.5198C312.159 12.0878 311.732 11.7348 311.209 11.7348C310.687 11.7348 309.046 10.8499 307.564 9.76844C306.08 8.68845 304.634 7.80361 304.347 7.80361C304.06 7.80361 302.555 6.87705 301.003 5.74493C299.449 4.61281 298.179 3.96779 298.179 4.31041C298.179 4.65302 297.253 4.10335 296.123 3.08742C294.992 2.07148 294.055 1.56799 294.041 1.96721C294.029 2.36792 293.639 2.07595 293.179 1.31922C292.138 -0.387909 290.474 -0.441535 288.78 1.1777ZM295.253 42.3602C297.2 43.6413 299.023 44.4666 299.307 44.1955C299.592 43.9243 299.823 44.115 299.823 44.6185C299.823 45.1235 300.189 45.5361 300.636 45.5361C301.084 45.5361 302.206 46.1558 303.13 46.9126C304.056 47.6678 304.9 48.1102 305.009 47.8942C305.118 47.6782 306.088 48.2845 307.163 49.2423C308.238 50.2002 309.395 50.8214 309.731 50.6232C310.066 50.4236 310.564 50.8124 310.833 51.4857C311.104 52.1591 311.698 52.4898 312.153 52.2216C312.61 51.952 312.982 52.1069 312.982 52.5642C312.982 53.023 313.537 53.3969 314.215 53.3969C314.894 53.3969 315.449 53.7723 315.449 54.2297C315.449 54.687 315.78 54.8657 316.185 54.6274C316.59 54.3876 317.143 54.7436 317.413 55.4169C317.684 56.0902 318.278 56.4209 318.733 56.1513C319.188 55.8832 319.56 56.0574 319.56 56.5416C319.56 57.0242 319.892 57.2238 320.298 56.9855C320.703 56.7457 321.254 57.1017 321.526 57.775C321.795 58.4483 322.35 58.8013 322.758 58.5615C323.167 58.3202 323.721 58.6732 323.993 59.3466C324.262 60.0199 324.856 60.3506 325.313 60.0824C325.768 59.8128 326.14 59.9439 326.14 60.3729C326.14 60.8019 326.972 61.4008 327.99 61.7047C329.008 62.0071 330.025 62.4733 330.253 62.74C331.35 64.0315 336.123 65.9993 336.96 65.5047C337.498 65.1874 337.687 65.2887 337.395 65.7371C336.935 66.4506 343.289 71.4767 344.651 71.4767C344.96 71.4767 346.372 72.2736 347.79 73.2464C349.207 74.2191 351.005 75.3676 351.786 75.8011C361.404 81.1251 394.933 101.892 394.651 102.351C394.445 102.686 394.602 102.862 395 102.744C395.955 102.458 401.801 105.466 401.801 106.243C401.801 106.578 402.355 106.851 403.033 106.851C403.713 106.851 404.268 107.164 404.268 107.545C404.268 107.928 404.914 108.454 405.706 108.718C407.838 109.424 414.572 113.328 416.389 114.91C417.259 115.668 418.138 116.129 418.342 115.933C418.546 115.738 420.326 116.799 422.297 118.29C424.269 119.781 426.327 121.001 426.871 121.001C427.417 121.001 428.534 121.71 429.355 122.577C430.177 123.446 431.004 124.006 431.196 123.823C431.388 123.639 432.267 124.182 433.15 125.025C434.034 125.869 435.112 126.35 435.549 126.093C435.985 125.835 436.34 125.999 436.34 126.456C436.34 126.915 436.897 127.289 437.575 127.289C438.252 127.289 438.809 127.664 438.809 128.122C438.809 128.579 439.155 128.749 439.58 128.499C440.004 128.248 440.734 128.668 441.2 129.434C441.665 130.2 442.064 130.472 442.085 130.04C442.106 129.608 442.474 129.786 442.903 130.434C443.331 131.082 444.159 131.613 444.74 131.613C445.538 131.613 445.934 134.809 446.352 144.584C447.525 172.155 453.126 202.405 461.336 225.525C462.905 229.944 464.006 234.023 463.78 234.586C463.198 236.034 465.159 236.983 466.027 235.673C467.02 234.176 466.956 235.539 465.951 237.336C465.083 238.885 465.679 241.523 466.753 240.889C467.101 240.683 467.386 241.453 467.386 242.6C467.386 243.749 468.025 245.133 468.806 245.678C469.585 246.225 469.979 247.047 469.682 247.509C469.384 247.97 469.554 248.347 470.059 248.347C470.565 248.347 470.751 248.7 470.47 249.132C470.191 249.566 470.305 249.919 470.723 249.919C471.142 249.919 472.318 252.129 473.338 254.832C474.358 257.534 475.596 260.226 476.088 260.811C477.118 262.036 478.582 264.382 480.082 267.214C480.654 268.294 481.814 269.779 482.657 270.512C483.5 271.246 483.969 272.189 483.7 272.608C483.429 273.025 483.488 273.486 483.829 273.631C484.172 273.777 487.222 277.432 490.607 281.755C503.397 298.086 522.952 314.384 539.274 322.315C540.824 323.069 541.493 323.787 540.946 324.109C540.444 324.405 540.243 325.168 540.498 325.802C540.752 326.437 540.562 326.955 540.076 326.955C539.59 326.955 539.404 327.486 539.665 328.135C539.926 328.785 539.69 329.314 539.139 329.314C538.591 329.314 538.354 329.844 538.616 330.493C538.876 331.141 538.691 331.672 538.204 331.672C537.718 331.672 537.533 332.203 537.793 332.851C538.053 333.499 537.868 334.031 537.382 334.031C536.895 334.031 536.71 334.562 536.97 335.21C537.23 335.858 537.046 336.389 536.559 336.389C536.072 336.389 535.895 336.938 536.164 337.609C536.484 338.406 536.323 338.634 535.702 338.266C535.069 337.892 534.922 338.134 535.264 338.986C535.547 339.692 535.419 340.481 534.978 340.742C534.539 341.001 534.392 341.544 534.653 341.946C534.913 342.348 534.74 342.677 534.271 342.677C533.8 342.677 533.545 343.739 533.702 345.035C533.861 346.333 533.75 347.395 533.459 347.395C533.166 347.395 531.857 349.781 530.548 352.701C520.01 376.195 497.358 412.626 485.333 425.413C484.622 426.17 484.039 427.064 484.039 427.4C484.039 427.737 483.393 428.599 482.601 429.316C481.809 430.034 480.421 431.588 479.517 432.769C478.611 433.949 476.947 435.829 475.815 436.944C474.686 438.06 473.235 439.946 472.593 441.135C471.951 442.323 471.003 443.296 470.486 443.296C469.968 443.296 468.458 444.433 467.129 445.821C465.801 447.211 465.453 447.853 466.359 447.248C471.252 443.983 441.519 471.599 431.406 479.713C424.848 484.976 419.297 489.459 419.071 489.676C417.817 490.877 413.252 493.607 412.499 493.607C412.015 493.607 411.405 494.134 411.147 494.781C410.886 495.427 410.342 495.76 409.939 495.521C409.534 495.282 409.202 495.675 409.202 496.396C409.202 497.237 408.761 497.543 407.969 497.252C407.207 496.974 406.735 497.255 406.735 497.99C406.735 498.644 406.219 499.074 405.589 498.948C404.96 498.819 403.496 499.689 402.338 500.878C401.182 502.067 399.846 503.04 399.373 503.04C398.899 503.04 398.511 503.393 398.511 503.826C398.511 504.258 397.956 504.611 397.277 504.611C396.599 504.611 396.044 504.966 396.044 505.398C396.044 505.83 395.489 506.184 394.81 506.184C394.132 506.184 393.577 506.597 393.577 507.102C393.577 507.605 393.357 507.808 393.087 507.552C392.819 507.294 390.507 508.365 387.948 509.931C372.471 519.4 334.479 538.579 329.656 539.357C328.853 539.487 328.012 539.813 327.784 540.081C326.24 541.913 297.61 552.028 295.397 551.523C288.248 549.889 258.63 538.037 243.079 530.587C227.823 523.281 209.781 513.702 204.221 509.957C202.977 509.12 201.953 508.724 201.947 509.079C201.939 509.432 201.662 509.351 201.33 508.897C200.24 507.413 195.618 504.647 195.08 505.159C194.794 505.435 194.557 505.247 194.557 504.742C194.557 504.239 194.041 503.826 193.411 503.826C192.782 503.826 192.044 503.272 191.772 502.597C191.501 501.921 190.946 501.565 190.537 501.806C190.129 502.047 189.574 501.693 189.303 501.02C189.034 500.346 188.479 499.993 188.07 500.235C187.662 500.474 187.115 500.144 186.856 499.497C186.598 498.852 185.818 498.323 185.125 498.323C184.433 498.323 183.866 497.969 183.866 497.537C183.866 497.105 183.266 496.75 182.532 496.75C181.379 496.75 181.35 496.938 182.326 498.127C183.341 499.363 183.314 499.397 182.064 498.462C181.299 497.89 180.877 496.917 181.124 496.3C181.372 495.684 181.139 495.179 180.606 495.179C180.073 495.179 179.153 494.736 178.562 494.196C177.972 493.656 176.669 492.684 175.667 492.034C174.663 491.386 173.173 490.324 172.352 489.676C171.532 489.028 170.036 487.966 169.029 487.318C168.021 486.67 166.6 485.591 165.869 484.924C165.138 484.255 162.504 482.147 160.017 480.239C145.838 469.365 119.493 445.292 115.898 439.927C114.801 438.289 113.588 437.137 113.202 437.366C112.815 437.594 111.885 436.545 111.135 435.036C110.387 433.527 109.271 432.292 108.659 432.292C108.046 432.292 107.158 431.23 106.684 429.934C106.21 428.637 105.294 427.575 104.647 427.575C104.001 427.575 103.011 426.514 102.448 425.216C101.887 423.92 100.957 422.858 100.382 422.858C99.8053 422.858 99.1507 422.401 98.9263 421.841C98.7019 421.281 95.0177 416.24 90.7398 410.639C83.6287 401.33 71.5274 384.053 70.1171 381.196C69.7976 380.547 68.8173 378.956 67.9399 377.658C65.1737 373.566 60.0122 364.545 56.3732 357.442C54.4423 353.674 52.5519 350.773 52.1717 350.998C51.7898 351.222 51.7228 350.799 52.0205 350.057C52.3727 349.181 52.2449 348.896 51.6574 349.243C51.1587 349.537 50.4839 349.364 50.1566 348.858C49.7857 348.283 49.9182 348.149 50.5104 348.499C51.9706 349.361 51.6605 348.001 49.248 342.969C48.0293 340.431 47.0818 337.734 47.141 336.978C47.1987 336.222 46.8777 335.603 46.4273 335.603C45.9753 335.603 45.8351 335.25 46.1156 334.816C46.3945 334.384 46.3104 334.031 45.927 334.031C45.5452 334.031 45.1712 333.267 45.0979 332.333C45.0247 331.399 44.5431 330.386 44.0304 330.084C43.5161 329.78 43.1561 329.3 43.2293 329.017C43.5784 327.662 42.1727 323.809 41.3203 323.787C40.792 323.775 41.099 323.362 42.0029 322.872C42.9083 322.382 43.8325 321.772 44.0584 321.515C44.2844 321.259 47.3919 319.346 50.9623 317.264C67.8838 307.398 90.8801 285.261 98.2546 271.738C98.8889 270.576 99.7788 269.844 100.232 270.112C100.687 270.381 100.821 270.233 100.532 269.785C100.242 269.336 100.661 268.133 101.465 267.109C102.268 266.086 103.387 264.364 103.949 263.282C104.512 262.202 105.85 259.935 106.926 258.247C108 256.558 108.706 254.747 108.495 254.222C108.283 253.697 108.721 252.684 109.468 251.97C110.213 251.257 110.897 250.239 110.985 249.707C111.076 249.176 111.771 247.844 112.533 246.749C113.295 245.653 114.038 244.006 114.185 243.09C114.331 242.176 114.949 240.851 115.558 240.151C116.166 239.45 116.448 238.669 116.184 238.417C115.92 238.164 116.965 234.547 118.508 230.379C128.043 204.61 133.997 173.925 135.233 144.19C135.628 134.721 136.017 131.613 136.813 131.613C137.396 131.613 138.222 131.082 138.652 130.434C139.081 129.786 139.449 129.608 139.469 130.04C139.489 130.472 139.888 130.2 140.354 129.434C140.822 128.668 141.55 128.248 141.975 128.499C142.399 128.749 142.746 128.558 142.746 128.075C142.746 127.591 143.094 127.402 143.518 127.652C143.943 127.903 144.671 127.483 145.139 126.717C145.605 125.951 145.997 125.607 146.011 125.951C146.024 126.297 147.609 125.545 149.53 124.28C151.453 123.017 153.397 121.902 153.849 121.807C154.301 121.71 156.386 120.429 158.482 118.957C160.578 117.487 162.59 116.283 162.952 116.283C163.315 116.283 164.385 115.589 165.333 114.739C167.144 113.112 173.404 109.528 175.848 108.718C176.639 108.454 177.286 107.968 177.286 107.638C177.286 107.305 177.934 106.827 178.726 106.573C180.232 106.09 183.16 104.423 183.866 103.648C184.092 103.4 194.203 97.2102 206.334 89.8916C218.466 82.5745 229.383 75.9709 230.596 75.2201C231.806 74.4679 233.354 73.6128 234.032 73.3208C236.653 72.1902 242.186 68.0729 241.827 67.5202C241.62 67.1999 241.91 66.9586 242.471 66.9839C243.967 67.0525 248.835 64.9446 248.835 64.2296C248.835 63.8929 249.429 63.6159 250.157 63.6159C250.883 63.6159 251.301 63.1734 251.084 62.6342C250.838 62.019 251.488 61.6048 252.82 61.5274C253.994 61.4589 255.088 61.015 255.253 60.5398C255.42 60.0646 255.895 59.8769 256.313 60.1241C256.729 60.3699 257.292 60.0199 257.563 59.3466C257.832 58.6732 258.387 58.3202 258.795 58.5615C259.204 58.8013 259.759 58.4483 260.03 57.775C260.299 57.1017 260.853 56.7457 261.258 56.9855C261.661 57.2238 261.993 57.0242 261.993 56.5416C261.993 56.0574 262.366 55.8832 262.821 56.1513C263.277 56.4209 263.871 56.0902 264.141 55.4169C264.412 54.7436 264.964 54.3876 265.369 54.6274C265.774 54.8657 266.106 54.687 266.106 54.2297C266.106 53.7723 266.661 53.3969 267.339 53.3969C268.017 53.3969 268.573 53.023 268.573 52.5642C268.573 52.1069 268.886 51.9177 269.27 52.1442C269.655 52.3706 270.749 51.8611 271.704 51.012C272.658 50.1615 273.823 49.4673 274.296 49.4673C274.766 49.4673 275.151 49.0919 275.151 48.6346C275.151 48.1758 275.522 48.0208 275.974 48.2875C276.426 48.5541 276.797 48.3992 276.797 47.9404C276.797 47.4831 277.352 47.1077 278.03 47.1077C278.709 47.1077 279.264 46.7547 279.264 46.3227C279.264 45.8892 279.819 45.5361 280.497 45.5361C281.176 45.5361 281.731 45.1622 281.731 44.7034C281.731 44.2461 282.008 44.0346 282.348 44.2327C282.686 44.4323 284.444 43.5832 286.253 42.3468C290.391 39.518 290.932 39.5195 295.253 42.3602ZM286.448 88.5747C282.569 96.4996 279.971 104.97 279.806 110.225L279.675 114.426L275.067 109.964C261.219 96.5562 241.544 94.8431 220.564 105.22C210.976 109.961 211.257 110.303 225.183 110.846C236.862 111.304 240.919 111.981 246.915 114.478C248.65 115.199 250.346 115.725 250.685 115.644C251.025 115.564 251.302 115.851 251.302 116.283C251.302 116.717 251.765 117.071 252.331 117.073C252.895 117.073 254.098 118.134 255.004 119.428C255.908 120.723 257.07 121.783 257.588 121.785C258.105 121.786 258.746 122.328 259.012 122.991C259.425 124.024 258.881 124.107 255.192 123.581C238.497 121.195 214.508 125.166 207.507 131.475C206.943 131.983 204.881 133.438 202.925 134.709C199.163 137.152 196.835 139.724 197.482 140.724C197.695 141.055 197.12 141.554 196.202 141.832C195.284 142.111 194.747 142.669 195.009 143.073C195.27 143.477 194.907 144.019 194.203 144.278C193.499 144.536 193.11 145.041 193.341 145.398C193.88 146.231 191.195 151.658 190.244 151.658C189.849 151.658 189.769 152.035 190.068 152.497C190.366 152.957 189.942 153.801 189.125 154.372C187.865 155.254 187.793 155.687 188.65 157.268C189.623 159.064 189.643 159.047 189.217 156.767C188.853 154.808 188.931 154.651 189.68 155.833C190.913 157.776 190.011 160.019 188.485 158.808C187.592 158.101 187.262 158.425 186.844 160.418C186.068 164.128 186.487 164.001 192.627 158.676C202.757 149.89 212.974 143.657 222.242 140.608C227.698 138.814 235.838 138.363 236.348 139.826C236.566 140.45 236.338 140.651 235.784 140.323C235.272 140.021 234.855 140.17 234.855 140.652C234.855 141.137 234.484 141.312 234.032 141.046C233.58 140.779 233.209 140.955 233.209 141.439C233.209 141.922 232.871 142.118 232.458 141.874C232.043 141.63 231.574 141.804 231.415 142.263C231.255 142.722 230.569 143.174 229.891 143.27C228.049 143.527 222.518 146.955 222.518 147.838C222.518 148.26 222.161 148.396 221.723 148.136C221.285 147.879 220.456 148.388 219.88 149.27C219.305 150.15 218.399 150.871 217.871 150.871C216.581 150.871 206.893 161.032 206.893 162.383C206.893 162.97 206.53 163.45 206.088 163.45C205.402 163.45 201.736 169.367 201.705 170.524C201.699 170.74 200.865 172.482 199.851 174.394C198.836 176.305 198.196 178.339 198.426 178.914C198.657 179.487 198.395 179.957 197.847 179.957C197.298 179.957 197.056 180.476 197.312 181.111C197.566 181.746 197.396 182.489 196.932 182.763C196.469 183.037 196.301 183.788 196.559 184.431C196.818 185.075 196.773 186 196.458 186.486C195.677 187.692 195.496 205.088 196.258 205.54C196.595 205.738 196.676 206.609 196.439 207.475C196.202 208.342 196.419 209.524 196.921 210.102C197.423 210.68 197.606 211.369 197.331 211.632C197.055 211.896 197.37 212.629 198.03 213.262C199.085 214.269 199.355 213.777 200.228 209.247C205.152 183.704 220.646 163.352 238.414 159.09L240.68 158.546L238.385 160.827C221.56 177.536 212.839 210.15 218.295 235.965C219.263 240.551 220.869 243.239 220.876 240.29C220.902 229.267 228.658 201.182 231.677 201.182C232.068 201.182 232.344 200.916 232.29 200.593C232.068 199.255 232.445 198.091 233.415 197.111C233.98 196.539 234.998 195.03 235.678 193.757C237.546 190.247 246.809 181.466 246.055 183.917C239.095 206.53 240.612 229.742 250.367 249.919C253.928 257.285 260.546 266.381 259.23 262.104C256.123 251.998 254.549 234.434 255.708 222.799C256.095 218.908 256.466 214.786 256.529 213.637C256.595 212.49 256.983 211.75 257.394 211.991C257.804 212.234 257.932 211.669 257.676 210.737C257.421 209.803 257.463 209.189 257.77 209.369C258.077 209.551 259.004 208.138 259.832 206.226C260.658 204.317 261.668 202.754 262.074 202.754C262.483 202.754 262.816 202.393 262.816 201.954C262.816 199.973 270.138 194.498 272.974 194.36C275.62 194.23 275.949 194.473 277.221 197.504C280.606 205.565 279.333 357.408 275.838 362.468C275.273 363.289 274.85 363.177 273.844 361.937C273.142 361.073 272.235 360.45 271.829 360.553C271.422 360.657 270.689 360.028 270.2 359.155C269.712 358.283 268.958 357.779 268.525 358.034C268.093 358.29 267.516 357.946 267.245 357.27C266.974 356.595 266.237 356.041 265.606 356.041C264.976 356.041 264.46 355.646 264.46 355.163C264.46 354.681 263.77 354.459 262.925 354.669C261.87 354.932 261.42 354.654 261.485 353.778C261.538 353.078 261.119 352.592 260.555 352.701C259.989 352.808 259.526 352.501 259.526 352.019C259.526 351.536 258.814 351.32 257.943 351.537C256.766 351.831 256.486 351.619 256.849 350.714C257.161 349.936 257.005 349.692 256.417 350.039C255.909 350.338 255.097 349.869 254.605 348.989C254.114 348.111 253.157 347.395 252.478 347.395C251.206 347.395 247.606 345.42 245.692 343.671C245.095 343.124 244.107 342.677 243.499 342.677C242.892 342.677 242.27 342.396 242.119 342.05C241.804 341.328 220.42 331.22 213.062 328.315C180.007 315.268 144.844 310.505 118.427 315.5C103.898 318.249 87.21 324.305 76.6983 330.648C71.9389 333.52 73.996 334.292 80.4479 332.053C89.9528 328.755 123.417 323.708 127.33 324.983C127.893 325.166 131.685 325.499 135.755 325.719C149.063 326.443 167.984 329.898 178.779 333.574C180.73 334.238 182.582 334.725 182.892 334.654C183.202 334.582 184.882 335.119 186.626 335.844C188.37 336.571 190.096 336.988 190.463 336.772C190.827 336.556 191.256 336.751 191.415 337.206C191.574 337.659 192.521 338.089 193.52 338.162C194.519 338.234 195.517 338.741 195.738 339.291C195.958 339.841 197.611 340.516 199.41 340.791C201.208 341.065 202.885 341.803 203.136 342.427C203.387 343.052 203.949 343.352 204.387 343.093C206.932 341.59 244.863 364.228 256.578 374.241C258.426 375.82 261.375 378.296 263.133 379.744C264.889 381.19 267.524 383.544 268.986 384.971L271.646 387.566L269.136 390.277C267.755 391.768 266.231 392.987 265.749 392.987C265.266 392.987 263.839 394.226 262.575 395.738C261.312 397.251 259.743 398.489 259.087 398.489C258.432 398.489 257.43 399.21 256.86 400.092C255.545 402.132 233.052 420.958 232.232 420.706C231.895 420.603 230.589 421.752 229.332 423.261C228.072 424.768 226.674 426.003 226.226 426.003C225.778 426.003 224.112 427.251 222.526 428.778C219.715 431.482 215.198 435.379 209.36 440.138C207.777 441.428 205.265 443.537 203.778 444.826L201.072 447.166L197.865 444.191C191.053 437.872 180.281 437.706 173.505 443.813C161.911 454.266 167.201 473.314 182.201 475.115C185.963 475.566 192.496 478.858 193.223 480.668C193.477 481.3 194.25 481.815 194.943 481.815C195.635 481.815 196.202 482.307 196.202 482.909C196.202 483.51 197.126 484.225 198.258 484.497C199.389 484.768 200.314 485.337 200.314 485.761C200.314 486.184 200.7 486.531 201.174 486.531C201.646 486.531 202.958 487.416 204.09 488.496C205.219 489.578 206.684 490.463 207.342 490.463C208 490.463 208.537 490.775 208.537 491.157C208.537 491.538 209.186 492.062 209.977 492.323C210.769 492.582 213.637 494.132 216.35 495.766C225.559 501.313 239.736 507.345 240.853 506.19C241.399 505.627 241.442 505.381 240.951 505.642C240.104 506.093 237.167 504.277 233.888 501.271C233.062 500.515 232.057 499.895 231.652 499.895C231.248 499.895 230.697 499.342 230.426 498.666C230.153 497.99 229.556 497.659 229.098 497.93C228.64 498.201 228.041 497.869 227.77 497.194C227.499 496.518 226.83 495.965 226.286 495.965C225.741 495.965 224.466 494.894 223.455 493.585C222.442 492.275 221.329 491.373 220.98 491.578C220.632 491.784 216.557 488.316 211.924 483.872L203.501 475.794L210.747 471.444C227.801 461.212 257.059 447.396 257.059 449.574C257.059 449.962 256.718 450.481 256.3 450.726C253.413 452.434 250.701 467.407 252.036 474.278C253.018 479.322 257.599 489.683 259.296 490.698C259.875 491.044 260.349 491.803 260.349 492.386C260.349 493.279 262.506 495.314 267.51 499.137C268.056 499.554 268.858 499.895 269.291 499.895C269.725 499.895 270.203 500.16 270.354 500.485C270.786 501.414 278.455 504.495 282.817 505.493C291.298 507.431 305.67 504.951 312.571 500.358C316.246 497.912 321.155 492.602 320.603 491.671C320.337 491.222 320.413 491.108 320.771 491.417C321.624 492.153 324.672 490.586 324.102 489.704C323.86 489.33 323.979 488.906 324.367 488.76C330.033 486.636 332.042 463.435 327.398 453.737C326.304 451.453 325.757 449.585 326.181 449.585C329.014 449.585 355.908 462.237 367.26 468.91C371.104 471.172 374.62 473.117 375.072 473.235C378.376 474.096 378.05 475.571 373.445 480.585C368.026 486.484 361.964 491.428 361.129 490.628C360.808 490.321 360.667 490.583 360.818 491.212C360.968 491.842 360.688 492.372 360.195 492.392C359.701 492.411 357.951 493.755 356.304 495.375C354.656 496.996 352.746 498.323 352.06 498.323C351.374 498.323 350.812 498.63 350.812 499.004C350.812 499.89 344.592 503.826 343.192 503.826C342.602 503.826 342.119 504.483 342.119 505.287C342.119 506.636 342.329 506.665 344.827 505.667C352.898 502.444 366.879 495.316 371.039 492.305C372.438 491.291 374.05 490.463 374.622 490.463C375.192 490.463 375.463 489.971 375.222 489.372C374.914 488.608 375.257 488.399 376.367 488.678C377.293 488.909 377.95 488.674 377.95 488.112C377.95 487.58 378.502 487.352 379.185 487.602C379.931 487.877 380.417 487.605 380.417 486.916C380.417 486.289 381.309 485.562 382.397 485.301C383.484 485.04 384.566 484.127 384.8 483.272C385.033 482.417 385.716 481.809 386.316 481.921C386.918 482.031 389.073 480.638 391.108 478.824C393.31 476.862 395.603 475.526 396.77 475.526C408.404 475.526 417.157 463.508 413.73 452.24C409.766 439.203 392.472 435.06 382.9 444.854L380.598 447.209L377.012 444.057C375.041 442.323 372.05 439.763 370.367 438.367C363.056 432.307 360.083 429.73 357.22 426.973C355.542 425.359 353.818 424.038 353.388 424.038C352.958 424.038 351.804 423.065 350.827 421.877C349.849 420.686 348.669 419.714 348.206 419.714C347.432 419.714 330.674 405.899 323.478 399.331C319.595 395.784 314.81 391.792 312.178 389.903C309.775 388.177 310.839 385.133 314.62 382.92C315.755 382.255 317.84 380.623 319.253 379.292C330.152 369.036 366.477 345.336 368.433 347.206C368.692 347.453 368.905 347.222 368.905 346.693C368.905 346.163 369.275 345.948 369.726 346.215C370.18 346.482 370.549 346.306 370.549 345.822C370.549 345.339 370.859 345.126 371.24 345.351C372.021 345.813 377.606 343.12 379.373 341.43C380.012 340.82 381.215 340.319 382.044 340.319C382.875 340.319 386.087 339.208 389.182 337.849C392.277 336.489 395.366 335.294 396.044 335.192C396.722 335.089 401.718 333.76 407.146 332.239C439.131 323.275 472.667 323.003 499.9 331.487C511.485 335.096 510.458 332.977 497.609 326.756C488.113 322.16 472.867 316.86 468.609 316.674C467.824 316.64 467.603 316.448 468.117 316.245C468.631 316.044 471.375 316.391 474.217 317.018C482.992 318.956 484.482 316.628 476.623 313.255C470.882 310.793 469.217 308.782 468.99 304.039C468.718 298.389 474.572 299.838 475.822 305.731C476.671 309.744 481.953 308.167 482.888 303.622C484.005 298.182 478.22 295.725 466.493 296.658C457.54 297.371 457.292 297.553 457.403 303.346L457.495 308.089H454.01C448.934 308.089 445.311 308.937 444.785 310.246C444.167 311.788 446.004 312.78 449.5 312.792C452.794 312.804 467.02 315.187 466.538 315.648C466.364 315.814 462.55 315.423 458.065 314.776C430.054 310.741 395.908 316.372 363.348 330.398C358.71 332.396 354.719 334.031 354.48 334.031C354.242 334.031 349.341 336.625 343.588 339.795C337.836 342.966 331.835 346.237 330.253 347.067C328.669 347.895 327.25 348.841 327.099 349.167C326.946 349.495 326.481 349.561 326.064 349.315C325.648 349.068 325.085 349.418 324.814 350.091C324.544 350.764 323.989 351.119 323.581 350.878C323.173 350.636 322.618 350.989 322.347 351.663C322.077 352.337 321.523 352.69 321.114 352.449C320.706 352.208 320.151 352.562 319.88 353.236C319.61 353.909 319.055 354.262 318.647 354.022C318.239 353.781 317.683 354.137 317.411 354.812C317.14 355.488 316.442 356.041 315.861 356.041C315.278 356.041 314.581 356.595 314.309 357.27C314.037 357.946 313.44 358.277 312.982 358.007C312.523 357.736 311.926 358.067 311.654 358.743C311.383 359.419 310.727 359.972 310.199 359.972C309.669 359.972 308.572 360.712 307.76 361.618C305.718 363.898 305.536 363.487 304.705 354.728C302.372 330.116 301.83 204.489 304.031 198.452C306.11 192.753 312.27 193.028 316.944 199.03C317.541 199.796 318.37 200.22 318.786 199.974C319.202 199.729 319.325 200.068 319.06 200.728C318.795 201.388 319.143 202.466 319.833 203.126C321.329 204.556 324.597 212.527 324.864 215.398C324.968 216.517 325.325 217.851 325.657 218.365C325.991 218.879 326.028 220.318 325.741 221.564C325.445 222.857 325.595 224.05 326.092 224.343C327.05 224.909 327.321 237.522 326.394 238.408C326.082 238.706 325.716 241.331 325.581 244.239C325.447 247.147 324.65 252.444 323.813 256.011C321.815 264.529 322.604 264.291 328.88 254.477C340.141 236.868 343.158 205.404 335.597 184.418C335.001 182.763 334.618 181.525 334.746 181.667C334.874 181.807 336.494 183.612 338.347 185.677C340.2 187.741 341.879 189.334 342.078 189.215C342.613 188.893 345.878 193.034 345.878 194.034C345.878 194.506 346.208 194.893 346.613 194.893C350.226 194.893 358.688 220.28 360.328 236.035C361.573 247.985 364.786 234.139 364.791 216.81C364.796 195.563 353.076 166.171 341.943 159.508C339.614 158.115 345.828 159.487 349.168 161.104C360.298 166.493 376.306 185.014 376.306 192.504C376.306 193.213 376.635 194.129 377.037 194.539C377.936 195.456 379.965 202.28 381.276 208.787C382.158 213.17 385.11 215.75 384.379 211.501C384.259 210.797 384.488 209.721 384.888 209.109C387.201 205.58 385.584 180.754 382.718 175.777C382.175 174.834 381.65 173.6 381.552 173.039C381.454 172.476 380.71 171.06 379.9 169.894C379.09 168.728 378.343 167.269 378.24 166.653C378.137 166.036 377.477 165.223 376.769 164.844C376.062 164.467 375.483 163.708 375.483 163.158C375.483 161.911 363.709 150.086 362.469 150.086C361.97 150.086 361.16 149.368 360.669 148.492C360.178 147.615 359.463 147.082 359.081 147.308C358.699 147.535 358.164 147.168 357.895 146.495C357.624 145.82 357.069 145.467 356.661 145.708C356.252 145.95 355.697 145.595 355.428 144.922C355.157 144.248 354.563 143.918 354.108 144.187C353.651 144.456 353.279 144.39 353.279 144.04C353.277 143.037 345.147 138.933 344.232 139.474C343.78 139.741 343.411 139.584 343.411 139.127C343.411 138.053 348.382 138.063 354.533 139.151C364.138 140.848 376.732 147.97 390.2 159.318C393.692 162.261 394.512 162.68 394.051 161.284C393.507 159.642 392.946 156.463 392.81 154.269C392.779 153.76 392.247 152.859 391.627 152.266C389.843 150.56 387.705 146.183 388.245 145.346C388.517 144.926 388.122 144.584 387.37 144.584C386.5 144.584 386.17 144.159 386.464 143.425C386.72 142.789 386.448 141.992 385.862 141.656C385.275 141.32 384.458 140.466 384.045 139.759C383.382 138.618 380.858 136.495 374.522 131.749C365.544 125.022 344.774 121.149 329.096 123.28C325.521 123.766 322.467 124.04 322.308 123.89C321.875 123.474 328.621 117.07 329.492 117.07C329.91 117.07 330.253 116.781 330.253 116.428C330.253 114.179 347.606 110.781 359.1 110.781C369.56 110.781 370.42 110.177 364.503 106.985C342.155 94.9295 321.166 95.9633 306.588 109.838L301.88 114.319L301.671 110.379C301.25 102.387 293.455 82.5447 290.72 82.503C289.905 82.4896 288.328 84.7315 286.448 88.5747ZM235.472 137.264C234.68 137.462 233.385 137.462 232.593 137.264C231.802 137.067 232.449 136.905 234.032 136.905C235.615 136.905 236.262 137.067 235.472 137.264ZM349.785 137.286C348.54 137.466 346.504 137.466 345.261 137.286C344.017 137.106 345.035 136.958 347.522 136.958C350.011 136.958 351.028 137.106 349.785 137.286ZM253.529 232.812C253.332 233.791 253.163 233.175 253.154 231.446C253.146 229.716 253.307 228.916 253.512 229.669C253.718 230.42 253.726 231.835 253.529 232.812ZM102.448 296.869C96.9268 298.837 94.8198 303.869 98.2687 306.851C100.521 308.8 103.613 308.19 103.963 305.731C104.37 302.887 106.46 301.015 109.228 301.015C111.606 301.015 111.632 301.063 111.077 304.356C110.25 309.273 108.663 311.089 103.223 313.345C98.6349 315.247 97.2588 316.793 99.1601 317.916C99.612 318.183 105.107 317.335 111.37 316.032C117.634 314.727 125.181 313.424 128.144 313.133C139.43 312.028 137.135 308.131 125.178 308.098C122.007 308.089 122.004 308.086 122.534 305.386C123.3 301.484 122.322 298.667 119.894 297.784C117.486 296.909 104.28 296.217 102.448 296.869ZM479.105 316.022C480.203 316.614 480.203 316.69 479.105 316.702C476.919 316.725 474.171 315.789 474.171 315.02C474.171 314.261 476.858 314.806 479.105 316.022ZM103.683 315.95C103.404 316.384 102.364 316.711 101.373 316.681C99.6354 316.628 99.6292 316.603 101.216 315.95C103.479 315.021 104.284 315.021 103.683 315.95ZM301.663 445.621C317.606 452.861 321.995 473.21 310.179 485.103C306.597 488.708 302.416 491.414 301.377 490.801C300.742 490.427 300.608 490.553 300.999 491.158C301.433 491.83 301.034 491.96 299.6 491.616C298.414 491.331 297.124 491.56 296.447 492.174C295.172 493.33 285.021 493.655 285.021 492.539C285.021 492.17 284.446 492.077 283.744 492.335C282.917 492.637 282.672 492.485 283.051 491.902C283.447 491.289 283.065 491.142 281.859 491.444C280.885 491.687 280.087 491.546 280.087 491.128C280.087 490.711 279.763 490.561 279.367 490.795C278.346 491.398 272.427 487.135 269.915 483.987C253.328 463.201 277.102 434.469 301.663 445.621ZM285.038 453.21C269.686 458.516 270.608 481.681 286.253 483.761C286.707 483.822 287.725 484.154 288.518 484.5C289.31 484.847 290.976 484.863 292.218 484.538C293.461 484.212 295.119 483.88 295.905 483.799C296.69 483.717 297.985 483.116 298.783 482.46C299.581 481.805 300.826 481.069 301.55 480.826C303.982 480.007 307.225 472.792 307.225 468.197C307.225 457.124 295.88 449.462 285.038 453.21ZM296.563 459.553C300.482 461.766 303.043 468.452 299.971 468.452C298.377 468.452 293.655 464.763 292.199 462.378C289.743 458.359 291.934 456.94 296.563 459.553ZM318.484 469.828C318.276 470.583 318.106 469.965 318.106 468.452C318.106 466.938 318.276 466.32 318.484 467.077C318.689 467.832 318.689 469.071 318.484 469.828ZM329.188 470.211C328.992 471.19 328.824 470.574 328.814 468.845C328.805 467.115 328.967 466.315 329.173 467.066C329.379 467.819 329.386 469.234 329.188 470.211Z" fill="#0700C4"/>
</svg>
