<svg width="201" height="204" viewBox="0 0 201 204" fill="none" xmlns="http://www.w3.org/2000/svg">
<g clip-path="url(#clip0_3170_40873)">
<path fill-rule="evenodd" clip-rule="evenodd" d="M99.22 1.71729C98.9753 1.95105 99.22 2.82853 99.22 2.71729C99.22 2.60657 98.6089 2.36769 98.22 2.71729C97.8305 3.0669 98.22 2.83161 98.22 2.71729C98.22 2.60298 96.9984 3.18263 96.22 3.71729C95.441 4.25195 95.3144 4.71729 95.22 4.71729C95.1261 4.71729 94.6829 5.34513 94.22 5.71729C93.7575 6.08894 92.4072 6.71729 92.22 6.71729C92.0327 6.71729 92.4399 6.4251 92.22 6.71729C91.9995 7.00948 90.6572 7.62553 90.22 7.71729C89.7833 7.80905 90.22 7.58042 90.22 7.71729C90.22 7.85416 89.4405 7.71729 89.22 7.71729C88.9995 7.71729 89.2715 8.604 89.22 8.71729C89.1679 8.83007 86.9447 10.0908 84.22 11.7173C77.6343 15.6496 75.6309 16.79 74.22 17.7173C73.5719 18.1438 72.3889 18.7173 72.22 18.7173C72.0504 18.7173 72.22 18.5861 72.22 18.7173C72.22 18.8485 71.4925 18.6301 71.22 18.7173C70.7382 18.8721 70.5059 19.4441 70.22 19.7173C70.015 19.9126 68.7157 20.4999 68.22 20.7173C67.6867 20.951 67.22 22.4533 67.22 22.7173C67.22 22.827 66.3621 22.5932 66.22 22.7173C66.0681 22.8501 66.0891 22.9336 66.22 22.7173C66.5354 22.197 65.9565 22.0622 65.22 22.7173C64.912 22.9915 64.3519 23.7952 64.22 23.7173C64.0875 23.6394 64.22 23.5512 64.22 23.7173C64.22 23.8839 63.3771 23.8096 63.22 23.7173C63.0633 23.6245 63.3128 23.4856 63.22 23.7173C63.1266 23.949 62.3605 24.8003 62.22 24.7173C62.0794 24.6342 62.3133 24.4856 62.22 24.7173C62.1272 24.949 62.3589 24.7993 62.22 24.7173C62.0805 24.6348 61.22 24.5594 61.22 24.7173C61.22 24.8747 61.4533 25.7173 61.22 25.7173C60.9861 25.7173 60.22 25.5599 60.22 25.7173C60.22 25.8752 60.3525 25.7957 60.22 25.7173C60.088 25.6394 59.5386 25.4338 59.22 25.7173C58.9018 26.0008 59.3106 26.8039 59.22 26.7173C59.1288 26.6307 58.3181 26.4738 58.22 26.7173C58.1223 26.9608 58.3358 26.7855 58.22 26.7173C58.1041 26.6486 57.5483 27.4251 57.22 27.7173C56.8911 28.01 56.382 27.7173 56.22 27.7173C56.0574 27.7173 56.22 28.5599 56.22 28.7173C56.22 28.8752 56.3755 28.8091 56.22 28.7173C56.0644 28.6255 55.22 28.5594 55.22 28.7173C55.22 28.8747 55.4533 28.7173 55.22 28.7173C54.9861 28.7173 55.22 28.5686 55.22 28.7173C55.22 28.8665 54.4147 29.7173 54.22 29.7173C54.0252 29.7173 52.5289 29.8992 51.22 30.7173C49.911 31.5359 49.2838 32.7173 49.22 32.7173C49.1567 32.7173 48.7301 32.3451 48.22 32.7173C47.7098 33.0895 47.3997 33.7173 47.22 33.7173C47.0397 33.7173 46.22 33.5917 46.22 33.7173C46.22 33.8424 45.7999 34.4333 45.22 34.7173C44.6406 35.0013 44.5322 35.4507 44.22 35.7173C43.9072 35.9833 42.5735 36.6327 42.22 36.7173C41.867 36.8019 42.22 36.5845 42.22 36.7173C42.22 36.8501 41.4533 36.7173 41.22 36.7173C40.9866 36.7173 41.22 36.5594 41.22 36.7173C41.22 36.8747 41.3621 37.8014 41.22 37.7173C41.0773 37.6332 40.2725 37.5712 40.22 37.7173C40.1679 37.8634 39.699 38.8479 38.22 39.7173L35.22 40.7173V48.7173C34.8342 64.9022 30.4779 78.3692 24.22 87.7173C23.6905 88.5078 24.1143 89.7173 24.22 89.7173C24.3256 89.7173 23.522 89.4989 23.22 89.7173C22.9174 89.9357 23.1105 89.7127 23.22 89.7173C23.3294 89.7219 22.6014 90.3236 22.22 90.7173C21.838 91.111 22.22 91.5517 22.22 91.7173C22.22 91.8829 21.537 92.5281 21.22 92.7173C20.9024 92.907 21.1347 92.585 21.22 92.7173C21.3058 92.8501 20.6888 93.3984 20.22 93.7173C19.7506 94.0361 19.22 94.5302 19.22 94.7173C19.22 94.9044 18.6025 95.3744 18.22 95.7173C17.838 96.0607 18.1878 96.5579 18.22 96.7173C18.2522 96.8767 17.4533 96.7106 17.22 96.7173C16.9866 96.724 17.22 97.5435 17.22 97.7173C17.22 97.8906 17.3616 97.5932 17.22 97.7173C17.0719 97.847 17.1095 97.9008 17.22 97.7173C17.6674 96.9709 16.934 96.9109 16.22 97.7173C15.7913 98.2017 15.3552 98.7557 15.22 98.7173C15.0853 98.6788 14.3101 98.4928 14.22 98.7173C14.1298 98.9418 14.3997 99.7173 14.22 99.7173C14.0402 99.7173 13.6073 100.374 13.22 100.717C12.8321 101.061 12.3755 100.69 12.22 100.717C12.0644 100.745 11.4533 101.526 11.22 101.717C10.9861 101.909 10.3498 101.702 10.22 101.717C10.0907 101.732 9.86909 102.311 9.21996 102.717C8.57084 103.123 7.47908 103.67 7.21996 103.717C6.96085 103.765 6.28432 103.275 5.21996 103.717C4.15561 104.159 2.03754 105.444 1.21996 105.717C-0.551449 106.309 -0.143734 105.733 1.21996 110.717C3.3315 118.438 7.67448 128.286 12.22 135.717C12.7661 136.61 13.0671 137.419 13.22 137.717C13.3729 138.015 13.9088 138.271 14.22 138.717C14.5306 139.164 15.1261 140.457 15.22 140.717C15.1073 140.717 15.3144 140.978 15.22 140.717C15.3326 140.717 15.9222 141.123 16.22 141.717C16.5172 142.312 17.0429 142.78 17.22 142.717C17.3074 142.398 17.4168 142.647 17.22 142.717C17.1416 143.004 17.0462 143.717 17.22 143.717C17.22 143.494 17.3938 143.717 17.22 143.717C17.22 143.94 18.0639 144.717 18.22 144.717C18.22 144.494 18.3755 144.717 18.22 144.717C18.22 144.94 18.0644 145.717 18.22 145.717C18.3755 145.717 19.22 145.478 19.22 145.717C18.9721 145.809 19.22 145.983 19.22 145.717C19.5032 145.614 19.294 146.35 19.22 146.717C19.0912 146.717 19.162 147.006 19.22 146.717C19.3482 146.717 20.1336 147.4 20.22 147.717C19.8788 147.842 20.3321 148.126 20.22 147.717C20.5976 147.579 21.4662 147.434 21.22 147.717C20.9796 147.994 20.6009 149.07 21.22 149.717C21.6647 150.183 22.3031 150.638 22.22 150.717C21.9641 150.623 22.1368 150.797 22.22 150.717C22.4753 150.811 23.22 150.511 23.22 150.717C23.22 150.923 22.9088 151.531 23.22 151.717C23.5317 151.903 24.22 152.594 24.22 152.717C24.22 153.778 39.5644 169.104 40.22 168.717C40.3568 168.636 40.0081 169.467 40.22 169.717C40.4635 169.857 40.4855 170.03 40.22 169.717C39.6223 169.374 40.5236 170.092 41.22 170.717C41.772 171.41 41.9383 171.362 41.22 170.717C41.0317 170.48 41.8015 170.361 42.22 170.717C42.6389 171.074 42.3015 171.592 42.22 171.717C42.0724 171.946 43.1664 172.039 45.22 173.717C45.8165 174.205 46.4416 175.055 47.22 175.717C47.9984 176.38 49.1143 176.714 49.22 176.717C49.3256 176.72 49.014 177.525 49.22 177.717C50.7425 179.143 60.1273 184.728 65.22 187.717C66.4656 188.449 67.014 188.528 67.22 188.717C67.4254 188.907 68.0107 189.717 68.22 189.717C68.1679 189.599 68.4292 189.717 68.22 189.717C68.2715 189.836 69.8219 190.068 71.22 190.717C72.618 191.366 74.602 192.29 75.22 192.717C75.8385 193.145 76.5521 193.557 77.22 193.717C77.8873 193.878 78.3149 194.571 78.22 194.717C78.1255 194.864 78.8713 194.896 79.22 194.717C79.3975 194.443 79.7269 194.458 79.22 194.717C78.8729 194.844 79.0612 194.963 79.22 194.717C79.4871 194.619 80.301 194.592 80.22 194.717C80.0547 194.973 79.9127 195.5 85.22 197.717C87.3218 198.595 88.7527 199.511 89.22 199.717C90.0912 200.103 93.7378 200.821 99.22 202.717L102.22 203.717L105.22 202.717C109.037 201.465 112.422 199.854 115.22 198.717C118.122 197.539 124.326 195.161 125.22 194.717C125.622 194.518 126.092 194.642 126.22 194.717C126.22 194.884 126.348 194.793 126.22 194.717C126.064 194.625 126.22 194.551 126.22 194.717C126.22 194.883 126.376 194.809 126.22 194.717C126.22 194.551 127.064 193.626 127.22 193.717C127.22 193.841 127.376 193.809 127.22 193.717C127.22 193.312 129.833 192.489 130.22 192.717C130.353 192.923 130.463 192.861 130.22 192.717C130.055 192.736 130.109 192.546 130.22 192.717C130.814 192.65 131.523 192.154 132.22 191.717C132.609 191.474 133.417 191.139 134.22 190.717C138.589 188.421 149.549 180.593 150.22 179.717C150.314 179.595 151.558 179.146 152.22 178.717C152.881 178.288 153.22 177.845 153.22 177.717C153.015 177.717 153.22 177.589 153.22 177.717C153.425 177.717 153.878 177.052 154.22 176.717C154.562 176.383 155.668 176.164 156.22 175.717C156.773 175.271 157.739 174.196 158.22 173.717C158.701 173.239 159.127 173.676 159.22 173.717C159.313 173.758 160.443 172.544 161.22 171.717C161.997 170.89 161.686 170.346 161.22 170.717L160.22 171.717L161.22 170.717C161.566 170.34 161.869 170.743 162.22 170.717C162.822 170.674 163.927 169.124 169.22 163.717C171.942 160.937 175.22 156.968 175.22 156.717C175.22 156.635 175.675 156.284 176.22 155.717C176.764 155.151 177.219 154.821 177.22 154.717C177.221 154.613 177.83 154.119 178.22 153.717C178.609 153.316 179.22 152.902 179.22 152.717C178.987 152.803 179.22 152.532 179.22 152.717C179.454 152.632 179.22 151.93 179.22 151.717C179.22 151.506 179.976 150.806 180.22 150.717C180.307 150.852 180.464 150.628 180.22 150.717C179.977 150.806 180.133 150.583 180.22 150.717C180.462 150.628 181.318 149.869 181.22 149.717C180.976 149.807 181.122 149.567 181.22 149.717C181.464 149.628 181.22 148.924 181.22 148.717C181.22 148.51 182.064 148.717 182.22 148.717C182.376 148.717 182.22 147.924 182.22 147.717C181.977 147.806 182.22 147.51 182.22 147.717C182.464 147.628 183.317 147.867 183.22 147.717C183.123 147.568 183.046 146.717 183.22 146.717C183.317 146.866 183.394 146.717 183.22 146.717C183.055 146.717 183.124 146.569 183.22 146.717C183.385 146.717 183.22 145.94 183.22 145.717C183.22 145.494 184.064 145.717 184.22 145.717C184.22 145.93 184.376 145.717 184.22 145.717C184.22 145.505 184.007 144.921 184.22 144.717C184.433 144.514 185.111 144.045 185.22 143.717C185.329 143.389 185.075 142.717 185.22 142.717C185.365 142.717 186.22 142.93 186.22 142.717C186.22 142.505 186.024 141.914 186.22 141.717C186.416 141.52 187.027 141.089 187.22 140.717C187.413 140.346 188.356 139.205 189.22 137.717C190.083 136.23 190.827 133.535 191.22 132.717C191.613 131.899 191.857 131.461 192.22 130.717C195.978 123.023 201.11 107.093 200.22 105.717C200.045 105.446 197.644 104.717 197.22 104.717C197.089 104.717 196.042 104.07 195.22 103.717C194.398 103.365 193.637 103.812 193.22 103.717C192.803 103.623 192.425 102.909 192.22 102.717C191.59 102.13 189.229 101.479 189.22 101.717C189.215 101.841 189.381 100.981 189.22 100.717C189.06 100.454 188.35 100.64 188.22 100.717C188.09 100.794 188.313 100.949 188.22 100.717C188.127 100.486 188.361 100.634 188.22 100.717C188.08 100.8 187.316 99.9562 187.22 99.7173C187.114 99.4548 186.537 99.6384 186.22 99.7173C185.863 99.807 186.197 100.011 186.22 99.7173C186.238 99.4799 186.392 98.7209 186.22 98.7173C186.048 98.7137 185.65 98.2048 185.22 97.7173C184.656 97.0765 183.471 97.5184 183.22 97.7173C182.971 97.9146 182.71 97.2489 182.22 96.7173H183.22V97.7173V96.7173C182.768 96.2395 182.35 95.6404 182.22 95.7173C182.09 95.7942 182.136 95.9249 182.22 95.7173C182.303 95.5097 181.73 95.2243 181.22 94.7173C180.711 94.2108 180.38 92.9526 180.22 92.7173C180.06 92.482 178.371 91.3418 177.22 89.7173C169.895 79.3793 166.633 66.0433 166.22 48.7173L165.22 40.7173L163.22 39.7173C161.741 38.8505 159.494 37.9387 159.22 37.7173C158.945 37.4958 159.373 36.7173 159.22 36.7173C159.066 36.7173 158.22 36.8501 158.22 36.7173C158.22 36.5845 158.574 36.8019 158.22 36.7173C157.866 36.6327 157.528 35.9833 157.22 35.7173C156.912 35.4507 155.804 35.0115 155.22 34.7173C154.636 34.423 154.22 33.8321 154.22 33.7173C154.22 33.6025 153.44 33.7173 153.22 33.7173C152.999 33.7173 153.272 33.848 153.22 33.7173C153.168 33.5866 152.764 33.0028 152.22 32.7173C151.675 32.4318 150.542 31.5283 149.22 30.7173C147.898 29.9063 146.339 29.6804 146.22 29.7173C146.102 29.7547 146.22 28.8665 146.22 28.7173C146.22 28.5686 145.375 28.7173 145.22 28.7173C145.064 28.7173 144.999 28.252 144.22 27.7173C143.442 27.1826 142.22 26.6004 142.22 26.7173C142.22 26.8342 142.449 27.0059 142.22 26.7173C141.991 26.4282 141.225 26.5999 141.22 26.7173C141.215 26.8347 141.555 26.0156 141.22 25.7173C140.885 25.4195 140.352 25.6394 140.22 25.7173C140.088 25.7957 140.22 25.8752 140.22 25.7173C140.22 25.5599 139.453 25.7173 139.22 25.7173C138.986 25.7173 139.22 24.8747 139.22 24.7173C139.22 24.5594 139.377 24.625 139.22 24.7173C139.063 24.8101 138.313 24.949 138.22 24.7173C138.127 24.4856 138.359 24.6348 138.22 24.7173C138.08 24.7993 137.22 23.8747 137.22 23.7173C137.22 23.5594 137.453 23.7173 137.22 23.7173C136.987 23.7173 137.22 23.866 137.22 23.7173C137.22 23.5686 136.415 23.6804 136.22 23.7173C136.025 23.7547 136.183 22.8977 136.22 22.7173C136.259 22.5276 136.464 22.6281 136.22 22.7173C135.988 22.8024 135.22 22.8818 135.22 22.7173C135.22 22.5522 135.453 22.7173 135.22 22.7173C134.986 22.7173 134.22 22.866 134.22 22.7173C134.22 22.5681 134.443 21.7173 134.22 21.7173C133.997 21.7173 133.425 21.9116 133.22 21.7173C133.014 21.523 132.764 21.0064 132.22 20.7173C131.675 20.4282 131.298 19.7916 131.22 19.7173C130.934 19.4441 129.701 18.8721 129.22 18.7173C128.947 18.6301 128.22 18.8485 128.22 18.7173C128.22 18.5861 128.389 18.7173 128.22 18.7173C128.05 18.7173 127.869 18.1438 127.22 17.7173C125.809 16.79 123.805 15.6496 117.22 11.7173C114.495 10.0908 111.272 8.83007 111.22 8.71729C111.168 8.604 111.441 7.71729 111.22 7.71729C110.999 7.71729 111.22 7.84955 111.22 7.71729C111.22 7.58452 110.573 7.80239 110.22 7.71729C109.866 7.63271 109.561 7.02076 109.22 6.71729C108.879 6.41382 108.382 6.71729 108.22 6.71729C108.057 6.71729 107.22 5.86646 107.22 5.71729C107.22 5.56863 107.4 5.71729 107.22 5.71729C107.04 5.71729 106.73 5.08945 106.22 4.71729C105.709 4.34564 105.319 4.71729 105.22 4.71729C105.121 4.71729 104.754 4.10688 104.22 3.71729C103.685 3.3277 103.22 2.59939 103.22 2.71729C103.22 2.83519 102.609 3.0669 102.22 2.71729C101.83 2.36769 101.225 2.57991 101.22 2.71729C101.216 2.85519 101.378 1.9777 101.22 1.71729C100.862 1.12983 99.8031 1.16008 99.22 1.71729ZM102.22 16.7173C102.89 17.1581 103.122 16.8106 103.22 16.7173C103.22 16.544 103.318 16.624 103.22 16.7173C103.22 16.8911 103.066 17.7173 103.22 17.7173C103.374 17.7173 103.902 17.4569 104.22 17.7173C104.539 17.9772 105.182 17.7916 105.22 17.7173C105.258 17.643 105.85 18.3877 106.22 18.7173C106.59 19.0469 107.104 18.7855 107.22 18.7173C107.335 18.6486 107.127 19.4856 107.22 19.7173C107.063 19.8096 107.313 19.949 107.22 19.7173C107.377 19.6245 108.22 19.5599 108.22 19.7173C107.987 19.7173 108.22 19.8752 108.22 19.7173C108.454 19.7173 109.22 20.5599 109.22 20.7173C109.08 20.7993 109.22 20.8747 109.22 20.7173C109.127 20.4856 109.359 20.6348 109.22 20.7173C109.313 20.949 110.063 20.8101 110.22 20.7173C110.22 20.5507 110.377 20.625 110.22 20.7173C110.22 20.8834 110.08 21.7993 110.22 21.7173C110.359 21.6348 111.127 21.4856 111.22 21.7173C111.079 21.7998 111.313 21.949 111.22 21.7173C111.361 21.6342 112.127 21.4856 112.22 21.7173C112.313 21.949 112.063 22.8096 112.22 22.7173C112.22 22.5697 112.377 22.6245 112.22 22.7173C112.22 22.8649 112.87 22.6127 113.22 22.7173C113.57 22.8214 114.142 23.6255 114.22 23.7173C114.598 24.1617 115.932 24.8875 116.22 24.7173C116.32 24.563 116.405 24.6081 116.22 24.7173C116.062 24.9628 118.751 26.7173 119.22 26.7173C119.326 26.7173 119.732 26.3826 120.22 26.7173C120.708 27.052 120.951 27.5681 121.22 27.7173C124.531 29.5494 136.317 36.5594 136.22 36.7173C136.083 36.7578 136.149 36.8326 136.22 36.7173C136.549 36.6189 138.22 38.4497 138.22 38.7173C138.22 38.8326 138.987 38.7173 139.22 38.7173C139.22 38.5861 139.454 38.7173 139.22 38.7173C139.22 38.849 139.947 38.6266 140.22 38.7173C140.954 38.9603 142.594 41.1729 143.22 41.7173C143.519 41.9782 144.15 41.7844 144.22 41.7173C144.29 41.6501 144.541 42.2042 145.22 42.7173C145.899 43.2304 147.033 43.7173 147.22 43.7173C147.408 43.7173 147.937 43.4189 148.22 43.7173C148.503 44.0161 148.154 44.7803 148.22 44.7173C148.286 44.6542 148.916 44.4272 149.22 44.7173C149.524 45.0079 150.07 44.806 150.22 44.7173C150.37 44.6286 150.22 45.5599 150.22 45.7173C150.22 45.8752 150.987 45.7173 151.22 45.7173C151.22 45.5599 151.453 45.7173 151.22 45.7173C151.074 45.8034 151.22 45.8747 151.22 45.7173C151.366 45.6312 152.06 46.4538 152.22 46.7173C152.213 46.866 152.38 46.9808 152.22 46.7173C152.072 46.4943 152.227 46.5686 152.22 46.7173C152.367 46.9403 153.02 46.7173 153.22 46.7173C153.495 46.7173 154.076 48.3535 154.22 51.7173C154.624 61.2053 156.394 71.7615 159.22 79.7173C159.76 81.2382 160.298 82.5235 160.22 82.7173C159.921 83.1679 160.02 83.2156 160.22 82.7173C160.562 82.2021 160.566 83.0991 160.22 83.7173C159.921 84.2504 160.85 84.9357 161.22 84.7173C161.22 84.3226 161.34 84.6466 161.22 84.7173C161.22 85.1125 160.951 86.5297 161.22 86.7173C161.488 86.9054 162.322 86.5584 162.22 86.7173C162.046 86.7173 162.118 86.8762 162.22 86.7173C162.394 86.7173 162.317 87.5686 162.22 87.7173C162.076 87.7173 162.124 87.8665 162.22 87.7173C162.364 87.7173 162.869 88.7874 163.22 89.7173C163.571 90.6472 164.05 91.5158 164.22 91.7173C164.575 92.1387 164.703 92.7428 165.22 93.7173C165.417 94.0889 165.93 94.4651 166.22 94.7173C166.51 94.97 167.313 95.5732 167.22 95.7173C167.102 95.6676 167.127 95.8608 167.22 95.7173C167.338 95.7675 168.055 97.2297 169.22 98.7173C173.623 104.337 180.602 109.988 186.22 112.717C186.754 112.977 186.408 113.607 186.22 113.717C186.047 113.819 186.132 113.499 186.22 113.717C186.307 113.936 186.387 114.717 186.22 114.717C186.053 114.717 186.13 114.494 186.22 114.717C186.31 114.941 186.409 114.717 186.22 114.717C186.031 114.717 185.13 115.494 185.22 115.717C185.31 115.94 185.387 115.717 185.22 115.717C185.053 115.717 185.13 116.494 185.22 116.717C185.31 116.94 185.387 116.717 185.22 116.717C185.053 116.717 185.13 116.494 185.22 116.717C185.31 116.94 185.388 117.717 185.22 117.717C185.053 117.717 185.127 117.486 185.22 117.717C185.33 117.992 184.434 117.844 184.22 117.717C184.002 117.589 184.102 118.424 184.22 118.717C184.318 118.96 184.372 118.628 184.22 118.717C184.069 118.806 184.13 119.579 184.22 119.717C184.31 119.856 184.381 119.717 184.22 119.717C184.058 119.717 184.166 120.271 184.22 120.717C184.275 121.164 184.32 121.717 184.22 121.717C184.119 121.717 183.671 121.713 183.22 122.717C179.592 130.802 171.359 143.317 167.22 147.717C166.975 147.978 167.22 148.601 167.22 148.717C167.22 148.833 166.492 149.471 166.22 149.717C165.947 149.964 165.531 150.311 165.22 150.717C164.908 151.123 164.609 151.333 164.22 151.717C163.831 152.101 163.441 153.308 163.22 153.717C162.999 154.126 162.398 154.717 162.22 154.717C162.042 154.717 161.678 154.24 161.22 154.717C160.763 155.196 160.908 155.925 161.22 155.717C162.904 154.594 152.701 163.925 149.22 166.717C146.963 168.528 144.298 170.642 144.22 170.717C143.788 171.13 142.479 171.717 142.22 171.717C142.053 171.717 142.309 171.495 142.22 171.717C142.13 171.94 141.359 172.799 141.22 172.717C141.08 172.635 141.22 172.469 141.22 172.717C141.22 173.007 140.492 172.817 140.22 172.717C139.958 172.621 140.22 172.465 140.22 172.717C140.22 172.942 140.437 173.761 140.22 173.717C140.003 173.673 138.619 173.308 138.22 173.717C137.822 174.126 137.383 174.717 137.22 174.717C137.057 174.717 137.22 174.568 137.22 174.717C137.22 174.866 137.454 175.717 137.22 175.717C136.987 175.717 136.22 175.569 136.22 175.717C136.22 175.866 136.454 175.717 136.22 175.717C135.987 175.717 135.22 176.544 135.22 176.717C135.22 176.891 135.313 176.805 135.22 176.717C135.128 176.629 135.101 176.179 134.22 176.717C128.892 179.976 114.88 187.45 113.22 187.717C112.944 187.762 113.298 187.625 113.22 187.717C112.688 188.348 102.982 191.891 102.22 191.717C99.7592 191.155 89.5734 187.281 84.22 184.717C78.9685 182.203 72.1341 178.006 70.22 176.717C69.7919 176.429 70.2221 176.595 70.22 176.717C70.2173 176.839 69.3342 176.874 69.22 176.717C68.845 176.207 67.405 175.541 67.22 175.717C67.1213 175.812 67.22 175.891 67.22 175.717C67.22 175.544 67.4367 174.717 67.22 174.717C67.0032 174.717 66.3138 174.95 66.22 174.717C66.1266 174.485 66.3605 174.634 66.22 174.717C66.0794 174.8 65.3133 173.949 65.22 173.717C65.1272 173.486 65.3605 173.634 65.22 173.717C65.0794 173.8 64.309 173.94 64.22 173.717C64.1309 173.495 64.4587 172.717 64.22 172.717C63.9818 172.717 63.22 172.866 63.22 172.717C63.22 172.569 63.4726 172.717 63.22 172.717C62.823 172.717 62.8841 172.308 63.22 172.717C63.5692 173.143 63.6502 174.039 63.22 173.717C62.9566 173.52 62.1347 172.93 62.22 172.717C62.3053 172.505 62.4034 171.717 62.22 171.717C62.0365 171.717 61.4233 171.903 61.22 171.717C61.0166 171.532 60.5649 170.941 60.22 170.717C59.8745 170.494 59.5027 170.94 59.22 170.717C58.9378 170.494 58.5665 169.94 58.22 169.717C57.8729 169.494 57.4716 168.947 57.22 168.717C56.9684 168.487 56.0762 167.374 55.22 166.717C50.3392 162.975 41.4576 154.564 40.22 152.717C39.8423 152.154 39.353 152.638 39.22 152.717C39.0869 152.796 38.478 152.237 38.22 151.717C37.9625 151.198 37.4308 150.717 37.22 150.717C37.0091 150.717 37.383 150.163 37.22 149.717C37.0569 149.271 36.4426 148.717 36.22 148.717C35.9973 148.717 35.4136 148.164 35.22 147.717C35.0268 147.271 35.4179 147.717 35.22 147.717C35.0215 147.717 34.2972 146.91 34.22 146.717C34.1427 146.525 32.6926 144.645 31.22 142.717C28.7721 139.514 24.7055 133.7 24.22 132.717C24.11 132.494 23.522 132.164 23.22 131.717C22.2677 130.309 20.4726 127.161 19.22 124.717C18.5553 123.42 18.3509 122.64 18.22 122.717C18.0885 122.794 18.1175 121.973 18.22 121.717C18.3412 121.416 18.4222 121.598 18.22 121.717C18.0483 121.818 17.3326 121.892 17.22 121.717C17.0161 121.597 17.0923 121.519 17.22 121.717C17.7226 122.014 18.0504 121.449 17.22 119.717C16.8004 118.844 16.1996 117.978 16.22 117.717C16.2398 117.457 16.375 116.717 16.22 116.717C16.0644 116.717 16.1234 116.866 16.22 116.717C16.316 116.569 16.3519 116.717 16.22 116.717C16.0885 116.717 16.2452 116.039 16.22 115.717C16.1948 115.396 15.3965 115.821 15.22 115.717C15.0429 115.613 15.1948 114.815 15.22 114.717C15.3401 114.251 14.5134 112.725 14.22 112.717C13.9088 112.886 14.0381 112.713 14.22 112.717C14.5317 112.549 15.1422 112.805 15.22 112.717C15.2978 112.629 16.9909 111.434 18.22 110.717C24.0449 107.322 31.6814 100.371 34.22 95.7173C34.4383 95.3175 35.0639 94.625 35.22 94.7173C35.3197 94.8716 35.3766 94.8096 35.22 94.7173C35.1202 94.563 34.9431 94.0695 35.22 93.7173C35.4962 93.3651 36.0263 93.0895 36.22 92.7173C36.4136 92.3456 36.8498 91.2981 37.22 90.7173C37.5896 90.136 37.2924 88.8977 37.22 88.7173C37.147 88.5363 37.963 88.9628 38.22 88.7173C38.4764 88.4717 38.1894 87.9003 38.22 87.7173C38.2511 87.5343 38.9576 87.0941 39.22 86.7173C39.4823 86.34 39.1695 86.0326 39.22 85.7173C39.2704 85.4025 40.0102 84.9582 40.22 84.7173C40.4292 84.4759 40.3106 83.8039 40.22 83.7173C40.1288 83.6301 40.6889 82.1516 41.22 80.7173C44.5021 71.8495 46.7945 61.9497 47.22 51.7173C47.3557 48.4586 46.9458 46.7173 47.22 46.7173C47.4206 46.7173 48.0719 46.9403 48.22 46.7173C48.213 46.5686 48.3675 46.4943 48.22 46.7173C48.0596 46.9808 48.2269 46.866 48.22 46.7173C48.3809 46.4538 49.0735 45.6312 49.22 45.7173C49.22 45.8834 49.3659 45.8034 49.22 45.7173C49.074 45.6312 49.22 45.5507 49.22 45.7173C49.3664 45.8034 50.059 45.9808 50.22 45.7173C50.3804 45.4538 50.2151 44.5989 50.22 44.7173C50.2243 44.8362 50.5585 45.1525 51.22 44.7173C51.882 44.2826 53.0644 43.7501 53.22 43.7173C53.3755 43.684 54.4984 43.2238 55.22 42.7173C55.9415 42.2113 56.0955 41.7173 56.22 41.7173C56.345 41.7173 56.8938 41.01 57.22 40.7173C57.8433 40.1575 60.3788 38.9962 61.22 38.7173C61.22 38.8311 61.4925 38.6266 61.22 38.7173C61.22 38.603 61.9474 38.805 62.22 38.7173C62.7382 38.5512 62.9769 37.9839 63.22 37.7173C63.2978 37.6317 67.0441 35.2358 71.22 32.7173C75.3964 30.1993 78.8026 27.9757 79.22 27.7173C79.6368 27.4584 80.9866 26.8178 81.22 26.7173C82.1223 26.3282 83.3434 24.9075 83.22 24.7173C83.0268 24.7086 83.1486 24.6071 83.22 24.7173C83.735 24.7409 86.22 23.9634 86.22 23.7173C85.9694 23.7173 86.22 23.6014 86.22 23.7173C86.2945 23.9029 86.47 23.7173 86.22 23.7173C86.1352 23.5056 86.7613 22.7439 87.22 22.7173C87.6239 22.6937 88.1631 22.8808 88.22 22.7173C88.0762 22.6322 88.2774 22.5538 88.22 22.7173C88.3632 22.8019 89.1266 21.949 89.22 21.7173C89.0794 21.6342 89.3128 21.4856 89.22 21.7173C89.3605 21.7998 90.1266 21.949 90.22 21.7173C90.0805 21.6348 90.3128 21.4856 90.22 21.7173C90.3589 21.7993 90.22 20.8834 90.22 20.7173C90.0633 20.625 90.22 20.5507 90.22 20.7173C90.3772 20.8101 91.1272 20.949 91.22 20.7173C91.0805 20.6348 91.3133 20.4856 91.22 20.7173C91.3594 20.7993 92.22 20.8747 92.22 20.7173C92.22 20.5599 91.9866 19.7173 92.22 19.7173C92.22 19.8752 92.4533 19.7173 92.22 19.7173C92.22 19.5599 93.088 19.6394 93.22 19.7173C93.3525 19.7952 93.8911 20.0095 94.22 19.7173C94.5483 19.4246 94.0574 18.7173 94.22 18.7173C94.382 18.7173 95.22 18.8747 95.22 18.7173C95.0644 18.6255 95.22 18.5594 95.22 18.7173C95.3755 18.8091 95.22 17.8752 95.22 17.7173C95.22 17.5599 95.9866 17.7173 96.22 17.7173C96.22 17.866 96.4539 17.7173 96.22 17.7173C96.22 17.5681 96.9866 17.7173 97.22 17.7173C97.4539 17.7173 97.22 16.8752 97.22 16.7173C97.103 16.6491 97.22 16.5599 97.22 16.7173C97.3364 16.786 98.5971 17.1428 99.22 16.7173C100.644 15.7438 100.732 15.7397 102.22 16.7173ZM99.22 31.7173C97.8847 34.4444 96.2768 37.9088 96.22 39.7173V40.7173L95.22 39.7173C90.4529 35.1032 83.4419 34.1464 76.22 37.7173C72.9196 39.349 73.4261 39.5302 78.22 39.7173C82.2402 39.8747 83.1556 39.8581 85.22 40.7173C85.817 40.9654 86.103 41.745 86.22 41.7173C86.3369 41.6896 87.22 41.5686 87.22 41.7173C87.0252 41.7168 87.22 41.8665 87.22 41.7173C87.4142 41.7173 87.9083 42.2718 88.22 42.7173C88.5311 43.1628 89.0419 43.7168 89.22 43.7173C89.1282 43.4892 89.3981 43.7178 89.22 43.7173C89.3621 44.0725 89.4898 44.8982 88.22 44.7173C82.4728 43.8961 73.6298 44.5464 71.22 46.7173C71.0258 46.8921 70.8932 47.28 70.22 47.7173C68.9249 48.558 67.9973 49.3733 68.22 49.7173C68.2935 49.8311 68.5359 50.6214 68.22 50.7173C67.904 50.8132 67.1298 50.5784 67.22 50.7173C67.3101 50.8562 67.4624 51.6281 67.22 51.7173C66.9775 51.806 67.1406 51.5943 67.22 51.7173C67.4056 52.0038 65.5472 53.7173 65.22 53.7173C65.0837 53.7173 65.117 53.5584 65.22 53.7173C65.3224 53.8757 65.5011 54.521 65.22 54.7173C64.786 55.0208 64.9249 55.1734 65.22 55.7173C65.3664 56.5016 65.5547 56.3355 65.22 55.7173C64.9619 55.3103 65.0944 55.0432 65.22 55.7173C65.6443 56.3857 65.7452 57.1341 65.22 56.7173C64.9126 56.4738 64.3637 56.0314 64.22 56.7173C63.9528 57.9937 64.1063 58.5499 66.22 56.7173C69.707 53.6939 74.0296 50.7666 77.22 49.7173C79.0981 49.1001 81.0445 49.2139 81.22 49.7173C81.2951 49.9321 81.4109 49.8301 81.22 49.7173C81.044 49.6132 81.22 49.5512 81.22 49.7173C81.22 49.8839 81.3755 50.8091 81.22 50.7173C81.0644 50.6255 80.22 50.5507 80.22 50.7173C80.22 50.8834 80.3621 50.8014 80.22 50.7173C80.0773 50.6332 80.2747 50.5594 80.22 50.7173C80.1647 50.8752 79.4533 50.6845 79.22 50.7173C78.5859 50.806 77.22 52.4133 77.22 52.7173C77.22 52.8624 76.3707 52.8065 76.22 52.7173C76.0692 52.6286 76.4185 52.4138 76.22 52.7173C76.022 53.0202 75.4018 53.7173 75.22 53.7173C74.7758 53.7173 71.22 57.2523 71.22 57.7173C71.22 57.9193 71.3723 57.7173 71.22 57.7173C70.9839 57.7173 69.2307 60.319 69.22 60.7173C69.2178 60.7916 69.5692 61.0591 69.22 61.7173C68.8707 62.375 68.1406 63.5194 68.22 63.7173C68.2994 63.9146 68.4088 63.7173 68.22 63.7173C68.0311 63.7173 68.132 63.4989 68.22 63.7173C68.3074 63.9357 68.3798 64.623 68.22 64.7173C68.0606 64.8116 68.1309 64.4958 68.22 64.7173C68.309 64.9387 68.3283 65.5502 68.22 65.7173C67.9512 66.1325 67.9576 72.562 68.22 72.7173C68.3015 72.4195 68.3358 72.7855 68.22 72.7173C68.1384 73.0156 68.0472 73.5184 68.22 73.7173C68.3927 73.9162 68.3149 74.6266 68.22 74.7173C67.9925 74.4994 68.125 74.808 68.22 74.7173C68.5832 75.0638 68.9195 75.2762 69.22 73.7173C70.9152 64.9274 76.1037 58.1839 82.22 56.7173H83.22H82.22C76.4283 62.4673 73.3418 73.8336 75.22 82.7173C75.5531 84.2951 76.2178 85.7323 76.22 84.7173C76.2291 80.9239 79.1808 70.7173 80.22 70.7173C80.2387 70.8285 80.3546 70.7173 80.22 70.7173C80.1438 70.257 79.8863 70.0546 80.22 69.7173C80.4147 69.5204 80.9861 69.1556 81.22 68.7173C81.8632 67.5096 85.4796 63.8735 85.22 64.7173C82.8241 72.4988 82.8617 80.7739 86.22 87.7173C87.4458 90.2522 89.6727 93.189 89.22 91.7173C88.1502 88.2397 87.8208 82.7214 88.22 78.7173C88.353 77.3783 88.198 76.1125 88.22 75.7173C88.2425 75.3226 89.0783 74.6342 89.22 74.7173C89.3079 75.0382 89.3611 74.8008 89.22 74.7173C89.132 74.3959 89.1143 73.6553 89.22 73.7173C89.3256 73.7798 88.9351 73.375 89.22 72.7173C89.5043 72.0601 90.0799 71.7173 90.22 71.7173C90.3605 71.7173 90.22 70.8685 90.22 70.7173C90.22 70.0355 93.2436 68.765 94.22 68.7173C95.1309 68.6727 94.7822 68.6741 95.22 69.7173C96.3852 72.4911 96.4227 124.976 95.22 126.717C95.0252 127 94.5665 127.144 94.22 126.717C93.9786 126.42 94.36 125.682 94.22 125.717C94.0799 125.753 93.3884 126.018 93.22 125.717C93.052 125.417 92.3691 124.63 92.22 124.717C92.0714 124.805 92.3133 124.95 92.22 124.717C92.1266 124.485 91.4372 124.717 91.22 124.717C91.0032 124.717 91.22 123.883 91.22 123.717C91.22 123.551 91.5107 123.645 91.22 123.717C90.8568 123.808 90.1974 124.019 90.22 123.717C90.2382 123.476 90.4142 122.68 90.22 122.717C90.0252 122.754 89.22 122.883 89.22 122.717C89.22 122.551 89.5199 122.642 89.22 122.717C88.8149 122.818 88.095 123.029 88.22 122.717C88.3273 122.45 88.4222 121.598 88.22 121.717C88.0451 121.82 88.3895 122.02 88.22 121.717C88.051 121.415 87.4539 121.717 87.22 121.717C86.7822 121.717 85.8787 120.319 85.22 119.717C85.0145 119.529 84.4292 119.717 84.22 119.717C84.0107 119.717 83.272 119.836 83.22 119.717C83.1116 119.469 75.7532 115.717 73.22 114.717C61.8415 110.227 50.3136 108.998 41.22 110.717C36.2185 111.663 29.8384 113.535 26.22 115.717C24.5816 116.706 25.999 116.488 28.22 115.717C31.4919 114.582 42.8729 113.278 44.22 113.717C44.4136 113.78 45.8187 113.641 47.22 113.717C51.8009 113.966 58.5039 115.452 62.22 116.717C62.8916 116.946 63.1132 116.742 63.22 116.717C63.3267 116.693 63.6197 117.468 64.22 117.717C64.8203 117.967 66.0939 117.792 66.22 117.717C66.1652 117.561 66.3455 117.643 66.22 117.717C66.2747 117.873 66.8761 117.692 67.22 117.717C67.5638 117.742 67.1438 118.528 67.22 118.717C67.2956 118.906 68.6009 118.622 69.22 118.717C69.839 118.812 70.1336 119.503 70.22 119.717C70.0692 119.806 70.3063 119.933 70.22 119.717C71.096 119.2 84.1873 127.271 88.22 130.717C88.8562 131.261 90.6148 132.219 91.22 132.717C91.8246 133.215 92.7168 133.226 93.22 133.717L94.22 134.717L93.22 135.717C92.7447 136.23 91.3857 136.717 91.22 136.717C91.0537 136.717 90.655 137.197 90.22 137.717C89.7854 138.238 89.4458 138.717 89.22 138.717C88.9946 138.717 88.4163 139.414 88.22 139.717C87.7672 140.419 80.5021 146.804 80.22 146.717C80.1041 146.682 79.6529 147.198 79.22 147.717C78.7865 148.236 78.3745 148.717 78.22 148.717C78.066 148.717 77.7661 149.192 77.22 149.717C76.2522 150.648 74.2296 151.079 72.22 152.717C71.6749 153.161 70.7318 154.274 70.22 154.717L69.22 155.717L68.22 154.717C65.8751 152.543 62.5525 152.616 60.22 154.717C56.2286 158.314 58.0565 164.098 63.22 164.717C64.515 164.873 66.97 166.094 67.22 166.717C67.3074 166.935 66.9812 167.717 67.22 167.717C67.4582 167.717 68.22 167.51 68.22 167.717C68.22 167.924 67.8305 168.624 68.22 168.717C68.6094 168.811 69.22 168.571 69.22 168.717C69.0569 168.717 69.22 168.863 69.22 168.717C69.3825 168.717 69.8305 169.346 70.22 169.717C70.6089 170.089 70.9936 170.717 71.22 170.717C71.4464 170.717 72.22 170.586 72.22 170.717C71.9474 170.628 72.22 170.849 72.22 170.717C72.4925 170.806 73.286 172.155 74.22 172.717C77.3899 174.626 82.8353 176.115 83.22 175.717C83.3889 175.628 83.4077 175.524 83.22 175.717C82.9281 175.873 82.3487 174.752 81.22 173.717C80.9356 173.457 80.3594 173.717 80.22 173.717C80.081 173.717 79.3133 173.95 79.22 173.717C79.1261 173.485 79.3777 172.624 79.22 172.717C79.0622 172.811 78.3133 172.95 78.22 172.717C78.1266 172.485 78.4072 172.717 78.22 172.717C78.0322 172.717 77.5681 172.168 77.22 171.717C76.8713 171.267 76.3401 170.647 76.22 170.717C76.1003 170.788 74.8149 170.246 73.22 168.717L70.22 165.717L73.22 163.717C79.0905 160.196 88.22 155.968 88.22 156.717C88.22 156.851 88.3637 156.633 88.22 156.717C87.2259 157.305 86.7602 162.353 87.22 164.717C87.5579 166.453 88.6357 170.368 89.22 170.717C89.4195 170.836 90.22 170.517 90.22 170.717C90.22 171.025 90.4974 172.402 92.22 173.717C92.4077 173.861 93.0708 173.717 93.22 173.717C93.1679 173.606 93.3691 173.717 93.22 173.717C93.3686 174.037 95.7184 175.374 97.22 175.717C100.139 176.384 105.844 175.298 108.22 173.717C109.485 172.876 110.41 171.038 110.22 170.717C110.097 170.611 110.128 170.563 110.22 170.717C110.513 170.971 112.416 171.021 112.22 170.717C112.137 170.589 112.086 169.768 112.22 169.717C114.171 168.986 114.819 161.054 113.22 157.717C112.843 156.931 112.074 156.717 112.22 156.717C113.195 156.717 122.312 160.421 126.22 162.717C127.543 163.495 129.064 164.677 129.22 164.717C130.357 165.014 130.805 164.992 129.22 166.717C127.355 168.747 124.508 170.993 124.22 170.717C124.109 170.612 124.168 170.501 124.22 170.717C124.271 170.934 124.389 170.711 124.22 170.717C124.05 170.724 123.787 171.16 123.22 171.717C122.653 172.275 121.456 172.717 121.22 172.717C120.984 172.717 121.22 173.589 121.22 173.717C121.22 174.022 118.702 174.717 118.22 174.717C118.017 174.717 118.22 175.44 118.22 175.717C118.22 176.181 118.36 176.061 119.22 175.717C121.998 174.608 126.788 171.753 128.22 170.717C128.702 170.368 129.023 170.717 129.22 170.717C129.416 170.717 129.303 169.923 129.22 169.717C129.114 169.454 129.838 169.621 130.22 169.717C130.22 169.911 130.539 169.797 130.22 169.717C130.22 169.534 130.985 169.631 131.22 169.717C131.22 169.955 131.477 169.812 131.22 169.717C131.22 169.501 131.846 168.807 132.22 168.717C132.594 168.628 132.139 168.012 132.22 167.717C132.3 167.423 133.013 167.679 133.22 167.717C133.427 167.755 134.519 167.342 135.22 166.717C135.978 166.042 136.818 165.717 137.22 165.717C141.225 165.717 143.4 161.595 142.22 157.717C140.855 153.231 135.515 151.347 132.22 154.717L131.22 155.717L130.22 154.717C129.541 154.121 127.799 153.198 127.22 152.717C124.703 150.632 124.205 149.666 123.22 148.717C122.642 148.162 122.368 147.717 122.22 147.717C122.072 147.717 121.556 147.126 121.22 146.717C120.883 146.308 120.379 145.717 120.22 145.717C119.953 145.717 113.697 140.977 111.22 138.717C109.883 137.497 108.126 136.367 107.22 135.717C106.393 135.123 106.918 134.479 108.22 133.717C108.611 133.489 109.733 133.175 110.22 132.717C113.971 129.188 126.547 120.074 127.22 120.717C127.22 120.899 127.309 120.802 127.22 120.717C127.064 120.626 127.22 120.535 127.22 120.717C127.376 120.809 128.22 120.884 128.22 120.717C128.089 120.64 128.22 120.551 128.22 120.717C128.489 120.876 130.612 119.299 131.22 118.717C131.44 118.507 131.935 118.717 132.22 118.717C132.506 118.717 133.155 118.185 134.22 117.717C135.285 117.249 135.987 116.753 136.22 116.717C136.453 116.682 138.351 116.241 140.22 115.717C151.23 112.632 162.846 112.798 172.22 115.717C176.208 116.959 175.643 115.858 171.22 113.717C167.951 112.136 162.686 110.781 161.22 110.717C160.95 110.706 161.043 110.787 161.22 110.717C161.397 110.648 162.242 110.501 163.22 110.717C166.241 111.384 166.925 110.878 164.22 109.717C162.244 108.87 161.298 108.349 161.22 106.717C161.127 104.773 163.79 104.689 164.22 106.717C164.512 108.098 165.898 107.281 166.22 105.717C166.605 103.845 165.257 103.396 161.22 103.717C158.138 103.963 157.182 103.724 157.22 105.717V107.717H156.22C154.473 107.717 153.401 108.267 153.22 108.717C153.007 109.248 154.017 109.713 155.22 109.717C156.354 109.721 161.386 110.559 161.22 110.717C161.16 110.775 159.764 109.94 158.22 109.717C148.578 108.329 136.428 110.89 125.22 115.717C123.623 116.405 122.302 116.717 122.22 116.717C122.138 116.717 120.2 117.626 118.22 118.717C116.24 119.809 114.764 120.432 114.22 120.717C113.675 121.002 113.272 121.605 113.22 121.717C113.167 121.83 112.364 121.802 112.22 121.717C112.077 121.632 112.313 121.486 112.22 121.717C112.127 121.949 111.361 122.8 111.22 122.717C111.079 122.634 111.313 122.486 111.22 122.717C111.127 122.95 111.361 122.8 111.22 122.717C111.079 122.634 110.313 123.486 110.22 123.717C110.127 123.949 110.361 123.8 110.22 123.717C110.079 123.634 109.313 123.485 109.22 123.717C109.127 123.95 109.42 124.717 109.22 124.717C109.019 124.717 108.314 124.485 108.22 124.717C108.127 124.95 108.378 124.81 108.22 124.717C108.062 124.624 107.313 124.485 107.22 124.717C107.127 124.95 107.402 125.717 107.22 125.717C107.038 125.717 106.499 125.406 106.22 125.717C105.517 126.502 105.506 126.731 105.22 123.717C104.417 115.248 104.462 71.7949 105.22 69.7173C105.936 67.756 107.611 67.652 109.22 69.7173C109.425 69.9808 110.077 70.8019 110.22 70.7173C110.311 70.4902 110.363 70.6327 110.22 70.7173C110.129 70.9444 109.982 71.4902 110.22 71.7173C110.735 72.2094 112.128 74.7295 112.22 75.7173C112.256 76.1023 112.106 76.5404 112.22 76.7173C112.335 76.8941 112.319 77.2887 112.22 77.7173C112.118 78.1622 112.049 78.6163 112.22 78.7173C112.55 78.9121 112.539 83.4123 112.22 83.7173C112.113 83.8198 112.267 84.7167 112.22 85.7173C112.174 86.7179 111.508 88.4896 111.22 89.7173C110.532 92.6484 111.06 93.0944 113.22 89.7173C117.096 83.6576 118.823 71.9391 116.22 64.7173C116.015 64.1478 115.176 64.6686 115.22 64.7173C115.264 64.7655 115.582 65.0068 116.22 65.7173C116.858 66.4278 118.151 66.7583 118.22 66.7173C118.404 66.6066 119.22 68.3733 119.22 68.7173C119.08 68.7173 119.22 68.8798 119.22 68.7173C120.463 68.7173 123.656 77.2953 124.22 82.7173C124.649 86.8295 126.218 82.6806 126.22 76.7173C126.222 69.4058 122.052 59.0102 118.22 56.7173C117.418 56.238 119.07 56.1611 120.22 56.7173C124.051 58.5719 130.22 65.1399 130.22 67.7173C130.22 67.9613 130.082 68.5763 130.22 68.7173C130.53 69.0331 130.769 71.4782 131.22 73.7173C131.524 75.2254 132.472 76.1793 132.22 74.7173C132.179 74.4748 132.082 73.928 132.22 73.7173C133.016 72.5029 133.207 63.43 132.22 61.7173C132.033 61.3928 131.254 61.9105 131.22 61.7173C131.186 61.5235 131.499 60.1187 131.22 59.7173C130.941 59.3159 130.255 58.9295 130.22 58.7173C130.185 58.5051 130.464 58.8475 130.22 58.7173C129.976 58.5876 129.22 57.9064 129.22 57.7173C129.22 57.2882 125.647 53.7173 125.22 53.7173C125.048 53.7173 124.389 53.0187 124.22 52.7173C124.051 52.4154 124.351 52.6394 124.22 52.7173C124.089 52.7952 123.313 51.949 123.22 51.7173C123.127 51.4851 123.361 51.6342 123.22 51.7173C123.079 51.8003 122.313 51.949 122.22 51.7173C122.127 51.4856 122.377 51.6245 122.22 51.7173C122.063 51.8096 122.22 51.8378 122.22 51.7173C122.219 51.3723 118.535 49.5312 118.22 49.7173C118.064 49.8091 118.22 49.8747 118.22 49.7173C118.22 49.3477 120.103 49.3431 122.22 49.7173C125.526 50.3012 129.584 52.8122 134.22 56.7173C135.422 57.7302 136.379 58.1976 136.22 57.7173C136.033 57.1524 135.267 55.4724 135.22 54.7173C135.209 54.542 135.433 53.9213 135.22 53.7173C134.606 53.1303 134.034 52.0054 134.22 51.7173C134.313 51.5727 133.479 51.7173 133.22 51.7173C132.921 51.7173 133.119 50.97 133.22 50.7173C133.308 50.4984 133.422 50.8326 133.22 50.7173C133.018 50.6014 132.362 49.9608 132.22 49.7173C131.991 49.3246 131.401 48.3505 129.22 46.7173C126.129 44.4023 118.617 42.9837 113.22 43.7173C111.989 43.8844 111.275 44.7691 111.22 44.7173C111.071 44.5743 112.92 41.7173 113.22 41.7173C113.364 41.7173 114.22 41.8388 114.22 41.7173C114.22 40.9432 120.264 39.7173 124.22 39.7173C127.821 39.7173 127.257 39.8158 125.22 38.7173C117.527 34.5687 111.238 34.9428 106.22 39.7173L104.22 40.7173V39.7173C104.075 36.9671 101.161 29.7316 100.22 29.7173C99.9394 29.7127 99.8669 30.3947 99.22 31.7173ZM81.22 48.7173C80.9474 48.7855 80.4925 48.7855 80.22 48.7173C79.9474 48.6496 80.6749 48.7173 81.22 48.7173C81.765 48.7173 81.492 48.6496 81.22 48.7173ZM120.22 48.7173C119.791 48.7793 119.648 48.7793 119.22 48.7173C118.792 48.6553 119.364 48.7173 120.22 48.7173C121.077 48.7173 120.648 48.6553 120.22 48.7173ZM87.22 81.7173C87.1518 82.0541 87.2232 82.3124 87.22 81.7173C87.2173 81.1221 87.1491 80.4584 87.22 80.7173C87.2908 80.9757 87.2876 81.381 87.22 81.7173ZM35.22 103.717C33.3193 104.394 33.0328 106.691 34.22 107.717C34.9952 108.388 36.0993 107.564 36.22 106.717C36.36 105.739 37.2672 105.717 38.22 105.717C39.0386 105.717 38.4109 105.584 38.22 106.717C37.9351 108.409 38.0928 108.941 36.22 109.717C34.6406 110.372 33.5655 110.331 34.22 110.717C34.3755 110.809 36.0639 111.166 38.22 110.717C40.376 110.268 43.2001 109.817 44.22 109.717C48.1051 109.337 47.3357 107.729 43.22 107.717C42.1283 107.714 42.0376 107.647 42.22 106.717C42.4839 105.375 42.0558 104.021 41.22 103.717C40.3911 103.416 35.8503 103.493 35.22 103.717ZM165.22 110.717C165.598 110.713 165.598 110.921 165.22 110.717C164.467 110.725 163.22 109.982 163.22 109.717C163.22 109.456 164.446 110.299 165.22 110.717ZM36.22 110.717C36.1239 110.866 35.5612 110.728 35.22 110.717C34.6218 110.699 34.6738 110.942 35.22 110.717C35.9989 110.397 36.427 110.397 36.22 110.717ZM104.22 154.717C109.708 157.209 111.287 164.625 107.22 168.717C105.987 169.958 104.578 170.928 104.22 170.717C104.002 170.589 104.085 170.509 104.22 170.717C104.369 170.948 103.714 170.836 103.22 170.717C102.812 170.619 102.453 170.506 102.22 170.717C101.781 171.115 98.22 171.101 98.22 170.717C98.22 170.59 98.4614 170.629 98.22 170.717C97.9351 170.821 97.0896 170.918 97.22 170.717C97.3562 170.507 97.6352 170.613 97.22 170.717C96.8847 170.801 96.22 170.861 96.22 170.717C96.22 170.574 96.3562 170.637 96.22 170.717C95.8686 170.925 94.0847 169.8 93.22 168.717C87.5103 161.564 95.7652 150.879 104.22 154.717ZM98.22 157.717C92.9352 159.543 93.8344 167.002 99.22 167.717C99.3761 167.738 98.9469 168.598 99.22 168.717C99.4925 168.837 100.792 168.829 101.22 168.717C101.648 168.605 101.95 167.745 102.22 167.717C102.49 167.689 102.945 167.943 103.22 167.717C103.495 167.492 103.971 166.801 104.22 166.717C105.057 166.435 106.22 164.299 106.22 162.717C106.22 158.907 101.952 156.428 98.22 157.717ZM102.22 159.717C103.569 160.479 104.277 162.717 103.22 162.717C102.671 162.717 101.721 161.538 101.22 160.717C100.374 159.334 100.627 158.818 102.22 159.717ZM110.22 163.717C110.149 163.977 110.22 163.238 110.22 162.717C110.149 162.457 110.22 162.196 110.22 162.717C110.291 162.977 110.291 163.457 110.22 163.717ZM113.22 163.717C113.152 164.054 113.223 163.312 113.22 162.717C113.149 162.459 113.217 162.122 113.22 162.717C113.291 162.976 113.288 163.381 113.22 163.717Z" fill="#1C3F64"/>
<mask id="mask0_3170_40873" style="mask-type:alpha" maskUnits="userSpaceOnUse" x="0" y="0" width="201" height="204">
<path fill-rule="evenodd" clip-rule="evenodd" d="M99.1806 1.28797C98.936 1.52172 99.1806 2.39921 99.1806 2.28797C99.1806 2.17725 98.5695 1.93837 98.1806 2.28797C97.7911 2.63758 98.1806 2.40228 98.1806 2.28797C98.1806 2.17366 96.959 2.75331 96.1806 3.28797C95.4016 3.82263 95.275 4.28797 95.1806 4.28797C95.0867 4.28797 94.6436 4.91581 94.1806 5.28797C93.7182 5.65962 92.3678 6.28797 92.1806 6.28797C91.9934 6.28797 92.4005 5.99578 92.1806 6.28797C91.9601 6.58016 90.6178 7.19621 90.1806 7.28797C89.7439 7.37973 90.1806 7.1511 90.1806 7.28797C90.1806 7.42484 89.4011 7.28797 89.1806 7.28797C88.9601 7.28797 89.2321 8.17468 89.1806 8.28797C89.1286 8.40075 86.9053 9.66143 84.1806 11.288C77.5949 15.2203 75.5915 16.3606 74.1806 17.288C73.5325 17.7145 72.3496 18.288 72.1806 18.288C72.0111 18.288 72.1806 18.1567 72.1806 18.288C72.1806 18.4192 71.4531 18.2008 71.1806 18.288C70.6988 18.4428 70.4665 19.0147 70.1806 19.288C69.9757 19.4833 68.6763 20.0706 68.1806 20.288C67.6473 20.5217 67.1806 22.024 67.1806 22.288C67.1806 22.3977 66.3228 22.1639 66.1806 22.288C66.0288 22.4207 66.0497 22.5043 66.1806 22.288C66.496 21.7677 65.9172 21.6328 65.1806 22.288C64.8727 22.5622 64.3126 23.3659 64.1806 23.288C64.0481 23.2101 64.1806 23.1219 64.1806 23.288C64.1806 23.4546 63.3378 23.3802 63.1806 23.288C63.0239 23.1952 63.2734 23.0563 63.1806 23.288C63.0872 23.5197 62.3211 24.371 62.1806 24.288C62.04 24.2049 62.2739 24.0563 62.1806 24.288C62.0878 24.5197 62.3195 24.37 62.1806 24.288C62.0411 24.2054 61.1806 24.1301 61.1806 24.288C61.1806 24.4453 61.414 25.288 61.1806 25.288C60.9467 25.288 60.1806 25.1306 60.1806 25.288C60.1806 25.4459 60.3131 25.3664 60.1806 25.288C60.0486 25.2101 59.4993 25.0045 59.1806 25.288C58.8625 25.5714 59.2713 26.3746 59.1806 26.288C59.0894 26.2013 58.2788 26.0445 58.1806 26.288C58.083 26.5315 58.2965 26.3561 58.1806 26.288C58.0647 26.2193 57.5089 26.9958 57.1806 27.288C56.8517 27.5807 56.3426 27.288 56.1806 27.288C56.018 27.288 56.1806 28.1306 56.1806 28.288C56.1806 28.4459 56.3362 28.3797 56.1806 28.288C56.025 28.1962 55.1806 28.1301 55.1806 28.288C55.1806 28.4453 55.414 28.288 55.1806 28.288C54.9467 28.288 55.1806 28.1393 55.1806 28.288C55.1806 28.4371 54.3753 29.288 54.1806 29.288C53.9859 29.288 52.4896 29.4698 51.1806 30.288C49.8716 31.1066 49.2444 32.288 49.1806 32.288C49.1173 32.288 48.6908 31.9158 48.1806 32.288C47.6704 32.6601 47.3603 33.288 47.1806 33.288C47.0003 33.288 46.1806 33.1624 46.1806 33.288C46.1806 33.4131 45.7605 34.004 45.1806 34.288C44.6012 34.572 44.4928 35.0214 44.1806 35.288C43.8678 35.554 42.5341 36.2034 42.1806 36.288C41.8276 36.3726 42.1806 36.1552 42.1806 36.288C42.1806 36.4207 41.414 36.288 41.1806 36.288C40.9472 36.288 41.1806 36.1301 41.1806 36.288C41.1806 36.4453 41.3228 37.372 41.1806 37.288C41.0379 37.2039 40.2332 37.1419 40.1806 37.288C40.1286 37.4341 39.6596 38.4186 38.1806 39.288L35.1806 40.288V48.288C34.7949 64.4729 30.4385 77.9399 24.1806 87.288C23.6511 88.0784 24.0749 89.288 24.1806 89.288C24.2863 89.288 23.4826 89.0696 23.1806 89.288C22.878 89.5063 23.0712 89.2834 23.1806 89.288C23.29 89.2926 22.562 89.8943 22.1806 90.288C21.7986 90.6817 22.1806 91.1224 22.1806 91.288C22.1806 91.4535 21.4977 92.0988 21.1806 92.288C20.863 92.4776 21.0953 92.1557 21.1806 92.288C21.2664 92.4207 20.6495 92.9691 20.1806 93.288C19.7112 93.6068 19.1806 94.1009 19.1806 94.288C19.1806 94.4751 18.5631 94.945 18.1806 95.288C17.7986 95.6314 18.1484 96.1285 18.1806 96.288C18.2128 96.4474 17.414 96.2813 17.1806 96.288C16.9472 96.2946 17.1806 97.1142 17.1806 97.288C17.1806 97.4612 17.3222 97.1639 17.1806 97.288C17.0325 97.4177 17.0701 97.4715 17.1806 97.288C17.628 96.5416 16.8946 96.4816 16.1806 97.288C15.752 97.7724 15.3158 98.3264 15.1806 98.288C15.0459 98.2495 14.2707 98.0634 14.1806 98.288C14.0905 98.5125 14.3603 99.288 14.1806 99.288C14.0009 99.288 13.5679 99.9445 13.1806 100.288C12.7927 100.632 12.3362 100.261 12.1806 100.288C12.025 100.316 11.414 101.097 11.1806 101.288C10.9467 101.479 10.3104 101.273 10.1806 101.288C10.0513 101.303 9.82972 101.882 9.1806 102.288C8.53147 102.694 7.43971 103.24 7.1806 103.288C6.92148 103.336 6.24495 102.846 5.1806 103.288C4.11625 103.73 1.99817 105.014 1.1806 105.288C-0.590817 105.88 -0.183102 105.304 1.1806 110.288C3.29213 118.009 7.63511 127.857 12.1806 135.288C12.7267 136.18 13.0277 136.99 13.1806 137.288C13.3335 137.585 13.8694 137.841 14.1806 138.288C14.4912 138.734 15.0867 140.028 15.1806 140.288C15.0679 140.288 15.275 140.548 15.1806 140.288C15.2933 140.288 15.8829 140.693 16.1806 141.288C16.4778 141.883 17.0036 142.351 17.1806 142.288C17.268 141.969 17.3775 142.218 17.1806 142.288C17.1023 142.575 17.0068 143.288 17.1806 143.288C17.1806 143.064 17.3544 143.288 17.1806 143.288C17.1806 143.511 18.0245 144.288 18.1806 144.288C18.1806 144.064 18.3362 144.288 18.1806 144.288C18.1806 144.511 18.025 145.288 18.1806 145.288C18.3362 145.288 19.1806 145.049 19.1806 145.288C18.9327 145.379 19.1806 145.554 19.1806 145.288C19.4639 145.184 19.2546 145.921 19.1806 146.288C19.0518 146.288 19.1227 146.577 19.1806 146.288C19.3088 146.288 20.0942 146.971 20.1806 147.288C19.8394 147.413 20.2927 147.697 20.1806 147.288C20.5583 147.15 21.4268 147.004 21.1806 147.288C20.9403 147.565 20.5615 148.641 21.1806 149.288C21.6253 149.753 22.2638 150.209 22.1806 150.288C21.9247 150.194 22.0974 150.367 22.1806 150.288C22.436 150.382 23.1806 150.082 23.1806 150.288C23.1806 150.494 22.8694 151.102 23.1806 151.288C23.4923 151.474 24.1806 152.165 24.1806 152.288C24.1806 153.349 39.525 168.674 40.1806 168.288C40.3174 168.207 39.9687 169.038 40.1806 169.288C40.4242 169.428 40.4461 169.601 40.1806 169.288C39.583 168.945 40.4843 169.663 41.1806 170.288C41.7326 170.981 41.8989 170.933 41.1806 170.288C40.9923 170.051 41.7621 169.931 42.1806 170.288C42.5996 170.644 42.2621 171.162 42.1806 171.288C42.0331 171.517 43.127 171.61 45.1806 173.288C45.7771 173.776 46.4022 174.626 47.1806 175.288C47.959 175.95 49.0749 176.285 49.1806 176.288C49.2863 176.291 48.9746 177.095 49.1806 177.288C50.7031 178.714 60.0879 184.299 65.1806 187.288C66.4263 188.019 66.9746 188.098 67.1806 188.288C67.3861 188.478 67.9714 189.288 68.1806 189.288C68.1286 189.17 68.3898 189.288 68.1806 189.288C68.2321 189.407 69.7826 189.639 71.1806 190.288C72.5786 190.937 74.5626 191.86 75.1806 192.288C75.7991 192.716 76.5127 193.128 77.1806 193.288C77.848 193.448 78.2756 194.141 78.1806 194.288C78.0862 194.435 78.8319 194.467 79.1806 194.288C79.3582 194.014 79.6876 194.029 79.1806 194.288C78.8335 194.415 79.0218 194.534 79.1806 194.288C79.4478 194.19 80.2616 194.163 80.1806 194.288C80.0154 194.544 79.8733 195.071 85.1806 197.288C87.2825 198.166 88.7133 199.081 89.1806 199.288C90.0518 199.673 93.6984 200.391 99.1806 202.288L102.181 203.288L105.181 202.288C108.998 201.036 112.383 199.424 115.181 198.288C118.083 197.109 124.286 194.731 125.181 194.288C125.583 194.089 126.053 194.213 126.181 194.288C126.181 194.455 126.309 194.364 126.181 194.288C126.024 194.196 126.181 194.122 126.181 194.288C126.181 194.454 126.336 194.38 126.181 194.288C126.181 194.121 127.025 193.196 127.181 193.288C127.181 193.411 127.336 193.38 127.181 193.288C127.181 192.882 129.793 192.059 130.181 192.288C130.314 192.494 130.424 192.432 130.181 192.288C130.016 192.306 130.07 192.116 130.181 192.288C130.774 192.221 131.483 191.724 132.181 191.288C132.57 191.044 133.378 190.71 134.181 190.288C138.55 187.991 149.51 180.164 150.181 179.288C150.274 179.165 151.519 178.717 152.181 178.288C152.842 177.859 153.181 177.416 153.181 177.288C152.975 177.288 153.181 177.159 153.181 177.288C153.386 177.288 153.839 176.623 154.181 176.288C154.522 175.953 155.629 175.734 156.181 175.288C156.733 174.841 157.699 173.767 158.181 173.288C158.662 172.81 159.088 173.247 159.181 173.288C159.273 173.328 160.403 172.115 161.181 171.288C161.958 170.461 161.647 169.916 161.181 170.288L160.181 171.288L161.181 170.288C161.527 169.911 161.83 170.314 162.181 170.288C162.783 170.245 163.887 168.695 169.181 163.288C171.903 160.508 175.181 156.539 175.181 156.288C175.181 156.206 175.636 155.854 176.181 155.288C176.725 154.722 177.18 154.392 177.181 154.288C177.181 154.184 177.791 153.689 178.181 153.288C178.57 152.887 179.181 152.473 179.181 152.288C178.947 152.374 179.181 152.102 179.181 152.288C179.415 152.202 179.181 151.5 179.181 151.288C179.181 151.076 179.937 150.377 180.181 150.288C180.268 150.422 180.424 150.199 180.181 150.288C179.938 150.377 180.094 150.154 180.181 150.288C180.423 150.199 181.278 149.439 181.181 149.288C180.937 149.378 181.083 149.137 181.181 149.288C181.424 149.199 181.181 148.495 181.181 148.288C181.181 148.08 182.024 148.288 182.181 148.288C182.336 148.288 182.181 147.495 182.181 147.288C181.938 147.377 182.181 147.08 182.181 147.288C182.424 147.199 183.278 147.438 183.181 147.288C183.083 147.138 183.007 146.288 183.181 146.288C183.277 146.437 183.355 146.288 183.181 146.288C183.016 146.288 183.085 146.139 183.181 146.288C183.345 146.288 183.181 145.511 183.181 145.288C183.181 145.064 184.024 145.288 184.181 145.288C184.181 145.501 184.336 145.288 184.181 145.288C184.181 145.075 183.968 144.491 184.181 144.288C184.394 144.084 185.072 143.616 185.181 143.288C185.29 142.96 185.036 142.288 185.181 142.288C185.326 142.288 186.181 142.501 186.181 142.288C186.181 142.075 185.984 141.484 186.181 141.288C186.377 141.091 186.987 140.66 187.181 140.288C187.374 139.916 188.317 138.776 189.181 137.288C190.044 135.8 190.788 133.106 191.181 132.288C191.573 131.469 191.817 131.032 192.181 130.288C195.939 122.594 201.071 106.664 200.181 105.288C200.005 105.016 197.605 104.288 197.181 104.288C197.049 104.288 196.002 103.641 195.181 103.288C194.359 102.936 193.598 103.382 193.181 103.288C192.763 103.194 192.386 102.479 192.181 102.288C191.55 101.701 189.19 101.05 189.181 101.288C189.176 101.412 189.342 100.551 189.181 100.288C189.02 100.024 188.31 100.211 188.181 100.288C188.051 100.364 188.273 100.52 188.181 100.288C188.087 100.056 188.321 100.205 188.181 100.288C188.041 100.371 187.277 99.5268 187.181 99.288C187.075 99.0255 186.498 99.209 186.181 99.288C185.824 99.3777 186.158 99.5817 186.181 99.288C186.199 99.0506 186.353 98.2916 186.181 98.288C186.009 98.2844 185.61 97.7755 185.181 97.288C184.616 96.6472 183.431 97.0891 183.181 97.288C182.932 97.4853 182.67 96.8196 182.181 96.288H183.181V97.288V96.288C182.728 95.8102 182.31 95.2111 182.181 95.288C182.05 95.3649 182.097 95.4956 182.181 95.288C182.264 95.0804 181.69 94.795 181.181 94.288C180.671 93.7815 180.34 92.5233 180.181 92.288C180.021 92.0527 178.332 90.9125 177.181 89.288C169.856 78.95 166.593 65.614 166.181 48.288L165.181 40.288L163.181 39.288C161.702 38.4211 159.455 37.5094 159.181 37.288C158.906 37.0665 159.334 36.288 159.181 36.288C159.027 36.288 158.181 36.4207 158.181 36.288C158.181 36.1552 158.534 36.3726 158.181 36.288C157.827 36.2034 157.489 35.554 157.181 35.288C156.873 35.0214 155.765 34.5822 155.181 34.288C154.597 33.9937 154.181 33.4028 154.181 33.288C154.181 33.1731 153.401 33.288 153.181 33.288C152.96 33.288 153.233 33.4187 153.181 33.288C153.129 33.1573 152.725 32.5735 152.181 32.288C151.636 32.0024 150.502 31.0989 149.181 30.288C147.859 29.477 146.299 29.2511 146.181 29.288C146.063 29.3254 146.181 28.4371 146.181 28.288C146.181 28.1393 145.336 28.288 145.181 28.288C145.025 28.288 144.96 27.8226 144.181 27.288C143.402 26.7533 142.181 26.1711 142.181 26.288C142.181 26.4048 142.409 26.5766 142.181 26.288C141.952 25.9989 141.186 26.1706 141.181 26.288C141.176 26.4054 141.516 25.5863 141.181 25.288C140.846 24.9901 140.313 25.2101 140.181 25.288C140.049 25.3664 140.181 25.4459 140.181 25.288C140.181 25.1306 139.414 25.288 139.181 25.288C138.947 25.288 139.181 24.4453 139.181 24.288C139.181 24.1301 139.337 24.1957 139.181 24.288C139.024 24.3808 138.273 24.5197 138.181 24.288C138.087 24.0563 138.32 24.2054 138.181 24.288C138.041 24.37 137.181 23.4453 137.181 23.288C137.181 23.1301 137.414 23.288 137.181 23.288C136.947 23.288 137.181 23.4366 137.181 23.288C137.181 23.1393 136.375 23.2511 136.181 23.288C135.986 23.3254 136.144 22.4684 136.181 22.288C136.219 22.0983 136.424 22.1988 136.181 22.288C135.949 22.3731 135.181 22.4525 135.181 22.288C135.181 22.1229 135.414 22.288 135.181 22.288C134.947 22.288 134.181 22.4366 134.181 22.288C134.181 22.1388 134.403 21.288 134.181 21.288C133.958 21.288 133.386 21.4823 133.181 21.288C132.975 21.0937 132.725 20.5771 132.181 20.288C131.636 19.9989 131.258 19.3623 131.181 19.288C130.895 19.0147 129.662 18.4428 129.181 18.288C128.908 18.2008 128.181 18.4192 128.181 18.288C128.181 18.1567 128.35 18.288 128.181 18.288C128.011 18.288 127.829 17.7145 127.181 17.288C125.77 16.3606 123.766 15.2203 117.181 11.288C114.455 9.66143 111.233 8.40075 111.181 8.28797C111.129 8.17468 111.402 7.28797 111.181 7.28797C110.96 7.28797 111.181 7.42023 111.181 7.28797C111.181 7.1552 110.534 7.37307 110.181 7.28797C109.827 7.20339 109.521 6.59144 109.181 6.28797C108.84 5.9845 108.343 6.28797 108.181 6.28797C108.018 6.28797 107.181 5.43714 107.181 5.28797C107.181 5.13931 107.361 5.28797 107.181 5.28797C107.001 5.28797 106.691 4.66013 106.181 4.28797C105.67 3.91632 105.279 4.28797 105.181 4.28797C105.082 4.28797 104.715 3.67756 104.181 3.28797C103.646 2.89838 103.181 2.17007 103.181 2.28797C103.181 2.40587 102.57 2.63758 102.181 2.28797C101.791 1.93837 101.185 2.15059 101.181 2.28797C101.176 2.42587 101.339 1.54838 101.181 1.28797C100.822 0.700511 99.7637 0.730755 99.1806 1.28797ZM102.181 16.288C102.851 16.7288 103.083 16.3813 103.181 16.288C103.181 16.1147 103.279 16.1947 103.181 16.288C103.181 16.4617 103.027 17.288 103.181 17.288C103.335 17.288 103.862 17.0276 104.181 17.288C104.499 17.5479 105.143 17.3623 105.181 17.288C105.218 17.2136 105.81 17.9584 106.181 18.288C106.551 18.6176 107.065 18.3561 107.181 18.288C107.296 18.2193 107.088 19.0563 107.181 19.288C107.024 19.3802 107.274 19.5197 107.181 19.288C107.338 19.1952 108.181 19.1306 108.181 19.288C107.947 19.288 108.181 19.4459 108.181 19.288C108.414 19.288 109.181 20.1306 109.181 20.288C109.041 20.37 109.181 20.4453 109.181 20.288C109.088 20.0563 109.32 20.2054 109.181 20.288C109.274 20.5197 110.024 20.3808 110.181 20.288C110.181 20.1214 110.337 20.1957 110.181 20.288C110.181 20.4541 110.041 21.37 110.181 21.288C110.32 21.2054 111.087 21.0563 111.181 21.288C111.04 21.3705 111.273 21.5197 111.181 21.288C111.321 21.2049 112.087 21.0563 112.181 21.288C112.273 21.5197 112.023 22.3802 112.181 22.288C112.181 22.1403 112.337 22.1952 112.181 22.288C112.181 22.4356 112.83 22.1834 113.181 22.288C113.531 22.392 114.102 23.1962 114.181 23.288C114.558 23.7324 115.893 24.4582 116.181 24.288C116.281 24.1337 116.366 24.1788 116.181 24.288C116.022 24.5335 118.712 26.288 119.181 26.288C119.287 26.288 119.692 25.9532 120.181 26.288C120.668 26.6227 120.912 27.1388 121.181 27.288C124.492 29.1201 136.278 36.1301 136.181 36.288C136.044 36.3285 136.11 36.4033 136.181 36.288C136.509 36.1895 138.181 38.0204 138.181 38.288C138.181 38.4033 138.947 38.288 139.181 38.288C139.181 38.1567 139.415 38.288 139.181 38.288C139.181 38.4197 139.908 38.1972 140.181 38.288C140.914 38.531 142.555 40.7436 143.181 41.288C143.48 41.5489 144.11 41.3551 144.181 41.288C144.251 41.2208 144.502 41.7748 145.181 42.288C145.859 42.8011 146.993 43.288 147.181 43.288C147.368 43.288 147.898 42.9896 148.181 43.288C148.463 43.5868 148.115 44.351 148.181 44.288C148.247 44.2249 148.876 43.9978 149.181 44.288C149.485 44.5786 150.03 44.3767 150.181 44.288C150.331 44.1993 150.181 45.1306 150.181 45.288C150.181 45.4459 150.947 45.288 151.181 45.288C151.181 45.1306 151.414 45.288 151.181 45.288C151.034 45.3741 151.181 45.4453 151.181 45.288C151.327 45.2019 152.02 46.0245 152.181 46.288C152.174 46.4366 152.341 46.5515 152.181 46.288C152.033 46.065 152.188 46.1393 152.181 46.288C152.328 46.511 152.98 46.288 153.181 46.288C153.455 46.288 154.037 47.9242 154.181 51.288C154.585 60.776 156.354 71.3321 159.181 79.288C159.721 80.8089 160.258 82.0942 160.181 82.288C159.882 82.7386 159.98 82.7862 160.181 82.288C160.522 81.7728 160.527 82.6698 160.181 83.288C159.882 83.8211 160.811 84.5063 161.181 84.288C161.181 83.8933 161.3 84.2172 161.181 84.288C161.181 84.6832 160.912 86.1004 161.181 86.288C161.449 86.4761 162.283 86.1291 162.181 86.288C162.007 86.288 162.078 86.4469 162.181 86.288C162.355 86.288 162.277 87.1393 162.181 87.288C162.037 87.288 162.085 87.4371 162.181 87.288C162.325 87.288 162.83 88.3581 163.181 89.288C163.532 90.2179 164.011 91.0865 164.181 91.288C164.535 91.7093 164.664 92.3135 165.181 93.288C165.377 93.6596 165.89 94.0358 166.181 94.288C166.471 94.5407 167.273 95.1439 167.181 95.288C167.063 95.2383 167.087 95.4315 167.181 95.288C167.299 95.3382 168.015 96.8004 169.181 98.288C173.583 103.908 180.562 109.559 186.181 112.288C186.714 112.547 186.369 113.177 186.181 113.288C186.008 113.39 186.093 113.07 186.181 113.288C186.268 113.506 186.348 114.288 186.181 114.288C186.013 114.288 186.091 114.064 186.181 114.288C186.271 114.511 186.37 114.288 186.181 114.288C185.992 114.288 185.09 115.064 185.181 115.288C185.27 115.511 185.348 115.288 185.181 115.288C185.013 115.288 185.091 116.065 185.181 116.288C185.27 116.511 185.348 116.288 185.181 116.288C185.013 116.288 185.091 116.065 185.181 116.288C185.27 116.511 185.349 117.288 185.181 117.288C185.013 117.288 185.088 117.057 185.181 117.288C185.291 117.562 184.395 117.415 184.181 117.288C183.963 117.159 184.063 117.995 184.181 118.288C184.278 118.531 184.332 118.198 184.181 118.288C184.029 118.377 184.091 119.15 184.181 119.288C184.27 119.426 184.342 119.288 184.181 119.288C184.019 119.288 184.126 119.842 184.181 120.288C184.235 120.734 184.281 121.288 184.181 121.288C184.08 121.288 183.631 121.283 183.181 122.288C179.553 130.373 171.32 142.888 167.181 147.288C166.936 147.548 167.181 148.172 167.181 148.288C167.181 148.404 166.453 149.041 166.181 149.288C165.908 149.535 165.492 149.881 165.181 150.288C164.869 150.694 164.57 150.904 164.181 151.288C163.792 151.672 163.402 152.879 163.181 153.288C162.96 153.697 162.359 154.288 162.181 154.288C162.003 154.288 161.638 153.81 161.181 154.288C160.724 154.766 160.869 155.496 161.181 155.288C162.865 154.164 152.662 163.496 149.181 166.288C146.923 168.099 144.258 170.213 144.181 170.288C143.749 170.701 142.44 171.288 142.181 171.288C142.014 171.288 142.27 171.065 142.181 171.288C142.091 171.51 141.32 172.37 141.181 172.288C141.041 172.205 141.181 172.04 141.181 172.288C141.181 172.578 140.453 172.388 140.181 172.288C139.918 172.192 140.181 172.035 140.181 172.288C140.181 172.513 140.397 173.332 140.181 173.288C139.964 173.244 138.579 172.879 138.181 173.288C137.783 173.697 137.344 174.288 137.181 174.288C137.018 174.288 137.181 174.139 137.181 174.288C137.181 174.437 137.415 175.288 137.181 175.288C136.947 175.288 136.181 175.139 136.181 175.288C136.181 175.437 136.415 175.288 136.181 175.288C135.947 175.288 135.181 176.114 135.181 176.288C135.181 176.461 135.273 176.376 135.181 176.288C135.088 176.199 135.061 175.749 134.181 176.288C128.853 179.547 114.841 187.02 113.181 187.288C112.904 187.333 113.259 187.196 113.181 187.288C112.649 187.918 102.942 191.462 102.181 191.288C99.7198 190.726 89.534 186.852 84.1806 184.288C78.9291 181.774 72.0947 177.577 70.1806 176.288C69.7525 176 70.1827 176.166 70.1806 176.288C70.1779 176.409 69.2949 176.444 69.1806 176.288C68.8056 175.777 67.3657 175.112 67.1806 175.288C67.0819 175.383 67.1806 175.462 67.1806 175.288C67.1806 175.115 67.3973 174.288 67.1806 174.288C66.9639 174.288 66.2745 174.52 66.1806 174.288C66.0872 174.055 66.3212 174.205 66.1806 174.288C66.04 174.371 65.2739 173.52 65.1806 173.288C65.0878 173.056 65.3212 173.205 65.1806 173.288C65.04 173.37 64.2696 173.51 64.1806 173.288C64.0915 173.066 64.4193 172.288 64.1806 172.288C63.9424 172.288 63.1806 172.437 63.1806 172.288C63.1806 172.139 63.4333 172.288 63.1806 172.288C62.7836 172.288 62.8448 171.879 63.1806 172.288C63.5298 172.713 63.6108 173.61 63.1806 173.288C62.9172 173.091 62.0953 172.5 62.1806 172.288C62.2659 172.076 62.3641 171.288 62.1806 171.288C61.9971 171.288 61.3839 171.474 61.1806 171.288C60.9773 171.102 60.5255 170.511 60.1806 170.288C59.8351 170.065 59.4633 170.511 59.1806 170.288C58.8984 170.065 58.5272 169.511 58.1806 169.288C57.8335 169.065 57.4322 168.518 57.1806 168.288C56.929 168.058 56.0368 166.945 55.1806 166.288C50.2998 162.546 41.4182 154.134 40.1806 152.288C39.8029 151.725 39.3136 152.209 39.1806 152.288C39.0476 152.366 38.4386 151.807 38.1806 151.288C37.9231 150.769 37.3914 150.288 37.1806 150.288C36.9698 150.288 37.3437 149.734 37.1806 149.288C37.0175 148.841 36.4032 148.288 36.1806 148.288C35.958 148.288 35.3743 147.734 35.1806 147.288C34.9875 146.842 35.3786 147.288 35.1806 147.288C34.9821 147.288 34.2578 146.481 34.1806 146.288C34.1033 146.095 32.6532 144.215 31.1806 142.288C28.7327 139.085 24.6661 133.271 24.1806 132.288C24.0706 132.064 23.4826 131.734 23.1806 131.288C22.2284 129.88 20.4332 126.732 19.1806 124.288C18.5159 122.991 18.3115 122.211 18.1806 122.288C18.0492 122.365 18.0781 121.543 18.1806 121.288C18.3018 120.987 18.3828 121.169 18.1806 121.288C18.0089 121.389 17.2933 121.462 17.1806 121.288C16.9767 121.168 17.0529 121.09 17.1806 121.288C17.6833 121.585 18.011 121.02 17.1806 119.288C16.7611 118.414 16.1602 117.548 16.1806 117.288C16.2004 117.028 16.3356 116.288 16.1806 116.288C16.025 116.288 16.084 116.437 16.1806 116.288C16.2766 116.139 16.3126 116.288 16.1806 116.288C16.0492 116.288 16.2058 115.609 16.1806 115.288C16.1554 114.967 15.3571 115.392 15.1806 115.288C15.0036 115.183 15.1554 114.385 15.1806 114.288C15.3008 113.821 14.474 112.296 14.1806 112.288C13.8694 112.457 13.9987 112.284 14.1806 112.288C14.4923 112.119 15.1028 112.376 15.1806 112.288C15.2584 112.2 16.9516 111.005 18.1806 110.288C24.0056 106.893 31.642 99.9415 34.1806 95.288C34.3989 94.8881 35.0245 94.1957 35.1806 94.288C35.2804 94.4423 35.3372 94.3802 35.1806 94.288C35.0808 94.1337 34.9038 93.6401 35.1806 93.288C35.4569 92.9358 35.9869 92.6601 36.1806 92.288C36.3743 91.9163 36.8104 90.8688 37.1806 90.288C37.5502 89.7067 37.253 88.4684 37.1806 88.288C37.1076 88.107 37.9236 88.5335 38.1806 88.288C38.437 88.0424 38.15 87.471 38.1806 87.288C38.2117 87.105 38.9183 86.6647 39.1806 86.288C39.4429 85.9107 39.1302 85.6032 39.1806 85.288C39.231 84.9732 39.9708 84.5289 40.1806 84.288C40.3898 84.0465 40.2713 83.3746 40.1806 83.288C40.0894 83.2008 40.6495 81.7223 41.1806 80.288C44.4627 71.4202 46.7552 61.5203 47.1806 51.288C47.3163 48.0293 46.9065 46.288 47.1806 46.288C47.3812 46.288 48.0325 46.511 48.1806 46.288C48.1736 46.1393 48.3281 46.065 48.1806 46.288C48.0202 46.5515 48.1876 46.4366 48.1806 46.288C48.3415 46.0245 49.0341 45.2019 49.1806 45.288C49.1806 45.4541 49.3265 45.3741 49.1806 45.288C49.0347 45.2019 49.1806 45.1214 49.1806 45.288C49.327 45.3741 50.0197 45.5515 50.1806 45.288C50.341 45.0245 50.1758 44.1696 50.1806 44.288C50.1849 44.4069 50.5191 44.7232 51.1806 44.288C51.8426 43.8533 53.025 43.3208 53.1806 43.288C53.3362 43.2547 54.459 42.7944 55.1806 42.288C55.9021 41.782 56.0561 41.288 56.1806 41.288C56.3056 41.288 56.8544 40.5807 57.1806 40.288C57.804 39.7282 60.3394 38.5668 61.1806 38.288C61.1806 38.4018 61.4531 38.1972 61.1806 38.288C61.1806 38.1737 61.9081 38.3756 62.1806 38.288C62.6988 38.1219 62.9376 37.5545 63.1806 37.288C63.2584 37.2024 67.0047 34.8065 71.1806 32.288C75.357 29.77 78.7632 27.5463 79.1806 27.288C79.5974 27.0291 80.9472 26.3884 81.1806 26.288C82.0829 25.8989 83.304 24.4782 83.1806 24.288C82.9875 24.2793 83.1092 24.1778 83.1806 24.288C83.6956 24.3116 86.1806 23.534 86.1806 23.288C85.9301 23.288 86.1806 23.1721 86.1806 23.288C86.2552 23.4735 86.4306 23.288 86.1806 23.288C86.0958 23.0763 86.7219 22.3146 87.1806 22.288C87.5846 22.2644 88.1237 22.4515 88.1806 22.288C88.0368 22.2029 88.238 22.1244 88.1806 22.288C88.3238 22.3726 89.0872 21.5197 89.1806 21.288C89.04 21.2049 89.2734 21.0563 89.1806 21.288C89.3212 21.3705 90.0872 21.5197 90.1806 21.288C90.0411 21.2054 90.2734 21.0563 90.1806 21.288C90.3195 21.37 90.1806 20.4541 90.1806 20.288C90.0239 20.1957 90.1806 20.1214 90.1806 20.288C90.3378 20.3808 91.0878 20.5197 91.1806 20.288C91.0411 20.2054 91.2739 20.0563 91.1806 20.288C91.3201 20.37 92.1806 20.4453 92.1806 20.288C92.1806 20.1306 91.9472 19.288 92.1806 19.288C92.1806 19.4459 92.414 19.288 92.1806 19.288C92.1806 19.1306 93.0486 19.2101 93.1806 19.288C93.3131 19.3659 93.8517 19.5802 94.1806 19.288C94.5089 18.9953 94.018 18.288 94.1806 18.288C94.3426 18.288 95.1806 18.4453 95.1806 18.288C95.025 18.1962 95.1806 18.1301 95.1806 18.288C95.3362 18.3797 95.1806 17.4459 95.1806 17.288C95.1806 17.1306 95.9472 17.288 96.1806 17.288C96.1806 17.4366 96.4145 17.288 96.1806 17.288C96.1806 17.1388 96.9472 17.288 97.1806 17.288C97.4145 17.288 97.1806 16.4459 97.1806 16.288C97.0636 16.2198 97.1806 16.1306 97.1806 16.288C97.297 16.3567 98.5578 16.7134 99.1806 16.288C100.605 15.3145 100.693 15.3104 102.181 16.288ZM99.1806 31.288C97.8453 34.0151 96.2375 37.4795 96.1806 39.288V40.288L95.1806 39.288C90.4136 34.6739 83.4025 33.7171 76.1806 37.288C72.8802 38.9196 73.3867 39.1009 78.1806 39.288C82.2009 39.4453 83.1163 39.4288 85.1806 40.288C85.7777 40.5361 86.0636 41.3157 86.1806 41.288C86.2975 41.2603 87.1806 41.1393 87.1806 41.288C86.9859 41.2875 87.1806 41.4371 87.1806 41.288C87.3748 41.288 87.8689 41.8425 88.1806 42.288C88.4917 42.7334 89.0025 43.2875 89.1806 43.288C89.0889 43.0599 89.3587 43.2885 89.1806 43.288C89.3228 43.6432 89.4504 44.4689 88.1806 44.288C82.4334 43.4668 73.5904 44.117 71.1806 46.288C70.9864 46.4628 70.8539 46.8507 70.1806 47.288C68.8856 48.1287 67.958 48.944 68.1806 49.288C68.2541 49.4018 68.4966 50.1921 68.1806 50.288C67.8646 50.3838 67.0905 50.1491 67.1806 50.288C67.2707 50.4269 67.4231 51.1988 67.1806 51.288C66.9381 51.3767 67.1012 51.1649 67.1806 51.288C67.3662 51.5745 65.5078 53.288 65.1806 53.288C65.0443 53.288 65.0776 53.1291 65.1806 53.288C65.2831 53.4464 65.4617 54.0916 65.1806 54.288C64.7466 54.5914 64.8855 54.7441 65.1806 55.288C65.327 56.0723 65.5154 55.9062 65.1806 55.288C64.9226 54.881 65.0551 54.6139 65.1806 55.288C65.6049 55.9564 65.7058 56.7047 65.1806 56.288C64.8732 56.0445 64.3244 55.6021 64.1806 56.288C63.9134 57.5644 64.0669 58.1206 66.1806 56.288C69.6676 53.2645 73.9902 50.3373 77.1806 49.288C79.0588 48.6708 81.0052 48.7846 81.1806 49.288C81.2557 49.5028 81.3716 49.4007 81.1806 49.288C81.0046 49.1839 81.1806 49.1219 81.1806 49.288C81.1806 49.4546 81.3362 50.3797 81.1806 50.288C81.025 50.1962 80.1806 50.1214 80.1806 50.288C80.1806 50.4541 80.3228 50.372 80.1806 50.288C80.0379 50.2039 80.2353 50.1301 80.1806 50.288C80.1253 50.4459 79.414 50.2552 79.1806 50.288C78.5465 50.3767 77.1806 51.984 77.1806 52.288C77.1806 52.433 76.3313 52.3772 76.1806 52.288C76.0298 52.1993 76.3791 51.9845 76.1806 52.288C75.9826 52.5909 75.3625 53.288 75.1806 53.288C74.7364 53.288 71.1806 56.823 71.1806 57.288C71.1806 57.4899 71.333 57.288 71.1806 57.288C70.9445 57.288 69.1913 59.8897 69.1806 60.288C69.1785 60.3623 69.5298 60.6298 69.1806 61.288C68.8314 61.9457 68.1012 63.0901 68.1806 63.288C68.26 63.4853 68.3694 63.288 68.1806 63.288C67.9918 63.288 68.0926 63.0696 68.1806 63.288C68.268 63.5063 68.3405 64.1936 68.1806 64.288C68.0213 64.3823 68.0915 64.0665 68.1806 64.288C68.2696 64.5094 68.289 65.1209 68.1806 65.288C67.9118 65.7032 67.9183 72.1326 68.1806 72.288C68.2621 71.9901 68.2965 72.3561 68.1806 72.288C68.0991 72.5863 68.0079 73.0891 68.1806 73.288C68.3533 73.4869 68.2756 74.1972 68.1806 74.288C67.9531 74.0701 68.0856 74.3787 68.1806 74.288C68.5438 74.6345 68.8802 74.8468 69.1806 73.288C70.8758 64.4981 76.0643 57.7546 82.1806 56.288H83.1806H82.1806C76.3889 62.038 73.3024 73.4043 75.1806 82.288C75.5137 83.8658 76.1785 85.303 76.1806 84.288C76.1897 80.4946 79.1415 70.288 80.1806 70.288C80.1994 70.3992 80.3152 70.288 80.1806 70.288C80.1044 69.8276 79.8469 69.6253 80.1806 69.288C80.3753 69.0911 80.9467 68.7263 81.1806 68.288C81.8238 67.0802 85.4402 63.4442 85.1806 64.288C82.7847 72.0695 82.8223 80.3446 86.1806 87.288C87.4064 89.8229 89.6334 92.7597 89.1806 91.288C88.1109 87.8104 87.7815 82.292 88.1806 78.288C88.3136 76.949 88.1586 75.6832 88.1806 75.288C88.2031 74.8933 89.039 74.2049 89.1806 74.288C89.2686 74.6089 89.3217 74.3715 89.1806 74.288C89.0926 73.9666 89.0749 73.2259 89.1806 73.288C89.2863 73.3505 88.8957 72.9457 89.1806 72.288C89.4649 71.6308 90.0406 71.288 90.1806 71.288C90.3212 71.288 90.1806 70.4392 90.1806 70.288C90.1806 69.6062 93.2042 68.3356 94.1806 68.288C95.0915 68.2434 94.7428 68.2448 95.1806 69.288C96.3458 72.0617 96.3834 124.547 95.1806 126.288C94.9859 126.57 94.5272 126.715 94.1806 126.288C93.9392 125.991 94.3206 125.253 94.1806 125.288C94.0406 125.324 93.349 125.588 93.1806 125.288C93.0127 124.988 92.3297 124.2 92.1806 124.288C92.032 124.376 92.2739 124.521 92.1806 124.288C92.0872 124.056 91.3979 124.288 91.1806 124.288C90.9639 124.288 91.1806 123.454 91.1806 123.288C91.1806 123.122 91.4714 123.216 91.1806 123.288C90.8174 123.379 90.1581 123.589 90.1806 123.288C90.1988 123.047 90.3748 122.251 90.1806 122.288C89.9859 122.325 89.1806 122.454 89.1806 122.288C89.1806 122.122 89.4805 122.213 89.1806 122.288C88.7756 122.389 88.0556 122.6 88.1806 122.288C88.2879 122.02 88.3828 121.169 88.1806 121.288C88.0057 121.391 88.3501 121.591 88.1806 121.288C88.0116 120.986 87.4145 121.288 87.1806 121.288C86.7428 121.288 85.8394 119.89 85.1806 119.288C84.9751 119.1 84.3898 119.288 84.1806 119.288C83.9714 119.288 83.2326 119.407 83.1806 119.288C83.0722 119.039 75.7138 115.288 73.1806 114.288C61.8021 109.798 50.2742 108.569 41.1806 110.288C36.1791 111.234 29.7991 113.105 26.1806 115.288C24.5422 116.276 25.9596 116.058 28.1806 115.288C31.4525 114.153 42.8335 112.849 44.1806 113.288C44.3743 113.351 45.7793 113.212 47.1806 113.288C51.7615 113.537 58.4645 115.023 62.1806 116.288C62.8523 116.517 63.0738 116.313 63.1806 116.288C63.2874 116.263 63.5803 117.038 64.1806 117.288C64.7809 117.538 66.0545 117.362 66.1806 117.288C66.1259 117.132 66.3061 117.214 66.1806 117.288C66.2353 117.444 66.8367 117.263 67.1806 117.288C67.5245 117.313 67.1044 118.099 67.1806 118.288C67.2562 118.477 68.5615 118.193 69.1806 118.288C69.7997 118.382 70.0942 119.073 70.1806 119.288C70.0298 119.377 70.267 119.503 70.1806 119.288C71.0566 118.771 84.148 126.842 88.1806 130.288C88.8168 130.831 90.5755 131.79 91.1806 132.288C91.7852 132.786 92.6774 132.797 93.1806 133.288L94.1806 134.288L93.1806 135.288C92.7053 135.801 91.3464 136.288 91.1806 136.288C91.0143 136.288 90.6157 136.768 90.1806 137.288C89.7461 137.809 89.4064 138.288 89.1806 138.288C88.9553 138.288 88.3769 138.984 88.1806 139.288C87.7278 139.99 80.4628 146.375 80.1806 146.288C80.0647 146.253 79.6135 146.769 79.1806 147.288C78.7471 147.807 78.3351 148.288 78.1806 148.288C78.0266 148.288 77.7267 148.763 77.1806 149.288C76.2128 150.218 74.1902 150.65 72.1806 152.288C71.6355 152.732 70.6924 153.845 70.1806 154.288L69.1806 155.288L68.1806 154.288C65.8357 152.113 62.5132 152.186 60.1806 154.288C56.1893 157.885 58.0171 163.668 63.1806 164.288C64.4756 164.443 66.9306 165.665 67.1806 166.288C67.268 166.505 66.9419 167.288 67.1806 167.288C67.4188 167.288 68.1806 167.081 68.1806 167.288C68.1806 167.495 67.7911 168.195 68.1806 168.288C68.5701 168.381 69.1806 168.142 69.1806 168.288C69.0175 168.288 69.1806 168.434 69.1806 168.288C69.3431 168.288 69.7911 168.916 70.1806 169.288C70.5695 169.66 70.9542 170.288 71.1806 170.288C71.407 170.288 72.1806 170.157 72.1806 170.288C71.9081 170.198 72.1806 170.419 72.1806 170.288C72.4531 170.377 73.2466 171.726 74.1806 172.288C77.3506 174.197 82.796 175.685 83.1806 175.288C83.3496 175.198 83.3684 175.094 83.1806 175.288C82.8888 175.443 82.3093 174.322 81.1806 173.288C80.8963 173.028 80.3201 173.288 80.1806 173.288C80.0416 173.288 79.2739 173.521 79.1806 173.288C79.0867 173.055 79.3383 172.195 79.1806 172.288C79.0229 172.381 78.2739 172.52 78.1806 172.288C78.0872 172.055 78.3678 172.288 78.1806 172.288C77.9928 172.288 77.5288 171.739 77.1806 171.288C76.8319 170.837 76.3008 170.217 76.1806 170.288C76.061 170.359 74.7755 169.817 73.1806 168.288L70.1806 165.288L73.1806 163.288C79.0512 159.767 88.1806 155.539 88.1806 156.288C88.1806 156.422 88.3244 156.203 88.1806 156.288C87.1865 156.875 86.7208 161.924 87.1806 164.288C87.5186 166.024 88.5964 169.939 89.1806 170.288C89.3802 170.407 90.1806 170.088 90.1806 170.288C90.1806 170.596 90.458 171.973 92.1806 173.288C92.3684 173.432 93.0315 173.288 93.1806 173.288C93.1286 173.176 93.3297 173.288 93.1806 173.288C93.3292 173.608 95.679 174.945 97.1806 175.288C100.1 175.955 105.805 174.868 108.181 173.288C109.446 172.446 110.371 170.608 110.181 170.288C110.057 170.181 110.089 170.134 110.181 170.288C110.474 170.541 112.377 170.591 112.181 170.288C112.097 170.159 112.047 169.338 112.181 169.288C114.131 168.557 114.779 160.625 113.181 157.288C112.804 156.502 112.035 156.288 112.181 156.288C113.156 156.288 122.273 159.991 126.181 162.288C127.504 163.066 129.025 164.247 129.181 164.288C130.318 164.584 130.766 164.562 129.181 166.288C127.315 168.318 124.468 170.563 124.181 170.288C124.07 170.182 124.129 170.072 124.181 170.288C124.232 170.505 124.35 170.281 124.181 170.288C124.011 170.295 123.748 170.73 123.181 171.288C122.614 171.846 121.417 172.288 121.181 172.288C120.945 172.288 121.181 173.159 121.181 173.288C121.181 173.593 118.662 174.288 118.181 174.288C117.977 174.288 118.181 175.011 118.181 175.288C118.181 175.752 118.321 175.631 119.181 175.288C121.959 174.179 126.749 171.324 128.181 170.288C128.662 169.939 128.984 170.288 129.181 170.288C129.377 170.288 129.264 169.494 129.181 169.288C129.075 169.025 129.799 169.192 130.181 169.288C130.181 169.481 130.499 169.367 130.181 169.288C130.181 169.105 130.946 169.202 131.181 169.288C131.181 169.525 131.438 169.382 131.181 169.288C131.181 169.072 131.806 168.378 132.181 168.288C132.555 168.198 132.1 167.582 132.181 167.288C132.261 166.994 132.974 167.25 133.181 167.288C133.388 167.326 134.48 166.912 135.181 166.288C135.939 165.613 136.779 165.288 137.181 165.288C141.185 165.288 143.36 161.165 142.181 157.288C140.816 152.802 135.476 150.917 132.181 154.288L131.181 155.288L130.181 154.288C129.502 153.691 127.76 152.768 127.181 152.288C124.664 150.203 124.166 149.237 123.181 148.288C122.603 147.733 122.329 147.288 122.181 147.288C122.033 147.288 121.517 146.697 121.181 146.288C120.844 145.878 120.34 145.288 120.181 145.288C119.914 145.288 113.657 140.548 111.181 138.288C109.844 137.067 108.087 135.938 107.181 135.288C106.353 134.694 106.879 134.05 108.181 133.288C108.571 133.059 109.694 132.746 110.181 132.288C113.932 128.759 126.507 119.645 127.181 120.288C127.181 120.47 127.27 120.373 127.181 120.288C127.025 120.196 127.181 120.105 127.181 120.288C127.337 120.38 128.181 120.455 128.181 120.288C128.05 120.211 128.181 120.122 128.181 120.288C128.449 120.447 130.572 118.869 131.181 118.288C131.401 118.078 131.895 118.288 132.181 118.288C132.467 118.288 133.115 117.755 134.181 117.288C135.246 116.82 135.947 116.323 136.181 116.288C136.414 116.253 138.312 115.811 140.181 115.288C151.191 112.203 162.806 112.369 172.181 115.288C176.169 116.53 175.604 115.429 171.181 113.288C167.912 111.707 162.646 110.352 161.181 110.288C160.91 110.276 161.004 110.358 161.181 110.288C161.358 110.219 162.203 110.072 163.181 110.288C166.201 110.955 166.886 110.449 164.181 109.288C162.204 108.441 161.259 107.92 161.181 106.288C161.087 104.344 163.75 104.26 164.181 106.288C164.473 107.669 165.859 106.852 166.181 105.288C166.565 103.416 165.218 102.967 161.181 103.288C158.099 103.534 157.143 103.294 157.181 105.288V107.288H156.181C154.433 107.288 153.361 107.837 153.181 108.288C152.968 108.819 153.977 109.284 155.181 109.288C156.315 109.292 161.346 110.13 161.181 110.288C161.121 110.345 159.725 109.51 158.181 109.288C148.538 107.899 136.389 110.461 125.181 115.288C123.584 115.975 122.263 116.288 122.181 116.288C122.099 116.288 120.161 117.197 118.181 118.288C116.2 119.379 114.725 120.002 114.181 120.288C113.636 120.573 113.233 121.176 113.181 121.288C113.128 121.401 112.324 121.373 112.181 121.288C112.037 121.203 112.274 121.056 112.181 121.288C112.088 121.52 111.321 122.371 111.181 122.288C111.04 122.205 111.274 122.056 111.181 122.288C111.088 122.52 111.321 122.371 111.181 122.288C111.04 122.205 110.274 123.056 110.181 123.288C110.088 123.52 110.321 123.371 110.181 123.288C110.04 123.205 109.274 123.056 109.181 123.288C109.087 123.521 109.381 124.288 109.181 124.288C108.98 124.288 108.274 124.056 108.181 124.288C108.087 124.521 108.338 124.381 108.181 124.288C108.022 124.195 107.274 124.055 107.181 124.288C107.087 124.521 107.362 125.288 107.181 125.288C106.998 125.288 106.46 124.976 106.181 125.288C105.478 126.073 105.467 126.302 105.181 123.288C104.378 114.818 104.423 71.3656 105.181 69.288C105.896 67.3267 107.572 67.2226 109.181 69.288C109.386 69.5515 110.037 70.3726 110.181 70.288C110.272 70.0609 110.324 70.2034 110.181 70.288C110.089 70.5151 109.943 71.0609 110.181 71.288C110.696 71.7801 112.089 74.3002 112.181 75.288C112.217 75.673 112.066 76.1111 112.181 76.288C112.295 76.4648 112.279 76.8594 112.181 77.288C112.079 77.7329 112.009 78.187 112.181 78.288C112.511 78.4828 112.5 82.983 112.181 83.288C112.073 83.3905 112.227 84.2873 112.181 85.288C112.134 86.2886 111.469 88.0602 111.181 89.288C110.493 92.2191 111.02 92.6651 113.181 89.288C117.057 83.2283 118.784 71.5097 116.181 64.288C115.976 63.7185 115.137 64.2393 115.181 64.288C115.225 64.3362 115.543 64.5775 116.181 65.288C116.818 65.9985 118.112 66.329 118.181 66.288C118.365 66.1772 119.181 67.944 119.181 68.288C119.041 68.288 119.181 68.4505 119.181 68.288C120.424 68.288 123.616 76.866 124.181 82.288C124.609 86.4002 126.179 82.2513 126.181 76.288C126.182 68.9765 122.013 58.5809 118.181 56.288C117.379 55.8087 119.031 55.7318 120.181 56.288C124.012 58.1426 130.181 64.7105 130.181 67.288C130.181 67.532 130.042 68.147 130.181 68.288C130.49 68.6037 130.729 71.0489 131.181 73.288C131.484 74.7961 132.432 75.75 132.181 74.288C132.139 74.0455 132.043 73.4987 132.181 73.288C132.977 72.0736 133.167 63.0006 132.181 61.288C131.994 60.9635 131.214 61.4812 131.181 61.288C131.147 61.0942 131.46 59.6894 131.181 59.288C130.902 58.8866 130.216 58.5002 130.181 58.288C130.145 58.0757 130.424 58.4182 130.181 58.288C129.937 58.1583 129.181 57.4771 129.181 57.288C129.181 56.8589 125.608 53.288 125.181 53.288C125.009 53.288 124.35 52.5894 124.181 52.288C124.012 51.986 124.312 52.2101 124.181 52.288C124.049 52.3659 123.273 51.5197 123.181 51.288C123.087 51.0558 123.321 51.2049 123.181 51.288C123.04 51.371 122.273 51.5197 122.181 51.288C122.087 51.0563 122.337 51.1952 122.181 51.288C122.023 51.3802 122.181 51.4084 122.181 51.288C122.18 50.943 118.495 49.1019 118.181 49.288C118.025 49.3797 118.181 49.4453 118.181 49.288C118.181 48.9184 120.063 48.9138 122.181 49.288C125.487 49.8718 129.544 52.3828 134.181 56.288C135.383 57.3009 136.339 57.7683 136.181 57.288C135.993 56.7231 135.227 55.0431 135.181 54.288C135.17 54.1127 135.394 53.492 135.181 53.288C134.566 52.701 133.994 51.5761 134.181 51.288C134.274 51.1434 133.44 51.288 133.181 51.288C132.881 51.288 133.079 50.5407 133.181 50.288C133.269 50.0691 133.382 50.4033 133.181 50.288C132.978 50.1721 132.323 49.5315 132.181 49.288C131.952 48.8953 131.362 47.9212 129.181 46.288C126.09 43.973 118.577 42.5544 113.181 43.288C111.95 43.4551 111.235 44.3397 111.181 44.288C111.031 44.145 112.881 41.288 113.181 41.288C113.324 41.288 114.181 41.4095 114.181 41.288C114.181 40.5139 120.224 39.288 124.181 39.288C127.781 39.288 127.218 39.3865 125.181 38.288C117.488 34.1394 111.199 34.5134 106.181 39.288L104.181 40.288V39.288C104.036 36.5378 101.122 29.3023 100.181 29.288C99.9 29.2834 99.8276 29.9654 99.1806 31.288ZM81.1806 48.288C80.9081 48.3562 80.4531 48.3562 80.1806 48.288C79.9081 48.2203 80.6355 48.288 81.1806 48.288C81.7256 48.288 81.4526 48.2203 81.1806 48.288ZM120.181 48.288C119.752 48.35 119.609 48.35 119.181 48.288C118.752 48.2259 119.324 48.288 120.181 48.288C121.037 48.288 120.609 48.2259 120.181 48.288ZM87.1806 81.288C87.1125 81.6248 87.1838 81.8831 87.1806 81.288C87.1779 80.6928 87.1098 80.0291 87.1806 80.288C87.2514 80.5463 87.2482 80.9517 87.1806 81.288ZM35.1806 103.288C33.2799 103.965 32.9934 106.262 34.1806 107.288C34.9558 107.958 36.0599 107.134 36.1806 106.288C36.3206 105.309 37.2278 105.288 38.1806 105.288C38.9992 105.288 38.3716 105.155 38.1806 106.288C37.8957 107.98 38.0534 108.512 36.1806 109.288C34.6012 109.943 33.5261 109.901 34.1806 110.288C34.3362 110.38 36.0245 110.737 38.1806 110.288C40.3367 109.839 43.1608 109.388 44.1806 109.288C48.0657 108.908 47.2964 107.299 43.1806 107.288C42.0889 107.285 41.9982 107.217 42.1806 106.288C42.4445 104.945 42.0164 103.592 41.1806 103.288C40.3518 102.987 35.8109 103.063 35.1806 103.288ZM165.181 110.288C165.558 110.284 165.558 110.492 165.181 110.288C164.428 110.296 163.181 109.552 163.181 109.288C163.181 109.027 164.407 109.87 165.181 110.288ZM36.1806 110.288C36.0846 110.437 35.5218 110.298 35.1806 110.288C34.5824 110.27 34.6345 110.512 35.1806 110.288C35.9595 109.968 36.3877 109.968 36.1806 110.288ZM104.181 154.288C109.669 156.779 111.248 164.195 107.181 168.288C105.948 169.529 104.538 170.499 104.181 170.288C103.962 170.159 104.046 170.08 104.181 170.288C104.33 170.519 103.674 170.406 103.181 170.288C102.772 170.19 102.413 170.077 102.181 170.288C101.742 170.686 98.1806 170.672 98.1806 170.288C98.1806 170.161 98.422 170.199 98.1806 170.288C97.8957 170.392 97.0502 170.489 97.1806 170.288C97.3169 170.077 97.5958 170.184 97.1806 170.288C96.8453 170.372 96.1806 170.432 96.1806 170.288C96.1806 170.144 96.3169 170.207 96.1806 170.288C95.8292 170.496 94.0454 169.371 93.1806 168.288C87.471 161.135 95.7259 150.45 104.181 154.288ZM98.1806 157.288C92.8959 159.114 93.795 166.572 99.1806 167.288C99.3367 167.309 98.9075 168.169 99.1806 168.288C99.4531 168.407 100.753 168.4 101.181 168.288C101.609 168.176 101.91 167.316 102.181 167.288C102.451 167.26 102.906 167.514 103.181 167.288C103.455 167.062 103.932 166.372 104.181 166.288C105.018 166.006 106.181 163.869 106.181 162.288C106.181 158.478 101.913 155.998 98.1806 157.288ZM102.181 159.288C103.53 160.05 104.238 162.288 103.181 162.288C102.632 162.288 101.682 161.109 101.181 160.288C100.335 158.905 100.587 158.389 102.181 159.288ZM110.181 163.288C110.109 163.548 110.181 162.809 110.181 162.288C110.109 162.028 110.181 161.767 110.181 162.288C110.251 162.548 110.251 163.028 110.181 163.288ZM113.181 163.288C113.113 163.625 113.184 162.883 113.181 162.288C113.11 162.03 113.177 161.693 113.181 162.288C113.251 162.547 113.249 162.952 113.181 163.288Z" fill="#1C3F64"/>
</mask>
<g mask="url(#mask0_3170_40873)">
<path d="M138.161 41.8586L100.161 23.8586L75.1609 35.8586L66.1609 41.8586L57.1609 54.8586L53.1609 68.8586L35.1609 102.859L24.1609 109.859L19.1609 118.859L29.1609 129.859L52.1609 159.859L68.1609 173.859L88.1609 181.859L107.161 184.859L138.161 168.859L161.161 141.859L177.161 125.859V112.859L166.161 100.859L152.161 80.8586L148.161 63.8586L138.161 41.8586Z" fill="#0D8F75"/>
</g>
</g>
<defs>
<clipPath id="clip0_3170_40873">
<rect width="200.322" height="202.859" fill="white" transform="translate(0 0.858643)"/>
</clipPath>
</defs>
</svg>
