<svg width="972" height="421" viewBox="0 0 972 421" fill="none" xmlns="http://www.w3.org/2000/svg">
<path d="M284.9 236.3H222.3C220.2 236.3 218.4 237.1 217 238.5C215.6 239.8 214.8 241.7 214.8 243.8C214.8 247.9 218.1 251.3 222.3 251.3H247.4C251.5 251.3 254.9 254.6 254.9 258.8C254.9 260.9 254.1 262.7 252.7 264.1C251.3 265.5 249.5 266.3 247.4 266.3H130.6C126.5 266.3 123.1 263 123.1 258.8C123.1 256.7 123.9 254.9 125.3 253.5C126.7 252.1 128.5 251.3 130.6 251.3H145C147.1 251.3 148.9 250.5 150.3 249.1C151.7 247.8 152.5 245.9 152.5 243.8C152.5 239.7 149.2 236.3 145 236.3H108.9C104.8 236.3 101.4 233 101.4 228.8C101.4 226.7 102.2 224.9 103.6 223.5C105 222.1 106.8 221.3 108.9 221.3H284.9V236.3Z" fill="#E6E6E6"/>
<path d="M971.5 79.7C971.5 82.6 970.3 85.2 968.5 87.1C966.6 89 964 90.2 961.1 90.2H830.6C827.7 90.2 825.1 91.4 823.3 93.3C821.4 95.2 820.2 97.8 820.2 100.6C820.2 106.3 824.9 111 830.6 111H865.5C871.2 111 875.9 115.7 875.9 121.4C875.9 124.3 874.7 126.9 872.9 128.7C871 130.6 868.4 131.8 865.5 131.8H703C697.3 131.8 692.6 127.1 692.6 121.4C692.6 118.5 693.8 115.9 695.7 114C697.6 112.1 700.2 110.9 703.1 110.9H723.1C726 110.9 728.6 109.7 730.4 107.8C732.3 105.9 733.5 103.3 733.5 100.5C733.5 94.8 728.8 90.1 723.1 90.1H672.9C667.2 90.1 662.5 85.4 662.5 79.7C662.5 76.8 663.7 74.2 665.6 72.4C667.5 70.5 670.1 69.3 672.9 69.3H961.2C966.9 69.3 971.5 73.9 971.5 79.7Z" fill="#E6E6E6"/>
<path d="M529.6 50.1L505.9 73.7" stroke="#B3B3B3" stroke-width="2.9948" stroke-miterlimit="10" stroke-linecap="round" stroke-linejoin="round"/>
<path d="M529.6 73.7L505.9 50.1" stroke="#B3B3B3" stroke-width="2.9948" stroke-miterlimit="10" stroke-linecap="round" stroke-linejoin="round"/>
<path d="M770 241.5L754.5 257" stroke="#B3B3B3" stroke-width="2.9948" stroke-miterlimit="10" stroke-linecap="round" stroke-linejoin="round"/>
<path d="M770 257L754.5 241.5" stroke="#B3B3B3" stroke-width="2.9948" stroke-miterlimit="10" stroke-linecap="round" stroke-linejoin="round"/>
<path d="M176.6 35.6L161.1 51.1" stroke="#B3B3B3" stroke-width="2.9948" stroke-miterlimit="10" stroke-linecap="round" stroke-linejoin="round"/>
<path d="M176.6 51.1L161.1 35.6" stroke="#B3B3B3" stroke-width="2.9948" stroke-miterlimit="10" stroke-linecap="round" stroke-linejoin="round"/>
<path d="M467.6 43.3C472.35 43.3 476.2 39.4497 476.2 34.7C476.2 29.9504 472.35 26.1 467.6 26.1C462.85 26.1 459 29.9504 459 34.7C459 39.4497 462.85 43.3 467.6 43.3Z" fill="#D0D2D3"/>
<path d="M880.3 161.6C883.006 161.6 885.2 159.406 885.2 156.7C885.2 153.994 883.006 151.8 880.3 151.8C877.594 151.8 875.4 153.994 875.4 156.7C875.4 159.406 877.594 161.6 880.3 161.6Z" fill="#D0D2D3"/>
<path d="M249.8 203.8C252.506 203.8 254.7 201.606 254.7 198.9C254.7 196.194 252.506 194 249.8 194C247.094 194 244.9 196.194 244.9 198.9C244.9 201.606 247.094 203.8 249.8 203.8Z" fill="#D0D2D3"/>
<path d="M655.1 36.4C658.966 36.4 662.1 33.266 662.1 29.4C662.1 25.534 658.966 22.4 655.1 22.4C651.234 22.4 648.1 25.534 648.1 29.4C648.1 33.266 651.234 36.4 655.1 36.4Z" stroke="#B3B3B3" stroke-width="2.9948" stroke-miterlimit="10" stroke-linecap="round" stroke-linejoin="round"/>
<path d="M648 69.4C650.706 69.4 652.9 67.2062 652.9 64.5C652.9 61.7938 650.706 59.6 648 59.6C645.294 59.6 643.1 61.7938 643.1 64.5C643.1 67.2062 645.294 69.4 648 69.4Z" fill="#D0D2D3"/>
<path d="M585.6 9.8C588.306 9.8 590.5 7.60619 590.5 4.9C590.5 2.1938 588.306 0 585.6 0C582.894 0 580.7 2.1938 580.7 4.9C580.7 7.60619 582.894 9.8 585.6 9.8Z" fill="#D0D2D3"/>
<path d="M801.8 290.4C804.506 290.4 806.7 288.206 806.7 285.5C806.7 282.794 804.506 280.6 801.8 280.6C799.094 280.6 796.9 282.794 796.9 285.5C796.9 288.206 799.094 290.4 801.8 290.4Z" fill="#D0D2D3"/>
<path d="M775.7 213.7C779.014 213.7 781.7 211.014 781.7 207.7C781.7 204.386 779.014 201.7 775.7 201.7C772.386 201.7 769.7 204.386 769.7 207.7C769.7 211.014 772.386 213.7 775.7 213.7Z" stroke="#B3B3B3" stroke-width="2.9948" stroke-miterlimit="10" stroke-linecap="round" stroke-linejoin="round"/>
<path d="M213.4 18C216.106 18 218.3 15.8062 218.3 13.1C218.3 10.3938 216.106 8.20001 213.4 8.20001C210.694 8.20001 208.5 10.3938 208.5 13.1C208.5 15.8062 210.694 18 213.4 18Z" fill="#D0D2D3"/>
<path d="M199.2 132.9C202.514 132.9 205.2 130.214 205.2 126.9C205.2 123.586 202.514 120.9 199.2 120.9C195.886 120.9 193.2 123.586 193.2 126.9C193.2 130.214 195.886 132.9 199.2 132.9Z" stroke="#B3B3B3" stroke-width="2.9948" stroke-miterlimit="10" stroke-linecap="round" stroke-linejoin="round"/>
<path d="M673.4 364.1H298.3C293.7 364.1 289.9 360.4 289.9 355.7V116.7C289.9 112.1 293.6 108.3 298.3 108.3H673.5C678.1 108.3 681.9 112 681.9 116.7V355.7C681.8 360.4 678.1 364.1 673.4 364.1Z" stroke="#D0D2D3" stroke-width="3.68" stroke-miterlimit="10"/>
<path d="M658.7 328.2H313C310.9 328.2 309.2 326.5 309.2 324.4V130.1C309.2 128 310.9 126.3 313 126.3H658.7C660.8 126.3 662.5 128 662.5 130.1V324.4C662.5 326.5 660.8 328.2 658.7 328.2Z" stroke="#D0D2D3" stroke-width="3.68" stroke-miterlimit="10"/>
<path d="M471.1 171.8H574.2" stroke="#B3B3B3" stroke-width="7.36" stroke-miterlimit="10" stroke-linecap="round" stroke-linejoin="round"/>
<path d="M471.1 228.9H574.2" stroke="#B3B3B3" stroke-width="7.36" stroke-miterlimit="10" stroke-linecap="round" stroke-linejoin="round"/>
<path d="M471.1 256.5H574.2" stroke="#B3B3B3" stroke-width="7.36" stroke-miterlimit="10" stroke-linecap="round" stroke-linejoin="round"/>
<path d="M539.2 284.1H574.2" stroke="#B3B3B3" stroke-width="7.36" stroke-miterlimit="10" stroke-linecap="round" stroke-linejoin="round"/>
<path d="M471.1 284.1H522.7" stroke="#B3B3B3" stroke-width="7.36" stroke-miterlimit="10" stroke-linecap="round" stroke-linejoin="round"/>
<path d="M471.1 201.3H607.3" stroke="#B3B3B3" stroke-width="7.36" stroke-miterlimit="10" stroke-linecap="round" stroke-linejoin="round"/>
<path d="M587.1 171.8H607.3" stroke="#B3B3B3" stroke-width="7.36" stroke-miterlimit="10" stroke-linecap="round" stroke-linejoin="round"/>
<path d="M392 289.6C425.524 289.6 452.7 262.424 452.7 228.9C452.7 195.376 425.524 168.2 392 168.2C358.476 168.2 331.3 195.376 331.3 228.9C331.3 262.424 358.476 289.6 392 289.6Z" fill="#B3B3B3"/>
<path d="M513.5 365.4L519.8 403.3C520.4 407 523.4 409.8 527.2 410.2L552.2 412.7C555.3 413 557.7 415.6 557.7 418.8H419.7C419.7 415.7 422.1 413 425.2 412.7L450.2 410.2C453.9 409.8 456.9 407 457.6 403.3L463.9 365.4" stroke="#D0D2D3" stroke-width="3.2222" stroke-miterlimit="10"/>
<path d="M296.8 94.5V76" stroke="#B3B3B3" stroke-width="7.36" stroke-miterlimit="10" stroke-linecap="round" stroke-linejoin="round"/>
<path d="M278.4 113.9H259" stroke="#B3B3B3" stroke-width="7.36" stroke-miterlimit="10" stroke-linecap="round" stroke-linejoin="round"/>
<path d="M283.4 100.4L270 87.1" stroke="#B3B3B3" stroke-width="7.36" stroke-miterlimit="10" stroke-linecap="round" stroke-linejoin="round"/>
<path d="M392 242.2C386.3 242.2 381.6 237.6 381.6 231.8V195.5C381.6 189.8 386.2 185.1 392 185.1C397.8 185.1 402.4 189.7 402.4 195.5V231.8C402.4 237.6 397.7 242.2 392 242.2Z" fill="white"/>
<path d="M392 273.4C397.744 273.4 402.4 268.744 402.4 263C402.4 257.256 397.744 252.6 392 252.6C386.256 252.6 381.6 257.256 381.6 263C381.6 268.744 386.256 273.4 392 273.4Z" fill="white"/>
<path d="M929.5 419.3H1.5" stroke="#B3B3B3" stroke-width="2" stroke-miterlimit="10" stroke-linecap="round" stroke-linejoin="round"/>
</svg>
