<svg width="29" height="29" viewBox="0 0 29 29" fill="none" xmlns="http://www.w3.org/2000/svg">
<rect x="0.5" y="0.5" width="28" height="28" rx="3" fill="#0D8F75"/>
<path opacity="0.977974" d="M10.3333 7C8.4925 7 7 8.4925 7 10.3333L7 18.6666C7 20.5075 8.4925 22 10.3333 22H18.6667C20.5075 22 22 20.5075 22 18.6666V15.3333C22 14.8733 21.6267 14.5 21.1667 14.5C20.7067 14.5 20.3333 14.8733 20.3333 15.3333V18.6666C20.3333 19.5875 19.5875 20.3333 18.6667 20.3333H10.3333C9.4125 20.3333 8.66667 19.5875 8.66667 18.6666L8.66667 10.3333C8.66667 9.4125 9.4125 8.66666 10.3333 8.66666L17 8.66666C17.46 8.66666 17.8333 8.29333 17.8333 7.83333C17.8333 7.37333 17.46 7 17 7L10.3333 7Z" fill="white"/>
<path opacity="0.977974" d="M21.9918 7.83203C21.7788 7.83203 21.5558 7.90704 21.3936 8.0662L14.139 15.202C13.9252 15.4128 13.7097 15.3979 13.5416 15.1495L12.7096 13.9254C12.455 13.5495 11.9208 13.4404 11.5398 13.6912C11.1579 13.942 11.0505 14.4612 11.3051 14.837L12.1372 16.0612C12.8868 17.1687 14.3537 17.3153 15.3097 16.3737L22.59 9.21203C22.9145 8.89287 22.9145 8.3862 22.59 8.0662C22.4278 7.9062 22.2048 7.83203 21.9918 7.83203Z" fill="white"/>
</svg>
