<svg id="Layer_1" data-name="Layer 1" xmlns="http://www.w3.org/2000/svg" viewBox="0 0 250 250"><defs><style>.cls-1{fill:#006749;}</style></defs><title>Arrested</title><circle class="cls-1" cx="46.16" cy="60.07" r="16.55"/><path class="cls-1" d="M81.37,23.82a7.83,7.83,0,0,0-15,4.58c2.8,9.16,4.33,30.56,4.73,39.15-1.74,8.91-6.33,13-15.2,13.54a7.79,7.79,0,0,0-4.33,1.66,25.33,25.33,0,0,1-12.37-.57,7.77,7.77,0,0,0-3.45-1.09c-8.49-.54-13-4.26-14.94-12.39L25.61,27a7.83,7.83,0,1,0-15.55-1.78L5,69.42l.24,1.2c2.22,11.18,8.13,19.07,17,23.1l-.16,63.52v63.6a9.15,9.15,0,0,0,9.21,9.46A9.6,9.6,0,0,0,41,220.85V154.58a3.75,3.75,0,0,1,3.74-3.4,3.11,3.11,0,0,1,3.33,3.24v66.25a9.74,9.74,0,0,0,19.47,0l.32-68.36c0-.58.07-46.86.08-57.93C78,90.44,84.56,81.87,86.7,69.41l.14-.83,0-.84C86.76,66.5,85.44,37.16,81.37,23.82Z"/><path class="cls-1" d="M139.65,55.05a18.06,18.06,0,1,0,36.13,0,17.54,17.54,0,0,0-.34-3.49H140A17.84,17.84,0,0,0,139.65,55.05Z"/><polygon class="cls-1" points="175.78 49.22 175.78 36.1 131.51 30.48 138.53 47.49 131.51 49.22 131.51 51.57 139.25 49.22 175.78 49.22"/><path class="cls-1" d="M244.25,217.27c-11.56-27.47-26.4-56.27-35.38-71.37,3.33-27.37-5.69-44.89-23.31-67-5.51-6.9-17.1-5.82-22.86-.12a16.3,16.3,0,0,0-3,4.09H121.57l-.16-.55h3.17l-4.43-8.2H95.26v8.2h19.82l.7,2.44a9.48,9.48,0,0,0,5.64,17.12h41.34a78.9,78.9,0,0,1,5.83,8.44c-9.82,6.28-19.57,12.69-29.48,18.84a9.36,9.36,0,0,0-3.66,4,11.27,11.27,0,0,0,.67,21.67v6a11.31,11.31,0,0,0,2.8,22.27v-2.69a8.62,8.62,0,1,1,8.63-8.63h2.68a11.34,11.34,0,0,0-8.62-11V154.9a11.31,11.31,0,0,0,8.56-10.23c8.72-5.43,17.32-11.05,26-16.6a50.64,50.64,0,0,1,1.26,20.26c-13,21.6-18.49,48.83-16,74.79a9.51,9.51,0,0,0,9.45,8.6,8,8,0,0,0,.92,0,9.51,9.51,0,0,0,8.56-10.37c-2.12-22.25,2.43-45.24,13.53-63.45,8.76,15,22.29,41.61,32.88,66.78a9.5,9.5,0,1,0,17.52-7.37ZM138.94,160.49h-.11v-5.27h.11Zm0-8a8.6,8.6,0,0,1-4.29-16.06c-.31,6.27,5.69,12.76,12.52,9.92A8.63,8.63,0,0,1,138.94,152.54Z"/></svg>
