<svg width="22" height="23" viewBox="0 0 22 23" fill="none" xmlns="http://www.w3.org/2000/svg">
<g clip-path="url(#clip0_3040_10758)">
<path fill-rule="evenodd" clip-rule="evenodd" d="M21.75 6.75C21.75 3.4363 19.0637 0.750002 15.75 0.750001L6.25 0.750001C2.9363 0.75 0.25 3.4363 0.249999 6.75L0.249999 16.25C0.249998 19.5637 2.9363 22.25 6.25 22.25L15.75 22.25C19.0637 22.25 21.75 19.5637 21.75 16.25L21.75 6.75ZM11.7 13.2264C11.3197 13.6279 10.6803 13.6279 10.3 13.2264L5.5445 8.2067C5.2596 7.906 4.7849 7.8932 4.4842 8.1781C4.1835 8.4629 4.1707 8.9376 4.4555 9.2383L9.211 14.258C10.183 15.284 11.817 15.284 12.7889 14.258L17.5445 9.2383C17.8293 8.9376 17.8165 8.4629 17.5158 8.1781C17.2151 7.8932 16.7404 7.906 16.4555 8.2067L11.7 13.2264Z" fill="#13005A"/>
</g>
<defs>
<clipPath id="clip0_3040_10758">
<rect width="22" height="23" fill="white" transform="translate(22 23) rotate(-180)"/>
</clipPath>
</defs>
</svg>
