<svg width="24" height="25" viewBox="0 0 24 25" fill="none" xmlns="http://www.w3.org/2000/svg">
<path fill-rule="evenodd" clip-rule="evenodd" d="M1.25 17.25C1.25 20.5637 3.93629 23.25 7.25 23.25L16.75 23.25C20.0637 23.25 22.75 20.5637 22.75 17.25L22.75 7.75C22.75 4.43629 20.0637 1.75 16.75 1.75L7.25 1.75C3.93629 1.75 1.25 4.43629 1.25 7.75L1.25 17.25ZM11.3 10.7736C11.6803 10.3721 12.3197 10.3721 12.7 10.7736L17.4555 15.7933C17.7404 16.094 18.2151 16.1068 18.5158 15.8219C18.8165 15.5371 18.8293 15.0624 18.5445 14.7617L13.789 9.74196C12.817 8.71598 11.183 8.71598 10.211 9.74196L5.45554 14.7617C5.17067 15.0624 5.18349 15.5371 5.48419 15.8219C5.78489 16.1068 6.25959 16.094 6.54447 15.7933L11.3 10.7736Z" fill="#13005A"/>
</svg>
