<svg width="7" height="16" viewBox="0 0 7 16" fill="none" xmlns="http://www.w3.org/2000/svg">
<path d="M6.02357 1.83607C5.97482 1.58582 5.85007 1.3332 5.62183 1.17907C5.16536 0.8708 4.52673 0.995624 4.21946 1.45311L0.204805 7.42426C-0.0198543 7.75815 -0.0221018 8.21115 0.199233 8.54725L4.15444 14.558C4.45716 15.0185 5.09451 15.1496 5.55402 14.8459C6.01354 14.5422 6.1447 13.9038 5.84098 13.4433L2.25698 7.99545L5.89486 2.58443C6.04899 2.35619 6.07233 2.08731 6.02357 1.83607Z" fill="#BBBEC8"/>
<path fill-rule="evenodd" clip-rule="evenodd" d="M2.23719 11.56L0.252097 8.55011C0.0298336 8.21311 0.0320045 7.77551 0.257601 7.44073L2.27246 4.45068L2.23719 11.56Z" fill="#666C87"/>
</svg>
