<svg width="16" height="17" viewBox="0 0 16 17" fill="none" xmlns="http://www.w3.org/2000/svg">
<path d="M7.33261 12.5C7.17395 12.5 6.98328 12.4287 6.85794 12.3014L4.19128 9.59339C3.93261 9.33072 3.93594 8.90872 4.19861 8.65072C4.46061 8.39272 4.88261 8.39538 5.14128 8.65805L7.33661 10.8874L13.5286 4.69605C13.7893 4.43538 14.2106 4.43538 14.4713 4.69605C14.7319 4.95605 14.7319 5.37872 14.4713 5.63872L7.80461 12.3054C7.67927 12.4301 7.50928 12.5 7.33261 12.5ZM7.80395 9.63805L11.8039 5.63805C12.0646 5.37805 12.0646 4.95538 11.8039 4.69538C11.5433 4.43471 11.1219 4.43471 10.8613 4.69538L6.86128 8.69538C6.60061 8.95538 6.60061 9.37805 6.86128 9.63805C6.99128 9.76805 7.16195 9.83338 7.33261 9.83338C7.50328 9.83338 7.67395 9.76805 7.80395 9.63805ZM5.13394 12.308C5.39661 12.0494 5.39928 11.6274 5.14128 11.3654L2.47461 8.65872C2.21594 8.39672 1.79394 8.39338 1.53194 8.65204C1.26928 8.91071 1.26661 9.33271 1.52461 9.59471L4.19128 12.3014C4.32128 12.4334 4.49395 12.5 4.66595 12.5C4.83461 12.5 5.00394 12.436 5.13394 12.308Z" fill="#009969"/>
</svg>
