<svg width="31" height="30" viewBox="0 0 31 30" fill="none" xmlns="http://www.w3.org/2000/svg">
<g clip-path="url(#clip0_22468_435)">
<mask id="mask0_22468_435" style="mask-type:luminance" maskUnits="userSpaceOnUse" x="0" y="0" width="31" height="30">
<path d="M31 0H0V30H31V0Z" fill="white"/>
</mask>
<g mask="url(#mask0_22468_435)">
<path d="M30.5 15C30.5 6.71573 23.7843 0 15.5 0C7.21573 0 0.5 6.71573 0.5 15C0.5 23.2843 7.21573 30 15.5 30C23.7843 30 30.5 23.2843 30.5 15Z" fill="white"/>
<path d="M10.5488 19.1811C10.2378 19.4921 10.2314 20.0444 10.5552 20.3681C10.8853 20.6918 11.4375 20.6855 11.7422 20.3808L15.5 16.623L19.2515 20.3745C19.5688 20.6918 20.1147 20.6918 20.4385 20.3681C20.7622 20.038 20.7622 19.4985 20.4448 19.1811L16.6934 15.4296L20.4448 11.6718C20.7622 11.3544 20.7686 10.8085 20.4385 10.4848C20.1147 10.1611 19.5688 10.1611 19.2515 10.4785L15.5 14.2299L11.7422 10.4785C11.4375 10.1674 10.8789 10.1547 10.5552 10.4848C10.2314 10.8085 10.2378 11.3671 10.5488 11.6718L14.3003 15.4296L10.5488 19.1811Z" fill="#111927"/>
</g>
</g>
<defs>
<clipPath id="clip0_22468_435">
<rect width="31" height="30" fill="white"/>
</clipPath>
</defs>
</svg>
