<svg width="24" height="24" viewBox="0 0 24 24" fill="none" xmlns="http://www.w3.org/2000/svg">
<path d="M5.79164 8.23735H5.70449C5.51859 8.21346 5.34444 8.13329 5.2054 8.00761C4.76522 7.68607 4.27176 7.4447 3.74772 7.29461C3.63272 7.28342 3.52106 7.24967 3.41911 7.1953C3.31716 7.14092 3.22692 7.06699 3.15356 6.97773C3.10435 6.90399 3.07057 6.82106 3.05423 6.73393C3.03789 6.6468 3.03934 6.55727 3.05849 6.47071C3.09811 6.24097 3.75564 2.8899 6.30658 2.08184C6.52131 2.01241 6.74779 1.98676 6.97262 2.00641C7.19744 2.02606 7.41604 2.09061 7.61548 2.19623C7.81492 2.30186 7.99114 2.44642 8.13372 2.62136C8.2763 2.7963 8.38233 2.99806 8.44556 3.21471C8.55647 3.59497 9.00011 5.59135 6.30658 8.04722C6.16307 8.16994 5.98046 8.23737 5.79164 8.23735ZM3.85863 6.49448C4.57024 6.67449 5.23311 7.00999 5.79956 7.47682C8.1762 5.30615 7.74049 3.61874 7.68503 3.43653C7.65061 3.32129 7.59371 3.21402 7.51762 3.12089C7.44153 3.02775 7.34775 2.95061 7.2417 2.8939C7.13564 2.83719 7.01941 2.80204 6.89971 2.79048C6.78 2.77891 6.65919 2.79116 6.54424 2.82652C4.64292 3.43653 3.98539 5.94785 3.85863 6.49448Z" fill="black" fill-opacity="0.4"/>
<path d="M3.70816 11.6914C3.47745 11.6876 3.25033 11.6336 3.0427 11.5329C2.79361 11.4177 2.57335 11.2485 2.39793 11.0374C2.22252 10.8264 2.09637 10.5789 2.02866 10.3129C1.91935 9.45887 2.12494 8.59425 2.60698 7.88082L2.78919 7.61938L5.73623 8.76018L5.68077 9.11667C5.68077 9.3068 5.3322 11.0338 4.33401 11.5646C4.13828 11.6556 3.92385 11.699 3.70816 11.6914ZM3.114 8.59381C2.83918 9.05323 2.72752 9.59198 2.79711 10.1228C2.83934 10.2753 2.91441 10.4167 3.01704 10.5371C3.11968 10.6575 3.2474 10.7541 3.39127 10.8199C3.47935 10.8658 3.57718 10.8897 3.67647 10.8897C3.77576 10.8897 3.87359 10.8658 3.96167 10.8199C4.42401 10.4064 4.73142 9.84743 4.8331 9.2355L3.114 8.59381Z" fill="black" fill-opacity="0.4"/>
<path d="M10.2202 17.6805C10.0195 17.6709 9.82749 17.5958 9.67356 17.4666C9.20429 17.1772 8.68615 16.9759 8.14459 16.8725C7.93448 16.8725 7.73297 16.789 7.5844 16.6404C7.43584 16.4919 7.35237 16.2904 7.35237 16.0803C7.33414 15.4234 7.39264 14.7667 7.52666 14.1235L7.50289 14.0126L7.6851 13.8224L7.9703 14.0918V13.7036H8.47732L8.35056 14.1948C8.20884 14.8101 8.14759 15.4412 8.16835 16.0723C8.88103 16.197 9.56053 16.4666 10.1647 16.8646C10.4338 16.4702 10.6646 16.0511 10.854 15.6129L11.5828 15.9297C11.353 16.4569 11.0689 16.9587 10.7351 17.427C10.6848 17.501 10.6191 17.5634 10.5425 17.6099C10.466 17.6563 10.3804 17.6858 10.2915 17.6964L10.2202 17.6805Z" fill="black"/>
<path d="M7.76423 21C7.52313 20.9967 7.28449 20.9511 7.05916 20.8653C6.84288 20.7918 6.64769 20.6669 6.49038 20.5013C6.33306 20.3357 6.21832 20.1344 6.15603 19.9146C5.86291 18.8135 6.94825 17.4112 7.04331 17.2607L7.24137 17.0072L10.0775 18.3936L10.0062 18.7025C9.80996 19.5392 9.31749 20.2765 8.61982 20.7781C8.35727 20.9215 8.06335 20.9977 7.76423 21ZM7.5028 18.0054C7.12212 18.49 6.92312 19.0926 6.94033 19.7087C6.96869 19.8074 7.02121 19.8974 7.09314 19.9708C7.16506 20.0441 7.25413 20.0983 7.35228 20.1285C7.49593 20.1864 7.6505 20.2121 7.80514 20.2039C7.95979 20.1957 8.11076 20.1537 8.24748 20.081C8.68037 19.7717 9.0003 19.3293 9.15853 18.8214L7.5028 18.0054Z" fill="black"/>
<path d="M11.4086 16.1595C10.1479 16.1595 8.93889 15.6587 8.04748 14.7673C7.15606 13.8759 6.65527 12.6669 6.65527 11.4062C6.65527 10.1456 7.15606 8.93658 8.04748 8.04516C8.93889 7.15375 10.1479 6.65295 11.4086 6.65295C12.6692 6.65295 13.8782 7.15375 14.7696 8.04516C15.6611 8.93658 16.1619 10.1456 16.1619 11.4062C16.1601 12.3707 15.8675 13.3122 15.3221 14.1077C14.9892 14.5846 14.5732 14.9979 14.0942 15.3277C13.9265 15.4458 13.7489 15.5491 13.5634 15.6367C12.899 15.9855 12.1589 16.1651 11.4086 16.1595ZM11.4086 7.44517C10.8884 7.44517 10.3733 7.54763 9.89273 7.74669C9.41215 7.94575 8.97548 8.23752 8.60766 8.60534C8.23984 8.97316 7.94807 9.40983 7.74901 9.89041C7.54994 10.371 7.44749 10.8861 7.44749 11.4062C7.44749 11.9264 7.54994 12.4415 7.74901 12.9221C7.94807 13.4027 8.23984 13.8393 8.60766 14.2071C8.97548 14.575 9.41215 14.8667 9.89273 15.0658C10.3733 15.2649 10.8884 15.3673 11.4086 15.3673C12.0373 15.3649 12.6565 15.2128 13.2148 14.9237C13.3663 14.8504 13.512 14.7656 13.6505 14.6702C14.048 14.3915 14.3938 14.0457 14.6725 13.6482C15.1276 12.9863 15.3708 12.2016 15.3696 11.3983C15.3691 10.5587 15.1017 9.741 14.6062 9.06321C14.1107 8.38542 13.4126 7.88262 12.6127 7.62738C12.2239 7.50072 11.8175 7.43654 11.4086 7.43725V7.44517Z" fill="black"/>
<path d="M9.08743 14.0998C8.98295 14.0983 8.88329 14.0556 8.81016 13.981C8.47121 13.6425 8.20232 13.2405 8.01886 12.7981C7.8354 12.3556 7.74097 11.8813 7.74097 11.4023C7.74097 10.9233 7.8354 10.449 8.01886 10.0065C8.20232 9.56407 8.47121 9.16211 8.81016 8.82365C8.88474 8.74906 8.98591 8.70715 9.09139 8.70715C9.19688 8.70715 9.29804 8.74906 9.37263 8.82365C9.44722 8.89823 9.48912 8.9994 9.48912 9.10488C9.48912 9.21037 9.44722 9.31153 9.37263 9.38612C9.10699 9.6504 8.8962 9.96457 8.75236 10.3106C8.60852 10.6566 8.53447 11.0276 8.53447 11.4023C8.53447 11.777 8.60852 12.148 8.75236 12.494C8.8962 12.84 9.10699 13.1542 9.37263 13.4185C9.44571 13.4939 9.48658 13.5947 9.48658 13.6997C9.48658 13.8047 9.44571 13.9056 9.37263 13.981C9.29706 14.0568 9.19449 14.0995 9.08743 14.0998Z" fill="black" fill-opacity="0.4"/>
<path d="M16.1697 17.8311L13.2544 14.9236L13.6426 14.6543C14.0443 14.378 14.3931 14.0319 14.6725 13.6323L14.9418 13.2441L17.8413 16.1436L16.1697 17.8311ZM14.4665 15.0187L16.1697 16.714L16.7243 16.1516L15.0369 14.4562C14.8614 14.6629 14.6707 14.8562 14.4665 15.0345V15.0187Z" fill="black"/>
<path d="M19.2434 20.9999C19.0871 21.0015 18.9322 20.9715 18.7878 20.9116C18.6435 20.8517 18.5128 20.7631 18.4037 20.6513L16.1617 18.4173C15.9387 18.1931 15.8135 17.8898 15.8135 17.5736C15.8135 17.2574 15.9387 16.954 16.1617 16.7299L16.7242 16.1753C16.834 16.0642 16.9647 15.9759 17.1089 15.9157C17.253 15.8555 17.4077 15.8245 17.5639 15.8245C17.7201 15.8245 17.8748 15.8555 18.019 15.9157C18.1631 15.9759 18.2939 16.0642 18.4037 16.1753L20.6456 18.4173C20.8662 18.6411 20.9899 18.9427 20.9899 19.257C20.9899 19.5713 20.8662 19.8729 20.6456 20.0968L20.0832 20.6513C19.974 20.7631 19.8433 20.8517 19.699 20.9116C19.5546 20.9715 19.3997 21.0015 19.2434 20.9999ZM17.5639 16.611C17.4606 16.6104 17.3611 16.6502 17.2866 16.7219L16.7242 17.2844C16.6859 17.3213 16.6556 17.3656 16.6352 17.4147C16.6147 17.4637 16.6046 17.5165 16.6053 17.5696C16.6056 17.6214 16.6163 17.6726 16.6367 17.7203C16.6571 17.7679 16.6869 17.8109 16.7242 17.8469L18.9661 20.0888C19.0405 20.1606 19.1401 20.2004 19.2434 20.1998C19.2947 20.2009 19.3457 20.1917 19.3934 20.1727C19.441 20.1536 19.4843 20.1251 19.5207 20.0888L20.0832 19.5264C20.1203 19.4896 20.1498 19.4457 20.1699 19.3975C20.19 19.3492 20.2003 19.2974 20.2003 19.2451C20.2003 19.1928 20.19 19.1411 20.1699 19.0928C20.1498 19.0445 20.1203 19.0007 20.0832 18.9639L17.8412 16.7219C17.7668 16.6502 17.6673 16.6104 17.5639 16.611Z" fill="black"/>
</svg>
