<svg width="15" height="6" viewBox="0 0 15 6" fill="none" xmlns="http://www.w3.org/2000/svg">
<path d="M0.82652 0.041686C0.57652 0.0916859 0.324521 0.217684 0.171521 0.446684C-0.134479 0.904683 -0.00648811 1.54268 0.452512 1.84768L6.44351 5.83266C6.77851 6.05566 7.23151 6.05566 7.56651 5.83266L13.5575 1.84768C14.0165 1.54268 14.1445 0.904683 13.8385 0.446684C13.5325 -0.0113151 12.8935 -0.139314 12.4345 0.166686L7.00452 3.77767L1.57551 0.166686C1.34651 0.0136861 1.07752 -0.00831388 0.82652 0.041686Z" fill="black" fill-opacity="0.4"/>
<path fill-rule="evenodd" clip-rule="evenodd" d="M10.5547 3.83203L7.55472 5.83203C7.21882 6.05596 6.78122 6.05596 6.44532 5.83203L3.44531 3.83203L10.5547 3.83203Z" fill="black"/>
</svg>
