<svg width="25" height="24" viewBox="0 0 25 24" fill="none" xmlns="http://www.w3.org/2000/svg">
<path fill-rule="evenodd" clip-rule="evenodd" d="M4.68808 0C3.56917 0 2.66211 0.89543 2.66211 2V22C2.66211 23.1046 3.56917 24 4.68808 24H20.8959C22.0148 24 22.9219 23.1046 22.9219 22V0H4.68808ZM22.9218 1.57356e-05V4L18.8699 1.53859e-05L22.9218 1.57356e-05Z" fill="#E2E8F0"/>
<path fill-rule="evenodd" clip-rule="evenodd" d="M18.8699 0V3.99998H22.9218L18.8699 0Z" fill="#94A3B8"/>
<path fill-rule="evenodd" clip-rule="evenodd" d="M22.9219 8V4H18.8699L22.9219 8Z" fill="#CBD5E1"/>
<rect x="1.63623" y="10" width="22" height="10" rx="1" fill="#3B82F6"/>
<path d="M4.42204 15.312V18.104H3.83004V11.408H5.98204C6.38204 11.408 6.72871 11.4587 7.02204 11.56C7.32071 11.6613 7.56604 11.8 7.75804 11.976C7.95004 12.1467 8.09138 12.3493 8.18204 12.584C8.27271 12.8133 8.31804 13.056 8.31804 13.312C8.31804 13.5733 8.27271 13.824 8.18204 14.064C8.09138 14.304 7.95004 14.5173 7.75804 14.704C7.56604 14.8907 7.32071 15.04 7.02204 15.152C6.72871 15.2587 6.38204 15.312 5.98204 15.312H4.42204ZM4.42204 11.976V14.744H5.87804C6.45404 14.744 6.90204 14.6293 7.22204 14.4C7.54204 14.1707 7.70204 13.808 7.70204 13.312C7.70204 13.1093 7.67004 12.928 7.60604 12.768C7.54204 12.608 7.43804 12.4693 7.29404 12.352C7.15538 12.2347 6.96871 12.144 6.73404 12.08C6.49938 12.0107 6.21404 11.976 5.87804 11.976H4.42204ZM9.99254 12.224V18.104H9.39254V11.408H10.1765L13.8245 17.288V11.408H14.4245V18.104H13.6405L9.99254 12.224ZM19.1228 18.184C18.6001 18.184 18.1281 18.096 17.7068 17.92C17.2908 17.7387 16.9361 17.4933 16.6428 17.184C16.3548 16.8747 16.1308 16.512 15.9708 16.096C15.8161 15.6747 15.7388 15.2267 15.7388 14.752C15.7388 14.2773 15.8161 13.832 15.9708 13.416C16.1308 12.9947 16.3548 12.6293 16.6428 12.32C16.9361 12.0107 17.2908 11.768 17.7068 11.592C18.1281 11.4107 18.6001 11.32 19.1228 11.32C19.5335 11.32 19.9201 11.368 20.2828 11.464C20.6455 11.5547 20.9975 11.704 21.3388 11.912L21.0748 12.416C20.7708 12.2347 20.4615 12.1013 20.1468 12.016C19.8321 11.9253 19.4908 11.88 19.1228 11.88C18.7495 11.88 18.3948 11.944 18.0588 12.072C17.7281 12.2 17.4348 12.3867 17.1788 12.632C16.9281 12.8773 16.7281 13.1787 16.5788 13.536C16.4295 13.888 16.3548 14.2933 16.3548 14.752C16.3548 15.2107 16.4295 15.6187 16.5788 15.976C16.7281 16.328 16.9281 16.6267 17.1788 16.872C17.4348 17.1173 17.7281 17.304 18.0588 17.432C18.3948 17.56 18.7495 17.624 19.1228 17.624C19.4321 17.624 19.7441 17.5893 20.0588 17.52C20.3735 17.4453 20.6375 17.3573 20.8508 17.256V15.432H18.9148V14.848H21.4428V17.592C21.1228 17.7893 20.7601 17.936 20.3548 18.032C19.9548 18.1333 19.5441 18.184 19.1228 18.184Z" fill="white"/>
</svg>
