<svg width="25" height="24" viewBox="0 0 25 24" fill="none" xmlns="http://www.w3.org/2000/svg">
<path fill-rule="evenodd" clip-rule="evenodd" d="M4.68808 0C3.56917 0 2.66211 0.89543 2.66211 2V22C2.66211 23.1046 3.56917 24 4.68808 24H20.8959C22.0148 24 22.9219 23.1046 22.9219 22V0H4.68808ZM22.9218 1.57356e-05V4L18.8699 1.53859e-05L22.9218 1.57356e-05Z" fill="#E2E8F0"/>
<path fill-rule="evenodd" clip-rule="evenodd" d="M18.8699 0V3.99998H22.9218L18.8699 0Z" fill="#94A3B8"/>
<path fill-rule="evenodd" clip-rule="evenodd" d="M22.9219 8V4H18.8699L22.9219 8Z" fill="#CBD5E1"/>
<rect x="1.63623" y="10" width="22" height="10" rx="1" fill="#A855F7"/>
<path d="M4.60795 17.336C4.78928 17.4373 4.95462 17.512 5.10395 17.56C5.25862 17.6027 5.42928 17.624 5.61595 17.624C5.86128 17.624 6.05862 17.552 6.20795 17.408C6.36262 17.2587 6.43995 17.0107 6.43995 16.664V11.408H7.03195V16.6C7.03195 16.8933 6.99462 17.1413 6.91995 17.344C6.84528 17.5467 6.74128 17.712 6.60795 17.84C6.47995 17.968 6.33062 18.056 6.15995 18.104C5.98928 18.1573 5.80795 18.184 5.61595 18.184C5.38128 18.184 5.16795 18.1573 4.97595 18.104C4.78395 18.056 4.57595 17.9787 4.35195 17.872L4.60795 17.336ZM9.41814 15.312V18.104H8.82614V11.408H10.9781C11.3781 11.408 11.7248 11.4587 12.0181 11.56C12.3168 11.6613 12.5621 11.8 12.7541 11.976C12.9461 12.1467 13.0875 12.3493 13.1781 12.584C13.2688 12.8133 13.3141 13.056 13.3141 13.312C13.3141 13.5733 13.2688 13.824 13.1781 14.064C13.0875 14.304 12.9461 14.5173 12.7541 14.704C12.5621 14.8907 12.3168 15.04 12.0181 15.152C11.7248 15.2587 11.3781 15.312 10.9781 15.312H9.41814ZM9.41814 11.976V14.744H10.8741C11.4501 14.744 11.8981 14.6293 12.2181 14.4C12.5381 14.1707 12.6981 13.808 12.6981 13.312C12.6981 13.1093 12.6661 12.928 12.6021 12.768C12.5381 12.608 12.4341 12.4693 12.2901 12.352C12.1515 12.2347 11.9648 12.144 11.7301 12.08C11.4955 12.0107 11.2101 11.976 10.8741 11.976H9.41814ZM17.3689 18.184C16.8462 18.184 16.3742 18.096 15.9529 17.92C15.5369 17.7387 15.1822 17.4933 14.8889 17.184C14.6009 16.8747 14.3769 16.512 14.2169 16.096C14.0622 15.6747 13.9849 15.2267 13.9849 14.752C13.9849 14.2773 14.0622 13.832 14.2169 13.416C14.3769 12.9947 14.6009 12.6293 14.8889 12.32C15.1822 12.0107 15.5369 11.768 15.9529 11.592C16.3742 11.4107 16.8462 11.32 17.3689 11.32C17.7796 11.32 18.1662 11.368 18.5289 11.464C18.8916 11.5547 19.2436 11.704 19.5849 11.912L19.3209 12.416C19.0169 12.2347 18.7076 12.1013 18.3929 12.016C18.0782 11.9253 17.7369 11.88 17.3689 11.88C16.9956 11.88 16.6409 11.944 16.3049 12.072C15.9742 12.2 15.6809 12.3867 15.4249 12.632C15.1742 12.8773 14.9742 13.1787 14.8249 13.536C14.6756 13.888 14.6009 14.2933 14.6009 14.752C14.6009 15.2107 14.6756 15.6187 14.8249 15.976C14.9742 16.328 15.1742 16.6267 15.4249 16.872C15.6809 17.1173 15.9742 17.304 16.3049 17.432C16.6409 17.56 16.9956 17.624 17.3689 17.624C17.6782 17.624 17.9902 17.5893 18.3049 17.52C18.6196 17.4453 18.8836 17.3573 19.0969 17.256V15.432H17.1609V14.848H19.6889V17.592C19.3689 17.7893 19.0062 17.936 18.6009 18.032C18.2009 18.1333 17.7902 18.184 17.3689 18.184Z" fill="white"/>
</svg>
