<svg width="25" height="24" viewBox="0 0 25 24" fill="none" xmlns="http://www.w3.org/2000/svg">
<path fill-rule="evenodd" clip-rule="evenodd" d="M4.68808 0C3.56917 0 2.66211 0.89543 2.66211 2V22C2.66211 23.1046 3.56917 24 4.68808 24H20.8959C22.0148 24 22.9219 23.1046 22.9219 22V0H4.68808ZM22.9218 1.57356e-05V4L18.8699 1.53859e-05L22.9218 1.57356e-05Z" fill="#E2E8F0"/>
<path fill-rule="evenodd" clip-rule="evenodd" d="M18.8699 0V3.99998H22.9218L18.8699 0Z" fill="#94A3B8"/>
<path fill-rule="evenodd" clip-rule="evenodd" d="M22.9219 8V4H18.8699L22.9219 8Z" fill="#CBD5E1"/>
<rect x="1.63623" y="10" width="22" height="10" rx="1" fill="#F43F5E"/>
<path d="M5.63298 15.312V18.104H5.04098V11.408H7.19298C7.59298 11.408 7.93965 11.4587 8.23298 11.56C8.53165 11.6613 8.77698 11.8 8.96898 11.976C9.16098 12.1467 9.30231 12.3493 9.39298 12.584C9.48365 12.8133 9.52898 13.056 9.52898 13.312C9.52898 13.5733 9.48365 13.824 9.39298 14.064C9.30231 14.304 9.16098 14.5173 8.96898 14.704C8.77698 14.8907 8.53165 15.04 8.23298 15.152C7.93965 15.2587 7.59298 15.312 7.19298 15.312H5.63298ZM5.63298 11.976V14.744H7.08898C7.66498 14.744 8.11298 14.6293 8.43298 14.4C8.75298 14.1707 8.91298 13.808 8.91298 13.312C8.91298 13.1093 8.88098 12.928 8.81698 12.768C8.75298 12.608 8.64898 12.4693 8.50498 12.352C8.36631 12.2347 8.17965 12.144 7.94498 12.08C7.71031 12.0107 7.42498 11.976 7.08898 11.976H5.63298ZM12.1075 17.536C12.6195 17.536 13.0701 17.472 13.4595 17.344C13.8541 17.2107 14.1821 17.024 14.4435 16.784C14.7101 16.5387 14.9128 16.2453 15.0515 15.904C15.1901 15.5627 15.2595 15.1787 15.2595 14.752C15.2595 14.3253 15.1821 13.9413 15.0275 13.6C14.8728 13.2587 14.6568 12.968 14.3795 12.728C14.1021 12.488 13.7688 12.304 13.3795 12.176C12.9955 12.0427 12.5715 11.976 12.1075 11.976H11.1955V17.536H12.1075ZM10.6035 11.408H12.1155C12.6541 11.408 13.1501 11.48 13.6035 11.624C14.0621 11.7627 14.4595 11.976 14.7955 12.264C15.1368 12.5467 15.4008 12.896 15.5875 13.312C15.7795 13.728 15.8755 14.208 15.8755 14.752C15.8755 15.296 15.7795 15.7787 15.5875 16.2C15.4008 16.616 15.1368 16.9653 14.7955 17.248C14.4595 17.5307 14.0621 17.744 13.6035 17.888C13.1501 18.032 12.6541 18.104 12.1155 18.104H10.6035V11.408ZM17.1894 18.104V11.408H21.0294V11.976H17.7814V14.328H20.6934V14.912H17.7814V18.104H17.1894Z" fill="white"/>
</svg>
