<svg width="25" height="24" viewBox="0 0 25 24" fill="none" xmlns="http://www.w3.org/2000/svg">
<path d="M12.7496 14.8799C11.8396 14.8799 11.0996 14.1399 11.0996 13.2299V10.7599C11.0996 9.84989 11.8396 9.10986 12.7496 9.10986C13.6596 9.10986 14.3996 9.84989 14.3996 10.7599V13.2299C14.3996 14.1399 13.6596 14.8799 12.7496 14.8799Z" stroke="white" stroke-width="1.5" stroke-linecap="round"/>
<path d="M17.73 13.4702C17.53 16.0502 15.37 18.0702 12.75 18.0702C9.99 18.0702 7.75 15.8302 7.75 13.0702V10.9302C7.75 8.17018 9.99 5.93018 12.75 5.93018C15.34 5.93018 17.47 7.90017 17.72 10.4202" stroke="white" stroke-width="1.5" stroke-linecap="round"/>
<path d="M15.75 2H17.75C20.75 2 22.75 4 22.75 7V9" stroke="white" stroke-width="1.5" stroke-miterlimit="10" stroke-linecap="round" stroke-linejoin="round"/>
<path d="M2.75 9V7C2.75 4 4.75 2 7.75 2H9.75" stroke="white" stroke-width="1.5" stroke-miterlimit="10" stroke-linecap="round" stroke-linejoin="round"/>
<path d="M15.75 22H17.75C20.75 22 22.75 20 22.75 17V15" stroke="white" stroke-width="1.5" stroke-miterlimit="10" stroke-linecap="round" stroke-linejoin="round"/>
<path d="M2.75 15V17C2.75 20 4.75 22 7.75 22H9.75" stroke="white" stroke-width="1.5" stroke-miterlimit="10" stroke-linecap="round" stroke-linejoin="round"/>
</svg>
