<svg width="34" height="34" viewBox="0 0 34 34" fill="none" xmlns="http://www.w3.org/2000/svg">
<path fill-rule="evenodd" clip-rule="evenodd" d="M16.8993 0.0682144C16.8577 0.107559 16.8237 0.124557 16.8237 0.105833C16.8237 0.0871964 16.7696 0.119984 16.7034 0.178828C16.6372 0.237673 16.5831 0.270029 16.5831 0.250788C16.5831 0.231547 16.4747 0.289442 16.3424 0.379434C16.21 0.469427 16.0886 0.543112 16.0725 0.543112C16.0566 0.543112 15.9792 0.594277 15.9005 0.656918C15.8219 0.719473 15.7315 0.770724 15.6997 0.770724C15.6679 0.770724 15.6111 0.810932 15.5737 0.860113C15.5363 0.909294 15.4449 0.962098 15.3706 0.977543C15.2963 0.992987 15.2356 1.02448 15.2356 1.04752C15.2356 1.07056 15.2048 1.08945 15.1674 1.08945C15.1299 1.08945 15.0919 1.10498 15.0832 1.12405C15.0743 1.14303 14.6881 1.38272 14.2249 1.6565C13.1053 2.31837 12.7484 2.53313 12.5085 2.68921C12.3984 2.761 12.2846 2.81967 12.2559 2.81967C12.2271 2.81967 12.2036 2.83779 12.2036 2.85988C12.2036 2.88196 12.1657 2.91216 12.1194 2.92683C12.0375 2.95289 11.8672 3.04685 11.8186 3.09284C11.7838 3.12571 11.6141 3.22476 11.5298 3.26135C11.4391 3.30069 11.3133 3.417 11.3133 3.46144C11.3133 3.4799 11.2936 3.51208 11.2694 3.53296C11.2436 3.55531 11.2411 3.54556 11.2634 3.50915C11.317 3.42157 11.11 3.48741 10.9848 3.59768C10.9324 3.64384 10.8712 3.67084 10.8488 3.65773C10.8263 3.64461 10.8079 3.65678 10.8079 3.68473C10.8079 3.71278 10.7861 3.72287 10.7594 3.70734C10.7328 3.69172 10.698 3.71088 10.6823 3.74988C10.6664 3.78888 10.6339 3.80941 10.61 3.79543C10.5861 3.78146 10.5537 3.80199 10.5378 3.84099C10.522 3.87999 10.4897 3.90053 10.466 3.88672C10.4423 3.87283 10.4229 3.88318 10.4229 3.90976C10.4229 3.93625 10.3904 3.9579 10.3508 3.9579C10.311 3.9579 10.2785 3.97965 10.2785 4.00614C10.2785 4.03271 10.2602 4.04367 10.2377 4.03047C10.2152 4.01735 10.1526 4.04565 10.0984 4.09337C10.0443 4.14108 9.98742 4.16817 9.97201 4.15359C9.9565 4.13901 9.93033 4.16058 9.91364 4.20156C9.89704 4.24255 9.86731 4.26671 9.84761 4.25523C9.82791 4.24367 9.76617 4.27456 9.71036 4.32374C9.65445 4.37301 9.58624 4.41322 9.55869 4.41322C9.53106 4.41322 9.50853 4.43496 9.50853 4.46145C9.50853 4.48802 9.48683 4.497 9.46038 4.48155C9.43393 4.46611 9.41223 4.47508 9.41223 4.50165C9.41223 4.52814 9.37976 4.54989 9.34009 4.54989C9.30032 4.54989 9.26786 4.57034 9.26786 4.59536C9.26786 4.62047 9.24077 4.64091 9.20767 4.64091C9.17456 4.64091 8.96535 4.7536 8.74282 4.8913C8.5203 5.0291 8.32942 5.14178 8.31856 5.14178C8.3078 5.14178 8.22791 5.19295 8.14118 5.25559C8.05445 5.31823 7.95842 5.36939 7.92787 5.36939C7.89722 5.36939 7.87223 5.38665 7.87223 5.40779C7.87223 5.42884 7.79161 5.48519 7.69303 5.53299C7.59453 5.58079 7.47041 5.65646 7.41733 5.70132C7.36416 5.7461 7.2715 5.79442 7.2114 5.80866C7.15139 5.82289 7.10224 5.85283 7.10224 5.87518C7.10224 5.89753 7.06968 5.91582 7.03001 5.91582C6.99033 5.91582 6.95778 5.93748 6.95778 5.96405C6.95778 5.99054 6.93799 6.00064 6.91382 5.98649C6.88956 5.97233 6.86256 5.98088 6.85363 6.00547C6.84478 6.03006 6.63174 6.16984 6.3803 6.31617L5.92312 6.58209L5.89312 7.8312C5.82754 10.5554 5.20264 12.9335 4.1388 14.5069C4.04879 14.64 3.98988 14.7489 4.00784 14.7489C4.02581 14.7489 3.99845 14.779 3.9471 14.8157C3.89567 14.8525 3.86885 14.8833 3.88746 14.8841C3.90606 14.8849 3.86812 14.9397 3.80328 15.006C3.73835 15.0723 3.68527 15.1493 3.68527 15.1772C3.68527 15.2051 3.64104 15.254 3.58714 15.2858C3.53315 15.3177 3.50096 15.3621 3.51546 15.3843C3.53005 15.4067 3.47679 15.4689 3.39708 15.5226C3.31728 15.5762 3.25207 15.646 3.25207 15.6774C3.25207 15.7089 3.1989 15.782 3.13388 15.8397C3.06894 15.8976 3.02015 15.9668 3.02562 15.9936C3.0311 16.0204 3.00301 16.0434 2.96333 16.0445C2.92366 16.0456 2.8911 16.0705 2.8911 16.0997C2.8911 16.1289 2.87141 16.1699 2.84733 16.1907C2.82216 16.2126 2.81732 16.2058 2.83611 16.1749C2.91217 16.0493 2.76853 16.0814 2.64715 16.2171C2.57428 16.2987 2.49594 16.3599 2.47296 16.3535C2.45006 16.347 2.41869 16.3726 2.40337 16.4104C2.38805 16.4482 2.35057 16.4791 2.32001 16.4791C2.28946 16.4791 2.21058 16.5264 2.14473 16.5842C2.07879 16.6421 2.00319 16.6931 1.97674 16.6976C1.95029 16.7023 1.89612 16.7323 1.85645 16.7645C1.81668 16.7967 1.76625 16.825 1.74418 16.8275C1.7222 16.83 1.61395 16.888 1.5036 16.9563C1.39325 17.0247 1.26694 17.0872 1.22289 17.0952C1.17884 17.1033 0.994796 17.1707 0.813857 17.2451C0.632917 17.3195 0.371175 17.418 0.232187 17.4641C-0.0689536 17.5637 -0.0631168 17.4842 0.168712 18.3231C0.527673 19.6227 1.25481 21.2612 2.02754 22.512C2.12038 22.6623 2.21769 22.8262 2.24368 22.8763C2.26967 22.9264 2.33424 23.0288 2.38714 23.1039C2.43994 23.1791 2.4963 23.2764 2.51226 23.3202C2.52831 23.3641 2.55704 23.3999 2.57619 23.3999C2.59535 23.3999 2.65234 23.4818 2.70296 23.5819C2.75349 23.6819 2.81951 23.7552 2.84961 23.7447C2.88308 23.7328 2.89494 23.7594 2.88007 23.8131C2.86676 23.8613 2.88007 23.9007 2.90962 23.9007C2.93917 23.9007 2.96333 23.9315 2.96333 23.9691C2.96333 24.0066 2.98495 24.0373 3.01149 24.0373C3.03794 24.0373 3.05955 24.0681 3.05955 24.1057C3.05955 24.1432 3.08126 24.1739 3.1077 24.1739C3.13415 24.1739 3.15586 24.2069 3.15586 24.2471C3.15586 24.2919 3.18258 24.3106 3.22471 24.2952C3.27287 24.2778 3.28819 24.2969 3.2756 24.3586C3.26575 24.4073 3.27551 24.4471 3.2974 24.4471C3.31919 24.4471 3.3492 24.4907 3.36388 24.5441C3.38294 24.6128 3.41459 24.6324 3.47259 24.6114C3.5368 24.5881 3.543 24.5947 3.50114 24.6424C3.46028 24.689 3.48007 24.7368 3.58531 24.8458C3.66092 24.9241 3.71126 24.9992 3.69713 25.0126C3.68299 25.026 3.70707 25.0499 3.75057 25.0656C3.79398 25.0814 3.82964 25.1227 3.82964 25.1574C3.82964 25.192 3.87296 25.246 3.92585 25.2773C3.97884 25.3085 4.02207 25.3512 4.02207 25.3719C4.02207 25.5505 6.6487 28.2261 6.76015 28.161C6.7834 28.1474 6.8321 28.1706 6.86813 28.2127C6.91327 28.2653 6.915 28.2786 6.8736 28.2551C6.772 28.1973 6.80693 28.2956 6.92531 28.4009C7.04743 28.5094 7.13689 28.4837 7.04305 28.3671C7.01104 28.3272 7.04305 28.3436 7.11418 28.4036C7.18541 28.4636 7.23229 28.5301 7.21842 28.5512C7.19334 28.5897 7.26649 28.6621 7.6156 28.9446C7.71701 29.0268 7.90835 29.1851 8.04068 29.2965C8.17301 29.408 8.29595 29.4996 8.31391 29.5001C8.33188 29.5006 8.3752 29.5276 8.41022 29.5601C8.66904 29.8 10.1106 30.7527 10.9764 31.2558C11.1882 31.3789 11.39 31.5057 11.425 31.5376C11.4599 31.5695 11.5177 31.5956 11.5533 31.5956C11.5889 31.5956 11.6253 31.612 11.6341 31.6319C11.6429 31.6519 11.8446 31.7576 12.0823 31.8668C12.3199 31.9761 12.6004 32.1244 12.7054 32.1964C12.8106 32.2684 12.9894 32.3495 13.103 32.3765C13.2164 32.4035 13.2961 32.4458 13.28 32.4705C13.2639 32.4951 13.2993 32.4907 13.3586 32.4606C13.4448 32.4171 13.4589 32.4177 13.4287 32.4638C13.4017 32.5052 13.4145 32.5131 13.4735 32.4917C13.5189 32.4752 13.5448 32.479 13.5311 32.5001C13.503 32.5431 13.5152 32.5489 14.4174 32.9221C14.7748 33.0698 15.1321 33.2191 15.2115 33.2539C15.3596 33.3188 15.8677 33.4994 16.7997 33.8186L17.3291 34L17.8585 33.8279C18.5075 33.6172 19.0432 33.4256 19.5188 33.2343C20.0121 33.036 21.0402 32.601 21.1923 32.5264C21.2607 32.4928 21.3344 32.4757 21.3562 32.4884C21.378 32.5012 21.3957 32.4887 21.3957 32.4606C21.3957 32.4327 21.4174 32.4224 21.4439 32.4379C21.4703 32.4534 21.492 32.4431 21.492 32.4152C21.492 32.3871 21.5137 32.3769 21.5401 32.3924C21.5666 32.4078 21.5883 32.4035 21.5883 32.3827C21.5883 32.3145 22.004 32.1265 22.0699 32.1649C22.1112 32.1891 22.1208 32.1837 22.0982 32.149C22.0793 32.1201 22.0868 32.0938 22.1148 32.0907C22.2157 32.0794 22.2397 32.0702 22.3583 31.9968C22.4244 31.9558 22.5903 31.8641 22.7268 31.7931C23.4696 31.4065 25.4638 30.1638 25.5778 30.0164C25.5937 29.9958 25.6988 29.9199 25.8113 29.8477C25.9238 29.7755 26.0158 29.6987 26.0158 29.6771C26.0158 29.6554 26.0444 29.6377 26.0794 29.6377C26.1143 29.6377 26.1905 29.5916 26.2485 29.5352C26.3066 29.4789 26.431 29.3714 26.5249 29.2962C26.6188 29.2211 26.7625 29.0938 26.8444 29.0132C26.9262 28.9327 27.0061 28.8725 27.0218 28.8794C27.0376 28.8862 27.1587 28.7779 27.2909 28.6388C27.423 28.4995 27.4663 28.4369 27.3871 28.4994L27.2431 28.6132L27.3501 28.4979C27.4089 28.4344 27.5058 28.379 27.5655 28.3747C27.6679 28.3674 27.8272 28.2215 28.7271 27.3115C29.1898 26.8435 29.7697 26.2041 29.7697 26.1619C29.7697 26.1481 29.8454 26.0589 29.9379 25.9636C30.0304 25.8682 30.1062 25.776 30.1064 25.7585C30.1065 25.741 30.1607 25.6714 30.2269 25.6039C30.2931 25.5363 30.3472 25.4555 30.3472 25.4243C30.3472 25.3931 30.3797 25.3557 30.4194 25.3413C30.4591 25.3269 30.4916 25.2859 30.4916 25.2502C30.4916 25.2146 30.5254 25.1731 30.5668 25.1581C30.6082 25.143 30.63 25.1122 30.6153 25.0896C30.6005 25.067 30.6221 25.0363 30.6633 25.0214C30.7045 25.0064 30.7248 24.9734 30.7082 24.948C30.6916 24.9226 30.7118 24.8895 30.7532 24.8744C30.7947 24.8594 30.8285 24.8186 30.8285 24.7838C30.8285 24.7488 30.8501 24.7203 30.8766 24.7203C30.9031 24.7203 30.9247 24.6918 30.9247 24.6569C30.9247 24.622 30.9586 24.5812 30.9999 24.5662C31.0413 24.5511 31.0618 24.5182 31.0453 24.493C31.0288 24.4678 31.0395 24.4471 31.0691 24.4471C31.0987 24.4471 31.1096 24.4266 31.0931 24.4016C31.0768 24.3766 31.0864 24.3561 31.1144 24.3561C31.1424 24.3561 31.1654 24.3253 31.1654 24.2878C31.1654 24.2502 31.187 24.2195 31.2135 24.2195C31.24 24.2195 31.2616 24.1902 31.2616 24.1544C31.2616 24.1186 31.2912 24.0613 31.3274 24.0271C31.3636 23.9928 31.4084 23.9196 31.4269 23.8645C31.4454 23.8093 31.4808 23.7642 31.5055 23.7642C31.5302 23.7642 31.5503 23.7349 31.5503 23.6991C31.5503 23.6633 31.5777 23.607 31.6111 23.5739C31.6444 23.5408 31.6987 23.4625 31.7315 23.3999C31.7644 23.3373 31.9114 23.0812 32.0582 22.8308C32.205 22.5804 32.3798 22.2628 32.4465 22.1251C32.5133 21.9873 32.6186 21.7722 32.6803 21.647C33.3192 20.3519 34.1329 17.8048 33.9816 17.5732C33.9518 17.5275 33.5429 17.3442 33.4707 17.3442C33.4484 17.3442 33.3158 17.2957 33.176 17.2363C33.0363 17.177 32.864 17.1155 32.793 17.0996C32.7221 17.0838 32.6354 17.0445 32.6005 17.0123C32.4933 16.9135 32.1761 16.7426 32.1746 16.7827C32.1738 16.8035 32.1508 16.7843 32.1234 16.7399C32.0962 16.6956 32.0558 16.6699 32.0337 16.6828C32.0116 16.6957 31.9806 16.6744 31.9648 16.6354C31.949 16.5964 31.9165 16.5758 31.8926 16.5898C31.8688 16.6038 31.8359 16.5822 31.8196 16.542C31.8016 16.4978 31.7544 16.4775 31.7005 16.4908C31.6399 16.5059 31.6131 16.4896 31.6169 16.4402C31.62 16.4002 31.5987 16.367 31.5694 16.3664C31.5402 16.3658 31.4566 16.2981 31.3835 16.216C31.2876 16.1082 31.2344 16.0795 31.1918 16.113C31.1495 16.1462 31.1001 16.124 31.0168 16.0346L30.9006 15.91L31.0451 16.0236L31.1895 16.1373L31.0497 15.9911C30.9729 15.9107 30.8919 15.8554 30.8698 15.8684C30.8476 15.8813 30.8412 15.8633 30.8554 15.8284C30.8695 15.7934 30.8103 15.695 30.7237 15.6097C30.6371 15.5245 30.5441 15.4222 30.517 15.3826C30.4898 15.343 30.3075 15.0869 30.1118 14.8135C28.8665 13.0735 28.2095 10.7475 28.1394 7.8312L28.1094 6.58209L27.6521 6.31669C27.4007 6.17078 27.1568 6.02083 27.1102 5.98355C27.0635 5.94628 27.0039 5.91582 26.9779 5.91582C26.9517 5.91582 26.9303 5.89753 26.9303 5.87518C26.9303 5.85283 26.8811 5.82289 26.821 5.80866C26.7609 5.79442 26.6689 5.7461 26.6164 5.70132C26.5641 5.65646 26.44 5.57932 26.3407 5.52979C26.2414 5.48027 26.1603 5.42393 26.1603 5.4046C26.1603 5.38527 26.1295 5.36939 26.092 5.36939C26.0546 5.36939 26.0166 5.35136 26.0078 5.32936C25.999 5.30736 25.9159 5.24998 25.8234 5.20192C25.7307 5.15386 25.4711 5.00287 25.2464 4.86637C25.0216 4.72987 24.8213 4.62331 24.8011 4.62953C24.7811 4.63582 24.7645 4.62047 24.7645 4.59536C24.7645 4.57034 24.7429 4.54989 24.7166 4.54989C24.6901 4.54989 24.5602 4.4762 24.4278 4.38621C24.2954 4.29622 24.1871 4.23867 24.1871 4.25834C24.1871 4.27801 24.1552 4.25428 24.1164 4.20571C24.0775 4.15704 24.0451 4.13349 24.0442 4.15325C24.0433 4.17301 23.9961 4.14807 23.9391 4.09785C23.8822 4.04772 23.8172 4.01735 23.7947 4.03047C23.7723 4.04367 23.7539 4.03271 23.7539 4.00614C23.7539 3.97965 23.7214 3.9579 23.6817 3.9579C23.642 3.9579 23.6095 3.93625 23.6095 3.90976C23.6095 3.88318 23.5877 3.8743 23.5611 3.88983C23.5345 3.90544 23.4996 3.88629 23.4838 3.84729C23.468 3.80829 23.4357 3.78767 23.412 3.80156C23.3883 3.81537 23.3689 3.80501 23.3689 3.77852C23.3689 3.75195 23.3364 3.73029 23.2967 3.73029C23.257 3.73029 23.2246 3.70976 23.2246 3.68473C23.2246 3.65971 23.1975 3.64435 23.1644 3.65057C23.1313 3.65687 23.1094 3.63711 23.1157 3.60674C23.1222 3.57481 23.0969 3.56239 23.0555 3.5774C23.0161 3.59172 22.9839 3.58076 22.9839 3.55307C22.9839 3.52529 22.9514 3.50259 22.9117 3.50259C22.872 3.50259 22.8395 3.48214 22.8395 3.45712C22.8395 3.43201 22.8086 3.41157 22.7708 3.41157C22.7329 3.41157 22.6733 3.38482 22.6384 3.35212C22.6034 3.31942 22.499 3.25281 22.4064 3.20414C22.3138 3.15548 22.2271 3.10535 22.2139 3.09284C22.1653 3.04685 21.9949 2.95289 21.9131 2.92683C21.8668 2.91216 21.8288 2.88196 21.8288 2.85988C21.8288 2.83779 21.8053 2.81967 21.7766 2.81967C21.7478 2.81967 21.6341 2.761 21.5239 2.68921C21.284 2.53313 20.9271 2.31837 19.8076 1.6565C19.3443 1.38272 18.9582 1.14303 18.9493 1.12405C18.9405 1.10498 18.9026 1.08945 18.865 1.08945C18.8276 1.08945 18.7969 1.07116 18.7969 1.0489C18.7969 1.02655 18.7478 0.996611 18.6877 0.982288C18.6276 0.968052 18.531 0.914643 18.4731 0.863564C18.4152 0.812485 18.3452 0.770724 18.3177 0.770724C18.29 0.770724 18.2675 0.750276 18.2675 0.725167C18.2675 0.700146 18.2425 0.679697 18.2119 0.679697C18.1813 0.679697 18.0853 0.628445 17.9986 0.565804C17.9117 0.503249 17.8271 0.451998 17.8103 0.451998C17.7935 0.451998 17.7054 0.39833 17.6146 0.332756C17.5237 0.267181 17.4494 0.229821 17.4494 0.249666C17.4494 0.269511 17.3952 0.237673 17.3291 0.178828C17.2629 0.119984 17.208 0.0908203 17.2072 0.113944C17.2065 0.137154 17.1837 0.120243 17.1568 0.0764112C17.0959 -0.0224683 16.9985 -0.0255744 16.8993 0.0682144ZM17.2782 2.45357C17.3921 2.52778 17.4988 2.57558 17.5154 2.55987C17.5321 2.54417 17.5456 2.55521 17.5456 2.58438C17.5456 2.61363 17.567 2.63753 17.5932 2.63753C17.6194 2.63753 17.685 2.67342 17.7391 2.71725C17.7933 2.761 17.8427 2.78662 17.8491 2.77411C17.8555 2.7616 17.9122 2.79672 17.9751 2.8522C18.038 2.90768 18.1057 2.94366 18.1254 2.93218C18.145 2.92062 18.1741 2.94314 18.1899 2.98214C18.2058 3.02114 18.2405 3.04029 18.2671 3.02476C18.2939 3.00914 18.3157 3.01812 18.3157 3.04461C18.3157 3.07118 18.3481 3.09284 18.3878 3.09284C18.4276 3.09284 18.46 3.11458 18.46 3.14107C18.46 3.16756 18.4794 3.17791 18.5031 3.16411C18.5268 3.15022 18.5592 3.17084 18.5749 3.20984C18.5908 3.24884 18.6256 3.26799 18.6522 3.25237C18.6788 3.23684 18.7006 3.24694 18.7006 3.27498C18.7006 3.30294 18.72 3.3145 18.7437 3.30069C18.7675 3.2868 18.7997 3.30742 18.8156 3.34642C18.8314 3.38542 18.8639 3.40587 18.8878 3.39198C18.9116 3.378 18.9441 3.39845 18.96 3.43745C18.9758 3.47645 19.0105 3.4956 19.0372 3.48007C19.0639 3.46446 19.0857 3.47205 19.0857 3.4969C19.0857 3.52175 19.1344 3.55643 19.1939 3.57403C19.2535 3.59155 19.313 3.61856 19.3263 3.634C19.3905 3.70881 19.6699 3.82279 19.7189 3.79414C19.7503 3.77576 19.7614 3.78163 19.7443 3.8076C19.7174 3.84893 20.0892 4.14005 20.1689 4.14005C20.187 4.14005 20.2696 4.18621 20.3526 4.24255C20.4355 4.29889 20.5407 4.36542 20.5864 4.39052C21.1493 4.6989 23.1114 5.90176 23.0949 5.92833C23.0828 5.94775 23.092 5.95793 23.1153 5.95111C23.1712 5.93454 23.5133 6.10875 23.5133 6.15379C23.5133 6.1732 23.5458 6.18899 23.5854 6.18899C23.6252 6.18899 23.6577 6.20711 23.6577 6.2292C23.6577 6.25137 23.6955 6.28183 23.7418 6.2971C23.8666 6.338 24.2607 6.56415 24.367 6.65578C24.4179 6.6997 24.4693 6.72636 24.4813 6.71505C24.4932 6.70375 24.5974 6.76518 24.7127 6.85155C24.8281 6.93792 24.9486 7.00858 24.9804 7.00858C25.0123 7.00858 25.0777 7.04965 25.1258 7.09987C25.1739 7.15017 25.2223 7.18262 25.2335 7.172C25.2447 7.16139 25.2962 7.1928 25.3479 7.24163C25.3996 7.29056 25.4627 7.31842 25.4882 7.3035C25.5138 7.28857 25.5345 7.29806 25.5345 7.32455C25.5345 7.35113 25.5671 7.37278 25.6068 7.37278C25.6464 7.37278 25.679 7.39453 25.679 7.42101C25.679 7.4475 25.6993 7.45734 25.7242 7.44284C25.749 7.42835 25.7916 7.45268 25.8189 7.49703C25.8462 7.54138 25.8695 7.55717 25.8707 7.53215C25.872 7.50712 25.8935 7.51739 25.9186 7.55492C25.9437 7.59246 25.9921 7.62326 26.0261 7.62326C26.0728 7.62326 26.096 7.80834 26.1204 8.37452C26.1891 9.97152 26.5169 11.7237 26.9973 13.0628C27.0891 13.3188 27.1535 13.555 27.1403 13.5876C27.1063 13.6715 27.221 13.7264 27.2718 13.6506C27.3299 13.5639 27.3262 13.6428 27.2673 13.7469C27.2165 13.8366 27.2515 13.9894 27.3143 13.9527C27.3346 13.9408 27.3513 13.9854 27.3513 14.0518C27.3513 14.1183 27.3887 14.1985 27.4344 14.2301C27.48 14.2617 27.5031 14.3094 27.4857 14.3361C27.4682 14.3629 27.4782 14.3847 27.5077 14.3847C27.5374 14.3847 27.5482 14.4051 27.5318 14.4302C27.5155 14.4553 27.5221 14.4757 27.5466 14.4757C27.5711 14.4757 27.64 14.6038 27.6996 14.7603C27.7594 14.9168 27.8318 15.0727 27.8606 15.1066C27.9209 15.1775 28.0065 15.3134 28.0943 15.4774C28.1278 15.54 28.1957 15.626 28.245 15.6685C28.2943 15.711 28.3218 15.7656 28.306 15.7899C28.2901 15.814 28.2936 15.8408 28.3136 15.8491C28.3336 15.8576 28.5121 16.0693 28.7102 16.3197C29.4587 17.2656 30.603 18.2097 31.5582 18.669C31.6489 18.7127 31.688 18.7543 31.656 18.7729C31.6267 18.7901 31.6149 18.8343 31.6299 18.871C31.6447 18.9078 31.6336 18.9378 31.6051 18.9378C31.5767 18.9378 31.5658 18.9685 31.5811 19.0061C31.5964 19.0437 31.5825 19.0744 31.5503 19.0744C31.5182 19.0744 31.5044 19.1051 31.5197 19.1427C31.5349 19.1802 31.5241 19.211 31.4956 19.211C31.4672 19.211 31.4563 19.2418 31.4715 19.2793C31.4868 19.3168 31.4759 19.3476 31.4475 19.3476C31.419 19.3476 31.4081 19.3784 31.4234 19.4159C31.4386 19.4534 31.4278 19.4842 31.3993 19.4842C31.3708 19.4842 31.3605 19.516 31.3762 19.5549C31.3949 19.601 31.3855 19.6142 31.3491 19.5929C31.3121 19.5713 31.3035 19.5853 31.3235 19.6346C31.3401 19.6755 31.3326 19.7212 31.3068 19.7363C31.2811 19.7514 31.2725 19.7828 31.2878 19.8061C31.303 19.8293 31.2929 19.8484 31.2654 19.8484C31.2379 19.8484 31.2229 19.9099 31.2321 19.985C31.2414 20.0602 31.235 20.1217 31.2179 20.1217C31.2008 20.1217 31.1242 20.2599 31.0476 20.429C30.4309 21.7899 29.1053 23.9 28.4016 24.6406C28.36 24.6845 28.3259 24.7362 28.3259 24.7557C28.3259 24.7752 28.288 24.8252 28.2417 24.8667C28.1954 24.9083 28.1141 24.9983 28.0612 25.0667C28.0082 25.135 27.9108 25.2439 27.8446 25.3085C27.7785 25.3732 27.6936 25.4824 27.656 25.5512C27.6185 25.6201 27.563 25.6764 27.5327 25.6764C27.5024 25.6764 27.4141 25.7423 27.3363 25.8227C27.2586 25.9032 27.2382 25.9404 27.2912 25.9053C27.5776 25.7162 25.8376 27.3158 25.2458 27.7858C24.862 28.0906 24.5372 28.3502 24.524 28.3628C24.4506 28.4324 24.1834 28.5905 24.1394 28.5905C24.111 28.5905 24.0754 28.6211 24.0602 28.6585C24.045 28.696 24.0132 28.7152 23.9895 28.7014C23.9658 28.6875 23.9464 28.7103 23.9464 28.7521C23.9464 28.8008 23.9206 28.8185 23.8743 28.8017C23.8297 28.7855 23.802 28.8018 23.802 28.8444C23.802 28.8823 23.7718 28.9072 23.735 28.8999C23.6982 28.8924 23.6125 28.9428 23.5448 29.0117C23.4771 29.0805 23.3989 29.1369 23.3712 29.1369C23.3435 29.1369 23.3208 29.1573 23.3208 29.1824C23.3208 29.2075 23.2883 29.2279 23.2485 29.2279C23.2089 29.2279 23.1764 29.2484 23.1764 29.2735C23.1764 29.2985 23.1439 29.319 23.1042 29.319C23.0645 29.319 23.032 29.3429 23.032 29.3722C23.032 29.4013 23.0192 29.4131 23.0034 29.3982C22.9877 29.3833 22.8524 29.4453 22.7026 29.536C21.7969 30.0845 19.5737 31.1954 19.2914 31.2404C19.2444 31.2479 19.1952 31.2668 19.1819 31.2824C19.0915 31.3885 17.4161 31.9743 17.2866 31.9451C16.8682 31.8504 15.135 31.164 14.2249 30.7325C13.3322 30.3093 12.2763 29.7545 11.9509 29.5376C11.8782 29.4891 11.8182 29.4661 11.8179 29.4867C11.8174 29.5071 11.8012 29.5025 11.7818 29.4761C11.718 29.3902 11.4475 29.23 11.4161 29.2597C11.3993 29.2756 11.3854 29.2647 11.3854 29.2355C11.3854 29.2063 11.3552 29.1824 11.3184 29.1824C11.2815 29.1824 11.2384 29.1503 11.2224 29.1112C11.2066 29.0721 11.1741 29.0515 11.1502 29.0654C11.1263 29.0794 11.0939 29.0589 11.078 29.0199C11.0622 28.9809 11.0297 28.9604 11.0058 28.9744C10.9819 28.9883 10.9499 28.9691 10.9348 28.9317C10.9197 28.8943 10.8741 28.8637 10.8335 28.8637C10.793 28.8637 10.7598 28.8432 10.7598 28.8181C10.7598 28.7931 10.7247 28.7726 10.6817 28.7726C10.6142 28.7726 10.6126 28.7835 10.6697 28.8523C10.7291 28.9239 10.7275 28.9259 10.6544 28.8717C10.6096 28.8386 10.5849 28.7823 10.5994 28.7465C10.6139 28.7108 10.6002 28.6816 10.569 28.6816C10.5378 28.6816 10.484 28.6559 10.4494 28.6246C10.4149 28.5934 10.3386 28.537 10.28 28.4994C10.2213 28.4619 10.1341 28.4004 10.086 28.3628C10.038 28.3253 9.95049 28.2638 9.89157 28.2263C9.83256 28.1887 9.74939 28.1262 9.70662 28.0876C9.66385 28.0489 9.50972 27.9268 9.36416 27.8162C8.53443 27.1864 6.99271 25.7921 6.78231 25.4813C6.7181 25.3864 6.64715 25.3197 6.62453 25.3329C6.60192 25.3462 6.54747 25.2854 6.5036 25.198C6.45983 25.1106 6.39453 25.0391 6.35869 25.0391C6.32285 25.0391 6.27086 24.9776 6.24314 24.9025C6.21541 24.8273 6.16179 24.7658 6.12394 24.7658C6.08609 24.7658 6.02818 24.7044 5.99526 24.6292C5.96243 24.5542 5.90798 24.4926 5.87433 24.4926C5.84058 24.4926 5.80228 24.4662 5.78915 24.4337C5.77601 24.4013 5.56042 24.1093 5.31008 23.7849C4.89393 23.2457 4.18577 22.245 4.10324 22.0795C4.08454 22.0419 4.02718 21.9497 3.97583 21.8746C3.81395 21.6376 3.5119 21.115 3.29895 20.7036C3.18595 20.4854 3.07533 20.3174 3.05308 20.3304C3.03073 20.3433 3.02681 20.3188 3.04423 20.2759C3.06484 20.2251 3.05736 20.2086 3.02298 20.2287C2.9938 20.2457 2.95431 20.2357 2.93515 20.2064C2.91345 20.1731 2.9212 20.1653 2.95586 20.1856C3.04131 20.2356 3.02316 20.1568 2.88199 19.8653C2.81067 19.7183 2.75522 19.5621 2.75868 19.5183C2.76206 19.4746 2.74327 19.4387 2.71691 19.4387C2.69047 19.4387 2.68226 19.4182 2.69867 19.3931C2.715 19.3681 2.71007 19.3476 2.68764 19.3476C2.6653 19.3476 2.64341 19.3034 2.63912 19.2493C2.63483 19.1952 2.60665 19.1365 2.57665 19.119C2.54655 19.1014 2.52549 19.0736 2.52977 19.0572C2.5502 18.9787 2.46794 18.7556 2.41805 18.7543C2.38714 18.7536 2.4051 18.7297 2.458 18.7013C2.51099 18.6729 2.56507 18.6375 2.57829 18.6227C2.59152 18.6079 2.77337 18.4971 2.9823 18.3764C3.97255 17.805 5.31828 16.5228 5.74984 15.7395C5.78696 15.6722 5.83903 15.6298 5.86557 15.6454C5.8922 15.6609 5.90005 15.6523 5.88308 15.6264C5.86612 15.6004 5.89065 15.5307 5.93771 15.4714C5.98468 15.4121 6.05016 15.3124 6.08308 15.2497C6.11601 15.1872 6.19435 15.0559 6.25727 14.9581C6.32011 14.8603 6.36142 14.7554 6.34911 14.725C6.33671 14.6945 6.36234 14.6358 6.40602 14.5945C6.44961 14.5532 6.48965 14.4943 6.49485 14.4635C6.50014 14.4327 6.54081 14.3555 6.58541 14.2921C6.63001 14.2286 6.67351 14.1333 6.68208 14.0802C6.69065 14.0272 6.72677 13.9505 6.76243 13.91C6.798 13.8693 6.8145 13.8241 6.79909 13.8095C6.78359 13.7949 6.84478 13.5854 6.93507 13.3439C7.49303 11.8513 7.8415 10.074 7.91382 8.35174C7.93689 7.80324 7.95969 7.62326 8.0063 7.62326C8.0404 7.62326 8.08874 7.59246 8.11391 7.55492C8.13899 7.51739 8.16051 7.50712 8.1617 7.53215C8.16289 7.55717 8.18623 7.54138 8.2135 7.49703C8.24086 7.45268 8.28345 7.42835 8.30835 7.44284C8.33315 7.45734 8.35349 7.44629 8.35349 7.41834C8.35349 7.3903 8.37383 7.37934 8.39864 7.39384C8.42353 7.40833 8.46612 7.384 8.49348 7.33965C8.52075 7.2953 8.54373 7.27537 8.54456 7.2953C8.54529 7.31532 8.63803 7.27175 8.75048 7.19849C8.86302 7.12532 8.97675 7.06079 9.0032 7.05526C9.02964 7.04965 9.15167 6.97545 9.27433 6.8902C9.397 6.80504 9.51473 6.73533 9.53589 6.73533C9.55714 6.73533 9.6198 6.69512 9.67525 6.64585C9.78122 6.55163 10.1476 6.34404 10.2906 6.2971C10.3369 6.28183 10.3747 6.2537 10.3747 6.23455C10.3747 6.21531 10.4127 6.18761 10.459 6.17286C10.5471 6.1449 10.7185 6.04835 10.7598 6.00348C10.773 5.98907 11.3647 5.63057 12.0746 5.20667C12.7846 4.78285 13.4234 4.40036 13.4944 4.35687C13.5653 4.3133 13.6558 4.26377 13.6955 4.24686C13.8489 4.18138 14.1727 3.94289 14.1517 3.91088C14.1395 3.89233 14.1565 3.87835 14.1893 3.87982C14.2769 3.88379 14.5618 3.7617 14.5618 3.72028C14.5618 3.70078 14.5965 3.68473 14.6391 3.68473C14.6816 3.68473 14.7061 3.65911 14.6934 3.62787C14.679 3.59224 14.717 3.56825 14.795 3.56377C14.8637 3.5598 14.9277 3.53409 14.9374 3.50656C14.9471 3.47904 14.9749 3.46817 14.9994 3.48249C15.0237 3.49673 15.0566 3.47645 15.0725 3.43745C15.0883 3.39845 15.1208 3.378 15.1447 3.39198C15.1685 3.40587 15.201 3.38542 15.2169 3.34642C15.2327 3.30742 15.265 3.2868 15.2887 3.30069C15.3124 3.3145 15.3318 3.30294 15.3318 3.27498C15.3318 3.24694 15.3536 3.23684 15.3802 3.25237C15.4069 3.26799 15.4417 3.24884 15.4575 3.20984C15.4733 3.17084 15.5056 3.15022 15.5293 3.16411C15.553 3.17791 15.5725 3.16756 15.5725 3.14107C15.5725 3.11458 15.6049 3.09284 15.6446 3.09284C15.6843 3.09284 15.7168 3.07118 15.7168 3.04461C15.7168 3.01812 15.7352 3.00716 15.7576 3.02028C15.7801 3.03339 15.8442 3.00388 15.9001 2.9547C15.9559 2.90543 16.0241 2.86523 16.0517 2.86523C16.0793 2.86523 16.1018 2.84348 16.1018 2.81699C16.1018 2.79042 16.1235 2.78145 16.1499 2.79689C16.1764 2.81233 16.1981 2.80336 16.1981 2.77679C16.1981 2.7503 16.2306 2.72855 16.2702 2.72855C16.31 2.72855 16.3425 2.70811 16.3425 2.68308C16.3425 2.65798 16.3749 2.63753 16.4146 2.63753C16.4544 2.63753 16.4868 2.61587 16.4868 2.5893C16.4868 2.56281 16.5031 2.55055 16.523 2.56203C16.5427 2.57359 16.6456 2.52441 16.7515 2.4528C16.9936 2.28895 17.0253 2.28903 17.2782 2.45357ZM16.7629 5.13039C16.5359 5.58941 16.3839 6.08002 16.3742 6.38442L16.3665 6.62773L16.0969 6.36932C15.2865 5.59269 14.1351 5.49347 12.9074 6.09451C12.3463 6.36915 12.3627 6.38891 13.1777 6.4204C13.8611 6.44689 14.0985 6.48615 14.4494 6.63075C14.5509 6.67252 14.6502 6.70297 14.6701 6.69831C14.6899 6.69366 14.7062 6.71031 14.7062 6.73533C14.7062 6.76044 14.7333 6.78097 14.7664 6.78106C14.7994 6.78106 14.8698 6.84249 14.9228 6.91747C14.9757 6.99245 15.0437 7.05388 15.074 7.05397C15.1043 7.05406 15.1417 7.08546 15.1573 7.12386C15.1815 7.18365 15.1497 7.18848 14.9338 7.15803C13.9568 7.0198 12.553 7.24983 12.1433 7.61524C12.1103 7.64466 11.9896 7.72896 11.8752 7.80255C11.655 7.94406 11.5187 8.09307 11.5566 8.15096C11.5691 8.17012 11.5354 8.19902 11.4817 8.21515C11.428 8.23129 11.3965 8.26365 11.4119 8.28703C11.4272 8.31041 11.4059 8.34182 11.3647 8.35683C11.3235 8.37176 11.3008 8.40101 11.3143 8.42172C11.3458 8.46995 11.1887 8.78427 11.1331 8.78427C11.1099 8.78427 11.1053 8.8061 11.1228 8.83285C11.1402 8.85951 11.1154 8.90843 11.0676 8.94148C10.9938 8.99256 10.9896 9.01767 11.0398 9.10921C11.0967 9.21327 11.0979 9.21223 11.073 9.08022C11.0516 8.96676 11.0562 8.95761 11.1001 9.02612C11.1722 9.13863 11.1194 9.26858 11.0301 9.19843C10.9778 9.15744 10.9585 9.17625 10.9341 9.2917C10.8887 9.50654 10.9132 9.49921 11.2725 9.19075C11.8653 8.68186 12.4632 8.32085 13.0056 8.14423C13.3249 8.04035 13.8012 8.0142 13.831 8.09893C13.8438 8.13509 13.8305 8.14673 13.798 8.12775C13.7681 8.11024 13.7436 8.11887 13.7436 8.14682C13.7436 8.17486 13.7219 8.18504 13.6955 8.1696C13.6691 8.15415 13.6473 8.16434 13.6473 8.19238C13.6473 8.22033 13.6276 8.23172 13.6034 8.21757C13.5791 8.20342 13.5517 8.21352 13.5424 8.24009C13.533 8.26667 13.4929 8.2929 13.4532 8.29842C13.3454 8.31334 13.0217 8.51188 13.0217 8.56305C13.0217 8.58746 13.0008 8.59531 12.9752 8.5803C12.9496 8.56538 12.9011 8.59488 12.8673 8.64596C12.8337 8.69695 12.7807 8.73872 12.7498 8.73872C12.6742 8.73872 12.1074 9.32725 12.1074 9.40551C12.1074 9.4395 12.0861 9.46728 12.0602 9.46728C12.0201 9.46728 11.8056 9.81 11.8037 9.87704C11.8034 9.88955 11.7546 9.99041 11.6952 10.1012C11.6359 10.2119 11.5984 10.3297 11.6119 10.363C11.6254 10.3962 11.61 10.4234 11.5779 10.4234C11.5458 10.4234 11.5317 10.4535 11.5467 10.4902C11.5615 10.527 11.5516 10.5701 11.5244 10.5859C11.4973 10.6018 11.4875 10.6453 11.5026 10.6826C11.5177 10.7198 11.5151 10.7734 11.4967 10.8016C11.451 10.8714 11.4404 11.879 11.485 11.9052C11.5047 11.9167 11.5094 11.9671 11.4956 12.0173C11.4817 12.0675 11.4944 12.136 11.5238 12.1695C11.5531 12.2029 11.5639 12.2428 11.5477 12.2581C11.5316 12.2734 11.55 12.3158 11.5887 12.3525C11.6504 12.4108 11.6662 12.3823 11.7173 12.1199C12.0055 10.6405 12.9122 9.46159 13.952 9.21474L14.0846 9.18324L13.9502 9.31534C12.9656 10.2832 12.4553 12.1722 12.7746 13.6675C12.8312 13.9331 12.9252 14.0888 12.9256 13.918C12.9271 13.2795 13.381 11.6528 13.5577 11.6528C13.5806 11.6528 13.5967 11.6374 13.5935 11.6186C13.5806 11.5412 13.6027 11.4738 13.6594 11.417C13.6925 11.3839 13.752 11.2965 13.7918 11.2227C13.9012 11.0194 14.4432 10.5108 14.3991 10.6528C13.9918 11.9626 14.0805 13.307 14.6515 14.4757C14.8598 14.9024 15.2471 15.4292 15.1701 15.1815C14.9882 14.5962 14.8961 13.5788 14.964 12.9049C14.9866 12.6795 15.0083 12.4407 15.0121 12.3742C15.0159 12.3078 15.0386 12.2649 15.0627 12.2789C15.0867 12.2929 15.0941 12.2602 15.0792 12.2062C15.0642 12.1521 15.0667 12.1166 15.0846 12.127C15.1026 12.1375 15.1569 12.0557 15.2053 11.945C15.2536 11.8344 15.3127 11.7438 15.3365 11.7438C15.3604 11.7438 15.3799 11.723 15.3799 11.6975C15.3799 11.5828 15.8084 11.2657 15.9744 11.2576C16.1292 11.2501 16.1485 11.2642 16.2229 11.4398C16.421 11.9067 16.3465 20.7017 16.142 20.9948C16.1089 21.0423 16.0842 21.0358 16.0253 20.964C15.9842 20.9139 15.9312 20.8778 15.9074 20.8838C15.8836 20.8898 15.8407 20.8534 15.8121 20.8029C15.7835 20.7523 15.7394 20.7231 15.714 20.7379C15.6888 20.7527 15.655 20.7328 15.6391 20.6936C15.6233 20.6546 15.5801 20.6225 15.5432 20.6225C15.5064 20.6225 15.4762 20.5996 15.4762 20.5716C15.4762 20.5437 15.4358 20.5308 15.3863 20.543C15.3246 20.5583 15.2982 20.5421 15.3021 20.4914C15.3052 20.4508 15.2806 20.4227 15.2476 20.429C15.2145 20.4352 15.1874 20.4174 15.1874 20.3895C15.1874 20.3615 15.1458 20.349 15.0948 20.3616C15.0259 20.3786 15.0095 20.3664 15.0307 20.3139C15.049 20.2689 15.0399 20.2547 15.0055 20.2748C14.9758 20.2922 14.9282 20.265 14.8994 20.214C14.8707 20.1632 14.8147 20.1217 14.7749 20.1217C14.7005 20.1217 14.4898 20.0073 14.3779 19.906C14.3429 19.8743 14.2851 19.8484 14.2495 19.8484C14.214 19.8484 14.1776 19.8321 14.1687 19.8121C14.1503 19.7702 12.899 19.1848 12.4683 19.0166C10.534 18.2608 8.47625 17.985 6.93033 18.2743C6.08007 18.4335 5.10351 18.7843 4.48837 19.1517C4.20985 19.318 4.33023 19.3627 4.7078 19.2331C5.26402 19.042 7.22235 18.7497 7.45135 18.8236C7.48427 18.8342 7.70616 18.8534 7.94437 18.8662C8.72312 18.9081 9.83038 19.1082 10.4621 19.3211C10.5763 19.3596 10.6846 19.3878 10.7028 19.3837C10.7209 19.3796 10.8193 19.4106 10.9213 19.4526C11.0234 19.4947 11.1244 19.5189 11.1458 19.5064C11.1672 19.4939 11.1923 19.5052 11.2016 19.5315C11.2109 19.5577 11.2663 19.5827 11.3248 19.5869C11.3832 19.591 11.4416 19.6205 11.4545 19.6523C11.4674 19.6841 11.5642 19.7232 11.6694 19.7392C11.7747 19.7551 11.8728 19.7978 11.8875 19.8339C11.9022 19.8702 11.9351 19.8875 11.9607 19.8725C12.1096 19.7854 14.3293 21.0967 15.0149 21.6766C15.123 21.7681 15.2956 21.9115 15.3985 21.9954C15.5012 22.0792 15.6555 22.2155 15.741 22.2981L15.8967 22.4484L15.7498 22.6055C15.669 22.6918 15.5798 22.7624 15.5516 22.7624C15.5233 22.7624 15.4398 22.8342 15.3658 22.9218C15.2919 23.0095 15.2001 23.0812 15.1617 23.0812C15.1234 23.0812 15.0648 23.1229 15.0314 23.174C14.9544 23.2921 13.6381 24.3825 13.5902 24.368C13.5705 24.362 13.494 24.4285 13.4204 24.5159C13.3468 24.6033 13.2649 24.6748 13.2387 24.6748C13.2125 24.6748 13.115 24.7471 13.0222 24.8355C12.8576 24.9921 12.5934 25.2178 12.2517 25.4935C12.1591 25.5682 12.012 25.6904 11.925 25.765L11.7667 25.9006L11.579 25.7283C11.1804 25.3623 10.55 25.3526 10.1535 25.7064C9.47497 26.3118 9.78459 27.4151 10.6624 27.5194C10.8825 27.5456 11.2648 27.7363 11.3073 27.8411C11.3222 27.8777 11.3675 27.9075 11.408 27.9075C11.4485 27.9075 11.4817 27.936 11.4817 27.9709C11.4817 28.0057 11.5358 28.0471 11.602 28.0628C11.6682 28.0785 11.7223 28.1115 11.7223 28.1361C11.7223 28.1606 11.7449 28.1807 11.7726 28.1807C11.8003 28.1807 11.8771 28.2319 11.9433 28.2945C12.0094 28.3571 12.0951 28.4084 12.1336 28.4084C12.1721 28.4084 12.2036 28.4265 12.2036 28.4486C12.2036 28.4707 12.2415 28.5011 12.2878 28.5162C12.3342 28.5312 12.502 28.6209 12.6607 28.7156C13.1996 29.0369 14.0293 29.3862 14.0947 29.3194C14.1266 29.2867 14.1292 29.2725 14.1004 29.2876C14.0508 29.3138 13.879 29.2086 13.6871 29.0345C13.6388 28.9906 13.5799 28.9547 13.5562 28.9547C13.5326 28.9547 13.5003 28.9227 13.4845 28.8835C13.4685 28.8444 13.4336 28.8252 13.4068 28.8409C13.3799 28.8566 13.3449 28.8374 13.3291 28.7983C13.3132 28.7591 13.2741 28.7271 13.2422 28.7271C13.2103 28.7271 13.1357 28.6651 13.0765 28.5892C13.0172 28.5134 12.9521 28.4611 12.9317 28.473C12.9114 28.4849 12.6729 28.2841 12.4017 28.0267L11.9088 27.5588L12.3329 27.3068C13.3309 26.7142 15.0431 25.9139 15.0431 26.04C15.0431 26.0626 15.0231 26.0926 14.9986 26.1068C14.8297 26.2057 14.671 27.073 14.7491 27.4709C14.8066 27.7631 15.0746 28.3633 15.1739 28.422C15.2079 28.442 15.2356 28.486 15.2356 28.5198C15.2356 28.5716 15.3618 28.6894 15.6546 28.9108C15.6866 28.935 15.7335 28.9547 15.7589 28.9547C15.7842 28.9547 15.8122 28.9701 15.8211 28.9889C15.8463 29.0427 16.2951 29.2212 16.5504 29.279C17.0467 29.3912 17.8878 29.2476 18.2916 28.9816C18.5066 28.8399 18.7939 28.5323 18.7616 28.4784C18.746 28.4524 18.7505 28.4458 18.7715 28.4637C18.8214 28.5063 18.9997 28.4156 18.9664 28.3645C18.9522 28.3428 18.9592 28.3182 18.9819 28.3098C19.3135 28.1867 19.431 26.8429 19.1593 26.2812C19.0952 26.1489 19.0632 26.0407 19.088 26.0407C19.2538 26.0407 20.8277 26.7735 21.492 27.1601C21.7169 27.291 21.9227 27.4037 21.9491 27.4105C22.1425 27.4604 22.1234 27.5458 21.8539 27.8363C21.5368 28.1779 21.1821 28.4643 21.1332 28.418C21.1144 28.4002 21.1062 28.4154 21.115 28.4518C21.1238 28.4883 21.1074 28.519 21.0785 28.5201C21.0496 28.5212 20.9472 28.5991 20.8508 28.693C20.7544 28.7868 20.6426 28.8637 20.6025 28.8637C20.5624 28.8637 20.5294 28.8815 20.5294 28.9031C20.5294 28.9545 20.1655 29.1824 20.0836 29.1824C20.049 29.1824 20.0207 29.2205 20.0207 29.2671C20.0207 29.3452 20.033 29.3469 20.1792 29.2891C20.6515 29.1024 21.4697 28.6895 21.7131 28.5151C21.795 28.4564 21.8893 28.4084 21.9228 28.4084C21.9562 28.4084 21.972 28.3799 21.9579 28.3452C21.9399 28.301 21.96 28.2889 22.0249 28.305C22.0791 28.3184 22.1176 28.3048 22.1176 28.2722C22.1176 28.2414 22.1499 28.2282 22.1898 28.2427C22.2335 28.2586 22.2619 28.2429 22.2619 28.203C22.2619 28.1666 22.3141 28.1245 22.3778 28.1094C22.4414 28.0943 22.5047 28.0414 22.5184 27.9919C22.5321 27.9424 22.572 27.9072 22.6071 27.9137C22.6423 27.92 22.7685 27.8394 22.8876 27.7343C23.0164 27.6206 23.1506 27.5432 23.2189 27.5432C23.8997 27.5432 24.412 26.8471 24.2114 26.1945C23.9794 25.4393 22.9674 25.1994 22.4072 25.7667L22.2725 25.9031L22.0627 25.7205C21.9473 25.6201 21.7723 25.4718 21.6738 25.3909C21.246 25.0399 21.072 24.8907 20.9044 24.731C20.8062 24.6375 20.7054 24.561 20.6802 24.561C20.655 24.561 20.5875 24.5046 20.5303 24.4358C20.4731 24.3668 20.404 24.3105 20.3769 24.3105C20.3316 24.3105 19.351 23.5103 18.9299 23.1299C18.7026 22.9245 18.4226 22.6932 18.2686 22.5838C18.128 22.4838 18.1903 22.3075 18.4115 22.1793C18.4779 22.1409 18.5999 22.0463 18.6826 21.9692C19.3204 21.3752 21.4462 20.0024 21.5606 20.1107C21.5758 20.125 21.5883 20.1117 21.5883 20.081C21.5883 20.0503 21.6099 20.0379 21.6363 20.0533C21.6629 20.0688 21.6845 20.0586 21.6845 20.0306C21.6845 20.0026 21.7026 19.9903 21.7249 20.0033C21.7706 20.03 22.0974 19.874 22.2008 19.7762C22.2382 19.7408 22.3086 19.7118 22.3572 19.7118C22.4058 19.7118 22.5937 19.6475 22.7749 19.5688C22.956 19.49 23.1367 19.4208 23.1764 19.4148C23.2161 19.4089 23.5085 19.3319 23.8261 19.2438C25.6979 18.7246 27.6604 18.7089 29.254 19.2003C29.932 19.4093 29.8719 19.2865 29.12 18.9262C28.5643 18.6601 27.6721 18.3531 27.4229 18.3423C27.377 18.3403 27.364 18.3292 27.3941 18.3174C27.4242 18.3058 27.5848 18.3259 27.7511 18.3622C28.2646 18.4745 28.3518 18.3396 27.8919 18.1443C27.5559 18.0016 27.4585 17.8852 27.4452 17.6104C27.4293 17.2832 27.7718 17.3671 27.845 17.7084C27.8947 17.9409 28.2038 17.8495 28.2585 17.5863C28.3239 17.2712 27.9853 17.1289 27.2991 17.1829C26.7751 17.2242 26.7606 17.2348 26.7671 17.5703L26.7725 17.845H26.5686C26.2715 17.845 26.0595 17.8941 26.0288 17.97C25.9925 18.0593 26.1001 18.1167 26.3046 18.1174C26.4974 18.1181 27.3299 18.2562 27.3017 18.2828C27.2915 18.2925 27.0683 18.2698 26.8059 18.2324C25.1666 17.9986 23.1685 18.3248 21.263 19.1372C20.9916 19.2529 20.7581 19.3476 20.7441 19.3476C20.7302 19.3476 20.4433 19.4979 20.1067 19.6815C19.7701 19.8652 19.4189 20.0546 19.3263 20.1027C19.2337 20.1507 19.1506 20.2055 19.1417 20.2243C19.1328 20.2433 19.1056 20.2471 19.0812 20.2329C19.0568 20.2186 19.0239 20.2388 19.008 20.2778C18.9923 20.3168 18.9598 20.3374 18.9359 20.3234C18.912 20.3094 18.8795 20.3299 18.8637 20.3689C18.8479 20.408 18.8154 20.4284 18.7915 20.4144C18.7676 20.4004 18.7352 20.421 18.7193 20.46C18.7035 20.499 18.6711 20.5194 18.6472 20.5055C18.6233 20.4916 18.5907 20.5122 18.5748 20.5513C18.559 20.5904 18.5181 20.6225 18.4841 20.6225C18.45 20.6225 18.4092 20.6546 18.3933 20.6936C18.3774 20.7328 18.3425 20.752 18.3157 20.7363C18.2888 20.7206 18.2538 20.7398 18.238 20.779C18.2221 20.8181 18.1837 20.8502 18.1528 20.8502C18.1218 20.8502 18.0576 20.893 18.01 20.9455C17.8906 21.0776 17.8799 21.0538 17.8313 20.5464C17.6948 19.1209 17.663 11.8444 17.7918 11.4947C17.9135 11.1645 18.274 11.1805 18.5475 11.5281C18.5824 11.5725 18.6309 11.5971 18.6553 11.5828C18.6796 11.5686 18.6868 11.5883 18.6713 11.6265C18.6558 11.6647 18.6762 11.7272 18.7166 11.7654C18.8041 11.8482 18.9954 12.3099 19.011 12.4762C19.0171 12.541 19.038 12.6183 19.0574 12.6481C19.0769 12.6778 19.0791 12.7612 19.0623 12.8333C19.045 12.9082 19.0537 12.9773 19.0828 12.9943C19.1389 13.0271 19.1548 13.7577 19.1005 13.809C19.0823 13.8263 19.0608 13.9783 19.0529 14.1467C19.0451 14.3151 18.9985 14.622 18.9495 14.8286C18.8326 15.322 18.8787 15.3082 19.246 14.7397C19.905 13.7198 20.0816 11.8973 19.6391 10.6818C19.6042 10.5859 19.5818 10.5142 19.5893 10.5224C19.5967 10.5305 19.6916 10.6351 19.8 10.7547C19.9085 10.8743 20.0067 10.9665 20.0184 10.9596C20.0496 10.941 20.2407 11.1809 20.2407 11.2387C20.2407 11.2661 20.26 11.2885 20.2837 11.2885C20.4951 11.2885 20.9904 12.759 21.0863 13.6716C21.1592 14.3637 21.3472 13.5617 21.3475 12.558C21.3478 11.3274 20.6619 9.62492 20.0104 9.23898C19.8742 9.15831 20.2378 9.23777 20.4332 9.33139C21.0846 9.64356 22.0214 10.7163 22.0214 11.1501C22.0214 11.1912 22.0406 11.2443 22.0641 11.268C22.1168 11.3211 22.2355 11.7164 22.3122 12.0933C22.3638 12.3471 22.5366 12.4966 22.4938 12.2505C22.4868 12.2097 22.5002 12.1474 22.5236 12.1119C22.6589 11.9075 22.5643 10.4695 22.3966 10.1813C22.3648 10.1267 22.3341 10.0552 22.3283 10.0227C22.3226 9.99007 22.2791 9.9081 22.2317 9.84054C22.1842 9.77298 22.1406 9.68851 22.1345 9.65279C22.1285 9.61707 22.0899 9.56996 22.0485 9.54804C22.007 9.52621 21.9732 9.48221 21.9732 9.45037C21.9732 9.37815 21.2842 8.69325 21.2116 8.69325C21.1824 8.69325 21.135 8.65166 21.1063 8.60092C21.0775 8.5501 21.0357 8.51921 21.0133 8.53233C20.991 8.54544 20.9597 8.52422 20.9439 8.48522C20.9281 8.44613 20.8956 8.42568 20.8717 8.43966C20.8478 8.45364 20.8153 8.4331 20.7996 8.3941C20.7837 8.3551 20.7489 8.33595 20.7223 8.35157C20.6956 8.3671 20.6738 8.3633 20.6738 8.34303C20.6737 8.28496 20.1979 8.04725 20.1444 8.07857C20.1179 8.09402 20.0963 8.08496 20.0963 8.05847C20.0963 7.99626 20.3873 7.99686 20.7472 8.05985C21.3093 8.15812 22.0463 8.57064 22.8344 9.22794C23.0388 9.39843 23.0868 9.42268 23.0598 9.34183C23.0279 9.24675 22.9951 9.06262 22.9872 8.93553C22.9853 8.90602 22.9542 8.85382 22.9179 8.81948C22.8135 8.72068 22.6884 8.46719 22.72 8.4187C22.7359 8.39436 22.7128 8.37452 22.6688 8.37452C22.6179 8.37452 22.5986 8.34993 22.6158 8.30739C22.6308 8.27055 22.6149 8.22439 22.5806 8.20497C22.5462 8.18547 22.4984 8.13603 22.4743 8.09505C22.4354 8.02896 22.2878 7.90601 21.9169 7.63111C21.3915 7.24146 20.1761 7.01713 19.2587 7.1406C19.0494 7.16872 18.8707 7.1846 18.8614 7.17589C18.836 7.15181 19.2308 6.78089 19.2818 6.78089C19.3063 6.78089 19.3263 6.76415 19.3263 6.7437C19.3263 6.61341 20.3418 6.4166 21.0144 6.4166C21.6266 6.4166 21.6769 6.38166 21.3306 6.19675C20.0228 5.49847 18.7945 5.55835 17.9415 6.36199L17.666 6.62152L17.6537 6.39331C17.6291 5.9304 17.1729 4.78112 17.0129 4.77871C16.9652 4.77793 16.8729 4.90778 16.7629 5.13039ZM13.7798 7.95053C13.7334 7.962 13.6576 7.962 13.6113 7.95053C13.565 7.93914 13.6028 7.92973 13.6955 7.92973C13.7882 7.92973 13.826 7.93914 13.7798 7.95053ZM20.4693 7.95182C20.3965 7.96226 20.2774 7.96226 20.2046 7.95182C20.1318 7.94138 20.1914 7.93284 20.3369 7.93284C20.4826 7.93284 20.5421 7.94138 20.4693 7.95182ZM14.8365 13.4848C14.8249 13.5415 14.8151 13.5059 14.8145 13.4057C14.8141 13.3055 14.8235 13.2592 14.8355 13.3028C14.8475 13.3463 14.848 13.4282 14.8365 13.4848ZM5.99526 17.1952C5.67214 17.3091 5.54884 17.6006 5.75066 17.7733C5.88244 17.8862 6.06338 17.8509 6.0839 17.7084C6.10771 17.5437 6.23001 17.4353 6.39198 17.4353C6.53115 17.4353 6.5327 17.438 6.50023 17.6288C6.4518 17.9136 6.35896 18.0188 6.04058 18.1494C5.77209 18.2596 5.69157 18.3492 5.80283 18.4142C5.82928 18.4297 6.15084 18.3806 6.51737 18.3051C6.8839 18.2295 7.32558 18.154 7.49895 18.1372C8.15942 18.0732 8.02508 17.8474 7.3254 17.8455C7.13981 17.845 7.13963 17.8449 7.17064 17.6884C7.21551 17.4625 7.15823 17.2993 7.01614 17.2481C6.87524 17.1975 6.10242 17.1574 5.99526 17.1952ZM28.0371 18.3045C28.1014 18.3388 28.1014 18.3432 28.0371 18.3439C27.9092 18.3452 27.7484 18.291 27.7484 18.2465C27.7484 18.2025 27.9056 18.2341 28.0371 18.3045ZM6.06749 18.3003C6.05116 18.3255 5.99033 18.3444 5.93233 18.3427C5.83064 18.3396 5.83028 18.3381 5.92312 18.3003C6.05554 18.2465 6.10269 18.2465 6.06749 18.3003ZM17.6533 25.8111C18.5862 26.2305 18.8431 27.4091 18.1516 28.0979C17.942 28.3068 17.6973 28.4635 17.6365 28.428C17.5994 28.4063 17.5915 28.4137 17.6144 28.4487C17.6398 28.4876 17.6164 28.4951 17.5325 28.4752C17.4631 28.4587 17.3876 28.472 17.348 28.5075C17.2734 28.5745 16.6794 28.5933 16.6794 28.5287C16.6794 28.5073 16.6457 28.5019 16.6047 28.5168C16.5562 28.5344 16.5419 28.5256 16.5641 28.4917C16.5872 28.4563 16.5649 28.4477 16.4943 28.4653C16.4373 28.4793 16.3906 28.4711 16.3906 28.447C16.3906 28.4228 16.3717 28.4141 16.3485 28.4276C16.2888 28.4626 15.9424 28.2156 15.7954 28.0333C14.8247 26.8293 16.216 25.1651 17.6533 25.8111ZM16.6804 26.2506C15.782 26.558 15.8359 27.8998 16.7515 28.0202C16.778 28.0237 16.8376 28.043 16.884 28.063C16.9303 28.0831 17.0278 28.0841 17.1005 28.0652C17.1733 28.0464 17.2703 28.0271 17.3163 28.0225C17.3623 28.0177 17.438 27.9828 17.4847 27.9449C17.5314 27.9069 17.6043 27.8643 17.6466 27.8502C17.789 27.8028 17.9788 27.3849 17.9788 27.1187C17.9788 26.4774 17.3148 26.0336 16.6804 26.2506ZM17.3548 26.618C17.5842 26.7463 17.734 27.1335 17.5542 27.1335C17.4609 27.1335 17.1846 26.9199 17.0994 26.7817C16.9557 26.5489 17.0839 26.4667 17.3548 26.618ZM18.6376 27.2132C18.6255 27.257 18.6155 27.2212 18.6155 27.1335C18.6155 27.0458 18.6255 27.01 18.6376 27.0539C18.6496 27.0976 18.6496 27.1694 18.6376 27.2132ZM19.264 27.2354C19.2525 27.2921 19.2427 27.2564 19.2422 27.1563C19.2416 27.0561 19.2511 27.0098 19.2631 27.0532C19.2752 27.0968 19.2756 27.1788 19.264 27.2354Z" fill="#B99855"/>
</svg>
