<svg width="127" height="90" viewBox="0 0 127 90" fill="none" xmlns="http://www.w3.org/2000/svg">
<rect x="2" y="2" width="123" height="86" rx="4" stroke="#0F0F0F" stroke-width="4"/>
<path d="M16.7141 45H12.5948L18.8714 26.8182H23.8253L30.093 45H25.9737L21.4194 30.973H21.2773L16.7141 45ZM16.4567 37.8533H26.1868V40.854H16.4567V37.8533ZM35.4153 45H31.296L37.5726 26.8182H42.5265L48.7942 45H44.6749L40.1206 30.973H39.9785L35.4153 45ZM35.1578 37.8533H44.888V40.854H35.1578V37.8533ZM54.1165 45H49.9972L56.2738 26.8182H61.2276L67.4954 45H63.3761L58.8217 30.973H58.6797L54.1165 45ZM53.859 37.8533H63.5891V40.854H53.859V37.8533Z" fill="black"/>
<path d="M24.6026 70.3995C23.0756 70.3936 21.7617 70.0178 20.6609 69.272C19.5659 68.5263 18.7225 67.4461 18.1307 66.0316C17.5447 64.6171 17.2547 62.9155 17.2607 60.9268C17.2607 58.9441 17.5536 57.2544 18.1396 55.8576C18.7314 54.4608 19.5748 53.3984 20.6697 52.6705C21.7706 51.9366 23.0816 51.5696 24.6026 51.5696C26.1237 51.5696 27.4317 51.9366 28.5266 52.6705C29.6275 53.4044 30.4738 54.4697 31.0657 55.8665C31.6576 57.2573 31.9505 58.9441 31.9446 60.9268C31.9446 62.9214 31.6487 64.6259 31.0568 66.0405C30.4709 67.455 29.6304 68.5352 28.5355 69.2809C27.4406 70.0266 26.1296 70.3995 24.6026 70.3995ZM24.6026 67.2124C25.6443 67.2124 26.4759 66.6886 27.0973 65.641C27.7188 64.5934 28.0265 63.022 28.0206 60.9268C28.0206 59.5478 27.8786 58.3996 27.5945 57.4822C27.3163 56.5649 26.9197 55.8754 26.4048 55.4137C25.8958 54.9521 25.2951 54.7212 24.6026 54.7212C23.5669 54.7212 22.7383 55.2391 22.1168 56.2749C21.4954 57.3106 21.1817 58.8613 21.1758 60.9268C21.1758 62.3236 21.3149 63.4896 21.593 64.4247C21.8771 65.3539 22.2766 66.0523 22.7915 66.5199C23.3065 66.9815 23.9102 67.2124 24.6026 67.2124ZM41.8145 70.3995C40.2876 70.3936 38.9736 70.0178 37.8728 69.272C36.7778 68.5263 35.9345 67.4461 35.3426 66.0316C34.7567 64.6171 34.4666 62.9155 34.4726 60.9268C34.4726 58.9441 34.7655 57.2544 35.3515 55.8576C35.9433 54.4608 36.7867 53.3984 37.8817 52.6705C38.9825 51.9366 40.2935 51.5696 41.8145 51.5696C43.3356 51.5696 44.6436 51.9366 45.7385 52.6705C46.8394 53.4044 47.6858 54.4697 48.2776 55.8665C48.8695 57.2573 49.1624 58.9441 49.1565 60.9268C49.1565 62.9214 48.8606 64.6259 48.2687 66.0405C47.6828 67.455 46.8424 68.5352 45.7474 69.2809C44.6525 70.0266 43.3415 70.3995 41.8145 70.3995ZM41.8145 67.2124C42.8562 67.2124 43.6878 66.6886 44.3092 65.641C44.9307 64.5934 45.2384 63.022 45.2325 60.9268C45.2325 59.5478 45.0905 58.3996 44.8064 57.4822C44.5282 56.5649 44.1317 55.8754 43.6167 55.4137C43.1077 54.9521 42.507 54.7212 41.8145 54.7212C40.7788 54.7212 39.9502 55.2391 39.3287 56.2749C38.7073 57.3106 38.3936 58.8613 38.3877 60.9268C38.3877 62.3236 38.5268 63.4896 38.805 64.4247C39.089 65.3539 39.4885 66.0523 40.0035 66.5199C40.5184 66.9815 41.1221 67.2124 41.8145 67.2124ZM59.0265 70.3995C57.4995 70.3936 56.1855 70.0178 55.0847 69.272C53.9898 68.5263 53.1464 67.4461 52.5545 66.0316C51.9686 64.6171 51.6786 62.9155 51.6845 60.9268C51.6845 58.9441 51.9775 57.2544 52.5634 55.8576C53.1552 54.4608 53.9986 53.3984 55.0936 52.6705C56.1944 51.9366 57.5054 51.5696 59.0265 51.5696C60.5475 51.5696 61.8555 51.9366 62.9505 52.6705C64.0513 53.4044 64.8977 54.4697 65.4895 55.8665C66.0814 57.2573 66.3743 58.9441 66.3684 60.9268C66.3684 62.9214 66.0725 64.6259 65.4806 66.0405C64.8947 67.455 64.0543 68.5352 62.9593 69.2809C61.8644 70.0266 60.5534 70.3995 59.0265 70.3995ZM59.0265 67.2124C60.0681 67.2124 60.8997 66.6886 61.5211 65.641C62.1426 64.5934 62.4503 63.022 62.4444 60.9268C62.4444 59.5478 62.3024 58.3996 62.0183 57.4822C61.7401 56.5649 61.3436 55.8754 60.8287 55.4137C60.3197 54.9521 59.7189 54.7212 59.0265 54.7212C57.9907 54.7212 57.1621 55.2391 56.5407 56.2749C55.9192 57.3106 55.6055 58.8613 55.5996 60.9268C55.5996 62.3236 55.7387 63.4896 56.0169 64.4247C56.301 65.3539 56.7005 66.0523 57.2154 66.5199C57.7303 66.9815 58.334 67.2124 59.0265 67.2124Z" fill="black"/>
<path d="M96.9993 63.8337C105.744 63.8337 112.833 56.7448 112.833 48.0003C112.833 39.2558 105.744 32.167 96.9993 32.167C88.2548 32.167 81.166 39.2558 81.166 48.0003C81.166 56.7448 88.2548 63.8337 96.9993 63.8337Z" stroke="#292D32" stroke-width="2.5" stroke-linecap="round" stroke-linejoin="round"/>
<path d="M90.6659 33.75H92.2492C89.1617 42.9967 89.1617 53.0033 92.2492 62.25H90.6659" stroke="#292D32" stroke-width="2.5" stroke-linecap="round" stroke-linejoin="round"/>
<path d="M101.75 33.75C104.837 42.9967 104.837 53.0033 101.75 62.25" stroke="#292D32" stroke-width="2.5" stroke-linecap="round" stroke-linejoin="round"/>
<path d="M82.75 54.3333V52.75C91.9967 55.8375 102.003 55.8375 111.25 52.75V54.3333" stroke="#292D32" stroke-width="2.5" stroke-linecap="round" stroke-linejoin="round"/>
<path d="M82.75 43.2502C91.9967 40.1627 102.003 40.1627 111.25 43.2502" stroke="#292D32" stroke-width="2.5" stroke-linecap="round" stroke-linejoin="round"/>
</svg>
