<svg width="24" height="25" viewBox="0 0 24 25" fill="none" xmlns="http://www.w3.org/2000/svg">
<path d="M4.5 12.5887C4.5 16.7308 7.85786 20.0887 12 20.0887C16.1421 20.0887 19.5 16.7308 19.5 12.5887C19.5 8.44655 16.1421 5.08868 12 5.08868C7.85786 5.08868 4.5 8.44655 4.5 12.5887Z" stroke="white" stroke-width="1.5" stroke-linecap="round" stroke-linejoin="round"/>
<path d="M9 12.5887C9 14.2455 10.3431 15.5887 12 15.5887C13.6569 15.5887 15 14.2455 15 12.5887C15 10.9318 13.6569 9.58868 12 9.58868C10.3431 9.58868 9 10.9318 9 12.5887Z" stroke="white" stroke-width="1.5" stroke-linecap="round" stroke-linejoin="round"/>
<path d="M20 12.5887L22 12.5887" stroke="white" stroke-width="1.5" stroke-linecap="round" stroke-linejoin="round"/>
<path d="M12 4.58868L12 2.58868" stroke="white" stroke-width="1.5" stroke-linecap="round" stroke-linejoin="round"/>
<path d="M4 12.5887L2 12.5887" stroke="white" stroke-width="1.5" stroke-linecap="round" stroke-linejoin="round"/>
<path d="M12 20.5887L12 22.5887" stroke="white" stroke-width="1.5" stroke-linecap="round" stroke-linejoin="round"/>
</svg>
