<svg width="21" height="20" viewBox="0 0 21 20" fill="none" xmlns="http://www.w3.org/2000/svg">
<g opacity="0.6">
<path opacity="0.4" fill-rule="evenodd" clip-rule="evenodd" d="M3.45199 7.5C3.91222 7.5 4.28532 7.8731 4.28532 8.33333V14.1671C4.28532 15.0874 5.03132 15.8333 5.95199 15.8333H7.61865V12.5C7.61865 11.1193 8.73794 10 10.1187 10C11.4994 10 12.6187 11.1193 12.6187 12.5V15.8333H14.2853C15.206 15.8333 15.952 15.0874 15.952 14.1671V8.33333C15.952 7.8731 16.3251 7.5 16.7853 7.5C17.2456 7.5 17.6187 7.8731 17.6187 8.33333V14.1671C17.6187 16.0082 16.1261 17.5 14.2853 17.5H11.7853C11.3251 17.5 10.952 17.1269 10.952 16.6667V12.5C10.952 12.0398 10.5789 11.6667 10.1187 11.6667C9.65842 11.6667 9.28532 12.0398 9.28532 12.5V16.6667C9.28532 17.1269 8.91222 17.5 8.45199 17.5H5.95199C4.11123 17.5 2.61865 16.0082 2.61865 14.1671V8.33333C2.61865 7.8731 2.99175 7.5 3.45199 7.5Z" fill="#06103D"/>
<path fill-rule="evenodd" clip-rule="evenodd" d="M11.0013 3.70085C10.5134 3.21081 9.72402 3.21081 9.23616 3.70085L3.2093 9.7546C2.88459 10.0808 2.35695 10.0819 2.03079 9.75722C1.70463 9.43251 1.70346 8.90487 2.02817 8.57871L8.05503 2.52496C9.19436 1.38055 11.0431 1.38056 12.1824 2.52496L18.2093 8.57871C18.534 8.90487 18.5328 9.43251 18.2067 9.75722C17.8805 10.0819 17.3529 10.0808 17.0282 9.7546L11.0013 3.70085Z" fill="#06103D"/>
</g>
</svg>
