<svg width="34" height="34" viewBox="0 0 34 34" fill="none" xmlns="http://www.w3.org/2000/svg">
<g clip-path="url(#clip0_1294_13116)">
<path d="M17.7006 24.7401C17.4095 24.6357 17.0933 24.7873 16.99 25.0767C16.8878 25.3656 17.0383 25.684 17.3273 25.7868C17.6389 25.8979 17.8834 26.1401 17.9973 26.4512C18.0795 26.6762 18.2928 26.8162 18.5189 26.8162C18.5828 26.8162 18.6473 26.8051 18.71 26.7817C18.9984 26.6762 19.1461 26.3573 19.0411 26.0695C18.8128 25.4468 18.3245 24.9623 17.7006 24.7401Z" fill="#140DDC"/>
<path d="M4.42266 6.74009C5.21602 7.26899 5.84212 7.68618 5.84212 9.61118C5.84212 9.91782 6.09043 10.1667 6.39766 10.1667C6.70488 10.1667 6.95319 9.91782 6.95319 9.61118C6.95319 7.09171 5.93652 6.41398 5.03932 5.81561C4.32878 5.34236 3.75208 4.95786 3.63984 3.50011H8.61986C8.92708 3.50011 9.17539 3.25122 9.17539 2.94458C9.17539 2.0257 9.92318 1.27791 10.8421 1.27791H23.0643C23.9831 1.27791 24.7309 2.0257 24.7309 2.94458C24.7309 3.25122 24.9792 3.50011 25.2865 3.50011H30.2665C30.1542 4.95786 29.5776 5.34236 28.8671 5.81567C27.9699 6.41398 26.9532 7.09178 26.9532 9.61125C26.9532 9.91789 27.2015 10.1668 27.5087 10.1668C27.8159 10.1668 28.0643 9.91789 28.0643 9.61125C28.0643 7.68625 28.6904 7.26899 29.4837 6.74015C30.3809 6.14184 31.3976 5.46404 31.3976 2.94458C31.3976 2.63794 31.1493 2.38904 30.8421 2.38904H25.7854C25.5282 1.1229 24.4054 0.166779 23.0643 0.166779H10.8421C9.50098 0.166779 8.37819 1.1229 8.12096 2.38898H3.06432C2.7571 2.38898 2.50879 2.63787 2.50879 2.94451C2.50872 5.46398 3.52539 6.14178 4.42266 6.74009Z" fill="#03CC7C"/>
<path d="M16.9533 22.389C14.5027 22.389 12.5088 24.3829 12.5088 26.8334C12.5088 29.284 14.5027 31.2779 16.9533 31.2779C19.4038 31.2779 21.3977 29.284 21.3977 26.8334C21.3977 24.3829 19.4038 22.389 16.9533 22.389ZM16.9533 30.1668C15.1149 30.1668 13.6199 28.6718 13.6199 26.8334C13.6199 24.9951 15.1149 23.5001 16.9533 23.5001C18.7916 23.5001 20.2866 24.9951 20.2866 26.8334C20.2866 28.6718 18.7916 30.1668 16.9533 30.1668Z" fill="#1C82AD"/>
<path d="M17.7006 14.7401C17.4095 14.6357 17.0933 14.7873 16.99 15.0767C16.8878 15.3656 17.0383 15.684 17.3273 15.7868C17.6389 15.8979 17.8834 16.1401 17.9973 16.4512C18.0795 16.6762 18.2928 16.8162 18.5189 16.8162C18.5828 16.8162 18.6473 16.8051 18.71 16.7818C18.9984 16.6762 19.1461 16.3573 19.0411 16.0695C18.8128 15.4468 18.3245 14.9623 17.7006 14.7401Z" fill="#140DDC"/>
<path d="M16.9533 12.389C14.5027 12.389 12.5088 14.3829 12.5088 16.8334C12.5088 19.284 14.5027 21.2779 16.9533 21.2779C19.4038 21.2779 21.3977 19.284 21.3977 16.8334C21.3977 14.3829 19.4038 12.389 16.9533 12.389ZM16.9533 20.1668C15.1149 20.1668 13.6199 18.6718 13.6199 16.8334C13.6199 14.9951 15.1149 13.5001 16.9533 13.5001C18.7916 13.5001 20.2866 14.9951 20.2866 16.8334C20.2866 18.6718 18.7916 20.1668 16.9533 20.1668Z" fill="#1C82AD"/>
<path d="M30.8425 12.389H25.8425V5.16677C25.8425 4.86013 25.5942 4.61124 25.287 4.61124C24.9798 4.61124 24.7314 4.86013 24.7314 5.16677V12.9446C24.7314 13.2512 24.9798 13.5001 25.287 13.5001H30.267C30.1548 14.9579 29.5781 15.3424 28.8676 15.8157C27.9704 16.414 26.9537 17.0918 26.9537 19.6112C26.9537 19.9179 27.202 20.1668 27.5092 20.1668C27.8165 20.1668 28.0648 19.9179 28.0648 19.6112C28.0648 17.6862 28.6909 17.269 29.4842 16.7401C30.3814 16.1418 31.3981 15.464 31.3981 12.9446C31.3981 12.6379 31.1497 12.389 30.8425 12.389Z" fill="#140DDC"/>
<path d="M17.7006 4.74009C17.4095 4.63618 17.0933 4.78787 16.99 5.07674C16.8878 5.36561 17.0383 5.68397 17.3273 5.78677C17.6389 5.8979 17.8834 6.14009 17.9973 6.45122C18.0795 6.67622 18.2928 6.8162 18.5189 6.8162C18.5828 6.8162 18.6473 6.80506 18.71 6.78176C18.9984 6.67622 19.1461 6.35734 19.0411 6.06899C18.8128 5.44679 18.3245 4.96235 17.7006 4.74009Z" fill="#140DDC"/>
<path d="M30.8425 22.389H25.8425V15.1668C25.8425 14.8601 25.5942 14.6113 25.287 14.6113C24.9798 14.6113 24.7314 14.8601 24.7314 15.1668V22.9446C24.7314 23.2512 24.9798 23.5001 25.287 23.5001H30.267C30.1548 24.9579 29.5781 25.3424 28.8676 25.8157C27.9704 26.414 26.9537 27.0918 26.9537 29.6113C26.9537 29.9179 27.202 30.1668 27.5092 30.1668C27.8165 30.1668 28.0648 29.9179 28.0648 29.6113C28.0648 27.6863 28.6909 27.269 29.4842 26.7402C30.3814 26.1418 31.3981 25.4641 31.3981 22.9446C31.3981 22.6379 31.1497 22.389 30.8425 22.389Z" fill="#140DDC"/>
<path d="M5.03932 25.8157C4.32878 25.3424 3.75208 24.9579 3.63991 23.5001H8.61985C8.92708 23.5001 9.17539 23.2512 9.17539 22.9446V15.1668C9.17539 14.8601 8.92708 14.6113 8.61985 14.6113C8.31263 14.6113 8.06432 14.8601 8.06432 15.1668V22.389H3.06432C2.7571 22.389 2.50879 22.6379 2.50879 22.9445C2.50879 25.464 3.52546 26.1417 4.42266 26.7401C5.21601 27.269 5.84212 27.6862 5.84212 29.6112C5.84212 29.9178 6.09043 30.1667 6.39766 30.1667C6.70488 30.1667 6.95319 29.9178 6.95319 29.6112C6.95319 27.0918 5.93652 26.414 5.03932 25.8157Z" fill="#140DDC"/>
<path d="M25.2867 24.6112C24.9794 24.6112 24.7311 24.8601 24.7311 25.1668V30.7223C24.7311 31.6412 23.9833 32.389 23.0645 32.389H10.8422C9.92331 32.389 9.17552 31.6412 9.17552 30.7223V25.1668C9.17552 24.8601 8.92721 24.6112 8.61999 24.6112C8.31276 24.6112 8.06445 24.8601 8.06445 25.1668V30.7223C8.06445 32.2539 9.31055 33.5001 10.8423 33.5001H23.0645C24.5961 33.5001 25.8423 32.254 25.8423 30.7223V25.1668C25.8422 24.8601 25.5939 24.6112 25.2867 24.6112Z" fill="#140DDC"/>
<path d="M4.42266 16.7401C5.21602 17.269 5.84212 17.6862 5.84212 19.6112C5.84212 19.9178 6.09043 20.1667 6.39766 20.1667C6.70488 20.1667 6.95319 19.9178 6.95319 19.6112C6.95319 17.0917 5.93652 16.414 5.03932 15.8156C4.32878 15.3423 3.75208 14.9579 3.63991 13.5H8.61986C8.92708 13.5 9.17539 13.2511 9.17539 12.9445V5.16677C9.17539 4.86013 8.92708 4.61124 8.61986 4.61124C8.31263 4.61124 8.06432 4.86013 8.06432 5.16677V12.389H3.06432C2.7571 12.389 2.50879 12.6379 2.50879 12.9445C2.50872 15.464 3.52539 16.1418 4.42266 16.7401Z" fill="#140DDC"/>
<path d="M16.9533 2.38898C14.5027 2.38898 12.5088 4.38286 12.5088 6.83344C12.5088 9.28403 14.5027 11.2779 16.9533 11.2779C19.4038 11.2779 21.3977 9.28403 21.3977 6.83344C21.3977 4.38286 19.4038 2.38898 16.9533 2.38898ZM16.9533 10.1668C15.1149 10.1668 13.6199 8.67179 13.6199 6.83344C13.6199 4.9951 15.1149 3.50011 16.9533 3.50011C18.7916 3.50011 20.2866 4.9951 20.2866 6.83344C20.2866 8.67179 18.7916 10.1668 16.9533 10.1668Z" fill="#1C82AD"/>
</g>
<defs>
<clipPath id="clip0_1294_13116">
<rect width="33.3333" height="33.3333" fill="white" transform="translate(0.286133 0.166779)"/>
</clipPath>
</defs>
</svg>
