<svg width="24" height="25" viewBox="0 0 24 25" fill="none" xmlns="http://www.w3.org/2000/svg">
<path fill-rule="evenodd" clip-rule="evenodd" d="M7 6.16504V18.165C7 19.2696 7.89543 20.165 9 20.165H15C16.1046 20.165 17 19.2696 17 18.165V6.16504H19V18.165C19 20.3742 17.2091 22.165 15 22.165H9C6.79086 22.165 5 20.3742 5 18.165V6.16504H7Z" fill="black" fill-opacity="0.4"/>
<path fill-rule="evenodd" clip-rule="evenodd" d="M11.998 2.16504C10.893 2.16504 9.99804 3.05743 9.99804 4.15921H4.99805C4.44605 4.15921 3.99805 4.6059 3.99805 5.15629C3.99805 5.70668 4.44605 6.15337 4.99805 6.15337H18.998C19.55 6.15337 19.998 5.70668 19.998 5.15629C19.998 4.6059 19.55 4.15921 18.998 4.15921H13.998C13.998 3.05743 13.103 2.16504 11.998 2.16504ZM10.0002 8.19417C10.5525 8.19417 11.0002 8.64059 11.0002 9.19126V17.168C11.0002 17.7186 10.5525 18.165 10.0002 18.165C9.44796 18.165 9.00024 17.7186 9.00024 17.168V9.19126C9.00024 8.64059 9.44796 8.19417 10.0002 8.19417ZM15.0002 9.19126C15.0002 8.64059 14.5525 8.19417 14.0002 8.19417C13.448 8.19417 13.0002 8.64059 13.0002 9.19126V17.168C13.0002 17.7186 13.448 18.165 14.0002 18.165C14.5525 18.165 15.0002 17.7186 15.0002 17.168V9.19126Z" fill="black"/>
</svg>
