<svg width="24" height="25" viewBox="0 0 24 25" fill="none" xmlns="http://www.w3.org/2000/svg">
<path d="M11.625 2.7017C10.746 3.0767 5.47199 5.3277 4.59399 5.7027C4.22499 5.8597 4 6.20771 4 6.60871C4 10.9887 4.17499 12.9487 4.96899 15.2057C6.00799 18.1607 8.048 20.5157 11.5 22.4887C11.807 22.6647 12.193 22.6647 12.5 22.4887C15.983 20.4977 18.032 18.1507 19.062 15.2057C19.846 12.9647 20 11.1007 20 6.60871C20 6.20971 19.773 5.8607 19.406 5.7027L12.438 2.7017C12.186 2.5937 11.877 2.5937 11.625 2.7017ZM12 4.67069L17.996 7.27371C18.083 14.4487 16.677 17.5937 12.009 20.4547C7.22 17.4757 5.94801 14.2967 5.99701 7.28171C7.36001 6.69971 10.847 5.16269 12 4.67069Z" fill="black" fill-opacity="0.4"/>
<path d="M12 7.6207C11.448 7.6207 11 8.0687 11 8.6207V12.6207C11 13.1727 11.448 13.6207 12 13.6207C12.552 13.6207 13 13.1727 13 12.6207V8.6207C13 8.0687 12.552 7.6207 12 7.6207ZM12 14.6207C11.448 14.6207 11 15.0687 11 15.6207C11 16.1727 11.448 16.6207 12 16.6207C12.552 16.6207 13 16.1727 13 15.6207C13 15.0687 12.552 14.6207 12 14.6207Z" fill="black"/>
</svg>
