<svg width="24" height="24" viewBox="0 0 24 24" fill="none" xmlns="http://www.w3.org/2000/svg">
<path d="M0 2.18224C0.0216091 2.11639 0.0570764 2.11762 0.0628633 2.10352C0.799597 0.308511 2.13768 -0.0364296 3.75258 0.00288786C6.82114 0.0775967 9.89217 0.0229993 12.9622 0.0250883C14.8937 0.0264026 15.9812 1.24358 15.9848 3.40974C15.9883 5.48015 15.9855 7.55058 15.9855 9.69569C15.3663 9.971 14.7408 10.2491 14.027 10.5664C14.027 8.63128 14.027 6.79519 14.027 4.95911C14.027 4.36025 14.0262 3.7614 14.0268 3.16255C14.0275 2.59257 13.8043 2.27145 13.2672 2.27178C9.7523 2.27394 6.23737 2.2746 2.72244 2.27143C2.02843 2.2708 1.9575 2.77272 1.9581 3.38156C1.96337 8.64647 1.96096 13.9114 1.9611 19.1763C1.96111 19.7752 1.95341 20.3743 1.96651 20.9728C1.97669 21.4379 2.18548 21.7371 2.62024 21.7414C3.72761 21.7523 4.83512 21.745 6.01297 21.745C6.01297 20.7973 6.00752 19.9073 6.01419 19.0174C6.02532 17.5335 6.82968 16.5142 7.98553 16.5076C9.13544 16.501 9.95648 17.5249 9.97312 19.0038C9.98316 19.8953 9.97497 20.787 9.97497 21.7475C10.8277 21.7475 11.625 21.7151 12.4182 21.7654C12.6873 21.7825 12.9948 21.9467 13.1992 22.1512C13.644 22.5964 14.0338 23.1106 14.5412 23.7087C14.0772 23.8122 13.6669 23.9808 13.2558 23.9833C9.76319 24.0044 6.27044 24.0037 2.7778 23.9911C1.47764 23.9864 0.62269 23.2067 0.0453903 21.9101C0 21.7379 -3.98062e-09 21.5781 0.0405146 21.3151C0.0978458 21.1152 0.129338 21.0185 0.129381 20.9217C0.132027 15.0385 0.133289 9.15523 0.126834 3.272C0.126633 3.08847 0.0441325 2.90505 0 2.72157C0 2.56177 0 2.40197 0 2.18224Z" fill="#ACACAC"/>
<path d="M0 2.79175C0.0441325 2.90501 0.126633 3.08843 0.126834 3.27197C0.133289 9.1552 0.132027 15.0384 0.129381 20.9217C0.129338 21.0184 0.0978458 21.1152 0.0405146 21.2552C-3.98062e-09 15.1529 0 9.00743 0 2.79175Z" fill="#475670"/>
<path d="M17.4281 10.7147C17.8357 10.6914 18.2329 10.5823 18.5499 10.7149C20.1083 11.3669 21.6426 12.0913 23.1917 12.7719C23.7361 13.0111 24.0154 13.4202 23.9993 14.0774C23.9173 17.4258 22.6591 21.8187 18.6506 23.7557C18.2061 23.9705 17.8401 23.9956 17.3916 23.7693C14.091 22.1039 11.8764 18.0982 12.0184 14.0312C12.0418 13.3616 12.3301 12.9913 12.8661 12.7575C14.3758 12.0989 15.8765 11.4146 17.4281 10.7147ZM20.7904 18.9148C21.1807 17.6519 21.5813 16.3927 21.9481 15.1213C21.9935 14.964 21.9064 14.6185 21.8016 14.5683C20.5674 13.9779 19.3182 13.4273 18.0474 12.8547C18.0474 15.8293 18.0474 18.6964 18.0474 21.6341C19.1834 20.9698 20.0602 20.1179 20.7904 18.9148Z" fill="black"/>
<path d="M6.47242 4.21041C6.65724 4.34863 6.88534 4.47347 6.88982 4.60768C6.92116 5.54722 6.93121 6.4904 6.88056 7.42782C6.87255 7.57608 6.52991 7.80345 6.33151 7.81831C5.66886 7.86796 5.00141 7.83244 4.33588 7.83983C3.87955 7.84489 3.69341 7.55137 3.68486 7.0925C3.67143 6.3712 3.6718 5.64908 3.68589 4.92778C3.696 4.41053 3.94694 4.17716 4.41561 4.19128C5.08074 4.21131 5.74664 4.19954 6.47242 4.21041Z" fill="#D9D9D9"/>
<path d="M9.08267 4.59872C9.30795 4.42083 9.50937 4.22653 9.72084 4.21164C10.3396 4.16806 10.9625 4.20823 11.5833 4.19211C12.1009 4.17867 12.3045 4.48136 12.3062 5.01744C12.3083 5.68924 12.3091 6.36108 12.3058 7.03287C12.3031 7.57652 12.0803 7.85812 11.5696 7.84336C10.9489 7.82541 10.3273 7.83023 9.70632 7.8414C9.26129 7.84941 9.03529 7.59603 9.03196 7.12356C9.02619 6.30394 9.05126 5.48405 9.08267 4.59872Z" fill="#D9D9D9"/>
<path d="M4.44994 13.8316C3.90777 13.862 3.69044 13.5736 3.68374 13.0687C3.67416 12.3475 3.67233 11.6257 3.68809 10.9047C3.69841 10.4324 3.91757 10.1784 4.36287 10.1861C5.00597 10.1972 5.64936 10.1931 6.29256 10.1871C6.69504 10.1834 6.93742 10.399 6.94947 10.8446C6.97029 11.6149 6.96938 12.3868 6.95146 13.1572C6.94122 13.597 6.71732 13.8344 6.30886 13.8317C5.71 13.8278 5.1111 13.8314 4.44994 13.8316Z" fill="#D9D9D9"/>
<path d="M12.3067 10.9536C12.2429 11.1541 12.209 11.3659 12.1083 11.4192C11.2249 11.8873 10.7476 12.6682 10.6326 13.7718C10.5166 13.7933 10.4115 13.827 10.3056 13.8302C9.07212 13.8683 9.01578 13.8068 9.01584 12.4403C9.01587 11.941 9.01034 11.4415 9.02288 10.9425C9.0357 10.4322 9.26014 10.1699 9.73874 10.1835C10.3394 10.2006 10.941 10.2017 11.5416 10.1827C11.9963 10.1684 12.2674 10.3612 12.3067 10.9536Z" fill="#999999"/>
<path d="M20.7622 18.9594C20.0602 20.118 19.1834 20.9699 18.0474 21.6342C18.0474 18.6965 18.0474 15.8293 18.0474 12.8547C19.3182 13.4274 20.5674 13.978 21.8016 14.5684C21.9065 14.6186 21.9935 14.9641 21.9482 15.1214C21.5813 16.3928 21.1807 17.652 20.7622 18.9594Z" fill="#FCFCFD"/>
</svg>
