<svg width="24" height="24" viewBox="0 0 24 24" fill="none" xmlns="http://www.w3.org/2000/svg">
<path d="M5 19H18V20C18 21.1046 17.1046 22 16 22H7C5.89543 22 5 21.1046 5 20V19Z" fill="black" fill-opacity="0.4"/>
<path fill-rule="evenodd" clip-rule="evenodd" d="M12.9951 5C12.9951 4.44772 13.4426 4 13.9946 4C14.5466 4 14.9941 4.44772 14.9941 5V13C14.9941 13.5523 15.4416 14 15.9936 14C16.3859 14 16.7255 13.7738 16.8891 13.4447C16.893 13.4375 16.8994 13.4258 16.9083 13.4102C16.9294 13.3732 16.9643 13.3148 17.0127 13.2422C17.1105 13.0954 17.2573 12.8999 17.45 12.7071C17.8408 12.3161 18.3512 12 18.9921 12C19.317 12 19.4942 12.0784 19.5934 12.1446C19.6989 12.2149 19.7816 12.3158 19.8473 12.4472C19.9004 12.5535 19.9358 12.6673 19.9583 12.7704C19.1986 13.9716 17.8585 15.758 16.6414 17.3236C16.1606 17.9421 15.705 18.5186 15.3212 19H17.8694C17.9841 18.8535 18.101 18.7038 18.2194 18.5514C19.5256 16.8712 21.0625 14.8246 21.8482 13.5145C22.1813 12.9591 21.9001 12.0828 21.6353 11.5528C21.451 11.1842 21.159 10.7851 20.7023 10.4804C20.2392 10.1716 19.6668 10 18.9921 10C18.1992 10 17.5321 10.2331 16.9931 10.5484V5C16.9931 3.34315 15.6506 2 13.9946 2C12.3385 2 10.9961 3.34315 10.9961 5V6.17071C10.6834 6.06015 10.347 6 9.99656 6C8.69098 6 7.58029 6.83481 7.16865 8H6.99803C4.78998 8 3 9.79086 3 12V13C3 15.0085 3.84981 16.941 4.63095 18.3086C4.7714 18.5545 4.91174 18.7858 5.04766 19H7.47974C7.43555 18.942 7.38707 18.8773 7.335 18.8064C7.07103 18.4469 6.7184 17.9323 6.36659 17.3164C5.64847 16.059 4.99902 14.4915 4.99902 13V12C4.99902 10.8954 5.89401 10 6.99803 10L6.99803 12C6.99803 12.5523 7.44553 13 7.99754 13C8.54955 13 8.99705 12.5523 8.99705 12V9C8.99705 8.44772 9.44454 8 9.99656 8C10.5486 8 10.9961 8.44772 10.9961 9V11C10.9961 11.5523 11.4436 12 11.9956 12C12.5476 12 12.9951 11.5523 12.9951 11V9V5Z" fill="black"/>
</svg>
