<svg width="24" height="24" viewBox="0 0 24 24" fill="none" xmlns="http://www.w3.org/2000/svg">
<path d="M4.56585 3C3.70611 3 3 3.70535 3 4.56511V7.3208C2.9998 7.37243 3.00983 7.4236 3.02949 7.47134C3.04916 7.51909 3.07809 7.56248 3.1146 7.59899C3.15112 7.6355 3.1945 7.66443 3.24225 7.6841C3.28999 7.70377 3.34116 7.71379 3.3928 7.71359C3.44425 7.71349 3.49517 7.70324 3.54265 7.68344C3.59013 7.66364 3.63324 7.63467 3.66951 7.59818C3.70579 7.5617 3.73451 7.51843 3.75403 7.47083C3.77356 7.42323 3.78351 7.37224 3.78331 7.3208V4.56511C3.78331 4.12827 4.12902 3.78255 4.56585 3.78255H7.32156C7.37294 3.78276 7.42386 3.77283 7.47141 3.75335C7.51896 3.73388 7.5622 3.70524 7.59868 3.66905C7.63515 3.63286 7.66414 3.58982 7.68399 3.54243C7.70384 3.49503 7.71416 3.44422 7.71436 3.39284C7.71457 3.3412 7.70454 3.29 7.68488 3.24225C7.66521 3.1945 7.63628 3.15112 7.59977 3.11461C7.56325 3.07809 7.51987 3.04917 7.47212 3.0295C7.42437 3.00983 7.3732 2.9998 7.32156 3H4.56585ZM16.6761 3C16.6248 3.0002 16.5739 3.01053 16.5265 3.03038C16.4791 3.05023 16.4361 3.07923 16.3999 3.11571C16.3637 3.15218 16.3351 3.1954 16.3156 3.24295C16.2961 3.2905 16.2862 3.34145 16.2864 3.39284C16.2868 3.49608 16.328 3.59495 16.401 3.66795C16.474 3.74095 16.5729 3.78215 16.6761 3.78255H19.4349C19.8717 3.78255 20.2175 4.12827 20.2175 4.56511V7.3208C20.2171 7.42457 20.2579 7.52423 20.331 7.59789C20.4041 7.67155 20.5034 7.71319 20.6072 7.71359C20.6588 7.71379 20.71 7.70377 20.7578 7.6841C20.8055 7.66443 20.8489 7.6355 20.8854 7.59899C20.9219 7.56248 20.9508 7.51909 20.9705 7.47134C20.9902 7.4236 21.0002 7.37243 21 7.3208V4.56511C21 3.70535 20.2947 3 19.4349 3H16.6761ZM12 3.82612C10.4052 3.82612 8.96151 4.47296 7.93368 5.51802C7.8615 5.59204 7.82154 5.69162 7.82254 5.79501C7.82355 5.89839 7.86543 5.99719 7.93904 6.06979C8.01267 6.14237 8.11203 6.18287 8.21541 6.18242C8.3188 6.18197 8.4178 6.14059 8.49079 6.06737C9.3755 5.16783 10.6163 4.60856 12 4.60856C14.7113 4.60856 16.8756 6.74518 16.8756 9.4062V14.5936C16.8756 17.2546 14.7113 19.3904 12 19.3904C9.28876 19.3904 7.1244 17.2546 7.1244 14.5936V9.4062C7.1246 9.35456 7.11458 9.30336 7.09491 9.25561C7.07524 9.20787 7.04632 9.16448 7.0098 9.12797C6.97329 9.09145 6.92991 9.06252 6.88216 9.04286C6.83441 9.02319 6.78324 9.0132 6.7316 9.0134C6.68022 9.0136 6.62938 9.02389 6.58199 9.04374C6.53459 9.06358 6.49157 9.09259 6.45538 9.12907C6.41919 9.16554 6.39053 9.2088 6.37106 9.25635C6.35158 9.30389 6.34166 9.35481 6.34186 9.4062V14.5936C6.34186 17.681 8.87508 20.1737 12 20.1737C15.1249 20.1737 17.6582 17.681 17.6582 14.5936V9.4062C17.6582 6.31879 15.1249 3.82612 12 3.82612ZM12 5.9376C9.89887 5.9376 8.19352 7.63717 8.19352 9.7326C8.19392 9.83584 8.23511 9.93475 8.30811 10.0078C8.38112 10.0808 8.48002 10.1219 8.58326 10.1223C8.63464 10.1225 8.68556 10.1126 8.73311 10.0931C8.78065 10.0736 8.8239 10.045 8.86038 10.0088C8.89685 9.97263 8.92584 9.92959 8.94569 9.8822C8.96554 9.8348 8.97586 9.78399 8.97606 9.7326C8.97606 8.05879 10.3172 6.72012 12 6.72012C13.6828 6.72012 15.0247 8.05879 15.0247 9.7326V14.2673C15.0247 15.941 13.6828 17.2767 12 17.2767C10.3172 17.2767 8.97605 15.941 8.97606 14.2673C8.97596 14.2159 8.96571 14.165 8.94591 14.1175C8.92611 14.07 8.89713 14.0269 8.86065 13.9906C8.82416 13.9543 8.78088 13.9256 8.73328 13.9061C8.68569 13.8866 8.6347 13.8766 8.58326 13.8768C8.47988 13.8772 8.38087 13.9185 8.30784 13.9917C8.23482 14.0649 8.19372 14.164 8.19352 14.2673C8.19352 16.3627 9.89886 18.0593 12 18.0593C14.1011 18.0593 15.8073 16.3627 15.8073 14.2673V9.7326C15.8073 7.63717 14.1011 5.9376 12 5.9376ZM12.0206 7.84347C10.7225 7.84347 9.73872 9.06616 9.73872 10.4922V13.5482C9.73872 14.9742 10.7225 16.1962 12.0206 16.1962C12.072 16.1964 12.1229 16.1864 12.1705 16.167C12.218 16.1475 12.2613 16.1188 12.2977 16.0826C12.3342 16.0464 12.3632 16.0034 12.3831 15.956C12.4029 15.9087 12.4132 15.8578 12.4134 15.8064C12.4136 15.7548 12.4036 15.7036 12.3839 15.6559C12.3643 15.6081 12.3353 15.5647 12.2988 15.5282C12.2623 15.4917 12.2189 15.4628 12.1712 15.4431C12.1234 15.4234 12.0723 15.4134 12.0206 15.4136C11.2237 15.4136 10.5213 14.6222 10.5213 13.5482V10.4922C10.5213 9.41812 11.2237 8.62603 12.0206 8.62603C12.8176 8.62603 13.5192 9.41812 13.5192 10.4922V13.5482C13.519 13.5999 13.529 13.651 13.5487 13.6988C13.5684 13.7465 13.5973 13.7899 13.6338 13.8264C13.6703 13.8629 13.7137 13.8919 13.7615 13.9115C13.8092 13.9312 13.8604 13.9412 13.912 13.941C13.9635 13.9409 14.0144 13.9307 14.0619 13.9109C14.1094 13.8911 14.1525 13.8621 14.1887 13.8256C14.225 13.7891 14.2537 13.7459 14.2733 13.6983C14.2928 13.6507 14.3027 13.5997 14.3025 13.5482V10.4922C14.3025 9.06616 13.3187 7.84347 12.0206 7.84347ZM12 9.78991C11.9486 9.7897 11.8976 9.79965 11.85 9.81918C11.8024 9.8387 11.7591 9.86743 11.7226 9.9037C11.6861 9.93997 11.6572 9.98306 11.6373 10.0305C11.6175 10.078 11.6073 10.1289 11.6072 10.1804V13.8165C11.607 13.8681 11.617 13.9193 11.6367 13.967C11.6564 14.0148 11.6853 14.0581 11.7218 14.0947C11.7583 14.1312 11.8017 14.1601 11.8494 14.1798C11.8972 14.1994 11.9484 14.2095 12 14.2093C12.0514 14.2092 12.1024 14.1989 12.1499 14.1791C12.1973 14.1593 12.2404 14.1303 12.2767 14.0938C12.313 14.0574 12.3417 14.0141 12.3612 13.9665C12.3808 13.9189 12.3907 13.8679 12.3905 13.8165V10.1804C12.3903 10.0769 12.3491 9.9777 12.2759 9.90451C12.2027 9.83132 12.1035 9.79011 12 9.78991ZM3.3928 16.2137C3.34116 16.2135 3.28999 16.2235 3.24224 16.2432C3.1945 16.2629 3.15111 16.2918 3.1146 16.3283C3.07808 16.3648 3.04916 16.4082 3.02949 16.456C3.00982 16.5037 2.9998 16.5549 3 16.6065V19.4341C3 20.2938 3.70611 20.9999 4.56585 20.9999H7.28641C7.33805 21.0001 7.38922 20.9901 7.43696 20.9704C7.48471 20.9507 7.52809 20.9218 7.56461 20.8853C7.60112 20.8488 7.63005 20.8054 7.64972 20.7576C7.66939 20.7099 7.67941 20.6587 7.67921 20.6071C7.6788 20.5033 7.63719 20.404 7.56352 20.3309C7.48986 20.2578 7.39018 20.217 7.28641 20.2174H4.56585C4.12902 20.2174 3.78331 19.8709 3.78331 19.4341V16.6065C3.78351 16.5551 3.77356 16.5041 3.75404 16.4565C3.73451 16.4089 3.70579 16.3656 3.66952 16.3291C3.63325 16.2926 3.59014 16.2637 3.54265 16.2439C3.49517 16.2241 3.44425 16.2138 3.3928 16.2137ZM20.6072 16.3208C20.504 16.3212 20.4051 16.3624 20.3321 16.4354C20.2591 16.5084 20.2179 16.6073 20.2175 16.7106V19.4342C20.2175 19.871 19.8717 20.2174 19.4349 20.2174H16.6761C16.5729 20.2179 16.474 20.2591 16.401 20.3321C16.328 20.4051 16.2868 20.504 16.2864 20.6072C16.2862 20.6586 16.2961 20.7095 16.3156 20.7571C16.3351 20.8046 16.3637 20.8479 16.3999 20.8843C16.4361 20.9208 16.4791 20.9498 16.5265 20.9696C16.5739 20.9895 16.6248 20.9998 16.6761 21H19.4349C20.2947 21 21 20.2939 21 19.4342V16.7106C20.9996 16.6068 20.958 16.5074 20.8843 16.4344C20.8107 16.3613 20.711 16.3204 20.6072 16.3208Z" fill="#A38664"/>
</svg>
