<svg width="25" height="24" viewBox="0 0 25 24" fill="none" xmlns="http://www.w3.org/2000/svg">
<path d="M7.27631 9C5.61931 9 4.27631 10.343 4.27631 12V19C4.27631 20.657 5.61931 22 7.27631 22H17.2763C18.9333 22 20.2763 20.657 20.2763 19V12C20.2763 10.343 18.9333 9 17.2763 9C16.2763 9.00002 8.27631 9.00003 7.27631 9ZM7.27631 11H17.2763C17.8283 11 18.2763 11.448 18.2763 12V19C18.2763 19.552 17.8283 20 17.2763 20H7.27631C6.72431 20 6.27631 19.552 6.27631 19V12C6.27631 11.448 6.72431 11 7.27631 11Z" fill="black" fill-opacity="0.4"/>
<path fill-rule="evenodd" clip-rule="evenodd" d="M9.27631 7C9.27631 5.34315 10.6195 4 12.2763 4C13.9332 4 15.2763 5.34315 15.2763 7V9H17.2763V7C17.2763 4.23858 15.0377 2 12.2763 2C9.51488 2 7.27631 4.23858 7.27631 7V9H9.27631V7ZM9.27631 15C9.27631 13.343 10.6193 12 12.2763 12C13.9333 12 15.2763 13.343 15.2763 15V16C15.2763 17.657 13.9333 19 12.2763 19C10.6193 19 9.27631 17.657 9.27631 16V15ZM13.2763 15C13.2763 14.448 12.8283 14 12.2763 14C11.7243 14 11.2763 14.448 11.2763 15V16C11.2763 16.552 11.7243 17 12.2763 17C12.8283 17 13.2763 16.552 13.2763 16V15Z" fill="black"/>
</svg>
