<svg width="34" height="34" viewBox="0 0 34 34" fill="none" xmlns="http://www.w3.org/2000/svg">
<path d="M17.8768 2.85391C20.888 3.62285 22.44 5.65425 22.4547 8.80344C22.4685 11.7811 22.4928 14.7595 22.451 17.7366C22.4092 20.7154 20.4655 23.0131 17.7546 23.3977C15.0765 23.7776 12.6037 22.1477 11.8104 19.4741C11.5979 18.7577 11.5254 18.0213 11.5274 17.271C11.5345 14.5104 11.5297 11.7497 11.5302 8.98908C11.5308 4.95479 13.9458 2.5852 17.8768 2.85391Z" fill="#999999"/>
<path d="M7.09161 18.0906C7.09182 17.1959 7.06655 16.3872 7.10687 15.582C7.15615 14.5976 7.7154 14.0017 8.52431 13.9925C9.29616 13.9838 9.85726 14.522 9.93432 15.4785C10.0064 16.3734 9.96287 17.2778 9.99361 18.1772C10.1272 22.0837 13.1993 25.1549 16.9693 25.1605C20.7132 25.1661 23.8605 22.0588 23.9982 18.2114C24.0303 17.312 23.9921 16.4081 24.0605 15.5124C24.1339 14.5507 24.6808 14.0026 25.45 13.9938C26.2091 13.9851 26.798 14.5412 26.8632 15.4842C27.1238 19.2575 26.5053 22.7311 23.6491 25.4109C22.3608 26.6196 20.8879 27.4841 19.1915 27.8046C18.3 27.973 18.4023 28.5428 18.4056 29.1618C18.41 29.9576 18.9773 29.8014 19.4289 29.8169C19.9331 29.8343 20.4391 29.8045 20.9427 29.8301C21.8318 29.8752 22.3782 30.4184 22.411 31.2543C22.4425 32.0548 21.8684 32.7158 21.0002 32.7254C18.3285 32.7551 15.6562 32.7528 12.9844 32.7276C12.1668 32.7199 11.5957 32.1002 11.578 31.3406C11.5587 30.5185 12.1132 29.8882 12.9682 29.8325C13.6189 29.7901 14.274 29.8114 14.927 29.8177C15.3618 29.822 15.6256 29.6306 15.5896 29.1597C15.5549 28.7065 15.8217 28.1142 15.1499 27.9056C14.7807 27.791 14.3967 27.7243 14.0341 27.5921C9.76331 26.0349 7.52164 22.8369 7.09161 18.0906Z" fill="black"/>
</svg>
