<svg width="24" height="24" viewBox="0 0 24 24" fill="none" xmlns="http://www.w3.org/2000/svg">
<path fill-rule="evenodd" clip-rule="evenodd" d="M12 20C16.4183 20 20 16.4183 20 12C20 7.58172 16.4183 4 12 4C7.58172 4 4 7.58172 4 12C4 16.4183 7.58172 20 12 20ZM22 12C22 17.5228 17.5228 22 12 22C6.47715 22 2 17.5228 2 12C2 6.47715 6.47715 2 12 2C17.5228 2 22 6.47715 22 12Z" fill="#1DC690"/>
<path fill-rule="evenodd" clip-rule="evenodd" d="M8 11C7.44772 11 7 11.4477 7 12C7 12.5523 7.44772 13 8 13L13.5859 13L10.5858 16.0001L12 17.4143L16.7071 12.7072C16.8224 12.5919 16.9037 12.4554 16.9509 12.3103C16.9742 12.239 16.9896 12.1642 16.9963 12.0868C17.0007 12.0363 17.0012 11.9855 16.9979 11.935C16.9905 11.8188 16.9632 11.708 16.9194 11.606C16.8818 11.5182 16.831 11.4347 16.7671 11.3585C16.746 11.3333 16.7237 11.3092 16.7003 11.2862L12 6.58588L10.5858 8.00009L13.5857 11L8 11Z" fill="#0700C4"/>
</svg>
