<svg width="24" height="25" viewBox="0 0 24 25" fill="none" xmlns="http://www.w3.org/2000/svg">
<path d="M0.0005 12.8312C0.0005 6.20385 5.37268 0.831677 12 0.831677C18.6273 0.831677 23.9995 6.20385 23.9995 12.8312C23.9995 19.4585 18.6273 24.8307 12 24.8307C5.37268 24.8307 0.0005 19.4585 0.0005 12.8312Z" fill="#8DADD3" stroke="#ACC1D9" stroke-width="0.001"/>
<path d="M11.9996 10.8378L12 10.8375L12.0004 10.8371L12.248 10.5899L15.4121 7.42126C15.7051 7.12929 16.1043 7.0005 16.4871 7.0005C16.8699 7.0005 17.2691 7.12929 17.5622 7.42126C18.1453 8.00672 18.1453 8.98898 17.5622 9.57444L14.1505 12.991L13.9052 12.7461L14.1505 12.9917L17.5622 16.4083C18.1453 16.9938 18.1453 17.9761 17.5622 18.5615C16.9775 19.1455 15.9967 19.1455 15.4121 18.5615L12.0004 15.1449L12 15.1453L11.9996 15.1457L11.752 15.3929L8.58794 18.5615C8.00332 19.1455 7.02247 19.1455 6.43785 18.5615C5.85472 17.9761 5.85472 16.9938 6.43785 16.4083L9.84953 12.9917L10.0948 13.2367L9.84953 12.991L6.43785 9.57444C5.85472 8.98898 5.85472 8.00672 6.43785 7.42126L6.43785 7.42126C6.73089 7.12929 7.1301 7.0005 7.51289 7.0005C7.89569 7.0005 8.29489 7.12929 8.58794 7.42126L11.9996 10.8378Z" fill="white" stroke="#ACC1D9" stroke-width="0.001"/>
</svg>
