<?xml version="1.0" standalone="no"?>
<!DOCTYPE svg PUBLIC "-//W3C//DTD SVG 20010904//EN"
 "http://www.w3.org/TR/2001/REC-SVG-20010904/DTD/svg10.dtd">
<svg width="21" height="21" version="1.0" xmlns="http://www.w3.org/2000/svg" viewBox="0 0 256.000000 256.000000"
 preserveAspectRatio="xMidYMid meet">

<g transform="translate(0.000000,256.000000) scale(0.100000,-0.100000)"
fill="#000000" stroke="none">
<path d="M16 2544 c-14 -13 -16 -67 -16 -434 0 -367 2 -421 16 -434 13 -14 50
-16 254 -16 269 0 270 0 270 71 0 35 2 39 26 39 15 0 42 -9 60 -21 l34 -21 0
-216 c0 -338 -20 -322 406 -322 220 0 303 3 312 12 19 19 15 66 -7 78 -12 6
-98 10 -210 10 -175 0 -191 1 -191 18 0 9 -14 41 -31 70 -31 55 -99 108 -151
119 -28 5 -28 6 -28 90 0 93 0 93 70 58 64 -32 410 -109 465 -104 12 2 40 -17
71 -48 59 -58 120 -83 204 -83 162 0 280 113 288 277 3 60 0 80 -20 125 -35
76 -70 112 -140 147 -109 55 -233 37 -329 -47 l-34 -30 -111 62 c-134 74 -144
82 -144 112 0 55 -14 54 561 54 497 0 529 -1 529 -17 0 -10 14 -42 31 -71 31
-55 99 -108 152 -119 l27 -5 0 -198 0 -198 -27 -5 c-53 -11 -121 -64 -152
-119 -17 -29 -31 -61 -31 -70 0 -17 -16 -18 -198 -18 -212 0 -222 -2 -222 -50
0 -49 3 -50 324 -50 338 0 355 3 388 70 16 32 18 74 18 440 0 366 -2 408 -18
440 -34 68 -45 70 -428 70 l-342 0 -137 106 c-75 58 -162 118 -193 132 l-57
27 -382 3 -383 3 0 24 c0 53 -11 55 -270 55 -204 0 -241 -2 -254 -16z m424
-434 l0 -350 -170 0 -170 0 0 350 0 350 170 0 170 0 0 -350z m861 255 c24 -8
84 -46 133 -83 l90 -67 -220 -5 c-196 -4 -223 -7 -253 -25 -62 -37 -90 -130
-57 -193 22 -43 53 -66 176 -133 150 -81 180 -104 180 -135 0 -14 -5 -34 -10
-44 -21 -39 -43 -42 -169 -20 -209 35 -350 85 -483 169 -49 31 -75 41 -107 41
l-41 0 0 255 0 255 358 0 c294 0 366 -3 403 -15z m1067 -267 c13 -13 17 -98 5
-98 -5 0 -21 9 -37 19 -27 18 -66 67 -66 84 0 12 85 8 98 -5z m-710 -229 c62
-31 102 -95 102 -166 0 -115 -77 -193 -190 -193 -54 0 -112 23 -144 58 -18 21
-18 22 3 65 25 51 27 104 6 154 -18 42 -12 52 48 82 54 27 119 27 175 0z
m-854 -488 c27 -18 66 -67 66 -84 0 -4 -24 -7 -52 -5 l-53 3 -3 53 c-2 28 1
52 5 52 4 0 21 -9 37 -19z m1574 -33 l-3 -53 -52 -3 c-29 -2 -53 1 -53 5 0 27
76 103 103 103 4 0 7 -24 5 -52z"/>
<path d="M2055 1730 c-22 -24 -13 -66 15 -75 52 -16 90 36 55 75 -10 11 -26
20 -35 20 -9 0 -25 -9 -35 -20z"/>
<path d="M1535 1270 c-22 -24 -13 -66 15 -75 52 -16 90 36 55 75 -10 11 -26
20 -35 20 -9 0 -25 -9 -35 -20z"/>
<path d="M1755 899 c-117 -12 -205 -58 -299 -155 l-62 -64 -145 0 c-156 0
-209 -8 -248 -38 -39 -29 -71 -91 -71 -140 l0 -43 -32 17 c-18 9 -103 85 -188
169 -85 84 -169 160 -187 169 -41 21 -115 21 -160 -1 -45 -21 -84 -81 -90
-137 -9 -75 19 -115 205 -297 175 -172 243 -224 345 -266 121 -49 171 -53 703
-53 421 0 494 -2 494 -14 0 -8 7 -22 16 -30 23 -24 485 -24 508 0 14 13 16 67
16 434 0 367 -2 421 -16 434 -13 14 -50 16 -254 16 -227 0 -240 -1 -258 -20
-18 -19 -21 -19 -56 -5 -50 21 -147 32 -221 24z m213 -129 l52 -22 0 -294 0
-294 -492 0 c-551 0 -578 3 -708 66 -66 32 -98 59 -262 223 -201 199 -210 213
-168 259 13 14 33 22 52 22 27 0 52 -20 172 -138 267 -262 265 -262 725 -262
288 0 326 2 343 17 23 21 23 38 -2 63 -19 19 -33 20 -312 20 -286 0 -292 0
-315 22 -41 38 -26 98 28 117 19 6 103 11 200 11 l168 0 21 28 c51 66 127 134
177 158 94 46 219 48 321 4z m492 -320 l0 -350 -170 0 -170 0 0 350 0 350 170
0 170 0 0 -350z"/>
</g>
</svg>
