<svg width="24" height="24" viewBox="0 0 24 24" fill="none" xmlns="http://www.w3.org/2000/svg">
<path d="M5.99805 3C4.34105 3 2.99805 4.343 2.99805 6V17C2.99805 19.209 4.78905 21 6.99805 21H16.9981C19.2071 21 20.9981 19.209 20.9981 17V8C20.9981 7.448 20.5501 7 19.9981 7H14.9981C14.2431 7 14.0001 6.755 13.4041 5.562C12.5011 3.755 11.7431 3 9.99805 3H5.99805ZM5.99805 5H9.99805C10.7531 5 10.9961 5.245 11.5921 6.438C11.7221 6.699 11.7761 6.782 11.9041 7H7.96705C7.41405 7 6.96705 7.448 6.96705 8C6.96705 8.552 7.41405 9 7.96705 9H18.9981V17C18.9981 18.105 18.1031 19 16.9981 19H6.99805C5.89305 19 4.99805 18.105 4.99805 17V6C4.99805 5.448 5.44605 5 5.99805 5Z" fill="#F43F5E"/>
<path fill-rule="evenodd" clip-rule="evenodd" d="M14.7071 12.7071C15.0976 12.3166 15.0976 11.6834 14.7071 11.2929C14.3166 10.9024 13.6834 10.9024 13.2929 11.2929L12 12.5858L10.7071 11.2929C10.3166 10.9024 9.68342 10.9024 9.29289 11.2929C8.90237 11.6834 8.90237 12.3166 9.29289 12.7071L10.5858 14L9.29289 15.2929C8.90237 15.6834 8.90237 16.3166 9.29289 16.7071C9.68342 17.0976 10.3166 17.0976 10.7071 16.7071L12 15.4142L13.2929 16.7071C13.6834 17.0976 14.3166 17.0976 14.7071 16.7071C15.0976 16.3166 15.0976 15.6834 14.7071 15.2929L13.4142 14L14.7071 12.7071Z" fill="#F43F5E"/>
</svg>
