<svg width="44" height="44" viewBox="0 0 44 44" fill="none" xmlns="http://www.w3.org/2000/svg">
<path fill-rule="evenodd" clip-rule="evenodd" d="M20.167 9.16667C18.1419 9.16667 16.5003 10.8083 16.5003 12.8333H12.8337C12.8337 8.78325 16.1169 5.5 20.167 5.5H23.8337C27.8837 5.5 31.167 8.78325 31.167 12.8333H27.5003C27.5003 10.8083 25.8587 9.16667 23.8337 9.16667H20.167ZM36.667 24.5436L39.0801 23.7393C39.8287 23.4897 40.3337 22.7891 40.3337 22V31.1667C40.3337 35.2168 37.0504 38.5 33.0003 38.5H11.0003C6.95024 38.5 3.66699 35.2168 3.66699 31.1667V22C3.66699 22.7891 4.17195 23.4897 4.92057 23.7393L7.33366 24.5436V31.1667C7.33366 33.1917 8.97528 34.8333 11.0003 34.8333H33.0003C35.0254 34.8333 36.667 33.1917 36.667 31.1667V24.5436Z" fill="white" fill-opacity="0.4"/>
<path fill-rule="evenodd" clip-rule="evenodd" d="M11.0003 16.4999C8.97528 16.4999 7.33366 18.1415 7.33366 20.1666V20.6785L16.7826 23.8282C20.1695 24.9571 23.8312 24.9571 27.2181 23.8282L36.667 20.6785V20.1666C36.667 18.1415 35.0254 16.4999 33.0003 16.4999H11.0003ZM3.66699 20.1666C3.66699 16.1165 6.95024 12.8333 11.0003 12.8333H33.0003C37.0504 12.8333 40.3337 16.1165 40.3337 20.1666V21.9999C40.3337 22.789 39.8287 23.4896 39.0801 23.7392L28.3776 27.3067C24.238 28.6865 19.7626 28.6865 15.6231 27.3067L4.92057 23.7392C4.17195 23.4896 3.66699 22.789 3.66699 21.9999V20.1666Z" fill="white"/>
</svg>
