<svg width="16" height="16" viewBox="0 0 16 16" fill="none" xmlns="http://www.w3.org/2000/svg">
<path d="M8.00003 1.33333C7.26336 1.33333 6.66669 1.93 6.66669 2.66666H3.33335C2.96535 2.66666 2.66669 2.96533 2.66669 3.33333C2.66669 3.70132 2.96535 3.99999 3.33335 3.99999H12.6667C13.0347 3.99999 13.3334 3.70132 13.3334 3.33333C13.3334 2.96533 13.0347 2.66666 12.6667 2.66666H9.33336C9.33336 1.93 8.73669 1.33333 8.00003 1.33333Z" fill="black"/>
<path d="M3.33331 5.33333V12C3.33331 13.46 4.53665 14.646 5.99998 14.646L10.0207 14.6666C11.484 14.6666 12.6667 13.4633 12.6667 12V5.33333H3.33331ZM6.66665 7.33333C7.03465 7.33333 7.33332 7.63199 7.33332 7.99999V12C7.33332 12.368 7.03465 12.6666 6.66665 12.6666C6.29865 12.6666 5.99998 12.368 5.99998 12V7.99999C5.99998 7.63199 6.29865 7.33333 6.66665 7.33333ZM9.33332 7.33333C9.70132 7.33333 9.99999 7.63199 9.99999 7.99999V12C9.99999 12.368 9.70132 12.6666 9.33332 12.6666C8.96532 12.6666 8.66665 12.368 8.66665 12V7.99999C8.66665 7.63199 8.96532 7.33333 9.33332 7.33333Z" fill="black" fill-opacity="0.4"/>
</svg>
