<svg width="16" height="16" viewBox="0 0 16 16" fill="none" xmlns="http://www.w3.org/2000/svg">
<path d="M4.68272 2C3.21125 2 2 3.19533 2 4.66667V6L2.02064 11.3333C2.02064 12.804 3.21258 14 4.68272 14H11.3379C12.8081 14 14 12.806 14 11.3333L13.9794 6V4.66667C13.9794 3.19267 12.8067 2 11.3379 2C10.6479 2 5.33604 2.00001 4.68272 2ZM4.68272 3.33333C5.3237 3.33333 10.6479 3.32388 11.3379 3.33333C12.068 3.33333 12.6483 3.92533 12.6483 4.66667V5.33333C11.3679 5.33333 4.6115 5.33333 3.33104 5.33333V4.66667C3.33104 3.93533 3.94266 3.33333 4.68272 3.33333ZM3.33104 6.66667C4.6115 6.66667 11.3679 6.66667 12.6483 6.66667L12.669 11.3333C12.669 12.0673 12.0733 12.6667 11.3379 12.6667H4.68272C3.94798 12.6667 3.35168 12.07 3.35168 11.3333L3.33104 6.66667Z" fill="#B99855"/>
<path fill-rule="evenodd" clip-rule="evenodd" d="M5.33366 1.33334C5.70185 1.33334 6.00033 1.63182 6.00033 2.00001V3.33334C6.00033 3.70153 5.70185 4.00001 5.33366 4.00001C4.96547 4.00001 4.66699 3.70153 4.66699 3.33334V2.00001C4.66699 1.63182 4.96547 1.33334 5.33366 1.33334ZM10.667 1.33334C11.0352 1.33334 11.3337 1.63182 11.3337 2.00001V3.33334C11.3337 3.70153 11.0352 4.00001 10.667 4.00001C10.2988 4.00001 10.0003 3.70153 10.0003 3.33334V2.00001C10.0003 1.63182 10.2988 1.33334 10.667 1.33334ZM10.4717 9.13808C10.7321 8.87773 10.7321 8.45562 10.4717 8.19527C10.2114 7.93492 9.78927 7.93492 9.52892 8.19527L8.00033 9.72387L7.1384 8.86194C6.87805 8.60159 6.45594 8.60159 6.19559 8.86194C5.93524 9.12229 5.93524 9.5444 6.19559 9.80475L7.52892 11.1381C7.78927 11.3984 8.21138 11.3984 8.47173 11.1381L10.4717 9.13808Z" fill="#171724"/>
</svg>
