<svg width="11" height="11" viewBox="0 0 11 11" fill="none" xmlns="http://www.w3.org/2000/svg">
<path d="M5.50008 1.83234C4.14211 1.83234 2.998 2.49875 2.05811 3.59416C1.7364 3.96862 1.45507 4.36875 1.22607 4.76842C1.08793 5.01042 1.00349 5.19741 0.953921 5.31291C0.904357 5.42795 0.904357 5.57004 0.953921 5.68508C1.00349 5.80058 1.08793 5.98758 1.22607 6.22958C1.45507 6.62924 1.7364 7.02937 2.05811 7.40383C2.998 8.49924 4.14211 9.16566 5.50008 9.16566C6.85805 9.16566 8.00217 8.49924 8.94205 7.40383C9.2633 7.02937 9.54509 6.62924 9.77364 6.22958C9.91224 5.98758 9.99668 5.80058 10.0462 5.68508C10.0958 5.57004 10.0958 5.42795 10.0462 5.31291C9.99668 5.19741 9.91224 5.01042 9.77364 4.76842C9.54509 4.36875 9.2633 3.96862 8.94205 3.59416C8.00217 2.49875 6.85805 1.83234 5.50008 1.83234ZM5.50008 2.749C6.55149 2.749 7.47256 3.28571 8.25366 4.1955C8.53452 4.52275 8.76904 4.87475 8.97051 5.22675C9.04165 5.35096 9.07239 5.41512 9.11415 5.499C9.07239 5.58287 9.04165 5.64703 8.97051 5.77124C8.76904 6.12324 8.53452 6.47524 8.25366 6.80249C7.47256 7.71228 6.55149 8.24899 5.50008 8.24899C4.44867 8.24899 3.5276 7.71228 2.7465 6.80249C2.46564 6.47524 2.23112 6.12324 2.02919 5.77124C1.95852 5.64703 1.92777 5.58287 1.88601 5.499C1.92777 5.41512 1.95852 5.35096 2.02919 5.22675C2.23112 4.87475 2.46564 4.52275 2.7465 4.1955C3.5276 3.28571 4.44867 2.749 5.50008 2.749Z" fill="black"/>
<path d="M5.50008 3.66666C4.48762 3.66666 3.66675 4.48753 3.66675 5.49999C3.66675 6.51244 4.48762 7.33332 5.50008 7.33332C6.51254 7.33332 7.33342 6.51244 7.33342 5.49999C7.33342 5.24699 7.12808 5.04165 6.87508 5.04165C6.62208 5.04165 6.41675 5.24699 6.41675 5.49999C6.41675 6.00644 6.00608 6.41665 5.50008 6.41665C4.99362 6.41665 4.58342 6.00644 4.58342 5.49999C4.58342 4.99353 4.99362 4.58332 5.50008 4.58332C5.61237 4.58332 5.72741 4.60211 5.82962 4.64061C6.06612 4.72999 6.32738 4.60532 6.41675 4.36837C6.50613 4.13187 6.38146 3.87061 6.1445 3.78124C5.93917 3.70378 5.72329 3.66666 5.50008 3.66666Z" fill="black"/>
</svg>
