<svg width="24" height="25" viewBox="0 0 24 25" fill="none" xmlns="http://www.w3.org/2000/svg">
<path fill-rule="evenodd" clip-rule="evenodd" d="M11.5278 16.165C10.5778 15.1035 10 13.7017 10 12.165C10 10.6283 10.5778 9.22655 11.5278 8.16504H6.00009C3.79095 8.16504 2.00009 9.9559 2.00009 12.165C2.00009 14.3742 3.79095 16.165 6.00009 16.165H11.5278Z" fill="black" fill-opacity="0.4"/>
<path fill-rule="evenodd" clip-rule="evenodd" d="M16 16.165C13.7909 16.165 12 14.3742 12 12.165C12 9.9559 13.7909 8.16504 16 8.16504C18.2091 8.16504 20 9.9559 20 12.165C20 14.3742 18.2091 16.165 16 16.165ZM16 18.165C12.6863 18.165 10 15.4787 10 12.165C10 8.85133 12.6863 6.16504 16 6.16504C19.3137 6.16504 22 8.85133 22 12.165C22 15.4787 19.3137 18.165 16 18.165Z" fill="black"/>
</svg>
