<svg width="16" height="16" viewBox="0 0 16 16" fill="none" xmlns="http://www.w3.org/2000/svg">
<path d="M8.00944 1.33261C4.32757 1.33261 1.34277 4.31728 1.34277 7.99928C1.34277 11.6813 4.32751 14.6659 8.00944 14.6659C11.6913 14.6659 14.6761 11.6813 14.6761 7.99928C14.6761 4.31728 11.6913 1.33261 8.00944 1.33261ZM8.00944 2.66594C10.955 2.66594 13.3428 5.05394 13.3428 7.99928C13.3428 10.9446 10.955 13.3326 8.00944 13.3326C5.06391 13.3326 2.67611 10.9446 2.67611 7.99928C2.67611 5.05394 5.06391 2.66594 8.00944 2.66594Z" fill="#1C3F64"/>
<path fill-rule="evenodd" clip-rule="evenodd" d="M7.99998 4C8.36817 4 8.66665 4.29848 8.66665 4.66667V7.72386L10.4714 9.5286C10.7317 9.78895 10.7317 10.2111 10.4714 10.4714C10.211 10.7318 9.78892 10.7318 9.52858 10.4714L7.52858 8.4714C7.40355 8.34638 7.33331 8.17681 7.33331 8V4.66667C7.33331 4.29848 7.63179 4 7.99998 4Z" fill="#C7A000"/>
</svg>
