<svg width="35" height="34" viewBox="0 0 35 34" fill="none" xmlns="http://www.w3.org/2000/svg">
<path d="M12.5963 18.6562C8.96534 19.6485 6.38965 22.8058 6.38965 26.5555V29.3333C6.38965 30.1004 7.01145 30.7222 7.77854 30.7222H27.223C27.9901 30.7222 28.6119 30.1004 28.6119 29.3333V26.5555C28.6119 22.8058 26.0362 19.6485 22.4052 18.6562C22.094 18.571 21.7881 18.6104 21.4938 18.743C20.2223 19.316 18.8687 19.611 17.5008 19.611C16.1328 19.611 14.7792 19.316 13.5077 18.743C13.2134 18.6104 12.9076 18.571 12.5963 18.6562ZM13.1605 21.434C14.563 21.9644 16.0003 22.3888 17.5008 22.3888C19.0012 22.3888 20.4385 21.9644 21.841 21.434C24.2069 22.1506 25.8341 24.1477 25.8341 26.5555V27.9444H9.16743V26.5555C9.16743 24.1477 10.7946 22.1506 13.1605 21.434Z" fill="black"/>
<path d="M17.5011 2.94458C13.6658 2.94458 10.5566 6.05375 10.5566 9.88902C10.5566 13.7243 13.6658 16.8334 17.5011 16.8334C21.3364 16.8334 24.4455 13.7243 24.4455 9.88902C24.4455 6.05375 21.3364 2.94458 17.5011 2.94458ZM17.5011 5.72236C19.8023 5.72236 21.6677 7.58777 21.6677 9.88902C21.6677 12.1902 19.8023 14.0557 17.5011 14.0557C15.1998 14.0557 13.3344 12.1902 13.3344 9.88902C13.3344 7.58777 15.1998 5.72236 17.5011 5.72236Z" fill="black" fill-opacity="0.4"/>
</svg>
