<svg width="14" height="15" viewBox="0 0 14 15" fill="none" xmlns="http://www.w3.org/2000/svg">
<path d="M6.99996 2.1048C3.77821 2.1048 1.16663 4.71638 1.16663 7.93813C1.16663 11.1599 3.77821 13.7715 6.99996 13.7715C10.2217 13.7715 12.8333 11.1599 12.8333 7.93813C12.8333 4.71638 10.2217 2.1048 6.99996 2.1048Z" fill="#E0E7ED"/>
<path d="M5.25497 5.6048C5.10607 5.6048 4.95077 5.6549 4.83676 5.76848C4.60991 5.99624 4.60991 6.37835 4.83676 6.60611L6.16353 7.93478L4.83676 9.26346C4.60991 9.49122 4.60991 9.87333 4.83676 10.1011C5.06419 10.3283 5.44576 10.3283 5.67318 10.1011L6.99996 8.77241L8.32673 10.1011C8.55416 10.3283 8.93573 10.3283 9.16316 10.1011C9.39 9.87333 9.39 9.49122 9.16316 9.26346L7.83639 7.93478L9.16316 6.60611C9.39 6.37835 9.39 5.99624 9.16316 5.76848C9.04915 5.6549 8.89385 5.6048 8.74494 5.6048C8.59604 5.6048 8.44074 5.6549 8.32673 5.76848L6.99996 7.09715L5.67318 5.76848C5.55918 5.6549 5.40388 5.6048 5.25497 5.6048Z" fill="#97A5B3"/>
</svg>
