<svg width="24" height="25" viewBox="0 0 24 25" fill="none" xmlns="http://www.w3.org/2000/svg">
<path fill-rule="evenodd" clip-rule="evenodd" d="M9 3.16504C7.89543 3.16504 7 4.06047 7 5.16504V7.16504H9V5.16504H15V7.16504H17V5.16504C17 4.06047 16.1046 3.16504 15 3.16504H9ZM9 19.165V13.165H15V19.165H9ZM7 13.165C6.44772 13.165 6 12.7173 6 12.165C6 11.6128 6.44772 11.165 7 11.165H17C17.5523 11.165 18 11.6128 18 12.165C18 12.7173 17.5523 13.165 17 13.165V19.165C17 20.2696 16.1046 21.165 15 21.165H9C7.89543 21.165 7 20.2696 7 19.165V13.165Z" fill="black"/>
<path fill-rule="evenodd" clip-rule="evenodd" d="M5 9.16504C4.44772 9.16504 4 9.61275 4 10.165V15.165C4 15.7173 4.44772 16.165 5 16.165H7V18.165H5C3.34315 18.165 2 16.8219 2 15.165V10.165C2 8.50818 3.34315 7.16504 5 7.16504H19C20.6569 7.16504 22 8.50819 22 10.165V15.165C22 16.8219 20.6569 18.165 19 18.165H17V16.165H19C19.5523 16.165 20 15.7173 20 15.165V10.165C20 9.61275 19.5523 9.16504 19 9.16504H5Z" fill="#999999"/>
</svg>
