<svg width="25" height="24" viewBox="0 0 25 24" fill="none" xmlns="http://www.w3.org/2000/svg">
<path fill-rule="evenodd" clip-rule="evenodd" d="M12.5 2C10.2909 2 8.5 3.79086 8.5 6H5.5C4.39543 6 3.5 6.89543 3.5 8V18C3.5 20.2091 5.29086 22 7.5 22H17.5C19.7091 22 21.5 20.2091 21.5 18V8C21.5 6.89543 20.6046 6 19.5 6H16.5C16.5 3.79086 14.7091 2 12.5 2ZM14.5 6C14.5 4.89543 13.6046 4 12.5 4C11.3954 4 10.5 4.89543 10.5 6H14.5Z" fill="#D8D7EF"/>
<path fill-rule="evenodd" clip-rule="evenodd" d="M11.5 16C11.5 16.5523 11.9477 17 12.5 17C13.0523 17 13.5 16.5523 13.5 16V15H14.5C15.0523 15 15.5 14.5523 15.5 14C15.5 13.4477 15.0523 13 14.5 13H13.5V12C13.5 11.4477 13.0523 11 12.5 11C11.9477 11 11.5 11.4477 11.5 12V13H10.5C9.94772 13 9.5 13.4477 9.5 14C9.5 14.5523 9.94772 15 10.5 15H11.5V16Z" fill="white"/>
</svg>
