<svg width="25" height="24" viewBox="0 0 25 24" fill="none" xmlns="http://www.w3.org/2000/svg">
<path d="M16.5 7C15.948 7 15.5 7.4477 15.5 8C15.5 8.5523 15.948 9 16.5 9H21.5C22.052 9 22.5 8.5523 22.5 8C22.5 7.4477 22.052 7 21.5 7H16.5ZM15.5 11C14.948 11 14.5 11.4477 14.5 12C14.5 12.5523 14.948 13 15.5 13H21.5C22.052 13 22.5 12.5523 22.5 12C22.5 11.4477 22.052 11 21.5 11H15.5ZM18.5 15C17.948 15 17.5 15.4477 17.5 16C17.5 16.5523 17.948 17 18.5 17H21.5C22.052 17 22.5 16.5523 22.5 16C22.5 15.4477 22.052 15 21.5 15H18.5Z" fill="#8B87FD"/>
<path fill-rule="evenodd" clip-rule="evenodd" d="M4.5 7.5C4.5 5.015 6.515 3 9 3C11.485 3 13.5 5.015 13.5 7.5C13.5 9.985 11.485 12 9 12C6.515 12 4.5 9.985 4.5 7.5ZM11.5 7.5C11.5 6.119 10.381 5 9 5C7.619 5 6.5 6.119 6.5 7.5C6.5 8.881 7.619 10 9 10C10.381 10 11.5 8.881 11.5 7.5Z" fill="#0700C4"/>
<path fill-rule="evenodd" clip-rule="evenodd" d="M2.5 18C2.5 15.956 3.72801 14.101 5.56201 13.344C5.81801 13.238 6.09199 13.26 6.34399 13.375C7.25999 13.792 8.125 14 9 14C9.878 14 10.74 13.803 11.625 13.406C11.881 13.292 12.18 13.295 12.438 13.406C14.265 14.194 15.5 16.004 15.5 18V20C15.5 20.552 15.052 21 14.5 21H3.5C2.948 21 2.5 20.552 2.5 20V18ZM9 16C8.031 16 6.89199 15.748 5.94699 15.39C5.15599 15.853 4.5 16.835 4.5 18V19H13.5V18C13.5 16.899 12.882 15.937 11.979 15.423C11.053 15.765 9.961 16 9 16Z" fill="#0700C4"/>
</svg>
