<svg width="30" height="30" viewBox="0 0 30 30" fill="none" xmlns="http://www.w3.org/2000/svg">
<g id="icon-calendar-all">
<path id="Vector" d="M8.78791 3.75C6.02891 3.75 3.75781 5.99125 3.75781 8.75V11.25L3.7965 21.25C3.7965 24.0075 6.0314 26.25 8.78791 26.25H21.2664C24.0229 26.25 26.2578 24.0112 26.2578 21.25L26.2191 11.25V8.75C26.2191 5.98625 24.0204 3.75 21.2664 3.75C19.9726 3.75 10.0129 3.75002 8.78791 3.75ZM8.78791 6.25C9.98975 6.25 19.9726 6.23228 21.2664 6.25C22.6353 6.25 23.7234 7.36 23.7234 8.75V10C21.3226 10 8.65438 10 6.25351 10V8.75C6.25351 7.37875 7.4003 6.25 8.78791 6.25ZM6.25351 12.5C8.65438 12.5 21.3226 12.5 23.7234 12.5L23.7621 21.25C23.7621 22.6262 22.6453 23.75 21.2664 23.75H8.78791C7.41028 23.75 6.2922 22.6312 6.2922 21.25L6.25351 12.5Z" fill="#A3A3A3"/>
<path id="Union" fill-rule="evenodd" clip-rule="evenodd" d="M11.25 3.75C11.25 3.05964 10.6904 2.5 10 2.5C9.30964 2.5 8.75 3.05964 8.75 3.75V6.25C8.75 6.94036 9.30964 7.5 10 7.5C10.6904 7.5 11.25 6.94036 11.25 6.25V3.75ZM21.25 3.75C21.25 3.05964 20.6903 2.5 20 2.5C19.3097 2.5 18.75 3.05964 18.75 3.75V6.25C18.75 6.94036 19.3097 7.5 20 7.5C20.6903 7.5 21.25 6.94036 21.25 6.25V3.75ZM11.25 16.25C11.25 16.9404 10.6904 17.5 10 17.5C9.30964 17.5 8.75 16.9404 8.75 16.25C8.75 15.5596 9.30964 15 10 15C10.6904 15 11.25 15.5596 11.25 16.25ZM10 21.25C10.6904 21.25 11.25 20.6904 11.25 20C11.25 19.3096 10.6904 18.75 10 18.75C9.30964 18.75 8.75 19.3096 8.75 20C8.75 20.6904 9.30964 21.25 10 21.25ZM16.25 16.25C16.25 16.9404 15.6904 17.5 15 17.5C14.3096 17.5 13.75 16.9404 13.75 16.25C13.75 15.5596 14.3096 15 15 15C15.6904 15 16.25 15.5596 16.25 16.25ZM15 21.25C15.6904 21.25 16.25 20.6904 16.25 20C16.25 19.3096 15.6904 18.75 15 18.75C14.3096 18.75 13.75 19.3096 13.75 20C13.75 20.6904 14.3096 21.25 15 21.25ZM21.25 16.25C21.25 16.9404 20.6903 17.5 20 17.5C19.3097 17.5 18.75 16.9404 18.75 16.25C18.75 15.5596 19.3097 15 20 15C20.6903 15 21.25 15.5596 21.25 16.25ZM20 21.25C20.6903 21.25 21.25 20.6904 21.25 20C21.25 19.3096 20.6903 18.75 20 18.75C19.3097 18.75 18.75 19.3096 18.75 20C18.75 20.6904 19.3097 21.25 20 21.25Z" fill="black"/>
</g>
</svg>
