<svg width="24" height="24" viewBox="0 0 24 24" fill="none" xmlns="http://www.w3.org/2000/svg">
<path d="M12.1401 8.65251L12.0183 8.74876L12.7805 8.62179C12.4041 8.74179 12.2285 8.76483 12.1401 8.65251ZM12.1401 8.65251C12.0917 8.59118 12.073 8.50711 12.1234 8.40884C11.9981 8.56336 11.9913 8.67359 12.0182 8.74841L12.1401 8.65251ZM12.0219 6.71048C12.8287 6.55776 13.7633 6.92117 14.3923 7.71075C14.8014 8.22672 15.0022 8.83041 14.9991 9.39667L12.0219 6.71048ZM12.0219 6.71048L12.6783 6.19076C13.4635 6.27988 14.2407 6.71794 14.7834 7.39922L14.7841 7.40011C15.2586 7.9986 15.5024 8.71137 15.4992 9.39667L12.0219 6.71048ZM11.688 7.59267C11.7278 7.56107 11.7786 7.54657 11.8291 7.55235C11.8542 7.55516 11.8784 7.56289 11.9005 7.57508C11.9226 7.58726 11.942 7.60368 11.9577 7.62339M11.688 7.59267L11.6553 7.61859C11.6355 7.63422 11.619 7.65359 11.6067 7.67561C11.5944 7.69763 11.5866 7.72185 11.5836 7.74691C11.5807 7.77196 11.5827 7.79734 11.5896 7.82161C11.5963 7.84549 11.6077 7.86783 11.6229 7.88739L11.7718 7.77001L11.7729 7.76913L11.7734 7.76877L11.7737 7.76852L11.7741 7.76816L11.8068 7.74244L11.688 7.59267ZM11.688 7.59267L11.8069 7.74236L11.8074 7.74191L11.8079 7.74158L11.8091 7.74061L11.9577 7.62343M11.9577 7.62343L11.8369 7.71983L11.8369 7.71984L11.8077 7.74315L11.8076 7.74324L11.8076 7.74329L11.8077 7.74335L11.8087 7.74473L11.8184 7.75683L11.8338 7.77629L11.8713 7.82354L11.9183 7.88268C11.926 7.87594 11.9337 7.86931 11.9415 7.86279C11.9516 7.85435 11.9618 7.8461 11.972 7.83802L11.9744 7.8361L11.9744 7.83611C11.9907 7.82334 12.0073 7.81084 12.024 7.79862C12.0392 7.78749 12.0546 7.77659 12.0701 7.76592L12.0183 7.7002L11.9605 7.62694L11.9582 7.62396L11.9577 7.62339M11.9577 7.62343L11.9577 7.62339M11.9577 7.62343L11.9577 7.62339M10.1471 9.39763H8.62825L10.0592 8.26457C10.0147 8.63572 10.0459 9.02249 10.1471 9.39763ZM17.6517 8.00857L15.8983 9.39667L17.6517 8.00857ZM11.8709 7.82329L11.9181 7.88285C11.9077 7.89194 11.8975 7.90122 11.8873 7.91071C11.8871 7.91096 11.8868 7.91121 11.8865 7.91147C11.8685 7.92833 11.8509 7.94581 11.8339 7.96394C11.8135 7.98554 11.7939 8.00806 11.7753 8.0315C11.7749 8.03198 11.7745 8.03247 11.7741 8.03295C11.7702 8.03787 11.7664 8.04283 11.7626 8.04783C11.7567 8.04696 11.7508 8.04591 11.745 8.0447L11.7398 8.03806L11.6843 7.96652L11.6245 7.88936L11.6981 7.83059L11.6981 7.83058L11.7745 7.7696L11.7747 7.7695L11.7748 7.76936L11.775 7.76924L11.7752 7.76903L11.8072 7.74349L11.8075 7.74332L11.8075 7.74341L11.8076 7.74354L11.8086 7.74482L11.8182 7.75687L11.8336 7.77626L11.8709 7.82329Z" stroke="#999999"/>
<mask id="path-2-inside-1_2815_48423" fill="white">
<path d="M19.7165 9.41956H18.5578L19.4342 8.72452L19.4448 8.73412C19.5308 8.82002 19.599 8.92209 19.6455 9.03445C19.692 9.14681 19.7158 9.26725 19.7155 9.38884L19.7165 9.41956ZM21.5664 15.8333V18.0538C21.5664 18.1274 21.5372 18.1979 21.4851 18.25C21.4331 18.302 21.3625 18.3312 21.289 18.3312H17.4038C17.0358 18.3312 16.6828 18.185 16.4226 17.9248C16.1624 17.6646 16.0162 17.3116 16.0162 16.9436C16.0162 16.5755 16.1624 16.2226 16.4226 15.9623C16.6828 15.7021 17.0358 15.5559 17.4038 15.5559H21.289C21.3625 15.5559 21.4331 15.5851 21.4851 15.6371C21.5372 15.6892 21.5664 15.7597 21.5664 15.8333ZM18.1027 16.944C18.1027 16.8056 18.0617 16.6703 17.9848 16.5552C17.9079 16.4401 17.7986 16.3504 17.6707 16.2975C17.5428 16.2445 17.4021 16.2306 17.2663 16.2576C17.1306 16.2846 17.0059 16.3513 16.908 16.4492C16.8101 16.547 16.7435 16.6717 16.7165 16.8075C16.6895 16.9433 16.7033 17.084 16.7563 17.2119C16.8093 17.3397 16.899 17.449 17.0141 17.5259C17.1292 17.6028 17.2645 17.6439 17.4029 17.6439C17.5885 17.6439 17.7665 17.5701 17.8977 17.4389C18.029 17.3077 18.1027 17.1296 18.1027 16.944ZM17.4029 18.794H21.0413V22.1242C21.0413 22.3064 21.0054 22.4869 20.9356 22.6553C20.8658 22.8236 20.7635 22.9766 20.6346 23.1054C20.5057 23.2343 20.3527 23.3364 20.1843 23.4061C20.0159 23.4757 19.8354 23.5115 19.6531 23.5114H3.82175C3.45376 23.5114 3.10082 23.3653 2.84052 23.1052C2.58021 22.845 2.43385 22.4922 2.43359 22.1242V9.85156C2.43385 9.48356 2.58021 9.13072 2.84052 8.8706C3.10082 8.61048 3.45376 8.46436 3.82175 8.46436H4.73663L4.32671 9.42436H3.85247C3.72975 9.42436 3.61206 9.47311 3.52528 9.55988C3.4385 9.64666 3.38975 9.76435 3.38975 9.88708V9.9178C3.38975 10.0405 3.4385 10.1582 3.52528 10.245C3.61206 10.3318 3.72975 10.3805 3.85247 10.3805H19.6541C19.8363 10.3804 20.0168 10.4162 20.1852 10.4858C20.3536 10.5555 20.5067 10.6577 20.6356 10.7865C20.7645 10.9153 20.8668 11.0683 20.9365 11.2366C21.0063 11.405 21.0422 11.5855 21.0422 11.7677V15.098H17.4038C16.9132 15.098 16.4427 15.2929 16.0957 15.6398C15.7488 15.9867 15.5539 16.4572 15.5539 16.9479C15.5539 17.4385 15.7488 17.909 16.0957 18.256C16.4427 18.6029 16.9132 18.7978 17.4038 18.7978L17.4029 18.794ZM19.9766 13.8452C19.9766 13.8084 19.962 13.7731 19.936 13.7471C19.91 13.7211 19.8747 13.7064 19.8379 13.7064C19.8011 13.7064 19.7658 13.7211 19.7398 13.7471C19.7138 13.7731 19.6992 13.8084 19.6992 13.8452V14.496C19.6992 14.5328 19.7138 14.5681 19.7398 14.5941C19.7658 14.6201 19.8011 14.6348 19.8379 14.6348C19.8747 14.6348 19.91 14.6201 19.936 14.5941C19.962 14.5681 19.9766 14.5328 19.9766 14.496V13.8452ZM19.9766 12.458C19.9766 12.4212 19.962 12.3859 19.936 12.3599C19.91 12.3339 19.8747 12.3192 19.8379 12.3192C19.8011 12.3192 19.7658 12.3339 19.7398 12.3599C19.7138 12.3859 19.6992 12.4212 19.6992 12.458V13.106C19.6992 13.1427 19.7138 13.178 19.7398 13.204C19.7658 13.2301 19.8011 13.2447 19.8379 13.2447C19.8747 13.2447 19.91 13.2301 19.936 13.204C19.962 13.178 19.9766 13.1427 19.9766 13.106V12.458ZM19.441 11.5796C19.4412 11.6163 19.456 11.6515 19.4821 11.6774C19.5081 11.7033 19.5434 11.7178 19.5802 11.7178H19.6531C19.6647 11.7195 19.6755 11.7249 19.6838 11.7332C19.6921 11.7415 19.6975 11.7523 19.6992 11.7639V11.8378C19.6992 11.8746 19.7138 11.9099 19.7398 11.9359C19.7658 11.9619 19.8011 11.9765 19.8379 11.9765C19.8747 11.9765 19.91 11.9619 19.936 11.9359C19.962 11.9099 19.9766 11.8746 19.9766 11.8378V11.7639C19.9744 11.6788 19.9397 11.5977 19.8795 11.5375C19.8193 11.4773 19.7382 11.4425 19.6531 11.4404H19.584C19.5655 11.4398 19.547 11.443 19.5298 11.4497C19.5125 11.4564 19.4967 11.4665 19.4834 11.4794C19.4701 11.4923 19.4595 11.5077 19.4522 11.5247C19.4449 11.5418 19.4411 11.561 19.441 11.5796ZM18.2122 11.5796C18.2124 11.6163 18.2272 11.6515 18.2533 11.6774C18.2793 11.7033 18.3146 11.7178 18.3514 11.7178H18.9984C19.0176 11.7194 19.0369 11.717 19.0551 11.7107C19.0733 11.7045 19.09 11.6945 19.1042 11.6815C19.1184 11.6685 19.1297 11.6526 19.1374 11.635C19.1451 11.6174 19.1491 11.5983 19.1491 11.5791C19.1491 11.5598 19.1451 11.5408 19.1374 11.5231C19.1297 11.5055 19.1184 11.4897 19.1042 11.4766C19.09 11.4636 19.0733 11.4537 19.0551 11.4474C19.0369 11.4412 19.0176 11.4388 18.9984 11.4404H18.3514C18.3148 11.4406 18.2798 11.4553 18.2539 11.4811C18.228 11.507 18.2134 11.542 18.2131 11.5786L18.2122 11.5796ZM16.825 11.5796C16.8252 11.6161 16.8399 11.6512 16.8657 11.677C16.8916 11.7029 16.9266 11.7175 16.9632 11.7178H17.6112C17.6304 11.7194 17.6497 11.717 17.6679 11.7107C17.6861 11.7045 17.7028 11.6945 17.717 11.6815C17.7312 11.6685 17.7425 11.6526 17.7502 11.635C17.7579 11.6174 17.7619 11.5983 17.7619 11.5791C17.7619 11.5598 17.7579 11.5408 17.7502 11.5231C17.7425 11.5055 17.7312 11.4897 17.717 11.4766C17.7028 11.4636 17.6861 11.4537 17.6679 11.4474C17.6497 11.4412 17.6304 11.4388 17.6112 11.4404H16.9632C16.9266 11.4406 16.8916 11.4553 16.8657 11.4811C16.8399 11.507 16.8252 11.543 16.825 11.5796ZM15.4368 11.5796C15.437 11.6163 15.4518 11.6515 15.4779 11.6774C15.504 11.7033 15.5392 11.7178 15.576 11.7178H16.224C16.2432 11.7194 16.2625 11.717 16.2807 11.7107C16.2989 11.7045 16.3156 11.6945 16.3298 11.6815C16.344 11.6685 16.3553 11.6526 16.363 11.635C16.3707 11.6174 16.3747 11.5983 16.3747 11.5791C16.3747 11.5598 16.3707 11.5408 16.363 11.5231C16.3553 11.5055 16.344 11.4897 16.3298 11.4766C16.3156 11.4636 16.2989 11.4537 16.2807 11.4474C16.2625 11.4412 16.2432 11.4388 16.224 11.4404H15.577C15.5402 11.4404 15.5049 11.4549 15.4789 11.4808C15.4528 11.5067 15.438 11.5418 15.4378 11.5786L15.4368 11.5796ZM3.49727 11.8368C3.49568 11.856 3.49808 11.8753 3.50432 11.8935C3.51057 11.9118 3.52053 11.9285 3.53356 11.9426C3.5466 11.9568 3.56243 11.9681 3.58007 11.9759C3.5977 11.9836 3.61674 11.9876 3.63599 11.9876C3.65525 11.9876 3.67429 11.9836 3.69192 11.9759C3.70955 11.9681 3.72539 11.9568 3.73843 11.9426C3.75146 11.9285 3.76142 11.9118 3.76766 11.8935C3.77391 11.8753 3.77631 11.856 3.77471 11.8368V11.7629C3.77644 11.7513 3.78185 11.7406 3.79015 11.7323C3.79844 11.724 3.80919 11.7186 3.82079 11.7168H3.89375C3.92855 11.7139 3.96099 11.6981 3.98464 11.6724C4.00828 11.6467 4.0214 11.613 4.0214 11.5781C4.0214 11.5432 4.00828 11.5096 3.98464 11.4839C3.96099 11.4582 3.92855 11.4423 3.89375 11.4394H3.82079C3.73568 11.4416 3.65466 11.4764 3.59445 11.5366C3.53425 11.5968 3.49946 11.6778 3.49727 11.7629V11.8368ZM3.49727 13.105C3.50017 13.1398 3.51604 13.1722 3.54174 13.1959C3.56743 13.2195 3.60107 13.2326 3.63599 13.2326C3.67091 13.2326 3.70456 13.2195 3.73025 13.1959C3.75595 13.1722 3.77182 13.1398 3.77471 13.105V12.457C3.77182 12.4222 3.75595 12.3898 3.73025 12.3661C3.70456 12.3425 3.67091 12.3293 3.63599 12.3293C3.60107 12.3293 3.56743 12.3425 3.54174 12.3661C3.51604 12.3898 3.50017 12.4222 3.49727 12.457V13.105ZM3.49727 14.4922C3.50017 14.527 3.51604 14.5594 3.54174 14.5831C3.56743 14.6067 3.60107 14.6198 3.63599 14.6198C3.67091 14.6198 3.70456 14.6067 3.73025 14.5831C3.75595 14.5594 3.77182 14.527 3.77471 14.4922V13.8442C3.77182 13.8094 3.75595 13.777 3.73025 13.7533C3.70456 13.7297 3.67091 13.7165 3.63599 13.7165C3.60107 13.7165 3.56743 13.7297 3.54174 13.7533C3.51604 13.777 3.50017 13.8094 3.49727 13.8442V14.4922ZM3.49727 15.8794C3.50017 15.9142 3.51604 15.9466 3.54174 15.9703C3.56743 15.9939 3.60107 16.007 3.63599 16.007C3.67091 16.007 3.70456 15.9939 3.73025 15.9703C3.75595 15.9466 3.77182 15.9142 3.77471 15.8794V15.2314C3.77182 15.1966 3.75595 15.1642 3.73025 15.1405C3.70456 15.1169 3.67091 15.1037 3.63599 15.1037C3.60107 15.1037 3.56743 15.1169 3.54174 15.1405C3.51604 15.1642 3.50017 15.1966 3.49727 15.2314V15.8794ZM3.49727 17.2666C3.50017 17.3014 3.51604 17.3338 3.54174 17.3575C3.56743 17.3811 3.60107 17.3942 3.63599 17.3942C3.67091 17.3942 3.70456 17.3811 3.73025 17.3575C3.75595 17.3338 3.77182 17.3014 3.77471 17.2666V16.6186C3.77182 16.5838 3.75595 16.5514 3.73025 16.5277C3.70456 16.5041 3.67091 16.4909 3.63599 16.4909C3.60107 16.4909 3.56743 16.5041 3.54174 16.5277C3.51604 16.5514 3.50017 16.5838 3.49727 16.6186V17.2666ZM3.49727 18.6538C3.50017 18.6886 3.51604 18.721 3.54174 18.7447C3.56743 18.7683 3.60107 18.7814 3.63599 18.7814C3.67091 18.7814 3.70456 18.7683 3.73025 18.7447C3.75595 18.721 3.77182 18.6886 3.77471 18.6538V18.0058C3.77182 17.971 3.75595 17.9386 3.73025 17.9149C3.70456 17.8913 3.67091 17.8781 3.63599 17.8781C3.60107 17.8781 3.56743 17.8913 3.54174 17.9149C3.51604 17.9386 3.50017 17.971 3.49727 18.0058V18.6538ZM3.49727 20.041C3.49568 20.0602 3.49808 20.0795 3.50432 20.0977C3.51057 20.1159 3.52053 20.1326 3.53356 20.1468C3.5466 20.161 3.56243 20.1723 3.58007 20.18C3.5977 20.1878 3.61674 20.1917 3.63599 20.1917C3.65525 20.1917 3.67429 20.1878 3.69192 20.18C3.70955 20.1723 3.72539 20.161 3.73843 20.1468C3.75146 20.1326 3.76142 20.1159 3.76766 20.0977C3.77391 20.0795 3.77631 20.0602 3.77471 20.041V19.392C3.77182 19.3572 3.75595 19.3248 3.73025 19.3012C3.70456 19.2775 3.67091 19.2644 3.63599 19.2644C3.60107 19.2644 3.56743 19.2775 3.54174 19.3012C3.51604 19.3248 3.50017 19.3572 3.49727 19.392V20.041ZM3.49727 21.4292C3.50017 21.464 3.51604 21.4964 3.54174 21.52C3.56743 21.5437 3.60107 21.5568 3.63599 21.5568C3.67091 21.5568 3.70456 21.5437 3.73025 21.52C3.75595 21.4964 3.77182 21.464 3.77471 21.4292V20.7812C3.77182 20.7464 3.75595 20.7139 3.73025 20.6903C3.70456 20.6666 3.67091 20.6535 3.63599 20.6535C3.60107 20.6535 3.56743 20.6666 3.54174 20.6903C3.51604 20.7139 3.50017 20.7464 3.49727 20.7812V21.4292ZM4.03199 22.3085C4.03174 22.2718 4.01696 22.2366 3.99089 22.2107C3.96481 22.1848 3.92955 22.1703 3.89279 22.1703H3.82079C3.80919 22.1686 3.79844 22.1631 3.79015 22.1548C3.78185 22.1465 3.77644 22.1358 3.77471 22.1242V22.0503C3.77182 22.0155 3.75595 21.983 3.73025 21.9594C3.70456 21.9357 3.67091 21.9226 3.63599 21.9226C3.60107 21.9226 3.56743 21.9357 3.54174 21.9594C3.51604 21.983 3.50017 22.0155 3.49727 22.0503V22.1242C3.49946 22.2093 3.53425 22.2903 3.59445 22.3505C3.65466 22.4107 3.73568 22.4455 3.82079 22.4477H3.89471C3.9313 22.4472 3.96621 22.4323 3.9919 22.4063C4.0176 22.3802 4.032 22.3451 4.03199 22.3085ZM5.26079 22.3085C5.26054 22.2718 5.24576 22.2366 5.21969 22.2107C5.19361 22.1848 5.15835 22.1703 5.12159 22.1703H4.47647C4.45729 22.1687 4.43798 22.1711 4.41976 22.1773C4.40155 22.1836 4.38483 22.1935 4.37067 22.2066C4.3565 22.2196 4.34519 22.2354 4.33745 22.2531C4.32972 22.2707 4.32572 22.2897 4.32572 22.309C4.32572 22.3282 4.32972 22.3473 4.33745 22.3649C4.34519 22.3826 4.3565 22.3984 4.37067 22.4114C4.38483 22.4245 4.40155 22.4344 4.41976 22.4407C4.43798 22.4469 4.45729 22.4493 4.47647 22.4477H5.12447C5.16123 22.4475 5.19639 22.4327 5.22228 22.4066C5.24818 22.3805 5.26271 22.3453 5.26271 22.3085H5.26079ZM5.26079 11.5776C5.26079 11.5407 5.24613 11.5053 5.22002 11.4792C5.19392 11.4531 5.15851 11.4384 5.12159 11.4384H4.47647C4.45729 11.4368 4.43798 11.4392 4.41976 11.4455C4.40155 11.4517 4.38483 11.4617 4.37067 11.4747C4.3565 11.4878 4.34519 11.5036 4.33745 11.5212C4.32972 11.5389 4.32572 11.5579 4.32572 11.5772C4.32572 11.5964 4.32972 11.6155 4.33745 11.6331C4.34519 11.6507 4.3565 11.6665 4.37067 11.6796C4.38483 11.6926 4.40155 11.7026 4.41976 11.7088C4.43798 11.7151 4.45729 11.7175 4.47647 11.7159H5.12447C5.1609 11.7156 5.19577 11.7011 5.22161 11.6755C5.24746 11.6498 5.26221 11.615 5.26271 11.5786L5.26079 11.5776ZM6.64991 22.3085C6.64966 22.2719 6.63502 22.2369 6.60915 22.211C6.58328 22.1852 6.54826 22.1705 6.51167 22.1703H5.86367C5.84449 22.1687 5.82518 22.1711 5.80696 22.1773C5.78875 22.1836 5.77203 22.1935 5.75787 22.2066C5.7437 22.2196 5.73239 22.2354 5.72465 22.2531C5.71692 22.2707 5.71292 22.2897 5.71292 22.309C5.71292 22.3282 5.71692 22.3473 5.72465 22.3649C5.73239 22.3826 5.7437 22.3984 5.75787 22.4114C5.77203 22.4245 5.78875 22.4344 5.80696 22.4407C5.82518 22.4469 5.84449 22.4493 5.86367 22.4477H6.51071C6.54763 22.4477 6.58304 22.4331 6.60914 22.4069C6.63525 22.3808 6.64991 22.3454 6.64991 22.3085ZM6.64991 11.5776C6.64991 11.5409 6.63538 11.5056 6.60948 11.4795C6.58359 11.4535 6.54843 11.4387 6.51167 11.4384H5.86367C5.84449 11.4368 5.82518 11.4392 5.80696 11.4455C5.78875 11.4517 5.77203 11.4617 5.75787 11.4747C5.7437 11.4878 5.73239 11.5036 5.72465 11.5212C5.71692 11.5389 5.71292 11.5579 5.71292 11.5772C5.71292 11.5964 5.71692 11.6155 5.72465 11.6331C5.73239 11.6507 5.7437 11.6665 5.75787 11.6796C5.77203 11.6926 5.78875 11.7026 5.80696 11.7088C5.82518 11.7151 5.84449 11.7175 5.86367 11.7159H6.51071C6.5473 11.7159 6.58242 11.7015 6.60847 11.6758C6.63452 11.6501 6.64941 11.6142 6.64991 11.5776ZM8.03711 22.3085C8.03686 22.2718 8.02208 22.2366 7.99601 22.2107C7.96993 22.1848 7.93467 22.1703 7.89791 22.1703H7.25087C7.21608 22.1732 7.18364 22.189 7.15999 22.2147C7.13635 22.2404 7.12322 22.2741 7.12322 22.309C7.12322 22.3439 7.13635 22.3776 7.15999 22.4033C7.18364 22.4289 7.21608 22.4448 7.25087 22.4477H7.89887C7.93563 22.4475 7.97079 22.4327 7.99668 22.4066C8.02258 22.3805 8.03712 22.3453 8.03711 22.3085ZM8.03711 11.5776C8.03711 11.5407 8.02245 11.5053 7.99634 11.4792C7.97024 11.4531 7.93483 11.4384 7.89791 11.4384H7.25087C7.21608 11.4413 7.18364 11.4572 7.15999 11.4829C7.13635 11.5086 7.12322 11.5422 7.12322 11.5772C7.12322 11.6121 7.13635 11.6457 7.15999 11.6714C7.18364 11.6971 7.21608 11.713 7.25087 11.7159H7.89887C7.9353 11.7156 7.97017 11.7011 7.99601 11.6755C8.02186 11.6498 8.03661 11.6141 8.03711 11.5776ZM9.42527 22.3085C9.42502 22.2719 9.41038 22.2369 9.38451 22.211C9.35864 22.1852 9.32362 22.1705 9.28703 22.1703H8.63999C8.62081 22.1687 8.6015 22.1711 8.58328 22.1773C8.56507 22.1836 8.54835 22.1935 8.53419 22.2066C8.52002 22.2196 8.50871 22.2354 8.50097 22.2531C8.49324 22.2707 8.48924 22.2897 8.48924 22.309C8.48924 22.3282 8.49324 22.3473 8.50097 22.3649C8.50871 22.3826 8.52002 22.3984 8.53419 22.4114C8.54835 22.4245 8.56507 22.4344 8.58328 22.4407C8.6015 22.4469 8.62081 22.4493 8.63999 22.4477H9.28703C9.32379 22.4475 9.35895 22.4327 9.38484 22.4066C9.41074 22.3805 9.42527 22.3453 9.42527 22.3085ZM9.42527 11.5776C9.42527 11.5409 9.41074 11.5056 9.38484 11.4795C9.35895 11.4535 9.32379 11.4387 9.28703 11.4384H8.63999C8.62081 11.4368 8.6015 11.4392 8.58328 11.4455C8.56507 11.4517 8.54835 11.4617 8.53419 11.4747C8.52002 11.4878 8.50871 11.5036 8.50097 11.5212C8.49324 11.5389 8.48924 11.5579 8.48924 11.5772C8.48924 11.5964 8.49324 11.6155 8.50097 11.6331C8.50871 11.6507 8.52002 11.6665 8.53419 11.6796C8.54835 11.6926 8.56507 11.7026 8.58328 11.7088C8.6015 11.7151 8.62081 11.7175 8.63999 11.7159H9.28703C9.32345 11.7156 9.35833 11.7011 9.38417 11.6755C9.41002 11.6498 9.42477 11.6141 9.42527 11.5776ZM10.8125 22.3085C10.8122 22.2719 10.7976 22.2369 10.7717 22.211C10.7458 22.1852 10.7108 22.1705 10.6742 22.1703H10.0262C10.007 22.1687 9.98774 22.1711 9.96952 22.1773C9.95131 22.1836 9.93459 22.1935 9.92043 22.2066C9.90626 22.2196 9.89495 22.2354 9.88721 22.2531C9.87948 22.2707 9.87548 22.2897 9.87548 22.309C9.87548 22.3282 9.87948 22.3473 9.88721 22.3649C9.89495 22.3826 9.90626 22.3984 9.92043 22.4114C9.93459 22.4245 9.95131 22.4344 9.96952 22.4407C9.98774 22.4469 10.007 22.4493 10.0262 22.4477H10.6742C10.711 22.4475 10.7461 22.4327 10.772 22.4066C10.7979 22.3805 10.8125 22.3453 10.8125 22.3085ZM10.8125 11.5776C10.8125 11.5409 10.7979 11.5056 10.772 11.4795C10.7461 11.4535 10.711 11.4387 10.6742 11.4384H10.0262C10.007 11.4368 9.98774 11.4392 9.96952 11.4455C9.95131 11.4517 9.93459 11.4617 9.92043 11.4747C9.90626 11.4878 9.89495 11.5036 9.88721 11.5212C9.87948 11.5389 9.87548 11.5579 9.87548 11.5772C9.87548 11.5964 9.87948 11.6155 9.88721 11.6331C9.89495 11.6507 9.90626 11.6665 9.92043 11.6796C9.93459 11.6926 9.95131 11.7026 9.96952 11.7088C9.98774 11.7151 10.007 11.7175 10.0262 11.7159H10.6742C10.7107 11.7156 10.7455 11.7011 10.7714 11.6755C10.7972 11.6498 10.812 11.6141 10.8125 11.5776ZM12.1997 22.3085C12.1994 22.2718 12.1846 22.2366 12.1586 22.2107C12.1325 22.1848 12.0972 22.1703 12.0605 22.1703H11.4134C11.3786 22.1732 11.3462 22.189 11.3226 22.2147C11.2989 22.2404 11.2858 22.2741 11.2858 22.309C11.2858 22.3439 11.2989 22.3776 11.3226 22.4033C11.3462 22.4289 11.3786 22.4448 11.4134 22.4477H12.0605C12.0974 22.4477 12.1328 22.4331 12.1589 22.4069C12.185 22.3808 12.1997 22.3454 12.1997 22.3085ZM12.1997 11.5776C12.1997 11.5407 12.185 11.5053 12.1589 11.4792C12.1328 11.4531 12.0974 11.4384 12.0605 11.4384H11.4134C11.3786 11.4413 11.3462 11.4572 11.3226 11.4829C11.2989 11.5086 11.2858 11.5422 11.2858 11.5772C11.2858 11.6121 11.2989 11.6457 11.3226 11.6714C11.3462 11.6971 11.3786 11.713 11.4134 11.7159H12.0605C12.0971 11.7159 12.1322 11.7015 12.1582 11.6758C12.1843 11.6501 12.1992 11.6142 12.1997 11.5776ZM13.5869 22.3085C13.5866 22.2719 13.572 22.2369 13.5461 22.211C13.5202 22.1852 13.4852 22.1705 13.4486 22.1703H12.8006C12.7814 22.1687 12.7621 22.1711 12.7439 22.1773C12.7257 22.1836 12.709 22.1935 12.6948 22.2066C12.6807 22.2196 12.6694 22.2354 12.6616 22.2531C12.6539 22.2707 12.6499 22.2897 12.6499 22.309C12.6499 22.3282 12.6539 22.3473 12.6616 22.3649C12.6694 22.3826 12.6807 22.3984 12.6948 22.4114C12.709 22.4245 12.7257 22.4344 12.7439 22.4407C12.7621 22.4469 12.7814 22.4493 12.8006 22.4477H13.4486C13.4856 22.4477 13.521 22.4331 13.5471 22.4069C13.5732 22.3808 13.5869 22.3454 13.5869 22.3085ZM13.5869 11.5776C13.5869 11.5409 13.5723 11.5056 13.5464 11.4795C13.5205 11.4535 13.4854 11.4387 13.4486 11.4384H12.8006C12.7814 11.4368 12.7621 11.4392 12.7439 11.4455C12.7257 11.4517 12.709 11.4617 12.6948 11.4747C12.6807 11.4878 12.6694 11.5036 12.6616 11.5212C12.6539 11.5389 12.6499 11.5579 12.6499 11.5772C12.6499 11.5964 12.6539 11.6155 12.6616 11.6331C12.6694 11.6507 12.6807 11.6665 12.6948 11.6796C12.709 11.6926 12.7257 11.7026 12.7439 11.7088C12.7621 11.7151 12.7814 11.7175 12.8006 11.7159H13.4486C13.4852 11.7159 13.5203 11.7015 13.5464 11.6758C13.5724 11.6501 13.5873 11.6152 13.5878 11.5786L13.5869 11.5776ZM14.976 22.3085C14.9757 22.2719 14.9611 22.2369 14.9352 22.211C14.9094 22.1852 14.8743 22.1705 14.8378 22.1703H14.1888C14.1696 22.1687 14.1503 22.1711 14.1321 22.1773C14.1139 22.1836 14.0972 22.1935 14.083 22.2066C14.0688 22.2196 14.0575 22.2354 14.0498 22.2531C14.042 22.2707 14.038 22.2897 14.038 22.309C14.038 22.3282 14.042 22.3473 14.0498 22.3649C14.0575 22.3826 14.0688 22.3984 14.083 22.4114C14.0972 22.4245 14.1139 22.4344 14.1321 22.4407C14.1503 22.4469 14.1696 22.4493 14.1888 22.4477H14.8368C14.8737 22.4477 14.9091 22.4331 14.9352 22.4069C14.9613 22.3808 14.976 22.3454 14.976 22.3085ZM14.976 11.5776C14.976 11.5409 14.9615 11.5056 14.9356 11.4795C14.9097 11.4535 14.8745 11.4387 14.8378 11.4384H14.1888C14.1696 11.4368 14.1503 11.4392 14.1321 11.4455C14.1139 11.4517 14.0972 11.4617 14.083 11.4747C14.0688 11.4878 14.0575 11.5036 14.0498 11.5212C14.042 11.5389 14.038 11.5579 14.038 11.5772C14.038 11.5964 14.042 11.6155 14.0498 11.6331C14.0575 11.6507 14.0688 11.6665 14.083 11.6796C14.0972 11.6926 14.1139 11.7026 14.1321 11.7088C14.1503 11.7151 14.1696 11.7175 14.1888 11.7159H14.8368C14.8734 11.7159 14.9085 11.7015 14.9346 11.6758C14.9606 11.6501 14.9755 11.6142 14.976 11.5776ZM16.3632 22.3085C16.3629 22.2718 16.3482 22.2366 16.3221 22.2107C16.296 22.1848 16.2607 22.1703 16.224 22.1703H15.577C15.5578 22.1687 15.5385 22.1711 15.5202 22.1773C15.502 22.1836 15.4853 22.1935 15.4711 22.2066C15.457 22.2196 15.4457 22.2354 15.4379 22.2531C15.4302 22.2707 15.4262 22.2897 15.4262 22.309C15.4262 22.3282 15.4302 22.3473 15.4379 22.3649C15.4457 22.3826 15.457 22.3984 15.4711 22.4114C15.4853 22.4245 15.502 22.4344 15.5202 22.4407C15.5385 22.4469 15.5578 22.4493 15.577 22.4477H16.224C16.2607 22.4475 16.2959 22.4327 16.3218 22.4066C16.3477 22.3805 16.3632 22.3453 16.3632 22.3085ZM19.7002 20.042C19.7002 20.0787 19.7148 20.114 19.7408 20.14C19.7668 20.1661 19.8021 20.1807 19.8389 20.1807C19.8757 20.1807 19.9109 20.1661 19.937 20.14C19.963 20.114 19.9776 20.0787 19.9776 20.042V19.392C19.9776 19.3552 19.963 19.32 19.937 19.2939C19.9109 19.2679 19.8757 19.2533 19.8389 19.2533C19.8021 19.2533 19.7668 19.2679 19.7408 19.2939C19.7148 19.32 19.7002 19.3552 19.7002 19.392V20.042ZM19.7002 21.4301C19.7002 21.4669 19.7148 21.5022 19.7408 21.5282C19.7668 21.5542 19.8021 21.5688 19.8389 21.5688C19.8757 21.5688 19.9109 21.5542 19.937 21.5282C19.963 21.5022 19.9776 21.4669 19.9776 21.4301V20.7821C19.9776 20.7453 19.963 20.71 19.937 20.684C19.9109 20.658 19.8757 20.6434 19.8389 20.6434C19.8021 20.6434 19.7668 20.658 19.7408 20.684C19.7148 20.71 19.7002 20.7453 19.7002 20.7821V21.4301ZM19.4419 22.3085C19.4419 22.3454 19.4566 22.3808 19.4827 22.4069C19.5088 22.4331 19.5442 22.4477 19.5811 22.4477H19.6541C19.7392 22.4455 19.8202 22.4107 19.8804 22.3505C19.9406 22.2903 19.9754 22.2093 19.9776 22.1242V22.0503C19.9776 22.0135 19.963 21.9782 19.937 21.9522C19.9109 21.9262 19.8757 21.9116 19.8389 21.9116C19.8021 21.9116 19.7668 21.9262 19.7408 21.9522C19.7148 21.9782 19.7002 22.0135 19.7002 22.0503V22.1242C19.6984 22.1358 19.693 22.1465 19.6847 22.1548C19.6764 22.1631 19.6657 22.1686 19.6541 22.1703H19.584C19.5655 22.1698 19.547 22.173 19.5298 22.1797C19.5125 22.1864 19.4967 22.1965 19.4834 22.2093C19.4701 22.2222 19.4595 22.2376 19.4522 22.2546C19.4449 22.2717 19.442 22.29 19.4419 22.3085ZM18.2131 22.3085C18.2131 22.3454 18.2278 22.3808 18.2539 22.4069C18.28 22.4331 18.3154 22.4477 18.3523 22.4477H18.9994C19.0185 22.4493 19.0379 22.4469 19.0561 22.4407C19.0743 22.4344 19.091 22.4245 19.1052 22.4114C19.1193 22.3984 19.1306 22.3826 19.1384 22.3649C19.1461 22.3473 19.1501 22.3282 19.1501 22.309C19.1501 22.2897 19.1461 22.2707 19.1384 22.2531C19.1306 22.2354 19.1193 22.2196 19.1052 22.2066C19.091 22.1935 19.0743 22.1836 19.0561 22.1773C19.0379 22.1711 19.0185 22.1687 18.9994 22.1703H18.3523C18.3156 22.1703 18.2803 22.1848 18.2542 22.2107C18.2281 22.2366 18.2134 22.2718 18.2131 22.3085ZM17.6112 22.1703H16.9632C16.9284 22.1732 16.896 22.189 16.8723 22.2147C16.8487 22.2404 16.8355 22.2741 16.8355 22.309C16.8355 22.3439 16.8487 22.3776 16.8723 22.4033C16.896 22.4289 16.9284 22.4448 16.9632 22.4477H17.6112C17.6304 22.4493 17.6497 22.4469 17.6679 22.4407C17.6861 22.4344 17.7028 22.4245 17.717 22.4114C17.7312 22.3984 17.7425 22.3826 17.7502 22.3649C17.7579 22.3473 17.7619 22.3282 17.7619 22.309C17.7619 22.2897 17.7579 22.2707 17.7502 22.2531C17.7425 22.2354 17.7312 22.2196 17.717 22.2066C17.7028 22.1935 17.6861 22.1836 17.6679 22.1773C17.6497 22.1711 17.6304 22.1687 17.6112 22.1703Z"/>
</mask>
<path d="M19.7165 9.41956H18.5578L19.4342 8.72452L19.4448 8.73412C19.5308 8.82002 19.599 8.92209 19.6455 9.03445C19.692 9.14681 19.7158 9.26725 19.7155 9.38884L19.7165 9.41956ZM21.5664 15.8333V18.0538C21.5664 18.1274 21.5372 18.1979 21.4851 18.25C21.4331 18.302 21.3625 18.3312 21.289 18.3312H17.4038C17.0358 18.3312 16.6828 18.185 16.4226 17.9248C16.1624 17.6646 16.0162 17.3116 16.0162 16.9436C16.0162 16.5755 16.1624 16.2226 16.4226 15.9623C16.6828 15.7021 17.0358 15.5559 17.4038 15.5559H21.289C21.3625 15.5559 21.4331 15.5851 21.4851 15.6371C21.5372 15.6892 21.5664 15.7597 21.5664 15.8333ZM18.1027 16.944C18.1027 16.8056 18.0617 16.6703 17.9848 16.5552C17.9079 16.4401 17.7986 16.3504 17.6707 16.2975C17.5428 16.2445 17.4021 16.2306 17.2663 16.2576C17.1306 16.2846 17.0059 16.3513 16.908 16.4492C16.8101 16.547 16.7435 16.6717 16.7165 16.8075C16.6895 16.9433 16.7033 17.084 16.7563 17.2119C16.8093 17.3397 16.899 17.449 17.0141 17.5259C17.1292 17.6028 17.2645 17.6439 17.4029 17.6439C17.5885 17.6439 17.7665 17.5701 17.8977 17.4389C18.029 17.3077 18.1027 17.1296 18.1027 16.944ZM17.4029 18.794H21.0413V22.1242C21.0413 22.3064 21.0054 22.4869 20.9356 22.6553C20.8658 22.8236 20.7635 22.9766 20.6346 23.1054C20.5057 23.2343 20.3527 23.3364 20.1843 23.4061C20.0159 23.4757 19.8354 23.5115 19.6531 23.5114H3.82175C3.45376 23.5114 3.10082 23.3653 2.84052 23.1052C2.58021 22.845 2.43385 22.4922 2.43359 22.1242V9.85156C2.43385 9.48356 2.58021 9.13072 2.84052 8.8706C3.10082 8.61048 3.45376 8.46436 3.82175 8.46436H4.73663L4.32671 9.42436H3.85247C3.72975 9.42436 3.61206 9.47311 3.52528 9.55988C3.4385 9.64666 3.38975 9.76435 3.38975 9.88708V9.9178C3.38975 10.0405 3.4385 10.1582 3.52528 10.245C3.61206 10.3318 3.72975 10.3805 3.85247 10.3805H19.6541C19.8363 10.3804 20.0168 10.4162 20.1852 10.4858C20.3536 10.5555 20.5067 10.6577 20.6356 10.7865C20.7645 10.9153 20.8668 11.0683 20.9365 11.2366C21.0063 11.405 21.0422 11.5855 21.0422 11.7677V15.098H17.4038C16.9132 15.098 16.4427 15.2929 16.0957 15.6398C15.7488 15.9867 15.5539 16.4572 15.5539 16.9479C15.5539 17.4385 15.7488 17.909 16.0957 18.256C16.4427 18.6029 16.9132 18.7978 17.4038 18.7978L17.4029 18.794ZM19.9766 13.8452C19.9766 13.8084 19.962 13.7731 19.936 13.7471C19.91 13.7211 19.8747 13.7064 19.8379 13.7064C19.8011 13.7064 19.7658 13.7211 19.7398 13.7471C19.7138 13.7731 19.6992 13.8084 19.6992 13.8452V14.496C19.6992 14.5328 19.7138 14.5681 19.7398 14.5941C19.7658 14.6201 19.8011 14.6348 19.8379 14.6348C19.8747 14.6348 19.91 14.6201 19.936 14.5941C19.962 14.5681 19.9766 14.5328 19.9766 14.496V13.8452ZM19.9766 12.458C19.9766 12.4212 19.962 12.3859 19.936 12.3599C19.91 12.3339 19.8747 12.3192 19.8379 12.3192C19.8011 12.3192 19.7658 12.3339 19.7398 12.3599C19.7138 12.3859 19.6992 12.4212 19.6992 12.458V13.106C19.6992 13.1427 19.7138 13.178 19.7398 13.204C19.7658 13.2301 19.8011 13.2447 19.8379 13.2447C19.8747 13.2447 19.91 13.2301 19.936 13.204C19.962 13.178 19.9766 13.1427 19.9766 13.106V12.458ZM19.441 11.5796C19.4412 11.6163 19.456 11.6515 19.4821 11.6774C19.5081 11.7033 19.5434 11.7178 19.5802 11.7178H19.6531C19.6647 11.7195 19.6755 11.7249 19.6838 11.7332C19.6921 11.7415 19.6975 11.7523 19.6992 11.7639V11.8378C19.6992 11.8746 19.7138 11.9099 19.7398 11.9359C19.7658 11.9619 19.8011 11.9765 19.8379 11.9765C19.8747 11.9765 19.91 11.9619 19.936 11.9359C19.962 11.9099 19.9766 11.8746 19.9766 11.8378V11.7639C19.9744 11.6788 19.9397 11.5977 19.8795 11.5375C19.8193 11.4773 19.7382 11.4425 19.6531 11.4404H19.584C19.5655 11.4398 19.547 11.443 19.5298 11.4497C19.5125 11.4564 19.4967 11.4665 19.4834 11.4794C19.4701 11.4923 19.4595 11.5077 19.4522 11.5247C19.4449 11.5418 19.4411 11.561 19.441 11.5796ZM18.2122 11.5796C18.2124 11.6163 18.2272 11.6515 18.2533 11.6774C18.2793 11.7033 18.3146 11.7178 18.3514 11.7178H18.9984C19.0176 11.7194 19.0369 11.717 19.0551 11.7107C19.0733 11.7045 19.09 11.6945 19.1042 11.6815C19.1184 11.6685 19.1297 11.6526 19.1374 11.635C19.1451 11.6174 19.1491 11.5983 19.1491 11.5791C19.1491 11.5598 19.1451 11.5408 19.1374 11.5231C19.1297 11.5055 19.1184 11.4897 19.1042 11.4766C19.09 11.4636 19.0733 11.4537 19.0551 11.4474C19.0369 11.4412 19.0176 11.4388 18.9984 11.4404H18.3514C18.3148 11.4406 18.2798 11.4553 18.2539 11.4811C18.228 11.507 18.2134 11.542 18.2131 11.5786L18.2122 11.5796ZM16.825 11.5796C16.8252 11.6161 16.8399 11.6512 16.8657 11.677C16.8916 11.7029 16.9266 11.7175 16.9632 11.7178H17.6112C17.6304 11.7194 17.6497 11.717 17.6679 11.7107C17.6861 11.7045 17.7028 11.6945 17.717 11.6815C17.7312 11.6685 17.7425 11.6526 17.7502 11.635C17.7579 11.6174 17.7619 11.5983 17.7619 11.5791C17.7619 11.5598 17.7579 11.5408 17.7502 11.5231C17.7425 11.5055 17.7312 11.4897 17.717 11.4766C17.7028 11.4636 17.6861 11.4537 17.6679 11.4474C17.6497 11.4412 17.6304 11.4388 17.6112 11.4404H16.9632C16.9266 11.4406 16.8916 11.4553 16.8657 11.4811C16.8399 11.507 16.8252 11.543 16.825 11.5796ZM15.4368 11.5796C15.437 11.6163 15.4518 11.6515 15.4779 11.6774C15.504 11.7033 15.5392 11.7178 15.576 11.7178H16.224C16.2432 11.7194 16.2625 11.717 16.2807 11.7107C16.2989 11.7045 16.3156 11.6945 16.3298 11.6815C16.344 11.6685 16.3553 11.6526 16.363 11.635C16.3707 11.6174 16.3747 11.5983 16.3747 11.5791C16.3747 11.5598 16.3707 11.5408 16.363 11.5231C16.3553 11.5055 16.344 11.4897 16.3298 11.4766C16.3156 11.4636 16.2989 11.4537 16.2807 11.4474C16.2625 11.4412 16.2432 11.4388 16.224 11.4404H15.577C15.5402 11.4404 15.5049 11.4549 15.4789 11.4808C15.4528 11.5067 15.438 11.5418 15.4378 11.5786L15.4368 11.5796ZM3.49727 11.8368C3.49568 11.856 3.49808 11.8753 3.50432 11.8935C3.51057 11.9118 3.52053 11.9285 3.53356 11.9426C3.5466 11.9568 3.56243 11.9681 3.58007 11.9759C3.5977 11.9836 3.61674 11.9876 3.63599 11.9876C3.65525 11.9876 3.67429 11.9836 3.69192 11.9759C3.70955 11.9681 3.72539 11.9568 3.73843 11.9426C3.75146 11.9285 3.76142 11.9118 3.76766 11.8935C3.77391 11.8753 3.77631 11.856 3.77471 11.8368V11.7629C3.77644 11.7513 3.78185 11.7406 3.79015 11.7323C3.79844 11.724 3.80919 11.7186 3.82079 11.7168H3.89375C3.92855 11.7139 3.96099 11.6981 3.98464 11.6724C4.00828 11.6467 4.0214 11.613 4.0214 11.5781C4.0214 11.5432 4.00828 11.5096 3.98464 11.4839C3.96099 11.4582 3.92855 11.4423 3.89375 11.4394H3.82079C3.73568 11.4416 3.65466 11.4764 3.59445 11.5366C3.53425 11.5968 3.49946 11.6778 3.49727 11.7629V11.8368ZM3.49727 13.105C3.50017 13.1398 3.51604 13.1722 3.54174 13.1959C3.56743 13.2195 3.60107 13.2326 3.63599 13.2326C3.67091 13.2326 3.70456 13.2195 3.73025 13.1959C3.75595 13.1722 3.77182 13.1398 3.77471 13.105V12.457C3.77182 12.4222 3.75595 12.3898 3.73025 12.3661C3.70456 12.3425 3.67091 12.3293 3.63599 12.3293C3.60107 12.3293 3.56743 12.3425 3.54174 12.3661C3.51604 12.3898 3.50017 12.4222 3.49727 12.457V13.105ZM3.49727 14.4922C3.50017 14.527 3.51604 14.5594 3.54174 14.5831C3.56743 14.6067 3.60107 14.6198 3.63599 14.6198C3.67091 14.6198 3.70456 14.6067 3.73025 14.5831C3.75595 14.5594 3.77182 14.527 3.77471 14.4922V13.8442C3.77182 13.8094 3.75595 13.777 3.73025 13.7533C3.70456 13.7297 3.67091 13.7165 3.63599 13.7165C3.60107 13.7165 3.56743 13.7297 3.54174 13.7533C3.51604 13.777 3.50017 13.8094 3.49727 13.8442V14.4922ZM3.49727 15.8794C3.50017 15.9142 3.51604 15.9466 3.54174 15.9703C3.56743 15.9939 3.60107 16.007 3.63599 16.007C3.67091 16.007 3.70456 15.9939 3.73025 15.9703C3.75595 15.9466 3.77182 15.9142 3.77471 15.8794V15.2314C3.77182 15.1966 3.75595 15.1642 3.73025 15.1405C3.70456 15.1169 3.67091 15.1037 3.63599 15.1037C3.60107 15.1037 3.56743 15.1169 3.54174 15.1405C3.51604 15.1642 3.50017 15.1966 3.49727 15.2314V15.8794ZM3.49727 17.2666C3.50017 17.3014 3.51604 17.3338 3.54174 17.3575C3.56743 17.3811 3.60107 17.3942 3.63599 17.3942C3.67091 17.3942 3.70456 17.3811 3.73025 17.3575C3.75595 17.3338 3.77182 17.3014 3.77471 17.2666V16.6186C3.77182 16.5838 3.75595 16.5514 3.73025 16.5277C3.70456 16.5041 3.67091 16.4909 3.63599 16.4909C3.60107 16.4909 3.56743 16.5041 3.54174 16.5277C3.51604 16.5514 3.50017 16.5838 3.49727 16.6186V17.2666ZM3.49727 18.6538C3.50017 18.6886 3.51604 18.721 3.54174 18.7447C3.56743 18.7683 3.60107 18.7814 3.63599 18.7814C3.67091 18.7814 3.70456 18.7683 3.73025 18.7447C3.75595 18.721 3.77182 18.6886 3.77471 18.6538V18.0058C3.77182 17.971 3.75595 17.9386 3.73025 17.9149C3.70456 17.8913 3.67091 17.8781 3.63599 17.8781C3.60107 17.8781 3.56743 17.8913 3.54174 17.9149C3.51604 17.9386 3.50017 17.971 3.49727 18.0058V18.6538ZM3.49727 20.041C3.49568 20.0602 3.49808 20.0795 3.50432 20.0977C3.51057 20.1159 3.52053 20.1326 3.53356 20.1468C3.5466 20.161 3.56243 20.1723 3.58007 20.18C3.5977 20.1878 3.61674 20.1917 3.63599 20.1917C3.65525 20.1917 3.67429 20.1878 3.69192 20.18C3.70955 20.1723 3.72539 20.161 3.73843 20.1468C3.75146 20.1326 3.76142 20.1159 3.76766 20.0977C3.77391 20.0795 3.77631 20.0602 3.77471 20.041V19.392C3.77182 19.3572 3.75595 19.3248 3.73025 19.3012C3.70456 19.2775 3.67091 19.2644 3.63599 19.2644C3.60107 19.2644 3.56743 19.2775 3.54174 19.3012C3.51604 19.3248 3.50017 19.3572 3.49727 19.392V20.041ZM3.49727 21.4292C3.50017 21.464 3.51604 21.4964 3.54174 21.52C3.56743 21.5437 3.60107 21.5568 3.63599 21.5568C3.67091 21.5568 3.70456 21.5437 3.73025 21.52C3.75595 21.4964 3.77182 21.464 3.77471 21.4292V20.7812C3.77182 20.7464 3.75595 20.7139 3.73025 20.6903C3.70456 20.6666 3.67091 20.6535 3.63599 20.6535C3.60107 20.6535 3.56743 20.6666 3.54174 20.6903C3.51604 20.7139 3.50017 20.7464 3.49727 20.7812V21.4292ZM4.03199 22.3085C4.03174 22.2718 4.01696 22.2366 3.99089 22.2107C3.96481 22.1848 3.92955 22.1703 3.89279 22.1703H3.82079C3.80919 22.1686 3.79844 22.1631 3.79015 22.1548C3.78185 22.1465 3.77644 22.1358 3.77471 22.1242V22.0503C3.77182 22.0155 3.75595 21.983 3.73025 21.9594C3.70456 21.9357 3.67091 21.9226 3.63599 21.9226C3.60107 21.9226 3.56743 21.9357 3.54174 21.9594C3.51604 21.983 3.50017 22.0155 3.49727 22.0503V22.1242C3.49946 22.2093 3.53425 22.2903 3.59445 22.3505C3.65466 22.4107 3.73568 22.4455 3.82079 22.4477H3.89471C3.9313 22.4472 3.96621 22.4323 3.9919 22.4063C4.0176 22.3802 4.032 22.3451 4.03199 22.3085ZM5.26079 22.3085C5.26054 22.2718 5.24576 22.2366 5.21969 22.2107C5.19361 22.1848 5.15835 22.1703 5.12159 22.1703H4.47647C4.45729 22.1687 4.43798 22.1711 4.41976 22.1773C4.40155 22.1836 4.38483 22.1935 4.37067 22.2066C4.3565 22.2196 4.34519 22.2354 4.33745 22.2531C4.32972 22.2707 4.32572 22.2897 4.32572 22.309C4.32572 22.3282 4.32972 22.3473 4.33745 22.3649C4.34519 22.3826 4.3565 22.3984 4.37067 22.4114C4.38483 22.4245 4.40155 22.4344 4.41976 22.4407C4.43798 22.4469 4.45729 22.4493 4.47647 22.4477H5.12447C5.16123 22.4475 5.19639 22.4327 5.22228 22.4066C5.24818 22.3805 5.26271 22.3453 5.26271 22.3085H5.26079ZM5.26079 11.5776C5.26079 11.5407 5.24613 11.5053 5.22002 11.4792C5.19392 11.4531 5.15851 11.4384 5.12159 11.4384H4.47647C4.45729 11.4368 4.43798 11.4392 4.41976 11.4455C4.40155 11.4517 4.38483 11.4617 4.37067 11.4747C4.3565 11.4878 4.34519 11.5036 4.33745 11.5212C4.32972 11.5389 4.32572 11.5579 4.32572 11.5772C4.32572 11.5964 4.32972 11.6155 4.33745 11.6331C4.34519 11.6507 4.3565 11.6665 4.37067 11.6796C4.38483 11.6926 4.40155 11.7026 4.41976 11.7088C4.43798 11.7151 4.45729 11.7175 4.47647 11.7159H5.12447C5.1609 11.7156 5.19577 11.7011 5.22161 11.6755C5.24746 11.6498 5.26221 11.615 5.26271 11.5786L5.26079 11.5776ZM6.64991 22.3085C6.64966 22.2719 6.63502 22.2369 6.60915 22.211C6.58328 22.1852 6.54826 22.1705 6.51167 22.1703H5.86367C5.84449 22.1687 5.82518 22.1711 5.80696 22.1773C5.78875 22.1836 5.77203 22.1935 5.75787 22.2066C5.7437 22.2196 5.73239 22.2354 5.72465 22.2531C5.71692 22.2707 5.71292 22.2897 5.71292 22.309C5.71292 22.3282 5.71692 22.3473 5.72465 22.3649C5.73239 22.3826 5.7437 22.3984 5.75787 22.4114C5.77203 22.4245 5.78875 22.4344 5.80696 22.4407C5.82518 22.4469 5.84449 22.4493 5.86367 22.4477H6.51071C6.54763 22.4477 6.58304 22.4331 6.60914 22.4069C6.63525 22.3808 6.64991 22.3454 6.64991 22.3085ZM6.64991 11.5776C6.64991 11.5409 6.63538 11.5056 6.60948 11.4795C6.58359 11.4535 6.54843 11.4387 6.51167 11.4384H5.86367C5.84449 11.4368 5.82518 11.4392 5.80696 11.4455C5.78875 11.4517 5.77203 11.4617 5.75787 11.4747C5.7437 11.4878 5.73239 11.5036 5.72465 11.5212C5.71692 11.5389 5.71292 11.5579 5.71292 11.5772C5.71292 11.5964 5.71692 11.6155 5.72465 11.6331C5.73239 11.6507 5.7437 11.6665 5.75787 11.6796C5.77203 11.6926 5.78875 11.7026 5.80696 11.7088C5.82518 11.7151 5.84449 11.7175 5.86367 11.7159H6.51071C6.5473 11.7159 6.58242 11.7015 6.60847 11.6758C6.63452 11.6501 6.64941 11.6142 6.64991 11.5776ZM8.03711 22.3085C8.03686 22.2718 8.02208 22.2366 7.99601 22.2107C7.96993 22.1848 7.93467 22.1703 7.89791 22.1703H7.25087C7.21608 22.1732 7.18364 22.189 7.15999 22.2147C7.13635 22.2404 7.12322 22.2741 7.12322 22.309C7.12322 22.3439 7.13635 22.3776 7.15999 22.4033C7.18364 22.4289 7.21608 22.4448 7.25087 22.4477H7.89887C7.93563 22.4475 7.97079 22.4327 7.99668 22.4066C8.02258 22.3805 8.03712 22.3453 8.03711 22.3085ZM8.03711 11.5776C8.03711 11.5407 8.02245 11.5053 7.99634 11.4792C7.97024 11.4531 7.93483 11.4384 7.89791 11.4384H7.25087C7.21608 11.4413 7.18364 11.4572 7.15999 11.4829C7.13635 11.5086 7.12322 11.5422 7.12322 11.5772C7.12322 11.6121 7.13635 11.6457 7.15999 11.6714C7.18364 11.6971 7.21608 11.713 7.25087 11.7159H7.89887C7.9353 11.7156 7.97017 11.7011 7.99601 11.6755C8.02186 11.6498 8.03661 11.6141 8.03711 11.5776ZM9.42527 22.3085C9.42502 22.2719 9.41038 22.2369 9.38451 22.211C9.35864 22.1852 9.32362 22.1705 9.28703 22.1703H8.63999C8.62081 22.1687 8.6015 22.1711 8.58328 22.1773C8.56507 22.1836 8.54835 22.1935 8.53419 22.2066C8.52002 22.2196 8.50871 22.2354 8.50097 22.2531C8.49324 22.2707 8.48924 22.2897 8.48924 22.309C8.48924 22.3282 8.49324 22.3473 8.50097 22.3649C8.50871 22.3826 8.52002 22.3984 8.53419 22.4114C8.54835 22.4245 8.56507 22.4344 8.58328 22.4407C8.6015 22.4469 8.62081 22.4493 8.63999 22.4477H9.28703C9.32379 22.4475 9.35895 22.4327 9.38484 22.4066C9.41074 22.3805 9.42527 22.3453 9.42527 22.3085ZM9.42527 11.5776C9.42527 11.5409 9.41074 11.5056 9.38484 11.4795C9.35895 11.4535 9.32379 11.4387 9.28703 11.4384H8.63999C8.62081 11.4368 8.6015 11.4392 8.58328 11.4455C8.56507 11.4517 8.54835 11.4617 8.53419 11.4747C8.52002 11.4878 8.50871 11.5036 8.50097 11.5212C8.49324 11.5389 8.48924 11.5579 8.48924 11.5772C8.48924 11.5964 8.49324 11.6155 8.50097 11.6331C8.50871 11.6507 8.52002 11.6665 8.53419 11.6796C8.54835 11.6926 8.56507 11.7026 8.58328 11.7088C8.6015 11.7151 8.62081 11.7175 8.63999 11.7159H9.28703C9.32345 11.7156 9.35833 11.7011 9.38417 11.6755C9.41002 11.6498 9.42477 11.6141 9.42527 11.5776ZM10.8125 22.3085C10.8122 22.2719 10.7976 22.2369 10.7717 22.211C10.7458 22.1852 10.7108 22.1705 10.6742 22.1703H10.0262C10.007 22.1687 9.98774 22.1711 9.96952 22.1773C9.95131 22.1836 9.93459 22.1935 9.92043 22.2066C9.90626 22.2196 9.89495 22.2354 9.88721 22.2531C9.87948 22.2707 9.87548 22.2897 9.87548 22.309C9.87548 22.3282 9.87948 22.3473 9.88721 22.3649C9.89495 22.3826 9.90626 22.3984 9.92043 22.4114C9.93459 22.4245 9.95131 22.4344 9.96952 22.4407C9.98774 22.4469 10.007 22.4493 10.0262 22.4477H10.6742C10.711 22.4475 10.7461 22.4327 10.772 22.4066C10.7979 22.3805 10.8125 22.3453 10.8125 22.3085ZM10.8125 11.5776C10.8125 11.5409 10.7979 11.5056 10.772 11.4795C10.7461 11.4535 10.711 11.4387 10.6742 11.4384H10.0262C10.007 11.4368 9.98774 11.4392 9.96952 11.4455C9.95131 11.4517 9.93459 11.4617 9.92043 11.4747C9.90626 11.4878 9.89495 11.5036 9.88721 11.5212C9.87948 11.5389 9.87548 11.5579 9.87548 11.5772C9.87548 11.5964 9.87948 11.6155 9.88721 11.6331C9.89495 11.6507 9.90626 11.6665 9.92043 11.6796C9.93459 11.6926 9.95131 11.7026 9.96952 11.7088C9.98774 11.7151 10.007 11.7175 10.0262 11.7159H10.6742C10.7107 11.7156 10.7455 11.7011 10.7714 11.6755C10.7972 11.6498 10.812 11.6141 10.8125 11.5776ZM12.1997 22.3085C12.1994 22.2718 12.1846 22.2366 12.1586 22.2107C12.1325 22.1848 12.0972 22.1703 12.0605 22.1703H11.4134C11.3786 22.1732 11.3462 22.189 11.3226 22.2147C11.2989 22.2404 11.2858 22.2741 11.2858 22.309C11.2858 22.3439 11.2989 22.3776 11.3226 22.4033C11.3462 22.4289 11.3786 22.4448 11.4134 22.4477H12.0605C12.0974 22.4477 12.1328 22.4331 12.1589 22.4069C12.185 22.3808 12.1997 22.3454 12.1997 22.3085ZM12.1997 11.5776C12.1997 11.5407 12.185 11.5053 12.1589 11.4792C12.1328 11.4531 12.0974 11.4384 12.0605 11.4384H11.4134C11.3786 11.4413 11.3462 11.4572 11.3226 11.4829C11.2989 11.5086 11.2858 11.5422 11.2858 11.5772C11.2858 11.6121 11.2989 11.6457 11.3226 11.6714C11.3462 11.6971 11.3786 11.713 11.4134 11.7159H12.0605C12.0971 11.7159 12.1322 11.7015 12.1582 11.6758C12.1843 11.6501 12.1992 11.6142 12.1997 11.5776ZM13.5869 22.3085C13.5866 22.2719 13.572 22.2369 13.5461 22.211C13.5202 22.1852 13.4852 22.1705 13.4486 22.1703H12.8006C12.7814 22.1687 12.7621 22.1711 12.7439 22.1773C12.7257 22.1836 12.709 22.1935 12.6948 22.2066C12.6807 22.2196 12.6694 22.2354 12.6616 22.2531C12.6539 22.2707 12.6499 22.2897 12.6499 22.309C12.6499 22.3282 12.6539 22.3473 12.6616 22.3649C12.6694 22.3826 12.6807 22.3984 12.6948 22.4114C12.709 22.4245 12.7257 22.4344 12.7439 22.4407C12.7621 22.4469 12.7814 22.4493 12.8006 22.4477H13.4486C13.4856 22.4477 13.521 22.4331 13.5471 22.4069C13.5732 22.3808 13.5869 22.3454 13.5869 22.3085ZM13.5869 11.5776C13.5869 11.5409 13.5723 11.5056 13.5464 11.4795C13.5205 11.4535 13.4854 11.4387 13.4486 11.4384H12.8006C12.7814 11.4368 12.7621 11.4392 12.7439 11.4455C12.7257 11.4517 12.709 11.4617 12.6948 11.4747C12.6807 11.4878 12.6694 11.5036 12.6616 11.5212C12.6539 11.5389 12.6499 11.5579 12.6499 11.5772C12.6499 11.5964 12.6539 11.6155 12.6616 11.6331C12.6694 11.6507 12.6807 11.6665 12.6948 11.6796C12.709 11.6926 12.7257 11.7026 12.7439 11.7088C12.7621 11.7151 12.7814 11.7175 12.8006 11.7159H13.4486C13.4852 11.7159 13.5203 11.7015 13.5464 11.6758C13.5724 11.6501 13.5873 11.6152 13.5878 11.5786L13.5869 11.5776ZM14.976 22.3085C14.9757 22.2719 14.9611 22.2369 14.9352 22.211C14.9094 22.1852 14.8743 22.1705 14.8378 22.1703H14.1888C14.1696 22.1687 14.1503 22.1711 14.1321 22.1773C14.1139 22.1836 14.0972 22.1935 14.083 22.2066C14.0688 22.2196 14.0575 22.2354 14.0498 22.2531C14.042 22.2707 14.038 22.2897 14.038 22.309C14.038 22.3282 14.042 22.3473 14.0498 22.3649C14.0575 22.3826 14.0688 22.3984 14.083 22.4114C14.0972 22.4245 14.1139 22.4344 14.1321 22.4407C14.1503 22.4469 14.1696 22.4493 14.1888 22.4477H14.8368C14.8737 22.4477 14.9091 22.4331 14.9352 22.4069C14.9613 22.3808 14.976 22.3454 14.976 22.3085ZM14.976 11.5776C14.976 11.5409 14.9615 11.5056 14.9356 11.4795C14.9097 11.4535 14.8745 11.4387 14.8378 11.4384H14.1888C14.1696 11.4368 14.1503 11.4392 14.1321 11.4455C14.1139 11.4517 14.0972 11.4617 14.083 11.4747C14.0688 11.4878 14.0575 11.5036 14.0498 11.5212C14.042 11.5389 14.038 11.5579 14.038 11.5772C14.038 11.5964 14.042 11.6155 14.0498 11.6331C14.0575 11.6507 14.0688 11.6665 14.083 11.6796C14.0972 11.6926 14.1139 11.7026 14.1321 11.7088C14.1503 11.7151 14.1696 11.7175 14.1888 11.7159H14.8368C14.8734 11.7159 14.9085 11.7015 14.9346 11.6758C14.9606 11.6501 14.9755 11.6142 14.976 11.5776ZM16.3632 22.3085C16.3629 22.2718 16.3482 22.2366 16.3221 22.2107C16.296 22.1848 16.2607 22.1703 16.224 22.1703H15.577C15.5578 22.1687 15.5385 22.1711 15.5202 22.1773C15.502 22.1836 15.4853 22.1935 15.4711 22.2066C15.457 22.2196 15.4457 22.2354 15.4379 22.2531C15.4302 22.2707 15.4262 22.2897 15.4262 22.309C15.4262 22.3282 15.4302 22.3473 15.4379 22.3649C15.4457 22.3826 15.457 22.3984 15.4711 22.4114C15.4853 22.4245 15.502 22.4344 15.5202 22.4407C15.5385 22.4469 15.5578 22.4493 15.577 22.4477H16.224C16.2607 22.4475 16.2959 22.4327 16.3218 22.4066C16.3477 22.3805 16.3632 22.3453 16.3632 22.3085ZM19.7002 20.042C19.7002 20.0787 19.7148 20.114 19.7408 20.14C19.7668 20.1661 19.8021 20.1807 19.8389 20.1807C19.8757 20.1807 19.9109 20.1661 19.937 20.14C19.963 20.114 19.9776 20.0787 19.9776 20.042V19.392C19.9776 19.3552 19.963 19.32 19.937 19.2939C19.9109 19.2679 19.8757 19.2533 19.8389 19.2533C19.8021 19.2533 19.7668 19.2679 19.7408 19.2939C19.7148 19.32 19.7002 19.3552 19.7002 19.392V20.042ZM19.7002 21.4301C19.7002 21.4669 19.7148 21.5022 19.7408 21.5282C19.7668 21.5542 19.8021 21.5688 19.8389 21.5688C19.8757 21.5688 19.9109 21.5542 19.937 21.5282C19.963 21.5022 19.9776 21.4669 19.9776 21.4301V20.7821C19.9776 20.7453 19.963 20.71 19.937 20.684C19.9109 20.658 19.8757 20.6434 19.8389 20.6434C19.8021 20.6434 19.7668 20.658 19.7408 20.684C19.7148 20.71 19.7002 20.7453 19.7002 20.7821V21.4301ZM19.4419 22.3085C19.4419 22.3454 19.4566 22.3808 19.4827 22.4069C19.5088 22.4331 19.5442 22.4477 19.5811 22.4477H19.6541C19.7392 22.4455 19.8202 22.4107 19.8804 22.3505C19.9406 22.2903 19.9754 22.2093 19.9776 22.1242V22.0503C19.9776 22.0135 19.963 21.9782 19.937 21.9522C19.9109 21.9262 19.8757 21.9116 19.8389 21.9116C19.8021 21.9116 19.7668 21.9262 19.7408 21.9522C19.7148 21.9782 19.7002 22.0135 19.7002 22.0503V22.1242C19.6984 22.1358 19.693 22.1465 19.6847 22.1548C19.6764 22.1631 19.6657 22.1686 19.6541 22.1703H19.584C19.5655 22.1698 19.547 22.173 19.5298 22.1797C19.5125 22.1864 19.4967 22.1965 19.4834 22.2093C19.4701 22.2222 19.4595 22.2376 19.4522 22.2546C19.4449 22.2717 19.442 22.29 19.4419 22.3085ZM18.2131 22.3085C18.2131 22.3454 18.2278 22.3808 18.2539 22.4069C18.28 22.4331 18.3154 22.4477 18.3523 22.4477H18.9994C19.0185 22.4493 19.0379 22.4469 19.0561 22.4407C19.0743 22.4344 19.091 22.4245 19.1052 22.4114C19.1193 22.3984 19.1306 22.3826 19.1384 22.3649C19.1461 22.3473 19.1501 22.3282 19.1501 22.309C19.1501 22.2897 19.1461 22.2707 19.1384 22.2531C19.1306 22.2354 19.1193 22.2196 19.1052 22.2066C19.091 22.1935 19.0743 22.1836 19.0561 22.1773C19.0379 22.1711 19.0185 22.1687 18.9994 22.1703H18.3523C18.3156 22.1703 18.2803 22.1848 18.2542 22.2107C18.2281 22.2366 18.2134 22.2718 18.2131 22.3085ZM17.6112 22.1703H16.9632C16.9284 22.1732 16.896 22.189 16.8723 22.2147C16.8487 22.2404 16.8355 22.2741 16.8355 22.309C16.8355 22.3439 16.8487 22.3776 16.8723 22.4033C16.896 22.4289 16.9284 22.4448 16.9632 22.4477H17.6112C17.6304 22.4493 17.6497 22.4469 17.6679 22.4407C17.6861 22.4344 17.7028 22.4245 17.717 22.4114C17.7312 22.3984 17.7425 22.3826 17.7502 22.3649C17.7579 22.3473 17.7619 22.3282 17.7619 22.309C17.7619 22.2897 17.7579 22.2707 17.7502 22.2531C17.7425 22.2354 17.7312 22.2196 17.717 22.2066C17.7028 22.1935 17.6861 22.1836 17.6679 22.1773C17.6497 22.1711 17.6304 22.1687 17.6112 22.1703Z" stroke="black" stroke-width="2" mask="url(#path-2-inside-1_2815_48423)"/>
<path d="M10.1495 5.45129C9.37835 5.15351 8.53264 5.15169 7.83213 5.43461L8.92426 2.8862C9.21297 2.90007 9.5031 2.85201 9.77458 2.74315C10.0458 2.6344 10.2885 2.46893 10.4875 2.25974L12.447 3.10073C12.4389 3.26842 12.4518 3.43656 12.4854 3.60119L10.1495 5.45129Z" stroke="#999999"/>
</svg>
