<svg width="18" height="18" viewBox="0 0 18 18" fill="none" xmlns="http://www.w3.org/2000/svg">
<g clip-path="url(#clip0_5237_44813)">
<path fill-rule="evenodd" clip-rule="evenodd" d="M0 4H7.42963C8.43269 4 9.36939 4.5013 9.92578 5.3359L10.7383 6.5547C10.9238 6.8329 11.236 7 11.5704 7H18V14C18 16.2091 16.2091 18 14 18H4C1.79086 18 0 16.2091 0 14V4ZM2 6V14C2 15.1046 2.89543 16 4 16H14C15.1046 16 16 15.1046 16 14V9H11.5704C10.5673 9 9.63061 8.4987 9.07422 7.6641L8.26168 6.4453C8.07622 6.1671 7.76399 6 7.42963 6H2Z" fill="black"/>
<path fill-rule="evenodd" clip-rule="evenodd" d="M0 3C0 1.34315 1.34315 0 3 0H9.42963C10.4327 0 11.3694 0.501303 11.9258 1.3359L12.7383 2.5547C12.9238 2.8329 13.236 3 13.5704 3H15C16.6569 3 18 4.34315 18 6V7H16V6C16 5.44771 15.5523 5 15 5H13.5704C12.5673 5 11.6306 4.4987 11.0742 3.6641L10.2617 2.4453C10.0762 2.1671 9.76399 2 9.42963 2H3C2.44772 2 2 2.44772 2 3V4H0V3Z" fill="black"/>
<path d="M4.37883 9C4.283 9 4.1828 9.03223 4.10967 9.1053C3.96344 9.25182 3.96344 9.49764 4.10967 9.64416L6.46172 11.9978L4.10967 14.3515C3.96344 14.4981 3.96344 14.7439 4.10967 14.8904C4.25593 15.0365 4.50172 15.0365 4.64798 14.8904L7 12.5367L9.35202 14.8904C9.49828 15.0365 9.74407 15.0365 9.89033 14.8904C10.0366 14.7439 10.0366 14.4981 9.89033 14.3515L7.53828 11.9978L9.89033 9.64416C10.0366 9.49764 10.0366 9.25182 9.89033 9.1053C9.8172 9.03223 9.71696 9 9.62117 9C9.52535 9 9.42519 9.03223 9.35202 9.1053L7 11.459L4.64798 9.1053C4.57485 9.03223 4.47465 9 4.37883 9Z" fill="black" fill-opacity="0.4"/>
</g>
<defs>
<clipPath id="clip0_5237_44813">
<rect width="18" height="18" fill="white"/>
</clipPath>
</defs>
</svg>
