<svg width="16" height="16" viewBox="0 0 16 16" fill="none" xmlns="http://www.w3.org/2000/svg">
<path fill-rule="evenodd" clip-rule="evenodd" d="M4.72481 7.06257C4.83181 6.82182 5.07056 6.66667 5.33402 6.66667H14.0007C14.215 6.66667 14.4162 6.76969 14.5415 6.94356C14.6668 7.11742 14.7009 7.34092 14.6331 7.54422L13.0883 12.1769C12.7253 13.2657 11.7063 14 10.5586 14H4.66729C3.72628 14 3.10631 13.5697 2.77498 13.2401C2.58915 13.0552 2.52889 12.7786 2.62098 12.5332C3.30619 10.7096 3.93357 8.84282 4.72481 7.06257ZM4.04646 12.5306C4.20531 12.6082 4.40985 12.6667 4.66729 12.6667H10.5586C11.1325 12.6667 11.6419 12.2995 11.8235 11.7551L13.0756 8H5.77976C5.17945 9.50143 4.61619 11.0174 4.04646 12.5306Z" fill="black"/>
<path fill-rule="evenodd" clip-rule="evenodd" d="M4 2C2.89543 2 2 2.89543 2 4V11.3333C2 12.0082 2.25069 12.6245 2.66403 13.0942C2.56909 12.9254 2.55079 12.7202 2.62097 12.5332C2.80835 12.0345 2.99141 11.5326 3.17467 11.0301C3.2275 10.8852 3.28036 10.7403 3.33333 10.5954V4C3.33333 3.63181 3.63181 3.33333 4 3.33333H6.90869C7.12655 3.33333 7.33067 3.43979 7.45536 3.61844L8.05534 4.47803C8.42942 5.01398 9.04177 5.33333 9.69536 5.33333H11.3333C11.7015 5.33333 12 5.63181 12 6V6.66667H13.3333V6C13.3333 4.89543 12.4379 4 11.3333 4H9.69536C9.4775 4 9.27338 3.89355 9.14869 3.7149L8.54871 2.8553C8.17463 2.31936 7.56228 2 6.90869 2H4Z" fill="black" fill-opacity="0.4"/>
</svg>
