<svg width="24" height="24" viewBox="0 0 24 24" fill="none" xmlns="http://www.w3.org/2000/svg">
<path d="M9.11036 15.0435C9.88966 15.7305 10.6469 16.3796 11.3815 17.0534C11.7838 17.4223 12.1315 17.4179 12.534 17.0545C13.2738 16.3863 14.0542 15.7625 14.7804 15.0804C15.1711 14.7133 15.546 14.6284 16.0737 14.7333C18.2546 15.1668 19.8677 16.9626 19.9952 19.1703C20.0444 20.022 19.7158 20.3978 18.8776 20.3987C14.2755 20.4035 9.67341 20.4035 5.0713 20.3987C4.23506 20.3978 3.90261 20.0155 3.95851 19.168C4.11493 16.796 5.99417 14.8487 8.33768 14.6796C8.57541 14.6624 8.83135 14.8977 9.11036 15.0435ZM7.22108 16.7523C6.50513 17.1997 5.98187 17.7883 5.76208 18.6397C7.40607 18.6397 8.98165 18.6397 10.6535 18.6397C9.95413 18.0246 9.29441 17.5036 8.70836 16.9098C8.25549 16.451 7.82597 16.3719 7.22108 16.7523ZM16.6831 16.7242C16.3444 16.6679 15.8811 16.4427 15.6886 16.5847C14.8681 17.19 14.1276 17.9039 13.2788 18.6475C13.765 18.6475 14.1283 18.6475 14.5146 18.6475C14.2781 18.2396 14.374 18.0208 14.8232 18.0611C15.1852 18.0937 15.3335 17.9406 15.4189 17.6097C15.4519 17.4816 15.6306 17.391 15.7429 17.2833C15.8367 17.3891 15.9846 17.4818 16.0138 17.6031C16.093 17.9319 16.2372 18.101 16.605 18.0599C17.1117 18.0033 17.0933 18.301 16.9358 18.6521C17.3582 18.6521 17.7537 18.6521 18.1532 18.6521C18.0069 17.8693 17.6066 17.333 16.6831 16.7242Z" fill="#999999"/>
<path d="M13.4602 7.64307C11.4753 7.88772 9.59197 7.65958 7.75088 7.04123C7.20096 6.85653 6.80795 6.55109 6.80203 5.89741C6.80074 5.7544 6.67689 5.59061 6.56822 5.47527C6.37188 5.26688 6.12931 5.10204 5.93303 4.89362C5.48497 4.41784 5.62993 3.67331 6.24967 3.49868C8.10664 2.97544 9.97593 2.49562 11.8437 2.01153C11.9785 1.9766 12.1436 2.02869 12.2881 2.06597C13.9896 2.50519 15.6961 2.92783 17.3851 3.41108C17.7058 3.50283 18.0582 3.78516 18.2146 4.07682C18.432 4.48216 18.1418 4.83433 17.803 5.10336C17.4311 5.3986 17.11 5.68803 17.0645 6.24691C17.044 6.49884 16.6732 6.84556 16.3946 6.93073C15.4498 7.21952 14.4751 7.41069 13.4602 7.64307ZM11.0476 4.04057C10.6034 4.12591 10.4659 4.38307 10.5398 4.82786C10.6816 5.68058 11.3982 6.5825 11.976 6.58345C12.5208 6.58434 13.2539 5.71131 13.3997 4.88383C13.4196 4.77124 13.4613 4.64213 13.426 4.54499C13.3734 4.40021 13.2915 4.21413 13.1693 4.15524C12.5161 3.84041 11.849 3.5204 11.0476 4.04057Z" fill="black"/>
<path d="M14.8103 9.87785C14.8945 9.41983 14.9655 9.00659 15.045 8.54366C15.4945 8.40913 15.9823 8.26314 16.4742 8.1159C16.7961 9.96679 15.9963 11.7996 14.4676 12.7654C12.8707 13.7742 10.8057 13.7174 9.2743 12.6225C7.85876 11.6104 7.12461 9.76027 7.49679 8.11548C7.5677 8.13638 7.63626 8.16352 7.7074 8.17651C8.51886 8.32467 9.02196 8.60899 9.11374 9.62225C9.22749 10.8782 10.4116 11.7607 11.6779 11.8736C13.0691 11.9976 14.2081 11.2853 14.8103 9.87785Z" fill="#999999"/>
<path d="M16.721 16.7451C17.6066 17.3331 18.0069 17.8694 18.1533 18.6522C17.7537 18.6522 17.3582 18.6522 16.9358 18.6522C17.0933 18.3012 17.1117 18.0034 16.605 18.06C16.2372 18.1011 16.093 17.9321 16.0138 17.6032C15.9846 17.4819 15.8367 17.3892 15.7429 17.2834C15.6306 17.3911 15.4519 17.4817 15.4189 17.6098C15.3336 17.9407 15.1852 18.0938 14.8232 18.0612C14.374 18.0209 14.2781 18.2397 14.5146 18.6476C14.1283 18.6476 13.765 18.6476 13.2788 18.6476C14.1276 17.904 14.8681 17.1901 15.6886 16.5848C15.8811 16.4428 16.3444 16.668 16.721 16.7451Z" fill="#F2F3F5"/>
</svg>
