<svg width="24" height="24" viewBox="0 0 24 24" fill="none" xmlns="http://www.w3.org/2000/svg">
<path fill-rule="evenodd" clip-rule="evenodd" d="M8 16.1707V13.0001H16V16.1707C16.3128 16.0602 16.6494 16 17 16C17.3506 16 17.6872 16.0602 18 16.1707V12.0001C18 11.4478 17.5523 11.0001 17 11.0001H13V7.82935C12.6872 7.9399 12.3506 8.00005 12 8.00005C11.6494 8.00005 11.3128 7.9399 11 7.82935V11.0001H7C6.44772 11.0001 6 11.4478 6 12.0001V16.1707C6.31278 16.0602 6.64936 16 7 16C7.35064 16 7.68722 16.0602 8 16.1707Z" fill="black" fill-opacity="0.4"/>
<path fill-rule="evenodd" clip-rule="evenodd" d="M12 4C11.4477 4 11 4.44772 11 5C11 5.55228 11.4477 6 12 6C12.5523 6 13 5.55228 13 5C13 4.44772 12.5523 4 12 4ZM9 5C9 3.34315 10.3431 2 12 2C13.6569 2 15 3.34315 15 5C15 6.65685 13.6569 8 12 8C10.3431 8 9 6.65685 9 5ZM7 18C6.44772 18 6 18.4477 6 19C6 19.5523 6.44772 20 7 20C7.55228 20 8 19.5523 8 19C8 18.4477 7.55228 18 7 18ZM4 19C4 17.3431 5.34315 16 7 16C8.65685 16 10 17.3431 10 19C10 20.6569 8.65685 22 7 22C5.34315 22 4 20.6569 4 19ZM16 19C16 18.4477 16.4477 18 17 18C17.5523 18 18 18.4477 18 19C18 19.5523 17.5523 20 17 20C16.4477 20 16 19.5523 16 19ZM17 16C15.3431 16 14 17.3431 14 19C14 20.6569 15.3431 22 17 22C18.6569 22 20 20.6569 20 19C20 17.3431 18.6569 16 17 16Z" fill="black"/>
</svg>
