<svg width="11" height="11" viewBox="0 0 11 11" fill="none" xmlns="http://www.w3.org/2000/svg">
<path fill-rule="evenodd" clip-rule="evenodd" d="M9.03275 2.61575C9.21174 2.43676 9.21174 2.14656 9.03275 1.96757C8.85376 1.78858 8.56356 1.78858 8.38457 1.96757L7.79339 2.55875C7.16943 2.13874 6.4036 1.83333 5.50033 1.83333C3.93326 1.83333 2.78629 2.74855 2.05858 3.59755C1.69121 4.02616 1.41728 4.45265 1.23519 4.7713C1.14386 4.93112 1.07489 5.06515 1.02817 5.16053C1.00257 5.21278 0.977407 5.26527 0.95437 5.3187C0.904958 5.43399 0.904639 5.56525 0.954051 5.68054L0.954498 5.68158C0.965232 5.70643 0.976544 5.73105 0.987997 5.75557C1.00884 5.80021 1.03928 5.86339 1.07933 5.94145C1.15932 6.09737 1.27823 6.3138 1.4363 6.5612C1.68434 6.94939 2.03509 7.42375 2.49131 7.86083L1.9679 8.38424C1.78891 8.56323 1.78891 8.85343 1.9679 9.03242C2.14689 9.21141 2.43709 9.21141 2.61608 9.03242L3.44359 8.20491C3.47236 8.18275 3.49895 8.15679 3.5226 8.1271C3.52408 8.12525 3.52554 8.12339 3.52698 8.12152L8.12841 3.52009C8.15373 3.49974 8.17726 3.47636 8.19847 3.45003L9.03275 2.61575ZM7.13003 3.22211C6.65906 2.93609 6.11691 2.74999 5.50033 2.74999C4.31739 2.74999 3.40186 3.43894 2.75457 4.19411C2.43445 4.56758 2.19275 4.94317 2.03108 5.22609C1.96985 5.33324 1.92054 5.42633 1.88318 5.49999L1.89492 5.52302C1.964 5.65765 2.0687 5.84844 2.20875 6.06764C2.43457 6.42105 2.74582 6.8381 3.13966 7.21248L7.13003 3.22211Z" fill="black"/>
<path fill-rule="evenodd" clip-rule="evenodd" d="M4.20442 4.20364C4.80897 3.5996 5.73043 3.50518 6.43406 3.92037L5.73941 4.61444C5.43335 4.53279 5.09326 4.61192 4.85315 4.85182C4.61304 5.09173 4.53384 5.43153 4.61556 5.73734L3.92091 6.4314C3.50536 5.72837 3.59986 4.80769 4.20442 4.20364ZM8.79969 4.12398C8.90428 4.05248 9.02813 4.03049 9.14373 4.05249C9.25887 4.07404 9.37309 4.13407 9.44465 4.23857C9.74741 4.68269 9.941 5.06633 10.0465 5.31291C10.096 5.42795 10.096 5.57002 10.0465 5.68507C9.99696 5.80057 9.91255 5.98757 9.77447 6.22957C9.54557 6.62924 9.26438 7.02936 8.94282 7.40381C8.00335 8.49923 6.85976 9.16564 5.5024 9.16564C5.32763 9.16564 5.06386 9.13586 4.78588 9.09415C4.53495 9.05657 4.3611 8.82878 4.39872 8.57853C4.43633 8.32782 4.66432 8.1541 4.91478 8.19168C5.14735 8.22652 5.38864 8.24898 5.5024 8.24898C6.55334 8.24898 7.47399 7.71228 8.25473 6.80249C8.53547 6.47524 8.76987 6.12324 8.97171 5.77124C9.03468 5.66052 9.06595 5.5975 9.10156 5.52571C9.1059 5.51696 9.1103 5.50809 9.11484 5.49898C9.10818 5.4859 9.10535 5.47664 9.10242 5.4671C9.0991 5.45625 9.09567 5.44506 9.08639 5.42749C8.97538 5.21666 8.84052 4.98244 8.68501 4.75419C8.54189 4.54519 8.59005 4.26652 8.79969 4.12398Z" fill="black"/>
</svg>
