<svg width="24" height="24" viewBox="0 0 24 24" fill="none" xmlns="http://www.w3.org/2000/svg">
<path d="M9.47645 13.4181C9.26419 13.365 9.03426 13.5065 8.98119 13.7187C8.83969 14.3378 8.66282 14.9215 8.48594 15.4698C8.41519 15.6821 8.52131 15.912 8.73357 15.9828C8.76894 16.0004 8.822 16.0004 8.85738 16.0004C9.03426 16.0004 9.17576 15.8943 9.24651 15.7174C9.44107 15.1514 9.61795 14.5324 9.75945 13.8956C9.8302 13.7011 9.70638 13.4711 9.47645 13.4181Z" fill="black"/>
<path d="M10.3613 8.44784C10.3436 8.2179 10.1491 8.04103 9.9368 8.05871C9.70687 8.0764 9.54768 8.25328 9.54768 8.48322C9.54768 8.5009 9.61843 10.1635 9.26468 12.3391C9.2293 12.5691 9.3708 12.7636 9.60074 12.799C9.61843 12.799 9.63612 12.799 9.67149 12.799C9.86605 12.799 10.0429 12.6575 10.0783 12.4629C10.4497 10.2166 10.379 8.51859 10.3613 8.44784Z" fill="black"/>
<path d="M11.6701 9.31458C11.4402 9.31458 11.2633 9.47376 11.2456 9.7037C11.1925 11.101 10.9803 13.2589 10.2551 15.5229C10.1843 15.7352 10.3082 15.9651 10.5204 16.0359C10.5558 16.0535 10.6088 16.0536 10.6442 16.0536C10.8211 16.0536 10.9803 15.9474 11.0333 15.7705C11.7762 13.4004 11.9885 11.1895 12.0592 9.73908C12.0592 9.50914 11.8824 9.33226 11.6701 9.31458Z" fill="black"/>
<path d="M9.93652 6.3783C9.91883 6.3783 9.90114 6.3783 9.86577 6.3783C9.29977 6.39598 8.78683 6.64361 8.41539 7.05042C8.04395 7.45724 7.84938 8.00556 7.86707 8.55387C7.86707 8.88994 7.92013 11.9499 6.87656 14.9922C6.80581 15.2044 6.91194 15.4343 7.12419 15.5051C7.15957 15.5228 7.21263 15.5228 7.26569 15.5228C7.42488 15.5228 7.58407 15.4167 7.65482 15.2575C8.73376 12.1621 8.71607 9.11987 8.69839 8.5185C8.66301 7.81099 9.21133 7.20961 9.91883 7.17424C10.6617 7.15655 11.2277 7.68718 11.2631 8.39468C11.2808 8.62462 11.4577 8.78381 11.6876 8.78381C11.9175 8.76612 12.0767 8.58925 12.0767 8.35931C12.006 7.24499 11.0862 6.3783 9.93652 6.3783Z" fill="black"/>
<path d="M6.9824 8.58946C6.91165 6.9622 8.18516 5.56488 9.8301 5.49413C11.4927 5.44107 12.8547 6.6792 12.9254 8.34184C12.9254 8.3949 12.9962 9.52691 12.8193 11.2603C12.8016 11.4902 12.9608 11.6848 13.1907 11.7025C13.2084 11.7025 13.2261 11.7025 13.2261 11.7025C13.4384 11.7025 13.6152 11.5433 13.6329 11.331C13.8098 9.5269 13.7391 8.32415 13.7391 8.28877C13.6506 6.20164 11.9172 4.62744 9.79473 4.6805C7.70759 4.76894 6.09802 6.5377 6.16877 8.60715V8.62484C6.16877 8.73096 6.18646 9.43847 6.09802 10.3936C6.08033 10.6235 6.23952 10.8181 6.46946 10.8358C6.6994 10.8535 6.89396 10.6943 6.91165 10.4643C7.00009 9.49153 7.00009 8.78403 6.9824 8.58946Z" fill="black"/>
<path d="M6.41661 11.4192C6.20436 11.3838 5.9921 11.5253 5.95673 11.7553C5.81523 12.622 5.63835 13.4002 5.40841 14.1254C5.33766 14.3377 5.46148 14.5676 5.67373 14.6384C5.7091 14.656 5.76217 14.656 5.79754 14.656C5.97442 14.656 6.13361 14.5499 6.18667 14.373C6.43429 13.5948 6.62886 12.7812 6.77036 11.8791C6.78805 11.6668 6.62886 11.4546 6.41661 11.4192Z" fill="black"/>
<path d="M7.63701 4.4327C8.29145 4.06126 9.01664 3.849 9.75952 3.81363C12.3596 3.7075 14.4998 5.67083 14.6236 8.25322C14.659 8.97841 14.6236 9.86279 14.5706 10.7295C14.5529 10.9594 14.7297 11.154 14.942 11.1717C14.9597 11.1717 14.9597 11.1717 14.9774 11.1717C15.1896 11.1717 15.3665 11.0125 15.3842 10.8002C15.4726 9.65054 15.4549 8.76616 15.4372 8.21784C15.2957 5.24633 12.9256 3 9.97177 3C9.90102 3 9.81259 3 9.74184 3C8.85746 3.03538 7.99076 3.283 7.2302 3.72519C7.03563 3.83132 6.96488 4.07894 7.0887 4.27351C7.19482 4.46807 7.44245 4.53882 7.63701 4.4327Z" fill="black"/>
<path d="M6.64664 5.19321C6.80583 5.03402 6.80583 4.7687 6.64664 4.6272C6.48745 4.46802 6.22214 4.46802 6.08064 4.6272C5.01938 5.70615 4.43569 7.19191 4.48876 8.69535C4.48876 8.71304 4.52413 10.641 4.01119 12.7635C3.95813 12.9758 4.09963 13.2057 4.31188 13.2588C4.34725 13.2588 4.38263 13.2764 4.40032 13.2764C4.57719 13.2764 4.75407 13.1526 4.78944 12.9581C5.33776 10.6941 5.2847 8.65998 5.2847 8.65998C5.24932 7.36878 5.74457 6.11296 6.64664 5.19321Z" fill="black"/>
<path d="M16.1095 14.2316L14.9952 15.3459L14.5706 14.9214C14.4115 14.7622 14.1638 14.7622 14.0046 14.9214C13.8455 15.0806 13.8455 15.3282 14.0046 15.4874L14.7121 16.1949C14.7829 16.2656 14.889 16.3187 14.9952 16.3187C15.1013 16.3187 15.2074 16.2833 15.2782 16.1949L16.6755 14.7976C16.8347 14.6384 16.8347 14.3908 16.6755 14.2316C16.534 14.0724 16.2687 14.0724 16.1095 14.2316Z" fill="black"/>
<path d="M19.7708 18.6537L17.949 17.0795C18.3381 16.5488 18.5857 15.8944 18.5857 15.1692C18.5857 13.4005 17.1354 11.9501 15.3666 11.9501C13.5978 11.9501 12.1475 13.4005 12.1475 15.1692C12.1475 16.938 13.5978 18.3884 15.3666 18.3884C16.0741 18.3884 16.7286 18.1584 17.2769 17.7516L18.8511 19.5734C18.8687 19.5911 18.8864 19.6265 18.9218 19.6442C19.1871 19.8741 19.6116 19.8564 19.8416 19.5734C20.0715 19.3081 20.0538 18.9013 19.7708 18.6537ZM12.9611 15.1692C12.9611 13.8426 14.04 12.7637 15.3666 12.7637C16.6932 12.7637 17.7721 13.8426 17.7721 15.1692C17.7721 16.4958 16.6932 17.5747 15.3666 17.5747C14.04 17.5747 12.9611 16.4958 12.9611 15.1692Z" fill="black" fill-opacity="0.4"/>
</svg>
