<svg width="50" height="50" viewBox="0 0 50 50" fill="none" xmlns="http://www.w3.org/2000/svg">
<path d="M25 6.2458C18.4042 6.2979 12.3605 10.7312 10.7771 17.7791C6.73337 19.4791 4.16669 23.3166 4.16669 27.8603C4.16669 34.1312 9.11672 39.5791 15.2334 39.5791H16.6667C17.8167 39.5791 18.75 38.6478 18.75 37.4957C18.75 36.3457 17.8167 35.4124 16.6667 35.4124H15.2334C11.5126 35.4124 8.33337 31.9145 8.33337 27.8603C8.33337 24.7499 10.2792 22.1645 13.2167 21.2853C13.9938 21.052 14.5334 20.3958 14.648 19.5916C15.4521 13.9541 19.9834 10.452 25 10.4124C30.5854 10.3687 35.4604 15.177 35.4167 20.8291C35.4167 20.9541 35.4167 22.627 35.4167 23.1082C35.4167 24.077 36.0334 24.9083 36.9792 25.1249C39.7209 25.7604 41.6667 27.9103 41.6667 30.2041C41.6667 33.0145 38.925 35.4124 35.4167 35.4124H33.3334C32.1834 35.4124 31.25 36.3457 31.25 37.4957C31.25 38.6457 32.1834 39.5791 33.3334 39.5791H35.4167C41.1125 39.5791 45.8334 35.4478 45.8334 30.2041C45.8334 26.4228 43.3021 23.077 39.5563 21.6312C39.5604 21.2604 39.5834 20.8833 39.5834 20.8291C39.6459 12.8374 32.8979 6.1833 25 6.2458Z" fill="black" fill-opacity="0.4"/>
<path d="M25 18.75L18.75 25.0271L22.9249 25V41.6666C22.9249 42.8166 23.8546 43.75 25 43.75C26.1454 43.75 27.0751 42.8166 27.0751 41.6666V25L31.25 25.0187L25 18.75Z" fill="black"/>
</svg>
