<svg width="24" height="25" viewBox="0 0 24 25" fill="none" xmlns="http://www.w3.org/2000/svg">
<path d="M9.56433 16.0017C9.27438 15.6069 9.04454 15.2699 8.84254 14.9768L5.84556 10.5258C5.53956 10.0809 4.90055 9.95707 4.44255 10.2531C3.98455 10.55 3.85654 11.1691 4.16154 11.6131L7.15956 16.0641C8.05955 17.3738 9.81556 17.5402 10.9626 16.4278C10.5 16.4853 10 16.5949 9.56433 16.0017Z" fill="#0D8F75" fill-opacity="0.74"/>
<path d="M18.9912 6.16504C18.7362 6.16504 18.4692 6.24823 18.2742 6.43686L9.56418 15.0643C9.30718 15.3138 9.08091 15.3274 8.87891 15.0343C8.87891 15.0343 9.27594 15.6059 9.56418 16.0016C10 16.5999 10.5 16.4853 10.9672 16.4253L19.7082 7.82784C20.0972 7.44962 20.0972 6.81508 19.7082 6.43686C19.5132 6.24823 19.2462 6.16504 18.9912 6.16504Z" fill="#0D8F75"/>
</svg>
