<svg width="24" height="24" viewBox="0 0 24 24" fill="none" xmlns="http://www.w3.org/2000/svg">
<path opacity="0.988987" d="M11.999 2C6.47602 2 1.99902 6.477 1.99902 12C1.99902 17.523 6.47602 22 11.999 22C17.522 22 21.999 17.523 21.999 12C21.999 6.477 17.522 2 11.999 2ZM11.999 4C16.417 4 19.999 7.582 19.999 12C19.999 16.418 16.417 20 11.999 20C7.58102 20 3.99902 16.418 3.99902 12C3.99902 7.582 7.58102 4 11.999 4Z" fill="black"/>
<path opacity="0.988987" d="M12 7C11.448 7 11 7.448 11 8C11 8.552 11.448 9 12 9C12.552 9 13 8.552 13 8C13 7.448 12.552 7 12 7ZM11 10C10.448 10 10 10.448 10 11C10 11.482 10.359 11.842 10.812 11.938L10.219 14.812C9.98699 15.973 10.817 17 12 17H13C13.552 17 14 16.552 14 16C14 15.448 13.552 15 13 15H12.219L12.969 11.188C13.093 10.569 12.631 10 12 10C11.874 10 11.162 10 11 10Z" fill="black" fill-opacity="0.4"/>
</svg>
