<svg width="44" height="44" viewBox="0 0 44 44" fill="none" xmlns="http://www.w3.org/2000/svg">
<path d="M22.051 3.66675C11.8976 3.66675 3.66699 11.8746 3.66699 22.0001C3.66699 32.1255 11.8976 40.3334 22.051 40.3334C31.3901 40.3334 39.2291 33.352 40.3211 24.178C40.4387 23.1715 39.7199 22.2348 38.7106 22.1138C37.7032 21.9964 36.7619 22.7132 36.6443 23.7197C35.771 31.053 29.5223 36.6667 22.051 36.6667C13.929 36.6667 7.34379 30.0997 7.34379 22.0001C7.34379 13.9004 13.929 7.33341 22.051 7.33341C23.7479 7.33341 25.4282 7.63956 26.9927 8.19323C27.9486 8.53056 28.9506 8.00073 29.2907 7.0474C29.6289 6.09223 29.1546 5.03627 28.1986 4.6971C26.2426 4.00593 24.167 3.66675 22.051 3.66675Z" fill="#00367E"/>
<path d="M38.4831 7.3313C38.0145 7.3313 37.524 7.49631 37.167 7.84648L21.2071 23.6021C20.7366 24.066 20.2625 23.9761 19.8928 23.4298L18.0623 20.7367C17.5022 19.9098 16.327 19.6697 15.4887 20.2215C14.6485 20.7733 14.4123 21.9155 14.9725 22.7423L16.8029 25.4355C18.4522 27.872 21.6793 28.1946 23.7825 26.123L39.7993 10.426C40.5131 9.72194 40.5131 8.55047 39.7993 7.84648C39.4423 7.49448 38.9518 7.3313 38.4831 7.3313Z" fill="#0D8F75"/>
</svg>
