<svg width="24" height="25" viewBox="0 0 24 25" fill="none" xmlns="http://www.w3.org/2000/svg">
<path d="M12 2.52988C10.895 2.52988 10 3.42487 10 4.52987H5C4.448 4.52987 4 4.97787 4 5.52987C4 6.08187 4.448 6.52986 5 6.52986L19 6.52986C19.552 6.52986 20 6.08187 20 5.52987C20 4.97787 19.552 4.52987 19 4.52987H14C14 3.42487 13.105 2.52988 12 2.52988Z" fill="#99A1B7"/>
<path d="M5 8.52988L5 18.5298C5 20.7198 6.805 22.4988 9 22.4988L15.031 22.5298C17.226 22.5298 19 20.7248 19 18.5298V8.52988H5ZM10 11.5299C10.552 11.5299 11 11.9779 11 12.5299V18.5298C11 19.0818 10.552 19.5298 10 19.5298C9.448 19.5298 9 19.0818 9 18.5298V12.5299C9 11.9779 9.448 11.5299 10 11.5299ZM14 11.5299C14.552 11.5299 15 11.9779 15 12.5299V18.5298C15 19.0818 14.552 19.5298 14 19.5298C13.448 19.5298 13 19.0818 13 18.5298V12.5299C13 11.9779 13.448 11.5299 14 11.5299Z" fill="#DCDEE5" fill-opacity="0.4"/>
</svg>
