<svg width="16" height="16" viewBox="0 0 16 16" fill="none" xmlns="http://www.w3.org/2000/svg">
<rect width="16" height="16" fill="#E3F9F4"/>
<path fill-rule="evenodd" clip-rule="evenodd" d="M5.33366 2.66667C4.59728 2.66667 4.00033 3.26362 4.00033 4V12C4.00033 12.7364 4.59728 13.3333 5.33366 13.3333H10.667C11.4034 13.3333 12.0003 12.7364 12.0003 12V6.66667H13.3337V12C13.3337 13.4728 12.1398 14.6667 10.667 14.6667H5.33366C3.8609 14.6667 2.66699 13.4728 2.66699 12V4C2.66699 2.52724 3.8609 1.33334 5.33366 1.33334H8.00033V2.66667H5.33366Z" fill="#0D8F75" fill-opacity="0.5"/>
<path fill-rule="evenodd" clip-rule="evenodd" d="M9.33301 4V2.73335C10.6391 2.99847 11.6679 4.02725 11.933 5.33334H10.6663C9.92996 5.33334 9.33301 4.73638 9.33301 4ZM13.333 6V6.66667H10.6663C9.19358 6.66667 7.99967 5.47276 7.99967 4V1.33334H8.66634C11.2437 1.33334 13.333 3.42267 13.333 6ZM5.33301 6C5.33301 5.632 5.63167 5.33334 5.99967 5.33334H6.66634C7.03434 5.33334 7.33301 5.632 7.33301 6C7.33301 6.36801 7.03434 6.66667 6.66634 6.66667H5.99967C5.63167 6.66667 5.33301 6.36801 5.33301 6ZM5.33301 8.66668C5.33301 8.29868 5.63167 8.00001 5.99967 8.00001H9.99967C10.3677 8.00001 10.6663 8.29868 10.6663 8.66668C10.6663 9.03468 10.3677 9.33335 9.99967 9.33335H5.99967C5.63167 9.33335 5.33301 9.03468 5.33301 8.66668ZM5.33301 11.3334C5.33301 10.9654 5.63167 10.6667 5.99967 10.6667H9.99967C10.3677 10.6667 10.6663 10.9654 10.6663 11.3334C10.6663 11.7014 10.3677 12 9.99967 12H5.99967C5.63167 12 5.33301 11.7014 5.33301 11.3334Z" fill="#0D8F75"/>
</svg>
