<svg width="21" height="18" viewBox="0 0 21 18" fill="none" xmlns="http://www.w3.org/2000/svg">
<g clip-path="url(#clip0_5221_44776)">
<path d="M2.15625 6.45L3.49219 2.73504C3.97265 1.39554 5.27734 0.5 6.73828 0.5H13.8164C15.2422 0.5 16.5781 1.39554 17.0625 2.73504L18.3984 6.45C19.5195 7.07991 20.2773 8.25625 20.2773 9.60714V16.5893C20.2773 17.094 19.8594 17.5 19.3398 17.5C18.8203 17.5 18.4023 17.094 18.4023 16.5893V14.4643H2.15234V16.5893C2.15234 17.094 1.73047 17.5 1.21484 17.5C0.699219 17.5 0.277344 17.094 0.277344 16.5893V9.60714C0.277344 8.25625 1.03125 7.07991 2.15625 6.45ZM4.3164 5.96429H16.2383L15.289 3.33839C15.0703 2.72745 14.4805 2.32143 13.8164 2.32143H6.73828C6.07422 2.32143 5.48437 2.72745 5.26562 3.33839L4.3164 5.96429ZM16.5273 7.78571H4.02734C2.99219 7.78571 2.15234 8.60156 2.15234 9.60714V12.6429H18.4023V9.60714C18.4023 8.60156 17.5625 7.78571 16.5273 7.78571Z" fill="#110000"/>
<path d="M15.6943 11.8331C16.3847 11.8331 16.9443 11.2895 16.9443 10.6188C16.9443 9.9482 16.3847 9.40454 15.6943 9.40454C15.004 9.40454 14.4443 9.9482 14.4443 10.6188C14.4443 11.2895 15.004 11.8331 15.6943 11.8331Z" fill="black" fill-opacity="0.4"/>
<path d="M4.86133 11.8331C5.55168 11.8331 6.11133 11.2895 6.11133 10.6188C6.11133 9.9482 5.55168 9.40454 4.86133 9.40454C4.17097 9.40454 3.61133 9.9482 3.61133 10.6188C3.61133 11.2895 4.17097 11.8331 4.86133 11.8331Z" fill="black" fill-opacity="0.4"/>
</g>
<defs>
<clipPath id="clip0_5221_44776">
<rect width="21" height="18" fill="white"/>
</clipPath>
</defs>
</svg>
