<svg width="20" height="20" viewBox="0 0 20 20" fill="none" xmlns="http://www.w3.org/2000/svg">
<path fill-rule="evenodd" clip-rule="evenodd" d="M9.96696 3.97701C6.46916 3.97701 3.63363 6.81254 3.63363 10.3103C3.63363 13.8081 6.46916 16.6437 9.96696 16.6437C13.4648 16.6437 16.3003 13.8081 16.3003 10.3103C16.3003 6.81254 13.4648 3.97701 9.96696 3.97701ZM2.05029 10.3103C2.05029 5.93809 5.59471 2.39368 9.96696 2.39368C14.3392 2.39368 17.8836 5.93809 17.8836 10.3103C17.8836 14.6826 14.3392 18.227 9.96696 18.227C5.59471 18.227 2.05029 14.6826 2.05029 10.3103Z" fill="black"/>
<path fill-rule="evenodd" clip-rule="evenodd" d="M10.7587 7.14372C10.7587 6.70649 10.4042 6.35205 9.96699 6.35205C9.52976 6.35205 9.17532 6.70649 9.17532 7.14372V11.5659L6.80025 9.19082L5.68066 10.3104L9.40712 14.0369C9.49841 14.1282 9.60645 14.1925 9.72134 14.2299C9.77779 14.2483 9.83704 14.2606 9.89827 14.2658C9.93825 14.2693 9.97844 14.2697 10.0185 14.2671C10.1104 14.2612 10.1981 14.2396 10.2789 14.205C10.3484 14.1752 10.4145 14.135 10.4749 14.0844C10.4948 14.0677 10.5139 14.0501 10.5321 14.0315L14.2532 10.3104L13.1336 9.19082L10.7587 11.5658V7.14372Z" fill="black" fill-opacity="0.4"/>
</svg>
