<svg width="24" height="24" viewBox="0 0 24 24" fill="none" xmlns="http://www.w3.org/2000/svg">
<path d="M5.99829 3C4.34129 3 2.99829 4.343 2.99829 6V17C2.99829 19.209 4.78929 21 6.99829 21H16.9983C19.2073 21 20.9983 19.209 20.9983 17V8C20.9983 7.448 20.5503 7 19.9983 7H14.9983C14.2433 7 14.0003 6.755 13.4043 5.562C12.5013 3.755 11.7433 3 9.99829 3H5.99829ZM5.99829 5H9.99829C10.7533 5 10.9963 5.245 11.5923 6.438C11.7223 6.699 11.7763 6.782 11.9043 7H7.96729C7.41429 7 6.96729 7.448 6.96729 8C6.96729 8.552 7.41429 9 7.96729 9H18.9983V17C18.9983 18.105 18.1033 19 16.9983 19H6.99829C5.89329 19 4.99829 18.105 4.99829 17V6C4.99829 5.448 5.44629 5 5.99829 5Z" fill="#0700C4"/>
<path fill-rule="evenodd" clip-rule="evenodd" d="M14.7071 12.7071C15.0976 12.3166 15.0976 11.6834 14.7071 11.2929C14.3166 10.9024 13.6834 10.9024 13.2929 11.2929L12 12.5858L10.7071 11.2929C10.3166 10.9024 9.68342 10.9024 9.29289 11.2929C8.90237 11.6834 8.90237 12.3166 9.29289 12.7071L10.5858 14L9.29289 15.2929C8.90237 15.6834 8.90237 16.3166 9.29289 16.7071C9.68342 17.0976 10.3166 17.0976 10.7071 16.7071L12 15.4142L13.2929 16.7071C13.6834 17.0976 14.3166 17.0976 14.7071 16.7071C15.0976 16.3166 15.0976 15.6834 14.7071 15.2929L13.4142 14L14.7071 12.7071Z" fill="#1DC690"/>
</svg>
