<svg width="29" height="29" viewBox="0 0 29 29" fill="none" xmlns="http://www.w3.org/2000/svg">
<path d="M14.5837 2.83337C8.14039 2.83337 2.91699 8.05654 2.91699 14.5C2.91699 20.9435 8.14039 26.1667 14.5837 26.1667C21.0272 26.1667 26.2503 20.9435 26.2503 14.5C26.2503 8.05654 21.0272 2.83337 14.5837 2.83337ZM14.5837 5.16671C19.738 5.16671 23.917 9.34571 23.917 14.5C23.917 19.6544 19.738 23.8334 14.5837 23.8334C9.42898 23.8334 5.25033 19.6544 5.25033 14.5C5.25033 9.34571 9.42898 5.16671 14.5837 5.16671Z" fill="black"/>
<path fill-rule="evenodd" clip-rule="evenodd" d="M15.75 9.83329C15.75 9.18896 15.2277 8.66663 14.5833 8.66663C13.939 8.66663 13.4167 9.18896 13.4167 9.83329V13.3333H9.91667C9.27233 13.3333 8.75 13.8556 8.75 14.5C8.75 15.1443 9.27233 15.6666 9.91667 15.6666H13.4167V19.1666C13.4167 19.811 13.939 20.3333 14.5833 20.3333C15.2277 20.3333 15.75 19.811 15.75 19.1666V15.6666H19.25C19.8943 15.6666 20.4167 15.1443 20.4167 14.5C20.4167 13.8556 19.8943 13.3333 19.25 13.3333H15.75V9.83329Z" fill="#999999"/>
</svg>
