<svg version="1.1" id="Layer_1" xmlns="http://www.w3.org/2000/svg" xmlns:xlink="http://www.w3.org/1999/xlink" x="0px" y="0px"
	 width="100%" viewBox="0 0 372 247" enable-background="new 0 0 372 247" xml:space="preserve">
<path fill="#FFFFFF" opacity="1.000000" stroke="none" 
	d="
M264.000000,248.000000 
	C176.000031,248.000000 88.500053,248.000000 1.000059,248.000000 
	C1.000039,165.666718 1.000039,83.333435 1.000020,1.000114 
	C124.999908,1.000076 248.999817,1.000076 372.999817,1.000038 
	C372.999878,83.333221 372.999878,165.666443 372.999939,247.999832 
	C336.833344,248.000000 300.666656,248.000000 264.000000,248.000000 
M122.520836,175.027069 
	C114.312309,183.404999 109.843803,193.385086 108.600616,205.112091 
	C107.642937,214.145966 111.184875,218.934433 120.098122,218.938019 
	C150.882172,218.950424 181.666214,218.947723 212.450256,218.930817 
	C213.855011,218.930054 215.259659,218.735565 216.970306,218.608582 
	C198.805756,197.256348 195.589600,189.193314 200.677887,159.099747 
	C198.966995,159.099747 197.347504,159.099701 195.728012,159.099747 
	C184.412796,159.100006 173.097565,159.089447 161.782364,159.103271 
	C146.829956,159.121536 133.762100,163.895203 122.520836,175.027069 
M159.467194,74.837845 
	C145.346664,84.703568 139.648590,98.469582 142.350632,115.152519 
	C145.574951,135.060150 163.791672,148.747696 183.267410,146.911133 
	C203.671783,144.986984 219.097672,128.664749 218.824219,108.158936 
	C218.394989,75.969284 186.107895,59.777596 159.467194,74.837845 
M216.016022,197.461044 
	C216.539871,198.309799 217.035965,199.177231 217.592026,200.004318 
	C221.608673,205.978836 221.773849,205.949005 228.112915,202.961456 
	C229.438995,202.336502 231.396530,202.002823 232.662430,202.518463 
	C235.243912,203.570007 237.661911,205.143204 239.918945,206.810532 
	C240.797119,207.459259 241.419754,208.903503 241.543152,210.051559 
	C242.360367,217.653931 242.296783,217.785278 250.114853,218.351120 
	C253.057892,218.564117 256.054108,218.050156 259.025604,217.859924 
	C262.141571,217.660431 263.076477,216.036331 263.042267,212.927917 
	C262.958557,205.322586 271.619141,200.215607 278.187714,203.995041 
	C281.088928,205.664322 283.209473,205.469467 284.872070,202.693802 
	C287.162659,198.869644 289.231720,194.913483 291.439423,191.038773 
	C292.854645,188.554947 292.003143,187.129410 289.565979,185.965775 
	C287.676056,185.063385 284.792480,183.959274 284.480194,182.491714 
	C283.737030,178.999069 283.755920,175.132446 284.494263,171.633713 
	C284.820251,170.089096 287.855286,169.269684 289.260254,167.750870 
	C290.391266,166.528198 291.981171,164.254761 291.536621,163.300156 
	C289.380249,158.669678 286.758057,154.226074 283.928284,149.963638 
	C283.337158,149.073257 280.503784,148.450806 279.838379,149.023407 
	C274.481293,153.633362 270.067169,150.665802 265.820770,147.467331 
	C264.490662,146.465454 263.201721,144.540253 263.081665,142.948166 
	C262.508575,135.347137 262.597290,135.261841 254.751221,134.892395 
	C252.925797,134.806442 251.088379,134.809128 249.263580,134.905487 
	C242.091095,135.284286 241.943985,135.452362 241.606552,142.548386 
	C241.401199,146.866791 232.564102,152.423462 228.718231,150.652435 
	C221.575439,147.363129 221.549454,147.346512 217.270477,154.036224 
	C216.108109,155.853470 215.215775,157.841537 214.092072,159.685760 
	C211.675583,163.651718 212.008469,166.385620 216.708633,168.597458 
	C222.041107,171.106842 221.971054,182.115479 216.624039,184.750229 
	C212.363174,186.849777 211.451660,189.306946 213.901154,193.250183 
	C214.597488,194.371140 215.092545,195.617126 216.016022,197.461044 
M98.435661,28.724325 
	C83.666367,33.944347 75.929237,47.359287 78.982994,63.026428 
	C81.519478,76.039749 89.712105,83.555275 102.556519,86.341438 
	C113.441971,88.702675 126.088829,84.095032 132.473328,74.774025 
	C139.707077,64.213158 140.153809,52.960835 134.122177,41.771370 
	C128.173187,30.735167 113.386032,23.863880 98.435661,28.724325 
M238.787460,83.920998 
	C242.784683,84.941193 246.770538,86.775978 250.781204,86.831902 
	C263.857391,87.014214 273.820923,81.575768 279.493469,69.262062 
	C284.171875,59.106339 282.458771,45.587284 275.045563,37.467228 
	C266.080811,27.647667 255.064667,24.780622 242.455017,28.753550 
	C229.641907,32.790581 223.198059,42.424366 222.430511,55.180416 
	C221.691742,67.458298 226.676620,77.541946 238.787460,83.920998 
M79.086388,102.400856 
	C68.261681,108.132568 62.577400,117.407776 60.437378,129.211288 
	C58.989212,137.198792 61.947430,141.052185 70.023888,141.072449 
	C91.845078,141.127228 113.666512,141.102081 135.487793,141.073578 
	C136.997025,141.071594 138.505890,140.780945 140.780945,140.545120 
	C139.463196,138.595474 138.738876,137.522995 138.013733,136.451096 
	C132.058792,127.648544 128.766632,117.793724 129.337067,107.320335 
	C129.639130,101.774590 127.633842,100.087318 123.166069,99.868515 
	C113.879585,99.413734 104.565666,98.871933 95.287132,99.155243 
	C90.091866,99.313873 84.944824,101.052055 79.086388,102.400856 
M278.456573,129.951904 
	C282.062256,132.606216 285.570618,135.409729 289.314484,137.852203 
	C291.198151,139.081100 294.458649,140.962112 295.432526,140.255341 
	C297.544464,138.722641 299.737335,135.779984 299.877045,133.300034 
	C300.734558,118.079964 289.359222,102.719383 274.417877,100.149437 
	C265.339417,98.587929 255.870728,99.175362 246.574097,99.061554 
	C242.953766,99.017242 239.311050,99.597099 235.703232,100.077988 
	C232.222504,100.541939 231.027145,102.389427 230.839432,106.182381 
	C230.539444,112.243599 229.077667,118.250412 228.047546,124.270042 
	C227.811874,125.647141 227.333817,126.982750 226.703415,129.312836 
	C244.421783,120.911751 261.213287,121.105675 278.456573,129.951904 
z"/>
<path fill="#A4AEBB" opacity="1.000000" stroke="none" 
	d="
M122.773468,174.774170 
	C133.762100,163.895203 146.829956,159.121536 161.782364,159.103271 
	C173.097565,159.089447 184.412796,159.100006 195.728012,159.099747 
	C197.347504,159.099701 198.966995,159.099747 200.677887,159.099747 
	C195.589600,189.193314 198.805756,197.256348 216.970306,218.608582 
	C215.259659,218.735565 213.855011,218.930054 212.450256,218.930817 
	C181.666214,218.947723 150.882172,218.950424 120.098122,218.938019 
	C111.184875,218.934433 107.642937,214.145966 108.600616,205.112091 
	C109.843803,193.385086 114.312309,183.404999 122.773468,174.774170 
z"/>
<path fill="#A4AEBA" opacity="1.000000" stroke="none" 
	d="
M159.788605,74.659592 
	C186.107895,59.777596 218.394989,75.969284 218.824219,108.158936 
	C219.097672,128.664749 203.671783,144.986984 183.267410,146.911133 
	C163.791672,148.747696 145.574951,135.060150 142.350632,115.152519 
	C139.648590,98.469582 145.346664,84.703568 159.788605,74.659592 
z"/>
<path fill="#1C3355" opacity="1.000000" stroke="none" 
	d="
M215.847961,197.133408 
	C215.092545,195.617126 214.597488,194.371140 213.901154,193.250183 
	C211.451660,189.306946 212.363174,186.849777 216.624039,184.750229 
	C221.971054,182.115479 222.041107,171.106842 216.708633,168.597458 
	C212.008469,166.385620 211.675583,163.651718 214.092072,159.685760 
	C215.215775,157.841537 216.108109,155.853470 217.270477,154.036224 
	C221.549454,147.346512 221.575439,147.363129 228.718231,150.652435 
	C232.564102,152.423462 241.401199,146.866791 241.606552,142.548386 
	C241.943985,135.452362 242.091095,135.284286 249.263580,134.905487 
	C251.088379,134.809128 252.925797,134.806442 254.751221,134.892395 
	C262.597290,135.261841 262.508575,135.347137 263.081665,142.948166 
	C263.201721,144.540253 264.490662,146.465454 265.820770,147.467331 
	C270.067169,150.665802 274.481293,153.633362 279.838379,149.023407 
	C280.503784,148.450806 283.337158,149.073257 283.928284,149.963638 
	C286.758057,154.226074 289.380249,158.669678 291.536621,163.300156 
	C291.981171,164.254761 290.391266,166.528198 289.260254,167.750870 
	C287.855286,169.269684 284.820251,170.089096 284.494263,171.633713 
	C283.755920,175.132446 283.737030,178.999069 284.480194,182.491714 
	C284.792480,183.959274 287.676056,185.063385 289.565979,185.965775 
	C292.003143,187.129410 292.854645,188.554947 291.439423,191.038773 
	C289.231720,194.913483 287.162659,198.869644 284.872070,202.693802 
	C283.209473,205.469467 281.088928,205.664322 278.187714,203.995041 
	C271.619141,200.215607 262.958557,205.322586 263.042267,212.927917 
	C263.076477,216.036331 262.141571,217.660431 259.025604,217.859924 
	C256.054108,218.050156 253.057892,218.564117 250.114853,218.351120 
	C242.296783,217.785278 242.360367,217.653931 241.543152,210.051559 
	C241.419754,208.903503 240.797119,207.459259 239.918945,206.810532 
	C237.661911,205.143204 235.243912,203.570007 232.662430,202.518463 
	C231.396530,202.002823 229.438995,202.336502 228.112915,202.961456 
	C221.773849,205.949005 221.608673,205.978836 217.592026,200.004318 
	C217.035965,199.177231 216.539871,198.309799 215.847961,197.133408 
M246.159317,187.713699 
	C253.195526,190.345612 258.785095,189.146149 262.285736,184.253082 
	C265.190796,180.192581 264.990417,173.149872 261.876099,169.278763 
	C258.417206,164.979309 253.719833,164.179138 248.792297,165.297516 
	C244.453217,166.282333 241.409302,169.358749 240.486298,173.748322 
	C239.350769,179.148788 240.416687,184.036911 246.159317,187.713699 
z"/>
<path fill="#A4AEBB" opacity="1.000000" stroke="none" 
	d="
M98.806915,28.566881 
	C113.386032,23.863880 128.173187,30.735167 134.122177,41.771370 
	C140.153809,52.960835 139.707077,64.213158 132.473328,74.774025 
	C126.088829,84.095032 113.441971,88.702675 102.556519,86.341438 
	C89.712105,83.555275 81.519478,76.039749 78.982994,63.026428 
	C75.929237,47.359287 83.666367,33.944347 98.806915,28.566881 
z"/>
<path fill="#A4AEBB" opacity="1.000000" stroke="none" 
	d="
M238.450806,83.748878 
	C226.676620,77.541946 221.691742,67.458298 222.430511,55.180416 
	C223.198059,42.424366 229.641907,32.790581 242.455017,28.753550 
	C255.064667,24.780622 266.080811,27.647667 275.045563,37.467228 
	C282.458771,45.587284 284.171875,59.106339 279.493469,69.262062 
	C273.820923,81.575768 263.857391,87.014214 250.781204,86.831902 
	C246.770538,86.775978 242.784683,84.941193 238.450806,83.748878 
z"/>
<path fill="#A4AEBA" opacity="1.000000" stroke="none" 
	d="
M79.431221,102.239693 
	C84.944824,101.052055 90.091866,99.313873 95.287132,99.155243 
	C104.565666,98.871933 113.879585,99.413734 123.166069,99.868515 
	C127.633842,100.087318 129.639130,101.774590 129.337067,107.320335 
	C128.766632,117.793724 132.058792,127.648544 138.013733,136.451096 
	C138.738876,137.522995 139.463196,138.595474 140.780945,140.545120 
	C138.505890,140.780945 136.997025,141.071594 135.487793,141.073578 
	C113.666512,141.102081 91.845078,141.127228 70.023888,141.072449 
	C61.947430,141.052185 58.989212,137.198792 60.437378,129.211288 
	C62.577400,117.407776 68.261681,108.132568 79.431221,102.239693 
z"/>
<path fill="#A4AEBB" opacity="1.000000" stroke="none" 
	d="
M278.140381,129.758163 
	C261.213287,121.105675 244.421783,120.911751 226.703415,129.312836 
	C227.333817,126.982750 227.811874,125.647141 228.047546,124.270042 
	C229.077667,118.250412 230.539444,112.243599 230.839432,106.182381 
	C231.027145,102.389427 232.222504,100.541939 235.703232,100.077988 
	C239.311050,99.597099 242.953766,99.017242 246.574097,99.061554 
	C255.870728,99.175362 265.339417,98.587929 274.417877,100.149437 
	C289.359222,102.719383 300.734558,118.079964 299.877045,133.300034 
	C299.737335,135.779984 297.544464,138.722641 295.432526,140.255341 
	C294.458649,140.962112 291.198151,139.081100 289.314484,137.852203 
	C285.570618,135.409729 282.062256,132.606216 278.140381,129.758163 
z"/>
<path fill="#F9FAF9" opacity="1.000000" stroke="none" 
	d="
M245.841888,187.486557 
	C240.416687,184.036911 239.350769,179.148788 240.486298,173.748322 
	C241.409302,169.358749 244.453217,166.282333 248.792297,165.297516 
	C253.719833,164.179138 258.417206,164.979309 261.876099,169.278763 
	C264.990417,173.149872 265.190796,180.192581 262.285736,184.253082 
	C258.785095,189.146149 253.195526,190.345612 245.841888,187.486557 
z"/>
</svg>