<svg width="24" height="25" viewBox="0 0 24 25" fill="none" xmlns="http://www.w3.org/2000/svg">
<path d="M15.9951 13.9935C17.1739 13.5575 17.9999 12.4405 17.9999 11.1735C17.9999 9.90646 17.2198 8.76048 16.0053 8.33548C16.0053 8.33548 15.9951 15.074 15.9951 13.9935ZM17.7811 5.02246C17.5334 5.08646 17.3273 5.25348 17.1874 5.49048C16.9077 5.96648 17.0549 6.58547 17.5311 6.86447C19.0508 7.75647 19.9999 9.38046 19.9999 11.1735C19.9999 12.9675 19.0519 14.5904 17.5311 15.4824C17.0548 15.7614 16.8767 16.3795 17.1561 16.8555C17.4357 17.3315 18.0547 17.4785 18.5311 17.1995C20.6578 15.9525 21.9998 13.6835 21.9999 11.1735C21.9999 8.66446 20.6562 6.39446 18.5311 5.14746C18.293 5.00746 18.0288 4.95846 17.7811 5.02246Z" fill="black"/>
<path d="M15.375 3.24247C15.027 3.09847 14.5962 3.14646 14.2812 3.46146C13.5816 4.16046 12.6974 4.74047 11.6856 5.17447C10.6579 5.61447 8.548 6.18346 7.0073 6.17346C4.0102 6.15346 1.9999 7.85246 2 11.1425C2 14.0255 3.6366 15.7025 5.9923 16.0795L6 18.1655C6 19.8205 7.3431 21.1625 9 21.1625C10.5225 21.1625 11.7766 19.9845 11.9702 18.5115C11.9795 18.4405 12 18.1655 12 17.1655C12.8983 17.5845 13.6426 18.2475 14.2812 18.8855C14.9112 19.5145 16 19.0575 16 18.1675C16 12.8009 16 9.23356 16 4.17948C16 3.73448 15.7231 3.38747 15.375 3.24247ZM14.0046 6.20047C14.0046 9.5028 14.0032 12.8051 14.0032 16.1075C11.9779 14.9125 9.8898 14.3825 8.0021 14.2125C8.0021 12.6875 7.997 9.67147 7.997 8.10047C8.193 8.09147 8.421 8.06648 8.75 8.02048C10.0269 7.83748 11.2956 7.50547 12.5 6.98947C13.0734 6.74447 13.4996 6.52247 14.0046 6.20047ZM5.9985 8.26847C5.9985 9.80446 5.997 12.5185 5.997 14.0545C4.6957 13.6945 4 12.7755 4 11.1425C4 9.52846 4.627 8.57147 5.9985 8.26847ZM8 16.2315C8.3166 16.2425 9.4636 16.4465 9.9899 16.5795L10 18.1655C10 18.7175 9.5523 19.1645 9 19.1645C8.4477 19.1645 8 18.7175 8 18.1655V16.2315Z" fill="black" fill-opacity="0.4"/>
</svg>
