<svg width="24" height="24" viewBox="0 0 24 24" fill="none" xmlns="http://www.w3.org/2000/svg">
<path fill-rule="evenodd" clip-rule="evenodd" d="M2 9C2 7.34315 3.34315 6 5 6H7C7.15525 6 7.30836 6.03615 7.44721 6.10557L9.23607 7H19C20.6569 7 22 8.34315 22 10V15C22 16.6569 20.6569 18 19 18H17V16H19C19.5523 16 20 15.5523 20 15V10C20 9.44772 19.5523 9 19 9H9C8.84475 9 8.69164 8.96386 8.55279 8.89443L6.76393 8H5C4.44772 8 4 8.44772 4 9V15C4 15.5523 4.44772 16 5 16H7V18H5C3.34315 18 2 16.6569 2 15V9Z" fill="black" fill-opacity="0.4"/>
<path fill-rule="evenodd" clip-rule="evenodd" d="M7 5C7 3.89543 7.89543 3 9 3H15C16.1046 3 17 3.89543 17 5V7H15V5H9V6.88197L7.44721 6.10557C7.30836 6.03615 7.15525 6 7 6V5ZM17 16V18V19C17 20.1046 16.1046 21 15 21H9C7.89543 21 7 20.1046 7 19V18V16V14C6.44772 14 6 13.5523 6 13C6 12.4477 6.44772 12 7 12H17C17.5523 12 18 12.4477 18 13C18 13.5523 17.5523 14 17 14V16ZM15 14H9V19H15V14ZM7 10C7 10.5523 6.55228 11 6 11C5.44772 11 5 10.5523 5 10C5 9.44772 5.44772 9 6 9C6.55228 9 7 9.44772 7 10Z" fill="black"/>
</svg>
