<svg width="24" height="24" viewBox="0 0 24 24" fill="none" xmlns="http://www.w3.org/2000/svg">
<path fill-rule="evenodd" clip-rule="evenodd" d="M12.8759 8.99237C12.9569 8.67505 13 8.34255 13 8C13 7.65744 12.9569 7.32494 12.8759 7.00762C12.9166 7.00259 12.958 7 13 7H21C21.5523 7 22 7.44772 22 8C22 8.55228 21.5523 9 21 9H13C12.958 9 12.9166 8.99741 12.8759 8.99237ZM5.12406 7.00762C5.04306 7.32494 5 7.65744 5 8C5 8.34256 5.04306 8.67506 5.12406 8.99238C5.08342 8.99741 5.04201 9 5 9H3C2.44772 9 2 8.55228 2 8C2 7.44772 2.44772 7 3 7H5C5.04201 7 5.08342 7.00259 5.12406 7.00762ZM19.8759 16.9924C19.9569 16.6751 20 16.3426 20 16C20 15.6574 19.9569 15.3249 19.8759 15.0076C19.9166 15.0026 19.958 15 20 15H21C21.5523 15 22 15.4477 22 16C22 16.5523 21.5523 17 21 17H20C19.958 17 19.9166 16.9974 19.8759 16.9924ZM12.1241 15.0076C12.0431 15.3249 12 15.6574 12 16C12 16.3426 12.0431 16.6751 12.1241 16.9924C12.0834 16.9974 12.042 17 12 17H3C2.44772 17 2 16.5523 2 16C2 15.4477 2.44772 15 3 15H12C12.042 15 12.0834 15.0026 12.1241 15.0076Z" fill="black" fill-opacity="0.4"/>
<path fill-rule="evenodd" clip-rule="evenodd" d="M13 8C13 10.2091 11.2091 12 9 12C6.79086 12 5 10.2091 5 8C5 5.79086 6.79086 4 9 4C11.2091 4 13 5.79086 13 8ZM20 16C20 18.2091 18.2091 20 16 20C13.7909 20 12 18.2091 12 16C12 13.7909 13.7909 12 16 12C18.2091 12 20 13.7909 20 16Z" fill="black"/>
</svg>
