<svg width="24" height="26" viewBox="0 0 24 26" fill="none" xmlns="http://www.w3.org/2000/svg">
<path fill-rule="evenodd" clip-rule="evenodd" d="M4.49024 8.84179C6.54091 6.45179 9.03715 4.9978 12 4.9978C14.9629 4.9978 17.4591 6.45179 19.5098 8.84179C20.2117 9.65879 20.8255 10.5318 21.3241 11.4038C21.6265 11.9318 21.8108 12.3398 21.9189 12.5918C22.027 12.8428 22.027 13.1528 21.9189 13.4038C21.8108 13.6558 21.6265 14.0638 21.3241 14.5918C20.8255 15.4638 20.2117 16.3368 19.5098 17.1538C17.4591 19.5438 14.9629 20.9978 12 20.9978C9.03715 20.9978 6.54091 19.5438 4.49024 17.1538C3.78833 16.3368 3.17454 15.4638 2.67589 14.5918C2.37349 14.0638 2.18925 13.6558 2.08111 13.4038C1.97296 13.1528 1.97296 12.8428 2.08111 12.5918C2.18925 12.3398 2.37349 11.9318 2.67589 11.4038C3.17454 10.5318 3.78833 9.65879 4.49024 8.84179ZM11.9988 18C14.7638 18 17.0053 15.7614 17.0053 13C17.0053 10.2386 14.7638 8 11.9988 8C9.23382 8 6.99233 10.2386 6.99233 13C6.99233 15.7614 9.23382 18 11.9988 18Z" fill="black"/>
<path d="M12 16C13.6569 16 15 14.6569 15 13C15 11.3431 13.6569 10 12 10C10.3431 10 9 11.3431 9 13C9 14.6569 10.3431 16 12 16Z" fill="black" fill-opacity="0.4"/>
</svg>
