<svg width="32" height="24" viewBox="0 0 32 24" fill="none" xmlns="http://www.w3.org/2000/svg">
<g clip-path="url(#clip0_5236_44780)">
<path d="M1.97477 22.4124C1.01964 22.0377 0.687718 21.5765 0.68653 20.648C0.682496 17.4939 0.670721 14.3396 0.692312 11.1856C0.700162 10.0388 1.26442 9.17569 2.20507 8.52107C2.4889 8.32354 2.76895 8.02 2.88819 7.70374C3.44334 6.23131 3.93737 4.73594 4.46109 3.25154C5.12534 1.36889 6.79089 0.0733631 8.77597 0.0438893C11.9515 -0.00325857 15.1299 -0.0294444 18.3039 0.055424C20.2413 0.10723 21.6824 1.14864 22.4243 2.94089C23.0761 4.51543 23.5629 6.15831 24.1185 7.77242C24.1459 7.85195 24.134 7.94499 24.146 8.10692C21.7723 8.571 19.808 9.71725 18.3733 11.6879C16.9317 13.6679 16.4805 15.893 16.7875 18.3864C16.5265 18.402 16.2752 18.4298 16.024 18.43C12.7588 18.433 9.49341 18.4471 6.22846 18.4183C5.62508 18.4129 5.44934 18.6072 5.48708 19.181C5.52632 19.7775 5.50064 20.3802 5.47284 20.9787C5.43422 21.8101 4.86838 22.3819 4.02964 22.4174C3.36463 22.4456 2.69735 22.4202 1.97477 22.4124ZM16.4729 3.24567C14.0302 3.24566 11.5876 3.24387 9.14494 3.24654C8.18335 3.24759 7.69921 3.58348 7.38988 4.46645C7.03811 5.4706 6.69265 6.47701 6.3536 7.48551C6.30252 7.63743 6.30119 7.80608 6.27475 7.98086C11.1507 7.98086 15.9533 7.98086 20.8245 7.98086C20.4462 6.87212 20.0955 5.82698 19.7329 4.78597C19.278 3.47985 18.9378 3.24564 17.5384 3.24567C17.2275 3.24567 16.9166 3.24569 16.4729 3.24567ZM3.88473 12.8842C3.90993 13.0133 3.93099 13.1434 3.96103 13.2713C4.12251 13.9591 4.5842 14.323 5.25899 14.412C5.98168 14.5072 6.67561 14.1842 6.93131 13.5969C7.20142 12.9764 7.19466 12.3358 6.73946 11.7901C6.30357 11.2676 5.70953 11.1117 5.06142 11.2756C4.29949 11.4684 3.95161 12.0208 3.88473 12.8842Z" fill="black"/>
<path fill-rule="evenodd" clip-rule="evenodd" d="M31.9997 16.16C31.9997 20.1144 28.794 23.32 24.8397 23.32C20.8853 23.32 17.6797 20.1144 17.6797 16.16C17.6797 12.2056 20.8853 9 24.8397 9C28.794 9 31.9997 12.2056 31.9997 16.16ZM23.3555 17.0112C22.3751 17.257 21.6797 18.039 21.6797 18.9679V19.656C21.6797 19.846 21.8476 20 22.0547 20H27.3047C27.5118 20 27.6797 19.846 27.6797 19.656V18.9679C27.6797 18.039 26.9843 17.257 26.0039 17.0112C25.9199 16.9901 25.8373 16.9998 25.7578 17.0327C25.4145 17.1746 25.049 17.2477 24.6797 17.2477C24.3103 17.2477 23.9449 17.1746 23.6016 17.0327C23.5221 16.9998 23.4395 16.9901 23.3555 17.0112ZM23.5078 17.6992C23.8865 17.8306 24.2746 17.9358 24.6797 17.9358C25.0848 17.9358 25.4729 17.8306 25.8516 17.6992C26.4903 17.8768 26.9297 18.3715 26.9297 18.9679V19.3119H22.4297V18.9679C22.4297 18.3715 22.869 17.8768 23.5078 17.6992ZM22.6797 14C22.6797 12.8954 23.5751 12 24.6797 12C25.7842 12 26.6797 12.8954 26.6797 14C26.6797 15.1046 25.7842 16 24.6797 16C23.5751 16 22.6797 15.1046 22.6797 14ZM25.8797 14C25.8797 13.3372 25.3424 12.8 24.6797 12.8C24.0169 12.8 23.4797 13.3372 23.4797 14C23.4797 14.6628 24.0169 15.2 24.6797 15.2C25.3424 15.2 25.8797 14.6628 25.8797 14Z" fill="black" fill-opacity="0.4"/>
<path d="M16.5399 3.24561C16.9173 3.24561 17.2281 3.24559 17.539 3.24559C18.9384 3.24557 19.2787 3.47977 19.7336 4.78589C20.0961 5.8269 20.4469 6.87204 20.8251 7.98078C15.954 7.98078 11.1514 7.98078 6.27539 7.98078C6.30183 7.806 6.30316 7.63736 6.35424 7.48543C6.69329 6.47693 7.03875 5.47052 7.39053 4.46637C7.69985 3.5834 8.184 3.24751 9.14558 3.24646C11.5882 3.24379 14.0309 3.24558 16.5399 3.24561Z" fill="#FEFEFE"/>
<path d="M3.88477 12.8304C3.95159 12.0208 4.29947 11.4684 5.0614 11.2757C5.70951 11.1117 6.30355 11.2676 6.73944 11.7901C7.19464 12.3358 7.2014 12.9764 6.93129 13.5969C6.67559 14.1842 5.98165 14.5072 5.25897 14.412C4.58418 14.323 4.12249 13.9591 3.96101 13.2713C3.93097 13.1434 3.90991 13.0133 3.88477 12.8304Z" fill="#FDFDFD"/>
</g>
<defs>
<clipPath id="clip0_5236_44780">
<rect width="32" height="24" fill="white"/>
</clipPath>
</defs>
</svg>
