<svg width="44" height="44" viewBox="0 0 44 44" fill="none" xmlns="http://www.w3.org/2000/svg">
<path fill-rule="evenodd" clip-rule="evenodd" d="M9.16634 9.16666C10.1789 9.16666 10.9997 9.98747 10.9997 11V14.6667C10.9997 20.0385 11.0476 30.4645 21.9997 36.4322C32.9517 30.4645 32.9997 20.0385 32.9997 14.6667V11C32.9997 9.98747 33.8205 9.16666 34.833 9.16666C35.8455 9.16666 36.6663 9.98747 36.6663 11V14.7259C36.6665 20.2571 36.6669 33.2161 22.8196 40.1398L21.9997 40.5497L21.1798 40.1398C7.33241 33.2161 7.33283 20.2571 7.33301 14.7259L7.33301 11C7.33301 9.98747 8.15382 9.16666 9.16634 9.16666Z" fill="white" fill-opacity="0.4"/>
<path fill-rule="evenodd" clip-rule="evenodd" d="M22.0001 3.50531L35.5557 9.31482C36.4863 9.71367 36.9174 10.7914 36.5186 11.7221C36.1197 12.6528 35.0419 13.0839 34.1113 12.685L22.0001 7.49452L9.889 12.685C8.95834 13.0839 7.88056 12.6528 7.48171 11.7221C7.08286 10.7914 7.51397 9.71367 8.44463 9.31482L22.0001 3.50531Z" fill="white"/>
</svg>
