<svg width="24" height="24" viewBox="0 0 24 24" fill="none" xmlns="http://www.w3.org/2000/svg">
<path d="M6.99902 3C6.44672 3 5.99902 3.44777 5.99902 3.99948C5.99902 4.5512 6.44672 4.99897 6.99902 4.99897C6.99902 10.3326 6.98861 15.6664 7 21L11.9991 20.9907C12.5511 20.9907 12.9991 20.543 12.9991 19.9912V17.9923C12.9991 17.4406 13.4471 16.9928 13.9991 16.9928C14.5511 16.9928 14.9991 17.4406 14.9991 17.9923V19.9912C14.9991 20.543 15.4471 20.9907 15.9991 20.9907H19.9991C20.5511 20.9907 20.9991 20.543 20.9991 19.9912V4.99897C21.5511 4.99897 21.9991 4.5512 21.9991 3.99948C21.9991 3.44777 21.5511 3 20.9991 3H6.99902ZM8.99902 4.99897H18.9991V18.9918H16.9991V17.9923C16.9991 16.3361 15.6561 14.9938 13.9991 14.9938C12.3421 14.9938 10.9991 16.3361 10.9991 17.9923V18.9918H8.99902V4.99897Z" fill="black"/>
<path fill-rule="evenodd" clip-rule="evenodd" d="M3 7C2.44772 7 2 7.44772 2 8C2 8.55228 2.44772 9 3 9V20C3 20.5523 3.44772 21 4 21H7V19H5V9H7V7H3ZM13 8C13 8.55228 12.5523 9 12 9C11.4477 9 11 8.55228 11 8C11 7.44772 11.4477 7 12 7C12.5523 7 13 7.44772 13 8ZM17 8C17 8.55228 16.5523 9 16 9C15.4477 9 15 8.55228 15 8C15 7.44772 15.4477 7 16 7C16.5523 7 17 7.44772 17 8ZM12 13C12.5523 13 13 12.5523 13 12C13 11.4477 12.5523 11 12 11C11.4477 11 11 11.4477 11 12C11 12.5523 11.4477 13 12 13ZM17 12C17 12.5523 16.5523 13 16 13C15.4477 13 15 12.5523 15 12C15 11.4477 15.4477 11 16 11C16.5523 11 17 11.4477 17 12Z" fill="black" fill-opacity="0.4"/>
</svg>
