<svg width="22" height="20" viewBox="0 0 22 20" fill="none" xmlns="http://www.w3.org/2000/svg">
<path d="M15.9325 19.9995C12.0259 19.9993 8.16119 19.9996 4.29647 19.9988C3.47609 19.9986 3.25786 19.7946 3.25647 19.029C3.25493 18.1845 3.25354 17.34 3.25723 16.4955C3.26007 15.8465 3.51747 15.5835 4.21025 15.5895C4.58556 15.5927 4.68517 15.4644 4.68283 15.1326C4.67012 13.3268 4.6726 11.5209 4.67927 9.71503C4.69001 6.80596 6.96271 4.37358 10.0609 3.94617C13.5279 3.46787 16.6946 5.64681 17.2344 8.87185C17.2799 9.14376 17.3001 9.41229 17.3002 9.68472C17.3007 11.5036 17.3088 13.3225 17.2938 15.1413C17.291 15.4791 17.3937 15.5961 17.7661 15.5905C18.4546 15.5801 18.7211 15.8496 18.7235 16.493C18.7269 17.3894 18.728 18.2859 18.7224 19.1823C18.7189 19.7455 18.4548 19.9923 17.8578 19.9971C17.2301 20.0022 16.6022 19.999 15.9325 19.9995ZM13.0425 15.5805C13.8097 15.5806 14.5775 15.5622 15.3436 15.5885C15.7382 15.602 15.8395 15.4695 15.8366 15.1196C15.8216 13.3403 15.829 11.5609 15.8323 9.78155C15.8329 9.45557 15.8012 9.13427 15.7321 8.81506C15.263 6.64754 12.9424 5.04193 10.5938 5.26097C8.10192 5.49338 6.18176 7.37119 6.15919 9.62742C6.14087 11.4586 6.16258 13.2901 6.14611 15.1212C6.14293 15.4738 6.24946 15.591 6.64048 15.588C8.74644 15.5717 10.8526 15.5804 13.0425 15.5805ZM15.8903 16.9576C12.5993 16.9578 9.3083 16.9554 6.0173 16.9615C5.61681 16.9623 5.10972 16.8017 4.84213 17.0341C4.55062 17.2873 4.78754 17.7737 4.73348 18.1538C4.67866 18.5392 4.85969 18.6308 5.25337 18.6291C8.46064 18.6156 11.668 18.6211 14.8754 18.6208C15.5447 18.6208 16.2142 18.6131 16.8834 18.6243C17.1552 18.6289 17.2593 18.5351 17.2473 18.2821C17.232 17.9582 17.2293 17.6323 17.2487 17.3086C17.2655 17.027 17.1323 16.9424 16.8522 16.9557C16.5602 16.9696 16.2667 16.9581 15.8903 16.9576Z" fill="black" fill-opacity="0.4"/>
<path d="M10.6596 0.0479192C11.2939 -0.101503 11.6555 0.0979141 11.7227 0.654713C11.7798 1.12837 11.7921 1.60915 11.698 2.08357C11.6269 2.44186 11.3637 2.62413 10.9983 2.63777C10.6407 2.65112 10.3675 2.46305 10.2986 2.13756C10.1773 1.56433 10.1836 0.981818 10.3154 0.407361C10.3514 0.250575 10.4758 0.138633 10.6596 0.0479192Z" fill="black"/>
<path d="M3.61903 3.88699C3.26781 3.44614 3.25751 3.09685 3.5672 2.82548C3.89666 2.53678 4.2995 2.57134 4.7124 2.93859C5.00419 3.19811 5.29632 3.45948 5.5627 3.74103C5.8813 4.07776 5.87464 4.43765 5.58073 4.71498C5.27092 5.00732 4.86793 5.01031 4.50256 4.70009C4.20447 4.44699 3.92687 4.17297 3.61903 3.88699Z" fill="black"/>
<path d="M16.6264 3.53611C16.8639 3.31553 17.0754 3.10951 17.298 2.91445C17.6987 2.56321 18.1217 2.54303 18.4404 2.85097C18.7355 3.13618 18.7073 3.54442 18.3561 3.88876C18.0977 4.14212 17.8297 4.38721 17.5607 4.6309C17.1603 4.99358 16.7489 5.02808 16.4208 4.73299C16.0923 4.43749 16.1161 4.07264 16.4909 3.66864C16.5273 3.6295 16.5671 3.59321 16.6264 3.53611Z" fill="black"/>
<path d="M21.4895 9.6881C21.4507 10.2141 21.2329 10.4391 20.7206 10.4638C20.303 10.4839 19.8827 10.4823 19.4649 10.4641C18.9476 10.4415 18.6501 10.1558 18.6715 9.73871C18.6925 9.33013 18.9803 9.10436 19.4968 9.0998C19.9016 9.09622 20.3064 9.10455 20.7111 9.09957C21.1309 9.0944 21.4048 9.25676 21.4895 9.6881Z" fill="black"/>
<path d="M1.06946 9.10766C1.59422 9.1032 2.08206 9.09573 2.5696 9.1038C2.98481 9.11066 3.25909 9.32551 3.30748 9.65812C3.36416 10.0476 3.1613 10.3574 2.72566 10.4279C2.17666 10.5167 1.61385 10.5119 1.06358 10.4279C0.735943 10.3779 0.519126 10.1713 0.492479 9.84089C0.462218 9.46568 0.644445 9.22107 1.06946 9.10766Z" fill="black"/>
<path d="M10.4841 7.65638C10.2313 7.37472 10.2061 7.09138 10.3835 6.80368C10.5686 6.50343 10.8847 6.45106 11.2189 6.47821C13.0078 6.62355 14.3617 7.87118 14.5265 9.51971C14.5925 10.1801 14.0659 10.6282 13.5006 10.3903C13.2212 10.2727 13.086 10.0652 13.0546 9.78138C12.9259 8.61534 12.3307 8.03632 11.0915 7.86094C10.8849 7.83171 10.6733 7.81793 10.4841 7.65638Z" fill="black"/>
</svg>
