<svg width="24" height="24" viewBox="0 0 24 24" fill="none" xmlns="http://www.w3.org/2000/svg">
<path d="M20.6032 23.2667C20.2721 23.7777 19.8197 23.989 19.2424 23.9882C18.1762 23.9868 17.11 23.9978 16.044 23.9845C15.1889 23.9738 15.1249 23.8232 15.172 23.0392C15.2381 21.9391 15.2142 20.8331 15.1954 19.7301C15.1884 19.3216 15.3003 19.032 15.66 18.7717C16.4006 18.2358 16.7873 17.5056 16.8016 16.6188C16.8102 16.0776 16.7712 15.5334 16.8169 14.9953C16.98 13.0728 16.2285 11.6274 14.2789 10.7268C14.9337 9.85353 15.3032 8.92518 15.2251 7.86459C15.217 7.75565 15.5387 7.52498 15.712 7.52079C16.955 7.49079 18.2035 7.44511 19.4417 7.52333C20.4694 7.58827 21.2528 8.12636 21.554 9.08673C22.3725 11.697 23.1591 14.3161 23.9453 16.9351C24.139 17.5804 23.8125 17.9703 23.0601 17.9965C22.352 18.0212 21.6421 18.0018 20.8194 18.0018C20.8194 18.3001 20.8194 18.5602 20.8194 18.8203C20.8193 19.9863 20.832 21.1526 20.8105 22.3182C20.8049 22.6209 20.6925 22.9219 20.6032 23.2667Z" fill="black" fill-opacity="0.22"/>
<path d="M7.03341 18.9732C7.12508 19.1757 7.20799 19.3468 7.21802 19.5215C7.29281 20.824 7.38097 22.1272 7.38616 23.4304C7.38688 23.6127 6.96478 23.9453 6.7269 23.9548C5.44137 24.0061 4.14976 24.0218 2.86524 23.9594C2.11568 23.923 1.61588 23.2052 1.61236 22.3481C1.60535 20.6408 1.61016 18.9336 1.61009 17.2263C1.61008 17.02 1.61009 16.8137 1.61009 16.5475C0.151197 16.3399 -0.0492616 15.3913 0.0086528 14.2426C0.0818656 12.7905 -0.00593958 11.3264 0.150888 9.88426C0.295977 8.55002 1.71161 7.51899 3.14534 7.50525C4.25571 7.49461 5.3666 7.51751 6.47665 7.49657C6.99074 7.48688 7.17763 7.62099 7.25318 8.1532C7.37545 9.01456 7.68789 9.85221 7.94832 10.8032C7.70006 10.9711 7.21984 11.2108 6.85912 11.5592C6.25302 12.1447 5.74204 12.8177 5.71486 13.6819C5.68229 14.7172 5.65289 15.755 5.69409 16.7892C5.73009 17.693 6.21796 18.4053 7.03341 18.9732Z" fill="black" fill-opacity="0.22"/>
<path d="M8.87524 22.6516C8.8682 21.2655 8.85442 19.9328 8.87269 18.6005C8.8779 18.2209 8.79995 18.0033 8.35619 17.8883C7.61887 17.6971 7.30828 17.2689 7.29502 16.5577C7.28143 15.8292 7.28802 15.1003 7.29215 14.3716C7.29939 13.0943 7.98076 12.1976 9.32052 12.0789C10.6558 11.9606 12.0261 11.9935 13.3614 12.1298C14.5026 12.2462 15.182 13.1628 15.1934 14.2552C15.1998 14.8589 15.1941 15.4628 15.1941 16.0666C15.194 17.3905 15.029 17.607 13.6089 18.0721C13.6089 19.4165 13.6092 20.7863 13.6088 22.1561C13.6085 23.4895 13.1067 23.9653 11.7009 23.966C11.3233 23.9662 10.9458 23.9679 10.5682 23.9656C9.59204 23.9596 9.11312 23.6011 8.87524 22.6516Z" fill="black"/>
<path d="M2.70989 5.21609C1.75803 4.3226 1.35519 3.3043 1.77945 2.1223C2.18275 0.998662 3.03469 0.294326 4.30011 0.0505976C5.4688 -0.1745 6.86963 0.4113 7.55421 1.43501C8.21388 2.42145 8.15692 3.85421 7.42327 4.7289C6.18029 6.21084 4.31249 6.41789 2.70989 5.21609Z" fill="black" fill-opacity="0.22"/>
<path d="M15.4403 5.15257C14.5283 4.25576 14.1608 3.24886 14.5881 2.0957C15.0041 0.973015 15.8652 0.280765 17.1281 0.0434002C18.2834 -0.173731 19.7144 0.44335 20.3692 1.45873C21.048 2.51135 20.9387 3.96885 20.1154 4.84398C18.7874 6.25556 16.9578 6.38986 15.4403 5.15257Z" fill="black" fill-opacity="0.22"/>
<path d="M12.0524 6.17118C13.2892 6.71081 13.8373 7.72204 13.522 8.80924C13.2224 9.84247 12.2063 10.5429 11.1058 10.4748C9.92295 10.4016 9.00806 9.56178 8.88746 8.43848C8.71586 6.84008 10.269 5.7016 12.0524 6.17118Z" fill="black"/>
</svg>
