<svg width="16" height="16" viewBox="0 0 16 16" fill="none" xmlns="http://www.w3.org/2000/svg">
<path d="M7.99992 1.33334C4.31805 1.33334 1.33325 4.31801 1.33325 8.00001C1.33325 11.682 4.31805 14.6667 7.99992 14.6667C11.6819 14.6667 14.6666 11.682 14.6666 8.00001C14.6666 4.31801 11.6819 1.33334 7.99992 1.33334ZM7.99992 2.66668C10.9453 2.66668 13.3333 5.05468 13.3333 8.00001C13.3333 10.9453 10.9453 13.3333 7.99992 13.3333C5.05439 13.3333 2.66659 10.9453 2.66659 8.00001C2.66659 5.05468 5.05439 2.66668 7.99992 2.66668Z" fill="#B99855"/>
<path fill-rule="evenodd" clip-rule="evenodd" d="M8.66675 5.33332C8.66675 4.96513 8.36827 4.66666 8.00008 4.66666C7.63189 4.66666 7.33341 4.96513 7.33341 5.33332V7.33332H5.33341C4.96522 7.33332 4.66675 7.6318 4.66675 7.99999C4.66675 8.36818 4.96522 8.66666 5.33341 8.66666H7.33341V10.6667C7.33341 11.0348 7.63189 11.3333 8.00008 11.3333C8.36827 11.3333 8.66675 11.0348 8.66675 10.6667V8.66666H10.6667C11.0349 8.66666 11.3334 8.36818 11.3334 7.99999C11.3334 7.6318 11.0349 7.33332 10.6667 7.33332H8.66675V5.33332Z" fill="#B99855"/>
</svg>
