<svg width="24" height="24" viewBox="0 0 24 24" fill="none" xmlns="http://www.w3.org/2000/svg">
<path fill-rule="evenodd" clip-rule="evenodd" d="M12 20C7.58172 20 4 16.4183 4 12C4 7.58172 7.58172 4 12 4C16.4183 4 20 7.58172 20 12C20 16.4183 16.4183 20 12 20ZM2 12C2 17.5228 6.47715 22 12 22C17.5228 22 22 17.5228 22 12C22 6.47715 17.5228 2 12 2C6.47715 2 2 6.47715 2 12Z" fill="#E2E2E2"/>
<path fill-rule="evenodd" clip-rule="evenodd" d="M8 13C7.44772 13 7 12.5523 7 12C7 11.4477 7.44772 11 8 11H13.5859L10.5858 7.99991L12 6.58569L16.7071 11.2928C16.8224 11.4081 16.9037 11.5446 16.9509 11.6897C16.9742 11.761 16.9896 11.8358 16.9963 11.9132C17.0007 11.9637 17.0012 12.0145 16.9979 12.065C16.9905 12.1812 16.9632 12.292 16.9194 12.394C16.8818 12.4818 16.831 12.5653 16.7671 12.6415C16.746 12.6667 16.7237 12.6908 16.7003 12.7138L12 17.4141L10.5858 15.9999L13.5857 13H8Z" fill="#C1C1C1"/>
</svg>
