<svg width="24" height="24" viewBox="0 0 24 24" fill="none" xmlns="http://www.w3.org/2000/svg">
<path d="M14.0302 8.52448H11.9995C11.846 8.52448 11.7218 8.6391 11.7218 8.7805V12.6235C11.7218 12.7649 11.8462 12.8795 11.9995 12.8795H14.0302C14.1837 12.8795 14.3079 12.7649 14.3079 12.6235V8.7805C14.3079 8.6391 14.1834 8.52448 14.0302 8.52448ZM13.7525 12.3675H12.2774V9.03652H13.7525V12.3675ZM12.9381 17.0439C12.3099 17.0439 11.7988 17.5136 11.7988 18.091C11.7988 18.6684 12.3099 19.1381 12.9381 19.1381C13.5662 19.1381 14.0773 18.6684 14.0773 18.091C14.0773 17.5136 13.5662 17.0439 12.9381 17.0439ZM12.9381 18.6263C12.6161 18.6263 12.3544 18.3863 12.3544 18.091C12.3544 17.7957 12.6164 17.5559 12.9381 17.5559C13.2598 17.5559 13.5217 17.7959 13.5217 18.091C13.5217 18.3861 13.2598 18.6263 12.9381 18.6263ZM12.1535 13.8686C12 13.8686 11.8758 13.754 11.8758 13.6126C11.8758 13.4712 12.0003 13.3565 12.1535 13.3565H13.7226C13.8761 13.3565 14.0003 13.4712 14.0003 13.6126C14.0003 13.754 13.8759 13.8686 13.7226 13.8686H12.1535ZM19.6762 8.48644H17.6455C17.492 8.48644 17.3678 8.60106 17.3678 8.74246V12.5987C17.3678 12.7401 17.4922 12.8548 17.6455 12.8548H19.6762C19.8297 12.8548 19.9538 12.7401 19.9538 12.5987V8.74246C19.9538 8.60106 19.8294 8.48644 19.6762 8.48644ZM19.3985 12.3427H17.9234V8.99848H19.3985V12.3427ZM18.5841 17.0354C17.9559 17.0354 17.4448 17.5064 17.4448 18.0852C17.4448 18.6641 17.9559 19.1351 18.5841 19.1351C19.2122 19.1351 19.7233 18.6641 19.7233 18.0852C19.7233 17.5064 19.2122 17.0354 18.5841 17.0354ZM18.5841 18.6233C18.2621 18.6233 18.0004 18.3821 18.0004 18.0852C18.0004 17.7884 18.2624 17.5472 18.5841 17.5472C18.9057 17.5472 19.1677 17.7884 19.1677 18.0852C19.1677 18.3821 18.9057 18.6233 18.5841 18.6233ZM17.7995 13.8471C17.646 13.8471 17.5218 13.7324 17.5218 13.591C17.5218 13.4496 17.6463 13.335 17.7995 13.335H19.3686C19.5221 13.335 19.6463 13.4496 19.6463 13.591C19.6463 13.7324 19.5219 13.8471 19.3686 13.8471H17.7995ZM6.13789 12.586L8.13061 12.9376C8.14816 12.9406 8.16571 12.9421 8.18327 12.9421C8.31294 12.9421 8.42898 12.858 8.45544 12.7364L9.26044 9.03952C9.27511 8.9727 9.25991 8.90313 9.21853 8.84632C9.17714 8.78976 9.11296 8.75047 9.04013 8.73771L7.04741 8.38609C6.89757 8.35981 6.75271 8.44941 6.72285 8.58705L5.91785 12.2839C5.90318 12.3507 5.91837 12.4203 5.95976 12.4771C6.00115 12.5337 6.06533 12.573 6.13816 12.5857L6.13789 12.586ZM7.21323 8.93692L8.66029 9.19243L7.96479 12.3873L6.51773 12.1318L7.21323 8.93692ZM6.18374 16.7446C5.5684 16.636 4.9693 17.0006 4.84801 17.5577C4.78959 17.8252 4.84906 18.098 5.01514 18.3257C5.18515 18.5587 5.44528 18.7164 5.74784 18.7697C5.82093 18.7827 5.89401 18.7887 5.96579 18.7887C6.49887 18.7887 6.97669 18.4471 7.08356 17.9566C7.14172 17.6891 7.08252 17.4163 6.91643 17.1886C6.74642 16.9556 6.4863 16.7981 6.18374 16.7446ZM6.53895 17.856C6.47739 18.1386 6.16933 18.3227 5.85236 18.2669C5.6965 18.2394 5.5629 18.1588 5.47619 18.0402C5.39341 17.9268 5.36381 17.7912 5.39288 17.6585C5.44685 17.41 5.69152 17.2376 5.96526 17.2376C6.00272 17.2376 6.04097 17.2409 6.07922 17.2476C6.23508 17.2751 6.36868 17.3557 6.45539 17.4744C6.53817 17.5877 6.56803 17.7234 6.53895 17.856ZM7.67428 13.8406C7.65699 13.8406 7.63944 13.839 7.62163 13.836L6.08184 13.5643C5.93121 13.5377 5.83245 13.4036 5.86127 13.2647C5.89008 13.1258 6.03547 13.0347 6.18636 13.0615L7.72615 13.3333C7.87677 13.3598 7.97553 13.4939 7.94672 13.6328C7.92131 13.7555 7.80474 13.8406 7.67428 13.8406ZM21.7223 19.4885H21.1539V7.55146C21.1539 7.41007 21.0294 7.29545 20.8762 7.29545H16.261C16.1075 7.29545 15.9833 7.41007 15.9833 7.55146V19.4882H15.5081V7.59376C15.5081 7.45236 15.3837 7.33774 15.2305 7.33774H10.6153C10.4618 7.33774 10.3376 7.45236 10.3376 7.59376V7.78121L5.9375 7.00464C5.78766 6.97811 5.64279 7.06796 5.61293 7.2056L3.068 18.8943C3.05333 18.9612 3.06853 19.0307 3.10992 19.0875C3.15131 19.1441 3.21549 19.1834 3.28831 19.1962L4.94179 19.488H2.27768C2.12417 19.488 2 19.6026 2 19.744C2 19.8854 2.12443 20 2.27768 20H7.86918C7.86918 20 7.86918 20 7.86944 20H21.7223C21.8758 20 22 19.8854 22 19.744C22 19.6026 21.8756 19.488 21.7223 19.488V19.4885ZM6.10305 7.55547L10.0864 8.25846L7.6507 19.4452L3.66737 18.7422L6.10305 7.55547ZM10.3373 9.70822V19.4885H8.20789L10.3373 9.70822ZM10.893 19.4885V7.84978H14.9525V19.4882L10.893 19.4885ZM16.5387 19.4885V7.80748H20.5983V19.4882L16.5387 19.4885Z" fill="black"/>
</svg>
