<svg width="24" height="25" viewBox="0 0 24 25" fill="none" xmlns="http://www.w3.org/2000/svg">
<path fill-rule="evenodd" clip-rule="evenodd" d="M2 6.02988C2 3.82074 3.79086 2.02988 6 2.02988H18C20.2091 2.02988 22 3.82074 22 6.02988V18.0299C22 20.239 20.2091 22.0299 18 22.0299H6C3.79086 22.0299 2 20.239 2 18.0299V6.02988ZM6 4.02988C4.89543 4.02988 4 4.92531 4 6.02988V18.0299C4 19.1344 4.89543 20.0299 6 20.0299H18C19.1046 20.0299 20 19.1344 20 18.0299V6.02988C20 4.92531 19.1046 4.02988 18 4.02988H6Z" fill="#A38664"/>
<path fill-rule="evenodd" clip-rule="evenodd" d="M10 4.02988H8V8.02988H4V10.0299H8V14.0299H4V16.0299H8V20.0299H10V16.0299H14V20.0299H16V16.0299H20V14.0299H16V10.0299H20V8.02988H16V4.02988H14V8.02988H10V4.02988ZM14 14.0299V10.0299H10V14.0299H14Z" fill="#A38664"/>
</svg>
