<svg width="34" height="35" viewBox="0 0 34 35" fill="none" xmlns="http://www.w3.org/2000/svg">
<path d="M10.9202 13.4524C12.0394 13.5518 12.3115 13.8131 12.2977 14.9128C12.2925 15.3297 12.4466 15.5169 12.7928 15.706C15.3429 17.0989 16.7534 19.854 16.3997 22.6908C16.0337 25.626 14.0421 27.8981 11.1981 28.6247C7.88004 29.4726 4.42393 27.6685 3.17371 24.4362C1.90499 21.156 3.21381 17.428 6.24132 15.7721C6.6425 15.5526 6.86428 15.3601 6.84359 14.8415C6.80361 13.8388 7.12275 13.5498 8.27106 13.4677C9.23383 13.4633 10.077 13.4579 10.9202 13.4524ZM13.7419 22.0439C13.6942 19.8233 12.4528 18.2176 10.4192 17.7461C8.64205 17.334 6.66835 18.2795 5.85879 19.9676C5.08137 21.5887 5.23645 23.1464 6.37026 24.5349C7.52369 25.9475 9.0417 26.3705 10.7734 25.9012C12.3873 25.4639 13.5163 23.9923 13.7419 22.0439Z" fill="white"/>
<path d="M25.4472 13.4524C26.5754 13.5517 26.8497 13.813 26.8359 14.9123C26.8306 15.3288 26.9855 15.5162 27.3346 15.7053C29.9052 17.0978 31.327 19.8515 30.9709 22.6877C30.5998 25.6442 28.5678 27.9231 25.6624 28.6414C22.8144 29.3455 19.7065 28.0677 18.2209 25.5427C18.0716 25.2891 18.0313 24.8777 18.1173 24.5933C18.6667 22.7758 18.664 20.9782 18.1259 19.1582C18.0364 18.8555 18.0921 18.4259 18.2473 18.1488C18.8402 17.0898 19.7094 16.2782 20.7953 15.7449C21.2199 15.5364 21.3432 15.2984 21.3331 14.8414C21.3111 13.8377 21.6193 13.5497 22.7767 13.4676C23.7473 13.4633 24.5972 13.4579 25.4472 13.4524ZM21.3513 25.0577C22.1903 25.7449 23.1391 26.1182 24.2342 26.0602C25.9416 25.9697 27.1949 25.1365 27.9025 23.6009C28.602 22.0831 28.4252 20.5894 27.3731 19.2729C26.3107 17.9437 24.8967 17.4157 23.2313 17.7623C21.6255 18.0965 20.5336 19.0983 20.0632 20.6709C19.5641 22.3393 20.0288 23.7894 21.3513 25.0577Z" fill="white"/>
<path d="M13.2673 7.29988C13.513 6.4775 13.9498 6.08025 14.5764 6.18242C15.1344 6.2734 15.5297 6.68863 15.6209 7.456C15.6983 8.10779 15.5924 8.70695 15.1445 9.08986C14.721 9.45179 14.2559 9.53608 13.8066 9.16039C13.3016 8.73813 13.1143 8.12901 13.2673 7.29988Z" fill="white"/>
<path d="M18.8386 6.16666C19.7592 6.25529 20.36 6.63993 20.4795 7.52672C20.5778 8.25593 20.3504 8.86822 19.6422 9.2088C19.0303 9.50314 18.4186 9.48157 17.8698 9.03681C17.3325 8.60131 17.1596 8.04674 17.3215 7.38517C17.5051 6.63508 18.0278 6.27585 18.8386 6.16666Z" fill="white"/>
<path d="M12.03 8.99167C12.5703 9.68659 12.5201 10.2801 11.9329 10.692C11.3743 11.0838 10.5132 11.1345 9.88571 10.8124C9.13129 10.4253 8.93731 9.62826 9.46811 9.09661C10.09 8.47372 11.0111 8.42247 12.03 8.99167Z" fill="white"/>
<path d="M21.3107 9.8097C21.5138 8.88903 22.0809 8.45897 22.8026 8.63322C23.4465 8.7887 23.7835 9.25819 23.7346 9.93159C23.6909 10.5341 23.2506 10.9639 22.6206 11.0192C22.0399 11.0701 21.5287 10.6917 21.3668 10.09C21.3459 10.0122 21.3293 9.9333 21.3107 9.8097Z" fill="white"/>
<path d="M10.787 13.383C9.99959 13.4513 9.20959 13.4577 8.3587 13.4498C8.34586 12.492 8.79173 11.8735 9.45108 11.8356C10.1597 11.7949 10.6243 12.3126 10.787 13.383Z" fill="white"/>
<path d="M25.3585 13.383C24.5711 13.4513 23.7811 13.4577 22.9302 13.4498C22.9174 12.492 23.3633 11.8735 24.0226 11.8356C24.7311 11.795 25.1957 12.3126 25.3585 13.383Z" fill="white"/>
</svg>
