<svg width="24" height="24" viewBox="0 0 24 24" fill="none" xmlns="http://www.w3.org/2000/svg">
<path d="M10 6C9.448 6 9 6.448 9 7C9 7.552 9.448 8 10 8H21C21.552 8 22 7.552 22 7C22 6.448 21.552 6 21 6H10ZM10 11C9.448 11 9 11.448 9 12C9 12.552 9.448 13 10 13H21C21.552 13 22 12.552 22 12C22 11.448 21.552 11 21 11H10ZM10 16C9.448 16 9 16.448 9 17C9 17.552 9.448 18 10 18H21C21.552 18 22 17.552 22 17C22 16.448 21.552 16 21 16H10Z" fill="black" fill-opacity="0.4"/>
<path d="M5.99313 5C5.73831 5 5.47253 5.08594 5.27743 5.28078L4.00229 6.56171L3.72257 6.27996C3.33336 5.89028 2.68037 5.89028 2.29116 6.27996C1.90295 6.67063 1.90295 7.32608 2.29116 7.71676L3.28658 8.71594C3.6758 9.10562 4.32878 9.10562 4.71799 8.71594L6.70884 6.71758C7.09705 6.3269 7.09705 5.67145 6.70884 5.28078C6.51374 5.08594 6.24796 5 5.99313 5ZM5.99313 9.9959C5.73831 9.9959 5.47253 10.0818 5.27743 10.2767L4.00229 11.5576L3.72257 11.2759C3.33336 10.8862 2.68037 10.8862 2.29116 11.2759C1.90295 11.6665 1.90295 12.322 2.29116 12.7127L3.28658 13.7118C3.6758 14.1015 4.32878 14.1015 4.71799 13.7118L6.70884 11.7135C7.09705 11.3228 7.09705 10.6674 6.70884 10.2767C6.51374 10.0818 6.24796 9.9959 5.99313 9.9959ZM5.99313 14.9918C5.73831 14.9918 5.47253 15.0777 5.27743 15.2726L4.00229 16.5535L3.72257 16.2718C3.33336 15.8821 2.68037 15.8821 2.29116 16.2718C1.90295 16.6624 1.90295 17.3179 2.29116 17.7086L3.28658 18.7077C3.6758 19.0974 4.32878 19.0974 4.71799 18.7077L6.70884 16.7094C7.09705 16.3187 7.09705 15.6633 6.70884 15.2726C6.51374 15.0777 6.24796 14.9918 5.99313 14.9918Z" fill="black"/>
</svg>
