<svg width="24" height="19" viewBox="0 0 24 19" fill="none" xmlns="http://www.w3.org/2000/svg">
<g clip-path="url(#clip0_378_25627)">
<path d="M6.27328 14.522C7.37288 13.4527 8.68055 12.9835 10.1768 12.9817C11.3091 12.9804 12.4414 12.9814 13.5737 12.9814C13.7357 12.9814 13.8978 12.9814 14.069 12.9814C13.5598 15.9392 13.8816 16.7317 15.6993 18.8304C15.5281 18.8429 15.3876 18.862 15.247 18.8621C12.1665 18.8637 9.08604 18.864 6.00556 18.8628C5.11364 18.8624 4.75921 18.3918 4.85504 17.5038C4.97944 16.3512 5.42659 15.3703 6.27328 14.522Z" fill="#999999"/>
<path d="M9.9773 4.68186C12.611 3.21913 15.8419 4.81058 15.8848 7.97445C15.9122 9.98993 14.3686 11.5942 12.3268 11.7833C10.3779 11.9638 8.55497 10.6185 8.23232 8.66184C7.96194 7.0221 8.53213 5.66906 9.9773 4.68186Z" fill="#999999"/>
<path d="M15.5869 16.7196C15.5113 16.5706 15.4618 16.4481 15.3921 16.3379C15.147 15.9503 15.2382 15.7088 15.6646 15.5025C16.1996 15.2435 16.2066 14.1615 15.673 13.9148C15.2027 13.6975 15.1694 13.4287 15.4112 13.0389C15.5236 12.8577 15.6129 12.6623 15.7293 12.4837C16.1574 11.8261 16.16 11.8278 16.8748 12.1511C17.2596 12.3251 18.1439 11.779 18.1645 11.3545C18.1983 10.6571 18.213 10.6406 18.9307 10.6033C19.1133 10.5939 19.2972 10.5936 19.4799 10.602C20.265 10.6383 20.2561 10.6467 20.3135 11.3938C20.3255 11.5503 20.4545 11.7395 20.5876 11.838C21.0125 12.1524 21.4542 12.4441 21.9903 11.9909C22.0568 11.9347 22.3404 11.9958 22.3995 12.0834C22.6827 12.5023 22.9451 12.9391 23.1609 13.3942C23.2054 13.488 23.0463 13.7115 22.9331 13.8316C22.7925 13.9809 22.4888 14.0615 22.4562 14.2133C22.3823 14.5572 22.3804 14.9372 22.4548 15.2805C22.486 15.4247 22.7746 15.5333 22.9637 15.622C23.2076 15.7363 23.2928 15.8764 23.1511 16.1206C22.9302 16.5014 22.7232 16.8903 22.494 17.2661C22.3276 17.5389 22.1154 17.5581 21.8251 17.394C21.1678 17.0225 20.3011 17.5245 20.3095 18.272C20.3129 18.5775 20.2194 18.7372 19.9076 18.7568C19.6102 18.7755 19.3104 18.826 19.0159 18.8051C18.2336 18.7494 18.2399 18.7365 18.1582 17.9893C18.1458 17.8765 18.0835 17.7345 17.9956 17.6707C17.7698 17.5069 17.5278 17.3522 17.2695 17.2489C17.1428 17.1982 16.9469 17.231 16.8142 17.2924C16.1799 17.5861 16.1634 17.589 15.7614 17.0018C15.7058 16.9205 15.6561 16.8352 15.5869 16.7196ZM18.6201 15.7938C19.3242 16.0524 19.8835 15.9345 20.2338 15.4536C20.5245 15.0545 20.5045 14.3623 20.1928 13.9818C19.8467 13.5592 19.3766 13.4806 18.8836 13.5905C18.4494 13.6873 18.1448 13.9897 18.0524 14.4211C17.9388 14.9519 18.0454 15.4324 18.6201 15.7938Z" fill="#292D32"/>
<path d="M3.87502 0.151449C5.33391 -0.310801 6.81362 0.364566 7.40892 1.4493C8.01249 2.54909 7.96779 3.65506 7.24393 4.69307C6.60505 5.60922 5.33951 6.06209 4.25023 5.83001C2.96492 5.55616 2.14511 4.81748 1.89129 3.53842C1.58571 1.99852 2.35994 0.679991 3.87502 0.151449Z" fill="#999999"/>
<path d="M17.8486 5.57524C16.6704 4.96517 16.1716 3.97406 16.2455 2.76729C16.3223 1.51352 16.9672 0.566633 18.2493 0.16984C19.5111 -0.220652 20.6135 0.0611449 21.5106 1.02629C22.2524 1.8244 22.4238 3.15316 21.9557 4.15135C21.388 5.36165 20.391 5.89618 19.0825 5.87826C18.6812 5.87277 18.2823 5.69243 17.8486 5.57524Z" fill="#999999"/>
<path d="M1.93607 7.39272C2.48781 7.27599 3.00286 7.10514 3.52273 7.08955C4.45121 7.06171 5.38323 7.11496 6.31251 7.15966C6.75958 7.18117 6.96025 7.347 6.93002 7.89209C6.87294 8.9215 7.20238 9.89011 7.79827 10.7553C7.87084 10.8607 7.94332 10.9661 8.07518 11.1577C7.84752 11.1809 7.69653 11.2094 7.54551 11.2096C5.36191 11.2124 3.1783 11.2149 0.994707 11.2095C0.186517 11.2075 -0.109504 10.8288 0.0354096 10.0437C0.249556 8.88356 0.818367 7.97192 1.93607 7.39272Z" fill="#999999"/>
<path d="M21.8203 10.0974C20.1264 9.24698 18.4461 9.22792 16.6731 10.0536C16.7362 9.82462 16.784 9.69335 16.8076 9.558C16.9107 8.96634 17.057 8.37594 17.087 7.78019C17.1058 7.40739 17.2254 7.2258 17.5737 7.1802C17.9347 7.13293 18.2992 7.07594 18.6615 7.0803C19.5918 7.09148 20.5393 7.03375 21.4478 7.18722C22.9429 7.43982 24.0812 8.94958 23.9954 10.4455C23.9814 10.6893 23.762 10.9785 23.5506 11.1292C23.4532 11.1986 23.1269 11.0137 22.9384 10.893C22.5638 10.6529 22.2127 10.3773 21.8203 10.0974Z" fill="#999999"/>
</g>
<defs>
<clipPath id="clip0_378_25627">
<rect width="24" height="19" fill="white"/>
</clipPath>
</defs>
</svg>
