<svg width="24" height="25" viewBox="0 0 24 25" fill="none" xmlns="http://www.w3.org/2000/svg">
<path fill-rule="evenodd" clip-rule="evenodd" d="M9 3.52991C7.89543 3.52991 7 4.42534 7 5.52991V7.52991H9V5.52991H15V7.52991H17V5.52991C17 4.42534 16.1046 3.52991 15 3.52991H9ZM9 19.5299V13.5299H15V19.5299H9ZM7 13.5299C6.44772 13.5299 6 13.0822 6 12.5299C6 11.9776 6.44772 11.5299 7 11.5299H17C17.5523 11.5299 18 11.9776 18 12.5299C18 13.0822 17.5523 13.5299 17 13.5299V19.5299C17 20.6344 16.1046 21.5299 15 21.5299H9C7.89543 21.5299 7 20.6344 7 19.5299V13.5299Z" fill="#A38664"/>
<path fill-rule="evenodd" clip-rule="evenodd" d="M5 9.52991C4.44772 9.52991 4 9.97762 4 10.5299V15.5299C4 16.0822 4.44772 16.5299 5 16.5299H7V18.5299H5C3.34315 18.5299 2 17.1867 2 15.5299V10.5299C2 8.87305 3.34315 7.52991 5 7.52991H19C20.6569 7.52991 22 8.87305 22 10.5299V15.5299C22 17.1867 20.6569 18.5299 19 18.5299H17V16.5299H19C19.5523 16.5299 20 16.0822 20 15.5299V10.5299C20 9.97762 19.5523 9.52991 19 9.52991H5Z" fill="#EBD2B6"/>
</svg>
