<svg width="25" height="25" viewBox="0 0 25 25" fill="none" xmlns="http://www.w3.org/2000/svg">
<path d="M17.4975 5.96629C14.843 3.4699 11.8125 2.7442 8.49034 4.19555C5.377 5.55567 3.63616 8.14142 3.43018 11.6162C3.23432 14.9201 4.60872 17.5749 7.31785 19.3495C10.4956 21.431 14.125 21.1026 17.0614 18.6165C17.4405 18.2956 17.8419 17.9203 18.2918 17.7913C19.0213 17.5821 19.7142 17.7563 20.1333 18.5396C20.5395 19.2988 20.4818 19.9593 19.8211 20.6378C18.1523 22.3515 16.1574 23.491 13.8435 23.8927C9.79301 24.5959 6.22598 23.4929 3.38355 20.3849C0.210566 16.9154 -0.713239 12.7516 0.776767 8.26211C2.27138 3.75876 5.42333 0.983514 10.0355 0.250646C13.7526 -0.339999 16.997 0.766488 19.7385 3.5856C19.0118 4.44045 18.2546 5.20337 17.4975 5.96629Z" fill="#A6ADBA"/>
<path d="M17.4668 6.01421C18.2546 5.20337 19.0117 4.44045 19.7857 3.62326C20.4705 2.89084 21.137 2.2112 21.8069 1.53509C22.2121 1.12608 22.6261 0.763749 23.2602 1.04141C23.885 1.31498 24.084 1.82069 24.082 2.47762C24.0755 4.58957 24.0894 6.70162 24.0755 8.8135C24.0683 9.91729 23.6292 10.3644 22.5559 10.371C20.5472 10.3834 18.5384 10.3704 16.5297 10.377C15.8974 10.3791 15.391 10.1738 15.1371 9.53232C14.891 8.9105 15.1474 8.43167 15.5694 8.00046C16.1966 7.35951 16.8145 6.70872 17.4668 6.01421Z" fill="#203251"/>
</svg>
