<svg width="24" height="24" viewBox="0 0 24 24" fill="none" xmlns="http://www.w3.org/2000/svg">
<path fill-rule="evenodd" clip-rule="evenodd" d="M9 3C7.89543 3 7 3.89543 7 5V7H9V5H15V7H17V5C17 3.89543 16.1046 3 15 3H9ZM9 19V13H15V19H9ZM7 13C6.44772 13 6 12.5523 6 12C6 11.4477 6.44772 11 7 11H17C17.5523 11 18 11.4477 18 12C18 12.5523 17.5523 13 17 13V19C17 20.1046 16.1046 21 15 21H9C7.89543 21 7 20.1046 7 19V13Z" fill="#0D8F75"/>
<path fill-rule="evenodd" clip-rule="evenodd" d="M5 9C4.44772 9 4 9.44772 4 10V15C4 15.5523 4.44772 16 5 16H7V18H5C3.34315 18 2 16.6569 2 15V10C2 8.34315 3.34315 7 5 7H19C20.6569 7 22 8.34315 22 10V15C22 16.6569 20.6569 18 19 18H17V16H19C19.5523 16 20 15.5523 20 15V10C20 9.44772 19.5523 9 19 9H5Z" fill="#552E00"/>
</svg>
