<svg width="25" height="24" viewBox="0 0 25 24" fill="none" xmlns="http://www.w3.org/2000/svg">
<path d="M12.595 2C7.07217 2 2.59497 6.477 2.59497 12C2.59497 17.523 7.07217 22 12.595 22C18.118 22 22.595 17.523 22.595 12C22.595 6.477 18.118 2 12.595 2ZM12.595 4C17.013 4 20.595 7.582 20.595 12C20.595 16.418 17.013 20 12.595 20C8.17667 20 4.59497 16.418 4.59497 12C4.59497 7.582 8.17667 4 12.595 4Z" fill="white" fill-opacity="0.4"/>
<path fill-rule="evenodd" clip-rule="evenodd" d="M13.595 8C13.595 7.44772 13.1473 7 12.595 7C12.0427 7 11.595 7.44772 11.595 8V11H8.59497C8.04269 11 7.59497 11.4477 7.59497 12C7.59497 12.5523 8.04269 13 8.59497 13H11.595V16C11.595 16.5523 12.0427 17 12.595 17C13.1473 17 13.595 16.5523 13.595 16V13H16.595C17.1473 13 17.595 12.5523 17.595 12C17.595 11.4477 17.1473 11 16.595 11H13.595V8Z" fill="white"/>
</svg>
