<svg width="24" height="25" viewBox="0 0 24 25" fill="none" xmlns="http://www.w3.org/2000/svg">
<path d="M12 4.4978C9.03715 4.4978 6.54091 5.95179 4.49024 8.34179C3.78833 9.15879 3.17453 10.0318 2.67488 10.9038C2.37349 11.4318 2.18925 11.8398 2.08111 12.0918C1.97296 12.3428 1.97296 12.6528 2.08111 12.9038C2.18925 13.1558 2.37349 13.5638 2.67488 14.0918C3.17453 14.9638 3.78833 15.8368 4.49024 16.6538C6.54091 19.0438 9.03715 20.4978 12 20.4978C14.9629 20.4978 17.4591 19.0438 19.5098 16.6538C20.2107 15.8368 20.8255 14.9638 21.3241 14.0918C21.6265 13.5638 21.8108 13.1558 21.9189 12.9038C22.027 12.6528 22.027 12.3428 21.9189 12.0918C21.8108 11.8398 21.6265 11.4318 21.3241 10.9038C20.8255 10.0318 20.2107 9.15879 19.5098 8.34179C17.4591 5.95179 14.9629 4.4978 12 4.4978ZM12 6.4978C14.294 6.4978 16.3036 7.6688 18.0078 9.6538C18.6206 10.3678 19.1323 11.1358 19.5719 11.9038C19.7271 12.1748 19.7941 12.3148 19.8852 12.4978C19.7941 12.6808 19.7271 12.8208 19.5719 13.0918C19.1323 13.8598 18.6206 14.6278 18.0078 15.3418C16.3036 17.3268 14.294 18.4978 12 18.4978C9.70602 18.4978 7.69641 17.3268 5.99219 15.3418C5.3794 14.6278 4.86773 13.8598 4.42716 13.0918C4.27296 12.8208 4.20587 12.6808 4.11475 12.4978C4.20587 12.3148 4.27296 12.1748 4.42716 11.9038C4.86773 11.1358 5.3794 10.3678 5.99219 9.6538C7.69641 7.6688 9.70602 6.4978 12 6.4978Z" fill="black"/>
<path d="M12 8.5C9.791 8.5 8 10.291 8 12.5C8 14.709 9.791 16.5 12 16.5C14.209 16.5 16 14.709 16 12.5C16 11.948 15.552 11.5 15 11.5C14.448 11.5 14 11.948 14 12.5C14 13.605 13.104 14.5 12 14.5C10.895 14.5 10 13.605 10 12.5C10 11.395 10.895 10.5 12 10.5C12.245 10.5 12.496 10.541 12.719 10.625C13.235 10.82 13.805 10.548 14 10.031C14.195 9.515 13.923 8.945 13.406 8.75C12.958 8.581 12.487 8.5 12 8.5Z" fill="black" fill-opacity="0.4"/>
</svg>
