<svg width="22" height="19" viewBox="0 0 22 19" fill="none" xmlns="http://www.w3.org/2000/svg">
<g clip-path="url(#clip0_5091_8893)">
<mask id="mask0_5091_8893" style="mask-type:luminance" maskUnits="userSpaceOnUse" x="0" y="0" width="22" height="19">
<path d="M22 0H0V19H22V0Z" fill="white"/>
</mask>
<g mask="url(#mask0_5091_8893)">
<path fill-rule="evenodd" clip-rule="evenodd" d="M2 5.36218C2 2.87718 4.015 0.862183 6.5 0.862183C8.985 0.862183 11 2.87718 11 5.36218C11 7.84718 8.985 9.86218 6.5 9.86218C4.015 9.86218 2 7.84718 2 5.36218ZM9 5.36218C9 3.98118 7.881 2.86218 6.5 2.86218C5.119 2.86218 4 3.98118 4 5.36218C4 6.74318 5.119 7.86218 6.5 7.86218C7.881 7.86218 9 6.74318 9 5.36218Z" fill="#A38664"/>
<path fill-rule="evenodd" clip-rule="evenodd" d="M0 15.8623C0 13.8183 1.22801 11.9633 3.06201 11.2063C3.31801 11.1003 3.59199 11.1223 3.84399 11.2373C4.75999 11.6543 5.625 11.8623 6.5 11.8623C7.378 11.8623 8.24 11.6653 9.125 11.2683C9.381 11.1543 9.67999 11.1573 9.93799 11.2683C11.765 12.0563 13 13.8663 13 15.8623V17.8623C13 18.4143 12.552 18.8623 12 18.8623H1C0.448 18.8623 0 18.4143 0 17.8623V15.8623ZM6.5 13.8623C5.531 13.8623 4.39199 13.6103 3.44699 13.2523C2.65599 13.7153 2 14.6973 2 15.8623V16.8623H11V15.8623C11 14.7613 10.382 13.7993 9.479 13.2853C8.553 13.6273 7.461 13.8623 6.5 13.8623Z" fill="#A38664"/>
<path d="M17.9911 3.86441C17.857 3.85136 17.7207 3.89589 17.6253 3.99082L15.8827 5.74404C15.4841 6.14264 15.3289 6.79813 15.5025 7.37893C15.5802 7.63897 15.4883 7.94174 15.3338 8.09605L13.1265 10.2893C13.0422 10.3739 13 10.4936 13 10.6128V11.0627C13 12.0565 13.8057 12.8622 14.7996 12.8622H15.2494C15.3688 12.8622 15.4884 12.8199 15.5728 12.7358L17.7661 10.5282C17.9204 10.3739 18.243 10.2839 18.4832 10.3595C19.0384 10.535 19.7222 10.3667 20.1208 9.96805L21.8714 8.23687C21.9663 8.14149 22.0108 8.00518 21.9978 7.87111C21.7899 5.73864 20.1235 4.07225 17.9911 3.86441ZM18.1139 4.78353C19.6588 5.01837 20.8416 6.20607 21.0764 7.75099L19.4865 9.33415C19.3281 9.49251 19.0141 9.59598 18.7482 9.5105C18.1944 9.33235 17.529 9.50016 17.1336 9.89561L15.0751 11.9561L14.7996 11.9625C14.3026 11.9625 13.8998 11.5598 13.8998 11.0627L13.9033 10.7918L15.9665 8.7286C16.362 8.33315 16.5351 7.65157 16.3602 7.11035C16.2777 6.85526 16.3779 6.51875 16.5361 6.36084L18.1139 4.78353Z" fill="#EBD2B6"/>
</g>
</g>
<defs>
<clipPath id="clip0_5091_8893">
<rect width="22" height="19" fill="white"/>
</clipPath>
</defs>
</svg>
