<svg width="24" height="24" viewBox="0 0 24 24" fill="none" xmlns="http://www.w3.org/2000/svg">
<path d="M4.08702 9.6L5.33389 6.10357C5.78233 4.84286 7.00004 4 8.36358 4H14.9698C16.3006 4 17.5474 4.84286 17.9995 6.10357L19.2464 9.6C20.2927 10.1929 21 11.3 21 12.5714V19.1429C21 19.6179 20.6099 20 20.125 20C19.6401 20 19.25 19.6179 19.25 19.1429V17.1429H4.08337V19.1429C4.08337 19.6179 3.68962 20 3.20837 20C2.72712 20 2.33337 19.6179 2.33337 19.1429V12.5714C2.33337 11.3 3.03702 10.1929 4.08702 9.6ZM6.10317 9.14286H17.2302L16.3443 6.67143C16.1401 6.09643 15.5896 5.71429 14.9698 5.71429H8.36358C7.74379 5.71429 7.19327 6.09643 6.9891 6.67143L6.10317 9.14286ZM17.5 10.8571H5.83337C4.86723 10.8571 4.08337 11.625 4.08337 12.5714V15.4286H19.25V12.5714C19.25 11.625 18.4662 10.8571 17.5 10.8571Z" fill="black"/>
<ellipse cx="16.7222" cy="13.5237" rx="1.16667" ry="1.14286" fill="#999999"/>
<ellipse cx="6.61112" cy="13.5237" rx="1.16667" ry="1.14286" fill="#999999"/>
</svg>
