<svg width="20" height="24" viewBox="0 0 20 24" fill="none" xmlns="http://www.w3.org/2000/svg">
<mask id="path-1-inside-1_1304_39581" fill="white">
<path d="M19.9877 15.1516C19.9979 15.4321 19.9436 15.6487 19.6286 15.6706C19.3858 15.6874 19.2515 15.4987 19.2501 15.1621C19.2485 14.7872 19.2367 14.4117 19.2551 14.0376C19.2646 13.8424 19.1849 13.7405 19.0223 13.6439C17.5554 12.7723 16.0914 11.896 14.6309 11.0143C14.4706 10.9175 14.3506 10.9234 14.1936 11.0181C12.7325 11.8988 11.2685 12.7751 9.80107 13.6459C9.62803 13.7486 9.54914 13.8561 9.55145 14.065C9.56421 15.2208 9.55204 16.3768 9.55921 17.5327C9.56638 18.6904 10.0145 19.6526 10.9384 20.4056C12.0334 21.2983 13.1196 22.2011 14.2102 23.0988C14.2751 23.1522 14.3448 23.2002 14.4278 23.2622C15.6825 22.2206 16.9532 21.2058 18.1734 20.1374C18.8968 19.504 19.2351 18.6608 19.2481 17.7087C19.2513 17.4692 19.2392 17.2291 19.2537 16.9904C19.2673 16.7658 19.388 16.6102 19.6402 16.6202C19.8748 16.6296 19.973 16.7805 19.9868 16.9954C20.0888 18.5872 19.6082 19.9439 18.3061 20.9906C17.18 21.8958 16.0738 22.8242 14.9573 23.7407C14.5383 24.0847 14.2948 24.0859 13.8803 23.7476C13.3206 23.2909 12.7584 22.8368 12.2087 22.3691C12.0278 22.2151 11.8461 22.1476 11.6016 22.1485C9.45655 22.1571 7.31144 22.1537 5.16635 22.153C5.05884 22.1529 4.92282 22.1832 4.8502 22.1325C4.72675 22.0462 4.56231 21.9045 4.56557 21.79C4.56886 21.6746 4.74163 21.5457 4.86701 21.4589C4.93209 21.4139 5.05524 21.4454 5.15216 21.4454C6.99543 21.445 8.8387 21.4451 10.682 21.4451C10.7847 21.4451 10.8875 21.4451 11.0724 21.4451C10.8266 21.2399 10.6465 21.0834 10.4598 20.9347C9.73099 20.3538 9.23268 19.6232 8.99794 18.7427C8.92721 18.4774 8.80572 18.4378 8.55918 18.4392C6.87766 18.4487 5.19605 18.4443 3.51447 18.4438C3.4068 18.4438 3.26987 18.4778 3.19797 18.4274C3.07423 18.3407 2.91051 18.1982 2.91342 18.0826C2.91633 17.9673 3.09158 17.8417 3.21476 17.7501C3.26944 17.7095 3.38186 17.7404 3.46807 17.7404C5.13887 17.7402 6.80967 17.7402 8.48047 17.7402C8.58614 17.7402 8.69181 17.7402 8.81633 17.7402C8.81633 17.4235 8.81633 17.1283 8.81633 16.8038C8.70407 16.8038 8.59958 16.8038 8.49509 16.8038C6.8243 16.8037 5.15349 16.804 3.4827 16.8031C3.37527 16.803 3.23821 16.8317 3.16718 16.78C3.0523 16.6964 2.90849 16.5553 2.91151 16.4419C2.91449 16.33 3.06829 16.1987 3.1875 16.1214C3.2633 16.0722 3.3967 16.1029 3.50427 16.1029C5.15351 16.1022 6.80276 16.1024 8.452 16.1024C8.56832 16.1024 8.68464 16.1024 8.81803 16.1024C8.81803 15.7813 8.81803 15.4858 8.81803 15.1661C8.62582 15.1661 8.44537 15.1661 8.26492 15.1661C6.69114 15.1661 5.11735 15.1661 3.54357 15.166C3.45734 15.166 3.37057 15.1704 3.285 15.1628C3.05411 15.1422 2.88538 15.043 2.89426 14.7955C2.90248 14.5661 3.06425 14.4738 3.28376 14.4613C3.36971 14.4564 3.45618 14.4597 3.54241 14.4597C5.18087 14.4597 6.81933 14.4597 8.4578 14.4597C8.57375 14.4597 8.68971 14.4597 8.82965 14.4597C8.82965 14.1496 8.82965 13.8618 8.82965 13.5234C8.37735 13.5234 7.90982 13.5238 7.44229 13.5233C6.99702 13.5228 6.81003 13.4132 6.81857 13.159C6.8268 12.914 6.99707 12.8194 7.43166 12.8193C8.02452 12.8191 8.61834 12.7994 9.20992 12.826C9.62696 12.8447 9.98376 12.7589 10.3217 12.5179C10.6188 12.306 10.9478 12.1359 11.2439 11.8828C11.1419 11.8828 11.0399 11.8828 10.9379 11.8828C8.45865 11.8828 5.9794 11.8829 3.50015 11.8824C3.39253 11.8823 3.25795 11.9137 3.18347 11.864C3.06485 11.7848 2.90345 11.6432 2.91204 11.5398C2.9224 11.415 3.08354 11.2947 3.1963 11.1893C3.23065 11.1572 3.32079 11.1792 3.38538 11.1791C5.99398 11.1789 8.60258 11.1784 11.2112 11.1794C11.6057 11.1796 11.691 11.2625 11.714 11.6795C12.4113 11.2618 13.0966 10.8547 13.7755 10.4379C13.8311 10.4037 13.8705 10.3028 13.8707 10.2328C13.8757 8.14156 13.8747 6.05027 13.8747 3.94235C9.49518 3.94235 5.13559 3.94235 0.756971 3.94235C0.756971 9.76559 0.756971 15.5905 0.756971 21.4451C1.47246 21.4451 2.18035 21.445 2.88825 21.4453C2.99601 21.4453 3.10423 21.4416 3.21144 21.4496C3.42811 21.4657 3.5519 21.5901 3.5552 21.7929C3.55852 21.9966 3.4348 22.1319 3.22116 22.1441C2.94184 22.16 2.66102 22.1528 2.38083 22.1532C1.79875 22.1541 1.21662 22.1575 0.634592 22.1521C0.182553 22.1478 0.00156974 21.9776 0.00143241 21.5475C-0.00045216 15.643 -0.000390954 9.73845 0.00111185 3.83395C0.00122563 3.38701 0.163974 3.23152 0.622333 3.22528C0.954839 3.22076 1.28746 3.2244 1.66162 3.2244C1.66162 2.88472 1.65929 2.56637 1.66217 2.24807C1.66641 1.77907 1.8397 1.61335 2.32584 1.61081C2.64701 1.60913 2.96819 1.61049 3.32799 1.61049C3.32799 1.27551 3.32712 0.966827 3.32819 0.658145C3.3299 0.168378 3.49999 0.000640941 4.00244 0.000497841C6.81585 -0.000303895 9.62927 0.000110767 12.4427 0.000110955C14.038 0.000111017 15.6334 -0.000241242 17.2287 0.000309225C17.7747 0.00049763 17.9372 0.157791 17.9373 0.690799C17.938 4.39803 17.9404 8.10527 17.9316 11.8125C17.931 12.0679 17.9869 12.2272 18.2327 12.3578C18.6942 12.6031 19.1284 12.8959 19.5829 13.1542C19.8751 13.3203 20.0008 13.5495 19.9908 13.8744C19.9778 14.2905 19.9877 14.7073 19.9877 15.1516ZM17.2129 3.71853C17.2129 2.71411 17.2129 1.70969 17.2129 0.714659C12.7995 0.714659 8.43884 0.714659 4.08005 0.714659C4.08005 1.02145 4.08005 1.30634 4.08005 1.61179C4.7708 1.61179 5.43773 1.61179 6.10465 1.61179C9.2633 1.6118 12.4219 1.61149 15.5806 1.61215C16.1104 1.61226 16.2693 1.76786 16.2699 2.28297C16.2707 3.08489 16.2721 3.88682 16.2689 4.68872C16.2677 4.97788 16.123 5.1458 15.8897 5.12582C15.6186 5.10261 15.5409 4.92662 15.5421 4.68866C15.5456 4.00132 15.5432 3.31395 15.5432 2.62659C15.5431 2.52722 15.5432 2.42785 15.5432 2.33433C11.1333 2.33433 6.77268 2.33433 2.4117 2.33433C2.4117 2.63959 2.4117 2.92384 2.4117 3.22586C2.55484 3.22586 2.67232 3.22586 2.7898 3.22586C6.47668 3.22587 10.1636 3.22574 13.8504 3.22601C14.4752 3.22605 14.5929 3.33795 14.5929 3.92974C14.5932 5.92933 14.5922 7.92893 14.5957 9.92851C14.5959 10.0251 14.6006 10.1688 14.6615 10.2099C14.9288 10.3903 15.2176 10.5411 15.5432 10.7282C15.5432 9.89081 15.5431 9.11294 15.5432 8.33506C15.5432 7.73102 15.547 7.12695 15.5415 6.52295C15.5392 6.2686 15.6252 6.07443 15.9126 6.08C16.1988 6.08554 16.284 6.28589 16.2707 6.53685C16.2668 6.60956 16.2701 6.68263 16.2701 6.75553C16.2702 8.14066 16.2684 9.5258 16.2736 10.9109C16.274 11.016 16.288 11.1681 16.3573 11.2175C16.6115 11.3984 16.8917 11.545 17.2129 11.7346C17.2129 9.04277 17.2129 6.4119 17.2129 3.71853Z"/>
</mask>
<path d="M19.9877 15.1516C19.9979 15.4321 19.9436 15.6487 19.6286 15.6706C19.3858 15.6874 19.2515 15.4987 19.2501 15.1621C19.2485 14.7872 19.2367 14.4117 19.2551 14.0376C19.2646 13.8424 19.1849 13.7405 19.0223 13.6439C17.5554 12.7723 16.0914 11.896 14.6309 11.0143C14.4706 10.9175 14.3506 10.9234 14.1936 11.0181C12.7325 11.8988 11.2685 12.7751 9.80107 13.6459C9.62803 13.7486 9.54914 13.8561 9.55145 14.065C9.56421 15.2208 9.55204 16.3768 9.55921 17.5327C9.56638 18.6904 10.0145 19.6526 10.9384 20.4056C12.0334 21.2983 13.1196 22.2011 14.2102 23.0988C14.2751 23.1522 14.3448 23.2002 14.4278 23.2622C15.6825 22.2206 16.9532 21.2058 18.1734 20.1374C18.8968 19.504 19.2351 18.6608 19.2481 17.7087C19.2513 17.4692 19.2392 17.2291 19.2537 16.9904C19.2673 16.7658 19.388 16.6102 19.6402 16.6202C19.8748 16.6296 19.973 16.7805 19.9868 16.9954C20.0888 18.5872 19.6082 19.9439 18.3061 20.9906C17.18 21.8958 16.0738 22.8242 14.9573 23.7407C14.5383 24.0847 14.2948 24.0859 13.8803 23.7476C13.3206 23.2909 12.7584 22.8368 12.2087 22.3691C12.0278 22.2151 11.8461 22.1476 11.6016 22.1485C9.45655 22.1571 7.31144 22.1537 5.16635 22.153C5.05884 22.1529 4.92282 22.1832 4.8502 22.1325C4.72675 22.0462 4.56231 21.9045 4.56557 21.79C4.56886 21.6746 4.74163 21.5457 4.86701 21.4589C4.93209 21.4139 5.05524 21.4454 5.15216 21.4454C6.99543 21.445 8.8387 21.4451 10.682 21.4451C10.7847 21.4451 10.8875 21.4451 11.0724 21.4451C10.8266 21.2399 10.6465 21.0834 10.4598 20.9347C9.73099 20.3538 9.23268 19.6232 8.99794 18.7427C8.92721 18.4774 8.80572 18.4378 8.55918 18.4392C6.87766 18.4487 5.19605 18.4443 3.51447 18.4438C3.4068 18.4438 3.26987 18.4778 3.19797 18.4274C3.07423 18.3407 2.91051 18.1982 2.91342 18.0826C2.91633 17.9673 3.09158 17.8417 3.21476 17.7501C3.26944 17.7095 3.38186 17.7404 3.46807 17.7404C5.13887 17.7402 6.80967 17.7402 8.48047 17.7402C8.58614 17.7402 8.69181 17.7402 8.81633 17.7402C8.81633 17.4235 8.81633 17.1283 8.81633 16.8038C8.70407 16.8038 8.59958 16.8038 8.49509 16.8038C6.8243 16.8037 5.15349 16.804 3.4827 16.8031C3.37527 16.803 3.23821 16.8317 3.16718 16.78C3.0523 16.6964 2.90849 16.5553 2.91151 16.4419C2.91449 16.33 3.06829 16.1987 3.1875 16.1214C3.2633 16.0722 3.3967 16.1029 3.50427 16.1029C5.15351 16.1022 6.80276 16.1024 8.452 16.1024C8.56832 16.1024 8.68464 16.1024 8.81803 16.1024C8.81803 15.7813 8.81803 15.4858 8.81803 15.1661C8.62582 15.1661 8.44537 15.1661 8.26492 15.1661C6.69114 15.1661 5.11735 15.1661 3.54357 15.166C3.45734 15.166 3.37057 15.1704 3.285 15.1628C3.05411 15.1422 2.88538 15.043 2.89426 14.7955C2.90248 14.5661 3.06425 14.4738 3.28376 14.4613C3.36971 14.4564 3.45618 14.4597 3.54241 14.4597C5.18087 14.4597 6.81933 14.4597 8.4578 14.4597C8.57375 14.4597 8.68971 14.4597 8.82965 14.4597C8.82965 14.1496 8.82965 13.8618 8.82965 13.5234C8.37735 13.5234 7.90982 13.5238 7.44229 13.5233C6.99702 13.5228 6.81003 13.4132 6.81857 13.159C6.8268 12.914 6.99707 12.8194 7.43166 12.8193C8.02452 12.8191 8.61834 12.7994 9.20992 12.826C9.62696 12.8447 9.98376 12.7589 10.3217 12.5179C10.6188 12.306 10.9478 12.1359 11.2439 11.8828C11.1419 11.8828 11.0399 11.8828 10.9379 11.8828C8.45865 11.8828 5.9794 11.8829 3.50015 11.8824C3.39253 11.8823 3.25795 11.9137 3.18347 11.864C3.06485 11.7848 2.90345 11.6432 2.91204 11.5398C2.9224 11.415 3.08354 11.2947 3.1963 11.1893C3.23065 11.1572 3.32079 11.1792 3.38538 11.1791C5.99398 11.1789 8.60258 11.1784 11.2112 11.1794C11.6057 11.1796 11.691 11.2625 11.714 11.6795C12.4113 11.2618 13.0966 10.8547 13.7755 10.4379C13.8311 10.4037 13.8705 10.3028 13.8707 10.2328C13.8757 8.14156 13.8747 6.05027 13.8747 3.94235C9.49518 3.94235 5.13559 3.94235 0.756971 3.94235C0.756971 9.76559 0.756971 15.5905 0.756971 21.4451C1.47246 21.4451 2.18035 21.445 2.88825 21.4453C2.99601 21.4453 3.10423 21.4416 3.21144 21.4496C3.42811 21.4657 3.5519 21.5901 3.5552 21.7929C3.55852 21.9966 3.4348 22.1319 3.22116 22.1441C2.94184 22.16 2.66102 22.1528 2.38083 22.1532C1.79875 22.1541 1.21662 22.1575 0.634592 22.1521C0.182553 22.1478 0.00156974 21.9776 0.00143241 21.5475C-0.00045216 15.643 -0.000390954 9.73845 0.00111185 3.83395C0.00122563 3.38701 0.163974 3.23152 0.622333 3.22528C0.954839 3.22076 1.28746 3.2244 1.66162 3.2244C1.66162 2.88472 1.65929 2.56637 1.66217 2.24807C1.66641 1.77907 1.8397 1.61335 2.32584 1.61081C2.64701 1.60913 2.96819 1.61049 3.32799 1.61049C3.32799 1.27551 3.32712 0.966827 3.32819 0.658145C3.3299 0.168378 3.49999 0.000640941 4.00244 0.000497841C6.81585 -0.000303895 9.62927 0.000110767 12.4427 0.000110955C14.038 0.000111017 15.6334 -0.000241242 17.2287 0.000309225C17.7747 0.00049763 17.9372 0.157791 17.9373 0.690799C17.938 4.39803 17.9404 8.10527 17.9316 11.8125C17.931 12.0679 17.9869 12.2272 18.2327 12.3578C18.6942 12.6031 19.1284 12.8959 19.5829 13.1542C19.8751 13.3203 20.0008 13.5495 19.9908 13.8744C19.9778 14.2905 19.9877 14.7073 19.9877 15.1516ZM17.2129 3.71853C17.2129 2.71411 17.2129 1.70969 17.2129 0.714659C12.7995 0.714659 8.43884 0.714659 4.08005 0.714659C4.08005 1.02145 4.08005 1.30634 4.08005 1.61179C4.7708 1.61179 5.43773 1.61179 6.10465 1.61179C9.2633 1.6118 12.4219 1.61149 15.5806 1.61215C16.1104 1.61226 16.2693 1.76786 16.2699 2.28297C16.2707 3.08489 16.2721 3.88682 16.2689 4.68872C16.2677 4.97788 16.123 5.1458 15.8897 5.12582C15.6186 5.10261 15.5409 4.92662 15.5421 4.68866C15.5456 4.00132 15.5432 3.31395 15.5432 2.62659C15.5431 2.52722 15.5432 2.42785 15.5432 2.33433C11.1333 2.33433 6.77268 2.33433 2.4117 2.33433C2.4117 2.63959 2.4117 2.92384 2.4117 3.22586C2.55484 3.22586 2.67232 3.22586 2.7898 3.22586C6.47668 3.22587 10.1636 3.22574 13.8504 3.22601C14.4752 3.22605 14.5929 3.33795 14.5929 3.92974C14.5932 5.92933 14.5922 7.92893 14.5957 9.92851C14.5959 10.0251 14.6006 10.1688 14.6615 10.2099C14.9288 10.3903 15.2176 10.5411 15.5432 10.7282C15.5432 9.89081 15.5431 9.11294 15.5432 8.33506C15.5432 7.73102 15.547 7.12695 15.5415 6.52295C15.5392 6.2686 15.6252 6.07443 15.9126 6.08C16.1988 6.08554 16.284 6.28589 16.2707 6.53685C16.2668 6.60956 16.2701 6.68263 16.2701 6.75553C16.2702 8.14066 16.2684 9.5258 16.2736 10.9109C16.274 11.016 16.288 11.1681 16.3573 11.2175C16.6115 11.3984 16.8917 11.545 17.2129 11.7346C17.2129 9.04277 17.2129 6.4119 17.2129 3.71853Z" fill="#0700C4" stroke="#0700C4" stroke-width="2" mask="url(#path-1-inside-1_1304_39581)"/>
<path d="M17.7482 16.4919C17.6746 18.4847 15.8678 19.9748 13.7548 19.5939C12.2772 19.3274 11.1304 18.0286 11.0835 16.5848C11.0328 15.0213 12.0472 13.7096 13.6153 13.3111C15.6897 12.784 17.6946 14.3129 17.7482 16.4919ZM16.7696 15.3707C16.0694 14.061 14.5557 13.5559 13.2376 14.192C11.9806 14.7988 11.4584 16.2841 12.0654 17.5266C12.6459 18.7146 14.1645 19.2765 15.4033 18.7616C16.7755 18.1913 17.3654 16.7665 16.7696 15.3707Z" fill="#1DC690"/>
<path d="M9.34704 8.6072C7.39856 8.6072 5.48242 8.60721 3.56628 8.60719C3.49093 8.60719 3.41547 8.60952 3.34024 8.60653C3.08703 8.59649 2.88027 8.5138 2.89328 8.22975C2.90542 7.96473 3.10839 7.89577 3.34831 7.89576C4.88768 7.89574 6.42705 7.89562 7.96642 7.89557C9.0429 7.89554 10.1194 7.8914 11.1958 7.90065C11.3367 7.90186 11.5131 7.9354 11.6062 8.02144C11.6823 8.09176 11.7147 8.29182 11.6648 8.38153C11.6066 8.48604 11.4412 8.58801 11.3164 8.59516C10.8658 8.62097 10.4128 8.60657 9.96069 8.60716C9.76692 8.60742 9.57315 8.6072 9.34704 8.6072Z" fill="#0700C4"/>
<path d="M6.69494 10.2426C5.6063 10.2426 4.55001 10.2427 3.49371 10.2422C3.39682 10.2422 3.27264 10.2731 3.20887 10.2275C3.08481 10.1387 2.91399 10.0061 2.91327 9.89083C2.91256 9.77702 3.08842 9.65118 3.20692 9.55333C3.2516 9.51643 3.35263 9.54124 3.42797 9.54123C6.01482 9.54088 8.60167 9.54084 11.1885 9.54129C11.2638 9.5413 11.3635 9.5187 11.4095 9.55573C11.5224 9.64662 11.6943 9.77163 11.6873 9.87287C11.6786 9.99804 11.5283 10.1312 11.4089 10.2248C11.3489 10.2719 11.2217 10.2421 11.1249 10.2421C9.65905 10.2427 8.19317 10.2426 6.69494 10.2426Z" fill="#0700C4"/>
<path d="M4.56299 5.97634C4.56272 5.61548 4.65476 5.51022 4.98161 5.50946C6.53111 5.50587 8.08062 5.50807 9.63013 5.50772C9.87988 5.50766 10.0593 5.60181 10.0598 5.86318C10.0602 6.10949 9.88304 6.20871 9.65223 6.2092C8.08122 6.21258 6.51016 6.21594 4.93927 6.20235C4.81571 6.20128 4.69335 6.07154 4.56299 5.97634Z" fill="#0700C4"/>
<path d="M3.98092 13.5241C3.72348 13.5231 3.49762 13.5283 3.27236 13.5192C3.05014 13.5103 2.8965 13.4005 2.89479 13.1764C2.89297 12.9374 3.04717 12.8206 3.28869 12.82C4.18046 12.8179 5.07223 12.8185 5.96399 12.8195C6.20089 12.8198 6.36863 12.9209 6.37297 13.1625C6.37771 13.4262 6.19041 13.5206 5.9467 13.5221C5.30207 13.5259 4.65741 13.5238 3.98092 13.5241Z" fill="#0700C4"/>
<path d="M17.213 3.74978C17.213 6.4119 17.213 9.04278 17.213 11.7346C16.8918 11.545 16.6116 11.3984 16.3574 11.2175C16.2881 11.1681 16.2741 11.016 16.2737 10.9109C16.2685 9.52581 16.2702 8.14067 16.2702 6.75553C16.2702 6.68263 16.2669 6.60957 16.2707 6.53686C16.2841 6.28589 16.1988 6.08555 15.9126 6.08C15.6253 6.07443 15.5393 6.2686 15.5416 6.52295C15.5471 7.12695 15.5433 7.73102 15.5432 8.33507C15.5432 9.11294 15.5432 9.89082 15.5432 10.7282C15.2177 10.5411 14.9289 10.3903 14.6616 10.2099C14.6007 10.1688 14.596 10.0251 14.5958 9.92851C14.5923 7.92893 14.5933 5.92933 14.593 3.92974C14.5929 3.33795 14.4752 3.22606 13.8505 3.22601C10.1636 3.22574 6.47675 3.22587 2.78987 3.22586C2.67239 3.22586 2.55491 3.22586 2.41177 3.22586C2.41177 2.92384 2.41177 2.63959 2.41177 2.33433C6.77275 2.33433 11.1333 2.33433 15.5432 2.33433C15.5432 2.42785 15.5432 2.52722 15.5432 2.62659C15.5433 3.31395 15.5457 4.00132 15.5422 4.68866C15.541 4.92663 15.6186 5.10261 15.8897 5.12583C16.123 5.1458 16.2678 4.97788 16.2689 4.68872C16.2721 3.88682 16.2708 3.08489 16.2699 2.28297C16.2694 1.76787 16.1105 1.61226 15.5807 1.61215C12.422 1.61149 9.26337 1.6118 6.10472 1.61179C5.4378 1.61179 4.77087 1.61179 4.08012 1.61179C4.08012 1.30635 4.08012 1.02145 4.08012 0.714661C8.43891 0.714661 12.7996 0.714661 17.213 0.714661C17.213 1.70969 17.213 2.71411 17.213 3.74978Z" fill="#EFF1F2"/>
<path d="M16.7794 15.3928C17.3655 16.7665 16.7757 18.1913 15.4035 18.7616C14.1647 19.2765 12.646 18.7146 12.0656 17.5266C11.4586 16.2841 11.9807 14.7988 13.2378 14.192C14.5559 13.5559 16.0695 14.061 16.7794 15.3928ZM13.0541 16.2446C13.0945 16.3659 13.1012 16.5163 13.1815 16.6032C13.4457 16.889 13.7325 17.1557 14.0185 17.4219C14.1931 17.5844 14.3862 17.5844 14.5603 17.4187C15.0038 16.9965 15.4446 16.5717 15.8815 16.1432C16.0367 15.9909 16.0647 15.815 15.9139 15.6418C15.7564 15.461 15.55 15.4729 15.3298 15.6839C14.984 16.0153 14.6462 16.3544 14.281 16.7137C14.0713 16.4993 13.9011 16.312 13.716 16.1396C13.4774 15.9173 13.3045 15.9392 13.0541 16.2446Z" fill="#F5F7F8"/>
<path d="M13.0656 16.2233C13.3044 15.9392 13.4773 15.9173 13.7159 16.1396C13.901 16.312 14.0711 16.4993 14.2809 16.7137C14.646 16.3544 14.9838 16.0153 15.3296 15.6839C15.5499 15.4729 15.7563 15.461 15.9138 15.6418C16.0646 15.815 16.0366 15.991 15.8814 16.1432C15.4444 16.5717 15.0037 16.9965 14.5602 17.4187C14.386 17.5844 14.193 17.5844 14.0184 17.4219C13.7324 17.1557 13.4455 16.889 13.1814 16.6032C13.1011 16.5163 13.0944 16.3659 13.0656 16.2233Z" fill="#1DC690"/>
</svg>
