<svg width="24" height="25" viewBox="0 0 24 25" fill="none" xmlns="http://www.w3.org/2000/svg">
<path fill-rule="evenodd" clip-rule="evenodd" d="M3 7.16504C3 4.9559 4.79086 3.16504 7 3.16504H11C11.5523 3.16504 12 3.61275 12 4.16504C12 4.71732 11.5523 5.16504 11 5.16504H7C5.89543 5.16504 5 6.06047 5 7.16504V17.165C5 18.2696 5.89543 19.165 7 19.165H17C18.1046 19.165 19 18.2696 19 17.165V13.165C19 12.6128 19.4477 12.165 20 12.165C20.5523 12.165 21 12.6128 21 13.165V17.165C21 19.3742 19.2091 21.165 17 21.165H7C4.79086 21.165 3 19.3742 3 17.165V7.16504Z" fill="black" fill-opacity="0.4"/>
<path opacity="0.986784" d="M17 2.16504C16.735 2.16504 16.469 2.25904 16.281 2.44604C14.781 3.94604 14.781 3.94604 14.281 4.44604L7.28101 11.446C7.09401 11.634 7 11.9 7 12.165V16.165C7 16.717 7.448 17.165 8 17.165C8.5 17.165 11.5 17.165 12 17.165C12.265 17.165 12.531 17.071 12.719 16.884L19.719 9.88403C20.219 9.38403 20.219 9.38403 21.719 7.88403C21.906 7.69603 22 7.43004 22 7.16504C22 5.52904 21.583 4.36005 20.719 3.47705C19.846 2.58705 18.681 2.16504 17 2.16504ZM17.407 4.18402C18.309 4.23702 18.88 4.44303 19.281 4.85303C19.691 5.27103 19.927 5.90205 19.982 6.78705C19.493 7.27605 19.19 7.56605 19.004 7.75305C18.211 6.96105 17.205 5.96402 16.413 5.17102C16.6 4.98402 16.918 4.67302 17.407 4.18402ZM15.002 6.59106L17.587 9.16907L11.562 15.165C10.93 15.165 9.921 15.165 9 15.165V12.603L15.002 6.59106Z" fill="black"/>
</svg>
