<svg width="24" height="24" viewBox="0 0 24 24" fill="none" xmlns="http://www.w3.org/2000/svg">
<path fill-rule="evenodd" clip-rule="evenodd" d="M7.0872 10.5939C7.2477 10.2327 7.60582 10 8.00101 10H21.001C21.3225 10 21.6243 10.1545 21.8123 10.4153C22.0002 10.6761 22.0514 11.0114 21.9497 11.3163L19.6325 18.2653C19.0879 19.8985 17.5595 21 15.8379 21H7.00092C5.58941 21 4.65945 20.3545 4.16245 19.8601C3.88371 19.5828 3.79332 19.1679 3.93146 18.7998C4.95928 16.0643 5.90034 13.2642 7.0872 10.5939ZM6.06967 18.7959C6.30795 18.9124 6.61476 19 7.00092 19H15.8379C16.6987 19 17.4629 18.4492 17.7352 17.6327L19.6134 12H8.66963C7.76915 14.2521 6.92427 16.5261 6.06967 18.7959Z" fill="#0700C4"/>
<path fill-rule="evenodd" clip-rule="evenodd" d="M6 3C4.34315 3 3 4.34314 3 6V17C3 18.0123 3.37604 18.9368 3.99604 19.6413C3.85364 19.3881 3.82618 19.0803 3.93146 18.7998C4.21253 18.0518 4.48711 17.2989 4.762 16.5451C4.84125 16.3278 4.92053 16.1105 5 15.8931V6C5 5.44772 5.44772 5 6 5H10.363C10.6898 5 10.996 5.15968 11.183 5.42765L12.083 6.71704C12.6441 7.52097 13.5627 8 14.543 8H17C17.5523 8 18 8.44772 18 9V10H20V9C20 7.34315 18.6569 6 17 6H14.543C14.2162 6 13.9101 5.84032 13.723 5.57235L12.8231 4.28296C12.2619 3.47903 11.3434 3 10.363 3H6Z" fill="#08C28D"/>
</svg>
