<svg width="21" height="18" viewBox="0 0 21 18" fill="none" xmlns="http://www.w3.org/2000/svg">
<g clip-path="url(#clip0_5221_44768)">
<mask id="mask0_5221_44768" style="mask-type:luminance" maskUnits="userSpaceOnUse" x="0" y="0" width="21" height="18">
<path d="M21 0H0V18H21V0Z" fill="white"/>
</mask>
<g mask="url(#mask0_5221_44768)">
<path d="M2.06641 6.45L3.40234 2.73504C3.88281 1.39554 5.1875 0.5 6.64844 0.5H13.7266C15.1523 0.5 16.4883 1.39554 16.9727 2.73504L18.3086 6.45C19.4297 7.07991 20.1875 8.25625 20.1875 9.60714V16.5893C20.1875 17.094 19.7695 17.5 19.25 17.5C18.7305 17.5 18.3125 17.094 18.3125 16.5893V14.4643H2.0625V16.5893C2.0625 17.094 1.64062 17.5 1.125 17.5C0.609375 17.5 0.1875 17.094 0.1875 16.5893V9.60714C0.1875 8.25625 0.941407 7.07991 2.06641 6.45ZM4.22656 5.96429H16.1484L15.1992 3.33839C14.9805 2.72745 14.3906 2.32143 13.7266 2.32143H6.64844C5.98437 2.32143 5.39453 2.72745 5.17578 3.33839L4.22656 5.96429ZM16.4375 7.78571H3.9375C2.90234 7.78571 2.0625 8.60156 2.0625 9.60714V12.6429H18.3125V9.60714C18.3125 8.60156 17.4727 7.78571 16.4375 7.78571Z" fill="black"/>
<path d="M15.6035 11.8331C16.2939 11.8331 16.8535 11.2895 16.8535 10.6189C16.8535 9.9482 16.2939 9.40454 15.6035 9.40454C14.9131 9.40454 14.3535 9.9482 14.3535 10.6189C14.3535 11.2895 14.9131 11.8331 15.6035 11.8331Z" fill="black" fill-opacity="0.4"/>
<path d="M4.77148 11.8331C5.46183 11.8331 6.02148 11.2895 6.02148 10.6189C6.02148 9.9482 5.46183 9.40454 4.77148 9.40454C4.08112 9.40454 3.52148 9.9482 3.52148 10.6189C3.52148 11.2895 4.08112 11.8331 4.77148 11.8331Z" fill="black" fill-opacity="0.4"/>
</g>
</g>
<defs>
<clipPath id="clip0_5221_44768">
<rect width="21" height="18" fill="white"/>
</clipPath>
</defs>
</svg>
