<svg width="24" height="25" viewBox="0 0 24 25" fill="none" xmlns="http://www.w3.org/2000/svg">
<path fill-rule="evenodd" clip-rule="evenodd" d="M20.3205 3.29282C20.0756 3.20996 19.8139 3.16487 19.544 3.16504C19.2796 3.16521 19.0117 3.20882 18.7491 3.2988C13.751 4.98732 8.68951 6.61083 3.68647 8.30122C2.70915 8.63143 2 9.5448 2 10.6691C2 11.8167 2.77232 12.687 3.65812 13.0163L9.63603 14.1995L9.41063 13.9363C9.23675 13.7333 9.1514 13.4691 9.17364 13.2027C9.19587 12.9363 9.32385 12.6899 9.529 12.5185L9.89386 12.2138L4.35502 11.1417C4.13648 11.0604 4 10.8635 4 10.6691C4 10.4276 4.13823 10.2597 4.32666 10.196C8.71001 8.71497 13.1488 7.28223 17.5691 5.80506L20.4885 3.36732C20.4358 3.3379 20.3797 3.31286 20.3205 3.29282Z" fill="black" fill-opacity="0.4"/>
<path fill-rule="evenodd" clip-rule="evenodd" d="M21.2786 3.8905C21.8015 4.41532 22.0973 5.18358 21.9708 6.01492L21.9695 6.02339C21.3025 10.1665 20.6451 14.3111 19.9869 18.4556C19.845 19.9756 18.5623 21.1585 17.0119 21.1645C16.1789 21.1809 15.3475 20.8453 14.7311 20.149L14.7203 20.1366L9.41039 13.9363C9.2365 13.7333 9.15115 13.4691 9.17339 13.2027C9.19563 12.9363 9.32361 12.6899 9.52875 12.5185L20.4919 3.36426C20.4919 3.36426 20.6577 3.41256 20.9099 3.58691C21.1621 3.76127 21.2786 3.8905 21.2786 3.8905ZM19.8696 6.48474L11.5879 13.4042L16.2332 18.8285C16.4541 19.0751 16.7195 19.1709 16.9765 19.1648L17.0001 19.1645C17.5289 19.1645 17.9572 18.7575 17.9967 18.2554C18.6163 14.3311 19.2399 10.4074 19.8696 6.48474Z" fill="black"/>
</svg>
