<svg width="24" height="24" viewBox="0 0 24 24" fill="none" xmlns="http://www.w3.org/2000/svg">
<path fill-rule="evenodd" clip-rule="evenodd" d="M18 14C18 14.5523 18.4477 15 19 15C19.5523 15 20 14.5523 20 14V13H21C21.5523 13 22 12.5523 22 12C22 11.4477 21.5523 11 21 11H20V10C20 9.44772 19.5523 9 19 9C18.4477 9 18 9.44772 18 10V11H17C16.4477 11 16 11.4477 16 12C16 12.5523 16.4477 13 17 13H18V14Z" fill="#0700C4"/>
<path fill-rule="evenodd" clip-rule="evenodd" d="M4 7.5C4 5.0147 6.0147 3 8.5 3C10.9853 3 13 5.0147 13 7.5C13 9.9853 10.9853 12 8.5 12C6.0147 12 4 9.9853 4 7.5ZM11 7.5C11 6.1193 9.8807 5 8.5 5C7.1193 5.0001 6 6.1193 6 7.5C6 8.8807 7.1193 10 8.5 10C9.8807 9.9999 11 8.8807 11 7.5Z" fill="#0700C4" fill-opacity="0.42"/>
<path fill-rule="evenodd" clip-rule="evenodd" d="M2 18C2 15.9561 3.2284 14.1006 5.0625 13.3438C5.3183 13.2385 5.5919 13.2604 5.8438 13.375C6.7598 13.792 7.6248 14 8.5 14C9.3782 13.9998 10.2402 13.8028 11.125 13.4062C11.3806 13.292 11.6803 13.2954 11.9375 13.4062C13.7648 14.1937 15 16.0042 15 18V20C15 20.5523 14.5523 21 14 21H3C2.4477 21 2 20.5523 2 20V18ZM8.5 16C7.5309 16.0002 6.3918 15.7481 5.447 15.3896C4.6559 15.8531 4 16.8353 4 18V19H13V18C13 16.8994 12.3818 15.9374 11.4792 15.4226C10.5535 15.7646 9.4615 16 8.5 16Z" fill="#0700C4" fill-opacity="0.42"/>
</svg>
