<svg width="24" height="24" viewBox="0 0 24 24" fill="none" xmlns="http://www.w3.org/2000/svg">
<g clip-path="url(#clip0_3115_72279)">
<path d="M20.8697 15.5367C20.8669 15.5367 20.8642 15.5367 20.8614 15.5366C20.637 15.5322 20.4588 15.3466 20.4633 15.1223C20.5168 12.446 19.9767 10.9001 19.4188 9.54603C19.3334 9.33853 19.4322 9.10104 19.6397 9.01558C19.8473 8.93017 20.0847 9.02898 20.1702 9.23648C20.8906 10.9852 21.3269 12.5825 21.2757 15.1385C21.2714 15.3601 21.0903 15.5367 20.8697 15.5367Z" fill="black"/>
<path d="M3.13085 15.5368C3.12198 15.5368 3.11311 15.5364 3.10413 15.5359C2.8802 15.5213 2.71048 15.328 2.72499 15.1041C2.94662 11.6904 3.97387 8.81227 5.69577 6.78078C7.34269 4.83772 9.58158 3.76758 12 3.76758C14.405 3.76758 16.7367 4.7642 18.3973 6.50191C18.5523 6.66417 18.5465 6.92133 18.3843 7.0764C18.222 7.2314 17.9648 7.22556 17.8098 7.06335C16.3017 5.4853 14.1842 4.58024 12 4.58024C7.34806 4.58024 3.94664 8.83064 3.53592 15.1568C3.52194 15.3717 3.34325 15.5368 3.13085 15.5368Z" fill="black"/>
<path d="M19.0434 15.5367C18.82 15.5367 18.6383 15.3561 18.6371 15.1325C18.6216 12.159 17.9381 9.93689 16.6056 8.52799C15.502 7.36091 13.9805 6.7692 12.0835 6.7692C10.3951 6.7692 8.81414 7.55145 7.63188 8.97178C6.34193 10.5215 5.6475 12.6524 5.6236 15.1343C5.62146 15.3573 5.43995 15.5367 5.21738 15.5367C5.21607 15.5367 5.21472 15.5367 5.21336 15.5367C4.98896 15.5345 4.8088 15.3509 4.81099 15.1265C4.83666 12.4552 5.59616 10.1472 7.00725 8.45192C8.34666 6.84277 10.1494 5.95654 12.0835 5.95654C14.1826 5.95654 15.9505 6.65265 17.196 7.96962C18.6748 9.53327 19.433 11.9418 19.4497 15.1282C19.4508 15.3526 19.2699 15.5355 19.0455 15.5367C19.0449 15.5367 19.0441 15.5367 19.0434 15.5367Z" fill="black"/>
<path d="M7.30399 15.5368C7.08929 15.5368 6.90987 15.3685 6.89854 15.1516C6.89098 15.0066 6.7367 11.5773 8.79413 9.53439C9.86119 8.47484 11.3162 7.99186 13.1197 8.09877C13.3436 8.11207 13.5145 8.30444 13.5012 8.52847C13.4879 8.75246 13.2968 8.92306 13.0716 8.91002C11.5093 8.81757 10.2627 9.22145 9.36674 10.1111C7.56439 11.9007 7.70839 15.0774 7.71006 15.1093C7.7218 15.3334 7.54957 15.5246 7.32548 15.5363C7.31834 15.5366 7.31114 15.5368 7.30399 15.5368Z" fill="black"/>
<path d="M17.2179 15.5368C17.1991 15.5368 17.1802 15.5355 17.1611 15.5328C16.9388 15.5018 16.7839 15.2964 16.8149 15.0742C17.0778 13.1932 16.7604 11.6416 15.8714 10.4625C15.2086 9.58333 14.4545 9.24561 14.447 9.24227C14.2422 9.15237 14.1477 8.91342 14.2367 8.70816C14.3257 8.50296 14.5631 8.4079 14.7687 8.49603C14.8062 8.5121 15.697 8.90183 16.4895 9.93274C17.2092 10.8691 17.9896 12.5407 17.6197 15.1866C17.5914 15.3898 17.4173 15.5368 17.2179 15.5368Z" fill="black"/>
<path d="M10.4351 15.5369C10.2931 15.5369 10.1552 15.4623 10.0806 15.3297C9.97059 15.1342 10.04 14.8864 10.2356 14.7764C10.5885 14.5779 10.6861 13.179 10.553 12.0476C10.5511 12.0318 10.5502 12.016 10.5502 12.0001C10.5502 10.913 11.4346 10.0286 12.5217 10.0286C13.6088 10.0286 14.4933 10.913 14.4933 12.0001C14.4933 12.2245 14.3114 12.4064 14.087 12.4064C13.8626 12.4064 13.6806 12.2245 13.6806 12.0001C13.6806 11.3611 13.1608 10.8412 12.5217 10.8412C11.8898 10.8412 11.3743 11.3497 11.3631 11.9791C11.3778 12.1142 11.4391 12.7305 11.4148 13.4039C11.3742 14.5314 11.1187 15.212 10.634 15.4847C10.571 15.5201 10.5026 15.5369 10.4351 15.5369Z" fill="black"/>
<path d="M8.86994 15.5367C8.73188 15.5367 8.59733 15.4664 8.5211 15.3394C8.40966 15.1537 8.46387 14.9147 8.64079 14.7945C8.82481 14.5658 8.98493 13.2704 8.98493 11.9998C8.98493 11.7754 9.16686 11.5935 9.39126 11.5935C9.61566 11.5935 9.79759 11.7754 9.79759 11.9998C9.79759 12.0293 9.79681 12.7306 9.73081 13.4832C9.5999 14.9753 9.32766 15.3293 9.07858 15.4787C9.01321 15.518 8.9411 15.5367 8.86994 15.5367Z" fill="black"/>
<path d="M14.087 15.5368C13.8626 15.5368 13.6806 15.3549 13.6806 15.1305V13.5653C13.6806 13.3409 13.8626 13.1589 14.087 13.1589C14.3114 13.1589 14.4933 13.3409 14.4933 13.5653V15.1305C14.4933 15.3549 14.3114 15.5368 14.087 15.5368Z" fill="black"/>
<path d="M15.7048 15.5367C15.6814 15.5367 15.6578 15.5347 15.634 15.5305C15.413 15.4916 15.2653 15.2809 15.3041 15.0599C15.5657 13.5724 15.2579 12.0994 15.2548 12.0847C15.2079 11.8653 15.3478 11.6494 15.5673 11.6025C15.7869 11.5557 16.0026 11.6957 16.0495 11.915C16.0636 11.9814 16.3931 13.5591 16.1045 15.2007C16.0698 15.3979 15.8983 15.5367 15.7048 15.5367Z" fill="black"/>
<path d="M12.5217 15.5367C12.2973 15.5367 12.1154 15.3548 12.1154 15.1304V12.4173C12.1154 12.1929 12.2973 12.011 12.5217 12.011C12.7461 12.011 12.9281 12.1929 12.9281 12.4173V15.1304C12.9281 15.3548 12.7461 15.5367 12.5217 15.5367Z" fill="black"/>
<path d="M1.56522 4.69565V1.56522H4.69565V0H0V4.69565H1.56522Z" fill="#999999"/>
<path d="M19.3044 1.56522H22.4348V4.69565H24V0H19.3044V1.56522Z" fill="#999999"/>
<path d="M22.4348 19.3044V22.4349H19.3044V24.0001H24V19.3044H22.4348Z" fill="#999999"/>
<path d="M4.69565 22.4349H1.56522V19.3044H0V24.0001H4.69565V22.4349Z" fill="#999999"/>
<path d="M24 15.1304H0V16.6956H24V15.1304Z" fill="#999999"/>
</g>
<defs>
<clipPath id="clip0_3115_72279">
<rect width="24" height="24" fill="white"/>
</clipPath>
</defs>
</svg>
