<svg width="24" height="24" viewBox="0 0 24 24" fill="none" xmlns="http://www.w3.org/2000/svg">
<path fill-rule="evenodd" clip-rule="evenodd" d="M20.1006 9.24264L19.1143 10.229C19.0326 10.0848 18.9443 9.94305 18.8495 9.80397L17.9825 8.53235L18.6864 7.82843C19.1047 7.41015 19.1047 6.73199 18.6864 6.31371C18.2681 5.89543 17.59 5.89543 17.1717 6.31371L16.7543 6.73106L15.6077 5.04929L15.7575 4.89949C16.9568 3.70017 18.9013 3.70017 20.1006 4.89949C21.2999 6.09882 21.2999 8.04331 20.1006 9.24264ZM14.1005 10.8995C12.9012 9.70017 10.9567 9.70017 9.75736 10.8995L3.8995 16.7574C2.70017 17.9567 2.70017 19.9012 3.89949 21.1005C5.09882 22.2998 7.04331 22.2998 8.24264 21.1005L14.1005 15.2426C15.2998 14.0433 15.2998 12.0988 14.1005 10.8995ZM11.1716 12.3137C11.5899 11.8954 12.268 11.8954 12.6863 12.3137C13.1046 12.732 13.1046 13.4101 12.6863 13.8284L6.82843 19.6863C6.41015 20.1046 5.73199 20.1046 5.31371 19.6863C4.89543 19.268 4.89543 18.5899 5.31371 18.1716L11.1716 12.3137Z" fill="black" fill-opacity="0.4"/>
<path fill-rule="evenodd" clip-rule="evenodd" d="M13.8262 2.43667C13.6585 2.19064 13.3898 2.03217 13.0934 2.00437C12.7969 1.97657 12.5035 2.08234 12.2929 2.2929L6.2929 8.2929C6.08569 8.50011 5.97979 8.78778 6.0032 9.07988C6.0266 9.37198 6.17695 9.63911 6.41451 9.81068L8.98773 11.6691L9.75736 10.8995C9.99501 10.6618 10.2619 10.4713 10.5465 10.3278L8.53741 8.87682L12.8537 4.56054L17.1969 10.9306C18.2778 12.5158 18.0754 14.6314 16.7497 15.983C16.4292 15.0088 15.8125 14.144 14.9671 13.5208C14.8743 14.1509 14.5855 14.7577 14.1005 15.2426L14.0179 15.3253C14.6396 15.8902 15 16.6949 15 17.5452V18C15 18.3938 15.2311 18.7509 15.5903 18.9122C15.9496 19.0736 16.37 19.009 16.6644 18.7474L17.8782 17.6684C20.1332 15.664 20.549 12.2968 18.8494 9.80397L13.8262 2.43667Z" fill="black"/>
</svg>
