<svg width="16" height="16" viewBox="0 0 16 16" fill="none" xmlns="http://www.w3.org/2000/svg">
<path fill-rule="evenodd" clip-rule="evenodd" d="M12.2146 1.42961C11.9267 1.37203 11.6297 1.33422 11.3354 1.33334C11.1592 1.33316 10.9871 1.40395 10.8625 1.5286L9.32911 3.08167L9.32817 3.08073L2.19531 10.1953L5.80469 13.8047L12.9367 6.69071L12.9379 6.69185L14.4719 5.13807C14.597 5.01305 14.6672 4.84348 14.6672 4.66667V4.66596L14.6672 4.66512C14.6663 4.37087 14.6285 4.07386 14.5709 3.78592C14.4798 3.33013 14.2803 2.67029 13.8053 2.19526C13.3302 1.72024 12.6704 1.52077 12.2146 1.42961ZM11.9955 5.7477L13.3178 4.40229C13.315 4.3852 13.3121 4.36789 13.3092 4.3504C13.2411 3.93926 13.1558 3.42384 12.8758 3.14608C12.584 2.85649 11.9686 2.74479 11.5964 2.68081L10.2716 4.02397L11.9955 5.7477Z" fill="#1876F2" fill-opacity="0.36"/>
<path fill-rule="evenodd" clip-rule="evenodd" d="M5.80442 13.8048C5.71136 13.8978 5.59282 13.9613 5.46376 13.9871L2.13043 14.6537C1.91186 14.6975 1.6859 14.629 1.52828 14.4714C1.37067 14.3138 1.30225 14.0878 1.34596 13.8693L2.01263 10.5359C2.03844 10.4069 2.10188 10.2883 2.19495 10.1953L5.80442 13.8048Z" fill="#1876F2"/>
</svg>
