<svg width="24" height="21" viewBox="0 0 24 21" fill="none" xmlns="http://www.w3.org/2000/svg">
<path d="M12 0.620697C9.70588 0.620697 7.84615 2.41181 7.84615 4.6207C7.84615 6.82959 9.70588 8.6207 12 8.6207C14.2941 8.6207 16.1538 6.82959 16.1538 4.6207C16.1538 2.41181 14.2941 0.620697 12 0.620697ZM12 2.39847C13.2745 2.39847 14.3077 3.39314 14.3077 4.6207C14.3077 5.84825 13.2745 6.84292 12 6.84292C10.7255 6.84292 9.69231 5.84825 9.69231 4.6207C9.69231 3.39314 10.7255 2.39847 12 2.39847ZM8.82692 9.81536C7.13391 10.4882 6 12.1371 6 13.954V15.7318C6 16.2225 6.41326 16.6207 6.92308 16.6207H17.0769C17.5867 16.6207 18 16.2225 18 15.7318V13.954C18 12.1798 16.8598 10.5709 15.1731 9.87048C14.9357 9.77181 14.659 9.76915 14.4231 9.87048C13.6063 10.2234 12.8106 10.3985 12 10.3985C11.1921 10.3985 10.3937 10.2136 9.54812 9.84292C9.3156 9.7407 9.06305 9.72114 8.82692 9.81536ZM9.18184 11.634C10.054 11.9523 11.1054 12.1763 12 12.1763C12.8875 12.1763 13.8955 11.9673 14.75 11.6633C15.5832 12.1202 16.1538 12.9754 16.1538 13.954V14.8429H7.84615V13.954C7.84615 12.9185 8.4516 12.0456 9.18184 11.634Z" fill="black"/>
<path d="M5.51053 1.6207C3.48165 1.6207 1.83684 3.20099 1.83684 5.15011C1.83684 7.09923 3.48165 8.67952 5.51053 8.67952C6.27227 8.67952 6.99379 8.45629 7.60564 8.04511C8.02141 7.76629 8.12583 7.20423 7.83525 6.80452C7.54466 6.40481 6.98818 6.33247 6.57241 6.61129C6.26667 6.81688 5.89278 6.91481 5.51053 6.91481C4.49604 6.91481 3.67369 6.12511 3.67369 5.15011C3.67369 4.17511 4.49604 3.3854 5.51053 3.3854C5.81012 3.3854 6.08418 3.44893 6.34281 3.57863C6.79284 3.80363 7.37163 3.65188 7.60564 3.21953C7.83975 2.78806 7.65386 2.23127 7.20392 2.00716C6.68492 1.74775 6.10696 1.6207 5.51053 1.6207ZM2.81267 9.8654C1.12819 10.5333 0 12.1701 0 13.9736V15.7383C0 16.2254 0.411178 16.6207 0.918422 16.6207H4.59211C5.09936 16.6207 5.51053 16.2254 5.51053 15.7383C5.51053 15.2513 5.09936 14.856 4.59211 14.856H1.83684V13.9736C1.83684 12.9819 2.44916 12.0713 3.15294 11.6707C3.81485 11.9389 4.51506 12.1419 5.13775 12.1922C5.64325 12.2337 6.09906 11.8675 6.14195 11.3813C6.18484 10.896 5.81958 10.4848 5.31418 10.4434C4.91099 10.4107 4.47033 10.2942 3.9607 10.086C3.83763 10.0357 3.76617 9.99599 3.53023 9.89276C3.29888 9.79129 3.0476 9.77187 2.81267 9.8654Z" fill="black" fill-opacity="0.4"/>
<path d="M18.4895 1.6207C20.5184 1.6207 22.1632 3.20099 22.1632 5.15011C22.1632 7.09923 20.5184 8.67952 18.4895 8.67952C17.7277 8.67952 17.0062 8.45629 16.3944 8.04511C15.9786 7.76629 15.8742 7.20423 16.1648 6.80452C16.4553 6.40481 17.0118 6.33247 17.4276 6.61129C17.7333 6.81688 18.1072 6.91481 18.4895 6.91481C19.504 6.91481 20.3263 6.12511 20.3263 5.15011C20.3263 4.17511 19.504 3.3854 18.4895 3.3854C18.1899 3.3854 17.9158 3.44893 17.6572 3.57863C17.2072 3.80363 16.6284 3.65188 16.3944 3.21953C16.1603 2.78806 16.3461 2.23127 16.7961 2.00716C17.3151 1.74775 17.893 1.6207 18.4895 1.6207ZM21.1873 9.8654C22.8718 10.5333 24 12.1701 24 13.9736V15.7383C24 16.2254 23.5888 16.6207 23.0816 16.6207H19.4079C18.9006 16.6207 18.4895 16.2254 18.4895 15.7383C18.4895 15.2513 18.9006 14.856 19.4079 14.856H22.1632V13.9736C22.1632 12.9819 21.5508 12.0713 20.8471 11.6707C20.1852 11.9389 19.4849 12.1419 18.8623 12.1922C18.3568 12.2337 17.9009 11.8675 17.8581 11.3813C17.8152 10.896 18.1804 10.4848 18.6858 10.4434C19.089 10.4107 19.5297 10.2942 20.0393 10.086C20.1624 10.0357 20.2338 9.99599 20.4698 9.89276C20.7011 9.79129 20.9524 9.77187 21.1873 9.8654Z" fill="black" fill-opacity="0.4"/>
</svg>
