<svg width="25" height="24" viewBox="0 0 25 24" fill="none" xmlns="http://www.w3.org/2000/svg">
<path d="M10.0117 6C9.45972 6 9.01172 6.448 9.01172 7C9.01172 7.552 9.45972 8 10.0117 8H21.0117C21.5637 8 22.0117 7.552 22.0117 7C22.0117 6.448 21.5637 6 21.0117 6H10.0117ZM10.0117 11C9.45972 11 9.01172 11.448 9.01172 12C9.01172 12.552 9.45972 13 10.0117 13H21.0117C21.5637 13 22.0117 12.552 22.0117 12C22.0117 11.448 21.5637 11 21.0117 11H10.0117ZM10.0117 16C9.45972 16 9.01172 16.448 9.01172 17C9.01172 17.552 9.45972 18 10.0117 18H21.0117C21.5637 18 22.0117 17.552 22.0117 17C22.0117 16.448 21.5637 16 21.0117 16H10.0117Z" fill="black" fill-opacity="0.4"/>
<path d="M6.00485 5C5.75003 5 5.48425 5.08594 5.28915 5.28078L4.01401 6.56171L3.73429 6.27996C3.34508 5.89028 2.69209 5.89028 2.30288 6.27996C1.91466 6.67063 1.91466 7.32608 2.30288 7.71676L3.2983 8.71594C3.68751 9.10562 4.3405 9.10562 4.72971 8.71594L6.72056 6.71758C7.10877 6.3269 7.10877 5.67145 6.72056 5.28078C6.52545 5.08594 6.25968 5 6.00485 5ZM6.00485 9.9959C5.75003 9.9959 5.48425 10.0818 5.28915 10.2767L4.01401 11.5576L3.73429 11.2759C3.34508 10.8862 2.69209 10.8862 2.30288 11.2759C1.91466 11.6665 1.91466 12.322 2.30288 12.7127L3.2983 13.7118C3.68751 14.1015 4.3405 14.1015 4.72971 13.7118L6.72056 11.7135C7.10877 11.3228 7.10877 10.6674 6.72056 10.2767C6.52545 10.0818 6.25968 9.9959 6.00485 9.9959ZM6.00485 14.9918C5.75003 14.9918 5.48425 15.0777 5.28915 15.2726L4.01401 16.5535L3.73429 16.2718C3.34508 15.8821 2.69209 15.8821 2.30288 16.2718C1.91466 16.6624 1.91466 17.3179 2.30288 17.7086L3.2983 18.7077C3.68751 19.0974 4.3405 19.0974 4.72971 18.7077L6.72056 16.7094C7.10877 16.3187 7.10877 15.6633 6.72056 15.2726C6.52545 15.0777 6.25968 14.9918 6.00485 14.9918Z" fill="black"/>
</svg>
