<svg width="20" height="20" viewBox="0 0 20 20" fill="none" xmlns="http://www.w3.org/2000/svg">
<path fill-rule="evenodd" clip-rule="evenodd" d="M6.66668 3.33329C5.7462 3.33329 5.00001 4.07949 5.00001 4.99996V15C5.00001 15.9204 5.7462 16.6666 6.66668 16.6666H13.3333C14.2538 16.6666 15 15.9204 15 15V8.33329H16.6667V15C16.6667 16.8409 15.1743 18.3333 13.3333 18.3333H6.66668C4.82573 18.3333 3.33334 16.8409 3.33334 15V4.99996C3.33334 3.15901 4.82573 1.66663 6.66668 1.66663H10V3.33329H6.66668Z" fill="#EBD2B6"/>
<path fill-rule="evenodd" clip-rule="evenodd" d="M11.6667 4.99996V3.41664C13.2993 3.74804 14.5852 5.03402 14.9166 6.66663H13.3333C12.4128 6.66663 11.6667 5.92043 11.6667 4.99996ZM16.6667 7.49996V8.33329H13.3333C11.4924 8.33329 9.99999 6.84091 9.99999 4.99996V1.66663H10.8333C14.055 1.66663 16.6667 4.2783 16.6667 7.49996ZM6.66666 7.49996C6.66666 7.03996 7.03999 6.66663 7.49999 6.66663H8.33332C8.79332 6.66663 9.16666 7.03996 9.16666 7.49996C9.16666 7.95996 8.79332 8.3333 8.33332 8.3333H7.49999C7.03999 8.3333 6.66666 7.95996 6.66666 7.49996ZM6.66666 10.8333C6.66666 10.3733 7.03999 9.99997 7.49999 9.99997H12.5C12.96 9.99997 13.3333 10.3733 13.3333 10.8333C13.3333 11.2933 12.96 11.6666 12.5 11.6666H7.49999C7.03999 11.6666 6.66666 11.2933 6.66666 10.8333ZM6.66666 14.1666C6.66666 13.7066 7.03999 13.3333 7.49999 13.3333H12.5C12.96 13.3333 13.3333 13.7066 13.3333 14.1666C13.3333 14.6267 12.96 15 12.5 15H7.49999C7.03999 15 6.66666 14.6267 6.66666 14.1666Z" fill="#A38664"/>
</svg>
