<svg width="20" height="22" viewBox="0 0 20 22" fill="none" xmlns="http://www.w3.org/2000/svg">
<g clip-path="url(#clip0_5237_44785)">
<path d="M4.39181 6.61832C4.3557 6.6041 4.3208 6.58417 4.28331 6.57649C3.59308 6.43515 3.31245 6.01959 3.46106 5.34716C3.64597 4.51047 3.15968 4.00793 2.60528 3.48901C2.00012 2.92258 2.02852 2.23217 2.61437 1.81727C2.76686 1.70927 2.95793 1.63816 3.14213 1.5916C5.24909 1.05897 7.3507 0.501772 9.47241 0.0327775C9.94519 -0.0717298 10.5018 0.0966274 11.0006 0.216418C12.8114 0.651241 14.615 1.11525 16.4195 1.57534C17.5256 1.85737 17.7896 2.75426 16.9532 3.53165C16.3805 4.06394 15.9831 4.62113 16.1633 5.42164C16.3369 6.19242 15.8316 6.42099 15.1579 6.61493C13.1027 7.28099 11.0718 7.66148 9.00436 7.46159C7.45372 7.31167 5.9284 6.90866 4.39181 6.61832ZM10.512 2.25693C9.72709 1.75228 9.05775 2.23793 8.38032 2.52561C8.25724 2.57788 8.15408 2.8422 8.16359 3.0016C8.21407 3.84823 8.47877 4.60456 9.17396 5.17757C9.58188 5.5138 9.93337 5.54239 10.3654 5.20858C10.8996 4.79572 11.2236 4.27874 11.3573 3.63617C11.5495 2.7118 11.499 2.62695 10.512 2.25693Z" fill="black"/>
<path d="M4.39151 6.66543C5.92859 6.90857 7.45391 7.31158 9.00455 7.4615C11.072 7.66139 13.1029 7.28091 15.1171 6.62646C15.8004 9.47276 14.6203 12.0465 12.1367 13.2211C8.75984 14.818 4.72735 12.6882 4.28314 9.03043C4.19114 8.27285 4.34855 7.48599 4.39151 6.66543Z" fill="black" fill-opacity="0.4"/>
<path d="M8.92755 21.9958C6.43371 21.9955 3.93986 21.9958 1.44602 21.9948C0.341817 21.9943 -0.0998664 21.5016 0.0186998 20.4063C0.31948 17.628 2.1984 15.6782 4.98171 15.2322C5.40932 15.1637 5.63875 15.2669 5.83799 15.6737C6.60598 17.2419 7.42065 18.788 8.23981 20.4179C8.48365 20.9942 8.7056 21.495 8.92755 21.9958Z" fill="black"/>
<path d="M11.2758 20.5181C12.1119 18.8999 12.9607 17.2879 13.7746 15.6591C13.9598 15.2883 14.1689 15.1644 14.5813 15.2226C17.3594 15.615 19.4497 17.8367 19.6123 20.5934C19.6663 21.5084 19.2079 21.9925 18.2645 21.9944C15.7531 21.9995 13.2416 21.9978 10.6887 21.953C10.8568 21.4441 11.0663 20.9811 11.2758 20.5181ZM14.266 20.4077C14.4328 20.4467 14.6569 20.573 14.7567 20.5098C15.2221 20.215 15.6453 20.2074 16.0919 20.5303C16.1873 20.5992 16.3328 20.6011 16.6217 20.6784C16.2934 19.7823 16.6269 19.1308 17.2402 18.5163C16.2765 18.5293 15.7678 18.0539 15.401 17.2452C15.1037 18.1284 14.4623 18.4779 13.5682 18.5714C14.1188 19.1082 14.57 19.5848 14.266 20.4077Z" fill="black"/>
<path d="M11.2469 20.4869C11.0661 20.9808 10.8566 21.4439 10.6368 21.9434C10.0976 21.988 9.56866 21.9961 8.98359 21.9999C8.70547 21.4948 8.48352 20.994 8.25995 20.453C8.34196 20.2333 8.43839 20.0583 8.5059 19.8731C8.58428 19.658 8.61886 19.4269 8.70436 19.2152C9.19061 18.0111 8.98683 16.9295 8.15656 15.934C7.99225 15.737 7.91087 15.4731 7.75806 15.1755C9.12477 15.1755 10.413 15.1755 11.7988 15.1755C11.6966 15.4063 11.6524 15.6385 11.5164 15.7923C10.4977 16.9439 10.4811 18.2165 10.9865 19.5718C11.0926 19.8562 11.1424 20.1607 11.2469 20.4869Z" fill="black" fill-opacity="0.4"/>
<path d="M10.554 2.27546C11.4991 2.62696 11.5496 2.71181 11.3574 3.63619C11.2237 4.27875 10.8997 4.79573 10.3655 5.20859C9.93348 5.54241 9.58199 5.51382 9.17406 5.17758C8.47888 4.60458 8.21417 3.84824 8.16369 3.00162C8.15419 2.84221 8.25734 2.57789 8.38042 2.52562C9.05785 2.23794 9.7272 1.75229 10.554 2.27546Z" fill="#FAFBFA"/>
<path d="M14.2621 20.3625C14.57 19.5846 14.1187 19.108 13.5681 18.5712C14.4622 18.4777 15.1037 18.1282 15.401 17.2451C15.7677 18.0537 16.2764 18.5292 17.2402 18.5161C16.6269 19.1306 16.2933 19.7821 16.6216 20.6783C16.3328 20.6009 16.1872 20.599 16.0918 20.5301C15.6453 20.2072 15.222 20.2148 14.7566 20.5096C14.6568 20.5729 14.4328 20.4465 14.2621 20.3625Z" fill="black"/>
</g>
<defs>
<clipPath id="clip0_5237_44785">
<rect width="20" height="22" fill="white"/>
</clipPath>
</defs>
</svg>
