<svg width="24" height="24" viewBox="0 0 24 24" fill="none" xmlns="http://www.w3.org/2000/svg">
<g clip-path="url(#clip0_796_16035)">
<path d="M10.8593 16.2485C10.8593 15.5938 10.8593 14.9391 10.8593 14.2206C10.5536 14.2206 10.3385 14.2206 10.1235 14.2206C7.21818 14.2206 4.31287 14.2222 1.40756 14.2195C0.622289 14.2188 0.153529 13.9053 0.0338264 13.3196C-0.13712 12.4832 0.35224 11.8457 1.22175 11.8192C1.99708 11.7955 2.7737 11.8142 3.62534 11.8142C3.62534 11.1325 3.62534 10.5175 3.67735 9.84578C4.46852 10.0949 5.2062 9.98342 5.94356 9.78113C5.94356 10.4209 5.94356 11.0607 5.94356 11.7569C9.98118 11.7569 13.9869 11.7569 18.0692 11.7569C18.0692 11.1318 18.0692 10.5172 18.1212 9.84578C18.9123 10.0949 19.65 9.98342 20.3874 9.78113C20.3874 10.4213 20.3874 11.0616 20.3874 11.8139C21.1875 11.8139 21.9584 11.8022 22.7288 11.817C23.5934 11.8337 24.088 12.3921 23.989 13.2095C23.9128 13.8381 23.4201 14.2178 22.6442 14.2189C19.7382 14.2231 16.8322 14.2206 13.9263 14.2206C13.7073 14.2206 13.4884 14.2206 13.1635 14.2206C13.1635 14.8862 13.1635 15.5183 13.1139 16.2074C12.3318 15.9302 11.5958 16.0474 10.8593 16.2485Z" fill="#999999"/>
<path d="M5.9795 9.7598C5.20683 9.98357 4.46915 10.095 3.68214 9.79135C1.82086 8.7749 1.24692 6.89065 2.29734 5.34989C2.99043 4.33326 3.9694 3.85407 5.19022 4.03895C6.54153 4.24359 7.38899 5.08184 7.68193 6.39834C7.96223 7.65807 7.47469 8.67451 6.47323 9.45531C6.33245 9.56508 6.1682 9.64474 5.9795 9.7598ZM4.43982 7.84348C5.26894 7.98273 5.82909 7.51472 5.67063 6.81147C5.56985 6.36418 5.25421 6.06279 4.83131 6.12121C4.5103 6.16555 4.10584 6.39306 3.9491 6.66186C3.68903 7.10785 3.89031 7.54439 4.43982 7.84348Z" fill="black"/>
<path d="M20.4224 9.7598C19.6497 9.98357 18.912 10.095 18.125 9.79135C16.2637 8.77489 15.6898 6.89065 16.7402 5.34989C17.4333 4.33326 18.4123 3.85407 19.6331 4.03895C20.9844 4.24359 21.8319 5.08184 22.1248 6.39834C22.4051 7.65806 21.9176 8.67451 20.9161 9.45531C20.7753 9.56507 20.6111 9.64473 20.4224 9.7598ZM19.5804 7.83466C19.9894 7.64252 20.2232 7.30156 20.1057 6.87783C20.0311 6.60892 19.7842 6.24603 19.5554 6.19608C19.2398 6.12717 18.7479 6.20582 18.555 6.42131C18.3637 6.63512 18.3352 7.13642 18.4405 7.44052C18.5936 7.88222 19.0377 7.97503 19.5804 7.83466Z" fill="black"/>
<path d="M10.8239 16.2706C11.5956 16.0477 12.3315 15.9304 13.112 16.2636C13.9257 16.6717 14.543 17.2198 14.8229 18.0726C15.3217 19.5922 14.597 21.176 13.1245 21.7966C11.7199 22.3885 10.0252 21.7643 9.32936 20.3987C8.62466 19.0158 9.09294 17.3489 10.4257 16.5018C10.5434 16.427 10.6675 16.3621 10.8239 16.2706ZM12.183 19.9138C12.6643 19.8148 12.9667 19.4793 12.8877 19.0338C12.8328 18.7243 12.5484 18.3329 12.2694 18.2218C12.0141 18.1201 11.5348 18.2504 11.3281 18.4546C11.1425 18.6379 11.0985 19.0813 11.1619 19.3729C11.258 19.8141 11.6596 19.952 12.183 19.9138Z" fill="black"/>
</g>
<defs>
<clipPath id="clip0_796_16035">
<rect width="24" height="24" fill="white"/>
</clipPath>
</defs>
</svg>
