<svg width="11" height="11" viewBox="0 0 11 11" fill="none" xmlns="http://www.w3.org/2000/svg">
<path d="M5.5047 1.11899C5.24304 1.1189 4.97583 1.2817 4.81757 1.60574L3.84412 3.60989L1.62523 3.92482C0.911655 4.02409 0.680471 4.72415 1.19578 5.2274L2.79907 6.78803L2.4269 8.9784C2.30435 9.68744 2.89243 10.116 3.5292 9.78003C3.77523 9.64986 5.04028 8.99444 5.5047 8.74923L7.48021 9.78003C8.11771 10.116 8.70763 9.6879 8.58251 8.9784L8.19599 6.78803L9.79933 5.2274C10.3171 4.72598 10.0978 4.02611 9.38418 3.92482L7.15099 3.60989L6.19184 1.60574C6.0338 1.28156 5.76637 1.11913 5.5047 1.11899ZM5.5047 2.30717L6.44951 4.23978C6.51616 4.3765 6.64252 4.4618 6.79308 4.48316L8.94042 4.79794L7.38002 6.30127C7.2708 6.40715 7.22478 6.55244 7.25118 6.70186L7.6234 8.82073L5.71943 7.81882C5.58569 7.74823 5.42367 7.74823 5.28998 7.81882C5.05242 7.94394 3.89137 8.55398 3.38601 8.82073L3.74393 6.71653C3.76955 6.56757 3.72293 6.40669 3.61509 6.30127L2.06899 4.79794L4.20198 4.49746C4.35296 4.47646 4.49298 4.37673 4.5599 4.23978L5.5047 2.30717Z" fill="white"/>
<path d="M5.51091 2.30716L6.45572 4.23977C6.52236 4.37649 6.64872 4.46179 6.79928 4.48315L8.94662 4.79793L7.38623 6.30126C7.277 6.40714 7.23099 6.55243 7.25739 6.70185L7.6296 8.82072L5.72564 7.81881C5.5919 7.74822 5.42988 7.74822 5.29618 7.81881C5.05863 7.94393 3.89758 8.55397 3.39222 8.82072L3.75013 6.71652C3.77575 6.56756 3.72914 6.40668 3.62129 6.30126L2.0752 4.79793L4.20819 4.49745C4.35916 4.47645 4.49918 4.37672 4.5661 4.23977L5.51091 2.30716Z" fill="white" fill-opacity="0.4"/>
</svg>
