<svg width="25" height="24" viewBox="0 0 25 24" fill="none" xmlns="http://www.w3.org/2000/svg">
<path d="M12.5 2C6.9772 2 2.5 6.477 2.5 12C2.5 17.523 6.9772 22 12.5 22C18.023 22 22.5 17.523 22.5 12C22.5 6.477 18.023 2 12.5 2ZM12.5 4C16.918 4 20.5 7.582 20.5 12C20.5 16.418 16.918 20 12.5 20C8.0817 20 4.5 16.418 4.5 12C4.5 7.582 8.0817 4 12.5 4Z" fill="#0FBD73"/>
<path fill-rule="evenodd" clip-rule="evenodd" d="M13.5 8C13.5 7.44772 13.0523 7 12.5 7C11.9477 7 11.5 7.44772 11.5 8V11H8.5C7.94772 11 7.5 11.4477 7.5 12C7.5 12.5523 7.94772 13 8.5 13H11.5V16C11.5 16.5523 11.9477 17 12.5 17C13.0523 17 13.5 16.5523 13.5 16V13H16.5C17.0523 13 17.5 12.5523 17.5 12C17.5 11.4477 17.0523 11 16.5 11H13.5V8Z" fill="#1DC690"/>
</svg>
