<svg width="22" height="21" viewBox="0 0 22 21" fill="none" xmlns="http://www.w3.org/2000/svg">
<path d="M5.15614 4.27148C4.93256 4.27148 4.69875 4.3431 4.52811 4.50549C4.18692 4.83109 4.18692 5.37735 4.52811 5.70295L10.0162 10.9334L4.52811 16.1638C4.18692 16.4894 4.18692 17.0356 4.52811 17.3612C4.86939 17.686 5.4429 17.686 5.78418 17.3612L11.2722 12.1308L16.7603 17.3612C17.1015 17.686 17.675 17.686 18.0163 17.3612C18.3575 17.0356 18.3575 16.4894 18.0163 16.1638L12.5282 10.9334L18.0163 5.70295C18.3575 5.37735 18.3575 4.83109 18.0163 4.50549C17.8457 4.3431 17.6118 4.27148 17.3883 4.27148C17.1647 4.27148 16.931 4.3431 16.7603 4.50549L11.2722 9.73589L5.78418 4.50549C5.61354 4.3431 5.37973 4.27148 5.15614 4.27148Z" fill="white"/>
</svg>
