<svg width="16" height="13" viewBox="0 0 16 13" fill="none" xmlns="http://www.w3.org/2000/svg">
<path d="M8 0.998291C5.77786 0.998291 3.90568 2.08878 2.36768 3.88128C1.84125 4.49403 1.3809 5.14879 1.00616 5.80279C0.780116 6.19879 0.641934 6.50478 0.560829 6.69378C0.479724 6.88203 0.479724 7.11453 0.560829 7.30278C0.641934 7.49178 0.780116 7.79777 1.00616 8.19377C1.3809 8.84777 1.84125 9.50253 2.36768 10.1153C3.90568 11.9078 5.77786 12.9983 8 12.9983C10.2221 12.9983 12.0943 11.9078 13.6323 10.1153C14.158 9.50253 14.6191 8.84777 14.9931 8.19377C15.2199 7.79777 15.3581 7.49178 15.4392 7.30278C15.5203 7.11453 15.5203 6.88203 15.4392 6.69378C15.3581 6.50478 15.2199 6.19879 14.9931 5.80279C14.6191 5.14879 14.158 4.49403 13.6323 3.88128C12.0943 2.08878 10.2221 0.998291 8 0.998291ZM8 2.49829C9.72049 2.49829 11.2277 3.37654 12.5059 4.86529C12.9655 5.40079 13.3492 5.97679 13.6789 6.55278C13.7953 6.75603 13.8456 6.86103 13.9139 6.99828C13.8456 7.13553 13.7953 7.24052 13.6789 7.44377C13.3492 8.01977 12.9655 8.59577 12.5059 9.13127C11.2277 10.62 9.72049 11.4983 8 11.4983C6.27951 11.4983 4.77231 10.62 3.49415 9.13127C3.03455 8.59577 2.6508 8.01977 2.32037 7.44377C2.20472 7.24052 2.1544 7.13553 2.08607 6.99828C2.1544 6.86103 2.20472 6.75603 2.32037 6.55278C2.6508 5.97679 3.03455 5.40079 3.49415 4.86529C4.77231 3.37654 6.27951 2.49829 8 2.49829Z" fill="#1C82AD"/>
<path d="M8 4C6.34325 4 5 5.34325 5 6.99999C5 8.65674 6.34325 9.99999 8 9.99999C9.65675 9.99999 11 8.65674 11 6.99999C11 6.58599 10.664 6.25 10.25 6.25C9.836 6.25 9.5 6.58599 9.5 6.99999C9.5 7.82874 8.828 8.49999 8 8.49999C7.17125 8.49999 6.5 7.82874 6.5 6.99999C6.5 6.17125 7.17125 5.5 8 5.5C8.18375 5.5 8.372 5.53075 8.53925 5.59375C8.92625 5.74 9.35375 5.536 9.5 5.14825C9.64625 4.76125 9.44226 4.33375 9.05451 4.1875C8.71851 4.06075 8.36525 4 8 4Z" fill="#08C28D"/>
</svg>
