<svg width="24" height="24" viewBox="0 0 24 24" fill="none" xmlns="http://www.w3.org/2000/svg">
<path d="M14.6966 5.1347H10.0925V7.43678H14.6966V5.1347Z" fill="black"/>
<path d="M23.136 5.13472H22.368V4.36672C22.3711 4.31548 22.3633 4.26418 22.3451 4.2162C22.3268 4.16821 22.2987 4.12464 22.2624 4.08835C22.2261 4.05206 22.1825 4.02388 22.1345 4.00567C22.0865 3.98746 22.0352 3.97964 21.984 3.98272H19.68C19.6288 3.97964 19.5775 3.98746 19.5295 4.00567C19.4815 4.02388 19.4379 4.05206 19.4016 4.08835C19.3653 4.12464 19.3372 4.16821 19.319 4.2162C19.3007 4.26418 19.2929 4.31548 19.296 4.36672V5.13472H15.456V7.816C15.4591 7.86723 15.4513 7.91853 15.4331 7.96651C15.4148 8.0145 15.3867 8.05807 15.3504 8.09436C15.3141 8.13066 15.2705 8.15883 15.2225 8.17704C15.1745 8.19525 15.1232 8.20308 15.072 8.2H9.696C9.64477 8.20308 9.59347 8.19525 9.54549 8.17704C9.4975 8.15883 9.45392 8.13066 9.41763 8.09436C9.38134 8.05807 9.35316 8.0145 9.33495 7.96651C9.31675 7.91853 9.30892 7.86723 9.312 7.816V5.128H5.856V4.36C5.85908 4.30876 5.85126 4.25746 5.83305 4.20948C5.81484 4.16149 5.78666 4.11792 5.75037 4.08163C5.71408 4.04534 5.6705 4.01716 5.62252 3.99895C5.57453 3.98074 5.52323 3.97292 5.472 3.976H3.168C3.06616 3.976 2.96849 4.01645 2.89647 4.08847C2.82446 4.16048 2.784 4.25815 2.784 4.36V5.128H0.864001C0.762158 5.128 0.664486 5.16845 0.592472 5.24047C0.520458 5.31248 0.480001 5.41015 0.480001 5.512V6.664C0.487955 6.74559 0.514206 6.82435 0.556801 6.8944L0.979201 7.4704C1.12911 7.68398 1.20955 7.93857 1.20955 8.19952C1.20955 8.46046 1.12911 8.71506 0.979201 8.92864L0.556801 9.50464C0.514206 9.57469 0.487955 9.65344 0.480001 9.73504V10.887C0.476922 10.9383 0.484744 10.9896 0.502953 11.0376C0.521161 11.0855 0.549341 11.1291 0.585632 11.1654C0.621923 11.2017 0.6655 11.2299 0.713484 11.2481C0.761469 11.2663 0.81277 11.2741 0.864001 11.271H2.3424C2.52562 11.2692 2.70627 11.3141 2.86734 11.4015C3.02841 11.4888 3.16459 11.6157 3.26304 11.7702C3.45504 12.0774 3.49344 12.4989 3.30144 12.8061L0.730561 17.992C0.269761 18.9894 0.461761 20.1405 1.15296 21.0227C1.44716 21.3393 1.80381 21.5913 2.20038 21.763C2.59695 21.9347 3.02483 22.0223 3.45696 22.0202H7.7904C8.13026 22.0215 8.46324 21.9244 8.7491 21.7406C9.03497 21.5568 9.26148 21.2941 9.40128 20.9843C9.55062 20.6803 9.60485 20.3383 9.5569 20.003C9.50895 19.6677 9.36104 19.3546 9.13248 19.1046L8.63328 18.567C8.57227 18.4769 8.54507 18.3681 8.55648 18.2598L9.55488 15.112H11.5882C11.9967 15.1136 12.4015 15.0344 12.7793 14.8788C13.1571 14.7232 13.5003 14.4944 13.7892 14.2055C14.0781 13.9166 14.3069 13.5734 14.4625 13.1956C14.6181 12.8179 14.6973 12.413 14.6957 12.0045V11.272H16.9997C17.0509 11.2751 17.1022 11.2673 17.1502 11.249C17.1982 11.2308 17.2418 11.2027 17.2781 11.1664C17.3143 11.1301 17.3425 11.0865 17.3607 11.0385C17.3789 10.9905 17.3868 10.9392 17.3837 10.888H21.9917C22.0429 10.8911 22.0942 10.8833 22.1422 10.865C22.1902 10.8468 22.2338 10.8187 22.2701 10.7824C22.3063 10.7461 22.3345 10.7025 22.3527 10.6545C22.3709 10.6065 22.3788 10.5552 22.3757 10.504V9.352H23.1437C23.1949 9.35508 23.2462 9.34725 23.2942 9.32904C23.3422 9.31083 23.3858 9.28266 23.4221 9.24636C23.4583 9.21007 23.4865 9.1665 23.5047 9.11851C23.5229 9.07053 23.5308 9.01923 23.5277 8.968V5.512C23.5268 5.46148 23.516 5.41164 23.4958 5.36532C23.4756 5.319 23.4465 5.27712 23.4101 5.24207C23.3738 5.20702 23.3308 5.1795 23.2838 5.16108C23.2367 5.14266 23.1865 5.1337 23.136 5.13472ZM3.56928 4.75072H5.10528V5.13472H3.56928V4.75072ZM3.18528 7.43872H7.79328C7.89513 7.43872 7.9928 7.47917 8.06481 7.55119C8.13683 7.6232 8.17728 7.72087 8.17728 7.82272C8.17728 7.92456 8.13683 8.02223 8.06481 8.09424C7.9928 8.16626 7.89513 8.20672 7.79328 8.20672H3.18528C3.13405 8.2098 3.08275 8.20197 3.03476 8.18376C2.98678 8.16556 2.9432 8.13738 2.90691 8.10108C2.87062 8.06479 2.84244 8.02122 2.82423 7.97323C2.80602 7.92525 2.7982 7.87395 2.80128 7.82272C2.80103 7.77205 2.81081 7.72183 2.83005 7.67495C2.84929 7.62808 2.87762 7.58548 2.91341 7.5496C2.94919 7.51373 2.99173 7.48529 3.03855 7.46593C3.08538 7.44657 3.13557 7.43667 3.18624 7.4368L3.18528 7.43872ZM3.18528 9.74272C3.08344 9.74272 2.98577 9.70226 2.91375 9.63024C2.84174 9.55823 2.80128 9.46056 2.80128 9.35872C2.80128 9.25687 2.84174 9.1592 2.91375 9.08719C2.98577 9.01517 3.08344 8.97472 3.18528 8.97472H7.79328C7.89513 8.97472 7.9928 9.01517 8.06481 9.08719C8.13683 9.1592 8.17728 9.25687 8.17728 9.35872C8.17728 9.46056 8.13683 9.55823 8.06481 9.63024C7.9928 9.70226 7.89513 9.74272 7.79328 9.74272H3.18528ZM7.02528 13.9667C7.02528 14.1186 6.98024 14.2671 6.89585 14.3934C6.81146 14.5197 6.69152 14.6181 6.55118 14.6763C6.41085 14.7344 6.25643 14.7496 6.10745 14.72C5.95847 14.6903 5.82163 14.6172 5.71422 14.5098C5.60682 14.4024 5.53367 14.2655 5.50404 14.1165C5.4744 13.9676 5.48961 13.8131 5.54774 13.6728C5.60587 13.5325 5.70431 13.4125 5.8306 13.3281C5.9569 13.2438 6.10539 13.1987 6.25728 13.1987C6.45931 13.1995 6.65291 13.2798 6.79612 13.4223C6.93934 13.5648 7.02064 13.758 7.0224 13.96L7.02528 13.9667ZM9.21216 13.6979L8.90496 14.6579L7.83072 18.1139V18.1907C7.80927 18.3397 7.81865 18.4914 7.85828 18.6366C7.89792 18.7817 7.96696 18.9172 8.06112 19.0346C8.06099 19.0396 8.06189 19.0447 8.06378 19.0494C8.06566 19.0541 8.06848 19.0584 8.07208 19.062C8.07567 19.0656 8.07995 19.0684 8.08467 19.0703C8.08939 19.0722 8.09444 19.0731 8.09952 19.073L8.59872 19.649C8.73377 19.7893 8.82127 19.9685 8.84883 20.1613C8.8764 20.3541 8.84263 20.5507 8.75232 20.7232C8.59872 21.1072 8.25312 21.2992 7.83168 21.2992H3.456C2.76576 21.2992 2.15136 21.0304 1.76832 20.5312C1.50693 20.23 1.33873 19.8593 1.28419 19.4642C1.22965 19.0691 1.29112 18.6667 1.46112 18.3059L3.99168 13.192C4.14024 12.9118 4.21143 12.597 4.19794 12.2801C4.18444 11.9633 4.08673 11.6557 3.91488 11.3891C3.87648 11.3507 3.87648 11.3123 3.83808 11.2739H5.29632L2.1504 18.64C2.05374 18.8684 2.02407 19.1196 2.06487 19.3642C2.10567 19.6088 2.21525 19.8368 2.3808 20.0214C2.6112 20.3286 2.99424 20.4822 3.45504 20.4822H5.29632C5.54368 20.4852 5.78543 20.4085 5.98581 20.2635C6.18619 20.1184 6.33456 19.9127 6.40896 19.6768L9.20928 11.272H9.93792L9.21216 13.6979ZM5.48832 17.8C5.48832 17.9519 5.44328 18.1004 5.35889 18.2267C5.2745 18.353 5.15456 18.4514 5.01422 18.5095C4.87389 18.5677 4.71947 18.5829 4.57049 18.5532C4.42151 18.5236 4.28467 18.4505 4.17726 18.3431C4.06986 18.2356 3.99671 18.0988 3.96708 17.9498C3.93744 17.8008 3.95265 17.6464 4.01078 17.5061C4.06891 17.3658 4.16735 17.2458 4.29364 17.1614C4.41994 17.077 4.56843 17.032 4.72032 17.032C4.92401 17.032 5.11935 17.1129 5.26338 17.2569C5.40741 17.401 5.48832 17.5963 5.48832 17.8ZM13.9286 12.0064C13.9303 12.3141 13.8709 12.619 13.7538 12.9036C13.6367 13.1881 13.4644 13.4466 13.2467 13.664C13.0289 13.8815 12.7703 14.0535 12.4856 14.1703C12.2009 14.287 11.8958 14.346 11.5882 14.344H9.78528L10.4755 12.1571C10.7827 12.7706 11.281 13.1171 12.2784 13.4234C12.3168 13.4234 12.3552 13.4618 12.3936 13.4618C12.4724 13.4598 12.5484 13.4326 12.6106 13.3842C12.6728 13.3358 12.7179 13.2688 12.7392 13.193C12.772 13.0961 12.7665 12.9903 12.7236 12.8974C12.6807 12.8045 12.6038 12.7316 12.5088 12.6938C11.3962 12.3098 11.1648 12.0035 10.9728 11.3498C10.9728 11.3114 10.9344 11.3114 10.9344 11.273H13.9267V12.0016L13.9286 12.0064ZM21.6 10.12H17.376C17.376 9.91631 17.4569 9.72097 17.6009 9.57694C17.745 9.43291 17.9403 9.352 18.144 9.352H21.6V10.12ZM21.6 5.128H20.064V4.744H21.6V5.128Z" fill="#999999"/>
</svg>
