<svg width="16" height="16" viewBox="0 0 16 16" fill="none" xmlns="http://www.w3.org/2000/svg">
<path d="M6.3763 10.5577C6.183 10.2945 6.02977 10.0699 5.89511 9.87451L3.89712 6.90719C3.69312 6.61055 3.26711 6.52802 2.96178 6.72535C2.65645 6.92333 2.57111 7.33605 2.77444 7.63205L4.77312 10.5994C5.37312 11.4725 6.54379 11.5834 7.30845 10.8418C7.00008 10.8802 6.66675 10.9532 6.3763 10.5577Z" fill="white"/>
<path d="M12.6607 4C12.4907 4 12.3127 4.05546 12.1827 4.18121L6.37604 9.93283C6.2047 10.0992 6.05386 10.1082 5.91919 9.91284C5.91919 9.91284 6.18388 10.2939 6.37604 10.5577C6.66659 10.9566 6.99992 10.8802 7.31138 10.8402L13.1387 5.10854C13.398 4.85639 13.398 4.43336 13.1387 4.18121C13.0087 4.05546 12.8307 4 12.6607 4Z" fill="white"/>
</svg>
