<svg width="27" height="27" viewBox="0 0 27 27" fill="none" xmlns="http://www.w3.org/2000/svg">
<path fill-rule="evenodd" clip-rule="evenodd" d="M3.375 7.875C3.375 5.38972 5.38972 3.375 7.875 3.375H12.375C12.9963 3.375 13.5 3.87868 13.5 4.5C13.5 5.12132 12.9963 5.625 12.375 5.625H7.875C6.63236 5.625 5.625 6.63236 5.625 7.875V19.125C5.625 20.3676 6.63236 21.375 7.875 21.375H19.125C20.3676 21.375 21.375 20.3676 21.375 19.125V14.625C21.375 14.0037 21.8787 13.5 22.5 13.5C23.1213 13.5 23.625 14.0037 23.625 14.625V19.125C23.625 21.6103 21.6103 23.625 19.125 23.625H7.875C5.38972 23.625 3.375 21.6103 3.375 19.125V7.875Z" fill="#A38664" fill-opacity="0.4"/>
<path opacity="0.986784" d="M19.125 2.25C18.8269 2.25 18.5276 2.35576 18.3161 2.56613C16.6286 4.25363 16.6286 4.25363 16.0661 4.81613L8.19113 12.6911C7.98076 12.9026 7.875 13.2019 7.875 13.5V18C7.875 18.621 8.379 19.125 9 19.125C9.5625 19.125 12.9375 19.125 13.5 19.125C13.7981 19.125 14.0974 19.0192 14.3089 18.8089L22.1839 10.9339C22.7464 10.3714 22.7464 10.3714 24.4339 8.68387C24.6442 8.47237 24.75 8.17312 24.75 7.875C24.75 6.0345 24.2809 4.71939 23.3089 3.72601C22.3267 2.72476 21.0161 2.25 19.125 2.25ZM19.5829 4.52135C20.5976 4.58098 21.24 4.81274 21.6911 5.27399C22.1524 5.74424 22.4179 6.45414 22.4797 7.44976C21.9296 7.99989 21.5887 8.32614 21.3795 8.53651C20.4874 7.64551 19.3556 6.52385 18.4646 5.63173C18.675 5.42135 19.0327 5.07148 19.5829 4.52135ZM16.8772 7.22928L19.7854 10.1295L13.0072 16.875C12.2962 16.875 11.1611 16.875 10.125 16.875V13.9927L16.8772 7.22928Z" fill="#A38664"/>
</svg>
