<svg width="24" height="24" viewBox="0 0 24 24" fill="none" xmlns="http://www.w3.org/2000/svg">
<path d="M14.3669 20.4259C14.5297 20.5936 14.7581 20.6519 14.8253 20.8717C14.7009 21.0604 14.5057 20.9851 14.3444 20.9854C11.3751 20.99 8.40587 20.9913 5.43661 20.987C4.04075 20.985 3.00705 19.9864 3.00507 18.6232C2.99864 14.2047 2.99858 9.78618 3.00346 5.36765C3.00497 4.00482 4.02438 3.01226 5.43971 3.00745C8.47314 2.99714 11.5066 2.99831 14.5401 3.00622C15.8462 3.00963 16.8224 3.84341 16.931 5.10021C17.0612 6.6049 16.9649 8.11607 16.9769 9.62436C16.979 9.8879 16.8684 10.0639 16.5904 10.1391C16.332 10.2089 16.0807 10.3036 15.8382 10.3835C15.6496 10.2009 15.7116 10.0042 15.7109 9.82749C15.7051 8.36504 15.71 6.90255 15.7059 5.44009C15.7034 4.55767 15.3296 4.19612 14.4156 4.19528C11.4624 4.19256 8.50915 4.19224 5.55594 4.19518C4.65 4.19608 4.22722 4.60872 4.23074 5.48143C4.24134 8.10902 4.26351 10.7366 4.26534 13.3642C4.26651 15.0595 4.23556 16.7548 4.22737 18.4501C4.22267 19.4214 4.62683 19.8079 5.62543 19.8083C8.03294 19.8091 10.4408 19.8293 12.8477 19.7941C13.4749 19.7849 13.978 19.8877 14.3669 20.4259Z" fill="#999999"/>
<path d="M16.5521 20.7905C14.3389 20.0552 12.9765 18.1696 13.0003 15.9096C13.0261 13.4605 14.8012 11.4432 17.2676 11.0601C20.0869 10.6223 22.706 12.627 22.974 15.4278C23.3233 19.0795 20.1021 21.7906 16.5521 20.7905ZM18.4312 12.1916C16.1518 11.9248 14.1417 13.7003 14.1797 16.0795C14.2179 18.4769 16.3506 20.1715 18.6773 19.7707C20.5579 19.4468 21.8591 17.8093 21.8185 15.8176C21.7814 14.0007 20.3421 12.4316 18.4312 12.1916Z" fill="black"/>
<path d="M8.09183 8.99988C7.28407 8.99912 6.52293 9.00218 5.7619 8.99616C5.27583 8.99231 4.98721 8.78551 5.00044 8.46798C5.01243 8.18008 5.29742 8.00246 5.77922 8.00197C8.26443 7.99945 10.7496 7.99939 13.2349 8.00155C13.7671 8.00201 14.0055 8.16512 13.9999 8.505C13.9944 8.84012 13.7574 8.99628 13.2176 8.99746C11.5246 9.00116 9.83154 8.99946 8.09183 8.99988Z" fill="black"/>
<path d="M9.84691 11.9998C8.47415 11.9997 7.14877 12.0009 5.8234 11.9986C5.29827 11.9976 5.01473 11.8281 5.00053 11.5175C4.98566 11.1924 5.28329 11.0021 5.83127 11.0015C7.94555 10.9991 10.0598 11.0003 12.1741 11.0003C12.2372 11.0003 12.3005 10.9999 12.3634 11.0028C12.7466 11.0207 13.0011 11.1618 13 11.5076C12.9989 11.8566 12.7416 11.9957 12.3557 11.9974C11.5352 12.001 10.7148 11.9993 9.84691 11.9998Z" fill="black"/>
<path d="M6.40249 14.0001C7.624 14.0001 8.79649 13.9993 9.96897 14.0016C10.15 14.002 10.335 14.0011 10.5111 14.0287C10.8248 14.0779 10.9972 14.2385 11 14.4946C11.0027 14.7502 10.8372 14.9214 10.5226 14.9669C10.2817 15.0017 10.0301 14.998 9.78315 14.9985C8.5281 15.001 7.27304 15 6.01798 14.9981C5.85334 14.9979 5.68335 15.0036 5.52523 14.9747C5.20083 14.9155 4.99686 14.746 5.00004 14.4798C5.00332 14.2046 5.23506 14.0547 5.56234 14.0205C5.82257 13.9932 6.08951 14.0056 6.40249 14.0001Z" fill="black"/>
<path d="M17.6248 16.6558C17.6032 16.4057 17.3896 16.3337 17.2603 16.2028C16.8293 15.766 17.0095 15.2414 17.6423 15.0799C18.6653 14.819 19.2524 15.2036 19.2645 16.1374C19.2682 16.4225 19.2997 16.7075 19.2997 16.9926C19.2997 17.3348 19.3027 17.6364 19.7472 17.824C20.0132 17.9362 20.0366 18.2399 19.9655 18.4993C19.8917 18.7685 19.6861 18.9563 19.378 18.9708C18.8131 18.9974 18.2412 19.02 17.6803 18.9717C17.0862 18.9207 16.7642 18.2606 17.2047 17.935C17.7051 17.565 17.6464 17.1508 17.6248 16.6558Z" fill="black"/>
<path d="M19 13.5912C18.9411 13.8612 18.7718 13.9837 18.5352 13.9987C18.3467 14.0107 18.1782 13.9401 18.0784 13.7637C17.9767 13.5839 17.968 13.3974 18.0874 13.2229C18.2188 13.031 18.4064 12.964 18.6306 13.0181C18.8916 13.0811 18.9918 13.2339 19 13.5912Z" fill="black"/>
</svg>
