<svg width="24" height="24" viewBox="0 0 24 24" fill="none" xmlns="http://www.w3.org/2000/svg">
<path d="M5 19H19V20C19 21.1046 18.1046 22 17 22H7C5.89543 22 5 21.1046 5 20V19Z" fill="black" fill-opacity="0.4"/>
<path d="M13 5C13 4.44772 13.4477 4 14 4C14.5523 4 15 4.44772 15 5V13C15 13.5523 15.4477 14 16 14C16.5523 14 17 13.5523 17 13V11.0298C17.5523 11.0997 17.9726 11.2909 18.2725 11.5868C18.6537 11.9629 19 12.6661 19 14C19 15.1823 18.4001 16.3449 17.683 17.3608C17.3878 17.7791 17.095 18.1427 16.8356 18.4648C16.785 18.5277 16.7357 18.589 16.6879 18.6487C16.5947 18.7652 16.5 18.885 16.415 19H18.9604C19.0771 18.8464 19.1972 18.6839 19.317 18.5142C20.0999 17.4051 21 15.8177 21 14C21 12.3339 20.5628 11.0371 19.6773 10.1632C18.925 9.42093 17.9655 9.09878 17 9.01997V5C17 3.34315 15.6569 2 14 2C12.3431 2 11 3.34315 11 5V6.17071C10.6872 6.06015 10.3506 6 10 6C8.69378 6 7.58254 6.83481 7.17071 8H7C4.79086 8 3 9.79086 3 12V13C3 15.0085 3.85023 16.941 4.63176 18.3086C4.77227 18.5545 4.91268 18.7858 5.04867 19H7.48194C7.43774 18.942 7.38923 18.8773 7.33713 18.8064C7.07303 18.4469 6.72023 17.9323 6.36824 17.3164C5.64977 16.059 5 14.4915 5 13V12C5 10.8954 5.89543 10 7 10L7 12C7 12.5523 7.44772 13 8 13C8.55228 13 9 12.5523 9 12V9C9 8.44772 9.44772 8 10 8C10.5523 8 11 8.44772 11 9V11C11 11.5523 11.4477 12 12 12C12.5523 12 13 11.5523 13 11V5Z" fill="black"/>
</svg>
