<svg width="35" height="35" viewBox="0 0 35 35" fill="none" xmlns="http://www.w3.org/2000/svg">
<path d="M6.84451 4.75C5.62654 4.75 4.62622 5.74925 4.62622 6.96723V10.8711C4.62594 10.9443 4.64014 11.0168 4.668 11.0844C4.69587 11.152 4.73685 11.2135 4.78858 11.2652C4.84031 11.317 4.90176 11.3579 4.9694 11.3858C5.03705 11.4137 5.10953 11.4279 5.18269 11.4276C5.25557 11.4274 5.32771 11.4129 5.39497 11.3849C5.46224 11.3568 5.52331 11.3158 5.5747 11.2641C5.62608 11.2124 5.66677 11.1511 5.69444 11.0837C5.7221 11.0162 5.73619 10.944 5.73591 10.8711V6.96723C5.73591 6.34838 6.22567 5.85862 6.84451 5.85862H10.7484C10.8212 5.8589 10.8934 5.84484 10.9607 5.81725C11.0281 5.78966 11.0893 5.74909 11.141 5.69782C11.1927 5.64655 11.2338 5.58558 11.2619 5.51844C11.29 5.4513 11.3046 5.37931 11.3049 5.30652C11.3052 5.23336 11.291 5.16084 11.2631 5.09319C11.2353 5.02555 11.1943 4.96409 11.1426 4.91236C11.0908 4.86063 11.0294 4.81965 10.9617 4.79179C10.8941 4.76392 10.8216 4.74972 10.7484 4.75H6.84451ZM24.0008 4.75C23.928 4.75029 23.8559 4.76491 23.7888 4.79303C23.7217 4.82115 23.6607 4.86224 23.6094 4.91392C23.5582 4.96559 23.5176 5.02682 23.49 5.09418C23.4624 5.16154 23.4483 5.23372 23.4486 5.30652C23.4492 5.45277 23.5076 5.59284 23.611 5.69626C23.7144 5.79968 23.8545 5.85805 24.0008 5.85862H27.909C28.5279 5.85862 29.0176 6.34838 29.0176 6.96723V10.8711C29.017 11.0181 29.0749 11.1593 29.1784 11.2637C29.282 11.368 29.4227 11.427 29.5698 11.4276C29.6429 11.4279 29.7154 11.4137 29.783 11.3858C29.8507 11.3579 29.9121 11.317 29.9639 11.2652C30.0156 11.2135 30.0566 11.152 30.0844 11.0844C30.1123 11.0168 30.1265 10.9443 30.1262 10.8711V6.96723C30.1262 5.74925 29.127 4.75 27.909 4.75H24.0008ZM17.3762 5.92033C15.1169 5.92033 13.0717 6.8367 11.6156 8.3172C11.5133 8.42206 11.4567 8.56313 11.4582 8.70959C11.4596 8.85605 11.5189 8.99602 11.6232 9.09887C11.7275 9.20169 11.8683 9.25906 12.0147 9.25842C12.1612 9.25779 12.3014 9.19916 12.4048 9.09545C13.6582 7.8211 15.416 7.02879 17.3762 7.02879C21.2172 7.02879 24.2833 10.0557 24.2833 13.8254V21.1742C24.2833 24.944 21.2172 27.9697 17.3762 27.9697C13.5353 27.9697 10.4691 24.944 10.4691 21.1742V13.8254C10.4694 13.7523 10.4552 13.6798 10.4273 13.6121C10.3995 13.5445 10.3585 13.483 10.3068 13.4313C10.255 13.3796 10.1936 13.3386 10.1259 13.3107C10.0583 13.2828 9.98582 13.2687 9.91266 13.269C9.83987 13.2693 9.76784 13.2838 9.7007 13.312C9.63356 13.3401 9.57261 13.3812 9.52134 13.4328C9.47007 13.4845 9.42948 13.5458 9.40188 13.6132C9.37429 13.6805 9.36024 13.7527 9.36052 13.8254V21.1742C9.36052 25.5481 12.9493 29.0794 17.3762 29.0794C21.8032 29.0794 25.3919 25.5481 25.3919 21.1742V13.8254C25.3919 9.45162 21.8032 5.92033 17.3762 5.92033ZM17.3762 8.9116C14.3996 8.9116 11.9837 11.3193 11.9837 14.2879C11.9843 14.4341 12.0426 14.5742 12.1461 14.6777C12.2495 14.7811 12.3896 14.8394 12.5358 14.84C12.6086 14.8402 12.6808 14.8262 12.7481 14.7986C12.8155 14.771 12.8767 14.7304 12.9284 14.6792C12.9801 14.6279 13.0212 14.5669 13.0493 14.4998C13.0774 14.4326 13.092 14.3606 13.0923 14.2879C13.0923 11.9166 14.9923 10.0202 17.3762 10.0202C19.7602 10.0202 21.6612 11.9166 21.6612 14.2879V20.712C21.6612 23.0831 19.7602 24.9754 17.3762 24.9754C14.9923 24.9754 13.0923 23.0831 13.0923 20.712C13.0922 20.6392 13.0776 20.567 13.0496 20.4998C13.0215 20.4325 12.9805 20.3714 12.9288 20.32C12.8771 20.2686 12.8158 20.228 12.7484 20.2003C12.6809 20.1727 12.6087 20.1586 12.5358 20.1589C12.3894 20.1594 12.2491 20.2179 12.1457 20.3216C12.0422 20.4252 11.984 20.5656 11.9837 20.712C11.9837 23.6805 14.3996 26.084 17.3762 26.084C20.3528 26.084 22.7698 23.6805 22.7698 20.712V14.2879C22.7698 11.3193 20.3528 8.9116 17.3762 8.9116ZM17.4054 11.6116C15.5664 11.6116 14.1727 13.3437 14.1727 15.3639V19.6933C14.1727 21.7135 15.5664 23.4446 17.4054 23.4446C17.4782 23.4449 17.5504 23.4308 17.6177 23.4032C17.6851 23.3756 17.7464 23.335 17.798 23.2837C17.8497 23.2325 17.8908 23.1715 17.9189 23.1044C17.947 23.0373 17.9616 22.9652 17.9619 22.8924C17.9622 22.8193 17.948 22.7468 17.9201 22.6791C17.8923 22.6115 17.8513 22.55 17.7996 22.4983C17.7478 22.4466 17.6864 22.4056 17.6187 22.3777C17.5511 22.3499 17.4786 22.3357 17.4054 22.336C16.2764 22.336 15.2813 21.2149 15.2813 19.6933V15.3639C15.2813 13.8423 16.2764 12.7202 17.4054 12.7202C18.5345 12.7202 19.5285 13.8423 19.5285 15.3639V19.6933C19.5282 19.7665 19.5424 19.839 19.5702 19.9066C19.5981 19.9742 19.6391 20.0357 19.6908 20.0874C19.7425 20.1392 19.804 20.1801 19.8716 20.208C19.9393 20.2359 20.0118 20.2501 20.0849 20.2498C20.1578 20.2496 20.2299 20.2351 20.2972 20.2071C20.3645 20.179 20.4256 20.138 20.4769 20.0863C20.5283 20.0346 20.569 19.9733 20.5967 19.9059C20.6243 19.8384 20.6384 19.7662 20.6381 19.6933V15.3639C20.6381 13.3437 19.2444 11.6116 17.4054 11.6116ZM17.3762 14.369C17.3033 14.3687 17.2311 14.3828 17.1637 14.4105C17.0963 14.4382 17.0349 14.4789 16.9833 14.5302C16.9316 14.5816 16.8905 14.6427 16.8625 14.7099C16.8344 14.7772 16.8199 14.8493 16.8198 14.9222V20.0733C16.8195 20.1465 16.8337 20.2189 16.8615 20.2866C16.8894 20.3542 16.9304 20.4157 16.9821 20.4674C17.0338 20.5192 17.0953 20.5601 17.1629 20.588C17.2306 20.6159 17.3031 20.6301 17.3762 20.6298C17.4491 20.6296 17.5212 20.6151 17.5885 20.5871C17.6558 20.559 17.7169 20.518 17.7682 20.4663C17.8196 20.4146 17.8603 20.3533 17.888 20.2859C17.9156 20.2184 17.9297 20.1462 17.9294 20.0733V14.9222C17.9292 14.7756 17.8708 14.6351 17.7671 14.5314C17.6634 14.4277 17.5229 14.3693 17.3762 14.369ZM5.18269 23.4694C5.10953 23.4692 5.03704 23.4834 4.9694 23.5112C4.90176 23.5391 4.8403 23.5801 4.78857 23.6318C4.73684 23.6835 4.69586 23.745 4.668 23.8126C4.64014 23.8803 4.62594 23.9527 4.62622 24.0259V28.0316C4.62622 29.2496 5.62654 30.2498 6.84451 30.2498H10.6986C10.7718 30.2501 10.8443 30.2359 10.9119 30.2081C10.9796 30.1802 11.041 30.1392 11.0928 30.0875C11.1445 30.0358 11.1855 29.9743 11.2133 29.9067C11.2412 29.839 11.2554 29.7665 11.2551 29.6934C11.2545 29.5464 11.1956 29.4056 11.0912 29.3021C10.9869 29.1985 10.8456 29.1407 10.6986 29.1413H6.84451C6.22567 29.1413 5.73591 28.6504 5.73591 28.0316V24.0259C5.73619 23.953 5.7221 23.8808 5.69444 23.8134C5.66678 23.746 5.62609 23.6846 5.57471 23.6329C5.52332 23.5812 5.46225 23.5402 5.39498 23.5122C5.32771 23.4841 5.25557 23.4696 5.18269 23.4694ZM29.5698 23.6212C29.4235 23.6217 29.2834 23.6801 29.18 23.7835C29.0765 23.8869 29.0182 24.027 29.0176 24.1733V28.0317C29.0176 28.6506 28.5279 29.1414 27.909 29.1414H24.0008C23.8545 29.142 23.7144 29.2003 23.611 29.3037C23.5076 29.4072 23.4492 29.5473 23.4486 29.6935C23.4483 29.7663 23.4624 29.8385 23.49 29.9058C23.5176 29.9732 23.5582 30.0345 23.6094 30.0861C23.6607 30.1378 23.7217 30.1789 23.7888 30.207C23.8559 30.2351 23.928 30.2497 24.0008 30.25H27.909C29.127 30.25 30.1262 29.2497 30.1262 28.0317V24.1733C30.1256 24.0263 30.0667 23.8855 29.9623 23.782C29.858 23.6785 29.7168 23.6206 29.5698 23.6212Z" fill="#00367E"/>
</svg>
