<svg width="25" height="24" viewBox="0 0 25 24" fill="none" xmlns="http://www.w3.org/2000/svg">
<path fill-rule="evenodd" clip-rule="evenodd" d="M21.5704 11.9172C21.5285 7.12592 17.5359 3.27642 12.6528 3.31911C10.1967 3.34058 7.985 4.34095 6.39526 5.94244C5.96664 6.37423 5.26897 7.16383 4.65657 7.87284C4.51149 8.04081 4.373 8.20215 4.24632 8.35033C3.85433 8.35375 3.22277 8.35927 2.59122 8.36479L2.57449 6.45044C2.62514 6.39156 2.67689 6.33151 2.72951 6.27059C3.33489 5.56971 4.08686 4.71584 4.58579 4.21322C6.62653 2.15742 9.47397 0.868022 12.6311 0.840425C18.9095 0.785547 24.0427 5.7349 24.0966 11.8951C24.1504 18.0553 19.1045 23.0937 12.8261 23.1486C8.61674 23.1853 4.92376 20.972 2.93097 17.6585C2.57649 17.0691 2.7762 16.3091 3.37705 15.9611C3.9779 15.6131 4.75235 15.8088 5.10684 16.3982C6.66022 18.9812 9.53331 20.6985 12.8044 20.6699C17.6876 20.6272 21.6122 16.7085 21.5704 11.9172Z" fill="#0700C4"/>
<path fill-rule="evenodd" clip-rule="evenodd" d="M2.52622 0.928763L2.58309 7.4353C2.58758 7.94865 3.01535 8.3611 3.53855 8.35653L10.1699 8.29856L10.1536 6.43955L4.46963 6.48923L4.42088 0.912202L2.52622 0.928763Z" fill="#0700C4"/>
<path fill-rule="evenodd" clip-rule="evenodd" d="M12.6744 5.7978C13.372 5.7917 13.9424 6.34163 13.9484 7.0261L13.998 12.7094L17.4467 16.0346C17.9442 16.5143 17.9511 17.299 17.4621 17.7873C16.973 18.2756 16.1733 18.2826 15.6758 17.8029L11.8539 14.118C11.615 13.8876 11.4792 13.5736 11.4763 13.2449L11.4221 7.04818C11.4162 6.36371 11.9768 5.80389 12.6744 5.7978Z" fill="#1DC690"/>
</svg>
