<svg width="24" height="24" viewBox="0 0 24 24" fill="none" xmlns="http://www.w3.org/2000/svg">
<path fill-rule="evenodd" clip-rule="evenodd" d="M2.25488 7.33308C2.44458 7.12113 2.71556 7 3 7H10.4296C11.4327 7 12.3694 7.5013 12.9258 8.3359L13.7383 9.5547C13.9238 9.8329 14.236 10 14.5704 10H21C21.294 10 21.573 10.1293 21.763 10.3536C21.953 10.5779 22.0347 10.8744 21.9864 11.1644C21.8477 11.9966 21.7175 12.8562 21.586 13.7248C21.3833 15.0639 21.1774 16.4242 20.9319 17.7381C20.585 19.5946 18.9577 21 17 21H7C5.01701 21 3.37278 19.558 3.05527 17.6655C2.52646 14.5135 2.34645 11.1734 2.00612 8.11043C1.97471 7.82773 2.06518 7.54503 2.25488 7.33308ZM4.11056 9C4.39378 11.8397 4.56874 14.5988 5.0277 17.3345C5.18627 18.2797 6.01 19 7 19H17C17.9772 19 18.7926 18.2982 18.9659 17.3707C19.3001 15.5822 19.5419 13.821 19.8262 12H14.5704C13.5673 12 12.6306 11.4987 12.0742 10.6641L11.2617 9.4453C11.0762 9.1671 10.764 9 10.4296 9H4.11056Z" fill="black"/>
<path fill-rule="evenodd" clip-rule="evenodd" d="M4 6C4 4.34315 5.34315 3 7 3H12.4296C13.4327 3 14.3694 3.5013 14.9258 4.3359L15.7383 5.5547C15.9238 5.8329 16.236 6 16.5704 6H17C18.6569 6 20 7.34315 20 9V10H18V9C18 8.44771 17.5523 8 17 8H16.5704C15.5673 8 14.6306 7.4987 14.0742 6.6641L13.2617 5.4453C13.0762 5.1671 12.764 5 12.4296 5H7C6.44772 5 6 5.44772 6 6V7H4V6Z" fill="black" fill-opacity="0.4"/>
</svg>
