<svg width="25" height="24" viewBox="0 0 25 24" fill="none" xmlns="http://www.w3.org/2000/svg">
<path d="M13.6646 2C11.7776 2 9.9056 2.71998 8.4656 4.15698L6.3366 6.28197C5.9446 6.67197 5.9446 7.29698 6.3366 7.68798C6.7276 8.07798 7.3546 8.07798 7.7456 7.68798L9.87463 5.56298C11.9716 3.46999 15.3566 3.47099 17.4536 5.56298L17.4846 5.59399C19.5816 7.68598 19.5816 11.064 17.4846 13.157L11.5666 19.063C10.2986 20.327 8.29063 20.2829 7.04263 19.0899L6.9786 19.0179C5.7116 17.7529 5.73162 15.7099 6.99862 14.4449L12.7566 8.71898C13.1946 8.28198 13.8836 8.28198 14.3216 8.71898C14.7596 9.15598 14.7596 9.84397 14.3216 10.282L8.33563 16.2799C7.94363 16.6709 7.94363 17.3269 8.33563 17.7179C8.72663 18.1079 9.38263 18.071 9.74963 17.719L15.7626 11.719C16.9836 10.501 16.9836 8.49997 15.7626 7.28197C15.1526 6.67197 14.3386 6.37499 13.5386 6.37499C12.7386 6.37499 11.9256 6.67197 11.3156 7.28197L5.41161 13.22C5.30861 13.323 5.2326 13.4369 5.1256 13.5649C3.5786 15.6169 3.69061 18.5859 5.56261 20.4539C7.61262 22.4999 10.9256 22.515 12.9756 20.469L18.8936 14.563C21.7736 11.689 21.7736 7.02997 18.8936 4.15698C17.4546 2.71998 15.5516 2 13.6646 2Z" fill="black"/>
</svg>
