<svg width="34" height="35" viewBox="0 0 34 35" fill="none" xmlns="http://www.w3.org/2000/svg">
<path fill-rule="evenodd" clip-rule="evenodd" d="M18.1103 23.5554L18.2006 30.3331C18.208 30.8853 17.7663 31.339 17.2141 31.3463C16.6618 31.3537 16.2082 30.912 16.2008 30.3598L16.1105 23.5821L18.1103 23.5554Z" fill="white"/>
<path d="M11.9572 8.49583C11.7722 8.68584 11.6812 8.97784 11.6789 9.24292C11.661 11.3869 12.2186 12.5917 13.8306 13.371C13.6345 15.0239 13.2304 15.7951 12.0799 16.9767C10.5072 18.592 9.675 19.8362 9.69339 21.2521L9.71574 21.2739C9.73312 22.5989 10.8078 23.6453 12.1323 23.6268C19.5174 23.5569 13.7821 23.6223 22.0721 23.4912C23.3973 23.4733 24.444 22.3983 24.4265 21.0731L24.4483 21.0507C24.4302 19.6345 23.7057 18.5394 21.9632 16.8428C20.8556 15.7643 20.2953 14.7758 20.1429 13.2867C21.8211 12.3401 22.1997 11.2073 22.1714 9.06361C22.1679 8.79847 22.0428 8.54591 21.8529 8.36097C21.6009 8.11562 21.1527 7.80316 20.516 7.49547C19.4908 7.00012 18.2795 6.68645 16.8826 6.70543C15.4857 6.72455 14.2829 7.07113 13.271 7.59421C12.6425 7.91912 12.2027 8.2437 11.9572 8.49583ZM13.6995 9.65166C14.5819 9.02805 15.832 8.75227 16.9091 8.73769C17.9861 8.72298 19.107 8.90865 20.17 9.56898C20.1602 10.8916 19.8048 11.3604 18.7788 11.6938C18.3695 11.8267 18.0837 12.2219 18.0893 12.6521C18.123 15.2265 18.9717 16.7214 20.568 18.2757C21.958 19.6291 22.3949 20.2138 22.4388 21.1005C22.4516 21.3512 22.2672 21.5004 22.0465 21.5035L12.1067 21.6391C11.8859 21.6421 11.746 21.4992 11.7242 21.3022C11.6617 20.7429 11.9742 19.9375 13.4999 18.3723C15.3239 16.5012 15.8108 15.0365 15.856 12.6845C15.8503 12.2542 15.5687 11.8745 15.1587 11.744C14.0636 11.3954 13.7313 10.9599 13.6995 9.65166Z" fill="white"/>
</svg>
