<svg width="28" height="28" viewBox="0 0 28 28" fill="none" xmlns="http://www.w3.org/2000/svg">
<path fill-rule="evenodd" clip-rule="evenodd" d="M8.47353 12.4181C8.65409 12.0118 9.05698 11.75 9.50156 11.75H24.1266C24.4882 11.75 24.8278 11.9239 25.0393 12.2173C25.2507 12.5106 25.3082 12.8878 25.1938 13.2309L22.587 21.0485C21.9743 22.8858 20.2548 24.125 18.3181 24.125H8.37646C6.78851 24.125 5.74231 23.3988 5.18319 22.8426C4.8696 22.5307 4.76791 22.0639 4.92332 21.6498C6.07961 18.5724 7.13831 15.4223 8.47353 12.4181ZM7.32881 21.6453C7.59687 21.7764 7.94203 21.875 8.37646 21.875H18.3181C19.2864 21.875 20.1462 21.2554 20.4525 20.3367L22.5655 14H10.2538C9.24073 16.5337 8.29024 19.0918 7.32881 21.6453Z" fill="black"/>
<path fill-rule="evenodd" clip-rule="evenodd" d="M7.25 3.875C5.38604 3.875 3.875 5.38604 3.875 7.25V19.625C3.875 20.7638 4.29804 21.8039 4.99555 22.5965C4.83534 22.3116 4.80445 21.9654 4.92289 21.6498C5.23909 20.8082 5.548 19.9612 5.85725 19.1133C5.94641 18.8688 6.0356 18.6243 6.125 18.3797V7.25C6.125 6.62868 6.62868 6.125 7.25 6.125H12.1584C12.5261 6.125 12.8705 6.30464 13.0809 6.60611L14.0934 8.05667C14.7246 8.96109 15.758 9.5 16.8609 9.5H19.625C20.2463 9.5 20.75 10.0037 20.75 10.625V11.75H23V10.625C23 8.76104 21.489 7.25 19.625 7.25H16.8609C16.4933 7.25 16.1488 7.07036 15.9384 6.76889L14.9259 5.31833C14.2947 4.41391 13.2613 3.875 12.1584 3.875H7.25Z" fill="#171724"/>
</svg>
