<svg width="34" height="34" viewBox="0 0 34 34" fill="none" xmlns="http://www.w3.org/2000/svg">
<path d="M10.9202 12.9524C12.0394 13.0518 12.3115 13.3131 12.2977 14.4128C12.2925 14.8297 12.4466 15.0169 12.7927 15.206C15.3429 16.5989 16.7534 19.354 16.3997 22.1908C16.0337 25.126 14.042 27.3981 11.198 28.1247C7.88001 28.9726 4.4239 27.1685 3.17368 23.9362C1.90496 20.656 3.21378 16.928 6.24128 15.2721C6.64246 15.0526 6.86424 14.8601 6.84356 14.3415C6.80358 13.3388 7.12272 13.0498 8.27103 12.9677C9.2338 12.9633 10.077 12.9579 10.9202 12.9524ZM13.7419 21.5439C13.6942 19.3233 12.4528 17.7176 10.4192 17.2461C8.64202 16.834 6.66832 17.7795 5.85876 19.4676C5.08134 21.0887 5.23642 22.6464 6.37023 24.0349C7.52366 25.4475 9.04167 25.8705 10.7734 25.4012C12.3872 24.9639 13.5163 23.4923 13.7419 21.5439Z" fill="black"/>
<path d="M25.4473 12.9524C26.5754 13.0517 26.8498 13.313 26.8359 14.4123C26.8307 14.8288 26.9856 15.0162 27.3347 15.2053C29.9052 16.5978 31.327 19.3515 30.971 22.1877C30.5998 25.1442 28.5679 27.4231 25.6624 28.1414C22.8145 28.8455 19.7065 27.5677 18.2209 25.0427C18.0717 24.7891 18.0314 24.3777 18.1174 24.0933C18.6668 22.2758 18.664 20.4782 18.1259 18.6582C18.0364 18.3555 18.0922 17.9259 18.2473 17.6488C18.8402 16.5898 19.7094 15.7782 20.7953 15.2449C21.22 15.0364 21.3432 14.7984 21.3332 14.3414C21.3112 13.3377 21.6194 13.0497 22.7768 12.9676C23.7473 12.9633 24.5973 12.9579 25.4473 12.9524ZM21.3513 24.5577C22.1904 25.2449 23.1391 25.6182 24.2343 25.5602C25.9417 25.4697 27.1949 24.6365 27.9026 23.1009C28.6021 21.5831 28.4253 20.0894 27.3731 18.7729C26.3108 17.4437 24.8967 16.9157 23.2314 17.2623C21.6256 17.5965 20.5337 18.5983 20.0632 20.1709C19.5642 21.8393 20.0289 23.2894 21.3513 24.5577Z" fill="black"/>
<path d="M13.2672 6.79989C13.5128 5.9775 13.9497 5.58026 14.5763 5.68243C15.1343 5.77341 15.5296 6.18863 15.6207 6.956C15.6981 7.6078 15.5923 8.20696 15.1443 8.58986C14.7209 8.9518 14.2558 9.03609 13.8065 8.6604C13.3015 8.23813 13.1142 7.62902 13.2672 6.79989Z" fill="#999999"/>
<path d="M18.8386 5.66667C19.7592 5.7553 20.36 6.13994 20.4795 7.02672C20.5778 7.75594 20.3504 8.36823 19.6422 8.70881C19.0303 9.00315 18.4186 8.98158 17.8698 8.53682C17.3325 8.10132 17.1596 7.54675 17.3215 6.88518C17.5051 6.13509 18.0278 5.77586 18.8386 5.66667Z" fill="#999999"/>
<path d="M12.03 8.49167C12.5703 9.1866 12.5201 9.78008 11.9329 10.192C11.3744 10.5838 10.5133 10.6345 9.88574 10.3124C9.13132 9.92528 8.93734 9.12827 9.46814 8.59662C10.09 7.97373 11.0111 7.92248 12.03 8.49167Z" fill="#999999"/>
<path d="M21.3108 9.30971C21.5138 8.38904 22.0809 7.95898 22.8026 8.13323C23.4466 8.28871 23.7836 8.7582 23.7347 9.4316C23.6909 10.0341 23.2507 10.4639 22.6206 10.5192C22.04 10.5702 21.5288 10.1917 21.3669 9.59001C21.3459 9.51222 21.3293 9.4333 21.3108 9.30971Z" fill="#999999"/>
<path d="M10.787 12.883C9.99956 12.9513 9.20956 12.9577 8.35867 12.9498C8.34583 11.992 8.7917 11.3735 9.45105 11.3356C10.1596 11.2949 10.6242 11.8126 10.787 12.883Z" fill="#999999"/>
<path d="M25.3585 12.883C24.5711 12.9513 23.7811 12.9577 22.9302 12.9498C22.9174 11.992 23.3633 11.3735 24.0226 11.3356C24.7311 11.295 25.1957 11.8126 25.3585 12.883Z" fill="#999999"/>
</svg>
