<svg width="11" height="11" viewBox="0 0 11 11" fill="none" xmlns="http://www.w3.org/2000/svg">
<rect width="11" height="11" fill="#A38664"/>
<path fill-rule="evenodd" clip-rule="evenodd" d="M5.95817 7.79169V9.62502C5.95817 9.87815 5.75297 10.0834 5.49984 10.0834C5.24671 10.0834 5.0415 9.87815 5.0415 9.62502V7.79169H5.95817Z" fill="white"/>
<path d="M5.49984 0.916687C4.90905 0.916687 4.39984 1.0123 3.96726 1.1745C3.69556 1.27639 3.50434 1.3785 3.39434 1.46096C3.27894 1.54754 3.21019 1.66716 3.20817 1.83335C3.2024 2.30979 3.14739 3.02768 4.10957 3.51594C4.04903 4.08679 3.87243 4.43086 3.38005 4.84094C3.3437 4.87164 3.21193 4.98119 3.20817 4.9844C2.56747 5.51331 2.2915 5.92994 2.2915 6.71735V6.73202C2.2915 7.31915 2.76414 7.79169 3.3514 7.79169C6.19586 7.79169 5.10208 7.79169 7.6485 7.79169C8.23563 7.79169 8.70817 7.31915 8.70817 6.73202V6.71735C8.70817 5.92994 8.43225 5.51331 7.7915 4.9844C7.78784 4.98119 7.65584 4.87164 7.61963 4.84094C7.12784 4.43146 6.94863 4.10119 6.88721 3.51154C7.64988 3.1369 7.7915 2.66679 7.7915 1.83335C7.7915 1.68907 7.72092 1.54749 7.60542 1.46096C7.49542 1.37846 7.3043 1.27639 7.0325 1.1745C6.59984 1.0123 6.09063 0.916687 5.49984 0.916687Z" fill="white" fill-opacity="0.4"/>
</svg>
