<svg width="24" height="24" viewBox="0 0 24 24" fill="none" xmlns="http://www.w3.org/2000/svg">
<path d="M16 7C15.448 7 15 7.4477 15 8C15 8.5523 15.448 9 16 9H21C21.552 9 22 8.5523 22 8C22 7.4477 21.552 7 21 7H16ZM15 11C14.448 11 14 11.4477 14 12C14 12.5523 14.448 13 15 13H21C21.552 13 22 12.5523 22 12C22 11.4477 21.552 11 21 11H15ZM18 15C17.448 15 17 15.4477 17 16C17 16.5523 17.448 17 18 17H21C21.552 17 22 16.5523 22 16C22 15.4477 21.552 15 21 15H18Z" fill="black"/>
<path fill-rule="evenodd" clip-rule="evenodd" d="M4 7.5C4 5.015 6.015 3 8.5 3C10.985 3 13 5.015 13 7.5C13 9.985 10.985 12 8.5 12C6.015 12 4 9.985 4 7.5ZM11 7.5C11 6.119 9.881 5 8.5 5C7.119 5 6 6.119 6 7.5C6 8.881 7.119 10 8.5 10C9.881 10 11 8.881 11 7.5Z" fill="black" fill-opacity="0.4"/>
<path fill-rule="evenodd" clip-rule="evenodd" d="M2 18C2 15.956 3.22801 14.101 5.06201 13.344C5.31801 13.238 5.59199 13.26 5.84399 13.375C6.75999 13.792 7.625 14 8.5 14C9.378 14 10.24 13.803 11.125 13.406C11.381 13.292 11.68 13.295 11.938 13.406C13.765 14.194 15 16.004 15 18V20C15 20.552 14.552 21 14 21H3C2.448 21 2 20.552 2 20V18ZM8.5 16C7.531 16 6.39199 15.748 5.44699 15.39C4.65599 15.853 4 16.835 4 18V19H13V18C13 16.899 12.382 15.937 11.479 15.423C10.553 15.765 9.461 16 8.5 16Z" fill="black" fill-opacity="0.4"/>
</svg>
