<svg width="24" height="24" viewBox="0 0 24 24" fill="none" xmlns="http://www.w3.org/2000/svg">
<path fill-rule="evenodd" clip-rule="evenodd" d="M17.0032 2C17.4446 2.00133 17.8901 2.05804 18.322 2.14442C19.0057 2.28116 19.9954 2.58035 20.708 3.29289C21.4205 4.00543 21.7197 4.99518 21.8565 5.67888C21.9428 6.11079 21.9995 6.5563 22.0009 6.99767L22.0009 6.99893C22.0009 6.99893 22.0009 6.99767 22.0009 7C22.0009 7.26521 21.8955 7.51957 21.708 7.7071L12.708 16.7071C11.08 18.335 8.69866 19.6446 6.79876 20.5312C5.8357 20.9806 4.96991 21.3333 4.34423 21.574C3.98945 21.7104 3.63209 21.8366 3.27285 21.9603C2.95102 22.0711 2.56784 21.9577 2.34278 21.7498C2.22634 21.6422 2.12991 21.5509 2.04915 21.3093C1.96838 21.0677 1.99347 20.8553 2.07853 20.6064C2.128 20.4627 2.24621 20.1265 2.42691 19.6566C2.66755 19.031 3.02026 18.1652 3.46969 17.2021C4.35631 15.3022 5.66583 12.9208 7.29377 11.2929L16.2938 2.29289C16.4807 2.10592 16.7389 1.99973 17.0032 2ZM4.74565 19.2552C5.11885 19.0974 5.52603 18.9181 5.95299 18.7188C7.8031 17.8554 9.92171 16.665 11.2938 15.2929L19.9759 6.61077C19.9603 6.45691 19.9352 6.27087 19.8953 6.07111C19.782 5.50481 19.5812 4.99456 19.2938 4.7071C19.0063 4.41965 18.4961 4.21884 17.9298 4.10558C17.73 4.06563 17.544 4.04058 17.3901 4.02498L8.70798 12.7071C7.33592 14.0792 6.14544 16.1978 5.28206 18.0479C5.08281 18.4748 4.90346 18.882 4.74565 19.2552Z" fill="black"/>
<path fill-rule="evenodd" clip-rule="evenodd" d="M12.269 4.76778C12.0737 4.57252 11.7571 4.57252 11.5619 4.76778L6.62251 9.70712C6.23199 10.0976 5.59882 10.0976 5.2083 9.70712C4.81777 9.3166 4.81777 8.68343 5.2083 8.29291L10.1476 3.35357C11.1239 2.37726 12.7069 2.37726 13.6832 3.35357L14.4154 4.0858L13.0012 5.5L12.269 4.76778ZM15.8296 5.5L18.4154 8.08579L17.0012 9.5L14.4154 6.91421L15.8296 5.5ZM16.9154 22H3C3.06396 21.9942 3.12721 21.9813 3.18825 21.9603C3.5475 21.8366 3.90486 21.7104 4.25964 21.574C4.88532 21.3333 5.7511 20.9806 6.71417 20.5312C7.06342 20.3682 7.42895 20.1909 7.80307 20H16.9154C17.4677 20 17.9154 20.4477 17.9154 21C17.9154 21.5523 17.4677 22 16.9154 22Z" fill="black" fill-opacity="0.4"/>
</svg>
