<svg width="24" height="25" viewBox="0 0 24 25" fill="none" xmlns="http://www.w3.org/2000/svg">
<path fill-rule="evenodd" clip-rule="evenodd" d="M21.8556 6.20794C21.942 6.63983 21.9987 7.08537 22 7.52672C22.0003 7.79102 21.8941 8.04918 21.7071 8.23615L19.3775 10.5362L19.3789 10.5376L8.70703 21.2369L3.29297 15.8228L13.9639 5.12474L13.9622 5.12302L16.2929 2.82195C16.4804 2.63441 16.7348 2.52905 17 2.52905H17.0011H17.0023C17.4437 2.53042 17.8892 2.58709 18.3211 2.67347C19.0048 2.81021 19.9946 3.1094 20.7071 3.82195C21.4196 4.53449 21.7188 5.52424 21.8556 6.20794ZM15.3785 6.53653L17.3966 4.55309C17.4222 4.55737 17.4482 4.56167 17.4744 4.56601C18.0911 4.66815 18.8642 4.79619 19.2809 5.21609C19.7153 5.65387 19.8828 6.57699 19.9788 7.13531L17.964 9.12252L15.3785 6.53653Z" fill="#EBD2B6"/>
<path fill-rule="evenodd" clip-rule="evenodd" d="M3.29282 15.8228C3.15322 15.9624 3.05806 16.1402 3.01934 16.3337L2.01934 21.3337C1.95377 21.6616 2.0564 22.0005 2.29282 22.237C2.52924 22.4734 2.86818 22.576 3.19604 22.5104L8.19604 21.5104C8.38963 21.4717 8.56743 21.3766 8.70703 21.237L3.29282 15.8228Z" fill="#A38664"/>
</svg>
