<svg width="24" height="24" viewBox="0 0 24 24" fill="none" xmlns="http://www.w3.org/2000/svg">
<path fill-rule="evenodd" clip-rule="evenodd" d="M12 2C9.79086 2 8 3.79086 8 6H5C3.89543 6 3 6.89543 3 8V18C3 20.2091 4.79086 22 7 22H17C19.2091 22 21 20.2091 21 18V8C21 6.89543 20.1046 6 19 6H16C16 3.79086 14.2091 2 12 2ZM14 6C14 4.89543 13.1046 4 12 4C10.8954 4 10 4.89543 10 6H14ZM5 18V8L19 8V18C19 19.1046 18.1046 20 17 20H7C5.89543 20 5 19.1046 5 18Z" fill="black" fill-opacity="0.4"/>
<path fill-rule="evenodd" clip-rule="evenodd" d="M11 16C11 16.5523 11.4477 17 12 17C12.5523 17 13 16.5523 13 16V15H14C14.5523 15 15 14.5523 15 14C15 13.4477 14.5523 13 14 13H13V12C13 11.4477 12.5523 11 12 11C11.4477 11 11 11.4477 11 12V13H10C9.44772 13 9 13.4477 9 14C9 14.5523 9.44772 15 10 15H11V16Z" fill="black"/>
</svg>
