<svg width="24" height="24" viewBox="0 0 24 24" fill="none" xmlns="http://www.w3.org/2000/svg">
<path d="M13.6087 2C11.7217 2 9.84969 2.71998 8.40969 4.15698L6.28069 6.28197C5.88869 6.67197 5.88869 7.29698 6.28069 7.68798C6.67169 8.07798 7.29869 8.07798 7.68969 7.68798L9.81872 5.56298C11.9157 3.46999 15.3007 3.47099 17.3977 5.56298L17.4287 5.59399C19.5257 7.68598 19.5257 11.064 17.4287 13.157L11.5107 19.063C10.2427 20.327 8.23472 20.2829 6.98672 19.0899L6.92269 19.0179C5.65569 17.7529 5.67571 15.7099 6.94271 14.4449L12.7007 8.71898C13.1387 8.28198 13.8277 8.28198 14.2657 8.71898C14.7037 9.15598 14.7037 9.84397 14.2657 10.282L8.27972 16.2799C7.88772 16.6709 7.88772 17.3269 8.27972 17.7179C8.67072 18.1079 9.32672 18.071 9.69372 17.719L15.7067 11.719C16.9277 10.501 16.9277 8.49997 15.7067 7.28197C15.0967 6.67197 14.2827 6.37499 13.4827 6.37499C12.6827 6.37499 11.8697 6.67197 11.2597 7.28197L5.35571 13.22C5.25271 13.323 5.17669 13.4369 5.06969 13.5649C3.52269 15.6169 3.63471 18.5859 5.50671 20.4539C7.55671 22.4999 10.8697 22.515 12.9197 20.469L18.8377 14.563C21.7177 11.689 21.7177 7.02997 18.8377 4.15698C17.3987 2.71998 15.4957 2 13.6087 2Z" fill="black"/>
</svg>
