<svg width="224" height="225" viewBox="0 0 224 225" fill="none" xmlns="http://www.w3.org/2000/svg">
<path fill-rule="evenodd" clip-rule="evenodd" d="M21.0455 68.6071C22.816 66.629 25.3452 65.4984 28 65.4984H97.3432C106.705 65.4984 115.448 70.1772 120.641 77.9668L128.224 89.3423C129.955 91.9388 132.869 93.4984 135.99 93.4984H196C198.744 93.4984 201.348 94.7055 203.122 96.7989C204.895 98.8923 205.657 101.66 205.206 104.366C203.912 112.134 202.697 120.157 201.47 128.263C199.577 140.761 197.655 153.457 195.364 165.72C192.127 183.048 176.938 196.165 158.667 196.165H65.3333C46.8254 196.165 31.4792 182.707 28.5158 165.043C23.5803 135.624 21.9001 104.45 18.7238 75.8624C18.4306 73.2239 19.2749 70.5853 21.0455 68.6071Z" fill="#0D8F75"/>
<path fill-rule="evenodd" clip-rule="evenodd" d="M37.3334 56.165C37.3334 40.7011 49.8694 28.165 65.3334 28.165H116.01C125.372 28.165 134.114 32.8439 139.307 40.6334L146.891 52.0089C148.622 54.6054 151.536 56.165 154.657 56.165H158.667C174.131 56.165 186.667 68.7011 186.667 84.165V93.4984H168V84.165C168 79.0104 163.821 74.8317 158.667 74.8317H154.657C145.295 74.8317 136.552 70.1529 131.359 62.3633L123.776 50.9878C122.045 48.3913 119.131 46.8317 116.01 46.8317H65.3334C60.1787 46.8317 56 51.0104 56 56.165V65.4984H37.3334V56.165Z" fill="#0D8F75" fill-opacity="0.4"/>
</svg>
