<svg width="23" height="18" viewBox="0 0 23 18" fill="none" xmlns="http://www.w3.org/2000/svg">
<path fill-rule="evenodd" clip-rule="evenodd" d="M2 4.5C2 2.015 4.015 0 6.5 0C8.985 0 11 2.015 11 4.5C11 6.985 8.985 9 6.5 9C4.015 9 2 6.985 2 4.5ZM9 4.5C9 3.119 7.881 2 6.5 2C5.119 2 4 3.119 4 4.5C4 5.881 5.119 7 6.5 7C7.881 7 9 5.881 9 4.5Z" fill="#0700C4"/>
<path fill-rule="evenodd" clip-rule="evenodd" d="M0 15C0 12.956 1.22801 11.101 3.06201 10.344C3.31801 10.238 3.59199 10.26 3.84399 10.375C4.75999 10.792 5.625 11 6.5 11C7.378 11 8.24 10.803 9.125 10.406C9.381 10.292 9.67999 10.295 9.93799 10.406C11.765 11.194 13 13.004 13 15V17C13 17.552 12.552 18 12 18H1C0.448 18 0 17.552 0 17V15ZM6.5 13C5.531 13 4.39199 12.748 3.44699 12.39C2.65599 12.853 2 13.835 2 15V16H11V15C11 13.899 10.382 12.937 9.479 12.423C8.553 12.765 7.461 13 6.5 13Z" fill="#0700C4"/>
<path d="M16.5 11C18.433 11 20 9.43299 20 7.5C20 5.567 18.433 4 16.5 4C14.567 4 13 5.567 13 7.5C13 9.43299 14.567 11 16.5 11Z" stroke="#0700C4" stroke-opacity="0.4" stroke-linecap="round" stroke-linejoin="round"/>
<path d="M22 13L20 11" stroke="#0700C4" stroke-opacity="0.4" stroke-linecap="round" stroke-linejoin="round"/>
</svg>
