<svg width="25" height="24" viewBox="0 0 25 24" fill="none" xmlns="http://www.w3.org/2000/svg">
<path fill-rule="evenodd" clip-rule="evenodd" d="M12.167 2C9.95785 2 8.16699 3.79086 8.16699 6H5.16699C4.06242 6 3.16699 6.89543 3.16699 8V18C3.16699 20.2091 4.95785 22 7.16699 22H17.167C19.3761 22 21.167 20.2091 21.167 18V8C21.167 6.89543 20.2716 6 19.167 6H16.167C16.167 3.79086 14.3761 2 12.167 2ZM14.167 6C14.167 4.89543 13.2716 4 12.167 4C11.0624 4 10.167 4.89543 10.167 6H14.167ZM5.16699 18V8H19.167V18C19.167 19.1046 18.2716 20 17.167 20H7.16699C6.06242 20 5.16699 19.1046 5.16699 18Z" fill="black"/>
<path fill-rule="evenodd" clip-rule="evenodd" d="M11.167 16C11.167 16.5523 11.6147 17 12.167 17C12.7193 17 13.167 16.5523 13.167 16V15H14.167C14.7193 15 15.167 14.5523 15.167 14C15.167 13.4477 14.7193 13 14.167 13H13.167V12C13.167 11.4477 12.7193 11 12.167 11C11.6147 11 11.167 11.4477 11.167 12V13H10.167C9.61471 13 9.16699 13.4477 9.16699 14C9.16699 14.5523 9.61471 15 10.167 15H11.167V16Z" fill="black" fill-opacity="0.4"/>
</svg>
