<svg width="24" height="24" viewBox="0 0 24 24" fill="none" xmlns="http://www.w3.org/2000/svg">
<path d="M10.071 4.70386L14.6501 6.18321C14.6805 6.1932 14.7122 6.19849 14.7442 6.19889C14.8118 6.19067 14.875 6.16063 14.924 6.1133C14.9731 6.06598 15.0053 6.00395 15.016 5.93663C15.0266 5.8693 15.015 5.80035 14.9829 5.74022C14.9508 5.68008 14.9 5.63204 14.8382 5.60338L10.2591 4.12716C10.1898 4.12298 10.1212 4.14189 10.0638 4.18092C10.0065 4.21995 9.9637 4.2769 9.9422 4.34284C9.9207 4.40879 9.92168 4.48 9.94498 4.54533C9.96829 4.61066 10.0126 4.66642 10.071 4.70386Z" fill="#999999"/>
<path d="M9.59458 6.18314L14.1737 7.65936C14.2037 7.67063 14.2357 7.67595 14.2677 7.67504C14.3343 7.66582 14.3962 7.63545 14.4442 7.58839C14.4922 7.54133 14.5238 7.48009 14.5343 7.4137C14.5449 7.34731 14.5338 7.2793 14.5027 7.21969C14.4716 7.16008 14.4222 7.11204 14.3618 7.08266L9.78264 5.60331C9.74222 5.57858 9.69673 5.56335 9.64958 5.55874C9.60243 5.55413 9.55485 5.56027 9.51041 5.5767C9.46597 5.59312 9.42584 5.61941 9.39302 5.65358C9.36021 5.68775 9.33557 5.72892 9.32095 5.77398C9.30634 5.81905 9.30213 5.86684 9.30864 5.91376C9.31515 5.96069 9.33222 6.00553 9.35856 6.04491C9.38489 6.08429 9.41981 6.11719 9.46069 6.14113C9.50158 6.16507 9.54735 6.17943 9.59458 6.18314Z" fill="#999999"/>
<path d="M9.11816 7.65942L13.6973 9.13878C13.7284 9.14351 13.7601 9.14351 13.7913 9.13878C13.859 9.13057 13.9221 9.10052 13.9712 9.0532C14.0202 9.00588 14.0525 8.94385 14.0631 8.87653C14.0738 8.8092 14.0621 8.74025 14.0301 8.68011C13.998 8.61998 13.9472 8.57194 13.8853 8.54328L9.30308 7.08273C9.26266 7.05674 9.2168 7.0404 9.16906 7.03497C9.12131 7.02954 9.07296 7.03515 9.02773 7.05139C8.9825 7.06762 8.94161 7.09404 8.90822 7.12859C8.87483 7.16315 8.84983 7.20492 8.83516 7.25068C8.82049 7.29644 8.81653 7.34496 8.8236 7.39249C8.83067 7.44002 8.84857 7.48529 8.87593 7.5248C8.90328 7.56431 8.93935 7.597 8.98136 7.62034C9.02336 7.64368 9.07017 7.65706 9.11816 7.65942Z" fill="#999999"/>
<path d="M17.8596 16.2692V13.3387C17.8596 13.3387 17.8596 13.3387 17.8596 13.3199V11.3547C17.8596 10.9754 17.7091 10.6115 17.4412 10.343C17.1732 10.0745 16.8097 9.92318 16.4304 9.92235H15.2989L16.8316 5.17399C16.9037 4.95121 16.8844 4.70891 16.7781 4.5003C16.6717 4.29169 16.4869 4.13382 16.2643 4.06133L10.0052 2.03975C9.77951 1.97007 9.53542 1.99262 9.32631 2.10246C9.11721 2.2123 8.96012 2.40049 8.88941 2.62585L7.05275 8.30822H5.39787C5.21389 8.30863 5.03179 8.34528 4.86197 8.41606C4.69215 8.48685 4.53793 8.59039 4.40813 8.72078C4.27833 8.85117 4.17547 9.00584 4.10545 9.17598C4.03542 9.34611 3.99959 9.52838 4 9.71236V13.3387V19.0085C3.99998 19.3865 4.14907 19.7493 4.41489 20.018C4.68072 20.2868 5.04182 20.4399 5.41981 20.444H14.4245C14.6469 20.8793 14.9741 21.2524 15.3766 21.5299C15.779 21.8074 16.2442 21.9805 16.7301 22.0336C17.2161 22.0868 17.7076 22.0183 18.1605 21.8343C18.6134 21.6504 19.0135 21.3567 19.3248 20.9798C19.6361 20.6029 19.8488 20.1545 19.9438 19.675C20.0388 19.1954 20.0131 18.6998 19.869 18.2327C19.725 17.7655 19.4671 17.3415 19.1185 16.9988C18.7699 16.6561 18.3416 16.4053 17.8721 16.2692H17.8596ZM9.46925 2.79197C9.49341 2.72601 9.54209 2.67192 9.60515 2.64097C9.66822 2.61003 9.74079 2.60461 9.80774 2.62585L16.0762 4.64117C16.1104 4.65201 16.1421 4.6695 16.1696 4.69262C16.197 4.71575 16.2196 4.74406 16.2361 4.77594C16.2531 4.80848 16.2635 4.84405 16.2667 4.88063C16.2699 4.9172 16.2659 4.95405 16.2549 4.98907L14.6595 9.92235H10.7073C10.6782 9.9227 10.6497 9.91497 10.6248 9.90003C10.5998 9.88509 10.5796 9.86352 10.5662 9.83773L10.187 9.09805C10.0648 8.85937 9.87885 8.65921 9.6498 8.51979C9.42075 8.38037 9.15755 8.30714 8.88941 8.30822H7.69213L9.46925 2.79197ZM5.39474 8.90999H8.88941C9.04564 8.90927 9.199 8.95196 9.33238 9.03332C9.46576 9.11467 9.57391 9.23149 9.64476 9.37073L10.0271 10.1167C10.0913 10.2417 10.1888 10.3465 10.3088 10.4195C10.4289 10.4925 10.5668 10.5309 10.7073 10.5304H16.4304C16.6485 10.5312 16.8573 10.6184 17.0112 10.7729C17.1651 10.9274 17.2516 11.1366 17.2516 11.3547V12.1602C17.006 11.9802 16.7098 11.8825 16.4053 11.8813H5.45429C5.14983 11.8825 4.8536 11.9802 4.60805 12.1602V9.71236C4.60763 9.60823 4.62774 9.50503 4.6672 9.40867C4.70667 9.3123 4.76474 9.22465 4.83808 9.15073C4.91142 9.07681 4.99861 9.01805 5.09466 8.97782C5.19071 8.93759 5.29374 8.91667 5.39787 8.91626L5.39474 8.90999ZM5.41981 19.8359C5.20091 19.8351 4.99125 19.7476 4.83675 19.5925C4.68225 19.4374 4.59551 19.2274 4.59551 19.0085V13.3324C4.59716 13.1088 4.68694 12.8948 4.84538 12.7369C5.00381 12.5791 5.21811 12.4901 5.44175 12.4893H16.4053C16.6268 12.4901 16.8393 12.5773 16.9973 12.7325C17.1554 12.8876 17.2466 13.0984 17.2516 13.3199V16.1658C17.1868 16.1658 17.121 16.1658 17.0541 16.1658C16.6051 16.1647 16.1619 16.2665 15.7583 16.4631C15.3547 16.6598 15.0014 16.9462 14.7255 17.3004C14.4497 17.6546 14.2585 18.0673 14.1667 18.5068C14.0748 18.9462 14.0847 19.4009 14.1957 19.8359H5.41981ZM17.0416 21.4501C16.5777 21.4507 16.1242 21.3137 15.7382 21.0565C15.3523 20.7993 15.0513 20.4333 14.8734 20.005C14.6955 19.5767 14.6486 19.1052 14.7387 18.6502C14.8288 18.1952 15.0518 17.7772 15.3796 17.449C15.7073 17.1208 16.125 16.8972 16.5799 16.8065C17.0348 16.7158 17.5063 16.7621 17.9349 16.9394C18.3634 17.1168 18.7298 17.4173 18.9875 17.8029C19.2453 18.1885 19.3828 18.6419 19.3828 19.1057C19.3828 19.7247 19.138 20.3187 18.7017 20.7579C18.2654 21.1971 17.6732 21.4459 17.0541 21.4501H17.0416Z" fill="black"/>
<path d="M18.1135 18.8017H17.3581V18.0463C17.3412 17.9785 17.302 17.9184 17.2469 17.8754C17.1919 17.8324 17.124 17.8091 17.0541 17.8091C16.9843 17.8091 16.9164 17.8324 16.8613 17.8754C16.8062 17.9184 16.7671 17.9785 16.7501 18.0463V18.8017H15.9916C15.9239 18.8186 15.8637 18.8578 15.8207 18.9129C15.7777 18.968 15.7544 19.0358 15.7544 19.1057C15.7544 19.1756 15.7777 19.2434 15.8207 19.2985C15.8637 19.3536 15.9239 19.3927 15.9916 19.4097H16.7501V20.1776C16.7671 20.2454 16.8062 20.3055 16.8613 20.3485C16.9164 20.3915 16.9843 20.4148 17.0541 20.4148C17.124 20.4148 17.1919 20.3915 17.2469 20.3485C17.302 20.3055 17.3412 20.2454 17.3581 20.1776V19.4097H18.1135C18.1813 19.3927 18.2414 19.3536 18.2844 19.2985C18.3274 19.2434 18.3507 19.1756 18.3507 19.1057C18.3507 19.0358 18.3274 18.968 18.2844 18.9129C18.2414 18.8578 18.1813 18.8186 18.1135 18.8017Z" fill="black"/>
</svg>
