<svg width="24" height="24" viewBox="0 0 24 24" fill="none" xmlns="http://www.w3.org/2000/svg">
<path fill-rule="evenodd" clip-rule="evenodd" d="M12.75 2.75C12.75 2.55109 12.671 2.36032 12.5303 2.21967C12.3897 2.07902 12.1989 2 12 2C11.8011 2 11.6103 2.07902 11.4697 2.21967C11.329 2.36032 11.25 2.55109 11.25 2.75V4.5H9.27599C8.92468 4.49984 8.58146 4.60542 8.29099 4.803L6.59599 5.957C6.55438 5.98518 6.50524 6.00016 6.45499 6H2.35299C2.15407 6 1.96331 6.07902 1.82266 6.21967C1.682 6.36032 1.60299 6.55109 1.60299 6.75C1.60299 6.94891 1.682 7.13968 1.82266 7.28033C1.96331 7.42098 2.15407 7.5 2.35299 7.5H3.92999L0.562986 15.18C0.499387 15.3299 0.485463 15.4962 0.523254 15.6545C0.561045 15.8129 0.648564 15.955 0.772986 16.06C0.852986 16.124 0.933986 16.185 1.08199 16.281C1.26799 16.402 1.53399 16.559 1.87399 16.714C2.55399 17.025 3.53599 17.334 4.74999 17.334C5.74201 17.3359 6.72285 17.1245 7.62599 16.714C7.96599 16.559 8.23199 16.402 8.41799 16.281C8.56799 16.184 8.64799 16.123 8.72799 16.058C8.8534 15.9542 8.94163 15.8124 8.97933 15.654C9.01704 15.4956 9.00217 15.3292 8.93699 15.18L5.56899 7.5H6.45499C6.80599 7.5 7.14899 7.394 7.43899 7.197L9.13499 6.043C9.17631 6.01501 9.22507 6.00004 9.27499 6H11.25V20.5H6.76299C6.56407 20.5 6.37331 20.579 6.23266 20.7197C6.092 20.8603 6.01299 21.0511 6.01299 21.25C6.01299 21.4489 6.092 21.6397 6.23266 21.7803C6.37331 21.921 6.56407 22 6.76299 22H17.237C17.4359 22 17.6267 21.921 17.7673 21.7803C17.908 21.6397 17.987 21.4489 17.987 21.25C17.987 21.0511 17.908 20.8603 17.7673 20.7197C17.6267 20.579 17.4359 20.5 17.237 20.5H12.75V6H14.724C14.774 6 14.824 6.015 14.864 6.043L16.561 7.197C16.851 7.394 17.194 7.5 17.545 7.5H18.431L15.063 15.18C14.9956 15.3336 14.9817 15.5053 15.0234 15.6677C15.0651 15.8301 15.16 15.9739 15.293 16.076C15.305 16.085 15.293 16.076 15.295 16.076C15.3942 16.1507 15.4977 16.2195 15.605 16.282C15.79 16.394 16.055 16.538 16.395 16.682C17.2992 17.06 18.27 17.2531 19.25 17.25C20.2304 17.2529 21.2015 17.0594 22.106 16.681C22.444 16.538 22.71 16.394 22.896 16.282C23.0029 16.2189 23.1064 16.1501 23.206 16.076C23.339 15.9739 23.4339 15.8301 23.4756 15.6677C23.5173 15.5053 23.5033 15.3336 23.436 15.18L20.07 7.5H21.648C21.8469 7.5 22.0377 7.42098 22.1783 7.28033C22.319 7.13968 22.398 6.94891 22.398 6.75C22.398 6.55109 22.319 6.36032 22.1783 6.21967C22.0377 6.07902 21.8469 6 21.648 6H17.546C17.4961 5.99996 17.4473 5.98499 17.406 5.957L15.709 4.803C15.4188 4.60561 15.0759 4.50004 14.725 4.5H12.75V2.75ZM2.19299 15.198C2.98009 15.6168 3.85839 15.835 4.74999 15.833C5.64158 15.835 6.51989 15.6168 7.30699 15.198L4.74999 9.368L2.19299 15.198ZM16.703 15.174C16.785 15.214 16.877 15.257 16.978 15.3C17.508 15.523 18.283 15.75 19.25 15.75C20.1316 15.7525 21.0023 15.5556 21.797 15.174L19.25 9.367L16.703 15.174Z" fill="black"/>
<rect x="6" y="20.5" width="12" height="1.5" rx="0.75" fill="#D9D9D9"/>
<rect x="12.767" y="1.88287" width="19.6685" height="1.58978" rx="0.794892" transform="rotate(89.822 12.767 1.88287)" fill="#D9D9D9"/>
</svg>
