<svg width="24" height="25" viewBox="0 0 24 25" fill="none" xmlns="http://www.w3.org/2000/svg">
<path d="M11.991 2.4989C11.439 2.4989 10.991 2.94626 10.991 3.49814V14.052L7.99097 11.0863L6.58496 12.4912L11.272 17.2066C11.663 17.5963 12.319 17.5963 12.71 17.2066L17.397 12.4912L15.991 11.0863L12.991 14.052V3.49814C12.991 2.94626 12.543 2.4988 11.991 2.4989Z" fill="black"/>
<path d="M4 14.5C3.448 14.5 3 14.948 3 15.5V17.5C3 19.709 4.791 21.5 7 21.5H17C19.209 21.5 21 19.709 21 17.5V15.5C21 14.948 20.552 14.5 20 14.5C19.448 14.5 19 14.948 19 15.5V17.5C19 18.605 18.105 19.5 17 19.5H7C5.895 19.5 5 18.605 5 17.5V15.5C5 14.948 4.552 14.5 4 14.5Z" fill="black" fill-opacity="0.4"/>
</svg>
