<svg width="24" height="24" viewBox="0 0 24 24" fill="none" xmlns="http://www.w3.org/2000/svg">
<path d="M5.99829 3C4.34129 3 2.99829 4.343 2.99829 6V17C2.99829 19.209 4.78929 21 6.99829 21H16.9983C19.2073 21 20.9983 19.209 20.9983 17V8C20.9983 7.448 20.5503 7 19.9983 7H14.9983C14.2433 7 14.0003 6.755 13.4043 5.562C12.5013 3.755 11.7433 3 9.99829 3H5.99829ZM5.99829 5H9.99829C10.7533 5 10.9963 5.245 11.5923 6.438C11.7223 6.699 11.7763 6.782 11.9043 7H7.96729C7.41429 7 6.96729 7.448 6.96729 8C6.96729 8.552 7.41429 9 7.96729 9H18.9983V17C18.9983 18.105 18.1033 19 16.9983 19H6.99829C5.89329 19 4.99829 18.105 4.99829 17V6C4.99829 5.448 5.44629 5 5.99829 5Z" fill="#1DC690"/>
<path d="M13.6213 11.0771C13.2741 11.2214 12.9977 11.5679 12.9977 12.0109C12.9977 12.1353 12.9977 12.649 12.9977 13.0064C11.0492 13.0064 8.54295 14.0288 7.29183 15.2772C6.90272 15.6665 6.90272 16.3196 7.29183 16.7088C7.68193 17.0971 8.33642 17.0971 8.72652 16.7088C9.6035 15.8327 11.579 14.9975 12.9977 14.9975C12.9977 15.3549 12.9977 15.8686 12.9977 15.993C12.9977 16.88 14.0842 17.336 14.7128 16.7088L16.7082 14.7177C17.0973 14.3285 17.0973 13.6754 16.7082 13.2862L14.7128 11.2951C14.3985 10.9815 13.9685 10.9337 13.6213 11.0771Z" fill="#0700C4"/>
</svg>
