<svg width="26" height="24" viewBox="0 0 26 24" fill="none" xmlns="http://www.w3.org/2000/svg">
<path d="M5.79733 21.5631C5.35059 21.0106 5.56317 20.4277 5.68258 19.896C6.23281 17.4462 8.41176 15.7442 10.9371 15.7418C12.3881 15.7404 13.84 15.7112 15.2896 15.756C15.894 15.7747 16.4935 15.9535 17.1689 16.0725C16.4926 17.184 16.7268 18.2905 16.7684 19.3571C16.8011 20.1971 17.3797 20.685 18.2466 20.8288C19.1436 20.9777 19.1436 20.9777 19.0637 21.9153C18.9205 21.9249 18.7708 21.9437 18.621 21.9438C14.6653 21.9454 10.7096 21.9529 6.75398 21.9297C6.44377 21.9279 6.13482 21.7097 5.79733 21.5631Z" fill="black"/>
<path d="M11.9209 14.3256C8.8853 13.5225 8.27247 9.97559 9.86901 7.92156C10.9368 6.54773 12.7915 6.04751 14.4361 6.66817C16.0261 7.26821 17.084 8.85367 17.0222 10.5438C16.9248 13.2091 14.6278 14.9319 11.9209 14.3256Z" fill="black"/>
<path d="M20.3278 19.7226C19.7691 19.6457 19.2255 19.5816 18.6834 19.5926C18.1879 19.6025 17.9913 19.4146 18.017 18.9236C18.0413 18.4591 18.0193 17.9923 18.0228 17.5266C18.0273 16.9322 18.1094 16.8521 18.725 16.8454C19.1389 16.8408 19.5535 16.8315 19.9667 16.8488C20.2574 16.861 20.3687 16.7547 20.3578 16.4615C20.341 16.0137 20.3709 15.5639 20.3485 15.1165C20.3273 14.6917 20.5366 14.5058 20.9257 14.4958C21.4428 14.4825 21.9605 14.4922 22.4779 14.4919C22.9003 14.4917 23.1151 14.6995 23.1147 15.125C23.1142 15.6735 23.1146 16.2219 23.1146 16.8446C23.6934 16.8446 24.2212 16.8604 24.7476 16.84C25.2239 16.8215 25.4576 17.0067 25.4436 17.4995C25.4293 17.9993 25.4388 18.4999 25.4399 19.0001C25.4409 19.4019 25.2655 19.6048 24.8409 19.587C24.4104 19.5689 23.9774 19.603 23.5477 19.5767C23.1962 19.5551 23.0963 19.6964 23.1129 20.0264C23.1346 20.4565 23.1236 20.8887 23.1151 21.3198C23.1069 21.7325 22.9223 21.9532 22.4728 21.9327C21.9736 21.9098 21.4722 21.9153 20.9724 21.9308C20.5369 21.9443 20.3362 21.7675 20.3492 21.3201C20.3643 20.8033 20.3469 20.2855 20.3278 19.7226Z" fill="black" fill-opacity="0.4"/>
<path d="M8.63768 4.87687C8.65489 6.92188 7.34057 8.32362 5.45202 8.25636C4.22365 8.21261 3.26606 7.64783 2.73794 6.50247C2.19961 5.33494 2.32508 4.19172 3.1201 3.19695C3.87667 2.25029 4.91201 1.88859 6.1199 2.12475C7.55721 2.40576 8.34379 3.26038 8.63768 4.87687Z" fill="black"/>
<path d="M17.8318 3.48654C18.5567 2.41513 19.5636 1.94979 20.7836 2.07322C22.051 2.20144 22.9467 2.89315 23.4024 4.11612C24.0031 5.72801 23.0329 7.68123 21.3947 8.13668C19.5682 8.64447 17.7959 7.59502 17.4402 5.81084C17.2773 4.99414 17.4303 4.24114 17.8318 3.48654Z" fill="black"/>
<path d="M0.555908 13.0157C0.779122 11.0704 1.76949 9.80077 3.49029 9.58478C4.70668 9.4321 5.96281 9.57852 7.20021 9.62074C7.60823 9.63466 7.77373 9.80559 7.73915 10.3193C7.66472 11.4247 8.01 12.4612 8.63342 13.3908C8.70821 13.5023 8.78421 13.613 8.92149 13.8151C8.68797 13.8408 8.53259 13.8725 8.37718 13.8727C6.11531 13.8758 3.85344 13.8773 1.59158 13.8731C0.888415 13.8718 0.687905 13.7054 0.555908 13.0157Z" fill="black"/>
<path d="M25.4321 12.924C25.48 13.3615 25.3181 13.7232 24.9654 13.7928C24.5925 13.8665 24.169 13.7832 23.7879 13.6875C23.4486 13.6023 23.1388 13.2858 22.813 13.2813C21.6832 13.2656 20.484 12.924 19.4892 13.8041C19.4426 13.8453 19.3618 13.8654 19.2968 13.8658C18.5954 13.8701 17.894 13.8684 17.1193 13.8684C17.1992 13.7086 17.232 13.6172 17.2854 13.54C17.974 12.5454 18.3528 11.4541 18.2696 10.2357C18.244 9.86065 18.3943 9.6759 18.7326 9.62991C19.1402 9.57449 19.5516 9.52225 19.9621 9.51663C20.8074 9.50506 21.6642 9.44114 22.4964 9.55042C24.1384 9.76603 25.3052 11.1471 25.4321 12.924Z" fill="black"/>
</svg>
