<svg width="586" height="344" viewBox="0 0 586 344" fill="none" xmlns="http://www.w3.org/2000/svg">
<rect x="5.5" y="5.5" width="575" height="333" rx="17.5" stroke="#0F0F0F" stroke-width="11"/>
<rect x="37" y="65.0596" width="203" height="15" fill="#0F0F0F"/>
<path d="M279.664 48.9436C280.841 48.9828 281.945 49.2096 282.823 49.6668C279.19 51.1628 277.605 55.1204 276.631 59.1558L276.25 60.7365L277.454 59.6432C277.723 59.3987 277.985 59.153 278.245 58.9097C279.205 58.0098 280.131 57.1423 281.251 56.4851C282.378 55.8237 283.699 55.3828 285.42 55.4166C284.17 56.5493 283.234 58.0464 282.572 59.4356C281.735 61.1914 281.298 62.8589 281.228 63.5637L281.107 64.7798L282.046 63.997C282.691 63.4584 283.32 62.8549 283.939 62.2607L283.964 62.2369C284.579 61.6464 285.184 61.0653 285.806 60.5391C286.907 59.609 288.017 58.8918 289.235 58.6256C289.172 62.934 289.109 67.3644 289.046 71.7945L289.046 71.8161C288.98 76.4536 288.915 81.0905 288.848 85.5871C288.827 85.9709 288.877 86.3554 289.135 86.6528C289.39 86.9463 289.757 87.048 290.09 87.0967L290.092 87.097C290.15 87.1051 290.22 87.1142 290.295 87.1204L290.321 87.1226L290.347 87.122C290.525 87.118 290.704 87.1237 290.888 87.13L290.913 87.1309C291.083 87.1368 291.265 87.1431 291.431 87.1383C291.602 87.1335 291.797 87.1166 291.977 87.0573C292.164 86.9958 292.37 86.8762 292.5 86.6476C292.608 86.4632 292.681 86.2241 292.737 85.9784C292.795 85.7204 292.843 85.4122 292.882 85.067C292.961 84.376 293.011 83.5036 293.039 82.5222C293.096 80.5576 293.067 78.1198 293.004 75.7477C292.941 73.3741 292.844 71.0594 292.762 69.3387C292.721 68.4781 292.684 67.7658 292.658 67.2685C292.644 67.0198 292.634 66.8249 292.626 66.692L292.617 66.5403L292.615 66.5027V58.4466C295.514 59.065 297.651 61.2977 299.459 63.2051L300.5 64.3024L300.319 62.8012C300.124 61.1863 299.48 59.4658 298.572 58.0345C297.87 56.9286 296.985 55.9558 295.987 55.3503C296.295 55.2327 296.647 55.1595 297.035 55.1307C297.768 55.0762 298.598 55.1842 299.423 55.4208C301.098 55.9009 302.617 56.8665 303.252 57.8659L303.853 58.8104L304.156 57.7332C304.668 55.9115 303.712 53.9665 302.337 52.4734C301.125 51.1582 299.489 50.0785 297.913 49.6168C298.529 48.8358 299.679 48.3269 301.027 48.0475C302.623 47.7169 304.291 47.7522 305.107 47.9078L306.25 48.1254L305.622 47.1467C304.795 45.8565 303.088 44.7947 301.256 44.1534C299.913 43.6834 298.437 43.4157 297.085 43.4698C297.693 42.9291 298.409 42.4427 299.13 42.0084C299.692 41.6699 300.244 41.3703 300.735 41.1039L300.762 41.0896C301.234 40.8338 301.665 40.5996 301.971 40.3982L303.196 39.5913L301.733 39.4821C299.74 39.3333 297.991 39.2034 296.42 39.4818C294.992 39.7349 293.717 40.3223 292.506 41.4917C292.306 41.0795 292.187 40.582 292.061 40.0129C292.055 39.9835 292.048 39.9538 292.042 39.9239C291.88 39.1918 291.689 38.3238 291.148 37.6788L290.5 36.906L290.277 37.8894C290.201 38.2237 290.005 38.6178 289.732 39.0805L289.731 39.0819C289.645 39.2288 289.55 39.3854 289.451 39.5476C289.25 39.8775 289.034 40.2306 288.855 40.5717C288.722 40.8251 288.597 41.0925 288.499 41.3689C287.235 40.4309 285.643 39.9572 284.12 39.7991C282.322 39.6124 280.532 39.8571 279.357 40.3792L278.02 40.9733L279.441 41.3217C280.679 41.625 282.082 42.2159 283.299 43.0207C283.929 43.4372 284.497 43.9029 284.965 44.4053C280.69 42.8253 276.218 45.1478 274.659 48.9397L274.233 49.9753L275.288 49.6011C276.5 49.1712 278.108 48.8918 279.664 48.9436ZM288.916 41.7053C288.857 41.9007 288.819 42.0949 288.807 42.2869C288.664 42.146 288.513 42.0134 288.356 41.8887L288.916 41.7053Z" fill="#0F0F0F" stroke="black"/>
<path d="M255.375 78.3457C262.201 79.109 275.315 80.5754 287.095 92.2776C286.282 92.9341 285.476 93.6017 284.673 94.2671L284.645 94.2904C283.829 94.9662 283.016 95.6395 282.197 96.3002C282.096 96.082 282.018 95.8172 281.964 95.5201C281.874 95.0236 281.862 94.5022 281.878 94.1071L281.879 94.0747L281.876 94.0425C281.841 93.643 281.721 93.2964 281.502 93.0456C281.273 92.7839 280.956 92.6552 280.627 92.6879C279.997 92.7505 279.561 93.3389 279.483 94.0144C279.284 95.1129 279.392 95.8946 279.609 96.6107C279.694 96.892 279.797 97.1661 279.896 97.4309C279.919 97.4911 279.941 97.5508 279.963 97.61C280.052 97.8498 280.138 98.0917 280.215 98.3521C279.481 98.9961 278.683 99.686 277.883 100.378L277.877 100.383C277.133 101.026 276.387 101.671 275.692 102.28C274.769 101.242 273.626 100.857 272.681 101.245C271.584 101.696 271.161 103.008 271.634 104.518L271.634 104.519C272.207 106.352 273.112 107.357 274.32 107.576C275.465 107.784 276.686 107.237 277.79 106.512C278.915 105.772 280.041 104.763 281.024 103.865C281.109 103.787 281.194 103.709 281.277 103.633C281.976 102.993 282.578 102.442 283.062 102.077C283.168 102.269 283.264 102.505 283.35 102.779C283.494 103.241 283.595 103.755 283.688 104.256L283.689 104.258C283.744 104.546 283.85 104.808 284.026 105.004C284.212 105.212 284.469 105.335 284.757 105.32C285.295 105.291 285.667 104.82 285.849 104.341L285.864 104.301L285.872 104.259C286.201 102.554 285.769 101.378 285.207 100.26C286.108 99.4966 287.054 98.6685 287.997 97.8433C288.856 97.0918 289.712 96.3427 290.528 95.647L290.53 95.645C290.663 95.5303 290.797 95.4176 290.931 95.3043C290.938 95.2981 290.946 95.2919 290.953 95.2857H291.194C292.081 95.9977 293.083 96.8923 294.099 97.7993L294.101 97.8015C295.068 98.6644 296.047 99.5385 296.93 100.254C296.925 100.268 296.92 100.283 296.914 100.299C296.879 100.402 296.838 100.513 296.792 100.637C296.771 100.695 296.749 100.756 296.725 100.82C296.583 101.212 296.415 101.693 296.315 102.19C296.215 102.683 296.171 103.234 296.311 103.753C296.456 104.294 296.793 104.77 297.387 105.091C297.511 105.159 297.683 105.217 297.88 105.184C298.083 105.149 298.228 105.033 298.323 104.915C298.488 104.709 298.568 104.415 298.621 104.149C298.716 103.67 298.778 102.963 298.845 102.08C299.333 102.172 299.839 102.429 300.381 102.819C301.011 103.272 301.632 103.86 302.284 104.477C302.366 104.555 302.449 104.634 302.532 104.713C303.258 105.398 304.027 106.102 304.829 106.574C305.64 107.051 306.545 107.327 307.517 107.066L307.558 107.055L307.597 107.037C309.044 106.369 310.43 104.94 310.99 103.365L310.993 103.356L310.996 103.348C311.103 103.01 311.03 102.64 310.916 102.338C310.796 102.02 310.6 101.699 310.355 101.422C309.891 100.896 309.106 100.386 308.234 100.673C307.684 100.845 307.327 101.204 307.056 101.476L307.033 101.499C306.821 101.712 306.655 101.871 306.466 101.977C305.678 101.357 304.935 100.759 304.191 100.159L304.127 100.108C303.409 99.5297 302.688 98.9494 301.925 98.3493C302.068 98.1162 302.207 97.8384 302.332 97.5494C302.564 97.0167 302.78 96.3758 302.908 95.745C303.033 95.1266 303.085 94.4609 302.937 93.9081C302.861 93.6248 302.727 93.3483 302.5 93.1298C302.268 92.9065 301.972 92.7735 301.627 92.7338L301.626 92.7337C301.328 92.7002 301.078 92.8211 300.908 93.0202C300.762 93.1911 300.685 93.4063 300.637 93.5897C300.546 93.936 300.507 94.3908 300.471 94.8115C300.469 94.8397 300.466 94.8677 300.464 94.8956C300.423 95.3667 300.381 95.8141 300.289 96.1815C300.251 96.3331 300.21 96.4506 300.168 96.5406C299.331 95.8972 298.452 95.1196 297.556 94.3261L297.544 94.316C296.702 93.5705 295.844 92.8112 295.013 92.1629C295.212 91.99 295.435 91.7913 295.684 91.5703C299.623 88.0692 309.88 78.9514 328.278 77.5594L328.333 76.5697C309.04 72.9054 294.927 85.292 291.213 89.1703C290.983 88.9799 290.752 88.7892 290.52 88.6009C280.004 80.0264 268.174 73.5582 253.877 77.1999L253.939 78.1807C254.38 78.2345 254.859 78.2881 255.375 78.3457Z" fill="#0F0F0F" stroke="black"/>
<rect x="342.24" y="65.0596" width="203" height="15" fill="#0F0F0F"/>
<rect x="503" y="145" width="43" height="15" fill="#0F0F0F"/>
<rect x="288" y="145" width="168" height="15" fill="#0F0F0F"/>
<rect x="481" y="181" width="65" height="15" fill="#0F0F0F"/>
<rect x="315" y="181" width="141" height="15" fill="#0F0F0F"/>
<rect x="490" y="217" width="56" height="15" fill="#0F0F0F"/>
<rect x="288" y="217" width="168" height="15" fill="#0F0F0F"/>
<rect x="481" y="253" width="65" height="15" fill="#0F0F0F"/>
<rect x="315" y="253" width="141" height="15" fill="#0F0F0F"/>
<rect x="288" y="298" width="258" height="4" fill="#0F0F0F"/>
<rect x="512" y="308" width="24" height="7" fill="#0F0F0F"/>
<rect x="411" y="308" width="24" height="7" fill="#0F0F0F"/>
<rect x="310" y="308" width="24" height="7" fill="#0F0F0F"/>
<rect x="42" y="134" width="156" height="163" stroke="#0F0F0F" stroke-width="10"/>
<path d="M99.7051 301.065L99.7386 301.069H99.7725H99.8689H99.9652H100.062H100.158H100.254H100.35H100.446H100.542H100.638H100.734H100.83H100.926H101.022H101.118H101.213H101.309H101.404H101.5H101.596H101.691H101.786H101.882H101.977H102.072H102.167H102.263H102.358H102.453H102.548H102.643H102.738H102.833H102.927H103.022H103.117H103.212H103.306H103.401H103.495H103.59H103.684H103.779H103.873H103.967H104.062H104.156H104.25H104.344H104.438H104.532H104.626H104.72H104.814H104.908H105.002H105.096H105.189H105.283H105.377H105.47H105.564H105.658H105.751H105.845H105.938H106.031H106.125H106.218H106.311H106.405H106.498H106.591H106.684H106.777H106.87H106.963H107.056H107.149H107.242H107.335H107.427H107.52H107.613H107.706H107.798H107.891H107.983H108.076H108.168H108.261H108.353H108.446H108.538H108.63H108.723H108.815H108.907H108.999H109.092H109.184H109.276H109.368H109.46H109.552H109.644H109.736H109.828H109.919H110.011H110.103H110.195H110.286H110.378H110.47H110.561H110.653H110.745H110.836H110.928H111.019H111.111H111.202H111.293H111.385H111.476H111.567H111.659H111.75H111.841H111.932H112.024H112.115H112.206H112.297H112.388H112.479H112.57H112.661H112.752H112.843H112.934H113.024H113.115H113.206H113.297H113.388H113.478H113.569H113.66H113.75H113.841H113.932H114.022H114.113H114.203H114.294H114.384H114.475H114.565H114.656H114.746H114.837H114.927H115.017H115.108H115.198H115.288H115.378H115.469H115.559H115.649H115.739H115.829H115.92H116.01H116.1H116.19H116.28H116.37H116.46H116.55H116.64H116.73H116.82H116.91H117H117.09H117.18H117.269H117.359H117.449H117.539H117.629H117.718H117.808H117.898H117.988H118.077H118.167H118.257H118.346H118.436H118.526H118.615H118.705H118.795H118.884H118.974H119.063H119.153H119.242H119.332H119.421H119.511H119.6H119.69H119.779H119.869H119.958H120.048H120.137H120.227H120.316H120.405H120.495H120.584H120.673H120.763H120.852H120.941H121.031H121.12H121.209H121.299H121.388H121.477H121.567H121.656H121.745H121.834H121.924H122.013H122.102H122.191H122.281H122.37H122.459H122.548H122.637H122.727H122.816H122.905H122.994H123.083H123.172H123.262H123.351H123.44H123.529H123.618H123.707H123.797H123.886H123.975H124.064H124.153H124.242H124.331H124.42H124.51H124.599H124.688H124.777H124.866H124.955H125.044H125.133H125.223H125.312H125.401H125.49H125.579H125.668H125.757H125.846H125.936H126.025H126.098C129.088 301.298 131.584 301.452 133.551 301.5C134.856 301.531 135.944 301.516 136.798 301.441C137.527 301.378 138.143 301.267 138.583 301.069H138.612H138.703H138.795H138.886H138.977H139.069H139.16H139.252H139.343H139.435H139.526H139.618H139.71H139.801H139.893H139.985H140.077H140.168H140.26H140.352H140.444H140.536H140.628H140.72H140.812H140.904H140.996H141.088H141.181H141.273H141.365H141.457H141.55H141.642H141.734H141.827H141.919H142.012H142.104H142.197H142.289H142.382H142.475H142.567H142.66H142.753H142.846H142.939H143.032H143.124H143.217H143.31H143.404H143.497H143.59H143.683H143.776H143.869H143.963H144.056H144.149H144.243H144.336H144.43H144.523H144.617H144.71H144.804H144.898H144.992H145.085H145.179H145.273H145.367H145.461H145.555H145.626C147.782 301.568 149.484 301.868 151.148 301.958C153.942 302.11 156.629 301.674 161.166 300.661C162.239 300.651 163.323 300.618 164.428 300.547C164.729 300.736 165.071 300.897 165.438 301.033C166.226 301.326 167.186 301.532 168.239 301.667C170.346 301.939 172.896 301.937 175.343 301.747C177.694 301.566 179.977 301.208 181.708 300.74C184.914 301.279 188.243 301.702 192.014 301.062L192.309 301.012L192.404 300.729C192.525 300.368 192.6 300.063 192.611 299.764C192.622 299.456 192.565 299.188 192.473 298.904L192.46 298.864L192.441 298.826C192.285 298.527 192.068 298.302 191.8 298.153C191.538 298.007 191.252 297.949 190.976 297.938C190.44 297.918 189.854 298.076 189.343 298.234C189.189 298.282 189.041 298.329 188.9 298.375C188.54 298.491 188.222 298.595 187.93 298.654C187.695 298.701 187.552 298.703 187.468 298.69C187.214 296.364 187.227 293.693 187.254 291.007C187.256 290.871 187.257 290.734 187.258 290.598C187.285 287.968 187.312 285.341 187.086 283.098C186.092 273.232 182.043 265.344 172.482 261.073C171.977 260.847 171.495 260.549 170.994 260.221C170.898 260.158 170.8 260.094 170.702 260.029C170.297 259.762 169.874 259.483 169.437 259.238C168.82 258.891 168.411 258.481 168.13 257.991C167.843 257.493 167.672 256.887 167.573 256.125C166.011 244.049 163.133 232.261 160.134 220.506C159.135 216.591 157.704 212.802 156.286 209.048C155.924 208.09 155.563 207.134 155.21 206.179C153.469 201.465 151.92 196.747 151.383 191.751C151.082 188.948 149.971 186.431 148.899 184.001C148.841 183.87 148.783 183.74 148.726 183.609C147.592 181.033 146.547 178.533 146.432 175.741C146.402 175.022 145.977 174.425 145.467 174.01C144.953 173.593 144.294 173.31 143.661 173.238C142.656 173.123 141.832 172.729 141.051 172.198C140.543 171.852 140.086 171.474 139.607 171.078C139.321 170.841 139.027 170.598 138.71 170.351C126.457 160.828 109.887 160.963 97.7742 170.672C97.7392 170.7 97.7044 170.728 97.6696 170.756C96.295 171.859 95.0871 172.828 93.3609 173.153C92.391 173.336 91.4884 173.807 90.8697 174.526C90.2424 175.254 89.9232 176.221 90.118 177.328C90.3867 178.855 89.8173 179.944 89.1277 181.263C89.1033 181.31 89.0788 181.357 89.0542 181.404C87.3009 184.764 85.8875 188.331 85.5473 192.15C85.2594 195.383 84.2991 198.338 83.1437 201.377C76.8891 217.832 71.953 234.69 69.5758 252.186C69.2536 254.558 68.7172 256.535 67.7246 258.156C66.7391 259.764 65.2831 261.054 63.0593 262.017C54.5711 265.692 51.2107 272.88 50.0633 281.485C49.3934 286.508 49.1875 293.307 49.0307 298.483C49.0248 298.679 49.0189 298.873 49.0131 299.064C48.813 299.06 48.5804 299.016 48.3124 298.935C48.0036 298.842 47.7029 298.719 47.3913 298.592C47.2574 298.537 47.1215 298.481 46.9821 298.427C46.7617 298.341 46.5338 298.259 46.3148 298.205C46.0996 298.152 45.858 298.117 45.62 298.151C45.3658 298.188 45.1207 298.305 44.9361 298.535C44.7623 298.752 44.6762 299.027 44.6397 299.323C44.5665 299.917 44.6526 300.423 44.9809 300.789C45.2966 301.141 45.7441 301.255 46.1265 301.303C46.4172 301.339 46.7483 301.343 47.0529 301.346C47.1473 301.348 47.2392 301.349 47.3265 301.351C47.724 301.36 48.0663 301.387 48.3487 301.477L48.5161 301.53L48.6799 301.467C50.5398 300.749 52.2499 300.207 53.8508 299.806C54.4523 300.31 55.2438 300.638 56.1924 300.873L56.2162 300.879L56.2405 300.882C70.401 302.942 85.6472 302.364 98.0932 300.878C98.6446 300.932 99.1826 300.994 99.7051 301.065ZM183.552 298.975C183.135 299.227 182.489 299.481 181.656 299.717C181.277 299.653 180.899 299.587 180.519 299.521L180.508 299.519C176.875 298.888 173.167 298.245 168.909 299.008C167.469 299.266 166.077 299.427 164.713 299.525C164.585 299.422 164.483 299.316 164.407 299.209L164.212 298.937L163.887 299.013C162.86 299.251 161.919 299.468 161.05 299.662C159.955 299.671 158.867 299.658 157.774 299.642C157.588 299.639 157.401 299.636 157.214 299.633C153.787 299.58 150.296 299.527 146.462 300.069H146.403H146.308H146.214H146.12H146.026H145.931H145.837H145.743H145.741C144.288 299.731 142.608 299.297 140.56 298.77C139.657 298.537 138.682 298.285 137.624 298.015L137.206 298.904C137.892 299.403 138.22 299.755 138.326 299.972C138.344 300.008 138.351 300.031 138.354 300.045C138.348 300.05 138.34 300.059 138.326 300.069H138.247H138.156H138.065H137.973H137.882H137.791H137.7H137.609H137.518H137.427H137.336H137.245H137.155H137.064H136.973H136.882H136.791H136.701H136.61H136.519H136.428H136.338H136.247H136.157H136.066H135.975H135.885H135.794H135.704H135.613H135.523H135.432H135.342H135.252H135.161H135.071H134.981H134.89H134.8H134.71H134.62H134.529H134.439H134.349H134.259H134.169H134.079H133.989H133.899H133.808H133.718H133.628H133.538H133.448H133.358H133.269H133.179H133.089H132.999H132.909H132.819H132.729H132.639H132.55H132.46H132.37H132.28H132.191H132.101H132.011H131.921H131.832H131.742H131.652H131.563H131.473H131.384H131.294H131.204H131.115H131.025H130.936H130.846H130.757H130.667H130.578H130.488H130.399H130.309H130.22H130.13H130.041H129.951H129.862H129.773H129.683H129.594H129.505H129.415H129.326H129.236H129.147H129.058H128.969H128.879H128.79H128.701H128.611H128.522H128.433H128.344H128.254H128.165H128.076H127.987H127.897H127.808H127.719H127.63H127.541H127.451H127.362H127.273H127.184H127.095H127.005H126.916H126.827H126.738H126.649H126.56H126.47H126.381H126.292H126.203H126.135C123.225 299.847 119.84 299.555 116.006 299.224C113.391 298.998 110.567 298.754 107.542 298.502L107.477 298.496L107.414 298.507C104.557 299.006 101.421 299.472 98.0811 299.873C94.3858 299.521 90.127 299.522 85.915 299.523L85.5007 299.523C80.4452 299.524 75.4884 299.508 71.5752 298.89L71.2729 298.843C67.6699 298.273 64.4036 297.757 60.8563 297.836C58.7622 297.883 56.5754 298.136 54.1614 298.701C54.1593 298.699 54.1572 298.696 54.1551 298.693C53.729 298.156 53.5126 297.38 53.5587 296.165C53.8224 289.204 54.9168 282.39 56.6476 275.654C57.3977 272.735 59.1213 270.593 61.6741 268.903C71.3107 262.524 81.4987 257.118 91.7141 251.698C92.0063 251.543 92.2985 251.388 92.5906 251.233C92.906 251.066 93.1911 250.915 93.4643 250.802C93.7375 250.688 93.9658 250.627 94.1608 250.62C94.3435 250.613 94.5026 250.654 94.6578 250.762C94.8219 250.877 95.0124 251.09 95.2079 251.48L95.2231 251.511L95.2424 251.539C99.4354 257.666 104.993 260.847 111.745 261.663C113.52 261.878 114.544 262.355 115.132 263.098C115.726 263.849 115.966 264.984 115.885 266.742C115.682 271.142 115.731 275.561 115.781 279.962C115.801 281.702 115.82 283.439 115.824 285.171C115.824 285.29 115.824 285.41 115.824 285.532C115.823 286.37 115.822 287.257 115.95 288.123C116.048 288.782 116.244 289.5 116.674 290.036C117.133 290.609 117.82 290.924 118.745 290.821C119.591 290.727 120.129 290.289 120.427 289.686C120.705 289.124 120.76 288.45 120.764 287.866C120.782 284.735 120.785 281.603 120.788 278.473C120.789 277.874 120.789 277.274 120.79 276.675C120.791 275.615 120.796 274.553 120.801 273.49C120.814 270.702 120.827 267.906 120.774 265.115C120.756 264.163 120.882 263.503 121.192 263.054C121.485 262.629 122.009 262.301 123.02 262.168C131.089 261.109 137.968 257.839 142.462 250.332C142.983 250.603 143.504 250.875 144.025 251.146C155.394 257.069 166.513 262.861 176.811 270.099C178.216 271.086 179.046 272.396 179.634 273.88C180.072 274.984 180.365 276.15 180.666 277.347C180.776 277.782 180.886 278.222 181.005 278.664C182.232 283.224 182.956 289.525 183.57 294.871C183.719 296.171 183.862 297.414 184.004 298.561C184.004 298.562 184.004 298.563 184.004 298.564C184.004 298.565 184.003 298.568 184.001 298.574C183.999 298.58 183.995 298.589 183.989 298.602C183.981 298.615 183.97 298.633 183.954 298.654C183.888 298.738 183.763 298.848 183.552 298.975ZM138.361 300.035C138.361 300.035 138.361 300.035 138.361 300.036L138.361 300.035ZM95.1836 229.78L95.1835 229.78L95.1855 229.79C96.034 234.179 95.058 237.976 94.0665 241.833C93.8373 242.725 93.6072 243.62 93.3986 244.526C93.3768 244.621 93.303 244.762 93.1678 244.916C93.0364 245.066 92.8787 245.191 92.7415 245.266C87.7127 247.999 82.6714 250.708 77.5553 253.458C76.609 253.967 75.6601 254.477 74.7083 254.989C74.5501 252.025 75.1407 247.419 76.2522 241.983C77.4581 236.085 79.2639 229.27 81.3342 222.637C83.4047 216.003 85.7365 209.562 87.992 204.41C89.12 201.834 90.2256 199.589 91.2664 197.806C91.9894 196.567 92.67 195.572 93.2927 194.847C93.3223 196.794 93.3402 198.733 93.358 200.664C93.4491 210.539 93.5384 220.217 95.1836 229.78ZM98.4069 195.156C98.409 194.828 98.4113 194.476 98.4126 194.092C107.372 196.747 116.119 198.293 125.137 197.071C128.901 196.667 132.195 195.753 135.356 194.877C136.213 194.639 137.059 194.404 137.903 194.183C138.508 195.907 138.425 197.485 138.34 199.105C138.325 199.384 138.31 199.663 138.299 199.945C138.175 203.027 138.133 206.094 138.092 209.153C138.02 214.482 137.948 219.788 137.441 225.113C137.052 229.195 134.056 234.25 130.156 238.296C128.215 240.31 126.073 242.049 123.96 243.275C121.839 244.505 119.787 245.195 118.016 245.167C116.196 245.138 114.519 244.904 113.179 243.894C105.431 238.053 99.2222 231.47 99.1054 221.049C99.0466 215.8 98.8608 210.548 98.6751 205.303C98.5846 202.745 98.4941 200.189 98.4185 197.635C98.3959 196.872 98.4008 196.113 98.4069 195.156ZM143.029 217.551C143.289 212.285 143.473 207.013 143.657 201.745C143.727 199.731 143.798 197.719 143.872 195.707C144.375 195.73 144.771 195.844 145.092 196.012C145.506 196.228 145.832 196.55 146.111 196.956C146.393 197.367 146.619 197.849 146.84 198.372C146.9 198.515 146.961 198.662 147.022 198.812C147.179 199.194 147.342 199.591 147.52 199.954C150.563 206.183 152.634 212.811 154.512 219.511C157.684 230.826 160.802 242.114 162 253.809C162.021 254.008 162.023 254.215 162.018 254.513C162.017 254.59 162.016 254.673 162.014 254.762C162.013 254.795 162.013 254.829 162.012 254.864C160.951 254.3 159.897 253.741 158.851 253.185C153.841 250.524 148.987 247.946 144.151 245.335C143.974 245.239 143.763 245.068 143.593 244.867C143.415 244.657 143.334 244.477 143.323 244.374C143.17 243.032 142.889 241.715 142.589 240.42C142.512 240.091 142.434 239.764 142.357 239.438C142.128 238.475 141.902 237.523 141.717 236.561C141.223 233.999 141.035 231.445 141.893 228.736C142.774 225.954 142.861 222.885 142.945 219.931C142.968 219.126 142.991 218.331 143.029 217.551ZM144.583 186.627C144.728 187.002 144.859 187.378 144.994 187.761C145.056 187.939 145.119 188.12 145.185 188.302C145.297 188.664 145.381 188.932 145.49 189.276C143.626 188.018 141.853 187.776 140.134 188.016C139.097 188.161 138.092 188.48 137.123 188.83C136.786 188.951 136.456 189.075 136.13 189.198C135.504 189.434 134.892 189.664 134.266 189.862C123.127 193.39 112.011 193.199 101.032 189.262L100.992 189.247C97.9869 188.17 94.907 187.065 91.6579 188.923C91.6426 188.421 91.7441 187.973 91.8974 187.539C92.0082 187.225 92.144 186.924 92.2876 186.605L92.3006 186.577C92.4457 186.255 92.5993 185.913 92.7167 185.557C93.2243 184.022 93.8288 183.089 94.6718 182.599C95.5154 182.109 96.714 181.994 98.5729 182.383C111.452 185.075 124.469 184.712 137.393 182.677C137.575 182.648 137.75 182.62 137.919 182.594C139.091 182.408 139.972 182.268 140.675 182.218C141.477 182.16 141.957 182.228 142.313 182.416C142.663 182.602 142.972 182.947 143.33 183.632C143.69 184.321 144.063 185.281 144.583 186.627ZM101.9 240.562C106.409 246.644 111.918 250.072 117.633 250.354C123.355 250.636 129.15 247.758 134.207 241.507C135.086 240.448 135.747 239.639 136.38 238.863C137.916 241.323 138.414 243.934 137.978 246.356C137.508 248.962 135.949 251.393 133.352 253.212C129.597 255.842 124.276 257.323 118.928 257.464C113.578 257.606 108.281 256.405 104.56 253.762C101.238 251.403 99.5457 249.985 98.9375 247.982C98.6334 246.981 98.5903 245.793 98.8141 244.204C99.0237 242.716 99.4628 240.905 100.114 238.604C100.424 238.741 100.679 238.953 100.915 239.216C101.087 239.408 101.245 239.623 101.406 239.855C101.453 239.923 101.501 239.993 101.551 240.065C101.664 240.23 101.782 240.403 101.9 240.562ZM138.437 177.257C124.981 179.611 112.103 179.228 98.977 177.523C100.722 174.19 104.462 171.609 109.226 170.12C114.254 168.549 120.343 168.224 126.195 169.483C131.031 171.112 134.876 173.29 138.437 177.257Z" fill="black" stroke="black"/>
</svg>
