<svg width="24" height="24" viewBox="0 0 24 24" fill="none" xmlns="http://www.w3.org/2000/svg">
<path d="M6.85634 2.00628C6.70739 2.02775 6.57005 2.09888 6.46656 2.20813L4.93528 3.73245C4.80975 3.85798 4.73923 4.02823 4.73923 4.20575C4.73923 4.38328 4.80975 4.55353 4.93528 4.67906C5.06081 4.80459 5.23106 4.87511 5.40859 4.87511C5.58611 4.87511 5.75636 4.80459 5.88189 4.67906L7.41317 3.14778C7.51423 3.04969 7.58171 2.92217 7.60599 2.78344C7.63026 2.64471 7.61009 2.50186 7.54834 2.37528C7.48659 2.2487 7.38643 2.14486 7.26216 2.0786C7.13789 2.01233 6.99586 1.98702 6.85634 2.00628ZM8.74956 2.90417C8.59904 2.92224 8.45913 2.99097 8.35282 3.09906L5.82621 5.61871C5.76392 5.68079 5.7145 5.75455 5.68078 5.83577C5.64706 5.91699 5.62971 6.00407 5.62971 6.09201C5.62971 6.17995 5.64706 6.26703 5.68078 6.34825C5.7145 6.42947 5.76392 6.50323 5.82621 6.56532L6.30647 7.04558C6.01337 7.56878 5.93882 8.18219 6.0907 8.75087C3.34839 11.2689 3.28186 15.3983 6.0211 17.9734C6.56397 18.4837 7.18882 18.9097 7.87256 19.2401C7.95167 19.2789 8.03766 19.3017 8.1256 19.3072C8.21354 19.3127 8.3017 19.3007 8.38502 19.2721C8.46833 19.2434 8.54517 19.1986 8.61111 19.1401C8.67706 19.0817 8.73081 19.0108 8.7693 18.9315C8.80778 18.8523 8.83024 18.7662 8.83538 18.6782C8.84052 18.5903 8.82824 18.5022 8.79924 18.419C8.77025 18.3358 8.72511 18.2591 8.66642 18.1934C8.60773 18.1277 8.53664 18.0742 8.45723 18.036C7.89116 17.7624 7.37964 17.4123 6.93987 16.9989C4.77006 14.9591 4.74708 11.943 6.81458 9.89933C7.54534 10.5136 8.58587 10.5892 9.39688 10.136L14.2343 14.9804C14.2964 15.0427 14.3702 15.0921 14.4514 15.1258C14.5326 15.1595 14.6197 15.1769 14.7076 15.1769C14.7956 15.1769 14.8827 15.1595 14.9639 15.1258C15.0451 15.0921 15.1189 15.0427 15.1809 14.9804L17.7006 12.4538C17.7629 12.3917 17.8123 12.3179 17.846 12.2367C17.8797 12.1555 17.8971 12.0684 17.8971 11.9805C17.8971 11.8925 17.8797 11.8055 17.846 11.7242C17.8123 11.643 17.7629 11.5693 17.7006 11.5072L9.29247 3.09906C9.22228 3.02809 9.13708 2.97374 9.04313 2.94002C8.94918 2.90629 8.84887 2.89404 8.74956 2.90417ZM8.82613 4.51201L16.2876 11.9805L14.7076 13.5605L10.3226 9.16849C10.7351 8.31891 10.5855 7.2531 9.8841 6.5514C9.18274 5.84969 8.12193 5.70595 7.27396 6.11985L7.24612 6.09201L8.82613 4.51201ZM8.27626 7.21959C8.5143 7.21959 8.75163 7.31205 8.93749 7.49801C9.30922 7.86992 9.31618 8.45552 8.94445 8.82744C8.57272 9.19934 7.98675 9.19239 7.61502 8.82047C7.24329 8.44857 7.24329 7.86992 7.61502 7.49801C7.80089 7.31205 8.03821 7.21959 8.27626 7.21959ZM20.6031 12.9967C20.4516 13.0167 20.3116 13.0879 20.2063 13.1985L15.4733 17.9316C15.4045 17.9917 15.3487 18.0652 15.3094 18.1477C15.2702 18.2302 15.2482 18.3199 15.245 18.4111C15.2417 18.5024 15.2572 18.5934 15.2905 18.6785C15.3238 18.7636 15.3742 18.8409 15.4385 18.9057C15.5029 18.9706 15.5799 19.0215 15.6647 19.0555C15.7495 19.0894 15.8404 19.1055 15.9317 19.103C16.023 19.1004 16.1128 19.0791 16.1956 19.0404C16.2784 19.0018 16.3523 18.9466 16.4129 18.8782L21.1529 14.1382C21.2532 14.0404 21.3202 13.9137 21.3445 13.7758C21.3688 13.6379 21.3492 13.4959 21.2884 13.3697C21.2277 13.2436 21.1288 13.1397 21.0059 13.0728C20.8829 13.0058 20.742 12.9792 20.6031 12.9967ZM10.1625 15.9061C9.99638 15.9218 9.84211 15.999 9.73005 16.1227C9.61799 16.2463 9.55624 16.4074 9.55696 16.5743V20.7227H8.87485C8.85166 20.7215 8.82843 20.7215 8.80524 20.7227C8.71748 20.7273 8.63148 20.7491 8.55215 20.7868C8.47281 20.8246 8.4017 20.8777 8.34288 20.943C8.28405 21.0083 8.23865 21.0845 8.20929 21.1673C8.17993 21.2501 8.16716 21.3379 8.17174 21.4257C8.17631 21.5135 8.19812 21.5995 8.23593 21.6788C8.27374 21.7581 8.3268 21.8292 8.3921 21.888C8.45739 21.9468 8.53363 21.9922 8.61646 22.0216C8.69929 22.0509 8.78709 22.0637 8.87485 22.0591H14.5127C14.6013 22.0603 14.6892 22.044 14.7714 22.011C14.8535 21.9779 14.9283 21.9289 14.9914 21.8668C15.0544 21.8046 15.1045 21.7305 15.1387 21.6488C15.1729 21.5671 15.1905 21.4794 15.1905 21.3909C15.1905 21.3023 15.1729 21.2147 15.1387 21.133C15.1045 21.0513 15.0544 20.9772 14.9914 20.915C14.9283 20.8529 14.8535 20.8038 14.7714 20.7708C14.6892 20.7378 14.6013 20.7214 14.5127 20.7227H13.8237V16.5743C13.8236 16.3971 13.7532 16.2272 13.6279 16.1019C13.5026 15.9765 13.3327 15.9061 13.1555 15.9061H10.2252C10.2043 15.9051 10.1834 15.9051 10.1625 15.9061ZM10.8934 17.2425H12.4873V20.7227H10.8934V17.2425Z" fill="black"/>
</svg>
