<svg width="24" height="24" viewBox="0 0 24 24" fill="none" xmlns="http://www.w3.org/2000/svg">
<path d="M6 3.9978C3.791 3.9978 2 5.7888 2 7.9978V15.9978C2 18.2068 3.791 19.9978 6 19.9978L9.00901 20.0078C9.43501 20.0078 9.881 20.2038 10.392 20.6748C10.591 20.8588 10.829 21.0888 10.991 21.3038C11.171 21.5438 11.406 22.0008 12 21.9978C12.594 21.9948 12.787 21.5908 13 21.3098C13.161 21.1118 13.354 20.9228 13.553 20.7388C14.065 20.2678 14.574 19.9978 15 19.9978H18C20.209 19.9978 22 18.2068 22 15.9978V7.9978C22 5.7888 20.209 3.9978 18 3.9978H15C13.789 3.9978 12.734 4.55381 12 5.40381C11.266 4.55381 10.211 3.9978 9 3.9978H6ZM6 5.9978H9C10.105 5.9978 11 6.8928 11 7.9978L11.006 18.6468C10.382 18.2418 9.71201 17.9978 9 17.9978H6C4.895 17.9978 4 17.1028 4 15.9978V7.9978C4 6.8928 4.895 5.9978 6 5.9978ZM15 5.9978H18C19.105 5.9978 20 6.8928 20 7.9978V15.9978C20 17.1028 19.105 17.9978 18 17.9978H15C14.288 17.9978 13.62 18.2548 12.996 18.6598L13 7.9978C13 6.8928 13.895 5.9978 15 5.9978Z" fill="white"/>
<path fill-rule="evenodd" clip-rule="evenodd" d="M9 8H6V10H9V8ZM9 11H6V13H9V11ZM6 14H9V16H6V14ZM18 8H15V10H18V8ZM15 11H18V13H15V11ZM18 14H15V16H18V14Z" fill="#00ACA9"/>
</svg>
