<svg width="24" height="25" viewBox="0 0 24 25" fill="none" xmlns="http://www.w3.org/2000/svg">
<path d="M6.5 4.62976C4.448 4.62976 2 7.07776 2 9.12976C2 11.3118 4.03901 15.1068 6.28101 17.3488C6.48701 17.5538 7.07601 18.1428 7.28101 18.3488C9.52301 20.5908 13.317 22.6298 15.5 22.6298C17.552 22.6298 20 20.1818 20 18.1298C20 16.0778 17.552 13.6298 15.5 13.6298C15.09 13.6298 14.668 13.7928 13.875 14.1608C13.802 14.1948 13.192 14.4937 13.031 14.5677C11.915 14.2607 10.403 12.7277 10.062 11.5677C10.139 11.3977 10.44 10.8168 10.469 10.7548C10.852 9.94276 11 9.54476 11 9.12976C11 7.07776 8.552 4.62976 6.5 4.62976ZM6.5 6.62976C7.448 6.62976 9 8.18176 9 9.12976C9 9.10476 8.86601 9.46677 8.65601 9.91077C8.62801 9.97077 8.296 10.6138 8.219 10.7858C7.983 11.3138 7.95401 11.4798 8.03101 11.8488C8.45101 13.8498 10.83 16.2408 12.812 16.5988C13.169 16.6628 13.257 16.6318 13.812 16.3798C13.968 16.3098 14.649 16.0058 14.719 15.9738C15.159 15.7688 15.521 15.6298 15.5 15.6298C16.448 15.6298 18 17.1818 18 18.1298C18 19.0778 16.448 20.6298 15.5 20.6298C13.938 20.6298 10.621 18.8138 8.719 16.9108C8.513 16.7058 7.924 16.1168 7.719 15.9108C5.816 14.0088 4 10.6918 4 9.12976C4 8.18176 5.552 6.62976 6.5 6.62976Z" fill="white"/>
<path d="M15.3761 3.13146C14.8564 2.94513 14.2819 3.20519 14.0949 3.72332C13.9078 4.24046 14.2002 4.8134 14.7199 4.99973C16.9839 5.8118 18.7715 7.62428 19.5636 9.88813C19.7454 10.4083 20.3233 10.6613 20.8449 10.48C21.3664 10.2986 21.6204 9.75361 21.4386 9.23448C20.4479 6.40268 18.2077 4.1468 15.3761 3.13146Z" fill="#00ACA9"/>
<path d="M13.6184 7.03987C13.3801 7.13253 13.1978 7.31687 13.0872 7.56897C12.8657 8.07315 13.0812 8.65604 13.5872 8.87724C14.5253 9.28577 15.2833 10.0231 15.6809 10.9637C15.8953 11.4699 16.4844 11.7061 16.9934 11.4928C17.5024 11.2786 17.7391 10.7226 17.5246 10.2164C16.928 8.8045 15.8072 7.65366 14.3996 7.03987C14.1467 6.92926 13.8567 6.9472 13.6184 7.03987Z" fill="#00ACA9"/>
</svg>
