<svg width="66" height="63" viewBox="0 0 66 63" fill="none" xmlns="http://www.w3.org/2000/svg">
<path d="M33 0.90625C32.4115 0.90625 31.8235 1.00225 31.2598 1.19415L2.81982 10.7819C1.13407 11.3492 0 12.9398 0 14.7365V50.6646C0 52.5781 1.28898 54.247 3.12598 54.7115L31.668 61.9254C32.1052 62.0366 32.5518 62.0938 33 62.0938C33.4482 62.0938 33.8948 62.0366 34.332 61.9254L62.874 54.7115C64.711 54.2498 66 52.5808 66 50.6646V14.7365C66 12.9398 64.8659 11.3492 63.1802 10.7819L34.7402 1.19415C34.1765 1.00225 33.5885 0.90625 33 0.90625ZM33 6.46875L60.5 15.736V22.814L35.2021 15.1439C33.7584 14.7044 32.2416 14.7044 30.7979 15.1439L5.5 22.814V15.736L33 6.46875ZM33 19.3538C33.4438 19.3538 33.8908 19.4159 34.3267 19.5439L60.5 27.4911V49.5781L33 56.5312L5.5 49.5781V27.4911L31.6948 19.5439C32.1183 19.4159 32.5562 19.3538 33 19.3538ZM30.8569 23.1725C30.7441 23.1491 30.6228 23.1493 30.5024 23.1834L21.3394 25.7094C21.0176 25.8039 20.7861 26.1059 20.7861 26.4536V28.0723C20.7861 28.5841 21.2663 28.9333 21.7476 28.8165L30.916 26.2906C31.2378 26.1988 31.4639 25.8723 31.4639 25.5247V23.9276C31.4639 23.5459 31.1953 23.2429 30.8569 23.1725ZM35.1484 23.1725C34.8101 23.2426 34.5361 23.5459 34.5361 23.9276V25.5301C34.5361 25.9 34.7676 26.2042 35.0894 26.296L44.2524 28.8165C44.7337 28.9556 45.2139 28.5867 45.2139 28.0778V26.4536C45.2139 26.1059 44.985 25.8066 44.666 25.7148L35.4976 23.1888C35.3772 23.1541 35.2612 23.1492 35.1484 23.1725ZM17.1069 26.9696C16.9941 26.9463 16.8728 26.9511 16.7524 26.9859L9.12012 29.0936C8.77637 29.1881 8.55078 29.4901 8.55078 29.8378V31.4348C8.55078 31.9466 9.03096 32.3181 9.51221 32.179L17.166 30.0714C17.4878 29.9768 17.7139 29.6748 17.7139 29.3271V27.7301C17.7139 27.3484 17.4453 27.0396 17.1069 26.9696ZM48.8984 26.9696C48.5601 27.0396 48.2861 27.3484 48.2861 27.7301V29.3271C48.2861 29.6748 48.5176 29.9796 48.8394 30.0714L56.4932 32.179C56.9744 32.3181 57.4546 31.9438 57.4546 31.4348V29.8378C57.4546 29.4901 57.2209 29.1881 56.8799 29.0936L49.2476 26.9859C49.1272 26.9511 49.0112 26.9463 48.8984 26.9696Z" fill="#704214"/>
</svg>
