<svg width="128" height="81" viewBox="0 0 128 81" fill="none" xmlns="http://www.w3.org/2000/svg">
<path fill-rule="evenodd" clip-rule="evenodd" d="M105.028 41.3539C85.4413 44.1771 42.7734 80.9976 42.7734 80.9976H60.2057C71.289 68.5396 87.8612 55.2662 96.6417 49.9624C103.67 45.7196 108.691 45.5114 108.691 45.5114C119.658 44.4952 129.03 53.5445 127.813 65.0557C129.25 51.4629 122.482 38.8415 105.028 41.3539Z" fill="black" fill-opacity="0.4"/>
<path fill-rule="evenodd" clip-rule="evenodd" d="M23.717 41.3539C6.26305 38.8415 -0.508067 51.4629 0.933182 65.0557C-0.295566 53.5243 9.13977 44.4995 20.0539 45.5114C20.0539 45.5114 25.0745 45.7196 32.1029 49.9624C40.217 54.8643 56.9785 68.0033 68.5389 80.9976H85.9697C85.9697 80.9976 43.3033 44.1771 23.717 41.3539Z" fill="black" fill-opacity="0.4"/>
<path d="M22.368 53.1729L17.1465 58.3987L11.9222 53.1729L5.9707 59.1186L11.9222 65.0643L17.1465 59.84L22.368 65.0643L28.3166 59.1186M77.3624 8.01431C82.7631 8.32367 87.9802 10.6858 91.7749 14.8534C87.3702 4.58683 75.7722 -0.338276 65.4421 3.28002C64.9144 1.35017 64.501 0.228394 64.501 0.228394C64.501 0.228394 64.0803 1.35017 63.5556 3.28002C53.1907 -0.352732 41.5957 4.63309 37.2257 14.8534C41.016 10.6858 46.2375 8.32367 51.6353 8.01431C45.3672 12.8484 42.4038 20.6473 43.6889 28.238C44.7196 22.0813 48.4218 16.8309 53.5536 13.7056C49.6505 21.4828 50.8446 30.8748 56.8105 37.4276C53.3049 29.3208 55.2637 19.8392 61.6604 13.7822C61.5144 15.3521 61.4262 17.0059 61.4262 18.7088C61.4262 28.9189 64.501 37.1906 64.501 37.1906C64.5212 37.0373 68.5154 26.2749 67.3416 13.7822C73.7354 19.8392 75.6956 29.3208 72.1886 37.4276C78.0765 30.9962 79.3905 21.5594 75.4441 13.7056C80.5817 16.8309 84.2838 22.0813 85.3116 28.238C86.5852 20.7138 83.6781 12.883 77.3624 8.01431Z" fill="black"/>
<path fill-rule="evenodd" clip-rule="evenodd" d="M84.99 56.0669C58.3247 27.667 43.1504 49.5603 43.1504 49.5603C43.1504 49.5603 56.1563 36.6946 80.8729 64.0075C91.9779 76.2849 101.899 81.0813 109.896 80.9989C116.034 80.9353 121.676 78.0615 125.644 71.8484C126.285 70.8451 126.668 69.8058 126.668 69.8058C119.522 78.3029 110.104 82.8117 84.99 56.0669Z" fill="black"/>
</svg>
