<svg width="24" height="25" viewBox="0 0 24 25" fill="none" xmlns="http://www.w3.org/2000/svg">
<path d="M1.85672 9.725L3.50625 5.01359C4.13766 3.20844 5.84062 2 7.75312 2H16.2469C18.1594 2 19.8609 3.20844 20.4938 5.01359L22.1437 9.725C23.2312 10.175 24 11.2484 24 12.5V19.25H0L0 12.5C0 11.2484 0.766875 10.175 1.85672 9.725ZM5.11406 9.5H18.8859L17.6625 6.00313C17.4516 5.40313 16.8844 5 16.2469 5H7.75312C7.11562 5 6.54844 5.40313 6.3375 6.00313L5.11406 9.5ZM4.5 12.5C3.67172 12.5 3 13.1703 3 14C3 14.8297 3.67172 15.5 4.5 15.5C5.32969 15.5 6 14.8297 6 14C6 13.1703 5.32969 12.5 4.5 12.5ZM19.5 15.5C20.3297 15.5 21 14.8297 21 14C21 13.1703 20.3297 12.5 19.5 12.5C18.6703 12.5 18 13.1703 18 14C18 14.8297 18.6703 15.5 19.5 15.5Z" fill="#A38664"/>
<path d="M16.2469 5C16.8844 5 17.4516 5.40313 17.6625 6.00313L18.8859 9.5H5.11406L6.3375 6.00313C6.54844 5.40313 7.11562 5 7.75312 5H16.2469ZM0 19.25H4.5V21.5C4.5 22.3297 3.82828 23 3 23H1.5C0.671719 23 0 22.3297 0 21.5L0 19.25ZM24 21.5C24 22.3297 23.3297 23 22.5 23H21C20.1703 23 19.5 22.3297 19.5 21.5V19.25H24V21.5Z" fill="#A38664" fill-opacity="0.4"/>
</svg>
