<svg width="24" height="24" viewBox="0 0 24 24" fill="none" xmlns="http://www.w3.org/2000/svg">
<path d="M9.00001 2C8.73501 2 8.50002 2.09401 8.31202 2.28101L6.594 4C6.307 4 6.00001 4 6.00001 4C3.791 4 2 5.791 2 8V17C2 19.209 3.791 21 6.00001 21H18C20.209 21 22 19.209 22 17V8C22 5.791 20.209 4 18 4H17.438L15.719 2.28101C15.531 2.09401 15.265 2 15 2H9.00001ZM9.438 4H14.594L16.312 5.71899C16.5 5.90599 16.735 6 17 6H18C19.105 6 20 6.895 20 8V17C20 18.105 19.105 19 18 19H6.00001C4.895 19 4 18.105 4 17V8C4 6.895 4.895 6 6.00001 6H7.00001C7.26501 6 7.531 5.90599 7.719 5.71899L9.438 4Z" fill="white" fill-opacity="0.4"/>
<path d="M12 7C9.239 7 7 9.239 7 12C7 14.761 9.239 17 12 17C14.761 17 17 14.761 17 12C17 9.239 14.761 7 12 7ZM18 7C17.448 7 17 7.448 17 8C17 8.552 17.448 9 18 9C18.552 9 19 8.552 19 8C19 7.448 18.552 7 18 7ZM12 9C13.657 9 15 10.343 15 12C15 13.657 13.657 15 12 15C10.343 15 9 13.657 9 12C9 10.343 10.343 9 12 9Z" fill="white"/>
</svg>
