<svg width="243" height="245" viewBox="0 0 243 245" fill="none" xmlns="http://www.w3.org/2000/svg">
<circle cx="113" cy="113" r="113" fill="#FCFCFC"/>
<path d="M215.933 75.5036L117.65 71.2979C114.511 71.1636 111.857 73.5112 111.722 76.5414L105.533 215.469C105.398 218.499 107.833 221.065 110.972 221.199L209.256 225.405C212.394 225.539 215.048 223.191 215.183 220.161L221.372 81.2335C221.507 78.2033 219.072 75.6379 215.933 75.5036Z" stroke="#C6CCCE" stroke-width="1.99998"/>
<path d="M153.902 50.0412L56.373 62.6254C52.3662 63.1424 49.539 66.6943 50.0581 70.5589L68.5787 208.435C69.0978 212.3 72.7667 215.013 76.7734 214.496L174.302 201.912C178.309 201.395 181.136 197.843 180.617 193.979L162.096 56.1025C161.577 52.2379 157.908 49.5242 153.902 50.0412Z" fill="#FAFAFA" stroke="#C6CCCE" stroke-width="2"/>
<path d="M50.8642 70.4541C50.4028 67.019 52.9159 63.8617 56.4774 63.4022L154.007 50.8179C157.568 50.3583 160.829 52.7705 161.29 56.2056L165.099 84.5585L54.6727 98.8067L50.8642 70.4541Z" fill="#F1F1F1"/>
<path d="M182.741 59.3457C184.033 59.179 184.944 58.0342 184.777 56.7886C184.609 55.543 183.427 54.6683 182.135 54.8349L171.475 56.2104C170.184 56.3771 169.272 57.5219 169.44 58.7675C169.607 60.0131 170.789 60.8878 172.081 60.7212L182.741 59.3457Z" fill="#C6CCCE"/>
<path d="M146.989 31.0432C146.824 29.8177 145.661 28.9572 144.39 29.1211C143.12 29.2851 142.223 30.4114 142.388 31.6369L143.811 42.2307C143.976 43.4561 145.139 44.3167 146.41 44.1527C147.68 43.9888 148.577 42.8624 148.412 41.637L146.989 31.0432Z" fill="#C6CCCE"/>
<path d="M171.123 34.9392L171.123 34.9392C170.106 34.1745 168.65 34.3625 167.87 35.359L161.277 43.779C160.497 44.7755 160.689 46.2032 161.706 46.9678L161.706 46.9678C162.722 47.7325 164.179 47.5445 164.959 46.548L171.552 38.128C172.332 37.1315 172.14 35.7038 171.123 34.9392Z" fill="#C6CCCE"/>
<path d="M153.56 92.1646L67.829 103.227C66.9386 103.341 66.3103 104.131 66.4257 104.99L66.8158 107.894C66.9312 108.753 67.7465 109.356 68.6369 109.241L154.368 98.179C155.258 98.0641 155.886 97.2748 155.771 96.416L155.381 93.5116C155.265 92.6528 154.45 92.0497 153.56 92.1646Z" fill="#F6F7F7"/>
<path d="M157.601 122.228L71.87 133.29C70.9796 133.405 70.3513 134.194 70.4667 135.053L70.8568 137.957C70.9722 138.816 71.7875 139.419 72.6779 139.304L158.409 128.242C159.299 128.128 159.927 127.338 159.812 126.479L159.422 123.575C159.306 122.716 158.491 122.113 157.601 122.228Z" fill="#F6F7F7"/>
<path d="M161.637 152.291L75.9061 163.353C75.0157 163.467 74.3875 164.257 74.5028 165.116L74.893 168.02C75.0083 168.879 75.8236 169.482 76.714 169.367L162.445 158.305C163.335 158.19 163.963 157.401 163.848 156.542L163.458 153.638C163.343 152.779 162.527 152.176 161.637 152.291Z" fill="#F6F7F7"/>
<path d="M98.4296 111.512L69.4462 115.252C68.5558 115.367 67.9275 116.156 68.0429 117.015L68.433 119.919C68.5484 120.778 69.3637 121.381 70.2541 121.266L99.2375 117.527C100.128 117.412 100.756 116.622 100.641 115.764L100.251 112.859C100.135 112 99.32 111.397 98.4296 111.512Z" fill="#EEEEEE"/>
<path d="M102.466 141.576L73.4823 145.315C72.5919 145.43 71.9636 146.22 72.079 147.078L72.4691 149.983C72.5845 150.842 73.3998 151.445 74.2902 151.33L103.274 147.59C104.164 147.475 104.792 146.686 104.677 145.827L104.287 142.923C104.171 142.064 103.356 141.461 102.466 141.576Z" fill="#EEEEEE"/>
<path d="M106.505 171.638L77.5214 175.378C76.631 175.493 76.0027 176.282 76.1181 177.141L76.5082 180.045C76.6236 180.904 77.4389 181.507 78.3292 181.392L107.313 177.652C108.203 177.538 108.831 176.748 108.716 175.89L108.326 172.985C108.211 172.126 107.395 171.523 106.505 171.638Z" fill="#EEEEEE"/>
</svg>
