<svg width="150" height="150" viewBox="0 0 150 150" fill="none" xmlns="http://www.w3.org/2000/svg">
<circle cx="75" cy="75" r="75" fill="#FCFCFC"/>
<path fill-rule="evenodd" clip-rule="evenodd" d="M30.6211 59.0238C29.2611 58.1584 27.5377 58.1026 26.1246 58.8783C24.7115 59.654 23.8333 61.138 23.8333 62.75V93.6667V98.0833C23.8333 107.84 31.7429 115.75 41.4999 115.75H94.4999C104.257 115.75 112.167 107.84 112.167 98.0833V93.6667V62.75C112.167 61.138 111.288 59.654 109.875 58.8783C108.462 58.1026 106.739 58.1584 105.379 59.0238L81.0871 74.4821C80.9719 74.5554 80.8614 74.6331 80.7554 74.7149C76.493 72.9481 71.9885 71.5833 67.9999 71.5833C64.0114 71.5833 59.5068 72.9481 55.2444 74.7149C55.1385 74.6331 55.0279 74.5554 54.9128 74.4821L30.6211 59.0238ZM45.9412 79.2432L32.6666 70.7957V87.378C35.0283 85.7939 37.8444 83.9739 40.8838 82.1502C42.5067 81.1765 44.2048 80.1947 45.9412 79.2432ZM103.333 70.7957V87.378C100.972 85.7939 98.1555 83.9739 95.116 82.1502C93.4931 81.1765 91.795 80.1947 90.0587 79.2432L103.333 70.7957ZM41.4999 106.917C36.6342 106.917 32.6874 102.983 32.6667 98.1217C33.3255 97.6499 34.1504 97.0663 35.1116 96.4009C37.7498 94.5744 41.3931 92.146 45.4285 89.7247C49.4776 87.2953 53.8439 84.92 57.939 83.165C62.1439 81.3629 65.6093 80.4166 67.9999 80.4166C70.3906 80.4166 73.8559 81.3629 78.0609 83.165C82.1559 84.92 86.5222 87.2953 90.5713 89.7247C94.6067 92.146 98.2501 94.5744 100.888 96.4009C101.849 97.0663 102.674 97.6499 103.333 98.1217C103.312 102.983 99.3656 106.917 94.4999 106.917H41.4999Z" fill="#C6CCCE" fill-opacity="0.05" stroke="#C6CCCE" stroke-linecap="round" stroke-linejoin="round"/>
<path fill-rule="evenodd" clip-rule="evenodd" d="M110.543 59.3282C110.148 59.0033 109.752 58.6803 109.354 58.36C108.582 57.7386 107.47 56.8559 106.095 55.7987C103.351 53.6878 99.541 50.8649 95.2938 48.0334C91.0616 45.212 86.3121 42.3259 81.6998 40.1296C77.2137 37.9934 72.3348 36.25 68.0001 36.25C63.6654 36.25 58.7865 37.9934 54.3004 40.1296C49.6881 42.3259 44.9386 45.212 40.7064 48.0334C36.4592 50.8649 32.649 53.6878 29.9049 55.7987C28.5306 56.8559 27.4182 57.7386 26.6459 58.36C26.2486 58.6797 25.8533 59.0019 25.4597 59.3262C25.6652 59.1588 25.8874 59.0086 26.1246 58.8783C27.5377 58.1026 29.2612 58.1584 30.6212 59.0238L35.8645 62.3605C38.4458 60.3895 41.8571 57.8827 45.6063 55.3832C49.6554 52.6838 54.0152 50.0491 58.0982 48.1048C62.3075 46.1004 65.7098 45.0833 68.0001 45.0833C70.2904 45.0833 73.6927 46.1004 77.902 48.1048C81.985 50.0491 86.3448 52.6838 90.3939 55.3832C94.1431 57.8827 97.5543 60.3894 100.136 62.3604L105.379 59.0238C106.739 58.1584 108.462 58.1026 109.875 58.8783C110.114 59.0091 110.337 59.16 110.543 59.3282Z" fill="#F1F1F1" stroke="#C6CCCE" stroke-linecap="round" stroke-linejoin="round"/>
<path d="M132.333 57.397C133.415 57.2574 134.178 56.2986 134.038 55.2553C133.898 54.2121 132.908 53.4795 131.826 53.619L122.897 54.7711C121.816 54.9107 121.053 55.8695 121.193 56.9128C121.333 57.956 122.323 58.6886 123.405 58.5491L132.333 57.397Z" fill="#C6CCCE"/>
<path d="M102.389 33.6918C102.251 32.6654 101.277 31.9446 100.212 32.0819C99.1483 32.2193 98.3974 33.1626 98.5353 34.189L99.7271 43.0618C99.865 44.0882 100.839 44.8089 101.904 44.6716C102.968 44.5343 103.719 43.591 103.581 42.5646L102.389 33.6918Z" fill="#C6CCCE"/>
<path d="M122.602 36.9556L122.602 36.9556C121.751 36.3152 120.531 36.4726 119.877 37.3072L114.356 44.3594C113.702 45.194 113.863 46.3897 114.715 47.0302C115.566 47.6706 116.786 47.5132 117.44 46.6786L122.961 39.6264C123.614 38.7917 123.454 37.596 122.602 36.9556Z" fill="#C6CCCE"/>
</svg>
