<svg width="29" height="29" viewBox="0 0 29 29" fill="none" xmlns="http://www.w3.org/2000/svg">
<rect x="0.5" y="0.5" width="28" height="28" rx="3" fill="#FF4949"/>
<path d="M8.67509 7.83331C8.46215 7.83331 8.23947 7.90493 8.07696 8.06732C7.75202 8.39292 7.75202 8.93918 8.07696 9.26478L13.3037 14.4952L8.07696 19.7256C7.75202 20.0512 7.75202 20.5975 8.07696 20.9231C8.40198 21.2478 8.94819 21.2478 9.27321 20.9231L14.4999 15.6927L19.7266 20.9231C20.0516 21.2478 20.5979 21.2478 20.9229 20.9231C21.2478 20.5975 21.2478 20.0512 20.9229 19.7256L15.6961 14.4952L20.9229 9.26478C21.2478 8.93918 21.2478 8.39292 20.9229 8.06732C20.7604 7.90493 20.5376 7.83331 20.3248 7.83331C20.1118 7.83331 19.8892 7.90493 19.7266 8.06732L14.4999 13.2977L9.27321 8.06732C9.1107 7.90493 8.88802 7.83331 8.67509 7.83331Z" fill="white"/>
</svg>
