<svg width="24" height="24" viewBox="0 0 24 24" fill="none" xmlns="http://www.w3.org/2000/svg">
<path d="M11.2781 0.0749624C10.5609 0.2484 9.87187 0.787463 9.5625 1.41559L9.40781 1.73434H8.46562C7.1625 1.73434 7.125 1.75778 7.125 2.65309V3.14059H5.94375C5.0625 3.14059 4.68282 3.15934 4.46251 3.2109C3.56251 3.42653 2.8125 4.17653 2.62969 5.05309C2.59219 5.23122 2.57812 7.75309 2.57812 13.7062C2.57812 21.9468 2.57812 22.1202 2.67188 22.4156C2.90626 23.1702 3.55782 23.7374 4.42032 23.9296C4.72032 23.9952 5.53594 23.9999 12.1641 23.9906L19.5703 23.9765L19.8844 23.8546C20.4609 23.6296 20.9672 23.2171 21.1875 22.7859C21.4359 22.2937 21.4219 22.7952 21.4219 13.6874C21.4219 4.4859 21.4359 5.04372 21.1547 4.45309C20.9906 4.1109 20.4516 3.57653 20.1 3.40778C19.6172 3.17809 19.35 3.14059 18.0609 3.14059H16.875V2.65309C16.875 2.08122 16.8375 1.95465 16.6312 1.82809C16.4906 1.74372 16.3922 1.73434 15.5062 1.73434H14.5359L14.3859 1.41559C14.1797 0.989025 13.6828 0.49215 13.2562 0.2859C12.6891 0.0187124 11.8734 -0.0703501 11.2781 0.0749624ZM12.6094 1.21872C13.0781 1.45778 13.3453 1.77653 13.4859 2.24997C13.65 2.82184 13.7344 2.85934 14.8547 2.85934H15.7031V4.00778V5.15622H12H8.29688V4.01247V2.86403L9.15938 2.84997C10.1953 2.83122 10.2187 2.82184 10.4109 2.31559C10.5891 1.83747 10.6594 1.72028 10.9219 1.4859C11.2641 1.17653 11.5547 1.0734 12.0234 1.09215C12.3 1.10622 12.4547 1.13903 12.6094 1.21872ZM7.13437 5.07184C7.14844 5.82184 7.15781 5.89215 7.25156 6.02809C7.30781 6.10778 7.41562 6.20153 7.48594 6.22965C7.58437 6.26715 8.79375 6.28122 12.0562 6.27184L16.4906 6.25778L16.6172 6.14059C16.8422 5.93434 16.875 5.78434 16.875 4.98747V4.25622L18.0844 4.27497L19.2891 4.28903L19.5562 4.42028C19.8422 4.5609 20.0016 4.72028 20.1703 5.03434L20.2734 5.22653L20.2875 13.5468C20.2969 20.0062 20.2875 21.914 20.2406 22.0781C20.1703 22.3452 19.875 22.6452 19.5656 22.7624C19.3453 22.8468 19.0875 22.8515 12.1219 22.8656C4.275 22.8796 4.59844 22.889 4.17656 22.6218C3.95625 22.4812 3.825 22.3077 3.75469 22.0546C3.7125 21.914 3.70313 19.7577 3.71251 13.5468C3.72657 5.52653 3.73125 5.22184 3.81562 5.06247C4.04062 4.6359 4.34062 4.39215 4.73906 4.31715C4.85156 4.29372 5.43282 4.27497 6.03282 4.27028L7.11563 4.26559L7.13437 5.07184Z" fill="#552E00"/>
<path d="M9.16423 8.08119C9.08923 8.11869 8.61111 8.54057 8.10954 9.01869C7.60798 9.49682 7.18142 9.89056 7.16736 9.89056C7.14861 9.89056 6.97048 9.71712 6.76892 9.5015C6.30954 9.01868 6.21579 8.95306 5.96267 8.95306C5.61579 8.95306 5.39079 9.26244 5.46111 9.64213C5.48454 9.78276 5.61579 9.94212 6.17361 10.5046C6.54861 10.8843 6.91423 11.2218 6.99392 11.2546C7.27048 11.3671 7.39704 11.2828 8.64861 10.0968C9.78767 9.01869 9.98454 8.79838 9.98454 8.60151C9.98454 8.43744 9.82048 8.18901 9.65173 8.09994C9.46423 8.00151 9.35642 7.99682 9.16423 8.08119Z" fill="#552E00" fill-opacity="0.42"/>
<path d="M11.175 9.49687C10.9875 9.58593 10.875 9.7875 10.875 10.0313C10.875 10.2985 11.0953 10.5235 11.3953 10.5704C11.5078 10.5844 13.0781 10.5938 14.8828 10.5844C18.4547 10.5704 18.3 10.5797 18.4688 10.2985C18.6422 10.0219 18.5672 9.71719 18.2859 9.52969L18.1266 9.42188H14.7234C11.7891 9.42188 11.3016 9.43593 11.175 9.49687Z" fill="#552E00" fill-opacity="0.42"/>
<path d="M9.1174 12.6657C9.06583 12.6938 8.61115 13.1157 8.1049 13.6032L7.18615 14.4844L6.75021 14.0391C6.29552 13.575 6.10802 13.4672 5.86427 13.5235C5.57833 13.5844 5.38146 13.9266 5.45646 14.2313C5.48927 14.3579 6.72208 15.6797 6.90021 15.7829C7.03615 15.8579 7.30802 15.8579 7.43458 15.7829C7.64083 15.6657 9.88146 13.4907 9.93771 13.3547C10.0174 13.1625 9.93302 12.8907 9.74552 12.7313C9.59083 12.6 9.29083 12.5672 9.1174 12.6657Z" fill="#552E00" fill-opacity="0.42"/>
<path d="M11.175 14.0624C10.7906 14.2171 10.7765 14.8733 11.1562 15.0702C11.3625 15.178 18.0281 15.178 18.2531 15.0702C18.5343 14.9343 18.6421 14.5874 18.4921 14.2968C18.3421 14.0062 18.4828 14.0155 14.7093 14.0202C12.8203 14.0202 11.2265 14.039 11.175 14.0624Z" fill="#552E00" fill-opacity="0.42"/>
<path d="M9.16423 17.2266C9.08923 17.2594 8.61111 17.6813 8.10954 18.1594C7.60798 18.6375 7.18142 19.0313 7.16736 19.0313C7.15329 19.0313 6.97517 18.8578 6.76892 18.6422C6.30017 18.1547 6.21111 18.0938 5.96267 18.0938C5.61579 18.0938 5.39079 18.4032 5.46111 18.7828C5.48454 18.9235 5.61579 19.0828 6.17361 19.6453C6.54861 20.025 6.91423 20.3625 6.99392 20.3953C7.27517 20.5125 7.39704 20.4235 8.64861 19.2375C9.78767 18.1594 9.98454 17.9391 9.98454 17.7422C9.98454 17.5781 9.82048 17.3297 9.65173 17.2406C9.46423 17.1422 9.35642 17.1375 9.16423 17.2266Z" fill="#552E00" fill-opacity="0.42"/>
<path d="M11.2219 18.6094C11.1704 18.6282 11.0673 18.7125 11.0016 18.7969C10.7391 19.1063 10.8938 19.575 11.2876 19.6875C11.5501 19.7578 17.9719 19.7485 18.1876 19.6735C18.2766 19.6407 18.3938 19.5469 18.4548 19.4578C18.6423 19.1766 18.5766 18.8672 18.286 18.6703L18.1266 18.5625L14.7235 18.5672C12.8532 18.5672 11.2782 18.586 11.2219 18.6094Z" fill="#552E00" fill-opacity="0.42"/>
</svg>
