<svg width="24" height="24" viewBox="0 0 24 24" fill="none" xmlns="http://www.w3.org/2000/svg">
<path d="M11.2781 0.0749655C10.5609 0.248403 9.87187 0.787466 9.5625 1.41559L9.40781 1.73434H8.46562C7.1625 1.73434 7.125 1.75778 7.125 2.65309V3.14059H5.94375C5.0625 3.14059 4.68281 3.15934 4.4625 3.2109C3.5625 3.42653 2.8125 4.17653 2.62969 5.05309C2.59219 5.23121 2.57812 7.75309 2.57812 13.7062C2.57812 21.9468 2.57812 22.1203 2.67187 22.4156C2.90625 23.1703 3.55781 23.7375 4.42031 23.9297C4.72031 23.9953 5.53594 24 12.1641 23.9906L19.5703 23.9765L19.8844 23.8547C20.4609 23.6297 20.9672 23.2172 21.1875 22.7859C21.4359 22.2937 21.4219 22.7953 21.4219 13.6875C21.4219 4.4859 21.4359 5.04372 21.1547 4.45309C20.9906 4.1109 20.4516 3.57653 20.1 3.40778C19.6172 3.17809 19.35 3.14059 18.0609 3.14059H16.875V2.65309C16.875 2.08122 16.8375 1.95465 16.6312 1.82809C16.4906 1.74372 16.3922 1.73434 15.5062 1.73434H14.5359L14.3859 1.41559C14.1797 0.989028 13.6828 0.492153 13.2562 0.285903C12.6891 0.0187155 11.8734 -0.070347 11.2781 0.0749655ZM12.6094 1.21872C13.0781 1.45778 13.3453 1.77653 13.4859 2.24997C13.65 2.82184 13.7344 2.85934 14.8547 2.85934H15.7031V4.00778V5.15621H12H8.29687V4.01247V2.86403L9.15937 2.84997C10.1953 2.83122 10.2187 2.82184 10.4109 2.31559C10.5891 1.83747 10.6594 1.72028 10.9219 1.4859C11.2641 1.17653 11.5547 1.0734 12.0234 1.09215C12.3 1.10622 12.4547 1.13903 12.6094 1.21872ZM7.13437 5.07184C7.14844 5.82184 7.15781 5.89215 7.25156 6.02809C7.30781 6.10778 7.41562 6.20153 7.48594 6.22965C7.58437 6.26715 8.79375 6.28121 12.0562 6.27184L16.4906 6.25778L16.6172 6.14059C16.8422 5.93434 16.875 5.78434 16.875 4.98746V4.25622L18.0844 4.27497L19.2891 4.28903L19.5562 4.42028C19.8422 4.5609 20.0016 4.72028 20.1703 5.03434L20.2734 5.22653L20.2875 13.5468C20.2969 20.0062 20.2875 21.914 20.2406 22.0781C20.1703 22.3453 19.875 22.6453 19.5656 22.7625C19.3453 22.8468 19.0875 22.8515 12.1219 22.8656C4.275 22.8797 4.59844 22.889 4.17656 22.6218C3.95625 22.4812 3.825 22.3078 3.75469 22.0547C3.7125 21.914 3.70312 19.7578 3.7125 13.5468C3.72656 5.52653 3.73125 5.22184 3.81562 5.06246C4.04062 4.6359 4.34062 4.39215 4.73906 4.31715C4.85156 4.29372 5.43281 4.27497 6.03281 4.27028L7.11562 4.26559L7.13437 5.07184Z" fill="black"/>
<path d="M9.16405 8.08117C9.08905 8.11867 8.61092 8.54055 8.10936 9.01867C7.6078 9.4968 7.18124 9.89055 7.16717 9.89055C7.14842 9.89055 6.9703 9.71711 6.76874 9.50149C6.30936 9.01867 6.21561 8.95305 5.96249 8.95305C5.61561 8.95305 5.39061 9.26242 5.46092 9.64211C5.48436 9.78274 5.61561 9.94211 6.17342 10.5046C6.54842 10.8843 6.91405 11.2218 6.99374 11.2546C7.2703 11.3671 7.39686 11.2827 8.64842 10.0968C9.78749 9.01867 9.98436 8.79836 9.98436 8.60149C9.98436 8.43742 9.8203 8.18899 9.65155 8.09992C9.46405 8.00149 9.35624 7.9968 9.16405 8.08117Z" fill="#999999"/>
<path d="M11.175 9.49686C10.9875 9.58592 10.875 9.78749 10.875 10.0312C10.875 10.2984 11.0953 10.5234 11.3953 10.5703C11.5078 10.5844 13.0781 10.5937 14.8828 10.5844C18.4547 10.5703 18.3 10.5797 18.4688 10.2984C18.6422 10.0219 18.5672 9.71717 18.2859 9.52967L18.1266 9.42186H14.7234C11.7891 9.42186 11.3016 9.43592 11.175 9.49686Z" fill="#999999"/>
<path d="M9.11719 12.6656C9.06562 12.6937 8.61094 13.1156 8.10469 13.6031L7.18594 14.4843L6.75 14.039C6.29531 13.5749 6.10781 13.4671 5.86406 13.5234C5.57812 13.5843 5.38125 13.9265 5.45625 14.2312C5.48906 14.3577 6.72187 15.6796 6.9 15.7827C7.03594 15.8577 7.30781 15.8577 7.43437 15.7827C7.64062 15.6656 9.88125 13.4906 9.9375 13.3546C10.0172 13.1624 9.93281 12.8906 9.74531 12.7312C9.59062 12.5999 9.29062 12.5671 9.11719 12.6656Z" fill="#999999"/>
<path d="M11.175 14.0625C10.7906 14.2171 10.7766 14.8734 11.1562 15.0703C11.3625 15.1781 18.0281 15.1781 18.2531 15.0703C18.5344 14.9343 18.6422 14.5875 18.4922 14.2968C18.3422 14.0062 18.4828 14.0156 14.7094 14.0203C12.8203 14.0203 11.2266 14.039 11.175 14.0625Z" fill="#999999"/>
<path d="M9.16405 17.2265C9.08905 17.2593 8.61092 17.6812 8.10936 18.1593C7.6078 18.6375 7.18124 19.0312 7.16717 19.0312C7.15311 19.0312 6.97499 18.8578 6.76874 18.6422C6.29999 18.1547 6.21092 18.0937 5.96249 18.0937C5.61561 18.0937 5.39061 18.4031 5.46092 18.7828C5.48436 18.9234 5.61561 19.0828 6.17342 19.6453C6.54842 20.025 6.91405 20.3625 6.99374 20.3953C7.27499 20.5125 7.39686 20.4234 8.64842 19.2375C9.78749 18.1593 9.98436 17.939 9.98436 17.7422C9.98436 17.5781 9.8203 17.3297 9.65155 17.2406C9.46405 17.1422 9.35624 17.1375 9.16405 17.2265Z" fill="#999999"/>
<path d="M11.2219 18.6093C11.1703 18.628 11.0672 18.7124 11.0016 18.7968C10.7391 19.1062 10.8937 19.5749 11.2875 19.6874C11.55 19.7577 17.9719 19.7484 18.1875 19.6734C18.2766 19.6405 18.3937 19.5468 18.4547 19.4577C18.6422 19.1765 18.5766 18.8671 18.2859 18.6702L18.1266 18.5624L14.7234 18.5671C12.8531 18.5671 11.2781 18.5859 11.2219 18.6093Z" fill="#999999"/>
</svg>
