<svg width="45" height="44" viewBox="0 0 45 44" fill="none" xmlns="http://www.w3.org/2000/svg">
<path d="M16.0263 24.4061C11.2334 25.716 7.8335 29.8836 7.8335 34.8332V38.4999C7.8335 39.5124 8.65428 40.3332 9.66683 40.3332H35.3335C36.346 40.3332 37.1668 39.5124 37.1668 38.4999V34.8332C37.1668 29.8836 33.7669 25.716 28.974 24.4061C28.5632 24.2937 28.1595 24.3456 27.771 24.5207C26.0926 25.2771 24.3058 25.6665 22.5002 25.6665C20.6945 25.6665 18.9077 25.2771 17.2293 24.5207C16.8408 24.3456 16.4371 24.2937 16.0263 24.4061ZM16.771 28.0728C18.6223 28.7729 20.5196 29.3332 22.5002 29.3332C24.4807 29.3332 26.378 28.7729 28.2293 28.0728C31.3522 29.0188 33.5002 31.6549 33.5002 34.8332V36.6665H11.5002V34.8332C11.5002 31.6549 13.6481 29.0188 16.771 28.0728Z" fill="black" fill-opacity="0.4"/>
<path d="M22.5002 3.66663C17.4376 3.66663 13.3335 7.77073 13.3335 12.8333C13.3335 17.8959 17.4376 22 22.5002 22C27.5627 22 31.6668 17.8959 31.6668 12.8333C31.6668 7.77073 27.5627 3.66663 22.5002 3.66663ZM22.5002 7.33329C25.5378 7.33329 28.0002 9.79564 28.0002 12.8333C28.0002 15.8709 25.5378 18.3333 22.5002 18.3333C19.4625 18.3333 17.0002 15.8709 17.0002 12.8333C17.0002 9.79564 19.4625 7.33329 22.5002 7.33329Z" fill="black"/>
</svg>
