<svg width="52" height="59" viewBox="0 0 52 59" fill="none" xmlns="http://www.w3.org/2000/svg">
<path d="M15.7 20.9296C15.4524 19.6936 14.2648 18.543 12.6349 18.8958C11.007 19.2496 11.0012 20.7543 11.2489 21.9914C11.2628 22.0552 12.0639 25.3981 12.5352 26.1007C13.0056 26.8052 13.6887 28.1419 14.8343 27.7611C15.5917 27.5091 16.0379 26.1725 16.2171 25.2075C16.396 24.2426 15.7 20.9296 15.7 20.9296Z" fill="#F9AA78"/>
<path d="M36.4345 20.8793C36.6823 19.6432 37.8694 18.4929 39.4993 18.846C41.1289 19.1992 41.2883 20.7478 41.0414 21.9835C41.0277 22.0491 40.1618 25.1425 39.7555 26.0949C39.4212 26.8794 38.5112 28.2604 37.3284 27.7774C36.5891 27.4752 36.0966 26.1221 35.9173 25.1571C35.7385 24.1925 36.4345 20.8793 36.4345 20.8793Z" fill="#F9AA78"/>
<path d="M0.73175 58.735H51.2683C51.2683 58.735 50.2723 46.4459 48.6144 44.6041C46.9557 42.7627 34.3225 38.6456 34.3225 38.6456L17.8105 38.5981C17.8105 38.5981 4.51749 42.4522 3.60946 44.6041C2.70137 46.756 0.73175 58.735 0.73175 58.735Z" fill="#42A3AB"/>
<path d="M20.6727 38.6062L20.3988 38.6054H20.3986L20.6725 38.6062H20.6727Z" fill="#B8AA15"/>
<path d="M7.39833 58.735H0.73175C0.73175 58.735 2.70137 46.756 3.60946 44.6041C4.51749 42.4522 17.8105 38.5981 17.8105 38.5981C17.8105 38.5981 18.1314 39.3838 18.6524 40.4634C14.9545 41.7483 10.7715 43.4294 10.2756 44.6041C9.36791 46.756 7.39833 58.735 7.39833 58.735ZM21.7021 39.4493L20.3987 38.6054L20.6726 38.6062C21.0105 38.849 21.41 39.125 21.844 39.4042C21.7971 39.419 21.7498 39.4342 21.7021 39.4493Z" fill="#31868F"/>
<path d="M19.5964 37.7938C19.5964 37.7938 23.7592 41.1753 26.0941 41.1753C28.4283 41.1753 32.5901 37.7938 32.5901 37.7938C32.5901 37.7938 30.8286 35.7626 32.0429 33.0943C33.2569 30.4267 18.5033 30.645 20.2185 33.0943C21.9329 35.5439 19.5964 37.7938 19.5964 37.7938Z" fill="#D5835C"/>
<path d="M23.9216 40.5657C21.8162 39.5929 19.5986 37.7956 19.5964 37.7938C19.5964 37.7938 20.5397 36.8855 20.7877 35.5949C22.4743 36.5313 24.3278 37.1281 26.0933 37.1346C26.1074 37.1346 26.1217 37.1346 26.1358 37.1346C26.1485 37.1346 26.1612 37.1346 26.174 37.1346C26.1747 37.1346 26.1757 37.1346 26.1767 37.1346C26.1783 37.1346 26.1799 37.1346 26.1817 37.1346C28.1135 37.1265 29.9607 36.604 31.5977 35.7171C27.439 38.0703 26.8485 37.4343 25.8552 38.1516C24.8557 38.8728 24.232 39.7203 23.9216 40.5657Z" fill="#BD694C"/>
<path d="M34.3225 38.6456L31.9481 38.6387L33.2408 37.8328L34.3225 38.6456ZM20.3986 38.6054L17.8105 38.5981L18.7752 37.5544L20.3986 38.6054Z" fill="#B8AA15"/>
<path d="M28.8193 46.9409C28.4613 46.9409 26.355 43.3131 26.0905 43.3131C25.557 43.3131 24.065 46.5437 23.2738 46.5437C23.2428 46.5437 23.213 46.5388 23.1844 46.5286C21.5209 45.9345 19.6898 42.6152 18.652 40.4634C19.7471 40.0829 20.8002 39.737 21.7017 39.4493L26.0905 42.291L31.9477 38.6387L34.3221 38.6456C34.3221 38.6456 31.3881 46.3618 28.8294 46.9399C28.8262 46.9405 28.8228 46.9409 28.8193 46.9409Z" fill="#31868F"/>
<path d="M20.3988 38.6054L17.8105 38.5981L20.3986 38.6054H20.3988Z" fill="#878916"/>
<path d="M18.6524 40.4633C18.1315 39.3838 17.8105 38.5981 17.8105 38.5981L20.3988 38.6054L21.7021 39.4493C20.8006 39.737 19.7475 40.0829 18.6524 40.4633Z" fill="#256E78"/>
<path d="M38.0253 11.6302C38.0253 6.26696 34.6714 0.885746 25.792 0.885746C16.9124 0.885746 13.6884 6.77456 13.6884 12.1382C13.6884 12.4198 13.6612 27.004 15.3853 30.353C17.1092 33.7009 21.8551 37.1188 26.0935 37.1346C30.7287 37.1527 34.8938 34.203 36.84 30.353C38.7863 26.5017 38.0253 11.6302 38.0253 11.6302Z" fill="#F9AA78"/>
<path d="M36.4446 21.3993C30.912 21.3993 25.3018 13.981 22.3055 13.057C22.1926 13.0223 22.078 13.0062 21.9619 13.0062C21.1776 13.0062 20.3256 13.7449 19.4712 14.4835C19.1222 14.7853 18.7726 15.087 18.4272 15.3384C19.4255 14.5697 20.4886 13.5898 21.2379 12.0219C21.3321 12.0177 21.4265 12.0158 21.5197 12.0158C27.0206 12.0158 30.5791 18.9684 36.6838 19.3553C36.5489 20.1374 36.5093 20.8159 36.5296 21.3987C36.501 21.3991 36.4732 21.3993 36.4446 21.3993Z" fill="#E79769"/>
<path d="M26.1993 37.1344C26.1995 37.1344 26.1999 37.1344 26.2001 37.1344C26.1997 37.1344 26.1997 37.1344 26.1993 37.1344ZM26.2218 37.1344C28.5779 37.1153 30.7939 36.3133 32.6671 35.037C31.2632 35.6488 29.7358 36.0032 28.1504 36.0032C28.1355 36.0032 28.1208 36.0032 28.1057 36.0032C23.8676 35.9875 19.1213 32.5701 17.3976 29.2211C16.4436 27.3677 16.0259 22.0737 15.843 17.6669C16.124 17.0867 16.6841 16.6271 17.3608 16.127C17.5671 20.2619 17.9911 24.8226 18.8622 26.5147C20.5863 29.8632 25.3318 33.2811 29.5704 33.2971C29.5842 33.2971 29.5977 33.2971 29.6114 33.2971C32.0337 33.2971 34.3247 32.4843 36.2372 31.1599C36.3054 31.128 36.3721 31.0934 36.4399 31.0615C36.4582 31.031 36.4817 31.0036 36.4997 30.9731C34.4554 34.4804 30.553 37.1003 26.2218 37.1344Z" fill="#E79769"/>
<path d="M36.1942 31.1792C36.2953 31.1095 36.3999 31.0449 36.4992 30.9731C36.4124 31.0365 36.3249 31.0987 36.2367 31.1599C36.2226 31.1664 36.2083 31.1729 36.1942 31.1792Z" fill="#E79769"/>
<path d="M36.2369 31.1599C36.3252 31.0987 36.4126 31.0365 36.4995 30.9731C36.4814 31.0036 36.4579 31.031 36.4397 31.0615C36.3719 31.0934 36.3051 31.128 36.2369 31.1599Z" fill="#D8865C"/>
<path d="M26.1358 37.1346C26.1221 37.1346 26.1074 37.1346 26.0934 37.1346C26.1074 37.1346 26.1215 37.1346 26.1354 37.1346C26.1566 37.1346 26.1779 37.1346 26.199 37.1344C26.1934 37.1346 26.1876 37.1346 26.1819 37.1346C26.1803 37.1346 26.1785 37.1346 26.1769 37.1346C26.1759 37.1346 26.1749 37.1346 26.1741 37.1346C26.1614 37.1346 26.1485 37.1346 26.1358 37.1346ZM26.2161 37.1344C26.2177 37.1344 26.2198 37.1344 26.2214 37.1344C26.2196 37.1344 26.2179 37.1344 26.2161 37.1344Z" fill="#E79769"/>
<path d="M26.1353 37.1346C26.1214 37.1346 26.1073 37.1346 26.0934 37.1346C21.8549 37.1189 17.1091 33.7009 15.3851 30.3531C14.4463 28.5292 14.0267 23.3732 13.8393 19.01C13.8395 19.01 13.8395 19.01 13.8395 19.0102C14.2716 23.6922 15.2824 23.7605 15.341 23.7605C15.3428 23.7605 15.3436 23.7605 15.3436 23.7605C15.3436 23.7605 15.4414 20.4854 15.6574 18.3209C15.6811 18.084 15.7451 17.8682 15.8427 17.667C16.0255 22.0737 16.4433 27.3677 17.3973 29.2211C19.121 32.5701 23.8672 35.9875 28.1053 36.0032C28.1204 36.0032 28.1351 36.0032 28.15 36.0032C29.7354 36.0032 31.2628 35.6488 32.6668 35.0371C30.7936 36.3134 28.5775 37.1153 26.2214 37.1344C26.2198 37.1344 26.2176 37.1344 26.216 37.1344C26.2141 37.1344 26.2121 37.1344 26.2101 37.1344C26.2065 37.1344 26.2031 37.1344 26.1997 37.1344C26.1995 37.1344 26.1991 37.1344 26.1989 37.1344C26.1779 37.1346 26.1566 37.1346 26.1353 37.1346Z" fill="#D8865C"/>
<path d="M40.0116 10.3512C38.9189 4.44686 34.0516 0.165916 26.0934 0.214746C18.1585 0.264168 12.9428 5.08245 11.9001 10.5477C11.4531 12.8883 11.1079 17.3381 11.2918 19.9902C12.6349 18.8958 13.189 18.7534 13.8395 19.0102C14.2845 23.8328 15.3436 23.7605 15.3436 23.7605C15.3436 23.7605 15.4414 20.4853 15.6574 18.3209C15.8737 16.1571 19.4499 15.7639 21.2378 12.0219C26.9001 11.778 30.4756 18.962 36.6838 19.3554C36.0699 22.9109 37.4293 24.3254 37.4293 24.3254C37.4293 24.3254 37.5734 21.3881 38.0745 19.9951C38.5111 18.7814 39.8133 18.7814 40.457 19.3077C40.7661 17.0989 40.6154 13.6132 40.0116 10.3512Z" fill="#311B19"/>
<path d="M40.4569 19.3077C40.2707 19.1565 40.0286 19.0553 39.7701 19.0072C39.7701 19.0047 39.7701 19.0023 39.7703 18.9997C40.0296 19.0474 40.2707 19.1555 40.4569 19.3077Z" fill="#FABC91"/>
<path d="M22.0406 0.690613C22.0428 0.690219 22.0448 0.689632 22.0471 0.689041C22.045 0.689632 22.0426 0.690219 22.0406 0.690613ZM22.0481 0.688844C23.301 0.389953 24.6523 0.22377 26.0934 0.214713C24.6527 0.22377 23.3008 0.39015 22.0481 0.688844Z" fill="#FDDC1F"/>
<path d="M40.4572 19.3077C40.271 19.1555 40.0299 19.0474 39.7706 18.9997C39.8185 16.9569 39.6217 14.4445 39.1783 12.0491C38.0916 6.17737 33.2734 1.91198 25.394 1.91198C25.3495 1.91198 25.3046 1.91218 25.2599 1.91237C19.1771 1.94978 14.7013 4.79417 12.4694 8.58031C13.8894 4.93062 17.2425 1.83775 22.0408 0.690622C22.0428 0.690228 22.0452 0.68964 22.0474 0.689051C22.0476 0.689051 22.048 0.688852 22.0483 0.688852C23.301 0.39016 24.6529 0.22378 26.0936 0.214722C26.1389 0.214525 26.1837 0.214525 26.2286 0.214525C34.1067 0.214525 38.9253 4.48031 40.0119 10.3512C40.4121 12.5141 40.6133 14.7755 40.6133 16.6978C40.6133 17.674 40.5614 18.5628 40.4572 19.3069C40.4572 19.3071 40.4572 19.3075 40.4572 19.3077Z" fill="#492C25"/>
<path d="M15.3411 23.7605C15.2825 23.7605 14.2717 23.6922 13.8396 19.0102C13.6635 18.9407 13.4944 18.9003 13.3147 18.9003C12.8311 18.9003 12.2713 19.1921 11.2919 19.9901C11.2291 19.0834 11.2314 17.9623 11.2754 16.7925C11.2815 16.9213 11.2835 17.0636 11.2919 17.1849C13.6883 16.4854 19.45 12.9591 21.2379 9.21669C21.3152 9.21334 21.3918 9.21176 21.4689 9.21176C27.0403 9.21176 32.1261 17.8044 36.6068 19.3451C30.551 18.9033 26.9964 12.0158 21.5201 12.0158C21.4267 12.0158 21.3325 12.0178 21.2379 12.0219C19.45 15.7639 15.8738 16.1571 15.6575 18.3208C15.4415 20.4853 15.3437 23.7605 15.3437 23.7605C15.3437 23.7605 15.3429 23.7605 15.3411 23.7605Z" fill="#21110E"/>
<path d="M18.7752 35.8815L17.8105 38.5981C17.8105 38.5981 20.6867 43.9638 23.1848 44.8557C23.9474 45.1284 25.5368 41.6406 26.0909 41.6406C26.358 41.6406 28.5036 45.3411 28.8298 45.2671C31.3885 44.689 34.3225 38.6456 34.3225 38.6456L33.2408 36.16L26.0909 40.6181L18.7752 35.8815Z" fill="white"/>
</svg>
