<svg width="127" height="90" viewBox="0 0 127 90" fill="none" xmlns="http://www.w3.org/2000/svg">
<rect x="2" y="2" width="123" height="86" rx="4" stroke="#0F0F0F" stroke-width="4"/>
<path d="M92.0953 34.3566C92.5537 34.0877 93.0738 33.8875 93.7125 33.8221C93.1977 34.3982 92.7999 35.0674 92.5044 35.6877C92.037 36.6686 91.7862 37.611 91.7445 38.0318L91.6239 39.2479L92.5624 38.4651C92.9244 38.1631 93.276 37.8258 93.6151 37.5001L93.6262 37.4894C93.966 37.163 94.2942 36.8478 94.631 36.5632C95.1363 36.1362 95.6277 35.8079 96.1412 35.636C96.1079 37.9096 96.0748 40.242 96.0418 42.5743L96.0416 42.5878C96.0055 45.1357 95.9694 47.6833 95.933 50.1539C95.9205 50.3865 95.9485 50.6678 96.1459 50.8952C96.3408 51.1197 96.6111 51.1856 96.8083 51.2144L96.8106 51.2148C96.8439 51.2195 96.8871 51.2251 96.9349 51.2291L96.9611 51.2312L96.9873 51.2306C97.0777 51.2286 97.17 51.2315 97.2718 51.235L97.2872 51.2355C97.3792 51.2387 97.4855 51.2424 97.5843 51.2396C97.6855 51.2367 97.8183 51.2267 97.9484 51.1838C98.0854 51.1387 98.253 51.0452 98.3604 50.8574C98.4375 50.7256 98.4836 50.5672 98.5154 50.4265C98.5499 50.2738 98.5772 50.0956 98.5995 49.9014C98.644 49.5124 98.6716 49.0255 98.6872 48.4833C98.7185 47.3969 98.7026 46.0519 98.668 44.7464C98.6333 43.4394 98.5796 42.1652 98.5347 41.2182C98.5122 40.7446 98.4919 40.3525 98.4771 40.0787C98.4698 39.9418 98.4638 39.8344 98.4597 39.7612L98.455 39.6776L98.4541 39.6633V35.529C99.832 35.9254 100.886 37.0174 101.828 38.0118L102.869 39.1091L102.688 37.6079C102.576 36.6837 102.209 35.7062 101.694 34.8936C101.396 34.4238 101.033 33.9868 100.621 33.647C100.639 33.6453 100.657 33.6437 100.675 33.6424C101.046 33.6148 101.475 33.6692 101.91 33.7938C102.803 34.0497 103.579 34.5575 103.887 35.0423L104.487 35.9869L104.79 34.9096C105.104 33.7945 104.514 32.6456 103.739 31.8044C103.141 31.1546 102.355 30.6001 101.558 30.291C101.872 30.0464 102.334 29.8613 102.899 29.7442C103.751 29.5678 104.638 29.5887 105.055 29.6681L106.197 29.8857L105.569 28.907C105.075 28.1365 104.082 27.5303 103.054 27.1704C102.501 26.9769 101.902 26.842 101.315 26.7957C101.51 26.6562 101.717 26.5231 101.927 26.3965C102.231 26.2134 102.53 26.051 102.8 25.9043L102.822 25.8928C103.075 25.7552 103.32 25.6226 103.496 25.5064L104.721 24.6995L103.259 24.5903L103.244 24.5893C102.162 24.5084 101.175 24.4347 100.282 24.593C99.5506 24.7225 98.8876 25.005 98.2623 25.5322C98.221 25.395 98.1842 25.2381 98.1443 25.0579C98.1398 25.0378 98.1353 25.0172 98.1306 24.9962C98.0446 24.6046 97.9288 24.0771 97.5949 23.6788L96.9472 22.906L96.7241 23.8894C96.6908 24.0363 96.5992 24.227 96.45 24.4795L96.4491 24.481C96.4058 24.5549 96.3557 24.6372 96.3027 24.7242C96.1901 24.9091 96.0643 25.1155 95.9626 25.3091C95.929 25.3731 95.8956 25.4398 95.8638 25.5088C95.1716 25.0697 94.3542 24.8453 93.5821 24.7652C92.5645 24.6596 91.5394 24.7954 90.8489 25.1023L89.5118 25.6964L90.9329 26.0448C91.5884 26.2055 92.3359 26.5201 92.9831 26.948C93.0426 26.9873 93.1007 27.0272 93.1576 27.0679C91.0028 26.7517 88.9344 28.018 88.1489 29.9287L87.7231 30.9643L88.7784 30.5901C89.4188 30.363 90.2743 30.2139 91.1013 30.2414C91.535 30.2558 91.94 30.318 92.2944 30.4304C90.5149 31.4247 89.7166 33.5313 89.2228 35.5779L88.8414 37.1586L90.045 36.0654C90.1992 35.9253 90.3474 35.7865 90.4925 35.6506C91.0175 35.1588 91.5031 34.704 92.0953 34.3566Z" fill="#0F0F0F" stroke="black"/>
<path d="M97.219 51.6438C91.4226 46.9176 84.8436 43.3034 76.8766 45.3327L76.9395 46.3136C77.182 46.3432 77.4457 46.3727 77.7287 46.4043C81.4425 46.82 88.4848 47.6083 94.857 53.8238L78.5526 45.4909C85.5947 44.3261 91.5313 47.6513 96.9036 52.0318C97.0523 52.1526 97.2002 52.275 97.3485 52.3977C97.3929 52.4345 97.4373 52.4713 97.4819 52.5081M97.219 51.6438C97.2192 51.644 97.2194 51.6441 97.2196 51.6443L96.9039 52.0314L97.2189 51.6437C97.2189 51.6437 97.219 51.6438 97.219 51.6438ZM97.219 51.6438C97.2933 51.7042 97.3675 51.765 97.4415 51.8259M97.4415 51.8259C97.3151 51.9544 97.2058 52.0697 97.1138 52.1697L97.4819 52.5081M97.4415 51.8259C99.706 49.5231 107.426 42.9924 117.908 44.9832L117.852 45.973C107.818 46.7322 102.232 51.6949 100.064 53.6215C100.006 53.6727 99.9511 53.7217 99.8983 53.7684C100.293 54.0883 100.694 54.443 101.083 54.7878L101.095 54.7977C101.495 55.1523 101.884 55.4965 102.258 55.7991C102.285 55.6434 102.303 55.462 102.32 55.2601C102.321 55.2432 102.323 55.226 102.324 55.2086C102.343 54.9835 102.366 54.7144 102.422 54.5042C102.451 54.3923 102.504 54.2348 102.617 54.1022C102.754 53.9415 102.963 53.8396 103.208 53.8671L103.209 53.8673C103.443 53.8941 103.653 53.986 103.82 54.1465C103.981 54.3022 104.072 54.4943 104.121 54.6782C104.216 55.0321 104.18 55.4388 104.108 55.791C104.035 56.1556 103.911 56.5231 103.778 56.8281C103.735 56.9263 103.688 57.0256 103.638 57.1208C104.003 57.4094 104.352 57.6902 104.699 57.9698L104.734 57.9975C105.101 58.2933 105.467 58.5878 105.85 58.8907C105.891 58.8547 105.938 58.809 105.996 58.7505C106.002 58.7447 106.008 58.7387 106.014 58.7325C106.161 58.5847 106.392 58.3532 106.747 58.2412C107.354 58.0423 107.873 58.4039 108.151 58.7186C108.302 58.8895 108.425 59.0893 108.501 59.2911C108.572 59.4774 108.63 59.7383 108.549 59.9938L108.546 60.0023L108.543 60.0108C108.214 60.938 107.406 61.7676 106.56 62.1586L106.521 62.1765L106.48 62.1876C105.866 62.3526 105.305 62.1733 104.83 61.8937C104.364 61.6193 103.924 61.2149 103.527 60.8402C103.481 60.7967 103.435 60.7535 103.39 60.7109C103.03 60.3698 102.7 60.0574 102.367 59.818C102.182 59.6846 102.013 59.5873 101.857 59.524C101.827 59.885 101.796 60.1883 101.752 60.4108C101.723 60.5574 101.671 60.7689 101.543 60.9286C101.466 61.0235 101.341 61.1269 101.161 61.1574C100.987 61.1868 100.841 61.1348 100.745 61.0825C100.363 60.8751 100.139 60.562 100.044 60.2075C99.9539 59.8742 99.9845 59.532 100.043 59.245C100.102 58.9541 100.199 58.6759 100.277 58.4595C100.291 58.4223 100.303 58.3879 100.315 58.3556C100.323 58.336 100.329 58.3173 100.336 58.2991C99.8793 57.9224 99.3838 57.48 98.8988 57.0469L98.8964 57.0448C98.3653 56.5706 97.8467 56.1076 97.3836 55.731C97.3322 55.7745 97.2813 55.8178 97.2303 55.8618L97.2279 55.8638C96.7859 56.2405 96.3159 56.6518 95.843 57.0655C95.3683 57.4809 94.8907 57.8987 94.4358 58.2866C94.7167 58.8795 94.9216 59.5455 94.7434 60.4694L94.7352 60.5118L94.7199 60.5522C94.6087 60.8452 94.3516 61.2118 93.9212 61.2349C93.6871 61.2475 93.482 61.1457 93.3398 60.987C93.207 60.8387 93.136 60.6522 93.1008 60.4692L93.1003 60.4665C93.0488 60.1905 92.9955 59.92 92.9207 59.6809C92.9103 59.6478 92.8998 59.6163 92.8893 59.5864C92.6768 59.7652 92.4266 59.9942 92.1387 60.2576C92.0962 60.2966 92.0527 60.3363 92.0085 60.3768C91.4697 60.8693 90.8384 61.4358 90.2026 61.8536C89.5879 62.2574 88.852 62.6028 88.1312 62.4721C87.3466 62.3297 86.8059 61.68 86.4796 60.6369L86.4796 60.6369C86.2008 59.7454 86.4307 58.8719 87.1848 58.5621C87.7655 58.3234 88.413 58.5282 88.9382 59.0291L115.761 45.1892C106.029 44.3337 99.0807 50.7695 97.4819 52.5081M97.4415 51.8259C97.5175 51.8886 97.5933 51.9513 97.6686 52.0137C97.7127 52.0502 97.7567 52.0866 97.8004 52.1227L97.4819 52.5081M99.5146 54.1013C99.9222 54.4277 100.343 54.7999 100.763 55.1721C101.325 55.6698 101.888 56.1675 102.419 56.5557M102.419 56.5557C102.53 56.4891 102.607 56.3704 102.663 56.2215L102.419 56.5557Z" fill="#0F0F0F" stroke="black"/>
<path d="M22.95 45L22.475 28.45H25.975L26.45 45H22.95ZM21.575 26.85L21.15 25.1C21.7333 25 22.1667 24.9167 22.45 24.85C22.75 24.7833 23.0667 24.7083 23.4 24.625L23.15 25.25C22.7167 25.1 22.3 24.8083 21.9 24.375C21.5167 23.925 21.325 23.4167 21.325 22.85C21.325 22.25 21.4583 21.7667 21.725 21.4C21.9917 21.0333 22.3333 20.7667 22.75 20.6C23.1667 20.4333 23.6 20.35 24.05 20.35C24.3 20.35 24.5333 20.3667 24.75 20.4C24.9833 20.4333 25.1917 20.4833 25.375 20.55L25.175 22.35C25.0083 22.3167 24.8417 22.2833 24.675 22.25C24.5083 22.2167 24.325 22.2 24.125 22.2C23.9083 22.2 23.7083 22.275 23.525 22.425C23.3583 22.5583 23.275 22.725 23.275 22.925C23.275 23.2083 23.375 23.4583 23.575 23.675C23.775 23.8917 24.0083 24.0667 24.275 24.2C24.5583 24.3167 24.7917 24.3833 24.975 24.4L23.6 24.55C24.05 24.4333 24.475 24.3167 24.875 24.2C25.275 24.0667 25.65 23.9333 26 23.8L26.5 25.475C26.0833 25.625 25.5917 25.7917 25.025 25.975C24.475 26.1417 23.9 26.3 23.3 26.45C22.7167 26.6 22.1417 26.7333 21.575 26.85ZM35.5232 45L35.0482 28.45H38.5482L39.0232 45H35.5232ZM34.1482 26.85L33.7232 25.1C34.3066 25 34.7399 24.9167 35.0232 24.85C35.3232 24.7833 35.6399 24.7083 35.9732 24.625L35.7232 25.25C35.2899 25.1 34.8732 24.8083 34.4732 24.375C34.0899 23.925 33.8982 23.4167 33.8982 22.85C33.8982 22.25 34.0316 21.7667 34.2982 21.4C34.5649 21.0333 34.9066 20.7667 35.3232 20.6C35.7399 20.4333 36.1732 20.35 36.6232 20.35C36.8732 20.35 37.1066 20.3667 37.3232 20.4C37.5566 20.4333 37.7649 20.4833 37.9482 20.55L37.7482 22.35C37.5816 22.3167 37.4149 22.2833 37.2482 22.25C37.0816 22.2167 36.8982 22.2 36.6982 22.2C36.4816 22.2 36.2816 22.275 36.0982 22.425C35.9316 22.5583 35.8482 22.725 35.8482 22.925C35.8482 23.2083 35.9482 23.4583 36.1482 23.675C36.3482 23.8917 36.5816 24.0667 36.8482 24.2C37.1316 24.3167 37.3649 24.3833 37.5482 24.4L36.1732 24.55C36.6232 24.4333 37.0482 24.3167 37.4482 24.2C37.8482 24.0667 38.2232 23.9333 38.5732 23.8L39.0732 25.475C38.6566 25.625 38.1649 25.7917 37.5982 25.975C37.0482 26.1417 36.4732 26.3 35.8732 26.45C35.2899 26.6 34.7149 26.7333 34.1482 26.85ZM48.0965 45L47.6215 28.45H51.1215L51.5965 45H48.0965ZM46.7215 26.85L46.2965 25.1C46.8798 25 47.3132 24.9167 47.5965 24.85C47.8965 24.7833 48.2132 24.7083 48.5465 24.625L48.2965 25.25C47.8632 25.1 47.4465 24.8083 47.0465 24.375C46.6632 23.925 46.4715 23.4167 46.4715 22.85C46.4715 22.25 46.6048 21.7667 46.8715 21.4C47.1382 21.0333 47.4798 20.7667 47.8965 20.6C48.3132 20.4333 48.7465 20.35 49.1965 20.35C49.4465 20.35 49.6798 20.3667 49.8965 20.4C50.1298 20.4333 50.3382 20.4833 50.5215 20.55L50.3215 22.35C50.1548 22.3167 49.9882 22.2833 49.8215 22.25C49.6548 22.2167 49.4715 22.2 49.2715 22.2C49.0548 22.2 48.8548 22.275 48.6715 22.425C48.5048 22.5583 48.4215 22.725 48.4215 22.925C48.4215 23.2083 48.5215 23.4583 48.7215 23.675C48.9215 23.8917 49.1548 24.0667 49.4215 24.2C49.7048 24.3167 49.9382 24.3833 50.1215 24.4L48.7465 24.55C49.1965 24.4333 49.6215 24.3167 50.0215 24.2C50.4215 24.0667 50.7965 23.9333 51.1465 23.8L51.6465 25.475C51.2298 25.625 50.7382 25.7917 50.1715 25.975C49.6215 26.1417 49.0465 26.3 48.4465 26.45C47.8632 26.6 47.2882 26.7333 46.7215 26.85Z" fill="black"/>
<path d="M18.1928 70L25.7301 55.0852V54.9609H16.9499V51.8182H29.7074V55.0053L22.1612 70H18.1928ZM33.5493 70L41.0866 55.0852V54.9609H32.3064V51.8182H45.0638V55.0053L37.5177 70H33.5493ZM48.9057 70L56.443 55.0852V54.9609H47.6628V51.8182H60.4203V55.0053L52.8741 70H48.9057Z" fill="black"/>
</svg>
