<svg width="75" height="81" viewBox="0 0 75 81" fill="none" xmlns="http://www.w3.org/2000/svg">
<path d="M73.4936 67.9511H73.4446L66.5326 52.0771C66.7471 51.8048 66.8646 51.4687 66.8666 51.1221C66.8666 51.0511 66.8507 50.9861 66.8437 50.9151C68.4587 50.652 70.0914 50.513 71.7276 50.4991C65.7596 47.7141 56.7216 49.3891 48.8996 54.8601C44.6085 58.0375 40.6793 61.6767 37.1827 65.7121L29.4996 73.9831C29.2996 72.4021 28.7667 71.7421 28.0497 71.4831C27.8536 71.4149 27.6438 71.3954 27.4385 71.4263C27.2332 71.4572 27.0385 71.5376 26.8711 71.6605C26.7038 71.7834 26.5689 71.9452 26.4781 72.1319C26.3872 72.3186 26.3431 72.5246 26.3496 72.7321C26.3261 73.0397 26.3989 73.3471 26.5581 73.6114C26.7172 73.8757 26.9547 74.0839 27.2376 74.2071C27.7056 74.4321 28.0166 73.9071 28.1996 74.1841C28.4856 74.6091 28.3907 74.9841 27.8307 75.6321C26.1977 77.5071 24.3077 77.1971 23.6307 76.5431C23.1306 75.9107 22.4075 75.4939 21.6097 75.3781C21.2869 75.3492 20.9616 75.3893 20.6555 75.4959C20.3494 75.6025 20.0696 75.7731 19.8346 75.9963C19.5996 76.2195 19.4148 76.4901 19.2925 76.7903C19.1703 77.0904 19.1134 77.4132 19.1256 77.7371C19.1256 79.0761 20.2607 80.8971 24.0727 80.9241C27.3107 80.9501 29.4277 78.8441 30.8727 77.4331C30.9297 77.3781 30.9936 77.3031 31.0616 77.2411C31.4076 79.1661 31.9746 79.5641 32.8106 79.7611C33.0256 79.8126 33.2494 79.8159 33.4658 79.7709C33.6822 79.7258 33.886 79.6335 34.0626 79.5005C34.2392 79.3675 34.3842 79.1971 34.4872 79.0015C34.5903 78.8059 34.6488 78.5899 34.6587 78.3691C34.6853 78.0438 34.5819 77.7213 34.3713 77.472C34.1606 77.2228 33.8598 77.0671 33.5346 77.0391C33.0096 76.9911 32.7606 76.9251 32.4996 76.5501C32.4293 76.3748 32.407 76.184 32.4352 75.9973C32.4633 75.8106 32.5408 75.6348 32.6596 75.4881C32.7926 75.3431 39.4916 68.1401 39.4916 68.1401C43.2182 64.1215 47.2689 60.416 51.6026 57.0611C55.6436 54.1341 59.6216 52.0881 63.9146 51.4141C63.9505 51.617 64.0278 51.8103 64.1416 51.9821L57.4336 67.9471C57.2058 67.9566 56.9902 68.0523 56.8302 68.2147C56.6702 68.3771 56.5778 68.5942 56.5716 68.8221C56.5735 68.8894 56.5819 68.9564 56.5967 69.0221C57.162 70.9397 58.3327 72.6229 59.9338 73.8201C61.5349 75.0173 63.4804 75.6642 65.4797 75.6642C67.4789 75.6642 69.4244 75.0173 71.0255 73.8201C72.6266 72.6229 73.7973 70.9397 74.3626 69.0221V69.0041C74.3789 68.9404 74.3867 68.8748 74.3857 68.8091C74.3769 68.5784 74.279 68.3602 74.1126 68.2002C73.9463 68.0402 73.7244 67.9509 73.4936 67.9511ZM65.0736 68.0031C64.9072 68.0678 64.7642 68.1813 64.6634 68.3287C64.5625 68.4761 64.5086 68.6505 64.5086 68.8291C64.5104 68.8967 64.5204 68.9639 64.5386 69.0291H58.2956C58.3135 68.9639 58.3232 68.8967 58.3246 68.8291C58.3264 68.6801 58.2898 68.5333 58.2184 68.4026C58.1469 68.272 58.043 68.1619 57.9167 68.0831L64.5166 52.3731C64.6825 52.4965 64.8727 52.5834 65.0746 52.6281L65.0736 68.0031ZM72.6416 68.8291C72.6388 68.8965 72.6466 68.964 72.6646 69.0291H66.1907C66.206 68.9635 66.2134 68.8964 66.2126 68.8291C66.2154 68.6359 66.1537 68.4473 66.0373 68.2932C65.9208 68.139 65.7562 68.0281 65.5696 67.9781V52.6431C65.7758 52.6151 65.9738 52.5438 66.1506 52.4341L72.9786 68.1341C72.8734 68.218 72.7883 68.3244 72.7296 68.4456C72.6709 68.5667 72.6402 68.6995 72.6396 68.8341L72.6416 68.8291Z" fill="black" fill-opacity="0.4"/>
<path d="M0.0517578 68.819C0.0523533 68.8847 0.0600753 68.9501 0.0747681 69.0141V69.032C0.640112 70.9496 1.81082 72.6328 3.41193 73.83C5.01303 75.0272 6.95855 75.6742 8.95776 75.6742C10.957 75.6742 12.9025 75.0272 14.5036 73.83C16.1047 72.6328 17.2754 70.9496 17.8408 69.032C17.8565 68.9665 17.8656 68.8995 17.8678 68.8321C17.8616 68.6035 17.7686 68.3858 17.6078 68.2233C17.4469 68.0608 17.2303 67.9656 17.0018 67.9571L10.2958 51.9921C10.411 51.821 10.4884 51.6274 10.5228 51.424C14.8118 52.098 18.7968 54.145 22.8348 57.071C27.1681 60.4265 31.2186 64.1319 34.9457 68.15C34.9457 68.15 41.6458 75.35 41.7758 75.498C41.8962 75.6439 41.975 75.8196 42.0039 76.0065C42.0328 76.1934 42.0106 76.3847 41.9398 76.56C41.6778 76.935 41.4268 77.001 40.8968 77.049C40.5725 77.0785 40.2729 77.2348 40.063 77.4838C39.8532 77.7327 39.7499 78.0544 39.7758 78.379C39.7856 78.5998 39.8442 78.8157 39.9471 79.0112C40.0501 79.2067 40.195 79.377 40.3715 79.51C40.5479 79.643 40.7516 79.7353 40.9679 79.7805C41.1842 79.8256 41.4078 79.8224 41.6227 79.771C42.4617 79.571 43.0228 79.1711 43.3718 77.2511C43.4398 77.3141 43.5098 77.388 43.5638 77.443C45.0028 78.854 47.1258 80.96 50.3638 80.934C54.1748 80.907 55.3068 79.0861 55.3068 77.7471C55.3191 77.4234 55.2624 77.1008 55.1404 76.8008C55.0184 76.5008 54.8339 76.2302 54.5992 76.0071C54.3645 75.7839 54.085 75.6133 53.7792 75.5065C53.4734 75.3998 53.1483 75.3594 52.8257 75.3881C52.0278 75.5042 51.3044 75.921 50.8038 76.5531C50.1288 77.2071 48.2408 77.517 46.6038 75.642C46.0498 74.999 45.9578 74.619 46.2388 74.194C46.4178 73.92 46.7388 74.442 47.1948 74.217C47.4774 74.093 47.715 73.8849 47.875 73.6209C48.035 73.3569 48.1096 73.05 48.0887 72.7421C48.0952 72.5345 48.0512 72.3285 47.9603 72.1418C47.8695 71.9551 47.7346 71.7934 47.5673 71.6704C47.3999 71.5475 47.2053 71.4671 46.9999 71.4362C46.7946 71.4053 46.5849 71.4248 46.3888 71.493C45.6668 71.751 45.1348 72.412 44.9368 73.993L37.2518 65.7211C33.7582 61.6859 29.8339 58.045 25.5488 54.8631C17.7198 49.3931 8.67978 47.717 2.71878 50.502C4.35401 50.516 5.98576 50.6551 7.59976 50.918C7.58783 50.9865 7.58081 51.0556 7.57877 51.1251C7.57979 51.4717 7.69705 51.8079 7.91177 52.08L1.00476 67.954C0.983761 67.954 0.968761 67.954 0.948761 67.954C0.716527 67.9546 0.493524 68.045 0.326355 68.2062C0.159186 68.3674 0.0607884 68.587 0.0517578 68.819ZM9.37177 52.629C9.57385 52.5849 9.76414 52.4979 9.92978 52.374L16.5298 68.084C16.4032 68.1627 16.2991 68.2728 16.2275 68.4034C16.1558 68.5341 16.1191 68.681 16.1208 68.83C16.1217 68.8975 16.1308 68.9647 16.1478 69.03H9.90976C9.92453 68.9644 9.93259 68.8973 9.93378 68.83C9.93581 68.6515 9.88313 68.4767 9.78284 68.3291C9.68254 68.1814 9.53944 68.068 9.37277 68.004L9.37177 52.629ZM1.46277 68.129L8.29477 52.429C8.47279 52.5401 8.67267 52.6114 8.88077 52.6381V67.974C8.69296 68.0229 8.52692 68.1333 8.40912 68.2875C8.29132 68.4418 8.22853 68.631 8.23077 68.825C8.23178 68.8923 8.2395 68.9593 8.25378 69.025H1.77676C1.79136 68.9594 1.7981 68.8923 1.79678 68.825C1.79743 68.6903 1.76731 68.5573 1.70874 68.436C1.65017 68.3147 1.56467 68.2083 1.45877 68.125L1.46277 68.129Z" fill="black" fill-opacity="0.4"/>
<path d="M49.034 12.243C55.775 11.009 66.114 15.143 69.481 17.143C65.605 11.443 55.032 5.78201 45.003 6.54301C46.1105 5.38371 47.4694 4.49419 48.975 3.94301C47.8587 3.59365 46.6833 3.47406 45.5196 3.59145C44.3559 3.70883 43.228 4.06076 42.204 4.62601C42.9809 3.30926 44.0046 2.15482 45.219 1.22601C42.9972 1.34567 40.8788 2.20289 39.199 3.662C39.117 2.969 38.325 0.691006 37.219 0.0310059C36.119 0.691006 35.324 2.968 35.238 3.662C33.5574 2.20227 31.4379 1.34501 29.215 1.22601C30.4305 2.15448 31.4552 3.30894 32.233 4.62601C31.2081 4.06079 30.0794 3.70889 28.9149 3.59151C27.7503 3.47413 26.5741 3.5937 25.457 3.94301C26.9651 4.48973 28.3253 5.37987 29.43 6.54301C19.406 5.78501 8.83001 11.443 4.95801 17.143C8.33101 15.148 18.664 11.014 25.405 12.243C15.621 14.908 7.40499 23.56 5.64999 32.406C10.358 26.506 18.761 19.233 25.864 18.091C18.938 24.04 14.93 33.544 16.264 40.202C18.572 34.024 24.292 25.272 29.679 22.183C27.479 27.319 25.864 36.968 28.659 43.15C29.266 38.084 31.035 28.413 34.312 24.04C37.08 36.258 33.703 50.426 33.098 53.099C35.1065 55.6241 36.1993 58.7556 36.198 61.982H36.869V53.646C36.605 53.5624 36.3795 53.3872 36.2335 53.1518C36.0874 52.9165 36.0303 52.6367 36.0726 52.363C36.1148 52.0893 36.2537 51.8397 36.4639 51.6594C36.6742 51.4792 36.942 51.3801 37.219 51.3801C37.496 51.3801 37.7638 51.4792 37.9741 51.6594C38.1843 51.8397 38.3231 52.0893 38.3654 52.363C38.4077 52.6367 38.3507 52.9165 38.2046 53.1518C38.0585 53.3872 37.833 53.5624 37.569 53.646V61.98H38.241C38.2428 58.7541 39.3353 55.6236 41.341 53.097C40.734 50.425 37.357 36.257 40.127 24.038C43.402 28.411 45.172 38.083 45.776 43.148C48.569 36.965 46.958 27.316 44.759 22.181C50.135 25.27 55.859 34.022 58.171 40.2C59.506 33.543 55.496 24.038 48.571 18.09C55.68 19.232 64.08 26.509 68.787 32.405C67.034 23.558 58.827 14.904 49.034 12.243Z" fill="black"/>
</svg>
