<svg xmlns="http://www.w3.org/2000/svg" width="202.391" height="80.955" viewBox="0 0 202.391 80.955">
  <g id="logo_1_" data-name="logo (1)" transform="translate(-137.475 -184.254)">
    <path id="Path_4" data-name="Path 4" d="M603.977,340.788l-.049,0-6.912-15.874a1.558,1.558,0,0,0,.334-.955c0-.071-.016-.136-.023-.207a32.073,32.073,0,0,1,4.884-.416c-5.968-2.785-15.006-1.11-22.828,4.361a72.925,72.925,0,0,0-11.717,10.852l-7.683,8.271c-.2-1.581-.733-2.241-1.45-2.5a1.28,1.28,0,0,0-1.7,1.249,1.485,1.485,0,0,0,.888,1.475c.468.225.779-.3.962-.023.286.425.191.8-.369,1.448-1.633,1.875-3.523,1.565-4.2.911a3.154,3.154,0,0,0-2.021-1.165,2.282,2.282,0,0,0-2.484,2.359c0,1.339,1.135,3.16,4.947,3.187,3.238.026,5.355-2.08,6.8-3.491.057-.055.121-.13.189-.192.346,1.925.913,2.323,1.749,2.52a1.5,1.5,0,0,0,1.848-1.392,1.234,1.234,0,0,0-1.124-1.33c-.525-.048-.774-.114-1.035-.489a1.06,1.06,0,0,1,.16-1.062c.133-.145,6.832-7.348,6.832-7.348a100.014,100.014,0,0,1,12.111-11.079c4.041-2.927,8.019-4.973,12.312-5.647a1.5,1.5,0,0,0,.227.568l-6.708,15.965a.9.9,0,0,0-.862.875,1.042,1.042,0,0,0,.025.2,9.261,9.261,0,0,0,17.766,0v-.018a.742.742,0,0,0,.023-.195A.892.892,0,0,0,603.977,340.788Zm-8.42.052a.886.886,0,0,0-.565.826.825.825,0,0,0,.03.2h-6.243a.822.822,0,0,0,.029-.2.867.867,0,0,0-.408-.746l6.6-15.71a1.464,1.464,0,0,0,.558.255Zm7.568.826a.645.645,0,0,0,.023.2h-6.474a.837.837,0,0,0,.022-.2.868.868,0,0,0-.643-.851V325.48a1.479,1.479,0,0,0,.581-.209l6.828,15.7a.9.9,0,0,0-.339.7Z" transform="translate(-265.008 -88.583)" fill="#006d67"/>
    <path id="Path_5" data-name="Path 5" d="M496.175,341.656a.908.908,0,0,0,.023.195l0,.018a9.261,9.261,0,0,0,17.766,0,.993.993,0,0,0,.027-.2.9.9,0,0,0-.866-.875l-6.706-15.965a1.448,1.448,0,0,0,.227-.568c4.289.674,8.274,2.721,12.312,5.647a100.167,100.167,0,0,1,12.111,11.079s6.7,7.2,6.83,7.348a1.05,1.05,0,0,1,.164,1.062c-.262.375-.513.441-1.043.489a1.237,1.237,0,0,0-1.121,1.33,1.5,1.5,0,0,0,1.847,1.392c.839-.2,1.4-.6,1.749-2.52.068.063.138.137.192.192,1.439,1.411,3.562,3.517,6.8,3.491,3.811-.027,4.943-1.848,4.943-3.187a2.281,2.281,0,0,0-2.481-2.359,3.16,3.16,0,0,0-2.022,1.165c-.675.654-2.563.964-4.2-.911-.554-.643-.646-1.023-.365-1.448.179-.274.5.248.956.023a1.5,1.5,0,0,0,.894-1.475,1.28,1.28,0,0,0-1.7-1.249c-.722.258-1.254.919-1.452,2.5l-7.685-8.272A73.208,73.208,0,0,0,521.672,327.7c-7.829-5.47-16.869-7.146-22.83-4.361a32.053,32.053,0,0,1,4.881.416,1.454,1.454,0,0,0-.021.207,1.549,1.549,0,0,0,.333.955l-6.907,15.874c-.021,0-.036,0-.056,0A.9.9,0,0,0,496.175,341.656Zm9.32-16.19a1.447,1.447,0,0,0,.558-.255l6.6,15.71a.867.867,0,0,0-.409.746.839.839,0,0,0,.027.2h-6.238a.991.991,0,0,0,.024-.2.874.874,0,0,0-.561-.826Zm-7.909,15.5,6.832-15.7a1.458,1.458,0,0,0,.586.209v15.336a.869.869,0,0,0-.65.851,1.013,1.013,0,0,0,.023.2H497.9a.845.845,0,0,0,.02-.2.885.885,0,0,0-.338-.7Z" transform="translate(-230.648 -88.583)" fill="#006d67"/>
    <path id="Path_6" data-name="Path 6" d="M554,196.539c6.741-1.234,17.08,2.9,20.447,4.9-3.876-5.7-14.449-11.361-24.478-10.6a10.472,10.472,0,0,1,3.972-2.6,8.659,8.659,0,0,0-6.771.683,11.882,11.882,0,0,1,3.015-3.4,10,10,0,0,0-6.02,2.436c-.082-.693-.874-2.971-1.98-3.631-1.1.66-1.895,2.937-1.981,3.631a10,10,0,0,0-6.023-2.436,11.879,11.879,0,0,1,3.018,3.4,8.672,8.672,0,0,0-6.776-.683,10.339,10.339,0,0,1,3.973,2.6c-10.024-.758-20.6,4.9-24.472,10.6,3.373-1.995,13.706-6.129,20.447-4.9-9.784,2.665-18,11.317-19.755,20.163,4.708-5.9,13.111-13.173,20.214-14.315-6.926,5.949-10.934,15.453-9.6,22.111,2.308-6.178,8.028-14.93,13.415-18.019-2.2,5.136-3.815,14.785-1.02,20.967.607-5.066,2.376-14.737,5.653-19.11,2.768,12.218-.609,26.386-1.214,29.059a14.26,14.26,0,0,1,3.1,8.883h.671v-8.336a1.16,1.16,0,1,1,.7,0v8.334h.672a14.3,14.3,0,0,1,3.1-8.883c-.607-2.672-3.984-16.84-1.214-29.059,3.275,4.373,5.045,14.045,5.649,19.11,2.793-6.183,1.182-15.832-1.017-20.967,5.376,3.089,11.1,11.841,13.412,18.019,1.335-6.657-2.675-16.162-9.6-22.11,7.109,1.142,15.509,8.419,20.216,14.315C572,207.854,563.793,199.2,554,196.539Z" transform="translate(-239.491 -0.042)" fill="#006d67"/>
    <path id="Path_7" data-name="Path 7" d="M471.055,265.209V184.254h.37v80.955Z" transform="translate(-214.496)" fill="#a98445"/>
    <path id="Path_8" data-name="Path 8" d="M155.428,205.206h2.19v-.092h.017v-.85a4,4,0,0,0-.047-.575l-.426.079,0,.01a3.059,3.059,0,0,1,.036.487v.5h-.48v-1.075H156.3v1.075h-.457v-1.056h-.432v1.4h.014Z" transform="translate(-11.534 -12.496)" fill="#a98445"/>
    <path id="Path_9" data-name="Path 9" d="M276.016,205.206H278.2v-.092h.017v-.85a4.46,4.46,0,0,0-.042-.575l-.422.079v.01a3.528,3.528,0,0,1,.036.487v.5h-.482v-1.075h-.428v1.075h-.451v-1.056h-.426v1.4h.008Z" transform="translate(-89.077 -12.496)" fill="#a98445"/>
    <path id="Path_10" data-name="Path 10" d="M271.507,213.057v-.292h.006v-2.6a13.207,13.207,0,0,0-.169-1.9l-1.295.232h0s.009.049.024.145a11.763,11.763,0,0,1,.125,1.52v1.545h-2.345v-3.288l-1.315.288v3h-2.754v-.01h-1.13a1.111,1.111,0,0,1-.164-.011c0-.007-.007-.027-.013-.06a1.117,1.117,0,0,1-.03-.286v-3.218h0v-1.5l-.727.081a6.778,6.778,0,0,0-1.721.462,4.661,4.661,0,0,0-1.352.834,3.056,3.056,0,0,0-.95,1.561,2.873,2.873,0,0,0-.1.738,2.563,2.563,0,0,0,.98,2.032,3.838,3.838,0,0,0,2.417.738v-1.345a2.571,2.571,0,0,1-1.606-.453,1.18,1.18,0,0,1-.471-.972,2.089,2.089,0,0,1,.051-.41,1.755,1.755,0,0,1,.554-.887,3.991,3.991,0,0,1,1.491-.777,1.232,1.232,0,0,0,.119-.033v3.242h.006a2.3,2.3,0,0,0,.112.709,1.324,1.324,0,0,0,.695.771,1.892,1.892,0,0,0,.71.135h.785v.009Z" transform="translate(-77.241 -14.383)" fill="#a98445"/>
    <path id="Path_11" data-name="Path 11" d="M145.7,208.5s.008.049.022.145a10.9,10.9,0,0,1,.129,1.52v1.545h-2.191v-.01h-1.121a1.341,1.341,0,0,1-.176-.011c0-.008,0-.028-.006-.06a.919.919,0,0,1-.029-.286v-3.218h0v-1.5l-.729.081a6.924,6.924,0,0,0-1.723.462,4.737,4.737,0,0,0-1.348.834,3.093,3.093,0,0,0-.952,1.561,3.012,3.012,0,0,0-.1.738,2.561,2.561,0,0,0,.982,2.032,3.8,3.8,0,0,0,2.41.738v-1.345a2.545,2.545,0,0,1-1.6-.453,1.178,1.178,0,0,1-.473-.972,1.752,1.752,0,0,1,.052-.41A1.785,1.785,0,0,1,139.4,209a4.026,4.026,0,0,1,1.492-.777c.04-.008.08-.023.118-.033v3.241h.01a2.05,2.05,0,0,0,.115.709,1.3,1.3,0,0,0,.686.77,1.935,1.935,0,0,0,.721.135h.492v.009h4.128v-.292h.009v-2.6a13.56,13.56,0,0,0-.171-1.9Z" transform="translate(-0.004 -14.385)" fill="#a98445"/>
    <path id="Path_12" data-name="Path 12" d="M379.738,207.567h-2.006V203.33l-.578-.079c-.02,0-.208-.025-.511-.025a4.4,4.4,0,0,0-1.752.331,2.853,2.853,0,0,0-1.645,1.81,3.445,3.445,0,0,0-.164,1.048,3.232,3.232,0,0,0,.216,1.151h-1.9V203.33l-.577-.079c-.02,0-.216-.025-.51-.025a4.4,4.4,0,0,0-1.756.331,2.852,2.852,0,0,0-1.64,1.81,3.339,3.339,0,0,0-.163,1.048,3.064,3.064,0,0,0,.22,1.151h-1.119v0H364.8v-7.385l-1.313.346v7.043h-1.467c0-.152,0-.318,0-.479,0-.331,0-.936-.014-1.154a1.528,1.528,0,0,0-.423-.966,2.852,2.852,0,0,0-1.333-.732,6.465,6.465,0,0,0-1.749-.225,8.49,8.49,0,0,0-1.035.071l2.106-2.479-.989-.887-3.515,4.1.745,1.071a7.117,7.117,0,0,1,2.684-.528,4.636,4.636,0,0,1,1.73.286,1.232,1.232,0,0,1,.4.255c.057.064.057.082.057.1.014.162.014.768.014,1.09v.479H354.9v-.01h-1.124a.943.943,0,0,1-.158-.011.186.186,0,0,1-.027-.06,1.388,1.388,0,0,1-.025-.286v-3.218h0v-1.5l-.725.081a6.785,6.785,0,0,0-1.719.462,4.616,4.616,0,0,0-1.352.834,3.1,3.1,0,0,0-.956,1.561,3.165,3.165,0,0,0-.091.738,2.567,2.567,0,0,0,.971,2.032,3.853,3.853,0,0,0,2.421.738v-1.345a2.578,2.578,0,0,1-1.609-.453,1.155,1.155,0,0,1-.468-.972,1.64,1.64,0,0,1,.055-.41,1.7,1.7,0,0,1,.55-.887,3.99,3.99,0,0,1,1.492-.777c.043-.008.076-.023.12-.033v3.239h0a2.443,2.443,0,0,0,.112.709,1.331,1.331,0,0,0,.694.77,1.913,1.913,0,0,0,.712.135h.327v.009h13.9v-.032a3.559,3.559,0,0,0,.675.357,3.608,3.608,0,0,0,1.281.272,1.607,1.607,0,0,0,.921-.255,1.013,1.013,0,0,0,.328-.344h3.124v-.032a3.921,3.921,0,0,0,.678.357,3.628,3.628,0,0,0,1.28.272,1.607,1.607,0,0,0,.924-.255,1.047,1.047,0,0,0,.324-.344h3.512v-8.732l-1.316.346Zm-9.652.589a.612.612,0,0,1-.122.013,2.441,2.441,0,0,1-.8-.181,2.129,2.129,0,0,1-.628-.376,1.621,1.621,0,0,1-.464-1.195,2.135,2.135,0,0,1,.091-.638,1.527,1.527,0,0,1,.909-.983,3.065,3.065,0,0,1,1.012-.218Zm6.332,0a.637.637,0,0,1-.124.013,2.41,2.41,0,0,1-.8-.181,2.1,2.1,0,0,1-.631-.376,1.651,1.651,0,0,1-.462-1.195,2.342,2.342,0,0,1,.091-.638,1.521,1.521,0,0,1,.9-.983,3.13,3.13,0,0,1,1.019-.218Z" transform="translate(-135.835 -10.239)" fill="#a98445"/>
    <path id="Path_13" data-name="Path 13" d="M443.3,200.524v8.393h1.316v-8.739Z" transform="translate(-196.649 -10.239)" fill="#a98445"/>
    <path id="Path_14" data-name="Path 14" d="M201.409,207.567h-1.53v-1.545a12.535,12.535,0,0,0-.171-1.9l-1.3.232s.009.049.026.145a11.385,11.385,0,0,1,.127,1.52v1.545h-1.214v-3.092l-1.321.286v2.808H194.9v-2.713l-1.31.293v2.42h-1.217v.009h-2.113a1.433,1.433,0,0,1,0-2.864,1.341,1.341,0,0,1,1.023.468l.981-.887a2.631,2.631,0,0,0-2-.928,2.744,2.744,0,0,0-2.7,2.773,2.774,2.774,0,0,0,.4,1.437H186.2v-4.24l-.564-.08a3.774,3.774,0,0,0-.588-.039,4.476,4.476,0,0,0-1.781.341,2.9,2.9,0,0,0-.943.665,2.756,2.756,0,0,0-.622,1.181,3.688,3.688,0,0,0-.107.845,2.5,2.5,0,0,0,.857,1.944,3.456,3.456,0,0,0,2.294.721h.128a6.45,6.45,0,0,1-.07.771,1.392,1.392,0,0,1-.2.626.976.976,0,0,1-.447.3,2,2,0,0,1-.666.1,2.423,2.423,0,0,1-1.014-.208l-.588,1.2a3.63,3.63,0,0,0,1.6.348,3.254,3.254,0,0,0,1.1-.178,2.4,2.4,0,0,0,1.019-.7,2.742,2.742,0,0,0,.5-1.285,9.559,9.559,0,0,0,.079-.975h8.092v0h8.44v-8.737l-1.315.346Zm-16.519,0h-.143a2.2,2.2,0,0,1-1.449-.4,1.119,1.119,0,0,1-.383-.914,2.455,2.455,0,0,1,.062-.51,1.422,1.422,0,0,1,.311-.6,1.678,1.678,0,0,1,.821-.464,3.32,3.32,0,0,1,.78-.113Z" transform="translate(-28.372 -10.239)" fill="#a98445"/>
    <path id="Path_15" data-name="Path 15" d="M244.8,208.917h1.313v-8.739l-1.313.346Z" transform="translate(-69.011 -10.239)" fill="#a98445"/>
    <path id="Path_16" data-name="Path 16" d="M305.243,207.567H303.53v.009h-1.637a1.433,1.433,0,0,1,0-2.864,1.347,1.347,0,0,1,1.028.468l.985-.887a2.636,2.636,0,0,0-2.013-.928,2.73,2.73,0,0,0-2.688,2.773,2.805,2.805,0,0,0,.393,1.437h-1.756v-3.658l-1.318.428v3.894a10.089,10.089,0,0,1-.081,1.447,1.307,1.307,0,0,1-.209.626.939.939,0,0,1-.447.3,1.963,1.963,0,0,1-.665.1,2.482,2.482,0,0,1-1.015-.208l-.579,1.2a3.6,3.6,0,0,0,1.595.348,3.227,3.227,0,0,0,1.1-.178,2.337,2.337,0,0,0,1.016-.7,2.616,2.616,0,0,0,.5-1.285,6.9,6.9,0,0,0,.086-.975h7.434v0h1.3v-8.738l-1.318.346Z" transform="translate(-100.344 -10.239)" fill="#a98445"/>
    <path id="Path_17" data-name="Path 17" d="M334.068,208.917h1.308v-8.739l-1.308.346Z" transform="translate(-126.411 -10.239)" fill="#a98445"/>
    <path id="Path_18" data-name="Path 18" d="M169.206,208.941l-.577,1.2h0a4.136,4.136,0,0,1,1.477,1.467,3.953,3.953,0,0,1,.464,1.585H167.6v1.35h4.24l.053-.62a2.588,2.588,0,0,0,.012-.316,5.571,5.571,0,0,0-.665-2.677A5.248,5.248,0,0,0,169.206,208.941Z" transform="translate(-19.371 -15.874)" fill="#a98445"/>
    <path id="Path_19" data-name="Path 19" d="M358.8,202.323a.866.866,0,1,0-.844-.865.857.857,0,0,0,.844.865Z" transform="translate(-141.773 -10.505)" fill="#a98445"/>
    <path id="Path_20" data-name="Path 20" d="M352.747,202.324a.866.866,0,1,0-.852-.865.854.854,0,0,0,.852.865Z" transform="translate(-137.874 -10.506)" fill="#a98445"/>
    <path id="Path_21" data-name="Path 21" d="M267.69,202.324a.866.866,0,1,0-.85-.865.855.855,0,0,0,.85.865Z" transform="translate(-83.183 -10.506)" fill="#a98445"/>
    <path id="Path_22" data-name="Path 22" d="M287.291,227.966a.865.865,0,1,0,.846.862.853.853,0,0,0-.846-.862Z" transform="translate(-95.765 -28.107)" fill="#a98445"/>
    <path id="Path_23" data-name="Path 23" d="M275.972,227.966a.865.865,0,1,0,.85.862.851.851,0,0,0-.85-.862Z" transform="translate(-88.489 -28.107)" fill="#a98445"/>
    <path id="Path_24" data-name="Path 24" d="M270,227.966a.865.865,0,1,0,.84.865.865.865,0,0,0-.84-.865Z" transform="translate(-84.676 -28.107)" fill="#a98445"/>
    <path id="Path_25" data-name="Path 25" d="M157.241,227.966a.865.865,0,1,0,.845.862A.854.854,0,0,0,157.241,227.966Z" transform="translate(-12.141 -28.107)" fill="#a98445"/>
    <path id="Path_26" data-name="Path 26" d="M151.184,227.966a.865.865,0,1,0,.85.862A.865.865,0,0,0,151.184,227.966Z" transform="translate(-8.249 -28.107)" fill="#a98445"/>
    <path id="Path_27" data-name="Path 27" d="M261.636,202.324a.866.866,0,1,0-.849-.865A.857.857,0,0,0,261.636,202.324Z" transform="translate(-79.291 -10.506)" fill="#a98445"/>
    <path id="Path_28" data-name="Path 28" d="M147.575,202.323a.866.866,0,1,0-.847-.865A.866.866,0,0,0,147.575,202.323Z" transform="translate(-5.95 -10.505)" fill="#a98445"/>
    <path id="Path_29" data-name="Path 29" d="M141.516,202.323a.866.866,0,1,0-.845-.865A.857.857,0,0,0,141.516,202.323Z" transform="translate(-2.055 -10.505)" fill="#a98445"/>
    <path id="Path_30" data-name="Path 30" d="M439.615,255.162v17.022h2.631V254.439Z" transform="translate(-194.279 -45.13)" fill="#a98445"/>
    <path id="Path_31" data-name="Path 31" d="M385.433,269.478h-3.352v-7.341l-2.64.811v6.53h-4.714a6.233,6.233,0,0,0-.66-.01v-7.331l-2.634.744v6.6h-.256l-5.238-.032V254.471l-2.578.726v17.026c.941,0,1.073-.022,2.34-.022h21.289c.421,0,1.082-.253,1.082-1.271v-16.49l-2.642.723Z" transform="translate(-145.247 -45.13)" fill="#a98445"/>
    <path id="Path_32" data-name="Path 32" d="M408.377,258.839a1.752,1.752,0,1,0-1.7-1.756,1.723,1.723,0,0,0,1.7,1.756Z" transform="translate(-173.103 -45.706)" fill="#a98445"/>
    <path id="Path_33" data-name="Path 33" d="M385.419,309.278a1.754,1.754,0,1,0,1.695,1.754,1.723,1.723,0,0,0-1.695-1.754Z" transform="translate(-158.266 -80.391)" fill="#a98445"/>
    <path id="Path_34" data-name="Path 34" d="M373.839,309.278a1.754,1.754,0,1,0,1.694,1.754A1.725,1.725,0,0,0,373.839,309.278Z" transform="translate(-150.819 -80.391)" fill="#a98445"/>
    <path id="Path_35" data-name="Path 35" d="M342.167,309.278a1.754,1.754,0,1,0,1.694,1.754A1.725,1.725,0,0,0,342.167,309.278Z" transform="translate(-130.453 -80.391)" fill="#a98445"/>
    <path id="Path_36" data-name="Path 36" d="M328.182,270.934l-2.64.81v6.387h-.487l-3.58-.01.006-7.247V267.83l-1.459.159a13.76,13.76,0,0,0-3.444.936,9.358,9.358,0,0,0-2.713,1.687,6.244,6.244,0,0,0-2.091,4.666,5.17,5.17,0,0,0,1.951,4.108,7.606,7.606,0,0,0,4.841,1.5v-2.724a5.094,5.094,0,0,1-3.22-.914,2.4,2.4,0,0,1-.935-1.966,3.708,3.708,0,0,1,.1-.829,3.554,3.554,0,0,1,1.107-1.8,7.9,7.9,0,0,1,2.991-1.576c.083-.024.164-.047.238-.066v6.615a4.179,4.179,0,0,0,.241,1.38,2.6,2.6,0,0,0,1.389,1.569,3.484,3.484,0,0,0,1.445.286h.315l.328,0h4.9a.477.477,0,0,0,.122-.021h.6Z" transform="translate(-112.076 -53.74)" fill="#a98445"/>
    <path id="Path_37" data-name="Path 37" d="M158.818,269.265a8.857,8.857,0,0,0-3.561.7,5.524,5.524,0,0,0-1.884,1.352,5.381,5.381,0,0,0-1.243,2.392,7.8,7.8,0,0,0-.225,1.914,7.6,7.6,0,0,0,.4,2.463h-2.438l-2.684-.01.006-7.247v-3.043l-1.459.159a13.779,13.779,0,0,0-3.444.936,9.359,9.359,0,0,0-2.713,1.687,6.241,6.241,0,0,0-2.091,4.666,5.17,5.17,0,0,0,1.95,4.108,7.608,7.608,0,0,0,4.841,1.5V278.11a5.094,5.094,0,0,1-3.22-.914,2.4,2.4,0,0,1-.935-1.966,3.71,3.71,0,0,1,.1-.829,3.556,3.556,0,0,1,1.107-1.8,7.9,7.9,0,0,1,2.991-1.577c.083-.024.164-.047.238-.066v6.615a4.17,4.17,0,0,0,.241,1.38,2.6,2.6,0,0,0,1.389,1.571,3.488,3.488,0,0,0,1.445.286h.315l.328,0h12.059c.494,0,.81-.443.81-1.048V269.5L160,269.34A9.127,9.127,0,0,0,158.818,269.265Zm-.317,8.818h-3.266a4.364,4.364,0,0,1-.693-2.461,5.65,5.65,0,0,1,.139-1.244,2.634,2.634,0,0,1,.616-1.2,3.427,3.427,0,0,1,1.638-.941A6.974,6.974,0,0,1,158.5,272Z" transform="translate(-0.002 -53.709)" fill="#a98445"/>
    <path id="Path_38" data-name="Path 38" d="M231.543,269.542h-9v0a2.906,2.906,0,0,1,0-5.8,2.664,2.664,0,0,1,2.049.961l1.978-1.8A5.3,5.3,0,0,0,222.539,261a5.522,5.522,0,0,0-5.4,5.631,5.806,5.806,0,0,0,.777,2.908H213.8a.812.812,0,0,1-.321-.112.128.128,0,0,1-.061-.069.611.611,0,0,1-.044-.25V254.47l-2.632.79v16.123c-.007.6.248.881.9.881h21.5a.972.972,0,0,0,1.042-1.1v-16.7l-2.638.79Z" transform="translate(-47.111 -45.15)" fill="#a98445"/>
    <path id="Path_39" data-name="Path 39" d="M283.446,272.2h2.635V254.343l-2.635.815Z" transform="translate(-93.861 -45.068)" fill="#a98445"/>
    <path id="Path_40" data-name="Path 40" d="M160.03,258.366a1.752,1.752,0,1,0-1.694-1.756A1.725,1.725,0,0,0,160.03,258.366Z" transform="translate(-13.413 -45.401)" fill="#a98445"/>
    <path id="Path_41" data-name="Path 41" d="M147.9,258.367a1.752,1.752,0,1,0-1.7-1.756,1.725,1.725,0,0,0,1.7,1.756Z" transform="translate(-5.611 -45.402)" fill="#a98445"/>
    <path id="Path_42" data-name="Path 42" d="M334.327,258.419a1.752,1.752,0,1,0-1.694-1.756A1.725,1.725,0,0,0,334.327,258.419Z" transform="translate(-125.488 -45.436)" fill="#a98445"/>
    <path id="Path_43" data-name="Path 43" d="M322.2,258.42a1.752,1.752,0,1,0-1.7-1.756,1.725,1.725,0,0,0,1.7,1.756Z" transform="translate(-117.686 -45.437)" fill="#a98445"/>
    <path id="Path_44" data-name="Path 44" d="M275.116,341.292h-.67l-3.027-.028-.026,5.627.86.027.026-2.594,1.86.028.214-.863h-.026v0h-.255l-1.819-.028.026-1.326,2.642.027v-.027l.025.006.194-.839h-.026Zm-3.7,5.572h0v0Zm.026-5.572Zm2.876,2.218h.005l-.034.125Zm-1.933-.026h-.136v0Zm2.728-2.166-.041.149.036-.149Z" transform="translate(-86.111 -100.959)" fill="#a98445"/>
    <path id="Path_45" data-name="Path 45" d="M256.494,340.592a2.982,2.982,0,1,0,2.526,2.948A2.768,2.768,0,0,0,256.494,340.592Zm0,4.95a2.052,2.052,0,1,1,1.6-2A1.842,1.842,0,0,1,256.494,345.542Z" transform="translate(-74.906 -100.527)" fill="#a98445"/>
    <path id="Path_46" data-name="Path 46" d="M209.534,340.592a2.982,2.982,0,1,0,2.525,2.948A2.768,2.768,0,0,0,209.534,340.592Zm0,4.95a2.052,2.052,0,1,1,1.6-2A1.843,1.843,0,0,1,209.534,345.542Z" transform="translate(-44.71 -100.527)" fill="#a98445"/>
    <path id="Path_47" data-name="Path 47" d="M416.315,343.47a1.414,1.414,0,0,0,.663-1.147l-.018-.006h.016a1.516,1.516,0,0,0-.207-.732,2.008,2.008,0,0,0-1.785-.7,7.2,7.2,0,0,0-1.265.124l-.335.062-.021,5.434.385.079a10.348,10.348,0,0,0,1.246.09,3.509,3.509,0,0,0,1.277-.2,1.392,1.392,0,0,0,.9-.973,2.479,2.479,0,0,0,.071-.56v-.036A1.6,1.6,0,0,0,416.315,343.47Zm-2.066-1.663c.181.005.461-.022.737-.022,1.024,0,1.111.4,1.114.537,0,.236-.232.472-.559.631a2.2,2.2,0,0,1-.978.2h-.313Zm2.068,3.484c-.045.159-.122.245-.367.352a2.633,2.633,0,0,1-.923.134H415c-.257,0-.521-.022-.771-.045l.024-1.688v-.021a2.007,2.007,0,0,0,.364.018h.011a3.225,3.225,0,0,1,1.223.2c.352.174.5.307.518.7A1.5,1.5,0,0,1,416.318,345.291Z" transform="translate(-177.4 -100.716)" fill="#a98445"/>
    <path id="Path_48" data-name="Path 48" d="M325.351,342.787v2.254c-.013.3-.221.739-1.065.758h-.036c-.842-.019-1.044-.454-1.063-.76V340.96l-.854-.029c-.028.03-.028.906-.028,1.856v2.254a1.589,1.589,0,0,0,.508,1.15,2.051,2.051,0,0,0,1.437.513h.041a2.047,2.047,0,0,0,1.433-.513,1.582,1.582,0,0,0,.507-1.15V340.96l-.851-.029C325.351,340.961,325.351,341.837,325.351,342.787Z" transform="translate(-118.848 -100.745)" fill="#a98445"/>
    <path id="Path_49" data-name="Path 49" d="M384.183,344.175a2.548,2.548,0,0,0,1.371-1.926,1.491,1.491,0,0,0-.852-1.29,3.731,3.731,0,0,0-1.785-.4,4.224,4.224,0,0,0-.569.036l-.169.007-.389.03.012,5.557.857.019v-.054h0v-.157l0-4.556h0a.9.9,0,0,0,.262.02,2.863,2.863,0,0,1,1.359.286c.308.178.39.337.393.5a.134.134,0,0,0,0,.024c0,.239-.316.8-1.362,1.4l-.409.238-.026.015.3.409.022-.016-.014.022a7.491,7.491,0,0,0,2.313,2.121l.338-.792a5.255,5.255,0,0,1-1.27-1.057C384.417,344.452,384.286,344.3,384.183,344.175Zm-2.356,1.983v0Zm3.651.267h0l-.016-.009.018.01Z" transform="translate(-157.098 -100.503)" fill="#a98445"/>
    <path id="Path_50" data-name="Path 50" d="M153.765,346.89h.026v.026h.832l.025-5.626-.857-.029Zm.831,0Z" transform="translate(-10.475 -100.957)" fill="#a98445"/>
    <path id="Path_51" data-name="Path 51" d="M295.011,343.106a2.738,2.738,0,0,0-1.291-.624c-.94-.258-1.065-.6-1.071-.813a.069.069,0,0,1,0-.011.742.742,0,0,1,.27-.509,1.035,1.035,0,0,1,.678-.269c.015,0,.045.005.077.008a1.352,1.352,0,0,1,.773.269,1.085,1.085,0,0,1,.136.133.1.1,0,0,0,.027.036l.1-.042.669-.345-.012-.05h0a1.87,1.87,0,0,0-1.619-.9,1.1,1.1,0,0,0-.147-.006,1.806,1.806,0,0,0-1.828,1.684c0,.764.628,1.42,1.742,1.683a2.022,2.022,0,0,1,.89.4.527.527,0,0,1,.149.431v.027a1.945,1.945,0,0,1-.014.218,1.185,1.185,0,0,1-1.2.769h-.024a2.106,2.106,0,0,1-1.054-.3l-.457.766.022.014a2.978,2.978,0,0,0,1.488.42,2.032,2.032,0,0,0,2.106-1.553,2.974,2.974,0,0,0,.026-.361.1.1,0,0,1,0-.026,1.438,1.438,0,0,0-.428-1.046Z" transform="translate(-99.213 -100.136)" fill="#a98445"/>
    <path id="Path_52" data-name="Path 52" d="M352.449,346.95h.026v.026h.833l.027-5.6-.86-.026Zm.052-5.569h0Z" transform="translate(-138.231 -101.017)" fill="#a98445"/>
    <path id="Path_53" data-name="Path 53" d="M427.539,341.379h0v.075l-.029,5.492h.029v.025h.834l.025-5.594-.859-.027Z" transform="translate(-186.496 -101.014)" fill="#a98445"/>
    <path id="Path_54" data-name="Path 54" d="M177.5,341.309a.44.44,0,0,1,.071,0,1.333,1.333,0,0,1,.861.33,1.544,1.544,0,0,1,.212.211c.036.059.048.075.048.075l.777-.428-.012-.021a2.262,2.262,0,0,0-1.856-1.062h-.141a2.578,2.578,0,0,0-1.819.7,3,3,0,0,0-.828,2.244v.012a.351.351,0,0,0,0,.053c0,1.969,1.142,2.738,1.779,2.86h0a3.44,3.44,0,0,0,.8.092,4.446,4.446,0,0,0,1.632-.321l.255-.11.017-2.942-2.038-.028-.028.873,1.209.027-.027,1.462c-.017-.012-.055,0-.1.005a3.5,3.5,0,0,1-.925.129,2.593,2.593,0,0,1-.6-.067c-.321-.107-1.06-.363-1.087-2.041a2.1,2.1,0,0,1,.548-1.6A1.8,1.8,0,0,1,177.5,341.309Z" transform="translate(-24.003 -100.415)" fill="#a98445"/>
    <path id="Path_55" data-name="Path 55" d="M308.683,341.173a1.086,1.086,0,0,0-.869-.462h-.059a1.088,1.088,0,0,0-.885.464,2.593,2.593,0,0,0-.344.857c-.156.6-1.205,4.262-1.207,4.284l.819.25c.03-.027.264-.847.529-1.769l2.246.018c.239.9.473,1.724.475,1.727h.025l.007.024.794-.223c.018-.047-1.035-3.713-1.186-4.309a2.619,2.619,0,0,0-.346-.861Zm-3.33,5.114h0l.006-.016Zm.764.25-.179-.059.182.051Zm2.158-2.579-1.366-.026c.214-.756.408-1.444.469-1.682a1.893,1.893,0,0,1,.211-.573c.079-.079.045-.069.186-.084h.023c.123.014.089.005.168.085a1.948,1.948,0,0,1,.208.571c.062.241.261.941.48,1.708Zm.4,0-.041-.166.047.166Z" transform="translate(-107.925 -100.604)" fill="#a98445"/>
    <path id="Path_56" data-name="Path 56" d="M368.167,341.173a1.086,1.086,0,0,0-.869-.462h-.059a1.088,1.088,0,0,0-.885.464,2.587,2.587,0,0,0-.344.857c-.156.6-1.205,4.262-1.207,4.284l.819.25c.03-.027.264-.847.529-1.769l2.246.018c.239.9.473,1.724.475,1.727h.025l.007.024.794-.223c.018-.047-1.035-3.713-1.186-4.309A2.626,2.626,0,0,0,368.167,341.173Zm-3.33,5.114h0l.006-.015Zm.764.25-.179-.059.182.051Zm2.158-2.579-1.366-.026c.214-.756.408-1.444.469-1.682a1.893,1.893,0,0,1,.211-.573c.079-.079.045-.069.186-.084h.023c.123.014.09.005.168.085a1.948,1.948,0,0,1,.209.571c.062.241.261.941.48,1.708Zm.4,0-.041-.166.047.166Z" transform="translate(-146.174 -100.604)" fill="#a98445"/>
    <path id="Path_57" data-name="Path 57" d="M399.74,341.173a1.086,1.086,0,0,0-.869-.462h-.059a1.089,1.089,0,0,0-.886.464,2.586,2.586,0,0,0-.344.857c-.156.6-1.205,4.262-1.207,4.284l.819.25c.03-.027.264-.847.53-1.769l2.246.018c.24.9.474,1.724.476,1.727h.025l.007.024.794-.223c.017-.047-1.035-3.713-1.186-4.309a2.619,2.619,0,0,0-.346-.861Zm-3.33,5.114h0l.006-.015Zm.764.25-.178-.059.182.051Zm2.158-2.579-1.366-.026c.214-.756.408-1.444.469-1.682a1.882,1.882,0,0,1,.211-.573c.078-.079.044-.069.186-.084h.022c.123.014.089.005.168.085a1.937,1.937,0,0,1,.208.571c.062.241.261.941.48,1.708Zm.4,0c-.014-.056-.027-.111-.041-.166l.048.166Z" transform="translate(-166.475 -100.604)" fill="#a98445"/>
    <path id="Path_58" data-name="Path 58" d="M436.983,342.032a2.612,2.612,0,0,0-.346-.857,1.085,1.085,0,0,0-.869-.462h-.057a1.089,1.089,0,0,0-.886.464,2.586,2.586,0,0,0-.344.857c-.156.6-1.205,4.262-1.207,4.284l.819.25c.03-.027.264-.847.529-1.769l2.246.018c.24.9.474,1.724.476,1.727h.025l.008.024.794-.223C438.186,346.293,437.133,342.628,436.983,342.032Zm-3.677,4.257h0l.006-.015Zm.764.25-.178-.059.182.051Zm2.158-2.579-1.366-.026c.214-.757.408-1.444.469-1.682a1.891,1.891,0,0,1,.211-.573c.078-.079.044-.069.186-.084h.022c.123.013.09.005.168.085a1.937,1.937,0,0,1,.208.571c.062.241.261.941.481,1.708Zm.4,0-.041-.166.048.166Z" transform="translate(-190.202 -100.605)" fill="#a98445"/>
    <path id="Path_59" data-name="Path 59" d="M230.469,341.309l-2.527,4.331-2.527-4.331-.956-.009-.027,5.614h.034l.827.026v-.026h0v-.057l.026-3.91c0-.058.023-.066.05-.069a.1.1,0,0,1,.063.03c.107.16.548.933.89,1.481s.589,1.092,1.128,2.09c.075.14.156.288.243.447l.248,0,.247,0c.087-.159.168-.307.243-.447.539-1,.8-1.546,1.128-2.09s.782-1.321.89-1.481a.1.1,0,0,1,.063-.03c.027,0,.046.011.05.069l.026,3.91v.057h0v.026l.827-.026h.034l-.026-5.614Z" transform="translate(-55.914 -100.982)" fill="#a98445"/>
    <path id="Path_60" data-name="Path 60" d="M162.945,341.327h-.026v3.949c0,.038-.009.059-.014.059a.035.035,0,0,1-.016,0c-.025,0-.059-.028-.075-.047a27.989,27.989,0,0,0-2.32-3.982l-.956-.009-.026,5.614h.034l.827.026v-.026h0v-.057l.027-3.909c0-.058.022-.066.05-.069a.1.1,0,0,1,.064.03c.107.16.548.933.89,1.481.378.62.66,1.244,1.372,2.537l1.007.014.025-5.614-.861-.027Zm-3.406,5.561h0v0Zm.026-5.56Z" transform="translate(-14.169 -100.982)" fill="#a98445"/>
    <path id="Path_61" data-name="Path 61" d="M138.341,346.032l0-4.411h0v-1.015c-.1.005-.2,0-.3.019l-.169.008-.389.03.012,5.557.857.019v-.054h0Z" transform="translate(0 -100.535)" fill="#a98445"/>
    <path id="Path_62" data-name="Path 62" d="M141.971,343.959c.132-.727,1.664-1.823,1.664-1.823l-.412-.988c-1.214.4-2.706,2.645-2.706,2.645l.363.492.01.008a9.016,9.016,0,0,0,2.782,2.551l.406-.954a6.3,6.3,0,0,1-1.528-1.271C142.376,344.425,142.1,344.115,141.971,343.959Z" transform="translate(-1.955 -100.885)" fill="#a98445"/>
    <path id="Path_63" data-name="Path 63" d="M193,340.827c-.116-.01-.225-.015-.333-.015a14.11,14.11,0,0,0-1.406.136l-.1.025-.03,5.357-.006.065a2.96,2.96,0,0,0,.77.165,9.125,9.125,0,0,0,.961.067h.073a2.911,2.911,0,0,0,.066-5.8Zm1.689,2.87a1.951,1.951,0,0,1-1.776,1.977h-.052c-.214,0-.554-.029-.848-.063l-.011,0,.036-3.818c.222,0,.438-.028.63-.028.081,0,.159.006.233.012a1.924,1.924,0,0,1,1.789,1.917Z" transform="translate(-34.501 -100.669)" fill="#a98445"/>
    <path id="Path_64" data-name="Path 64" d="M338.443,340.827c-.116-.01-.224-.015-.333-.015-.464,0-.891.082-1.406.136l-.095.025-.03,5.357-.006.065a2.958,2.958,0,0,0,.77.165,9.126,9.126,0,0,0,.961.067h.073a2.911,2.911,0,0,0,.066-5.8Zm1.689,2.87a1.952,1.952,0,0,1-1.777,1.977H338.3c-.216,0-.554-.029-.848-.063l-.011,0,.036-3.818c.222,0,.438-.028.63-.028.081,0,.159.006.234.012a1.923,1.923,0,0,1,1.788,1.917Z" transform="translate(-128.022 -100.669)" fill="#a98445"/>
    <path id="Path_65" data-name="Path 65" d="M194.4,383.61h-2.554l.026-4.731-.823-.026-.025,5.624,3.208.027.192-.86-.024-.005Zm-3.35.84h0v0Zm.025-5.569Z" transform="translate(-34.434 -125.129)" fill="#a98445"/>
    <path id="Path_66" data-name="Path 66" d="M175.691,381.139a1.423,1.423,0,0,0,.635-1.146v0a1.586,1.586,0,0,0-.2-.733,1.873,1.873,0,0,0-1.707-.7,6.478,6.478,0,0,0-1.21.124l-.319.06-.021,5.433.37.076a9.46,9.46,0,0,0,1.191.091,3.21,3.21,0,0,0,1.222-.2,1.371,1.371,0,0,0,.864-.972,2.56,2.56,0,0,0,.066-.561v-.033A1.6,1.6,0,0,0,175.691,381.139Zm-1.977-1.636a6.355,6.355,0,0,1,.7-.046h0c.98,0,1.063.4,1.065.535,0,.234-.221.468-.535.63a1.3,1.3,0,0,1-.214.09,1.787,1.787,0,0,1-.206.054,3.385,3.385,0,0,1-.514.056h-.325Zm2.013,3.269a.3.3,0,0,1-.005.03c-.007.05-.015.1-.028.159h0c-.045.158-.117.244-.352.35a1.205,1.205,0,0,1-.187.062,2.938,2.938,0,0,1-.7.071h-.03c-.245,0-.5-.022-.739-.045l.024-1.687v-.022c.03.005.061.006.091.009.071.007.149.009.258.009h.01c.08,0,.168,0,.258.008a2.607,2.607,0,0,1,.912.195.843.843,0,0,1,.411.354.515.515,0,0,1,.047.1v.01a1.037,1.037,0,0,1,.036.242A1.256,1.256,0,0,1,175.727,382.772Z" transform="translate(-22.759 -124.94)" fill="#a98445"/>
    <path id="Path_67" data-name="Path 67" d="M157.5,380.723v2.253c-.012.3-.211.739-1.019.757h-.036c-.805-.018-1-.453-1.017-.759V378.9l-.819-.026c-.025.03-.025.9-.025,1.853v2.253a1.631,1.631,0,0,0,.486,1.15,1.923,1.923,0,0,0,1.375.512h.04a1.919,1.919,0,0,0,1.371-.512,1.617,1.617,0,0,0,.485-1.15V378.9l-.817-.026C157.5,378.9,157.5,379.773,157.5,380.723Z" transform="translate(-11 -125.14)" fill="#a98445"/>
    <path id="Path_68" data-name="Path 68" d="M208.309,384.45h.025v.026h.8l.024-5.592-.823-.026Zm.824-5.539h0v0Z" transform="translate(-45.547 -125.133)" fill="#a98445"/>
    <path id="Path_69" data-name="Path 69" d="M138.328,378.665h-.087l-.36.018-.375.02-.024,5.689h.025v.027h.8v-.027h0v-.242l.008-1.44c.024,0,.047-.009.071-.011a2.872,2.872,0,0,0,.339-.052,2.484,2.484,0,0,0,2.093-2.012A2.249,2.249,0,0,0,138.328,378.665Zm1.64,1.978a1.8,1.8,0,0,1-1.649,1.124l.011-2.231v.026a1.992,1.992,0,0,1,1.246.38.928.928,0,0,1,.393.694c0-.005,0,0,0,0Z" transform="translate(-0.004 -125.008)" fill="#a98445"/>
    <path id="Path_70" data-name="Path 70" d="M221,379.441a1.472,1.472,0,0,1,1,.4l.016-.02h0l.019-.024.555-.667-.021-.016a2.338,2.338,0,0,0-1.556-.616h-.014a2.974,2.974,0,0,0,0,5.888h0a2.349,2.349,0,0,0,1.527-.585l.018-.018-.54-.71a1.681,1.681,0,0,1-1.007.368,2.032,2.032,0,0,1,0-4Zm1,3.668.008.011-.008-.011Z" transform="translate(-52.063 -124.9)" fill="#a98445"/>
    <path id="Path_71" data-name="Path 71" d="M370.308,382.742c-.016.307-.214.743-1.018.761h-.036c-.8-.018-1-.454-1.015-.762v-4.113l-.821-.026c-.026.03-.026,3.581-.026,4.141a1.616,1.616,0,0,0,.486,1.148,1.931,1.931,0,0,0,1.372.509h.047a1.94,1.94,0,0,0,1.371-.509,1.623,1.623,0,0,0,.487-1.148v-4.115l-.819-.026C370.308,378.632,370.308,382.183,370.308,382.742Z" transform="translate(-147.84 -124.968)" fill="#a98445"/>
    <path id="Path_72" data-name="Path 72" d="M276.3,382.636c-.137-.153-.258-.306-.363-.432a2.552,2.552,0,0,0,1.315-1.925l-.017-.005h.017a1.508,1.508,0,0,0-.814-1.285,3.42,3.42,0,0,0-1.71-.4,4.657,4.657,0,0,0-.543.026l-.164.015-.373.027.01,5.556.821.021v-.026h0v0l0-4.736h0a1.119,1.119,0,0,0,.25.018,2.577,2.577,0,0,1,1.3.288c.295.181.377.34.379.5a.075.075,0,0,0,0,.022c0,.24-.306.8-1.308,1.408l-.393.237-.025.013.29.406.02-.015-.013.022a6.956,6.956,0,0,0,2.154,2.071l.393-.768-.026-.01A4.2,4.2,0,0,1,276.3,382.636Zm-2.615,1.552Z" transform="translate(-87.56 -124.96)" fill="#a98445"/>
    <path id="Path_73" data-name="Path 73" d="M257.387,378.531H257.3l-.357.018-.377.02-.025,5.69h.025v.027h.8v-.027h0v-.071l.008-1.611c.024,0,.046-.009.071-.011a2.9,2.9,0,0,0,.339-.051,2.489,2.489,0,0,0,2.1-2.011A2.258,2.258,0,0,0,257.387,378.531Zm1.642,1.979a1.8,1.8,0,0,1-1.651,1.124l.012-2.232v.024a2.008,2.008,0,0,1,1.245.382.923.923,0,0,1,.393.7c-.008,0,0,.006,0,.006Z" transform="translate(-76.56 -124.922)" fill="#a98445"/>
    <path id="Path_74" data-name="Path 74" d="M294.678,378.266a3,3,0,1,0,2.415,2.946A2.725,2.725,0,0,0,294.678,378.266Zm0,4.945a2.072,2.072,0,0,1,0-4h0a2.073,2.073,0,0,1,0,4Z" transform="translate(-99.529 -124.752)" fill="#a98445"/>
    <path id="Path_75" data-name="Path 75" d="M350.583,379.408a1.473,1.473,0,0,1,1,.4l.588-.712-.018-.017a2.341,2.341,0,0,0-1.558-.614h-.014a2.974,2.974,0,0,0,.005,5.888h0a2.343,2.343,0,0,0,1.526-.583l.02-.018-.54-.712a1.671,1.671,0,0,1-1.008.368,2.034,2.034,0,0,1,0-4Zm1,3.669,0,.005,0,0Z" transform="translate(-135.387 -124.88)" fill="#a98445"/>
    <path id="Path_76" data-name="Path 76" d="M315.429,380.484c-.894-.255-1.021-.6-1.029-.814a.792.792,0,0,1,.256-.519,1,1,0,0,1,.655-.263h.071a1.244,1.244,0,0,1,.74.274.6.6,0,0,1,.131.13c.012.02.012.02.016.021v.048l.107-.071.636-.345a1.744,1.744,0,0,0-1.566-.95.833.833,0,0,0-.136-.007,1.76,1.76,0,0,0-1.749,1.683c0,.761.6,1.421,1.666,1.683a1.779,1.779,0,0,1,.854.4.52.52,0,0,1,.143.426v.026c0,.063-.007.135-.016.224a1.135,1.135,0,0,1-1.15.766h-.026a1.949,1.949,0,0,1-1-.3l-.442.765.021.015a2.718,2.718,0,0,0,1.424.422,1.953,1.953,0,0,0,2.014-1.554,2.8,2.8,0,0,0,.025-.363.113.113,0,0,1,0-.027,1.49,1.49,0,0,0-.4-1.045A2.63,2.63,0,0,0,315.429,380.484Z" transform="translate(-113.225 -124.571)" fill="#a98445"/>
    <path id="Path_77" data-name="Path 77" d="M416.6,378.269a3,3,0,1,0,2.417,2.945A2.725,2.725,0,0,0,416.6,378.269Zm0,4.944a2.072,2.072,0,1,1,1.528-2A1.82,1.82,0,0,1,416.6,383.213Z" transform="translate(-177.923 -124.754)" fill="#a98445"/>
    <path id="Path_78" data-name="Path 78" d="M389.445,378.677v-.027H385.71l-.026.872,1.522.026-.025,4.707.818.026.026-4.759,1.42.026.026-.869h-.026Z" transform="translate(-159.601 -124.999)" fill="#a98445"/>
    <path id="Path_79" data-name="Path 79" d="M404.049,384.263h.025v.028h.8l.026-5.6-.821-.026Z" transform="translate(-171.41 -125.008)" fill="#a98445"/>
    <path id="Path_80" data-name="Path 80" d="M332.484,379.38h1.7l.221-.829a2.886,2.886,0,0,0-.619-.036c-.192,0-.591-.005-.944-.005-.178,0-.341,0-.462.005a1.291,1.291,0,0,0-.785.175,1.22,1.22,0,0,0-.437,1.008c-.007.082-.007,1.056-.007,1.642s0,1.555.008,1.642a1.2,1.2,0,0,0,.437,1,1.229,1.229,0,0,0,.785.178l.626,0,1.176,0,.221-.852a.062.062,0,0,0-.025-.006h-.006c-.23-.026-1.734-.026-1.892-.026-.443,0-.462-.315-.464-.582v-.934l1.525,0,.025-.031.2-.811h-.025v-.006h-.3L332,380.887h-.011c.023-.025.023-.655.023-.907C332.022,379.711,332.043,379.382,332.484,379.38Zm1.892-.809h.006l-.043.151Zm0,4.76h.006l-.042.153Zm-.643-2.392h.006l-.042.147Zm-1.742.8v-.012h0a.064.064,0,0,0,0,.013Z" transform="translate(-124.536 -124.908)" fill="#a98445"/>
    <path id="Path_81" data-name="Path 81" d="M438.775,378.736v.026h-.025v3.911a.185.185,0,0,1-.016.1h-.015c-.026,0-.057-.03-.071-.049a28.407,28.407,0,0,0-2.222-3.977l-.914-.008-.026,5.613.821.027v-.027h0V384.3l.025-3.924c0-.06.02-.067.045-.068a.08.08,0,0,1,.063.032c.107.159.528.928.851,1.474.366.626.636,1.244,1.316,2.544l.96.015.025-5.614Zm-3.241.028Z" transform="translate(-191.624 -125.054)" fill="#a98445"/>
  </g>
</svg>
