<svg width="48" height="57" viewBox="0 0 48 57" fill="none" xmlns="http://www.w3.org/2000/svg">
<path d="M23.9214 47.9293C18.8145 47.0387 13.6319 44.4531 9.32825 40.6486C4.67193 36.5326 1.56121 31.4853 0.331982 26.0527L0 24.5853L1.37903 23.912C6.28775 21.5149 8.52892 17.0869 8.0409 10.7516L7.95039 9.57941L23.9428 0L40.2806 9.55661L40.1549 10.774C39.8425 13.7996 40.3418 16.6055 41.5983 18.8887C42.7445 20.9697 44.4383 22.4963 46.4981 23.3041L48 23.893L47.7066 25.444C46.7006 30.7676 43.7705 35.8118 39.2335 40.0316C35.0648 43.9094 29.9134 46.7063 24.7293 47.9069L24.3279 48" fill="#B79B3D"/>
<path d="M23.955 2.25845L10.0172 10.6076C10.5099 17.0071 8.43571 22.6248 2.26733 25.637C4.68015 36.3005 14.901 44.3954 24.271 46.0292C33.8415 43.8129 43.7892 35.5082 45.7581 25.0945C40.8486 23.1689 37.4437 17.7412 38.1834 10.581" fill="white"/>
<path fill-rule="evenodd" clip-rule="evenodd" d="M23.9053 9.0642C23.8661 9.10123 23.8341 9.11723 23.8341 9.09961C23.8341 9.08207 23.7831 9.11293 23.7209 9.16831C23.6586 9.22369 23.6076 9.25414 23.6076 9.23604C23.6076 9.21793 23.5056 9.27242 23.3811 9.35711C23.2564 9.44181 23.1422 9.51116 23.1271 9.51116C23.1121 9.51116 23.0393 9.55932 22.9652 9.61828C22.8912 9.67715 22.8061 9.72539 22.7762 9.72539C22.7462 9.72539 22.6928 9.76323 22.6576 9.80952C22.6224 9.85581 22.5364 9.9055 22.4664 9.92004C22.3965 9.93458 22.3394 9.96422 22.3394 9.9859C22.3394 10.0076 22.3104 10.0254 22.2752 10.0254C22.2399 10.0254 22.2042 10.04 22.1959 10.0579C22.1876 10.0758 21.8241 10.3014 21.3882 10.5591C20.3344 11.182 19.9985 11.3841 19.7727 11.531C19.6691 11.5986 19.562 11.6538 19.535 11.6538C19.5079 11.6538 19.4857 11.6709 19.4857 11.6916C19.4857 11.7124 19.4501 11.7409 19.4065 11.7547C19.3294 11.7792 19.1692 11.8676 19.1234 11.9109C19.0906 11.9418 18.9309 12.0351 18.8516 12.0695C18.7662 12.1065 18.6478 12.216 18.6478 12.2578C18.6478 12.2752 18.6292 12.3055 18.6065 12.3251C18.5822 12.3462 18.5799 12.337 18.6008 12.3027C18.6513 12.2203 18.4565 12.2823 18.3386 12.386C18.2893 12.4295 18.2317 12.4549 18.2106 12.4426C18.1894 12.4302 18.1722 12.4417 18.1722 12.468C18.1722 12.4944 18.1517 12.5039 18.1265 12.4893C18.1015 12.4746 18.0687 12.4926 18.0539 12.5293C18.039 12.566 18.0084 12.5853 17.9859 12.5722C17.9634 12.559 17.9329 12.5783 17.9179 12.6151C17.9031 12.6518 17.8726 12.6711 17.8504 12.6581C17.8281 12.645 17.8098 12.6548 17.8098 12.6798C17.8098 12.7047 17.7792 12.7251 17.7419 12.7251C17.7045 12.7251 17.6739 12.7455 17.6739 12.7705C17.6739 12.7955 17.6567 12.8058 17.6355 12.7934C17.6143 12.781 17.5554 12.8077 17.5044 12.8526C17.4535 12.8975 17.3999 12.923 17.3854 12.9093C17.3708 12.8955 17.3462 12.9158 17.3305 12.9544C17.3149 12.993 17.2869 13.0157 17.2683 13.0049C17.2498 12.994 17.1917 13.0231 17.1392 13.0694C17.0865 13.1158 17.0223 13.1536 16.9964 13.1536C16.9704 13.1536 16.9492 13.1741 16.9492 13.199C16.9492 13.224 16.9288 13.2325 16.9039 13.2179C16.879 13.2034 16.8586 13.2118 16.8586 13.2369C16.8586 13.2618 16.828 13.2822 16.7907 13.2822C16.7532 13.2822 16.7227 13.3015 16.7227 13.325C16.7227 13.3487 16.6972 13.3679 16.666 13.3679C16.6349 13.3679 16.438 13.474 16.2285 13.6036C16.0191 13.7333 15.8395 13.8393 15.8292 13.8393C15.8191 13.8393 15.7439 13.8875 15.6623 13.9464C15.5807 14.0054 15.4903 14.0535 15.4615 14.0535C15.4327 14.0535 15.4092 14.0698 15.4092 14.0897C15.4092 14.1095 15.3333 14.1625 15.2405 14.2075C15.1478 14.2525 15.031 14.3237 14.981 14.366C14.931 14.4081 14.8438 14.4536 14.7872 14.467C14.7307 14.4804 14.6845 14.5085 14.6845 14.5296C14.6845 14.5506 14.6538 14.5678 14.6165 14.5678C14.5791 14.5678 14.5485 14.5882 14.5485 14.6132C14.5485 14.6382 14.5299 14.6477 14.5071 14.6343C14.4843 14.621 14.4589 14.6291 14.4505 14.6522C14.4421 14.6753 14.2416 14.8069 14.005 14.9446L13.5747 15.1949L13.5465 16.3705C13.4847 18.9345 12.8966 21.1727 11.8953 22.6536C11.8106 22.7788 11.7552 22.8813 11.7721 22.8813C11.789 22.8813 11.7632 22.9096 11.7149 22.9442C11.6665 22.9788 11.6413 23.0078 11.6588 23.0085C11.6763 23.0093 11.6406 23.0609 11.5796 23.1233C11.5184 23.1857 11.4685 23.2582 11.4685 23.2844C11.4685 23.3106 11.4269 23.3567 11.3761 23.3866C11.3253 23.4167 11.295 23.4584 11.3087 23.4794C11.3224 23.5004 11.2723 23.559 11.1973 23.6095C11.1221 23.66 11.0608 23.7256 11.0608 23.7552C11.0608 23.7849 11.0107 23.8537 10.9495 23.908C10.8884 23.9624 10.8425 24.0275 10.8476 24.0528C10.8528 24.078 10.8264 24.0996 10.789 24.1007C10.7517 24.1018 10.721 24.1251 10.721 24.1527C10.721 24.1801 10.7025 24.2187 10.6798 24.2383C10.6561 24.2589 10.6516 24.2526 10.6693 24.2235C10.7409 24.1052 10.6057 24.1355 10.4914 24.2632C10.4229 24.3399 10.3491 24.3976 10.3275 24.3915C10.3059 24.3854 10.2764 24.4095 10.262 24.4451C10.2476 24.4807 10.2123 24.5097 10.1835 24.5097C10.1548 24.5097 10.0805 24.5542 10.0186 24.6086C9.95651 24.6631 9.88535 24.7111 9.86046 24.7154C9.83557 24.7198 9.78458 24.7481 9.74725 24.7784C9.70982 24.8087 9.66235 24.8353 9.64158 24.8376C9.6209 24.84 9.51901 24.8946 9.41515 24.9589C9.31129 25.0232 9.19241 25.0821 9.15095 25.0896C9.10949 25.0972 8.93628 25.1607 8.76598 25.2307C8.59569 25.3007 8.34934 25.3934 8.21853 25.4368C7.9351 25.5306 7.9406 25.4557 8.15879 26.2453C8.49663 27.4684 9.18099 29.0105 9.90827 30.1878C9.99565 30.3292 10.0872 30.4835 10.1117 30.5307C10.1362 30.5778 10.1969 30.6741 10.2467 30.7449C10.2964 30.8156 10.3495 30.9072 10.3645 30.9485C10.3796 30.9897 10.4066 31.0234 10.4247 31.0234C10.4427 31.0234 10.4963 31.1005 10.544 31.1947C10.5915 31.2889 10.6537 31.3578 10.682 31.3479C10.7135 31.3368 10.7246 31.3618 10.7107 31.4123C10.6981 31.4577 10.7107 31.4948 10.7385 31.4948C10.7663 31.4948 10.789 31.5237 10.789 31.5591C10.789 31.5945 10.8094 31.6234 10.8343 31.6234C10.8592 31.6234 10.8796 31.6523 10.8796 31.6877C10.8796 31.723 10.9 31.7519 10.9249 31.7519C10.9498 31.7519 10.9702 31.7829 10.9702 31.8208C10.9702 31.8629 10.9954 31.8806 11.035 31.8661C11.0803 31.8497 11.0948 31.8676 11.0829 31.9258C11.0736 31.9716 11.0828 32.009 11.1034 32.009C11.1239 32.009 11.1522 32.0501 11.166 32.1003C11.1839 32.165 11.2137 32.1835 11.2683 32.1636C11.3287 32.1417 11.3346 32.148 11.2952 32.1929C11.2567 32.2367 11.2754 32.2817 11.3744 32.3843C11.4456 32.458 11.493 32.5287 11.4796 32.5413C11.4663 32.5538 11.489 32.5763 11.5299 32.5912C11.5708 32.6061 11.6044 32.6449 11.6044 32.6775C11.6044 32.7102 11.6451 32.7609 11.6949 32.7904C11.7448 32.8198 11.7855 32.8599 11.7855 32.8794C11.7855 33.0475 14.2576 35.5657 14.3625 35.5045C14.3844 35.4917 14.4302 35.5135 14.4641 35.5531C14.5066 35.6027 14.5082 35.6152 14.4693 35.593C14.3737 35.5387 14.4065 35.6312 14.5179 35.7302C14.6329 35.8324 14.7171 35.8082 14.6288 35.6984C14.5986 35.6609 14.6288 35.6763 14.6957 35.7328C14.7627 35.7893 14.8069 35.8518 14.7938 35.8717C14.7702 35.9079 14.839 35.9761 15.1676 36.242C15.2631 36.3193 15.4432 36.4683 15.5677 36.5732C15.6922 36.6781 15.8079 36.7643 15.8249 36.7648C15.8418 36.7653 15.8825 36.7907 15.9155 36.8213C16.1591 37.0471 17.5159 37.9437 18.3307 38.4172C18.53 38.5331 18.72 38.6524 18.7529 38.6824C18.7858 38.7125 18.8402 38.737 18.8737 38.737C18.9072 38.737 18.9414 38.7524 18.9498 38.7712C18.958 38.79 19.1479 38.8895 19.3715 38.9923C19.5952 39.0951 19.8592 39.2347 19.9581 39.3024C20.057 39.3703 20.2253 39.4466 20.3322 39.472C20.439 39.4974 20.514 39.5372 20.4988 39.5604C20.4837 39.5837 20.517 39.5795 20.5728 39.5512C20.6539 39.5102 20.6672 39.5107 20.6388 39.5542C20.6134 39.5931 20.6254 39.6006 20.681 39.5804C20.7237 39.5649 20.7481 39.5685 20.7351 39.5883C20.7087 39.6288 20.7202 39.6343 21.5693 39.9855C21.9056 40.1245 22.2419 40.2651 22.3167 40.2978C22.4561 40.3589 22.9343 40.5288 23.8114 40.8293L24.3097 41L24.808 40.8381C25.4188 40.6397 25.923 40.4594 26.3706 40.2794C26.835 40.0927 27.8026 39.6833 27.9457 39.6131C28.01 39.5815 28.0795 39.5654 28.0999 39.5773C28.1204 39.5894 28.1372 39.5776 28.1372 39.5512C28.1372 39.5249 28.1575 39.5152 28.1825 39.5298C28.2074 39.5444 28.2277 39.5347 28.2277 39.5084C28.2277 39.482 28.2481 39.4724 28.273 39.4869C28.2979 39.5015 28.3184 39.4974 28.3184 39.4779C28.3184 39.4136 28.7097 39.2367 28.7717 39.2729C28.8105 39.2956 28.8196 39.2905 28.7983 39.2579C28.7805 39.2307 28.7875 39.206 28.8139 39.2031C28.9089 39.1924 28.9315 39.1837 29.0431 39.1146C29.1053 39.076 29.2614 38.9897 29.3899 38.9229C30.089 38.5591 31.9659 37.3895 32.0732 37.2508C32.0882 37.2314 32.1871 37.1599 32.293 37.0919C32.3989 37.024 32.4855 36.9517 32.4855 36.9314C32.4855 36.911 32.5124 36.8943 32.5453 36.8943C32.5782 36.8943 32.6498 36.8509 32.7045 36.7979C32.7592 36.7448 32.8763 36.6437 32.9646 36.5729C33.053 36.5022 33.1883 36.3824 33.2653 36.3066C33.3423 36.2308 33.4175 36.1741 33.4323 36.1806C33.4472 36.187 33.5611 36.0851 33.6855 35.9541C33.8099 35.8231 33.8507 35.7641 33.7761 35.823L33.6405 35.9301L33.7412 35.8215C33.7966 35.7618 33.8878 35.7096 33.944 35.7056C34.0404 35.6987 34.1903 35.5614 35.0372 34.7049C35.4728 34.2645 36.0185 33.6627 36.0185 33.623C36.0185 33.61 36.0897 33.526 36.1769 33.4363C36.2639 33.3466 36.3352 33.2598 36.3354 33.2433C36.3355 33.2268 36.3866 33.1614 36.4489 33.0978C36.5111 33.0342 36.5621 32.9581 36.5621 32.9288C36.5621 32.8994 36.5927 32.8642 36.63 32.8507C36.6674 32.8371 36.698 32.7985 36.698 32.7649C36.698 32.7314 36.7298 32.6923 36.7688 32.6782C36.8078 32.664 36.8283 32.635 36.8144 32.6138C36.8005 32.5925 36.8208 32.5636 36.8596 32.5495C36.8984 32.5354 36.9175 32.5044 36.9018 32.4804C36.8862 32.4566 36.9053 32.4255 36.9442 32.4112C36.9832 32.3971 37.015 32.3587 37.015 32.3259C37.015 32.293 37.0354 32.2662 37.0604 32.2662C37.0853 32.2662 37.1056 32.2393 37.1056 32.2065C37.1056 32.1736 37.1375 32.1352 37.1764 32.1211C37.2154 32.107 37.2346 32.0759 37.2191 32.0522C37.2035 32.0285 37.2137 32.009 37.2415 32.009C37.2694 32.009 37.2796 31.9898 37.2641 31.9662C37.2488 31.9427 37.2578 31.9233 37.2841 31.9233C37.3105 31.9233 37.3321 31.8944 37.3321 31.8591C37.3321 31.8237 37.3525 31.7948 37.3774 31.7948C37.4023 31.7948 37.4227 31.7673 37.4227 31.7336C37.4227 31.6999 37.4506 31.646 37.4847 31.6137C37.5187 31.5815 37.5609 31.5126 37.5783 31.4607C37.5957 31.4087 37.629 31.3663 37.6522 31.3663C37.6755 31.3663 37.6944 31.3387 37.6944 31.305C37.6944 31.2713 37.7202 31.2183 37.7516 31.1872C37.783 31.156 37.8341 31.0824 37.865 31.0234C37.8959 30.9645 38.0343 30.7234 38.1724 30.4878C38.3106 30.2521 38.4751 29.9532 38.5379 29.8236C38.6008 29.6939 38.6998 29.4914 38.7579 29.3736C39.3593 28.1547 40.1251 25.7575 39.9827 25.5395C39.9546 25.4965 39.5697 25.324 39.5019 25.324C39.4808 25.324 39.356 25.2783 39.2245 25.2224C39.093 25.1666 38.9308 25.1087 38.864 25.0938C38.7972 25.0789 38.7157 25.0419 38.6828 25.0116C38.582 24.9186 38.2834 24.7577 38.282 24.7955C38.2812 24.8151 38.2596 24.797 38.2338 24.7552C38.2082 24.7135 38.1701 24.6893 38.1494 24.7015C38.1286 24.7136 38.0994 24.6935 38.0845 24.6568C38.0696 24.6201 38.0391 24.6008 38.0166 24.6139C37.9942 24.6271 37.9632 24.6068 37.9478 24.5689C37.9309 24.5274 37.8865 24.5083 37.8358 24.5208C37.7787 24.535 37.7535 24.5196 37.7571 24.4731C37.76 24.4355 37.7399 24.4042 37.7124 24.4037C37.6849 24.4031 37.6062 24.3394 37.5374 24.2621C37.4471 24.1606 37.3971 24.1337 37.357 24.1652C37.3172 24.1964 37.2707 24.1756 37.1923 24.0914L37.0829 23.9741L37.2189 24.081L37.3548 24.1881L37.2233 24.0504C37.1509 23.9747 37.0747 23.9228 37.0539 23.935C37.0331 23.9471 37.027 23.9302 37.0404 23.8973C37.0537 23.8644 36.998 23.7718 36.9164 23.6915C36.835 23.6113 36.7474 23.515 36.7218 23.4778C36.6963 23.4405 36.5247 23.1995 36.3405 22.9421C35.1685 21.3044 34.5501 19.1152 34.4841 16.3705L34.4559 15.1949L34.0255 14.9451C33.7889 14.8078 33.5593 14.6667 33.5155 14.6316C33.4715 14.5965 33.4155 14.5678 33.3909 14.5678C33.3663 14.5678 33.3461 14.5506 33.3461 14.5296C33.3461 14.5085 33.2999 14.4804 33.2433 14.467C33.1867 14.4536 33.1001 14.4081 33.0508 14.366C33.0015 14.3237 32.8847 14.2511 32.7912 14.2045C32.6978 14.1579 32.6214 14.1049 32.6214 14.0867C32.6214 14.0685 32.5925 14.0535 32.5572 14.0535C32.5219 14.0535 32.4862 14.0366 32.4779 14.0159C32.4697 13.9952 32.3915 13.9412 32.3044 13.8959C32.2171 13.8507 31.9728 13.7086 31.7613 13.5801C31.5498 13.4516 31.3612 13.3514 31.3422 13.3572C31.3233 13.3631 31.3078 13.3487 31.3078 13.325C31.3078 13.3015 31.2875 13.2822 31.2627 13.2822C31.2378 13.2822 31.1155 13.2129 30.9908 13.1282C30.8663 13.0435 30.7643 12.9893 30.7643 13.0078C30.7643 13.0264 30.7344 13.004 30.6978 12.9583C30.6612 12.9125 30.6307 12.8903 30.6298 12.9089C30.629 12.9275 30.5846 12.9041 30.5309 12.8568C30.4774 12.8096 30.4162 12.781 30.395 12.7934C30.3739 12.8058 30.3566 12.7955 30.3566 12.7705C30.3566 12.7455 30.326 12.7251 30.2887 12.7251C30.2513 12.7251 30.2207 12.7047 30.2207 12.6798C30.2207 12.6548 30.2002 12.6464 30.1751 12.661C30.1501 12.6757 30.1173 12.6577 30.1024 12.621C30.0875 12.5843 30.0571 12.5649 30.0348 12.5779C30.0125 12.5909 29.9943 12.5812 29.9943 12.5563C29.9943 12.5312 29.9636 12.5109 29.9263 12.5109C29.889 12.5109 29.8584 12.4915 29.8584 12.468C29.8584 12.4444 29.8329 12.43 29.8018 12.4358C29.7706 12.4418 29.75 12.4232 29.7559 12.3946C29.7621 12.3645 29.7382 12.3528 29.6993 12.367C29.6622 12.3804 29.6319 12.3701 29.6319 12.3441C29.6319 12.3179 29.6013 12.2966 29.564 12.2966C29.5266 12.2966 29.496 12.2773 29.496 12.2538C29.496 12.2301 29.4669 12.2109 29.4313 12.2109C29.3957 12.2109 29.3396 12.1857 29.3067 12.1549C29.2738 12.1242 29.1755 12.0615 29.0884 12.0157C29.0012 11.9699 28.9196 11.9227 28.9072 11.9109C28.8614 11.8676 28.7011 11.7792 28.6241 11.7547C28.5805 11.7409 28.5448 11.7124 28.5448 11.6916C28.5448 11.6709 28.5226 11.6538 28.4956 11.6538C28.4685 11.6538 28.3615 11.5986 28.2578 11.531C28.032 11.3841 27.6961 11.182 26.6424 10.5591C26.2064 10.3014 25.843 10.0758 25.8346 10.0579C25.8263 10.04 25.7907 10.0254 25.7553 10.0254C25.7201 10.0254 25.6912 10.0081 25.6912 9.9872C25.6912 9.96617 25.645 9.93799 25.5884 9.92451C25.5318 9.91111 25.4409 9.86084 25.3864 9.81277C25.3319 9.76469 25.2661 9.72539 25.2402 9.72539C25.2141 9.72539 25.1929 9.70614 25.1929 9.68251C25.1929 9.65896 25.1694 9.63971 25.1406 9.63971C25.1118 9.63971 25.0214 9.59148 24.9398 9.53252C24.8581 9.47365 24.7785 9.42541 24.7627 9.42541C24.7469 9.42541 24.6639 9.3749 24.5785 9.31318C24.4929 9.25146 24.4229 9.2163 24.4229 9.23498C24.4229 9.25366 24.3719 9.22369 24.3097 9.16831C24.2474 9.11293 24.1958 9.08548 24.195 9.10724C24.1943 9.12909 24.1729 9.11317 24.1476 9.07192C24.0902 8.97885 23.9986 8.97593 23.9053 9.0642ZM24.2618 11.3092C24.369 11.3791 24.4694 11.4241 24.4851 11.4093C24.5008 11.3945 24.5135 11.4049 24.5135 11.4324C24.5135 11.4599 24.5336 11.4824 24.5583 11.4824C24.5829 11.4824 24.6447 11.5162 24.6956 11.5574C24.7466 11.5986 24.7931 11.6227 24.7991 11.6109C24.8051 11.5992 24.8585 11.6322 24.9178 11.6844C24.977 11.7366 25.0407 11.7705 25.0592 11.7597C25.0777 11.7488 25.1051 11.77 25.1199 11.8067C25.1348 11.8434 25.1675 11.8615 25.1926 11.8468C25.2178 11.8321 25.2383 11.8406 25.2383 11.8655C25.2383 11.8905 25.2688 11.9109 25.3062 11.9109C25.3436 11.9109 25.3741 11.9314 25.3741 11.9563C25.3741 11.9812 25.3923 11.991 25.4147 11.978C25.437 11.9649 25.4674 11.9843 25.4823 12.021C25.4972 12.0577 25.5299 12.0758 25.555 12.0611C25.5801 12.0464 25.6006 12.0559 25.6006 12.0823C25.6006 12.1086 25.6189 12.1195 25.6412 12.1065C25.6635 12.0935 25.6939 12.1129 25.7088 12.1496C25.7237 12.1863 25.7542 12.2055 25.7767 12.1925C25.7992 12.1793 25.8298 12.1985 25.8447 12.2352C25.8595 12.272 25.8922 12.29 25.9174 12.2754C25.9425 12.2607 25.963 12.2678 25.963 12.2912C25.963 12.3146 26.0088 12.3472 26.0649 12.3638C26.1209 12.3803 26.177 12.4057 26.1895 12.4202C26.2499 12.4906 26.5128 12.5979 26.5589 12.571C26.5885 12.5537 26.5989 12.5592 26.5829 12.5836C26.5575 12.6225 26.9075 12.8965 26.9825 12.8965C26.9995 12.8965 27.0773 12.94 27.1554 12.993C27.2334 13.046 27.3325 13.1086 27.3755 13.1323C27.9052 13.4225 29.7519 14.5546 29.7363 14.5796C29.725 14.5979 29.7337 14.6075 29.7556 14.601C29.8082 14.5855 30.1302 14.7494 30.1302 14.7918C30.1302 14.8101 30.1607 14.8249 30.1981 14.8249C30.2355 14.8249 30.266 14.842 30.266 14.8628C30.266 14.8836 30.3017 14.9123 30.3453 14.9267C30.4627 14.9652 30.8336 15.178 30.9337 15.2643C30.9816 15.3056 31.03 15.3307 31.0412 15.32C31.0525 15.3094 31.1505 15.3672 31.2591 15.4485C31.3676 15.5298 31.481 15.5963 31.511 15.5963C31.541 15.5963 31.6026 15.635 31.6478 15.6822C31.693 15.7296 31.7386 15.7601 31.7492 15.7501C31.7597 15.7401 31.8081 15.7697 31.8568 15.8157C31.9055 15.8617 31.9649 15.8879 31.9889 15.8739C32.0129 15.8598 32.0325 15.8688 32.0325 15.8937C32.0325 15.9187 32.0632 15.9391 32.1005 15.9391C32.1378 15.9391 32.1685 15.9596 32.1685 15.9845C32.1685 16.0094 32.1875 16.0187 32.211 16.005C32.2343 15.9914 32.2745 16.0143 32.3001 16.056C32.3258 16.0978 32.3478 16.1126 32.3489 16.0891C32.3501 16.0655 32.3704 16.0752 32.394 16.1105C32.4176 16.1458 32.4631 16.1748 32.4952 16.1748C32.5391 16.1748 32.5609 16.349 32.5839 16.8819C32.6486 18.385 32.957 20.034 33.4092 21.2944C33.4957 21.5353 33.5563 21.7576 33.5438 21.7883C33.5118 21.8673 33.6198 21.919 33.6676 21.8476C33.7223 21.766 33.7187 21.8403 33.6634 21.9382C33.6156 22.0227 33.6484 22.1665 33.7076 22.1319C33.7267 22.1207 33.7424 22.1627 33.7424 22.2252C33.7424 22.2878 33.7776 22.3633 33.8206 22.393C33.8635 22.4228 33.8853 22.4676 33.8689 22.4928C33.8525 22.518 33.8618 22.5385 33.8896 22.5385C33.9175 22.5385 33.9277 22.5578 33.9123 22.5813C33.8969 22.6049 33.9032 22.6242 33.9262 22.6242C33.9493 22.6242 34.0141 22.7447 34.0702 22.892C34.1265 23.0393 34.1946 23.1861 34.2217 23.218C34.2785 23.2847 34.3591 23.4126 34.4417 23.567C34.4732 23.6259 34.5371 23.7068 34.5835 23.7468C34.63 23.7868 34.6558 23.8382 34.6409 23.8611C34.626 23.8838 34.6293 23.909 34.6481 23.9168C34.667 23.9248 34.8349 24.1241 35.0214 24.3597C35.7258 25.25 36.8029 26.1385 37.7018 26.5708C37.7872 26.6119 37.824 26.6511 37.7939 26.6686C37.7663 26.6848 37.7552 26.7264 37.7693 26.761C37.7833 26.7955 37.7728 26.8238 37.746 26.8238C37.7192 26.8238 37.709 26.8527 37.7234 26.8881C37.7378 26.9235 37.7247 26.9524 37.6944 26.9524C37.6642 26.9524 37.6512 26.9813 37.6656 27.0167C37.6799 27.052 37.6697 27.0809 37.6429 27.0809C37.6161 27.0809 37.6059 27.1099 37.6203 27.1452C37.6346 27.1805 37.6244 27.2095 37.5976 27.2095C37.5708 27.2095 37.5606 27.2384 37.5749 27.2738C37.5893 27.3091 37.5792 27.3381 37.5523 27.3381C37.5255 27.3381 37.5157 27.368 37.5306 27.4046C37.5482 27.448 37.5393 27.4605 37.5051 27.4404C37.4702 27.42 37.4622 27.4332 37.481 27.4796C37.4966 27.5181 37.4895 27.5612 37.4653 27.5754C37.441 27.5895 37.433 27.6191 37.4473 27.641C37.4616 27.6629 37.4521 27.6809 37.4263 27.6809C37.4004 27.6809 37.3863 27.7388 37.395 27.8094C37.4037 27.8801 37.3976 27.938 37.3816 27.938C37.3654 27.938 37.2933 28.0681 37.2212 28.2273C36.6408 29.5081 35.3932 31.4941 34.7309 32.1912C34.6918 32.2324 34.6597 32.2811 34.6597 32.2995C34.6597 32.3179 34.624 32.3649 34.5804 32.4039C34.5368 32.4431 34.4603 32.5278 34.4106 32.5922C34.3607 32.6565 34.269 32.759 34.2067 32.8198C34.1445 32.8806 34.0646 32.9834 34.0292 33.0482C33.9938 33.113 33.9417 33.1661 33.9132 33.1661C33.8847 33.1661 33.8015 33.228 33.7283 33.3037C33.6551 33.3795 33.636 33.4145 33.6859 33.3815C33.9554 33.2035 32.3177 34.709 31.7608 35.1513C31.3996 35.4382 31.0938 35.6826 31.0814 35.6944C31.0123 35.7599 30.7609 35.9087 30.7194 35.9087C30.6927 35.9087 30.6592 35.9375 30.6449 35.9727C30.6306 36.008 30.6006 36.0261 30.5784 36.0131C30.5561 36 30.5378 36.0215 30.5378 36.0608C30.5378 36.1066 30.5135 36.1233 30.4699 36.1075C30.4279 36.0923 30.4019 36.1076 30.4019 36.1476C30.4019 36.1833 30.3735 36.2068 30.3388 36.1999C30.3041 36.1929 30.2235 36.2403 30.1598 36.3051C30.0961 36.3699 30.0225 36.4229 29.9964 36.4229C29.9703 36.4229 29.949 36.4422 29.949 36.4658C29.949 36.4894 29.9184 36.5086 29.881 36.5086C29.8436 36.5086 29.8131 36.5279 29.8131 36.5515C29.8131 36.575 29.7825 36.5944 29.7451 36.5944C29.7078 36.5944 29.6772 36.6169 29.6772 36.6444C29.6772 36.6718 29.6651 36.6829 29.6503 36.6689C29.6355 36.6549 29.5081 36.7133 29.3672 36.7986C28.5147 37.3148 26.4223 38.3604 26.1566 38.4028C26.1124 38.4098 26.0661 38.4276 26.0535 38.4422C25.9685 38.5421 24.3916 39.0935 24.2697 39.066C23.876 38.9769 22.2447 38.3308 21.3882 37.9247C20.5479 37.5264 19.5542 37.0042 19.2479 36.8001C19.1795 36.7544 19.1231 36.7328 19.1227 36.7522C19.1223 36.7714 19.107 36.767 19.0887 36.7422C19.0287 36.6614 18.7741 36.5106 18.7445 36.5385C18.7287 36.5535 18.7157 36.5433 18.7157 36.5158C18.7157 36.4883 18.6873 36.4658 18.6526 36.4658C18.6179 36.4658 18.5773 36.4356 18.5623 36.3988C18.5474 36.362 18.5168 36.3425 18.4943 36.3557C18.4718 36.3689 18.4413 36.3495 18.4263 36.3128C18.4115 36.2761 18.3809 36.2569 18.3584 36.27C18.336 36.2831 18.3058 36.2651 18.2916 36.2298C18.2773 36.1947 18.2344 36.1658 18.1962 36.1658C18.1581 36.1658 18.1269 36.1465 18.1269 36.123C18.1269 36.0994 18.0938 36.0801 18.0534 36.0801C17.9899 36.0801 17.9883 36.0903 18.0421 36.1551C18.0979 36.2225 18.0965 36.2244 18.0276 36.1734C17.9855 36.1422 17.9622 36.0892 17.9759 36.0556C17.9895 36.0219 17.9766 35.9944 17.9473 35.9944C17.9179 35.9944 17.8673 35.9703 17.8348 35.9408C17.8022 35.9114 17.7305 35.8584 17.6753 35.823C17.62 35.7877 17.5379 35.7298 17.4927 35.6944C17.4476 35.6591 17.3652 35.6012 17.3097 35.5659C17.2542 35.5306 17.1759 35.4718 17.1356 35.4354C17.0954 35.3989 16.9503 35.284 16.8133 35.18C16.0324 34.5872 14.5814 33.2749 14.3833 32.9824C14.3229 32.8931 14.2561 32.8303 14.2349 32.8428C14.2136 32.8552 14.1623 32.798 14.121 32.7158C14.0798 32.6335 14.0184 32.5662 13.9846 32.5662C13.9509 32.5662 13.902 32.5083 13.8759 32.4376C13.8498 32.3669 13.7993 32.309 13.7637 32.309C13.7281 32.309 13.6736 32.2512 13.6426 32.1805C13.6117 32.1098 13.5605 32.0519 13.5288 32.0519C13.497 32.0519 13.461 32.027 13.4486 31.9964C13.4362 31.9659 13.2333 31.6911 12.9977 31.3858C12.6061 30.8783 11.9395 29.9365 11.8619 29.7807C11.8443 29.7453 11.7903 29.6586 11.742 29.5878C11.5896 29.3648 11.3053 28.873 11.1049 28.4858C10.9985 28.2803 10.8944 28.1222 10.8735 28.1345C10.8525 28.1467 10.8488 28.1236 10.8652 28.0832C10.8846 28.0354 10.8775 28.0199 10.8452 28.0388C10.8177 28.0548 10.7805 28.0454 10.7625 28.0178C10.7421 27.9864 10.7494 27.9791 10.782 27.9982C10.8624 28.0452 10.8453 27.9711 10.7125 27.6968C10.6453 27.5584 10.5931 27.4114 10.5964 27.3702C10.5996 27.329 10.5819 27.2952 10.5571 27.2952C10.5322 27.2952 10.5245 27.276 10.5399 27.2523C10.5553 27.2288 10.5507 27.2095 10.5295 27.2095C10.5085 27.2095 10.4879 27.1679 10.4839 27.117C10.4798 27.066 10.4533 27.0108 10.4251 26.9943C10.3968 26.9778 10.3769 26.9516 10.381 26.9362C10.4002 26.8623 10.3228 26.6523 10.2758 26.6511C10.2467 26.6504 10.2636 26.6279 10.3134 26.6012C10.3633 26.5745 10.4142 26.5412 10.4266 26.5272C10.4391 26.5133 10.6102 26.409 10.8069 26.2955C11.7389 25.7576 13.0054 24.5508 13.4116 23.8136C13.4465 23.7503 13.4956 23.7104 13.5205 23.725C13.5456 23.7397 13.553 23.7316 13.537 23.7072C13.5211 23.6827 13.5441 23.6171 13.5884 23.5613C13.6326 23.5055 13.6943 23.4117 13.7253 23.3527C13.7562 23.2938 13.83 23.1702 13.8892 23.0782C13.9483 22.9861 13.9872 22.8874 13.9756 22.8588C13.964 22.8301 13.9881 22.7749 14.0292 22.736C14.0702 22.6971 14.1079 22.6417 14.1128 22.6127C14.1178 22.5837 14.1561 22.5111 14.198 22.4514C14.24 22.3916 14.2809 22.3019 14.289 22.2519C14.2971 22.2021 14.3311 22.1299 14.3646 22.0917C14.3981 22.0535 14.4136 22.0109 14.3991 21.9972C14.3846 21.9834 14.4421 21.7862 14.5271 21.559C15.0523 20.1542 15.3802 18.4814 15.4483 16.8605C15.47 16.3442 15.4915 16.1748 15.5353 16.1748C15.5674 16.1748 15.6129 16.1458 15.6366 16.1105C15.6602 16.0752 15.6805 16.0655 15.6816 16.0891C15.6827 16.1126 15.7047 16.0978 15.7304 16.056C15.7561 16.0143 15.7962 15.9914 15.8196 16.005C15.843 16.0187 15.8621 16.0083 15.8621 15.982C15.8621 15.9556 15.8813 15.9453 15.9046 15.9589C15.928 15.9725 15.9681 15.9496 15.9939 15.9079C16.0195 15.8662 16.0412 15.8474 16.0419 15.8662C16.0426 15.885 16.1299 15.844 16.2357 15.7751C16.3417 15.7062 16.4487 15.6454 16.4736 15.6402C16.4985 15.635 16.6133 15.5651 16.7288 15.4849C16.8442 15.4047 16.955 15.3391 16.975 15.3391C16.995 15.3391 17.0539 15.3013 17.1061 15.2549C17.2059 15.1662 17.5507 14.9709 17.6852 14.9267C17.7288 14.9123 17.7645 14.8858 17.7645 14.8678C17.7645 14.8497 17.8002 14.8236 17.8438 14.8097C17.9267 14.7834 18.088 14.6926 18.1269 14.6503C18.1393 14.6368 18.6962 14.2994 19.3643 13.9004C20.0326 13.5015 20.6338 13.1415 20.7006 13.1006C20.7673 13.0596 20.8525 13.013 20.8899 12.997C21.0343 12.9354 21.339 12.711 21.3192 12.6808C21.3078 12.6634 21.3238 12.6502 21.3547 12.6516C21.4371 12.6553 21.7052 12.5404 21.7052 12.5014C21.7052 12.4831 21.7379 12.468 21.778 12.468C21.818 12.468 21.841 12.4439 21.8291 12.4145C21.8155 12.3809 21.8513 12.3584 21.9247 12.3541C21.9893 12.3504 22.0496 12.3262 22.0587 12.3003C22.0679 12.2744 22.0941 12.2642 22.1171 12.2776C22.14 12.291 22.171 12.272 22.1859 12.2352C22.2007 12.1985 22.2313 12.1793 22.2538 12.1925C22.2763 12.2055 22.3068 12.1863 22.3218 12.1496C22.3366 12.1129 22.3671 12.0935 22.3894 12.1065C22.4116 12.1195 22.4299 12.1086 22.4299 12.0823C22.4299 12.0559 22.4504 12.0464 22.4755 12.0611C22.5007 12.0758 22.5334 12.0577 22.5482 12.021C22.5631 11.9843 22.5935 11.9649 22.6158 11.978C22.6382 11.991 22.6564 11.9812 22.6564 11.9563C22.6564 11.9314 22.687 11.9109 22.7243 11.9109C22.7617 11.9109 22.7923 11.8905 22.7923 11.8655C22.7923 11.8406 22.8096 11.8303 22.8307 11.8426C22.8519 11.855 22.9121 11.8272 22.9648 11.7809C23.0173 11.7345 23.0815 11.6967 23.1075 11.6967C23.1334 11.6967 23.1546 11.6762 23.1546 11.6513C23.1546 11.6263 23.1751 11.6178 23.2 11.6324C23.2248 11.6469 23.2453 11.6385 23.2453 11.6134C23.2453 11.5885 23.2758 11.5681 23.3132 11.5681C23.3506 11.5681 23.3811 11.5488 23.3811 11.5253C23.3811 11.5016 23.4117 11.4824 23.449 11.4824C23.4865 11.4824 23.517 11.462 23.517 11.437C23.517 11.4121 23.5323 11.4005 23.551 11.4113C23.5696 11.4222 23.6665 11.3759 23.7661 11.3085C23.994 11.1543 24.0238 11.1544 24.2618 11.3092ZM23.7768 13.8286C23.5632 14.2606 23.4201 14.7224 23.411 15.0089L23.4038 15.2379L23.15 14.9947C22.3873 14.2637 21.3036 14.1703 20.1481 14.736C19.62 14.9945 19.6355 15.0131 20.4025 15.0427C21.0458 15.0677 21.2692 15.1046 21.5995 15.2407C21.695 15.28 21.7884 15.3087 21.8071 15.3043C21.8258 15.2999 21.8411 15.3156 21.8411 15.3391C21.8411 15.3628 21.8666 15.3821 21.8978 15.3822C21.9288 15.3822 21.9951 15.44 22.045 15.5106C22.0947 15.5811 22.1588 15.6389 22.1873 15.639C22.2158 15.6391 22.251 15.6687 22.2657 15.7048C22.2885 15.7611 22.2585 15.7656 22.0553 15.737C21.1358 15.6069 19.8145 15.8234 19.429 16.1673C19.3979 16.195 19.2843 16.2743 19.1766 16.3436C18.9694 16.4768 18.8412 16.617 18.8768 16.6715C18.8886 16.6895 18.8569 16.7167 18.8063 16.7319C18.7558 16.7471 18.7262 16.7775 18.7406 16.7996C18.755 16.8216 18.735 16.8511 18.6962 16.8653C18.6574 16.8793 18.636 16.9068 18.6487 16.9263C18.6784 16.9717 18.5305 17.2676 18.4782 17.2676C18.4564 17.2676 18.452 17.2881 18.4685 17.3133C18.4849 17.3384 18.4615 17.3844 18.4166 17.4155C18.3471 17.4636 18.3432 17.4872 18.3904 17.5734C18.4439 17.6713 18.4451 17.6703 18.4216 17.5461C18.4015 17.4393 18.4058 17.4307 18.4471 17.4952C18.515 17.6011 18.4653 17.7234 18.3813 17.6573C18.3321 17.6188 18.3139 17.6365 18.2909 17.7451C18.2481 17.9473 18.2712 17.9404 18.6094 17.6501C19.1673 17.1712 19.7301 16.8314 20.2405 16.6652C20.541 16.5674 20.9894 16.5428 21.0174 16.6225C21.0294 16.6566 21.0169 16.6675 20.9864 16.6496C20.9582 16.6332 20.9352 16.6413 20.9352 16.6676C20.9352 16.694 20.9148 16.7036 20.8899 16.689C20.865 16.6745 20.8446 16.6841 20.8446 16.7105C20.8446 16.7368 20.8259 16.7475 20.8032 16.7342C20.7804 16.7209 20.7545 16.7304 20.7458 16.7554C20.7369 16.7804 20.6992 16.8051 20.6618 16.8103C20.5604 16.8243 20.2557 17.0112 20.2557 17.0593C20.2557 17.0823 20.2361 17.0897 20.212 17.0756C20.1878 17.0615 20.1422 17.0893 20.1104 17.1374C20.0787 17.1854 20.0289 17.2247 19.9998 17.2247C19.9287 17.2247 19.3952 17.7786 19.3952 17.8522C19.3952 17.8842 19.3752 17.9104 19.3508 17.9104C19.313 17.9104 19.1111 18.2329 19.1094 18.296C19.1091 18.3078 19.0631 18.4027 19.0073 18.507C18.9514 18.6112 18.9161 18.722 18.9288 18.7534C18.9415 18.7847 18.9271 18.8102 18.8969 18.8102C18.8667 18.8102 18.8534 18.8386 18.8674 18.8732C18.8814 18.9078 18.8721 18.9483 18.8465 18.9632C18.821 18.9782 18.8117 19.0191 18.826 19.0542C18.8402 19.0893 18.8377 19.1397 18.8204 19.1662C18.7774 19.2319 18.7674 20.1803 18.8094 20.2049C18.828 20.2157 18.8324 20.2632 18.8194 20.3104C18.8063 20.3576 18.8183 20.4221 18.8459 20.4536C18.8735 20.4851 18.8837 20.5226 18.8685 20.537C18.8533 20.5514 18.8706 20.5913 18.907 20.6259C18.9651 20.6808 18.98 20.654 19.028 20.407C19.2993 19.0146 20.1526 17.905 21.1312 17.6727L21.2561 17.6431L21.1296 17.7674C20.2029 18.6783 19.7226 20.4562 20.0231 21.8635C20.0764 22.1135 20.1649 22.2601 20.1653 22.0993C20.1667 21.4983 20.5939 19.9674 20.7602 19.9674C20.7817 19.9674 20.7969 19.9528 20.7939 19.9352C20.7817 19.8623 20.8025 19.7988 20.8559 19.7454C20.887 19.7142 20.9431 19.632 20.9805 19.5625C21.0834 19.3712 21.5936 18.8925 21.5521 19.0262C21.1688 20.2589 21.2523 21.5242 21.7896 22.6242C21.9857 23.0258 22.3502 23.5216 22.2777 23.2885C22.1066 22.7376 22.0199 21.7801 22.0838 21.1457C22.105 20.9336 22.1255 20.7089 22.129 20.6463C22.1326 20.5838 22.154 20.5434 22.1766 20.5566C22.1992 20.5698 22.2062 20.539 22.1922 20.4882C22.1781 20.4373 22.1804 20.4038 22.1973 20.4137C22.2142 20.4236 22.2653 20.3465 22.3109 20.2423C22.3564 20.1382 22.412 20.053 22.4344 20.053C22.4569 20.053 22.4752 20.0334 22.4752 20.0094C22.4752 19.9014 22.8785 19.603 23.0347 19.5954C23.1805 19.5884 23.1986 19.6016 23.2686 19.7669C23.4551 20.2063 23.3849 28.4839 23.1925 28.7598C23.1613 28.8045 23.1381 28.7984 23.0826 28.7308C23.044 28.6837 22.994 28.6497 22.9716 28.6553C22.9492 28.661 22.9089 28.6268 22.8819 28.5792C22.8551 28.5316 22.8135 28.5041 22.7897 28.518C22.7659 28.532 22.7341 28.5132 22.7192 28.4764C22.7043 28.4396 22.6637 28.4094 22.6289 28.4094C22.5942 28.4094 22.5658 28.3878 22.5658 28.3615C22.5658 28.3352 22.5278 28.3231 22.4813 28.3346C22.4231 28.349 22.3983 28.3338 22.4019 28.286C22.4049 28.2478 22.3818 28.2214 22.3507 28.2273C22.3195 28.2332 22.2941 28.2164 22.2941 28.1901C22.2941 28.1638 22.2548 28.152 22.2068 28.1639C22.142 28.1799 22.1266 28.1683 22.1466 28.119C22.1638 28.0766 22.1552 28.0633 22.1228 28.0822C22.0948 28.0985 22.0501 28.0729 22.023 28.0249C21.9959 27.9771 21.9432 27.938 21.9058 27.938C21.8358 27.938 21.6375 27.8304 21.5321 27.735C21.4992 27.7052 21.4448 27.6809 21.4113 27.6809C21.3778 27.6809 21.3436 27.6655 21.3353 27.6467C21.3179 27.6073 20.1402 27.0563 19.7349 26.8979C17.9143 26.1867 15.9776 25.927 14.5227 26.1993C13.7224 26.3492 12.8033 26.6793 12.2243 27.0251C11.9622 27.1817 12.0755 27.2238 12.4309 27.1017C12.9544 26.9219 14.7975 26.6468 15.013 26.7163C15.044 26.7263 15.2529 26.7444 15.4771 26.7564C16.21 26.7959 17.2521 26.9842 17.8467 27.1846C17.9542 27.2208 18.0561 27.2474 18.0732 27.2435C18.0903 27.2396 18.1828 27.2688 18.2789 27.3084C18.3749 27.348 18.47 27.3707 18.4902 27.359C18.5103 27.3472 18.5339 27.3578 18.5426 27.3826C18.5514 27.4073 18.6036 27.4307 18.6586 27.4347C18.7136 27.4386 18.7686 27.4663 18.7807 27.4963C18.7929 27.5262 18.8839 27.563 18.983 27.5781C19.082 27.593 19.1744 27.6332 19.1882 27.6672C19.202 27.7013 19.233 27.7176 19.2571 27.7035C19.3973 27.6216 21.4864 28.8557 22.1316 29.4016C22.2334 29.4876 22.3959 29.6226 22.4927 29.7015C22.5894 29.7804 22.7346 29.9087 22.8151 29.9865L22.9616 30.1279L22.8233 30.2757C22.7473 30.357 22.6633 30.4235 22.6368 30.4235C22.6102 30.4235 22.5316 30.491 22.4619 30.5735C22.3924 30.656 22.306 30.7234 22.2698 30.7234C22.2338 30.7234 22.1786 30.7627 22.1472 30.8108C22.0747 30.922 20.8359 31.9483 20.7907 31.9346C20.7722 31.929 20.7003 31.9916 20.631 32.0738C20.5616 32.156 20.4847 32.2233 20.4599 32.2233C20.4353 32.2233 20.3435 32.2914 20.2562 32.3746C20.1013 32.522 19.8526 32.7344 19.531 32.9939C19.4438 33.0642 19.3055 33.1792 19.2236 33.2495L19.0746 33.377L18.8979 33.2149C18.5227 32.8704 17.9294 32.8613 17.5562 33.1942C16.9176 33.7641 17.209 34.8025 18.0352 34.9006C18.2424 34.9252 18.6022 35.1047 18.6422 35.2034C18.6562 35.2378 18.6988 35.2659 18.737 35.2659C18.7751 35.2659 18.8063 35.2927 18.8063 35.3255C18.8063 35.3583 18.8572 35.3973 18.9195 35.4121C18.9819 35.4269 19.0328 35.4579 19.0328 35.481C19.0328 35.5041 19.054 35.523 19.0801 35.523C19.1061 35.523 19.1784 35.5712 19.2407 35.6301C19.303 35.6891 19.3837 35.7373 19.4199 35.7373C19.4561 35.7373 19.4857 35.7544 19.4857 35.7752C19.4857 35.7959 19.5214 35.8245 19.565 35.8387C19.6086 35.8529 19.7666 35.9373 19.916 36.0264C20.4232 36.3288 21.204 36.6576 21.2656 36.5947C21.2956 36.564 21.298 36.5506 21.271 36.5648C21.2243 36.5894 21.0626 36.4904 20.882 36.3265C20.8365 36.2853 20.7811 36.2515 20.7588 36.2515C20.7366 36.2515 20.7062 36.2214 20.6913 36.1845C20.6762 36.1476 20.6434 36.1296 20.6181 36.1444C20.5929 36.1592 20.5599 36.1411 20.545 36.1043C20.5301 36.0674 20.4932 36.0373 20.4633 36.0373C20.4332 36.0373 20.363 35.9789 20.3073 35.9075C20.2515 35.8361 20.1902 35.7869 20.171 35.7981C20.1519 35.8093 19.9274 35.6203 19.6722 35.3781L19.2083 34.9377L19.6074 34.7005C20.5467 34.1427 22.1582 33.3895 22.1582 33.5083C22.1582 33.5295 22.1394 33.5577 22.1164 33.5711C21.9573 33.6642 21.808 34.4805 21.8815 34.855C21.9356 35.13 22.1879 35.6948 22.2813 35.7501C22.3133 35.769 22.3394 35.8104 22.3394 35.8421C22.3394 35.8909 22.4582 36.0018 22.7338 36.2102C22.7638 36.2329 22.808 36.2515 22.8319 36.2515C22.8558 36.2515 22.8821 36.266 22.8904 36.2837C22.9142 36.3343 23.3366 36.5023 23.5768 36.5567C24.044 36.6623 24.8355 36.5271 25.2156 36.2768C25.418 36.1434 25.6884 35.8539 25.658 35.8032C25.6433 35.7787 25.6475 35.7725 25.6673 35.7894C25.7142 35.8295 25.8821 35.7441 25.8507 35.696C25.8374 35.6756 25.8439 35.6524 25.8653 35.6445C26.1774 35.5287 26.288 34.2639 26.0322 33.7352C25.972 33.6107 25.9419 33.5089 25.9652 33.5089C26.1212 33.5089 27.6025 34.1986 28.2277 34.5624C28.4395 34.6857 28.6331 34.7917 28.658 34.7982C28.84 34.8451 28.822 34.9255 28.5684 35.1988C28.2699 35.5204 27.9361 35.7899 27.89 35.7463C27.8724 35.7296 27.8646 35.7439 27.873 35.7782C27.8812 35.8125 27.8658 35.8414 27.8386 35.8425C27.8114 35.8435 27.715 35.9168 27.6243 36.0051C27.5336 36.0935 27.4283 36.1658 27.3906 36.1658C27.3528 36.1658 27.3218 36.1826 27.3218 36.2029C27.3218 36.2513 26.9792 36.4658 26.9022 36.4658C26.8696 36.4658 26.843 36.5016 26.843 36.5455C26.843 36.619 26.8546 36.6206 26.9922 36.5662C27.4368 36.3905 28.2068 36.0019 28.4359 35.8378C28.5129 35.7825 28.6017 35.7373 28.6332 35.7373C28.6646 35.7373 28.6796 35.7105 28.6662 35.6779C28.6493 35.6362 28.6682 35.6248 28.7293 35.64C28.7803 35.6526 28.8165 35.6398 28.8165 35.6092C28.8165 35.5802 28.8469 35.5677 28.8845 35.5814C28.9256 35.5963 28.9524 35.5816 28.9524 35.544C28.9524 35.5098 29.0015 35.4701 29.0614 35.4559C29.1213 35.4417 29.1809 35.3919 29.1938 35.3453C29.2067 35.2987 29.2443 35.2656 29.2773 35.2717C29.3104 35.2777 29.4291 35.2018 29.5412 35.1028C29.6625 34.9959 29.7888 34.9231 29.8531 34.9231C30.4938 34.9231 30.976 34.2679 30.7872 33.6536C30.5689 32.9429 29.6164 32.7171 29.0892 33.251L28.9624 33.3794L28.7649 33.2076C28.6563 33.113 28.4916 32.9734 28.3989 32.8973C27.9962 32.567 27.8324 32.4265 27.6748 32.2762C27.5823 32.1882 27.4874 32.1162 27.4637 32.1162C27.44 32.1162 27.3765 32.0632 27.3227 31.9984C27.2688 31.9335 27.2038 31.8805 27.1783 31.8805C27.1356 31.8805 26.2127 31.1274 25.8164 30.7693C25.6025 30.576 25.339 30.3583 25.194 30.2554C25.0616 30.1612 25.1202 29.9953 25.3285 29.8747C25.391 29.8384 25.5058 29.7494 25.5837 29.6769C26.1839 29.1178 28.1846 27.8258 28.2924 27.9277C28.3066 27.9412 28.3184 27.9286 28.3184 27.8998C28.3184 27.8709 28.3387 27.8592 28.3636 27.8737C28.3886 27.8883 28.4089 27.8787 28.4089 27.8523C28.4089 27.826 28.426 27.8144 28.4469 27.8266C28.4899 27.8518 28.7976 27.705 28.8949 27.6129C28.9301 27.5796 28.9964 27.5523 29.042 27.5523C29.0878 27.5523 29.2647 27.4917 29.4352 27.4177C29.6056 27.3435 29.7757 27.2784 29.8131 27.2728C29.8504 27.2672 30.1256 27.1948 30.4246 27.1118C32.1862 26.6231 34.0333 26.6084 35.5332 27.0708C36.1713 27.2676 36.1147 27.152 35.407 26.8129C34.884 26.5624 34.0443 26.2735 33.8098 26.2633C33.7665 26.2614 33.7544 26.251 33.7827 26.2399C33.811 26.229 33.9622 26.2479 34.1186 26.2821C34.602 26.3877 34.684 26.2608 34.2512 26.0769C33.935 25.9427 33.8433 25.8331 33.8308 25.5745C33.8158 25.2665 34.1382 25.3455 34.2071 25.6668C34.2538 25.8855 34.5447 25.7995 34.5962 25.5518C34.6578 25.2552 34.3391 25.1213 33.6932 25.1721C33.2001 25.211 33.1865 25.2209 33.1926 25.5368L33.1976 25.7953H33.0057C32.7261 25.7953 32.5266 25.8415 32.4977 25.9129C32.4636 25.997 32.5648 26.051 32.7573 26.0517C32.9388 26.0523 33.7223 26.1823 33.6957 26.2074C33.6861 26.2165 33.4761 26.1951 33.229 26.1599C31.6863 25.9399 29.8056 26.2468 28.0123 27.0115C27.7568 27.1204 27.537 27.2095 27.5239 27.2095C27.5107 27.2095 27.2408 27.3509 26.924 27.5237C26.6072 27.6966 26.2766 27.8749 26.1895 27.9202C26.1023 27.9653 26.0241 28.0169 26.0158 28.0347C26.0073 28.0525 25.9818 28.0561 25.9588 28.0427C25.9358 28.0292 25.9049 28.0483 25.8899 28.085C25.8751 28.1217 25.8445 28.1411 25.822 28.1279C25.7995 28.1147 25.769 28.134 25.754 28.1707C25.7392 28.2075 25.7086 28.2267 25.6862 28.2136C25.6637 28.2004 25.6331 28.2197 25.6182 28.2565C25.6033 28.2932 25.5728 28.3124 25.5503 28.2993C25.5278 28.2862 25.4971 28.3056 25.4822 28.3424C25.4673 28.3792 25.4288 28.4094 25.3968 28.4094C25.3647 28.4094 25.3263 28.4396 25.3113 28.4764C25.2964 28.5132 25.2635 28.5313 25.2383 28.5166C25.2129 28.5018 25.1801 28.5198 25.1651 28.5567C25.1502 28.5935 25.1141 28.6237 25.085 28.6237C25.0558 28.6237 24.9954 28.664 24.9506 28.7134C24.8382 28.8377 24.8281 28.8153 24.7824 28.3378C24.6539 26.9961 24.624 20.1476 24.7452 19.8185C24.8597 19.5078 25.199 19.5228 25.4565 19.85C25.4893 19.8917 25.535 19.9149 25.5579 19.9015C25.5808 19.8881 25.5876 19.9066 25.573 19.9426C25.5584 19.9786 25.5776 20.0374 25.6156 20.0733C25.698 20.1513 25.878 20.5858 25.8927 20.7423C25.8984 20.8033 25.9181 20.8761 25.9364 20.9041C25.9547 20.9321 25.9568 21.0105 25.941 21.0784C25.9247 21.1489 25.9329 21.214 25.9603 21.23C26.0131 21.2608 26.028 21.9484 25.977 21.9967C25.9598 22.013 25.9396 22.156 25.9322 22.3146C25.9248 22.4731 25.8809 22.7618 25.8348 22.9563C25.7248 23.4207 25.7682 23.4077 26.1139 22.8727C26.7341 21.9127 26.9003 20.1975 26.4838 19.0535C26.451 18.9632 26.4299 18.8957 26.4369 18.9035C26.444 18.9111 26.5333 19.0095 26.6353 19.1221C26.7374 19.2346 26.8298 19.3214 26.8408 19.3149C26.8702 19.2974 27.0501 19.5232 27.0501 19.5776C27.0501 19.6034 27.0683 19.6245 27.0906 19.6245C27.2895 19.6245 27.7556 21.0084 27.8459 21.8673C27.9145 22.5188 28.0915 21.764 28.0918 20.8193C28.092 19.661 27.4465 18.0587 26.8333 17.6955C26.7051 17.6196 27.0473 17.6944 27.2313 17.7825C27.8443 18.0763 28.726 19.0859 28.726 19.4942C28.726 19.5329 28.7441 19.5828 28.7662 19.6052C28.8158 19.6552 28.9275 20.0272 28.9997 20.3819C29.0483 20.6208 29.2109 20.7615 29.1706 20.5299C29.164 20.4915 29.1766 20.4328 29.1987 20.3995C29.3261 20.2071 29.237 18.8537 29.0791 18.5824C29.0492 18.531 29.0203 18.4637 29.0149 18.4331C29.0095 18.4024 28.9686 18.3253 28.9239 18.2617C28.8793 18.1981 28.8382 18.1186 28.8325 18.085C28.8268 18.0514 28.7905 18.007 28.7515 17.9864C28.7125 17.9658 28.6807 17.9244 28.6807 17.8945C28.6807 17.8265 28.0322 17.1819 27.9639 17.1819C27.9364 17.1819 27.8918 17.1427 27.8647 17.095C27.8377 17.0472 27.7983 17.0181 27.7773 17.0304C27.7562 17.0428 27.7268 17.0228 27.7119 16.9861C27.697 16.9493 27.6664 16.9301 27.644 16.9432C27.6215 16.9564 27.5909 16.937 27.5761 16.9003C27.5611 16.8636 27.5284 16.8456 27.5034 16.8603C27.4782 16.8749 27.4577 16.8713 27.4577 16.8523C27.4576 16.7976 27.0098 16.5739 26.9594 16.6034C26.9345 16.6179 26.9142 16.6094 26.9142 16.5844C26.9142 16.5259 27.188 16.5265 27.5268 16.5857C28.0558 16.6782 28.7494 17.0665 29.4912 17.6851C29.6836 17.8456 29.7287 17.8684 29.7033 17.7923C29.6733 17.7028 29.6424 17.5295 29.635 17.4099C29.6333 17.3821 29.604 17.333 29.5698 17.3007C29.4715 17.2077 29.3538 16.9691 29.3836 16.9235C29.3985 16.9006 29.3768 16.8819 29.3353 16.8819C29.2874 16.8819 29.2692 16.8588 29.2855 16.8187C29.2995 16.784 29.2846 16.7406 29.2523 16.7223C29.22 16.704 29.175 16.6574 29.1522 16.6189C29.1157 16.5567 28.9767 16.4409 28.6277 16.1822C28.1332 15.8155 26.9893 15.6044 26.1258 15.7206C25.9289 15.747 25.7607 15.762 25.7519 15.7538C25.728 15.7311 26.0996 15.382 26.1476 15.382C26.1706 15.382 26.1895 15.3663 26.1895 15.347C26.1895 15.2244 27.1453 15.0392 27.7783 15.0392C28.3544 15.0392 28.4018 15.0063 28.0759 14.8322C26.845 14.175 25.689 14.2314 24.8861 14.9878L24.6268 15.232L24.6153 15.0172C24.5921 14.5816 24.1628 13.4999 24.0121 13.4976C23.9672 13.4969 23.8804 13.6191 23.7768 13.8286ZM20.9692 16.4828C20.9256 16.4936 20.8543 16.4936 20.8107 16.4828C20.767 16.4721 20.8027 16.4633 20.8899 16.4633C20.9771 16.4633 21.0127 16.4721 20.9692 16.4828ZM27.2653 16.4841C27.1967 16.4939 27.0846 16.4939 27.0161 16.4841C26.9476 16.4742 27.0036 16.4662 27.1406 16.4662C27.2777 16.4662 27.3338 16.4742 27.2653 16.4841ZM21.9638 21.6916C21.9529 21.745 21.9436 21.7114 21.9431 21.6172C21.9426 21.5229 21.9515 21.4793 21.9628 21.5203C21.9741 21.5612 21.9746 21.6383 21.9638 21.6916ZM13.6426 25.1837C13.3385 25.2909 13.2224 25.5653 13.4124 25.7278C13.5364 25.8341 13.7067 25.8008 13.726 25.6668C13.7484 25.5117 13.8635 25.4097 14.016 25.4097C14.147 25.4097 14.1484 25.4123 14.1179 25.5918C14.0723 25.8599 13.9849 25.9589 13.6853 26.0818C13.4326 26.1855 13.3568 26.2698 13.4615 26.331C13.4864 26.3456 13.789 26.2994 14.134 26.2283C14.479 26.1572 14.8947 26.0861 15.0578 26.0703C15.6795 26.01 15.553 25.7976 14.8945 25.7958C14.7198 25.7953 14.7197 25.7952 14.7488 25.6479C14.7911 25.4352 14.7372 25.2817 14.6034 25.2335C14.4708 25.1859 13.7435 25.1481 13.6426 25.1837ZM34.3879 26.2277C34.4483 26.2601 34.4483 26.2642 34.3879 26.2649C34.2675 26.2661 34.1161 26.2151 34.1161 26.1732C34.1161 26.1318 34.2641 26.1615 34.3879 26.2277ZM13.7106 26.2239C13.6952 26.2475 13.638 26.2653 13.5834 26.2637C13.4877 26.2608 13.4873 26.2594 13.5747 26.2239C13.6993 26.1732 13.7437 26.1732 13.7106 26.2239ZM24.6149 33.2928C25.4929 33.6875 25.7346 34.7968 25.0839 35.4451C24.8866 35.6416 24.6563 35.7892 24.5991 35.7557C24.5641 35.7354 24.5567 35.7423 24.5783 35.7752C24.6021 35.8119 24.5802 35.8189 24.5012 35.8002C24.4359 35.7847 24.3648 35.7972 24.3276 35.8306C24.2573 35.8936 23.6982 35.9113 23.6982 35.8505C23.6982 35.8304 23.6665 35.8253 23.6279 35.8394C23.5823 35.8559 23.5689 35.8476 23.5897 35.8158C23.6115 35.7824 23.5905 35.7743 23.5241 35.7908C23.4704 35.8041 23.4265 35.7963 23.4265 35.7736C23.4265 35.7509 23.4086 35.7427 23.3868 35.7554C23.3306 35.7883 23.0046 35.5559 22.8662 35.3843C21.9527 34.2511 23.2621 32.6848 24.6149 33.2928ZM23.6992 33.7065C22.8536 33.9958 22.9044 35.2586 23.7661 35.372C23.7911 35.3753 23.8471 35.3934 23.8908 35.4122C23.9344 35.4312 24.0262 35.4321 24.0946 35.4144C24.1631 35.3966 24.2544 35.3785 24.2977 35.3741C24.341 35.3696 24.4123 35.3368 24.4562 35.3011C24.5002 35.2653 24.5688 35.2252 24.6086 35.212C24.7426 35.1673 24.9212 34.774 24.9212 34.5235C24.9212 33.9199 24.2963 33.5022 23.6992 33.7065ZM24.3339 34.0523C24.5498 34.1729 24.6908 34.5374 24.5216 34.5374C24.4338 34.5374 24.1737 34.3363 24.0936 34.2063C23.9583 33.9872 24.079 33.9098 24.3339 34.0523ZM25.5413 34.6124C25.5298 34.6536 25.5205 34.6199 25.5205 34.5374C25.5205 34.4549 25.5298 34.4212 25.5413 34.4624C25.5526 34.5036 25.5526 34.5712 25.5413 34.6124ZM26.1309 34.6333C26.12 34.6867 26.1108 34.6531 26.1103 34.5588C26.1097 34.4646 26.1187 34.4209 26.13 34.4619C26.1413 34.5029 26.1418 34.58 26.1309 34.6333Z" fill="#171724"/>
<path d="M9.632 56.875C9.422 56.875 9.23067 56.8633 9.058 56.84C8.89 56.8213 8.73367 56.7887 8.589 56.742C8.44433 56.6953 8.31133 56.6347 8.19 56.56C8.07333 56.49 7.96133 56.4037 7.854 56.301C7.68133 56.1377 7.56 55.9277 7.49 55.671C7.42 55.4097 7.385 55.1367 7.385 54.852V52.563H8.365V54.733C8.365 54.943 8.386 55.1227 8.428 55.272C8.47467 55.4167 8.55167 55.5357 8.659 55.629C8.78033 55.7317 8.932 55.8017 9.114 55.839C9.296 55.8763 9.492 55.895 9.702 55.895H10.262V52.563H11.242V55.02H11.998V56H11.242V56.875H9.632ZM9.765 51.807C9.653 51.8957 9.52 51.94 9.366 51.94C9.212 51.94 9.07667 51.8957 8.96 51.807C8.848 51.7183 8.792 51.5877 8.792 51.415C8.792 51.261 8.84567 51.1373 8.953 51.044C9.065 50.946 9.20267 50.897 9.366 50.897C9.52933 50.897 9.66467 50.946 9.772 51.044C9.884 51.1373 9.94 51.261 9.94 51.415C9.94 51.5877 9.88167 51.7183 9.765 51.807ZM11.8672 55.02H12.5462C12.5275 54.95 12.5135 54.8777 12.5042 54.803C12.4995 54.7283 12.4972 54.6513 12.4972 54.572C12.4972 54.2733 12.5509 53.9957 12.6582 53.739C12.7702 53.4777 12.9195 53.2513 13.1062 53.06C13.2975 52.864 13.5192 52.71 13.7712 52.598C14.0279 52.486 14.3009 52.43 14.5902 52.43C14.8842 52.43 15.1595 52.486 15.4162 52.598C15.6775 52.7053 15.9039 52.8547 16.0952 53.046C16.2912 53.2373 16.4429 53.4637 16.5502 53.725C16.6622 53.9863 16.7182 54.2687 16.7182 54.572C16.7182 54.8707 16.6599 55.1483 16.5432 55.405C16.4312 55.657 16.2772 55.8763 16.0812 56.063C15.8852 56.2497 15.6589 56.3967 15.4022 56.504C15.1455 56.6113 14.8749 56.665 14.5902 56.665C14.2915 56.665 14.0115 56.6043 13.7502 56.483C13.4889 56.3663 13.2602 56.2053 13.0642 56H11.8672V55.02ZM14.1492 55.601C14.2845 55.657 14.4315 55.685 14.5902 55.685C14.7489 55.685 14.8982 55.657 15.0382 55.601C15.1782 55.545 15.2995 55.468 15.4022 55.37C15.5095 55.2673 15.5912 55.1483 15.6472 55.013C15.7079 54.873 15.7382 54.7213 15.7382 54.558C15.7382 54.3947 15.7102 54.243 15.6542 54.103C15.5982 53.963 15.5189 53.8417 15.4162 53.739C15.3135 53.6363 15.1922 53.557 15.0522 53.501C14.9122 53.4403 14.7582 53.41 14.5902 53.41C14.4269 53.41 14.2775 53.4403 14.1422 53.501C14.0069 53.5617 13.8902 53.6433 13.7922 53.746C13.6942 53.8487 13.6172 53.97 13.5612 54.11C13.5052 54.25 13.4772 54.3993 13.4772 54.558C13.4772 54.7167 13.5052 54.866 13.5612 55.006C13.6172 55.1413 13.6942 55.2603 13.7922 55.363C13.8949 55.461 14.0139 55.5403 14.1492 55.601ZM17.9955 51.17H18.9755V56H17.9955V51.17ZM17.7505 50.533C17.7505 50.2157 17.8275 49.9917 17.9815 49.861C18.1401 49.7303 18.3571 49.665 18.6325 49.665H18.9825V49.98H18.6885C18.5485 49.98 18.4505 50.0103 18.3945 50.071C18.3385 50.1317 18.3105 50.218 18.3105 50.33H19.2065V50.855H17.7505V50.533ZM26.1241 55.02V56H24.3601C24.0101 56 23.6881 55.9603 23.3941 55.881C23.1047 55.8017 22.8527 55.6803 22.6381 55.517C22.4281 55.3537 22.2624 55.1483 22.1411 54.901C22.0244 54.6537 21.9661 54.3643 21.9661 54.033C21.9661 53.7483 22.0197 53.487 22.1271 53.249C22.2344 53.0063 22.3907 52.7987 22.5961 52.626C22.8014 52.4487 23.0511 52.311 23.3451 52.213C23.6437 52.1103 23.9821 52.059 24.3601 52.059H24.5001V51.709H25.4801V55.02H26.1241ZM24.5001 55.02V53.039H24.1221C23.9774 53.039 23.8351 53.0623 23.6951 53.109C23.5551 53.151 23.4291 53.214 23.3171 53.298C23.2051 53.382 23.1141 53.487 23.0441 53.613C22.9787 53.7343 22.9461 53.8743 22.9461 54.033C22.9461 54.1963 22.9764 54.3387 23.0371 54.46C23.1024 54.5813 23.1864 54.684 23.2891 54.768C23.3964 54.852 23.5177 54.915 23.6531 54.957C23.7884 54.999 23.9284 55.02 24.0731 55.02H24.5001ZM25.2771 51.065C25.1697 51.149 25.0414 51.191 24.8921 51.191C24.7427 51.191 24.6144 51.149 24.5071 51.065C24.3997 50.9763 24.3461 50.8503 24.3461 50.687C24.3461 50.5377 24.3974 50.4187 24.5001 50.33C24.6074 50.2367 24.7381 50.19 24.8921 50.19C25.0507 50.19 25.1814 50.2367 25.2841 50.33C25.3867 50.4187 25.4381 50.5377 25.4381 50.687C25.4381 50.8503 25.3844 50.9763 25.2771 51.065ZM23.7581 51.065C23.6507 51.149 23.5224 51.191 23.3731 51.191C23.2237 51.191 23.0954 51.149 22.9881 51.065C22.8807 50.9763 22.8271 50.8503 22.8271 50.687C22.8271 50.5377 22.8784 50.4187 22.9811 50.33C23.0884 50.2367 23.2191 50.19 23.3731 50.19C23.5271 50.19 23.6554 50.2367 23.7581 50.33C23.8654 50.4187 23.9191 50.5377 23.9191 50.687C23.9191 50.8503 23.8654 50.9763 23.7581 51.065ZM25.9902 55.02H26.6762V52.059H27.6562V52.409H29.7912C30.1086 52.409 30.3862 52.451 30.6242 52.535C30.8622 52.6143 31.0699 52.7473 31.2472 52.934C31.3966 53.0927 31.5016 53.2957 31.5622 53.543C31.6229 53.7857 31.6532 54.0517 31.6532 54.341V55.02H32.4092V56H25.9902V55.02ZM27.6562 53.382V55.02H30.6732V54.299C30.6732 54.159 30.6569 54.0377 30.6242 53.935C30.5962 53.8277 30.5496 53.7343 30.4842 53.655C30.4236 53.5757 30.3396 53.5103 30.2322 53.459C30.1296 53.4077 30.0152 53.382 29.8892 53.382H27.6562ZM32.2793 55.02H33.1473V52.059H34.1273V55.02H34.8763V56H32.2793V55.02ZM34.0083 51.331C33.8963 51.4197 33.7633 51.464 33.6093 51.464C33.4553 51.464 33.32 51.4197 33.2033 51.331C33.0913 51.2423 33.0353 51.1117 33.0353 50.939C33.0353 50.785 33.089 50.6613 33.1963 50.568C33.3083 50.47 33.446 50.421 33.6093 50.421C33.7726 50.421 33.908 50.47 34.0153 50.568C34.1273 50.6613 34.1833 50.785 34.1833 50.939C34.1833 51.1117 34.125 51.2423 34.0083 51.331ZM34.7402 55.02H35.4192C35.4006 54.95 35.3866 54.8777 35.3772 54.803C35.3726 54.7283 35.3702 54.6513 35.3702 54.572C35.3702 54.2733 35.4239 53.9957 35.5312 53.739C35.6432 53.4777 35.7926 53.2513 35.9792 53.06C36.1706 52.864 36.3922 52.71 36.6442 52.598C36.9009 52.486 37.1739 52.43 37.4632 52.43C37.7572 52.43 38.0326 52.486 38.2892 52.598C38.5506 52.7053 38.7769 52.8547 38.9682 53.046C39.1642 53.2373 39.3159 53.4637 39.4232 53.725C39.5352 53.9863 39.5912 54.2687 39.5912 54.572C39.5912 54.8707 39.5329 55.1483 39.4162 55.405C39.3042 55.657 39.1502 55.8763 38.9542 56.063C38.7582 56.2497 38.5319 56.3967 38.2752 56.504C38.0186 56.6113 37.7479 56.665 37.4632 56.665C37.1646 56.665 36.8846 56.6043 36.6232 56.483C36.3619 56.3663 36.1332 56.2053 35.9372 56H34.7402V55.02ZM37.0222 55.601C37.1576 55.657 37.3046 55.685 37.4632 55.685C37.6219 55.685 37.7712 55.657 37.9112 55.601C38.0512 55.545 38.1726 55.468 38.2752 55.37C38.3826 55.2673 38.4642 55.1483 38.5202 55.013C38.5809 54.873 38.6112 54.7213 38.6112 54.558C38.6112 54.3947 38.5832 54.243 38.5272 54.103C38.4712 53.963 38.3919 53.8417 38.2892 53.739C38.1866 53.6363 38.0652 53.557 37.9252 53.501C37.7852 53.4403 37.6312 53.41 37.4632 53.41C37.2999 53.41 37.1506 53.4403 37.0152 53.501C36.8799 53.5617 36.7632 53.6433 36.6652 53.746C36.5672 53.8487 36.4902 53.97 36.4342 54.11C36.3782 54.25 36.3502 54.3993 36.3502 54.558C36.3502 54.7167 36.3782 54.866 36.4342 55.006C36.4902 55.1413 36.5672 55.2603 36.6652 55.363C36.7679 55.461 36.8869 55.5403 37.0222 55.601Z" fill="white"/>
</svg>
