<svg width="102" height="61" viewBox="0 0 102 61" fill="none" xmlns="http://www.w3.org/2000/svg">
<path d="M28.2219 0.47467C43.2523 0.47467 58.2827 0.47467 73.7686 0.47467C73.7686 1.07087 73.7686 1.66706 73.7686 2.28133C73.2352 2.28133 72.7017 2.28133 72.1521 2.28133C72.1521 5.26231 72.1521 8.24329 72.1521 11.3146C73.0417 11.3141 73.9313 11.3136 74.8478 11.3131C77.6907 11.3116 80.5336 11.3105 83.3765 11.3098C83.8178 11.3096 84.259 11.3095 84.7002 11.3094C84.7881 11.3094 84.8759 11.3093 84.9664 11.3093C86.3907 11.3089 87.8151 11.3081 89.2394 11.3073C90.6997 11.3064 92.1601 11.3059 93.6204 11.3057C94.5223 11.3055 95.4241 11.3051 96.326 11.3043C96.9436 11.3038 97.5611 11.3037 98.1787 11.3038C98.5356 11.3039 98.8924 11.3038 99.2493 11.3033C99.6353 11.3027 100.021 11.3029 100.407 11.3032C100.578 11.3028 100.578 11.3028 100.753 11.3023C100.855 11.3025 100.958 11.3027 101.064 11.3029C101.153 11.3029 101.242 11.3028 101.334 11.3028C101.534 11.3146 101.534 11.3146 101.629 11.4097C101.637 11.5443 101.639 11.6793 101.638 11.8142C101.638 11.936 101.638 11.936 101.638 12.0603C101.637 12.1456 101.636 12.231 101.635 12.319C101.635 12.4047 101.634 12.4904 101.634 12.5788C101.633 12.7913 101.631 13.0038 101.629 13.2164C101.158 13.2164 100.688 13.2164 100.203 13.2164C100.203 28.0899 100.203 42.9634 100.203 58.2877C90.3813 58.2877 80.5597 58.2877 70.4406 58.2877C70.4406 54.2084 70.4406 50.1292 70.4406 45.9263C70.064 45.9263 69.6875 45.9263 69.2995 45.9263C69.2995 50.0056 69.2995 54.0848 69.2995 58.2877C68.4523 58.2877 67.6051 58.2877 66.7322 58.2877C66.7322 58.4759 66.7322 58.6642 66.7322 58.8582C67.2029 58.8582 67.6735 58.8582 68.1585 58.8582C68.1585 59.3916 68.1585 59.9251 68.1585 60.4747C56.8307 60.4747 45.503 60.4747 33.832 60.4747C33.832 59.9412 33.832 59.4078 33.832 58.8582C34.3341 58.8582 34.8361 58.8582 35.3534 58.8582C35.3534 58.6699 35.3534 58.4816 35.3534 58.2877C34.4748 58.2877 33.5962 58.2877 32.691 58.2877C32.691 54.2084 32.691 50.1292 32.691 45.9263C32.3144 45.9263 31.9379 45.9263 31.5499 45.9263C31.5499 50.0056 31.5499 54.0848 31.5499 58.2877C21.697 58.2877 11.8441 58.2877 1.69255 58.2877C1.69255 43.4141 1.69255 28.5406 1.69255 13.2164C1.25325 13.2164 0.813943 13.2164 0.361328 13.2164C0.361328 12.5888 0.361328 11.9612 0.361328 11.3146C10.0887 11.3146 19.8162 11.3146 29.8383 11.3146C29.8383 8.33362 29.8383 5.35264 29.8383 2.28133C29.3049 2.28133 28.7715 2.28133 28.2219 2.28133C28.2219 1.68513 28.2219 1.08893 28.2219 0.47467Z" fill="#00367E"/>
<path d="M0.361328 11.4097C10.0887 11.4097 19.8162 11.4097 29.8383 11.4097C29.8383 22.204 29.8383 32.9983 29.8383 44.1197C43.9274 44.1197 58.0165 44.1197 72.5325 44.1197C72.5325 44.7159 72.5325 45.3121 72.5325 45.9263C71.4656 45.9263 70.3987 45.9263 69.2995 45.9263C69.2995 50.0056 69.2995 54.0848 69.2995 58.2877C68.4523 58.2877 67.6051 58.2877 66.7322 58.2877C66.7322 58.4759 66.7322 58.6642 66.7322 58.8582C67.2029 58.8582 67.6735 58.8582 68.1585 58.8582C68.1585 59.3916 68.1585 59.9251 68.1585 60.4747C56.8307 60.4747 45.503 60.4747 33.832 60.4747C33.832 59.9412 33.832 59.4078 33.832 58.8582C34.3341 58.8582 34.8361 58.8582 35.3534 58.8582C35.3534 58.6699 35.3534 58.4816 35.3534 58.2877C34.4748 58.2877 33.5962 58.2877 32.691 58.2877C32.691 54.2084 32.691 50.1292 32.691 45.9263C32.3144 45.9263 31.9379 45.9263 31.5499 45.9263C31.5499 50.0056 31.5499 54.0848 31.5499 58.2877C21.697 58.2877 11.8441 58.2877 1.69255 58.2877C1.69255 43.4141 1.69255 28.5406 1.69255 13.2164C1.25325 13.2164 0.813943 13.2164 0.361328 13.2164C0.361328 12.6202 0.361328 12.024 0.361328 11.4097Z" fill="#00367E"/>
<path d="M72.1521 11.4097C81.8795 11.4097 91.607 11.4097 101.629 11.4097C101.629 12.0059 101.629 12.6021 101.629 13.2164C101.158 13.2164 100.688 13.2164 100.203 13.2164C100.203 28.0899 100.203 42.9634 100.203 58.2877C90.3813 58.2877 80.5597 58.2877 70.4406 58.2877C70.4406 54.2084 70.4406 50.1292 70.4406 45.9263C71.1309 45.9263 71.8212 45.9263 72.5325 45.9263C72.5325 45.3301 72.5325 44.7339 72.5325 44.1197C72.407 44.1197 72.2814 44.1197 72.1521 44.1197C72.1521 33.3254 72.1521 22.5311 72.1521 11.4097Z" fill="#00367E"/>
<path d="M32.6909 45.9263C44.7717 45.9263 56.8526 45.9263 69.2995 45.9263C69.2995 50.0056 69.2995 54.0848 69.2995 58.2877C68.4522 58.2877 67.605 58.2877 66.7321 58.2877C66.7321 58.4759 66.7321 58.6642 66.7321 58.8582C67.2028 58.8582 67.6735 58.8582 68.1584 58.8582C68.1584 59.3916 68.1584 59.9251 68.1584 60.4747C56.8307 60.4747 45.503 60.4747 33.832 60.4747C33.832 59.9412 33.832 59.4078 33.832 58.8582C34.334 58.8582 34.8361 58.8582 35.3534 58.8582C35.3534 58.6699 35.3534 58.4816 35.3534 58.2877C34.4748 58.2877 33.5961 58.2877 32.6909 58.2877C32.6909 54.2084 32.6909 50.1292 32.6909 45.9263Z" fill="#00367E"/>
<path d="M36.7797 55.8154C46.162 55.8154 55.5442 55.8154 65.2108 55.8154C65.2108 56.3175 65.2108 56.8195 65.2108 57.3368C65.6815 57.3368 66.1522 57.3368 66.6371 57.3368C66.6371 57.8389 66.6371 58.3409 66.6371 58.8582C67.1392 58.8582 67.6412 58.8582 68.1585 58.8582C68.1585 59.3916 68.1585 59.9251 68.1585 60.4747C56.8308 60.4747 45.503 60.4747 33.832 60.4747C33.832 59.9412 33.832 59.4078 33.832 58.8582C34.3341 58.8582 34.8362 58.8582 35.3534 58.8582C35.3534 58.3561 35.3534 57.8541 35.3534 57.3368C35.8241 57.3368 36.2948 57.3368 36.7797 57.3368C36.7797 56.8347 36.7797 56.3327 36.7797 55.8154Z" fill="#00367E"/>
<path d="M55.4167 45.9263C58.4605 45.9263 61.5042 45.9263 64.6402 45.9263C64.6402 49.1583 64.6402 52.3904 64.6402 55.7203C61.5965 55.7203 58.5527 55.7203 55.4167 55.7203C55.4167 52.4883 55.4167 49.2563 55.4167 45.9263Z" fill="#E6F6F4"/>
<path d="M37.3502 45.9263C40.3626 45.9263 43.3749 45.9263 46.4786 45.9263C46.4786 49.1583 46.4786 52.3904 46.4786 55.7203C43.4662 55.7203 40.4539 55.7203 37.3502 55.7203C37.3502 52.4883 37.3502 49.2563 37.3502 45.9263Z" fill="#E6F6F4"/>
<path d="M28.2219 0.47467C43.2524 0.47467 58.2828 0.47467 73.7687 0.47467C73.7687 1.07087 73.7687 1.66706 73.7687 2.28133C58.7382 2.28133 43.7078 2.28133 28.2219 2.28133C28.2219 1.68513 28.2219 1.08893 28.2219 0.47467Z" fill="#00367E"/>
<path d="M47.1442 45.9263C49.6545 45.9263 52.1648 45.9263 54.7511 45.9263C54.7511 49.1583 54.7511 52.3904 54.7511 55.7203C52.2408 55.7203 49.7305 55.7203 47.1442 55.7203C47.1442 52.4883 47.1442 49.2563 47.1442 45.9263Z" fill="#0652C2"/>
<path d="M29.3629 44.2148C43.6089 44.2148 57.8548 44.2148 72.5325 44.2148C72.5325 44.7796 72.5325 45.3444 72.5325 45.9263C58.2865 45.9263 44.0406 45.9263 29.3629 45.9263C29.3629 45.3615 29.3629 44.7967 29.3629 44.2148Z" fill="#00367E"/>
<path d="M72.1521 11.4097C81.8795 11.4097 91.6069 11.4097 101.629 11.4097C101.629 12.0059 101.629 12.6021 101.629 13.2164C91.9017 13.2164 82.1743 13.2164 72.1521 13.2164C72.1521 12.6202 72.1521 12.024 72.1521 11.4097Z" fill="#00367E"/>
<path d="M0.361328 11.4097C10.0887 11.4097 19.8162 11.4097 29.8383 11.4097C29.8383 12.0059 29.8383 12.6021 29.8383 13.2164C20.1109 13.2164 10.3835 13.2164 0.361328 13.2164C0.361328 12.6202 0.361328 12.024 0.361328 11.4097Z" fill="#00367E"/>
<path d="M33.9271 58.9533C45.2235 58.9533 56.5198 58.9533 68.1585 58.9533C68.1585 59.424 68.1585 59.8946 68.1585 60.3796C56.8622 60.3796 45.5658 60.3796 33.9271 60.3796C33.9271 59.9089 33.9271 59.4382 33.9271 58.9533Z" fill="#00367E"/>
<path d="M36.7797 55.8154C46.1619 55.8154 55.5442 55.8154 65.2107 55.8154C65.2107 56.3175 65.2107 56.8195 65.2107 57.3368C55.8285 57.3368 46.4462 57.3368 36.7797 57.3368C36.7797 56.8347 36.7797 56.3327 36.7797 55.8154Z" fill="#00367E"/>
<path d="M62.0729 45.9263C62.9201 45.9263 63.7674 45.9263 64.6403 45.9263C64.6403 49.1583 64.6403 52.3904 64.6403 55.7203C62.632 55.7203 60.6238 55.7203 58.5547 55.7203C58.8757 54.6504 58.8757 54.6504 59.0463 54.1773C59.0845 54.071 59.1227 53.9647 59.1621 53.8551C59.2027 53.7428 59.2434 53.6305 59.2853 53.5147C59.3288 53.3942 59.3722 53.2736 59.4156 53.1531C59.5306 52.8341 59.6459 52.5153 59.7613 52.1964C59.8326 51.9996 59.9037 51.8028 59.9748 51.6059C60.6605 49.7074 61.3567 47.8136 62.0729 45.9263Z" fill="#0652C2"/>
<path d="M37.3502 45.9263C38.7936 45.9263 40.2371 45.9263 41.7242 45.9263C41.4032 46.9963 41.4032 46.9963 41.2224 47.5C41.182 47.6129 41.1416 47.7258 41.1 47.842C41.0565 47.9628 41.013 48.0836 40.9695 48.2043C40.9233 48.3328 40.8772 48.4613 40.8311 48.5898C40.7344 48.8591 40.6375 49.1283 40.5405 49.3975C40.4195 49.7334 40.2989 50.0694 40.1784 50.4055C39.5404 52.1847 38.8831 53.9556 38.206 55.7203C37.9236 55.7203 37.6412 55.7203 37.3502 55.7203C37.3502 52.4883 37.3502 49.2563 37.3502 45.9263Z" fill="#0652C2"/>
<path d="M70.4406 45.9263C71.0054 45.9263 71.5702 45.9263 72.1521 45.9263C72.1521 50.0056 72.1521 54.0848 72.1521 58.2877C71.5873 58.2877 71.0225 58.2877 70.4406 58.2877C70.4406 54.2084 70.4406 50.1292 70.4406 45.9263Z" fill="#00367E"/>
<path d="M29.8384 45.9263C30.4032 45.9263 30.968 45.9263 31.5499 45.9263C31.5499 50.0056 31.5499 54.0848 31.5499 58.2877C30.9851 58.2877 30.4203 58.2877 29.8384 58.2877C29.8384 54.2084 29.8384 50.1292 29.8384 45.9263Z" fill="#00367E"/>
<path d="M22.8019 15.8788C24.057 15.8788 25.3122 15.8788 26.6054 15.8788C26.6054 17.6988 26.6054 19.5187 26.6054 21.3938C25.3502 21.3938 24.0951 21.3938 22.8019 21.3938C22.8019 19.5739 22.8019 17.7539 22.8019 15.8788Z" fill="#E6F6F4"/>
<path d="M93.2615 34.8011C94.5166 34.8011 95.7718 34.8011 97.065 34.8011C97.065 36.5897 97.065 38.3783 97.065 40.2211C95.8098 40.2211 94.5547 40.2211 93.2615 40.2211C93.2615 38.4325 93.2615 36.6439 93.2615 34.8011Z" fill="#E6F6F4"/>
<path d="M84.3232 34.8011C85.5784 34.8011 86.8335 34.8011 88.1267 34.8011C88.1267 36.5897 88.1267 38.3783 88.1267 40.2211C86.8716 40.2211 85.6164 40.2211 84.3232 40.2211C84.3232 38.4325 84.3232 36.6439 84.3232 34.8011Z" fill="#E6F6F4"/>
<path d="M22.8019 34.8011C24.057 34.8011 25.3122 34.8011 26.6054 34.8011C26.6054 36.5897 26.6054 38.3783 26.6054 40.2211C25.3502 40.2211 24.0951 40.2211 22.8019 40.2211C22.8019 38.4325 22.8019 36.6439 22.8019 34.8011Z" fill="#E6F6F4"/>
<path d="M5.02063 34.8011C6.27578 34.8011 7.53093 34.8011 8.82412 34.8011C8.82412 36.5897 8.82412 38.3783 8.82412 40.2211C7.56897 40.2211 6.31382 40.2211 5.02063 40.2211C5.02063 38.4325 5.02063 36.6439 5.02063 34.8011Z" fill="#E6F6F4"/>
<path d="M93.2615 25.3875C94.5166 25.3875 95.7718 25.3875 97.065 25.3875C97.065 27.1761 97.065 28.9647 97.065 30.8075C95.8098 30.8075 94.5547 30.8075 93.2615 30.8075C93.2615 29.0189 93.2615 27.2303 93.2615 25.3875Z" fill="#E6F6F4"/>
<path d="M13.9587 44.2148C15.1825 44.2148 16.4063 44.2148 17.6671 44.2148C17.6671 46.0347 17.6671 47.8547 17.6671 49.7298C16.4434 49.7298 15.2196 49.7298 13.9587 49.7298C13.9587 47.9098 13.9587 46.0899 13.9587 44.2148Z" fill="#E6F6F4"/>
<path d="M75.4802 44.2148C76.704 44.2148 77.9278 44.2148 79.1886 44.2148C79.1886 46.0033 79.1886 47.7919 79.1886 49.6347C77.9649 49.6347 76.7411 49.6347 75.4802 49.6347C75.4802 47.8461 75.4802 46.0575 75.4802 44.2148Z" fill="#E6F6F4"/>
<path d="M75.4802 34.8011C76.704 34.8011 77.9278 34.8011 79.1886 34.8011C79.1886 36.5897 79.1886 38.3783 79.1886 40.2211C77.9649 40.2211 76.7411 40.2211 75.4802 40.2211C75.4802 38.4325 75.4802 36.6439 75.4802 34.8011Z" fill="#E6F6F4"/>
<path d="M13.9587 34.8011C15.1825 34.8011 16.4063 34.8011 17.6671 34.8011C17.6671 36.5897 17.6671 38.3783 17.6671 40.2211C16.4434 40.2211 15.2196 40.2211 13.9587 40.2211C13.9587 38.4325 13.9587 36.6439 13.9587 34.8011Z" fill="#E6F6F4"/>
<path d="M75.4802 25.3875C76.704 25.3875 77.9278 25.3875 79.1886 25.3875C79.1886 27.1761 79.1886 28.9647 79.1886 30.8075C77.9649 30.8075 76.7411 30.8075 75.4802 30.8075C75.4802 29.0189 75.4802 27.2303 75.4802 25.3875Z" fill="#E6F6F4"/>
<path d="M13.9587 25.3875C15.1825 25.3875 16.4063 25.3875 17.6671 25.3875C17.6671 27.1761 17.6671 28.9647 17.6671 30.8075C16.4434 30.8075 15.2196 30.8075 13.9587 30.8075C13.9587 29.0189 13.9587 27.2303 13.9587 25.3875Z" fill="#E6F6F4"/>
<path d="M75.4802 15.9739C76.704 15.9739 77.9278 15.9739 79.1886 15.9739C79.1886 17.7625 79.1886 19.5511 79.1886 21.3938C77.9649 21.3938 76.7411 21.3938 75.4802 21.3938C75.4802 19.6053 75.4802 17.8167 75.4802 15.9739Z" fill="#E6F6F4"/>
<path d="M13.9587 15.9739C15.1825 15.9739 16.4063 15.9739 17.6671 15.9739C17.6671 17.7625 17.6671 19.5511 17.6671 21.3938C16.4434 21.3938 15.2196 21.3938 13.9587 21.3938C13.9587 19.6053 13.9587 17.8167 13.9587 15.9739Z" fill="#E6F6F4"/>
<path d="M69.2996 45.9263C69.6761 45.9263 70.0527 45.9263 70.4406 45.9263C70.4406 50.7273 70.4406 55.5282 70.4406 60.4747C70.0641 60.4747 69.6875 60.4747 69.2996 60.4747C69.2996 55.6737 69.2996 50.8728 69.2996 45.9263Z" fill="#FEFEFD"/>
<path d="M31.5499 45.9263C31.9265 45.9263 32.303 45.9263 32.691 45.9263C32.691 50.7273 32.691 55.5282 32.691 60.4747C32.3144 60.4747 31.9379 60.4747 31.5499 60.4747C31.5499 55.6737 31.5499 50.8728 31.5499 45.9263Z" fill="#FEFEFE"/>
<path d="M35.0681 35.752C36.1664 35.752 37.2646 35.752 38.3962 35.752C38.3962 37.3837 38.3962 39.0154 38.3962 40.6965C37.2979 40.6965 36.1997 40.6965 35.0681 40.6965C35.0681 39.0649 35.0681 37.4332 35.0681 35.752Z" fill="#E6F6F4"/>
<path d="M35.0681 26.3384C36.1664 26.3384 37.2646 26.3384 38.3962 26.3384C38.3962 27.9701 38.3962 29.6018 38.3962 31.2829C37.2979 31.2829 36.1997 31.2829 35.0681 31.2829C35.0681 29.6512 35.0681 28.0195 35.0681 26.3384Z" fill="#E6F6F4"/>
<path d="M35.0681 16.9247C36.1664 16.9247 37.2646 16.9247 38.3962 16.9247C38.3962 18.5564 38.3962 20.1881 38.3962 21.8693C37.2979 21.8693 36.1997 21.8693 35.0681 21.8693C35.0681 20.2376 35.0681 18.6059 35.0681 16.9247Z" fill="#E6F6F4"/>
<path d="M35.0682 7.51111C36.1665 7.51111 37.2647 7.51111 38.3962 7.51111C38.3962 9.1428 38.3962 10.7745 38.3962 12.4556C37.8648 12.4576 37.3333 12.4596 36.7857 12.4616C36.6178 12.4625 36.4499 12.4633 36.2769 12.4642C36.1445 12.4645 36.0121 12.4647 35.8798 12.4649C35.8105 12.4654 35.7411 12.4659 35.6697 12.4664C35.5009 12.4664 35.332 12.4616 35.1633 12.4556C35.0682 12.3606 35.0682 12.3606 35.0568 12.165C35.057 12.0791 35.0572 11.9931 35.0574 11.9046C35.0574 11.8075 35.0574 11.7104 35.0574 11.6104C35.0579 11.5048 35.0584 11.3992 35.0589 11.2905C35.059 11.1829 35.0592 11.0754 35.0593 10.9647C35.0599 10.6197 35.061 10.2748 35.0623 9.92989C35.0627 9.69669 35.0632 9.46349 35.0636 9.23029C35.0645 8.65723 35.0664 8.08417 35.0682 7.51111Z" fill="#E6F6F4"/>
<path d="M93.5468 44.5C94.6136 44.5 95.6805 44.5 96.7797 44.5C96.7797 46.1317 96.7797 47.7634 96.7797 49.4446C95.7128 49.4446 94.646 49.4446 93.5468 49.4446C93.5468 47.8129 93.5468 46.1812 93.5468 44.5Z" fill="#E6F6F4"/>
<path d="M84.6085 44.5C85.6754 44.5 86.7423 44.5 87.8415 44.5C87.8415 46.1317 87.8415 47.7634 87.8415 49.4446C86.7746 49.4446 85.7077 49.4446 84.6085 49.4446C84.6085 47.8129 84.6085 46.1812 84.6085 44.5Z" fill="#E6F6F4"/>
<path d="M23.0872 44.5C24.154 44.5 25.2209 44.5 26.3201 44.5C26.3201 46.1317 26.3201 47.7634 26.3201 49.4446C25.2532 49.4446 24.1864 49.4446 23.0872 49.4446C23.0872 47.8129 23.0872 46.1812 23.0872 44.5Z" fill="#E6F6F4"/>
<path d="M5.30591 44.5C6.37279 44.5 7.43966 44.5 8.53887 44.5C8.53887 46.1317 8.53887 47.7634 8.53887 49.4446C7.47199 49.4446 6.40512 49.4446 5.30591 49.4446C5.30591 47.8129 5.30591 46.1812 5.30591 44.5Z" fill="#E6F6F4"/>
<path d="M63.5942 35.752C64.6611 35.752 65.728 35.752 66.8272 35.752C66.8272 37.3837 66.8272 39.0154 66.8272 40.6965C65.7603 40.6965 64.6934 40.6965 63.5942 40.6965C63.5942 39.0649 63.5942 37.4332 63.5942 35.752Z" fill="#E6F6F4"/>
<path d="M54.6561 35.752C55.723 35.752 56.7899 35.752 57.8891 35.752C57.8891 37.3837 57.8891 39.0154 57.8891 40.6965C56.8222 40.6965 55.7553 40.6965 54.6561 40.6965C54.6561 39.0649 54.6561 37.4332 54.6561 35.752Z" fill="#E6F6F4"/>
<path d="M44.0063 35.752C45.0732 35.752 46.1401 35.752 47.2393 35.752C47.2393 37.3837 47.2393 39.0154 47.2393 40.6965C46.1724 40.6965 45.1056 40.6965 44.0063 40.6965C44.0063 39.0649 44.0063 37.4332 44.0063 35.752Z" fill="#E6F6F4"/>
<path d="M63.5942 26.3384C64.6611 26.3384 65.728 26.3384 66.8272 26.3384C66.8272 27.9701 66.8272 29.6018 66.8272 31.2829C65.7603 31.2829 64.6934 31.2829 63.5942 31.2829C63.5942 29.6512 63.5942 28.0195 63.5942 26.3384Z" fill="#E6F6F4"/>
<path d="M54.6561 26.3384C55.723 26.3384 56.7899 26.3384 57.8891 26.3384C57.8891 27.9701 57.8891 29.6018 57.8891 31.2829C56.8222 31.2829 55.7553 31.2829 54.6561 31.2829C54.6561 29.6512 54.6561 28.0195 54.6561 26.3384Z" fill="#E6F6F4"/>
<path d="M44.0063 26.3384C45.0732 26.3384 46.1401 26.3384 47.2393 26.3384C47.2393 27.9701 47.2393 29.6018 47.2393 31.2829C46.1724 31.2829 45.1056 31.2829 44.0063 31.2829C44.0063 29.6512 44.0063 28.0195 44.0063 26.3384Z" fill="#E6F6F4"/>
<path d="M84.6085 25.5777C85.6754 25.5777 86.7423 25.5777 87.8415 25.5777C87.8415 27.2094 87.8415 28.8411 87.8415 30.5222C86.7746 30.5222 85.7077 30.5222 84.6085 30.5222C84.6085 28.8905 84.6085 27.2588 84.6085 25.5777Z" fill="#E6F6F4"/>
<path d="M23.0872 25.5777C24.154 25.5777 25.2209 25.5777 26.3201 25.5777C26.3201 27.2094 26.3201 28.8411 26.3201 30.5222C25.2532 30.5222 24.1864 30.5222 23.0872 30.5222C23.0872 28.8905 23.0872 27.2588 23.0872 25.5777Z" fill="#E6F6F4"/>
<path d="M5.30591 25.5777C6.37279 25.5777 7.43966 25.5777 8.53887 25.5777C8.53887 27.2094 8.53887 28.8411 8.53887 30.5222C7.47199 30.5222 6.40512 30.5222 5.30591 30.5222C5.30591 28.8905 5.30591 27.2588 5.30591 25.5777Z" fill="#E6F6F4"/>
<path d="M63.5942 16.9247C64.6611 16.9247 65.728 16.9247 66.8272 16.9247C66.8272 18.5564 66.8272 20.1881 66.8272 21.8693C65.7603 21.8693 64.6934 21.8693 63.5942 21.8693C63.5942 20.2376 63.5942 18.6059 63.5942 16.9247Z" fill="#E6F6F4"/>
<path d="M54.6561 16.9247C55.723 16.9247 56.7899 16.9247 57.8891 16.9247C57.8891 18.5564 57.8891 20.1881 57.8891 21.8693C56.8222 21.8693 55.7553 21.8693 54.6561 21.8693C54.6561 20.2376 54.6561 18.6059 54.6561 16.9247Z" fill="#E6F6F4"/>
<path d="M44.0063 16.9247C45.0732 16.9247 46.1401 16.9247 47.2393 16.9247C47.2393 18.5564 47.2393 20.1881 47.2393 21.8693C46.1724 21.8693 45.1056 21.8693 44.0063 21.8693C44.0063 20.2376 44.0063 18.6059 44.0063 16.9247Z" fill="#E6F6F4"/>
<path d="M93.5468 16.1641C94.6136 16.1641 95.6805 16.1641 96.7797 16.1641C96.7797 17.7958 96.7797 19.4275 96.7797 21.1086C95.7128 21.1086 94.646 21.1086 93.5468 21.1086C93.5468 19.4769 93.5468 17.8452 93.5468 16.1641Z" fill="#E6F6F4"/>
<path d="M84.6085 16.1641C85.6754 16.1641 86.7423 16.1641 87.8415 16.1641C87.8415 17.7958 87.8415 19.4275 87.8415 21.1086C86.7746 21.1086 85.7077 21.1086 84.6085 21.1086C84.6085 19.4769 84.6085 17.8452 84.6085 16.1641Z" fill="#E6F6F4"/>
<path d="M5.30591 16.1641C6.37279 16.1641 7.43966 16.1641 8.53887 16.1641C8.53887 17.7958 8.53887 19.4275 8.53887 21.1086C7.47199 21.1086 6.40512 21.1086 5.30591 21.1086C5.30591 19.4769 5.30591 17.8452 5.30591 16.1641Z" fill="#E6F6F4"/>
<path d="M63.5942 7.51111C64.6611 7.51111 65.728 7.51111 66.8272 7.51111C66.8272 9.1428 66.8272 10.7745 66.8272 12.4556C65.7603 12.4556 64.6934 12.4556 63.5942 12.4556C63.5942 10.8239 63.5942 9.19225 63.5942 7.51111Z" fill="#E6F6F4"/>
<path d="M54.6561 7.51111C55.723 7.51111 56.7899 7.51111 57.8891 7.51111C57.8891 9.1428 57.8891 10.7745 57.8891 12.4556C56.8222 12.4556 55.7553 12.4556 54.6561 12.4556C54.6561 10.8239 54.6561 9.19225 54.6561 7.51111Z" fill="#E6F6F4"/>
<path d="M44.0063 7.51111C45.0732 7.51111 46.1401 7.51111 47.2393 7.51111C47.2393 9.1428 47.2393 10.7745 47.2393 12.4556C46.1724 12.4556 45.1056 12.4556 44.0063 12.4556C44.0063 10.8239 44.0063 9.19225 44.0063 7.51111Z" fill="#E6F6F4"/>
<path d="M46.3835 47.1625C46.4149 47.1625 46.4462 47.1625 46.4786 47.1625C46.4786 49.9866 46.4786 52.8107 46.4786 55.7203C45.4431 55.7203 44.4076 55.7203 43.3407 55.7203C43.6617 54.6505 43.6617 54.6505 43.8501 54.127C43.892 54.0102 43.9339 53.8933 43.9771 53.7729C44.0221 53.6482 44.0671 53.5235 44.1122 53.3989C44.1594 53.2674 44.2067 53.136 44.2539 53.0045C44.3527 52.7301 44.4515 52.4556 44.5505 52.1812C44.6757 51.8342 44.8006 51.4871 44.9254 51.1399C45.023 50.8686 45.1207 50.5972 45.2184 50.3259C45.2644 50.1981 45.3104 50.0704 45.3563 49.9427C45.6909 49.013 46.0347 48.087 46.3835 47.1625Z" fill="#0652C2"/>
<path d="M63.6894 45.9263C64.0032 45.9263 64.3169 45.9263 64.6402 45.9263C64.6402 49.1583 64.6402 52.3904 64.6402 55.7203C64.6089 55.7203 64.5775 55.7203 64.5452 55.7203C64.5138 52.8021 64.4824 49.8839 64.4501 46.8772C64.1461 47.7185 63.8421 48.5599 63.5289 49.4267C62.7687 51.5285 62.0022 53.6277 61.2171 55.7203C60.8719 55.7203 60.5268 55.7203 60.1711 55.7203C60.3802 54.9985 60.6206 54.2932 60.8776 53.5872C60.9182 53.4749 60.9589 53.3627 61.0007 53.2471C61.1096 52.9466 61.2187 52.6462 61.328 52.3458C61.3956 52.16 61.463 51.9741 61.5305 51.7882C62.2406 49.8307 62.9579 47.876 63.6894 45.9263Z" fill="#E6F6F4"/>
<path d="M47.1442 45.9263C47.9914 45.9263 48.8386 45.9263 49.7115 45.9263C49.5974 46.2531 49.4832 46.5799 49.3684 46.9065C49.2667 47.1962 49.1658 47.486 49.0653 47.7761C48.8036 48.5268 48.5309 49.2684 48.2228 50.0013C47.4179 51.9423 47.1454 53.6184 47.2393 55.7203C47.2079 55.7203 47.1765 55.7203 47.1442 55.7203C47.1442 52.4883 47.1442 49.2563 47.1442 45.9263Z" fill="#E6F6F4"/>
<path d="M16.7163 35.0864C16.9673 35.0864 17.2184 35.0864 17.477 35.0864C17.477 36.6867 17.477 38.287 17.477 39.9358C16.5356 39.9358 15.5943 39.9358 14.6244 39.9358C14.8206 39.3471 15.0232 38.8011 15.2844 38.2436C15.337 38.13 15.337 38.13 15.3906 38.014C15.5012 37.7749 15.6125 37.536 15.7238 37.2972C15.8354 37.0569 15.9468 36.8166 16.0581 36.5762C16.1271 36.4275 16.1962 36.2788 16.2654 36.1302C16.4256 35.7855 16.58 35.4413 16.7163 35.0864Z" fill="#0652C2"/>
<path d="M87.1759 35.0864C87.3955 35.0864 87.6152 35.0864 87.8415 35.0864C87.8415 36.6867 87.8415 38.287 87.8415 39.9358C86.9001 39.9358 85.9588 39.9358 84.9889 39.9358C85.6893 38.305 86.4221 36.693 87.1759 35.0864Z" fill="#0652C2"/>
<path d="M25.6545 35.0864C25.8742 35.0864 26.0938 35.0864 26.3201 35.0864C26.3201 36.6867 26.3201 38.287 26.3201 39.9358C25.3788 39.9358 24.4374 39.9358 23.4675 39.9358C24.1679 38.305 24.9008 36.693 25.6545 35.0864Z" fill="#0652C2"/>
<path d="M78.2377 35.0864C78.4573 35.0864 78.677 35.0864 78.9033 35.0864C78.9033 36.6867 78.9033 38.287 78.9033 39.9358C77.9933 39.9358 77.0833 39.9358 76.1458 39.9358C76.342 39.3471 76.5446 38.8011 76.8058 38.2436C76.8583 38.13 76.8583 38.13 76.9119 38.014C77.0226 37.7749 77.1339 37.536 77.2452 37.2972C77.3568 37.0569 77.4682 36.8166 77.5795 36.5762C77.6484 36.4275 77.7175 36.2788 77.7868 36.1302C77.9469 35.7855 78.1013 35.4413 78.2377 35.0864Z" fill="#0652C2"/>
<path d="M54.7512 45.9263C54.9709 45.9263 55.1905 45.9263 55.4168 45.9263C55.4168 49.1583 55.4168 52.3904 55.4168 55.7203C55.1972 55.7203 54.9775 55.7203 54.7512 55.7203C54.7512 52.4883 54.7512 49.2563 54.7512 45.9263Z" fill="#FAFDFE"/>
<path d="M46.4786 45.9263C46.6983 45.9263 46.9179 45.9263 47.1442 45.9263C47.1442 49.1583 47.1442 52.3904 47.1442 55.7203C46.9246 55.7203 46.7049 55.7203 46.4786 55.7203C46.4786 52.4883 46.4786 49.2563 46.4786 45.9263Z" fill="#FCFDFE"/>
<path d="M64.6403 45.9263C64.8285 45.9263 65.0168 45.9263 65.2108 45.9263C65.2108 49.1583 65.2108 52.3904 65.2108 55.7203C65.0225 55.7203 64.8342 55.7203 64.6403 55.7203C64.6403 52.4883 64.6403 49.2563 64.6403 45.9263Z" fill="white"/>
<path d="M36.7797 45.9263C36.9679 45.9263 37.1562 45.9263 37.3502 45.9263C37.3502 49.1583 37.3502 52.3904 37.3502 55.7203C37.1619 55.7203 36.9736 55.7203 36.7797 55.7203C36.7797 52.4883 36.7797 49.2563 36.7797 45.9263Z" fill="#FEFEFE"/>
<path d="M93.2615 44.2148C94.5166 44.2148 95.7718 44.2148 97.065 44.2148C97.065 46.0347 97.065 47.8547 97.065 49.7298C95.8098 49.7298 94.5547 49.7298 93.2615 49.7298C93.2615 47.9098 93.2615 46.0899 93.2615 44.2148ZM93.5467 44.5C93.5467 46.1317 93.5467 47.7634 93.5467 49.4445C94.6136 49.4445 95.6805 49.4445 96.7797 49.4445C96.7797 47.8129 96.7797 46.1812 96.7797 44.5C95.7128 44.5 94.6459 44.5 93.5467 44.5Z" fill="#FDFBFA"/>
<path d="M84.3232 44.2148C85.5784 44.2148 86.8335 44.2148 88.1267 44.2148C88.1267 46.0347 88.1267 47.8547 88.1267 49.7298C86.8716 49.7298 85.6164 49.7298 84.3232 49.7298C84.3232 47.9098 84.3232 46.0899 84.3232 44.2148ZM84.6085 44.5C84.6085 46.1317 84.6085 47.7634 84.6085 49.4445C85.6754 49.4445 86.7423 49.4445 87.8415 49.4445C87.8415 47.8129 87.8415 46.1812 87.8415 44.5C86.7746 44.5 85.7077 44.5 84.6085 44.5Z" fill="#FDFBFA"/>
<path d="M22.8019 44.2148C24.057 44.2148 25.3122 44.2148 26.6054 44.2148C26.6054 46.0347 26.6054 47.8547 26.6054 49.7298C25.3502 49.7298 24.0951 49.7298 22.8019 49.7298C22.8019 47.9098 22.8019 46.0899 22.8019 44.2148ZM23.0871 44.5C23.0871 46.1317 23.0871 47.7634 23.0871 49.4445C24.154 49.4445 25.2209 49.4445 26.3201 49.4445C26.3201 47.8129 26.3201 46.1812 26.3201 44.5C25.2532 44.5 24.1863 44.5 23.0871 44.5Z" fill="#FCFBFA"/>
<path d="M5.02063 44.2148C6.27578 44.2148 7.53093 44.2148 8.82412 44.2148C8.82412 46.0347 8.82412 47.8547 8.82412 49.7298C7.56897 49.7298 6.31382 49.7298 5.02063 49.7298C5.02063 47.9098 5.02063 46.0899 5.02063 44.2148ZM5.30589 44.5C5.30589 46.1317 5.30589 47.7634 5.30589 49.4445C6.37277 49.4445 7.43965 49.4445 8.53885 49.4445C8.53885 47.8129 8.53885 46.1812 8.53885 44.5C7.47198 44.5 6.4051 44.5 5.30589 44.5Z" fill="#FCFAF9"/>
<path d="M63.3091 35.4667C64.5642 35.4667 65.8194 35.4667 67.1126 35.4667C67.1126 37.2867 67.1126 39.1067 67.1126 40.9818C65.8574 40.9818 64.6023 40.9818 63.3091 40.9818C63.3091 39.1618 63.3091 37.3419 63.3091 35.4667ZM63.5943 35.752C63.5943 37.3837 63.5943 39.0154 63.5943 40.6965C64.6612 40.6965 65.7281 40.6965 66.8273 40.6965C66.8273 39.0648 66.8273 37.4331 66.8273 35.752C65.7604 35.752 64.6936 35.752 63.5943 35.752Z" fill="#FDFBFB"/>
<path d="M43.7211 35.4667C44.9762 35.4667 46.2314 35.4667 47.5246 35.4667C47.5246 37.2867 47.5246 39.1067 47.5246 40.9818C46.2694 40.9818 45.0143 40.9818 43.7211 40.9818C43.7211 39.1618 43.7211 37.3419 43.7211 35.4667ZM44.0063 35.752C44.0063 37.3837 44.0063 39.0154 44.0063 40.6965C45.0732 40.6965 46.1401 40.6965 47.2393 40.6965C47.2393 39.0648 47.2393 37.4331 47.2393 35.752C46.1724 35.752 45.1055 35.752 44.0063 35.752Z" fill="#FCFBFB"/>
<path d="M63.3091 26.0531C64.5642 26.0531 65.8194 26.0531 67.1126 26.0531C67.1126 27.8731 67.1126 29.6931 67.1126 31.5682C65.8574 31.5682 64.6023 31.5682 63.3091 31.5682C63.3091 29.7482 63.3091 27.9282 63.3091 26.0531ZM63.5943 26.3384C63.5943 27.9701 63.5943 29.6018 63.5943 31.2829C64.6612 31.2829 65.7281 31.2829 66.8273 31.2829C66.8273 29.6512 66.8273 28.0195 66.8273 26.3384C65.7604 26.3384 64.6936 26.3384 63.5943 26.3384Z" fill="#FDFCFB"/>
<path d="M43.7211 26.0531C44.9762 26.0531 46.2314 26.0531 47.5246 26.0531C47.5246 27.8731 47.5246 29.6931 47.5246 31.5682C46.2694 31.5682 45.0143 31.5682 43.7211 31.5682C43.7211 29.7482 43.7211 27.9282 43.7211 26.0531ZM44.0063 26.3384C44.0063 27.9701 44.0063 29.6018 44.0063 31.2829C45.0732 31.2829 46.1401 31.2829 47.2393 31.2829C47.2393 29.6512 47.2393 28.0195 47.2393 26.3384C46.1724 26.3384 45.1055 26.3384 44.0063 26.3384Z" fill="#FDFCFB"/>
<path d="M84.3232 25.2924C85.5784 25.2924 86.8335 25.2924 88.1267 25.2924C88.1267 27.1124 88.1267 28.9324 88.1267 30.8075C86.8716 30.8075 85.6164 30.8075 84.3232 30.8075C84.3232 28.9875 84.3232 27.1675 84.3232 25.2924ZM84.6085 25.5777C84.6085 27.2094 84.6085 28.8411 84.6085 30.5222C85.6754 30.5222 86.7423 30.5222 87.8415 30.5222C87.8415 28.8905 87.8415 27.2588 87.8415 25.5777C86.7746 25.5777 85.7077 25.5777 84.6085 25.5777Z" fill="#FCFBF9"/>
<path d="M22.8019 25.2924C24.057 25.2924 25.3122 25.2924 26.6054 25.2924C26.6054 27.1124 26.6054 28.9324 26.6054 30.8075C25.3502 30.8075 24.0951 30.8075 22.8019 30.8075C22.8019 28.9875 22.8019 27.1675 22.8019 25.2924ZM23.0871 25.5777C23.0871 27.2094 23.0871 28.8411 23.0871 30.5222C24.154 30.5222 25.2209 30.5222 26.3201 30.5222C26.3201 28.8905 26.3201 27.2588 26.3201 25.5777C25.2532 25.5777 24.1863 25.5777 23.0871 25.5777Z" fill="#FCFAF9"/>
<path d="M5.02063 25.2924C6.27578 25.2924 7.53093 25.2924 8.82412 25.2924C8.82412 27.1124 8.82412 28.9324 8.82412 30.8075C7.56897 30.8075 6.31382 30.8075 5.02063 30.8075C5.02063 28.9875 5.02063 27.1675 5.02063 25.2924ZM5.30589 25.5777C5.30589 27.2094 5.30589 28.8411 5.30589 30.5222C6.37277 30.5222 7.43965 30.5222 8.53885 30.5222C8.53885 28.8905 8.53885 27.2588 8.53885 25.5777C7.47198 25.5777 6.4051 25.5777 5.30589 25.5777Z" fill="#FBFAF9"/>
<path d="M63.3091 16.6395C64.5642 16.6395 65.8194 16.6395 67.1126 16.6395C67.1126 18.4595 67.1126 20.2794 67.1126 22.1546C65.8574 22.1546 64.6023 22.1546 63.3091 22.1546C63.3091 20.3346 63.3091 18.5146 63.3091 16.6395ZM63.5943 16.9248C63.5943 18.5565 63.5943 20.1881 63.5943 21.8693C64.6612 21.8693 65.7281 21.8693 66.8273 21.8693C66.8273 20.2376 66.8273 18.6059 66.8273 16.9248C65.7604 16.9248 64.6936 16.9248 63.5943 16.9248Z" fill="#FDFCFB"/>
<path d="M43.7211 16.6395C44.9762 16.6395 46.2314 16.6395 47.5246 16.6395C47.5246 18.4595 47.5246 20.2794 47.5246 22.1546C46.2694 22.1546 45.0143 22.1546 43.7211 22.1546C43.7211 20.3346 43.7211 18.5146 43.7211 16.6395ZM44.0063 16.9248C44.0063 18.5565 44.0063 20.1881 44.0063 21.8693C45.0732 21.8693 46.1401 21.8693 47.2393 21.8693C47.2393 20.2376 47.2393 18.6059 47.2393 16.9248C46.1724 16.9248 45.1055 16.9248 44.0063 16.9248Z" fill="#FDFBFB"/>
<path d="M93.2615 15.8788C94.5166 15.8788 95.7718 15.8788 97.065 15.8788C97.065 17.6988 97.065 19.5187 97.065 21.3938C95.8098 21.3938 94.5547 21.3938 93.2615 21.3938C93.2615 19.5739 93.2615 17.7539 93.2615 15.8788ZM93.5467 16.164C93.5467 17.7957 93.5467 19.4274 93.5467 21.1086C94.6136 21.1086 95.6805 21.1086 96.7797 21.1086C96.7797 19.4769 96.7797 17.8452 96.7797 16.164C95.7128 16.164 94.6459 16.164 93.5467 16.164Z" fill="#FEFBFA"/>
<path d="M84.3232 15.8788C85.5784 15.8788 86.8335 15.8788 88.1267 15.8788C88.1267 17.6988 88.1267 19.5187 88.1267 21.3938C86.8716 21.3938 85.6164 21.3938 84.3232 21.3938C84.3232 19.5739 84.3232 17.7539 84.3232 15.8788ZM84.6085 16.164C84.6085 17.7957 84.6085 19.4274 84.6085 21.1086C85.6754 21.1086 86.7423 21.1086 87.8415 21.1086C87.8415 19.4769 87.8415 17.8452 87.8415 16.164C86.7746 16.164 85.7077 16.164 84.6085 16.164Z" fill="#FDFBFA"/>
<path d="M22.8019 15.8788C24.057 15.8788 25.3122 15.8788 26.6054 15.8788C26.6054 17.6988 26.6054 19.5187 26.6054 21.3938C25.3502 21.3938 24.0951 21.3938 22.8019 21.3938C22.8019 19.5739 22.8019 17.7539 22.8019 15.8788ZM23.0871 16.164C23.0871 17.7957 23.0871 19.4274 23.0871 21.1086C24.154 21.1086 25.2209 21.1086 26.3201 21.1086C26.3201 19.4769 26.3201 17.8452 26.3201 16.164C25.2532 16.164 24.1863 16.164 23.0871 16.164Z" fill="#FDFBFA"/>
<path d="M5.02063 15.8788C6.27578 15.8788 7.53093 15.8788 8.82412 15.8788C8.82412 17.6988 8.82412 19.5187 8.82412 21.3938C7.56897 21.3938 6.31382 21.3938 5.02063 21.3938C5.02063 19.5739 5.02063 17.7539 5.02063 15.8788ZM5.30589 16.164C5.30589 17.7957 5.30589 19.4274 5.30589 21.1086C6.37277 21.1086 7.43965 21.1086 8.53885 21.1086C8.53885 19.4769 8.53885 17.8452 8.53885 16.164C7.47198 16.164 6.4051 16.164 5.30589 16.164Z" fill="#FCFAF9"/>
<path d="M63.3091 7.22586C64.5642 7.22586 65.8194 7.22586 67.1126 7.22586C67.1126 9.04583 67.1126 10.8658 67.1126 12.7409C65.8574 12.7409 64.6023 12.7409 63.3091 12.7409C63.3091 10.9209 63.3091 9.10098 63.3091 7.22586ZM63.5943 7.51112C63.5943 9.14282 63.5943 10.7745 63.5943 12.4557C64.6612 12.4557 65.7281 12.4557 66.8273 12.4557C66.8273 10.824 66.8273 9.19226 66.8273 7.51112C65.7604 7.51112 64.6936 7.51112 63.5943 7.51112Z" fill="#FCFBFB"/>
<path d="M43.7211 7.22586C44.9762 7.22586 46.2314 7.22586 47.5246 7.22586C47.5246 9.04583 47.5246 10.8658 47.5246 12.7409C46.2694 12.7409 45.0143 12.7409 43.7211 12.7409C43.7211 10.9209 43.7211 9.10098 43.7211 7.22586ZM44.0063 7.51112C44.0063 9.14282 44.0063 10.7745 44.0063 12.4557C45.0732 12.4557 46.1401 12.4557 47.2393 12.4557C47.2393 10.824 47.2393 9.19226 47.2393 7.51112C46.1724 7.51112 45.1055 7.51112 44.0063 7.51112Z" fill="#FCFBFA"/>
<path d="M93.2615 34.8011C94.5166 34.8011 95.7718 34.8011 97.065 34.8011C97.065 36.5897 97.065 38.3783 97.065 40.2211C95.8098 40.2211 94.5547 40.2211 93.2615 40.2211C93.2615 38.4325 93.2615 36.6439 93.2615 34.8011ZM93.5467 35.0864C93.5467 36.6867 93.5467 38.287 93.5467 39.9359C94.6136 39.9359 95.6805 39.9359 96.7797 39.9359C96.7797 38.3355 96.7797 36.7352 96.7797 35.0864C95.7128 35.0864 94.6459 35.0864 93.5467 35.0864Z" fill="#FBFBFD"/>
<path d="M84.3232 34.8011C85.5784 34.8011 86.8335 34.8011 88.1267 34.8011C88.1267 36.5897 88.1267 38.3783 88.1267 40.2211C86.8716 40.2211 85.6164 40.2211 84.3232 40.2211C84.3232 38.4325 84.3232 36.6439 84.3232 34.8011ZM84.6085 35.0864C84.6085 36.6867 84.6085 38.287 84.6085 39.9359C85.6754 39.9359 86.7423 39.9359 87.8415 39.9359C87.8415 38.3355 87.8415 36.7352 87.8415 35.0864C86.7746 35.0864 85.7077 35.0864 84.6085 35.0864Z" fill="#FAFBFC"/>
<path d="M22.8019 34.8011C24.057 34.8011 25.3122 34.8011 26.6054 34.8011C26.6054 36.5897 26.6054 38.3783 26.6054 40.2211C25.3502 40.2211 24.0951 40.2211 22.8019 40.2211C22.8019 38.4325 22.8019 36.6439 22.8019 34.8011ZM23.0871 35.0864C23.0871 36.6867 23.0871 38.287 23.0871 39.9359C24.154 39.9359 25.2209 39.9359 26.3201 39.9359C26.3201 38.3355 26.3201 36.7352 26.3201 35.0864C25.2532 35.0864 24.1863 35.0864 23.0871 35.0864Z" fill="#FAFBFC"/>
<path d="M75.4802 34.8011C76.704 34.8011 77.9278 34.8011 79.1886 34.8011C79.1886 36.5897 79.1886 38.3783 79.1886 40.2211C77.9649 40.2211 76.7411 40.2211 75.4802 40.2211C75.4802 38.4325 75.4802 36.6439 75.4802 34.8011ZM75.7655 35.0864C75.7655 36.6867 75.7655 38.287 75.7655 39.9359C76.801 39.9359 77.8365 39.9359 78.9034 39.9359C78.9034 38.3355 78.9034 36.7352 78.9034 35.0864C77.8679 35.0864 76.8324 35.0864 75.7655 35.0864Z" fill="#F4FAFE"/>
<path d="M5.02063 34.8011C6.27578 34.8011 7.53093 34.8011 8.82412 34.8011C8.82412 36.5897 8.82412 38.3783 8.82412 40.2211C7.56897 40.2211 6.31382 40.2211 5.02063 40.2211C5.02063 38.4325 5.02063 36.6439 5.02063 34.8011ZM5.30589 35.0864C5.30589 36.7181 5.30589 38.3498 5.30589 40.0309C6.37277 40.0309 7.43965 40.0309 8.53885 40.0309C8.53885 38.3992 8.53885 36.7675 8.53885 35.0864C7.47198 35.0864 6.4051 35.0864 5.30589 35.0864Z" fill="#FBFBFC"/>
<path d="M93.2615 25.3875C94.5166 25.3875 95.7718 25.3875 97.065 25.3875C97.065 27.1761 97.065 28.9647 97.065 30.8075C95.8098 30.8075 94.5547 30.8075 93.2615 30.8075C93.2615 29.0189 93.2615 27.2303 93.2615 25.3875ZM93.5467 25.5777C93.5467 27.2094 93.5467 28.8411 93.5467 30.5222C94.6136 30.5222 95.6805 30.5222 96.7797 30.5222C96.7797 28.8905 96.7797 27.2588 96.7797 25.5777C95.7128 25.5777 94.6459 25.5777 93.5467 25.5777Z" fill="#FDFCFC"/>
<path d="M96.6846 16.7346C96.716 16.7346 96.7473 16.7346 96.7797 16.7346C96.7797 18.178 96.7797 19.6214 96.7797 21.1086C96.1207 21.1086 95.4618 21.1086 94.7828 21.1086C94.9968 20.4668 94.9968 20.4668 95.1312 20.1753C95.1611 20.1103 95.1909 20.0452 95.2216 19.9782C95.2692 19.8757 95.2692 19.8757 95.3177 19.7711C95.3508 19.6991 95.3838 19.6272 95.4179 19.5531C95.5229 19.3246 95.6283 19.0964 95.7337 18.8681C95.8391 18.6395 95.9444 18.4108 96.0496 18.1821C96.1148 18.0402 96.1802 17.8984 96.2458 17.7567C96.4013 17.4191 96.5507 17.0815 96.6846 16.7346Z" fill="#0652C2"/>
<path d="M54.4659 35.4667C55.6897 35.4667 56.9135 35.4667 58.1743 35.4667C58.1743 37.2867 58.1743 39.1067 58.1743 40.9818C56.9506 40.9818 55.7268 40.9818 54.4659 40.9818C54.4659 39.1618 54.4659 37.3419 54.4659 35.4667ZM54.6561 35.752C54.6561 37.3837 54.6561 39.0154 54.6561 40.6965C55.723 40.6965 56.7899 40.6965 57.8891 40.6965C57.8891 39.0648 57.8891 37.4331 57.8891 35.752C56.8222 35.752 55.7553 35.752 54.6561 35.752Z" fill="#FAFBFC"/>
<path d="M54.4659 26.0531C55.6897 26.0531 56.9135 26.0531 58.1743 26.0531C58.1743 27.8731 58.1743 29.6931 58.1743 31.5682C56.9506 31.5682 55.7268 31.5682 54.4659 31.5682C54.4659 29.7482 54.4659 27.9282 54.4659 26.0531ZM54.6561 26.3384C54.6561 27.9701 54.6561 29.6018 54.6561 31.2829C55.723 31.2829 56.7899 31.2829 57.8891 31.2829C57.8891 29.6512 57.8891 28.0195 57.8891 26.3384C56.8222 26.3384 55.7553 26.3384 54.6561 26.3384Z" fill="#FBFCFD"/>
<path d="M96.6846 26.1482C96.716 26.1482 96.7473 26.1482 96.7797 26.1482C96.7797 27.5916 96.7797 29.035 96.7797 30.5222C96.1207 30.5222 95.4618 30.5222 94.7828 30.5222C95.1394 29.6008 95.5448 28.7021 95.9477 27.8003C96.0192 27.6398 96.0908 27.4792 96.1623 27.3186C96.3362 26.9284 96.5103 26.5383 96.6846 26.1482Z" fill="#0652C2"/>
<path d="M96.6846 35.6569C96.716 35.6569 96.7473 35.6569 96.7797 35.6569C96.7797 37.069 96.7797 38.481 96.7797 39.9358C96.1207 39.9358 95.4618 39.9358 94.7828 39.9358C95.1662 38.9978 95.5799 38.076 96.0011 37.1545C96.0677 37.0086 96.1343 36.8626 96.2008 36.7166C96.3619 36.3633 96.5232 36.0101 96.6846 35.6569Z" fill="#0652C2"/>
<path d="M66.7322 27.004C66.7636 27.004 66.7949 27.004 66.8273 27.004C66.8273 28.416 66.8273 29.8281 66.8273 31.2829C66.1683 31.2829 65.5094 31.2829 64.8304 31.2829C65.2138 30.3449 65.6275 29.4231 66.0487 28.5016C66.1153 28.3557 66.1819 28.2097 66.2484 28.0637C66.4095 27.7104 66.5708 27.3572 66.7322 27.004Z" fill="#0652C2"/>
<path d="M87.7465 16.8297C87.7778 16.8297 87.8092 16.8297 87.8416 16.8297C87.8416 18.2417 87.8416 19.6537 87.8416 21.1086C87.1826 21.1086 86.5236 21.1086 85.8447 21.1086C86.454 19.6702 87.0894 18.2468 87.7465 16.8297Z" fill="#0652C2"/>
<path d="M47.1442 27.004C47.1756 27.004 47.2069 27.004 47.2393 27.004C47.2393 28.416 47.2393 29.8281 47.2393 31.2829C46.5803 31.2829 45.9214 31.2829 45.2424 31.2829C45.8517 29.8446 46.4871 28.4211 47.1442 27.004Z" fill="#0652C2"/>
<path d="M96.6846 45.0706C96.716 45.0706 96.7473 45.0706 96.7797 45.0706C96.7797 46.4826 96.7797 47.8946 96.7797 49.3495C96.1207 49.3495 95.4618 49.3495 94.7828 49.3495C95.3921 47.9111 96.0275 46.4877 96.6846 45.0706Z" fill="#0652C2"/>
<path d="M26.225 16.8297C26.2564 16.8297 26.2877 16.8297 26.3201 16.8297C26.3201 18.2417 26.3201 19.6537 26.3201 21.1086C25.6611 21.1086 25.0022 21.1086 24.3232 21.1086C24.9325 19.6702 25.568 18.2468 26.225 16.8297Z" fill="#0652C2"/>
<path d="M66.7322 36.4176C66.7636 36.4176 66.7949 36.4176 66.8273 36.4176C66.8273 37.8296 66.8273 39.2417 66.8273 40.6965C66.1683 40.6965 65.5094 40.6965 64.8304 40.6965C65.4397 39.2582 66.0752 37.8347 66.7322 36.4176Z" fill="#0652C2"/>
<path d="M87.7465 26.2433C87.7778 26.2433 87.8092 26.2433 87.8416 26.2433C87.8416 27.6553 87.8416 29.0674 87.8416 30.5222C87.1826 30.5222 86.5236 30.5222 85.8447 30.5222C86.4629 29.0885 87.0953 27.6623 87.7465 26.2433Z" fill="#0652C2"/>
<path d="M47.1442 36.4176C47.1756 36.4176 47.2069 36.4176 47.2393 36.4176C47.2393 37.8296 47.2393 39.2417 47.2393 40.6965C46.5803 40.6965 45.9214 40.6965 45.2424 40.6965C45.8606 39.2629 46.493 37.8366 47.1442 36.4176Z" fill="#0652C2"/>
<path d="M26.225 26.2433C26.2564 26.2433 26.2877 26.2433 26.3201 26.2433C26.3201 27.6553 26.3201 29.0674 26.3201 30.5222C25.6611 30.5222 25.0022 30.5222 24.3232 30.5222C24.9414 29.0885 25.5738 27.6623 26.225 26.2433Z" fill="#0652C2"/>
<path d="M57.794 27.004C57.8253 27.004 57.8567 27.004 57.889 27.004C57.889 28.416 57.889 29.8281 57.889 31.2829C57.2301 31.2829 56.5711 31.2829 55.8922 31.2829C56.5104 29.8492 57.1428 28.423 57.794 27.004Z" fill="#0652C2"/>
<path d="M78.8082 16.8297C78.8396 16.8297 78.871 16.8297 78.9033 16.8297C78.9033 18.2417 78.9033 19.6537 78.9033 21.1086C78.2444 21.1086 77.5854 21.1086 76.9065 21.1086C77.5247 19.6749 78.1571 18.2487 78.8082 16.8297Z" fill="#0652C2"/>
<path d="M66.7322 8.08163C66.7636 8.08163 66.7949 8.08163 66.8273 8.08163C66.8273 9.49368 66.8273 10.9057 66.8273 12.3606C66.1683 12.3606 65.5094 12.3606 64.8304 12.3606C65.4486 10.9269 66.081 9.50063 66.7322 8.08163Z" fill="#0652C2"/>
<path d="M38.2061 27.004C38.2374 27.004 38.2688 27.004 38.3012 27.004C38.3012 28.416 38.3012 29.8281 38.3012 31.2829C37.6736 31.2829 37.046 31.2829 36.3994 31.2829C36.4671 30.9446 36.5139 30.732 36.6522 30.4351C36.6842 30.3656 36.7163 30.2961 36.7493 30.2245C36.7839 30.1509 36.8184 30.0773 36.854 30.0015C36.8896 29.9247 36.9251 29.848 36.9617 29.7689C37.0749 29.5246 37.1888 29.2805 37.3027 29.0365C37.4166 28.7917 37.5303 28.5469 37.6438 28.302C37.7144 28.1498 37.7852 27.9978 37.8562 27.8458C37.8882 27.7769 37.9203 27.708 37.9533 27.6371C37.9815 27.5766 38.0097 27.5162 38.0388 27.4539C38.1216 27.2718 38.1216 27.2718 38.2061 27.004Z" fill="#0652C2"/>
<path d="M87.7465 45.0706C87.7779 45.0706 87.8092 45.0706 87.8416 45.0706C87.8416 46.4826 87.8416 47.8946 87.8416 49.3495C87.214 49.3495 86.5864 49.3495 85.9398 49.3495C86.0075 49.0111 86.0543 48.7986 86.1926 48.5016C86.2246 48.4322 86.2567 48.3627 86.2897 48.2911C86.3243 48.2175 86.3588 48.1439 86.3945 48.068C86.43 47.9913 86.4655 47.9145 86.5021 47.8355C86.6153 47.5911 86.7292 47.3471 86.8431 47.103C86.957 46.8583 87.0707 46.6135 87.1842 46.3686C87.2548 46.2164 87.3256 46.0643 87.3966 45.9124C87.4286 45.8435 87.4607 45.7746 87.4937 45.7036C87.5219 45.6432 87.5502 45.5828 87.5792 45.5205C87.662 45.3383 87.662 45.3383 87.7465 45.0706Z" fill="#0652C2"/>
<path d="M17.2869 16.8297C17.3183 16.8297 17.3496 16.8297 17.382 16.8297C17.382 18.2417 17.382 19.6537 17.382 21.1086C16.7544 21.1086 16.1268 21.1086 15.4802 21.1086C15.5479 20.7702 15.5947 20.5577 15.733 20.2607C15.765 20.1912 15.7971 20.1218 15.8301 20.0502C15.8647 19.9766 15.8992 19.903 15.9349 19.8271C15.9704 19.7504 16.0059 19.6736 16.0425 19.5946C16.1557 19.3502 16.2696 19.1062 16.3836 18.8621C16.4974 18.6174 16.6111 18.3726 16.7246 18.1277C16.7952 17.9755 16.866 17.8234 16.937 17.6714C16.9691 17.6026 17.0011 17.5337 17.0341 17.4627C17.0623 17.4023 17.0906 17.3418 17.1196 17.2796C17.2024 17.0974 17.2024 17.0974 17.2869 16.8297Z" fill="#0652C2"/>
<path d="M47.1442 8.08163C47.1756 8.08163 47.2069 8.08163 47.2393 8.08163C47.2393 9.49368 47.2393 10.9057 47.2393 12.3606C46.6117 12.3606 45.9841 12.3606 45.3375 12.3606C45.4052 12.0222 45.452 11.8097 45.5903 11.5127C45.6223 11.4432 45.6544 11.3738 45.6874 11.3022C45.722 11.2286 45.7565 11.1549 45.7922 11.0791C45.8277 11.0024 45.8632 10.9256 45.8998 10.8466C46.013 10.6022 46.1269 10.3581 46.2409 10.1141C46.3547 9.86937 46.4684 9.62454 46.5819 9.37965C46.6525 9.22748 46.7233 9.07541 46.7943 8.92343C46.8264 8.85455 46.8584 8.78567 46.8914 8.7147C46.9196 8.65426 46.9479 8.59383 46.9769 8.53157C47.0597 8.34942 47.0597 8.34942 47.1442 8.08163Z" fill="#0652C2"/>
<path d="M57.794 36.4176C57.8253 36.4176 57.8567 36.4176 57.889 36.4176C57.889 37.8296 57.889 39.2417 57.889 40.6965C57.2615 40.6965 56.6339 40.6965 55.9873 40.6965C56.055 40.3582 56.1017 40.1457 56.2401 39.8487C56.2721 39.7792 56.3042 39.7097 56.3372 39.6381C56.3718 39.5645 56.4063 39.4909 56.4419 39.4151C56.4775 39.3383 56.513 39.2616 56.5496 39.1825C56.6628 38.9382 56.7767 38.6941 56.8906 38.4501C57.0045 38.2053 57.1182 37.9605 57.2317 37.7156C57.3023 37.5635 57.3731 37.4114 57.4441 37.2594C57.4761 37.1905 57.5082 37.1216 57.5412 37.0507C57.5694 36.9902 57.5976 36.9298 57.6267 36.8675C57.7095 36.6854 57.7095 36.6854 57.794 36.4176Z" fill="#0652C2"/>
<path d="M66.7322 17.4953C66.7636 17.4953 66.795 17.4953 66.8273 17.4953C66.8273 18.9073 66.8273 20.3194 66.8273 21.7742C66.1997 21.7742 65.5721 21.7742 64.9255 21.7742C64.9932 21.4358 65.04 21.2233 65.1783 20.9263C65.2103 20.8569 65.2424 20.7874 65.2754 20.7158C65.31 20.6422 65.3446 20.5686 65.3802 20.4927C65.4157 20.416 65.4512 20.3393 65.4878 20.2602C65.601 20.0158 65.7149 19.7718 65.8289 19.5278C65.9427 19.283 66.0564 19.0382 66.1699 18.7933C66.2405 18.6411 66.3113 18.489 66.3823 18.3371C66.4144 18.2682 66.4464 18.1993 66.4794 18.1283C66.5077 18.0679 66.5359 18.0075 66.5649 17.9452C66.6477 17.7631 66.6477 17.7631 66.7322 17.4953Z" fill="#0652C2"/>
<path d="M26.225 45.1656C26.2564 45.1656 26.2877 45.1656 26.3201 45.1656C26.3201 46.5463 26.3201 47.927 26.3201 49.3495C25.6925 49.3495 25.0649 49.3495 24.4183 49.3495C24.4875 49.0034 24.5391 48.7849 24.6813 48.4797C24.7156 48.4054 24.7499 48.3312 24.7852 48.2548C24.8221 48.1761 24.859 48.0975 24.8971 48.0164C24.935 47.9348 24.9728 47.8531 25.0118 47.769C25.1325 47.5092 25.2538 47.2496 25.3751 46.9901C25.4572 46.8137 25.5392 46.6372 25.6212 46.4607C25.8219 46.0287 26.0233 45.5971 26.225 45.1656Z" fill="#0652C2"/>
<path d="M78.8082 26.3384C78.8396 26.3384 78.871 26.3384 78.9033 26.3384C78.9033 27.719 78.9033 29.0997 78.9033 30.5222C78.2758 30.5222 77.6482 30.5222 77.0016 30.5222C77.0708 30.1762 77.1224 29.9576 77.2646 29.6524C77.2988 29.5782 77.3331 29.504 77.3684 29.4275C77.4054 29.3488 77.4423 29.2702 77.4804 29.1891C77.5182 29.1075 77.5561 29.0259 77.5951 28.9417C77.7157 28.6819 77.837 28.4224 77.9584 28.1629C78.0405 27.9864 78.1225 27.8099 78.2045 27.6334C78.4052 27.2015 78.6065 26.7698 78.8082 26.3384Z" fill="#0652C2"/>
<path d="M38.2061 36.5127C38.2374 36.5127 38.2688 36.5127 38.3012 36.5127C38.3012 37.8934 38.3012 39.274 38.3012 40.6965C37.6736 40.6965 37.046 40.6965 36.3994 40.6965C36.5925 40.1173 36.7899 39.5783 37.0453 39.0292C37.0787 38.9565 37.1121 38.8838 37.1464 38.809C37.2516 38.5802 37.3574 38.3517 37.4632 38.1232C37.5352 37.9668 37.6072 37.8104 37.6792 37.6539C37.8544 37.2733 38.0301 36.8929 38.2061 36.5127Z" fill="#0652C2"/>
<path d="M47.1442 17.5904C47.1756 17.5904 47.2069 17.5904 47.2393 17.5904C47.2393 18.971 47.2393 20.3517 47.2393 21.7742C46.6117 21.7742 45.9841 21.7742 45.3375 21.7742C45.5306 21.195 45.728 20.656 45.9834 20.1068C46.0168 20.0342 46.0502 19.9615 46.0846 19.8867C46.1897 19.6579 46.2955 19.4294 46.4013 19.2009C46.4733 19.0445 46.5453 18.888 46.6173 18.7316C46.7925 18.351 46.9682 17.9706 47.1442 17.5904Z" fill="#0652C2"/>
<path d="M17.2869 26.3384C17.3183 26.3384 17.3496 26.3384 17.382 26.3384C17.382 27.719 17.382 29.0997 17.382 30.5222C16.7544 30.5222 16.1268 30.5222 15.4802 30.5222C15.6733 29.943 15.8707 29.404 16.1261 28.8548C16.1595 28.7822 16.1929 28.7095 16.2273 28.6347C16.3324 28.4059 16.4382 28.1774 16.544 27.9489C16.616 27.7925 16.688 27.6361 16.76 27.4796C16.9352 27.099 17.1109 26.7186 17.2869 26.3384Z" fill="#0652C2"/>
<path d="M57.794 8.17673C57.8253 8.17673 57.8567 8.17673 57.889 8.17673C57.889 9.55739 57.889 10.9381 57.889 12.3606C57.2615 12.3606 56.6339 12.3606 55.9873 12.3606C56.1804 11.7814 56.3778 11.2424 56.6332 10.6932C56.6666 10.6205 56.7 10.5479 56.7343 10.473C56.8395 10.2442 56.9453 10.0158 57.0511 9.78727C57.1231 9.63085 57.1951 9.47441 57.2671 9.31796C57.4422 8.93733 57.6179 8.55696 57.794 8.17673Z" fill="#0652C2"/>
<path d="M17.2869 35.752C17.3183 35.752 17.3496 35.752 17.382 35.752C17.382 37.1327 17.382 38.5133 17.382 39.9358C16.7544 39.9358 16.1268 39.9358 15.4802 39.9358C15.6733 39.3567 15.8707 38.8176 16.1261 38.2685C16.1595 38.1958 16.1929 38.1232 16.2273 38.0483C16.3324 37.8195 16.4382 37.591 16.544 37.3626C16.616 37.2061 16.688 37.0497 16.76 36.8932C16.9352 36.5126 17.1109 36.1322 17.2869 35.752Z" fill="#0652C2"/>
<path d="M78.8082 45.1656C78.8396 45.1656 78.871 45.1656 78.9033 45.1656C78.9033 46.5463 78.9033 47.927 78.9033 49.3495C78.2758 49.3495 77.6482 49.3495 77.0016 49.3495C77.1947 48.7703 77.3921 48.2313 77.6475 47.6821C77.6809 47.6095 77.7142 47.5368 77.7486 47.4619C77.8538 47.2332 77.9596 47.0047 78.0654 46.7762C78.1374 46.6198 78.2094 46.4633 78.2814 46.3069C78.4565 45.9263 78.6322 45.5459 78.8082 45.1656Z" fill="#0652C2"/>
<path d="M38.2061 8.17673C38.2374 8.17673 38.2688 8.17673 38.3012 8.17673C38.3012 9.55739 38.3012 10.9381 38.3012 12.3606C37.6736 12.3606 37.046 12.3606 36.3994 12.3606C36.5925 11.7814 36.7899 11.2424 37.0453 10.6932C37.0787 10.6205 37.1121 10.5479 37.1464 10.473C37.2516 10.2442 37.3574 10.0158 37.4632 9.78727C37.5352 9.63085 37.6072 9.47441 37.6792 9.31796C37.8544 8.93733 38.0301 8.55696 38.2061 8.17673Z" fill="#0652C2"/>
<path d="M8.34865 16.9247C8.38003 16.9247 8.41141 16.9247 8.44374 16.9247C8.44374 18.3054 8.44374 19.6861 8.44374 21.1086C7.81616 21.1086 7.18858 21.1086 6.54199 21.1086C6.73506 20.5294 6.93248 19.9904 7.18792 19.4412C7.22128 19.3686 7.25465 19.2959 7.28902 19.221C7.39419 18.9923 7.49997 18.7638 7.60578 18.5353C7.67782 18.3789 7.74981 18.2224 7.82177 18.066C7.99693 17.6853 8.17264 17.305 8.34865 16.9247Z" fill="#0652C2"/>
<path d="M57.794 17.5904C57.8253 17.5904 57.8567 17.5904 57.889 17.5904C57.889 18.971 57.889 20.3517 57.889 21.7742C57.2615 21.7742 56.6339 21.7742 55.9873 21.7742C56.165 21.2412 56.3256 20.7747 56.5608 20.2758C56.5872 20.2195 56.6135 20.1632 56.6407 20.1052C56.7235 19.9284 56.8071 19.7518 56.8906 19.5753C56.9741 19.3981 57.0574 19.2207 57.1406 19.0434C57.2159 18.8829 57.2916 18.7226 57.3674 18.5624C57.5158 18.2407 57.6558 17.9166 57.794 17.5904Z" fill="#0652C2"/>
<path d="M17.2869 45.1656C17.3183 45.1656 17.3496 45.1656 17.382 45.1656C17.382 46.5463 17.382 47.927 17.382 49.3495C16.7544 49.3495 16.1268 49.3495 15.4802 49.3495C15.6579 48.8165 15.8185 48.35 16.0537 47.8511C16.0801 47.7948 16.1064 47.7385 16.1336 47.6805C16.2165 47.5036 16.3 47.3271 16.3836 47.1506C16.467 46.9733 16.5503 46.796 16.6335 46.6187C16.7089 46.4582 16.7846 46.2979 16.8603 46.1376C17.0087 45.8159 17.1487 45.4919 17.2869 45.1656Z" fill="#0652C2"/>
<path d="M38.2061 17.5904C38.2374 17.5904 38.2688 17.5904 38.3012 17.5904C38.3012 18.971 38.3012 20.3517 38.3012 21.7742C37.6736 21.7742 37.046 21.7742 36.3994 21.7742C36.5925 21.195 36.7899 20.656 37.0453 20.1068C37.0787 20.0342 37.1121 19.9615 37.1464 19.8867C37.2516 19.6579 37.3574 19.4294 37.4632 19.2009C37.5352 19.0445 37.6072 18.888 37.6792 18.7316C37.8544 18.351 38.0301 17.9706 38.2061 17.5904Z" fill="#0652C2"/>
<path d="M8.34865 26.3384C8.38003 26.3384 8.41141 26.3384 8.44374 26.3384C8.44374 27.719 8.44374 29.0997 8.44374 30.5222C7.81616 30.5222 7.18858 30.5222 6.54199 30.5222C6.65497 30.1833 6.7579 29.876 6.90214 29.5552C6.93449 29.4829 6.96684 29.4106 7.00017 29.3361C7.05174 29.222 7.05174 29.222 7.10434 29.1056C7.13995 29.0262 7.17556 28.9468 7.21225 28.865C7.32535 28.613 7.43881 28.3612 7.55229 28.1094C7.62933 27.9379 7.70634 27.7664 7.78333 27.5949C7.97148 27.176 8.15997 26.7571 8.34865 26.3384Z" fill="#0652C2"/>
<path d="M75.4802 25.3875C76.704 25.3875 77.9278 25.3875 79.1886 25.3875C79.1886 27.1761 79.1886 28.9647 79.1886 30.8075C77.9649 30.8075 76.7411 30.8075 75.4802 30.8075C75.4802 29.0189 75.4802 27.2303 75.4802 25.3875ZM75.6704 25.5777C75.6704 27.2094 75.6704 28.8411 75.6704 30.5222C76.7373 30.5222 77.8042 30.5222 78.9034 30.5222C78.9034 28.8905 78.9034 27.2588 78.9034 25.5777C77.8365 25.5777 76.7696 25.5777 75.6704 25.5777Z" fill="#FAFCFE"/>
<path d="M54.4659 16.6395C55.6897 16.6395 56.9135 16.6395 58.1743 16.6395C58.1743 18.4281 58.1743 20.2167 58.1743 22.0595C56.9506 22.0595 55.7268 22.0595 54.4659 22.0595C54.4659 20.2709 54.4659 18.4823 54.4659 16.6395ZM54.6561 16.9248C54.6561 18.5565 54.6561 20.1881 54.6561 21.8693C55.723 21.8693 56.7899 21.8693 57.8891 21.8693C57.8891 20.2376 57.8891 18.6059 57.8891 16.9248C56.8222 16.9248 55.7553 16.9248 54.6561 16.9248Z" fill="#FBFCFE"/>
<path d="M75.4802 15.9739C76.704 15.9739 77.9278 15.9739 79.1886 15.9739C79.1886 17.7625 79.1886 19.5511 79.1886 21.3938C77.9649 21.3938 76.7411 21.3938 75.4802 21.3938C75.4802 19.6053 75.4802 17.8167 75.4802 15.9739ZM75.6704 16.1641C75.6704 17.7957 75.6704 19.4274 75.6704 21.1086C76.7373 21.1086 77.8042 21.1086 78.9034 21.1086C78.9034 19.4769 78.9034 17.8452 78.9034 16.1641C77.8365 16.1641 76.7696 16.1641 75.6704 16.1641Z" fill="#FBFCFE"/>
<path d="M54.4659 7.22586C55.6897 7.22586 56.9135 7.22586 58.1743 7.22586C58.1743 9.01445 58.1743 10.803 58.1743 12.6458C56.9506 12.6458 55.7268 12.6458 54.4659 12.6458C54.4659 10.8572 54.4659 9.06865 54.4659 7.22586ZM54.6561 7.51112C54.6561 9.14282 54.6561 10.7745 54.6561 12.4557C55.723 12.4557 56.7899 12.4557 57.8891 12.4557C57.8891 10.824 57.8891 9.19226 57.8891 7.51112C56.8222 7.51112 55.7553 7.51112 54.6561 7.51112Z" fill="#FAFCFE"/>
<path d="M8.34865 35.752C8.38003 35.752 8.41141 35.752 8.44374 35.752C8.44374 37.1327 8.44374 38.5133 8.44374 39.9358C7.81616 39.9358 7.18858 39.9358 6.54199 39.9358C6.75591 39.2941 6.75591 39.2941 6.89191 38.9996C6.92204 38.9339 6.95218 38.8682 6.98323 38.8006C7.03123 38.6972 7.03123 38.6972 7.0802 38.5916C7.11347 38.5192 7.14675 38.4469 7.18103 38.3723C7.28668 38.1425 7.39271 37.913 7.49881 37.6835C7.60519 37.4529 7.71148 37.2223 7.8176 36.9916C7.88347 36.8485 7.9495 36.7054 8.01571 36.5624C8.13913 36.2945 8.25528 36.0321 8.34865 35.752Z" fill="#0652C2"/>
<path d="M8.34865 45.2607C8.38003 45.2607 8.41141 45.2607 8.44374 45.2607C8.44374 46.61 8.44374 47.9593 8.44374 49.3495C7.81616 49.3495 7.18858 49.3495 6.54199 49.3495C6.8798 48.4736 7.26879 47.6234 7.65927 46.7702C7.72627 46.6234 7.79325 46.4765 7.86021 46.3297C8.02279 45.9733 8.18565 45.617 8.34865 45.2607Z" fill="#0652C2"/>
<path d="M13.9587 44.2148C15.1825 44.2148 16.4063 44.2148 17.6671 44.2148C17.6671 46.0347 17.6671 47.8547 17.6671 49.7298C16.4434 49.7298 15.2196 49.7298 13.9587 49.7298C13.9587 47.9098 13.9587 46.0899 13.9587 44.2148ZM14.1489 44.5C14.1489 46.1317 14.1489 47.7634 14.1489 49.4445C15.2472 49.4445 16.3454 49.4445 17.477 49.4445C17.477 47.8129 17.477 46.1812 17.477 44.5C16.3787 44.5 15.2805 44.5 14.1489 44.5Z" fill="#FEFDFC"/>
<path d="M34.8779 35.4667C36.1017 35.4667 37.3255 35.4667 38.5863 35.4667C38.5863 37.2867 38.5863 39.1067 38.5863 40.9818C37.3626 40.9818 36.1388 40.9818 34.8779 40.9818C34.8779 39.1618 34.8779 37.3419 34.8779 35.4667ZM35.0681 35.752C35.0681 37.3837 35.0681 39.0154 35.0681 40.6965C36.1664 40.6965 37.2646 40.6965 38.3962 40.6965C38.3962 39.0648 38.3962 37.4331 38.3962 35.752C37.2979 35.752 36.1996 35.752 35.0681 35.752Z" fill="#FEFDFC"/>
<path d="M34.8779 26.0531C36.1017 26.0531 37.3255 26.0531 38.5863 26.0531C38.5863 27.8731 38.5863 29.6931 38.5863 31.5682C37.3626 31.5682 36.1388 31.5682 34.8779 31.5682C34.8779 29.7482 34.8779 27.9282 34.8779 26.0531ZM35.0681 26.3384C35.0681 27.9701 35.0681 29.6018 35.0681 31.2829C36.1664 31.2829 37.2646 31.2829 38.3962 31.2829C38.3962 29.6512 38.3962 28.0195 38.3962 26.3384C37.2979 26.3384 36.1996 26.3384 35.0681 26.3384Z" fill="#FEFDFD"/>
<path d="M13.9587 34.8011C15.1825 34.8011 16.4063 34.8011 17.6671 34.8011C17.6671 36.5897 17.6671 38.3783 17.6671 40.2211C16.4434 40.2211 15.2196 40.2211 13.9587 40.2211C13.9587 38.4325 13.9587 36.6439 13.9587 34.8011ZM14.1489 35.0864C14.1489 36.6867 14.1489 38.287 14.1489 39.9359C15.2472 39.9359 16.3454 39.9359 17.477 39.9359C17.477 38.3355 17.477 36.7352 17.477 35.0864C16.3787 35.0864 15.2805 35.0864 14.1489 35.0864Z" fill="#FAFDFE"/>
<path d="M13.9587 25.3875C15.1825 25.3875 16.4063 25.3875 17.6671 25.3875C17.6671 27.1761 17.6671 28.9647 17.6671 30.8075C16.4434 30.8075 15.2196 30.8075 13.9587 30.8075C13.9587 29.0189 13.9587 27.2303 13.9587 25.3875ZM14.1489 25.6728C14.14 25.8245 14.1377 25.9767 14.1381 26.1287C14.1381 26.2258 14.1381 26.3229 14.1381 26.4229C14.1386 26.5285 14.1391 26.6341 14.1396 26.7429C14.1398 26.8504 14.1399 26.9579 14.14 27.0686C14.1406 27.4136 14.1418 27.7585 14.143 28.1034C14.1434 28.3366 14.1439 28.5698 14.1443 28.803C14.1452 29.3761 14.1471 29.9492 14.1489 30.5222C15.2472 30.5222 16.3454 30.5222 17.477 30.5222C17.4791 29.8333 17.481 29.1444 17.4822 28.4555C17.4827 28.221 17.4833 27.9864 17.4841 27.7519C17.4853 27.4155 17.4858 27.0792 17.4863 26.7429C17.4867 26.6373 17.4872 26.5317 17.4877 26.4229C17.4877 26.3258 17.4878 26.2288 17.4878 26.1287C17.488 26.0428 17.4882 25.9569 17.4884 25.8683C17.4987 25.6735 17.4987 25.6735 17.3819 25.5777C17.1502 25.5681 16.9213 25.5644 16.6895 25.5651C16.6202 25.565 16.5509 25.5649 16.4796 25.5648C16.3328 25.5647 16.186 25.5649 16.0393 25.5653C15.8139 25.5658 15.5885 25.5653 15.3631 25.5647C15.2209 25.5647 15.0786 25.5649 14.9364 25.5651C14.8685 25.5649 14.8007 25.5647 14.7308 25.5645C14.4128 25.5381 14.4128 25.5381 14.1489 25.6728Z" fill="#FDFEFE"/>
<path d="M34.8779 7.22586C36.1017 7.22586 37.3255 7.22586 38.5863 7.22586C38.5863 9.01445 38.5863 10.803 38.5863 12.6458C37.3626 12.6458 36.1388 12.6458 34.8779 12.6458C34.8779 10.8572 34.8779 9.06865 34.8779 7.22586ZM35.0681 7.51112C35.0659 8.20002 35.064 8.88891 35.0629 9.57781C35.0624 9.81237 35.0618 10.0469 35.0609 10.2815C35.0598 10.6178 35.0592 10.9541 35.0588 11.2905C35.0583 11.3961 35.0578 11.5016 35.0573 11.6104C35.0573 11.7075 35.0573 11.8046 35.0573 11.9046C35.0571 11.9905 35.0569 12.0765 35.0567 12.165C35.0463 12.3599 35.0463 12.3599 35.1632 12.4557C35.4029 12.4641 35.64 12.4666 35.8797 12.4649C35.9431 12.4648 36.0066 12.4647 36.072 12.4647C36.3099 12.4642 36.5477 12.4628 36.7856 12.4616C37.3171 12.4596 37.8486 12.4577 38.3962 12.4557C38.3962 10.824 38.3962 9.19226 38.3962 7.51112C37.2979 7.51112 36.1996 7.51112 35.0681 7.51112Z" fill="#FDFEFE"/>
<path d="M75.4802 44.2148C76.704 44.2148 77.9278 44.2148 79.1886 44.2148C79.1886 46.0033 79.1886 47.7919 79.1886 49.6347C77.9649 49.6347 76.7411 49.6347 75.4802 49.6347C75.4802 47.8461 75.4802 46.0575 75.4802 44.2148ZM75.6704 44.5C75.6704 46.1317 75.6704 47.7634 75.6704 49.4445C76.7687 49.4445 77.8669 49.4445 78.9984 49.4445C78.9984 47.8129 78.9984 46.1812 78.9984 44.5C77.9002 44.5 76.8019 44.5 75.6704 44.5Z" fill="#FEFEFE"/>
<path d="M34.8779 16.6395C36.1017 16.6395 37.3255 16.6395 38.5863 16.6395C38.5863 18.4281 38.5863 20.2167 38.5863 22.0595C37.3626 22.0595 36.1388 22.0595 34.8779 22.0595C34.8779 20.2709 34.8779 18.4823 34.8779 16.6395ZM35.0681 16.9248C35.0681 18.5565 35.0681 20.1881 35.0681 21.8693C36.1664 21.8693 37.2646 21.8693 38.3962 21.8693C38.3962 20.2376 38.3962 18.6059 38.3962 16.9248C37.2979 16.9248 36.1996 16.9248 35.0681 16.9248Z" fill="#FEFEFE"/>
<path d="M13.9587 15.9739C15.1825 15.9739 16.4063 15.9739 17.6671 15.9739C17.6671 17.7625 17.6671 19.5511 17.6671 21.3938C16.4434 21.3938 15.2196 21.3938 13.9587 21.3938C13.9587 19.6053 13.9587 17.8167 13.9587 15.9739ZM14.1489 16.1641C14.1489 17.7957 14.1489 19.4274 14.1489 21.1086C15.2472 21.1086 16.3454 21.1086 17.477 21.1086C17.477 19.4769 17.477 17.8452 17.477 16.1641C16.3787 16.1641 15.2805 16.1641 14.1489 16.1641Z" fill="#FEFEFD"/>
<path d="M55.5118 45.9263C55.9825 45.9263 56.4532 45.9263 56.9381 45.9263C56.6971 46.7669 56.4068 47.5877 56.1121 48.4105C56.063 48.5482 56.0139 48.6858 55.9648 48.8235C55.8458 49.1574 55.7264 49.4912 55.6069 49.8249C55.5755 49.8249 55.5442 49.8249 55.5118 49.8249C55.5118 48.5384 55.5118 47.2518 55.5118 45.9263Z" fill="#0652C2"/>
<path d="M47.2393 45.9263C47.7099 45.9263 48.1806 45.9263 48.6656 45.9263C48.2472 47.2042 47.8076 48.4712 47.3343 49.7298C47.303 49.7298 47.2716 49.7298 47.2393 49.7298C47.2393 48.4747 47.2393 47.2195 47.2393 45.9263Z" fill="#0652C2"/>
<path d="M46.3835 52.0119C46.4149 52.0119 46.4462 52.0119 46.4786 52.0119C46.4786 53.2357 46.4786 54.4594 46.4786 55.7203C46.0393 55.7203 45.6 55.7203 45.1473 55.7203C45.2255 55.251 45.3372 54.8482 45.5013 54.4077C45.5265 54.3388 45.5517 54.27 45.5777 54.199C45.6576 53.9809 45.7382 53.763 45.8189 53.5452C45.8735 53.3966 45.928 53.2481 45.9825 53.0995C46.1156 52.7367 46.2494 52.3743 46.3835 52.0119Z" fill="#E6F6F4"/>
<path d="M54.6561 52.107C54.6874 52.107 54.7188 52.107 54.7511 52.107C54.7511 53.2994 54.7511 54.4918 54.7511 55.7203C54.3118 55.7203 53.8725 55.7203 53.4199 55.7203C53.6479 54.9279 53.9185 54.1541 54.1984 53.3788C54.243 53.2549 54.2875 53.1309 54.332 53.007C54.4398 52.7069 54.5478 52.4069 54.6561 52.107Z" fill="#E6F6F4"/>
<path d="M57.2235 35.8471C57.3804 35.8471 57.5373 35.8471 57.6989 35.8471C57.5211 36.4137 57.3139 36.9531 57.063 37.4911C57.0304 37.5622 56.9977 37.6332 56.964 37.7065C56.8607 37.9308 56.7569 38.1548 56.653 38.3788C56.5492 38.6035 56.4456 38.8283 56.342 39.0532C56.2779 39.1922 56.2136 39.3312 56.1493 39.4701C55.9615 39.8761 55.7814 40.2846 55.607 40.6966C55.4501 40.6966 55.2932 40.6966 55.1316 40.6966C55.1944 40.2357 55.3808 39.8518 55.5762 39.4352C55.611 39.3598 55.6459 39.2844 55.6818 39.2067C55.7931 38.9662 55.9051 38.726 56.0171 38.4858C56.1279 38.2469 56.2387 38.0079 56.3493 37.7689C56.4181 37.6206 56.487 37.4723 56.556 37.3241C56.784 36.8341 57.0055 36.3415 57.2235 35.8471Z" fill="#0652C2"/>
<path d="M57.2235 26.4335C57.3804 26.4335 57.5373 26.4335 57.6989 26.4335C57.5166 27.018 57.2986 27.5715 57.0389 28.1257C57.0039 28.2015 56.9689 28.2772 56.9328 28.3553C56.8221 28.5944 56.7108 28.8333 56.5995 29.0721C56.4879 29.3124 56.3765 29.5527 56.2652 29.7931C56.1963 29.9418 56.1272 30.0905 56.0579 30.2392C55.8978 30.5838 55.7434 30.928 55.607 31.2829C55.4187 31.2829 55.2305 31.2829 55.0365 31.2829C55.7332 29.6509 56.4699 28.0398 57.2235 26.4335Z" fill="#0652C2"/>
<path d="M37.6355 26.4335C37.7924 26.4335 37.9493 26.4335 38.1109 26.4335C37.9331 27 37.7259 27.5395 37.475 28.0774C37.4423 28.1485 37.4097 28.2196 37.376 28.2928C37.2727 28.5171 37.1689 28.7412 37.065 28.9652C36.9612 29.1899 36.8575 29.4147 36.754 29.6395C36.6899 29.7786 36.6256 29.9175 36.5612 30.0564C36.3734 30.4625 36.1934 30.8709 36.019 31.2829C35.8621 31.2829 35.7052 31.2829 35.5436 31.2829C35.6064 30.8221 35.7928 30.4382 35.9882 30.0215C36.023 29.9461 36.0579 29.8707 36.0938 29.7931C36.2051 29.5525 36.317 29.3123 36.4291 29.0721C36.5399 28.8332 36.6506 28.5943 36.7613 28.3553C36.8301 28.2069 36.899 28.0586 36.968 27.9104C37.196 27.4205 37.4175 26.9279 37.6355 26.4335Z" fill="#0652C2"/>
<path d="M16.7163 25.6728C16.8732 25.6728 17.0301 25.6728 17.1917 25.6728C17.1289 26.1336 16.9425 26.5175 16.7471 26.9342C16.7123 27.0095 16.6775 27.0849 16.6416 27.1626C16.5303 27.4031 16.4183 27.6433 16.3062 27.8835C16.1954 28.1224 16.0847 28.3614 15.974 28.6004C15.9052 28.7487 15.8363 28.897 15.7673 29.0452C15.5393 29.5352 15.3179 30.0278 15.0998 30.5222C14.9429 30.5222 14.786 30.5222 14.6244 30.5222C14.8023 29.9556 15.0094 29.4162 15.2603 28.8782C15.293 28.8072 15.3257 28.7361 15.3593 28.6628C15.4626 28.4385 15.5664 28.2145 15.6703 27.9905C15.7741 27.7658 15.8778 27.541 15.9814 27.3161C16.0455 27.1771 16.1097 27.0381 16.1741 26.8992C16.3619 26.4932 16.5419 26.0847 16.7163 25.6728Z" fill="#0652C2"/>
<path d="M46.5737 16.9247C46.7306 16.9247 46.8875 16.9247 47.0492 16.9247C46.9864 17.3856 46.7999 17.7695 46.6046 18.1861C46.5697 18.2615 46.5349 18.3369 46.499 18.4146C46.3877 18.6551 46.2757 18.8953 46.1637 19.1355C46.0528 19.3744 45.9421 19.6134 45.8314 19.8524C45.7626 20.0007 45.6938 20.149 45.6247 20.2972C45.3968 20.7872 45.1753 21.2797 44.9572 21.7742C44.8004 21.7742 44.6435 21.7742 44.4818 21.7742C44.6597 21.2076 44.8668 20.6682 45.1177 20.1302C45.1504 20.0591 45.1831 19.9881 45.2168 19.9148C45.32 19.6905 45.4239 19.4665 45.5278 19.2425C45.6315 19.0178 45.7352 18.793 45.8388 18.5681C45.9029 18.4291 45.9671 18.2901 46.0315 18.1512C46.2193 17.7452 46.3993 17.3367 46.5737 16.9247Z" fill="#0652C2"/>
<path d="M96.1141 16.2591C96.271 16.2591 96.4279 16.2591 96.5896 16.2591C96.2109 17.1901 95.8036 18.1076 95.3928 19.0248C95.2808 19.2752 95.1691 19.5258 95.0574 19.7764C94.9862 19.9356 94.915 20.0948 94.8438 20.2539C94.8104 20.3289 94.7771 20.4038 94.7427 20.4811C94.5085 21.0026 94.5085 21.0026 94.4026 21.1086C94.2441 21.1124 94.0856 21.1126 93.9271 21.1086C94.0697 20.6504 94.2517 20.2226 94.452 19.7878C94.4843 19.7169 94.5167 19.6461 94.5501 19.5732C94.6184 19.4238 94.6869 19.2746 94.7555 19.1253C94.8592 18.9 94.9623 18.6744 95.0654 18.4487C95.4025 17.7124 95.743 16.9791 96.1141 16.2591Z" fill="#0652C2"/>
<path d="M78.2377 16.2591C78.3946 16.2591 78.5515 16.2591 78.7131 16.2591C78.5307 16.8437 78.3127 17.3972 78.0531 17.9514C78.018 18.0271 77.983 18.1029 77.9469 18.1809C77.8363 18.4201 77.725 18.6589 77.6137 18.8978C77.5021 19.138 77.3907 19.3784 77.2794 19.6187C77.2104 19.7675 77.1413 19.9162 77.072 20.0648C76.9119 20.4094 76.7575 20.7536 76.6212 21.1086C76.4329 21.1086 76.2446 21.1086 76.0507 21.1086C76.7474 19.4765 77.484 17.8654 78.2377 16.2591Z" fill="#0652C2"/>
<path d="M16.7163 16.2591C16.8732 16.2591 17.0301 16.2591 17.1917 16.2591C17.0139 16.8257 16.8067 17.3651 16.5558 17.9031C16.5232 17.9742 16.4905 18.0453 16.4568 18.1185C16.3535 18.3428 16.2497 18.5668 16.1458 18.7908C16.042 19.0156 15.9384 19.2404 15.8348 19.4652C15.7707 19.6042 15.7064 19.7432 15.642 19.8821C15.4542 20.2881 15.2742 20.6966 15.0998 21.1086C14.9429 21.1086 14.786 21.1086 14.6244 21.1086C14.6872 20.6477 14.8736 20.2638 15.069 19.8472C15.1038 19.7718 15.1387 19.6964 15.1746 19.6187C15.2859 19.3782 15.3979 19.138 15.5099 18.8978C15.6207 18.6589 15.7315 18.4199 15.8421 18.1809C15.9109 18.0326 15.9798 17.8843 16.0488 17.7361C16.2768 17.2461 16.4983 16.7536 16.7163 16.2591Z" fill="#0652C2"/>
<path d="M87.1759 44.5C87.3328 44.5 87.4897 44.5 87.6513 44.5C87.4735 45.0666 87.2663 45.606 87.0154 46.144C86.9828 46.2151 86.9501 46.2862 86.9164 46.3594C86.8131 46.5837 86.7093 46.8077 86.6054 47.0317C86.5016 47.2565 86.398 47.4813 86.2944 47.7061C86.2303 47.8451 86.166 47.9841 86.1016 48.123C85.9138 48.529 85.7338 48.9375 85.5594 49.3495C85.4025 49.3495 85.2456 49.3495 85.084 49.3495C85.1468 48.8886 85.3332 48.5047 85.5286 48.0881C85.5634 48.0127 85.5983 47.9373 85.6342 47.8596C85.7455 47.6191 85.8575 47.3789 85.9695 47.1387C86.0803 46.8998 86.1911 46.6608 86.3017 46.4218C86.3705 46.2735 86.4394 46.1252 86.5084 45.977C86.7364 45.487 86.9579 44.9945 87.1759 44.5Z" fill="#0652C2"/>
<path d="M78.2377 44.5C78.4259 44.5 78.6142 44.5 78.8082 44.5C78.1114 46.1321 77.3748 47.7432 76.6212 49.3495C76.4643 49.3495 76.3074 49.3495 76.1458 49.3495C76.3325 48.7469 76.5615 48.1794 76.8299 47.6089C76.8673 47.5285 76.9047 47.4481 76.9431 47.3652C77.0612 47.1112 77.1799 46.8575 77.2987 46.6038C77.418 46.3481 77.5372 46.0922 77.6563 45.8363C77.73 45.6778 77.804 45.5194 77.8782 45.3611C77.9115 45.2896 77.9448 45.2181 77.9792 45.1445C78.0085 45.0819 78.0379 45.0192 78.0681 44.9546C78.153 44.7687 78.153 44.7687 78.2377 44.5Z" fill="#0652C2"/>
<path d="M25.6545 44.5C25.8114 44.5 25.9683 44.5 26.13 44.5C26.0677 44.9777 25.8641 45.3788 25.6612 45.8097C25.624 45.8898 25.5869 45.9698 25.5486 46.0523C25.4299 46.3077 25.3104 46.5627 25.191 46.8178C25.0724 47.0722 24.9539 47.3267 24.8355 47.5812C24.7618 47.7393 24.6881 47.8973 24.6142 48.0552C24.4141 48.4836 24.2218 48.9139 24.0381 49.3495C23.8812 49.3495 23.7243 49.3495 23.5626 49.3495C23.6249 48.8718 23.8285 48.4707 24.0314 48.0398C24.0686 47.9597 24.1057 47.8797 24.144 47.7972C24.2627 47.5418 24.3821 47.2868 24.5016 47.0317C24.6202 46.7773 24.7387 46.5228 24.8571 46.2683C24.9307 46.1102 25.0045 45.9522 25.0784 45.7943C25.2785 45.3659 25.4708 44.9356 25.6545 44.5Z" fill="#0652C2"/>
<path d="M8.11682 44.4941C8.23155 44.497 8.23155 44.497 8.3486 44.5C8.10102 45.1315 7.8389 45.7542 7.56004 46.3724C7.52282 46.4553 7.48559 46.5381 7.44724 46.6235C7.36943 46.7965 7.29152 46.9695 7.21352 47.1424C7.09366 47.4083 6.97425 47.6744 6.85488 47.9404C6.77894 48.1091 6.70299 48.2778 6.627 48.4465C6.57337 48.5661 6.57337 48.5661 6.51865 48.6881C6.48562 48.7612 6.45259 48.8342 6.41856 48.9095C6.38951 48.974 6.36046 49.0385 6.33053 49.1049C6.25668 49.2544 6.25668 49.2544 6.16159 49.3495C6.00316 49.3533 5.84458 49.3535 5.68616 49.3495C5.93374 48.718 6.19585 48.0953 6.47471 47.4771C6.53055 47.3528 6.53055 47.3528 6.58752 47.226C6.66533 47.053 6.74323 46.88 6.82124 46.7071C6.9411 46.4412 7.06051 46.1751 7.17988 45.9091C7.25581 45.7404 7.33177 45.5717 7.40775 45.403C7.44351 45.3233 7.47926 45.2435 7.5161 45.1614C7.54913 45.0883 7.58217 45.0152 7.6162 44.94C7.64525 44.8755 7.67429 44.811 7.70422 44.7445C7.82331 44.5036 7.83287 44.501 8.11682 44.4941Z" fill="#0652C2"/>
<path d="M66.4053 35.8412C66.52 35.8441 66.52 35.8441 66.637 35.8471C66.4503 36.4496 66.2213 37.0172 65.9529 37.5876C65.9155 37.6681 65.8781 37.7485 65.8397 37.8313C65.7216 38.0854 65.6029 38.3391 65.4841 38.5927C65.3648 38.8485 65.2456 39.1043 65.1265 39.3602C65.0528 39.5188 64.9788 39.6772 64.9046 39.8355C64.8546 39.9427 64.8546 39.9427 64.8036 40.0521C64.7743 40.1147 64.7449 40.1774 64.7147 40.242C64.6298 40.4279 64.6298 40.4279 64.5451 40.6965C64.3569 40.6965 64.1686 40.6965 63.9746 40.6965C64.4429 39.5893 64.9214 38.4869 65.4122 37.3895C65.4681 37.2644 65.524 37.1393 65.5798 37.0142C65.6586 36.8375 65.7377 36.661 65.8169 36.4845C65.8628 36.3822 65.9086 36.2798 65.9558 36.1744C66.1113 35.8483 66.1113 35.8483 66.4053 35.8412Z" fill="#0652C2"/>
<path d="M46.5737 35.8471C46.7306 35.8471 46.8875 35.8471 47.0492 35.8471C46.8624 36.4496 46.6334 37.0172 46.365 37.5876C46.3276 37.6681 46.2903 37.7485 46.2518 37.8314C46.1337 38.0854 46.015 38.3391 45.8962 38.5927C45.7769 38.8485 45.6577 39.1043 45.5387 39.3603C45.4649 39.5188 45.3909 39.6772 45.3167 39.8355C45.2667 39.9427 45.2667 39.9427 45.2157 40.0521C45.1864 40.1147 45.157 40.1774 45.1268 40.242C45.0419 40.4279 45.0419 40.4279 44.9572 40.6966C44.769 40.6966 44.5807 40.6966 44.3867 40.6966C45.0835 39.0645 45.8201 37.4534 46.5737 35.8471Z" fill="#0652C2"/>
<path d="M37.6355 35.8471C37.7924 35.8471 37.9493 35.8471 38.1109 35.8471C38.0481 36.308 37.8617 36.6918 37.6663 37.1085C37.6315 37.1839 37.5966 37.2593 37.5607 37.3369C37.4495 37.5775 37.3375 37.8177 37.2254 38.0579C37.1146 38.2968 37.0039 38.5358 36.8932 38.7747C36.8244 38.9231 36.7555 39.0714 36.6865 39.2196C36.4585 39.7095 36.237 40.2021 36.019 40.6966C35.8621 40.6966 35.7052 40.6966 35.5436 40.6966C35.7215 40.13 35.9286 39.5906 36.1795 39.0526C36.2122 38.9815 36.2449 38.9104 36.2785 38.8372C36.3818 38.6129 36.4856 38.3889 36.5895 38.1649C36.6933 37.9401 36.797 37.7153 36.9005 37.4905C36.9646 37.3515 37.0289 37.2125 37.0933 37.0736C37.2811 36.6676 37.4611 36.2591 37.6355 35.8471Z" fill="#0652C2"/>
<path d="M7.87316 35.0864C8.03006 35.0864 8.18695 35.0864 8.3486 35.0864C7.96995 36.0174 7.56262 36.9349 7.15188 37.8521C7.0398 38.1025 6.9281 38.3531 6.81643 38.6037C6.74526 38.7629 6.67407 38.922 6.60286 39.0812C6.56948 39.1561 6.5361 39.2311 6.50172 39.3083C6.26758 39.8299 6.26758 39.8299 6.16159 39.9358C6.00316 39.9397 5.84458 39.9399 5.68616 39.9358C5.82873 39.4777 6.01069 39.0498 6.21099 38.615C6.24337 38.5442 6.27574 38.4734 6.30909 38.4005C6.37745 38.2511 6.44594 38.1018 6.51457 37.9526C6.6182 37.7272 6.72135 37.5016 6.82442 37.276C7.16154 36.5397 7.50204 35.8064 7.87316 35.0864Z" fill="#0652C2"/>
<path d="M66.4053 26.4275C66.52 26.4305 66.52 26.4305 66.637 26.4335C66.4945 26.8917 66.3125 27.3195 66.1122 27.7543C66.0798 27.8251 66.0475 27.8959 66.0141 27.9689C65.9458 28.1182 65.8773 28.2675 65.8086 28.4167C65.705 28.6421 65.6019 28.8677 65.4988 29.0933C65.1617 29.8296 64.8212 30.5629 64.45 31.2829C64.2932 31.2829 64.1363 31.2829 63.9746 31.2829C64.3533 30.3519 64.7606 29.4344 65.1713 28.5172C65.2834 28.2668 65.3951 28.0162 65.5068 27.7656C65.5779 27.6064 65.6491 27.4473 65.7204 27.2881C65.7537 27.2132 65.7871 27.1382 65.8215 27.061C66.1026 26.4349 66.1026 26.4349 66.4053 26.4275Z" fill="#0652C2"/>
<path d="M46.8174 26.4275C46.9321 26.4305 46.9321 26.4305 47.0492 26.4335C46.8953 26.9325 46.6905 27.4 46.476 27.875C46.439 27.9575 46.4019 28.04 46.3638 28.125C46.2857 28.2987 46.2074 28.4723 46.129 28.6459C46.0095 28.9109 45.8905 29.1762 45.7716 29.4415C45.6954 29.6107 45.6192 29.7799 45.543 29.9491C45.5076 30.028 45.4723 30.107 45.4358 30.1883C45.0724 30.991 45.0724 30.991 44.8622 31.2829C44.6066 31.3126 44.6066 31.3126 44.3867 31.2829C44.855 30.1757 45.3336 29.0733 45.8243 27.9758C45.8802 27.8508 45.9361 27.7257 45.9919 27.6005C46.0707 27.4239 46.1499 27.2474 46.229 27.0708C46.2749 26.9685 46.3207 26.8662 46.3679 26.7608C46.5234 26.4347 46.5234 26.4347 46.8174 26.4275Z" fill="#0652C2"/>
<path d="M96.3578 25.6668C96.4725 25.6698 96.4725 25.6698 96.5896 25.6728C96.342 26.3042 96.0799 26.9269 95.801 27.5452C95.7638 27.628 95.7266 27.7109 95.6882 27.7962C95.6104 27.9693 95.5325 28.1423 95.4545 28.3152C95.3346 28.5811 95.2152 28.8471 95.0958 29.1132C95.0199 29.2819 94.944 29.4506 94.868 29.6193C94.8143 29.7389 94.8143 29.7389 94.7596 29.8609C94.7266 29.9339 94.6936 30.007 94.6595 30.0823C94.6305 30.1468 94.6014 30.2113 94.5715 30.2777C94.4976 30.4271 94.4976 30.4271 94.4026 30.5222C94.2441 30.5261 94.0856 30.5263 93.9271 30.5222C94.1747 29.8908 94.4368 29.2681 94.7157 28.6498C94.7715 28.5256 94.7715 28.5256 94.8285 28.3988C94.9063 28.2257 94.9842 28.0528 95.0622 27.8798C95.1821 27.614 95.3015 27.3479 95.4208 27.0818C95.4968 26.9131 95.5727 26.7444 95.6487 26.5757C95.6845 26.496 95.7202 26.4163 95.7571 26.3342C95.7901 26.2611 95.8231 26.188 95.8572 26.1127C95.8862 26.0482 95.9153 25.9837 95.9452 25.9173C96.0643 25.6764 96.0738 25.6738 96.3578 25.6668Z" fill="#0652C2"/>
<path d="M78.2377 25.6728C78.3946 25.6728 78.5515 25.6728 78.7131 25.6728C78.6508 26.1504 78.4472 26.5515 78.2444 26.9824C78.2072 27.0625 78.17 27.1426 78.1317 27.225C78.013 27.4804 77.8936 27.7355 77.7741 27.9905C77.6555 28.2449 77.537 28.4994 77.4186 28.7539C77.345 28.912 77.2712 29.07 77.1973 29.228C76.9972 29.6563 76.8049 30.0866 76.6212 30.5222C76.4643 30.5222 76.3074 30.5222 76.1458 30.5222C76.208 30.0446 76.4116 29.6435 76.6145 29.2125C76.6517 29.1325 76.6889 29.0524 76.7272 28.9699C76.8459 28.7145 76.9653 28.4595 77.0847 28.2045C77.2034 27.95 77.3219 27.6956 77.4403 27.441C77.5139 27.2829 77.5876 27.1249 77.6616 26.967C77.8616 26.5387 78.054 26.1084 78.2377 25.6728Z" fill="#0652C2"/>
<path d="M25.6545 25.6728C25.8114 25.6728 25.9683 25.6728 26.13 25.6728C25.9432 26.2753 25.7142 26.8429 25.4458 27.4133C25.4084 27.4937 25.3711 27.5741 25.3326 27.657C25.2145 27.911 25.0958 28.1647 24.977 28.4184C24.8577 28.6742 24.7385 28.93 24.6195 29.1859C24.5457 29.3444 24.4717 29.5028 24.3976 29.6612C24.3475 29.7684 24.3475 29.7684 24.2965 29.8777C24.2672 29.9404 24.2379 30.003 24.2076 30.0676C24.1227 30.2536 24.1227 30.2536 24.0381 30.5222C23.8498 30.5222 23.6615 30.5222 23.4675 30.5222C24.1643 28.8902 24.9009 27.2791 25.6545 25.6728Z" fill="#0652C2"/>
<path d="M66.1616 16.9247C66.3185 16.9247 66.4754 16.9247 66.6371 16.9247C66.4592 17.4913 66.252 18.0307 66.0012 18.5687C65.9685 18.6398 65.9358 18.7109 65.9021 18.7841C65.7989 19.0084 65.695 19.2324 65.5911 19.4564C65.4873 19.6812 65.3837 19.906 65.2801 20.1308C65.216 20.2698 65.1518 20.4088 65.0874 20.5477C64.8996 20.9537 64.7196 21.3622 64.5451 21.7742C64.3882 21.7742 64.2314 21.7742 64.0697 21.7742C64.1325 21.3133 64.3189 20.9295 64.5143 20.5128C64.5492 20.4374 64.584 20.362 64.6199 20.2843C64.7312 20.0438 64.8432 19.8036 64.9552 19.5634C65.0661 19.3245 65.1768 19.0855 65.2875 18.8466C65.3562 18.6982 65.4251 18.5499 65.4942 18.4017C65.7221 17.9118 65.9436 17.4192 66.1616 16.9247Z" fill="#0652C2"/>
<path d="M37.9742 16.9188C38.089 16.9217 38.089 16.9217 38.206 16.9247C37.7377 18.032 37.2592 19.1344 36.7684 20.2318C36.7125 20.3569 36.6566 20.482 36.6009 20.6071C36.522 20.7838 36.4429 20.9603 36.3637 21.1368C36.3179 21.2391 36.272 21.3414 36.2248 21.4469C36.1141 21.6791 36.1141 21.6791 36.019 21.7742C35.8606 21.778 35.702 21.7782 35.5436 21.7742C35.7347 21.1547 35.9737 20.572 36.2486 19.9854C36.288 19.9003 36.3275 19.8152 36.3682 19.7275C36.4509 19.5494 36.5339 19.3713 36.617 19.1934C36.7448 18.9199 36.8719 18.6461 36.9989 18.3722C37.0795 18.1987 37.1603 18.0253 37.241 17.8518C37.2792 17.7697 37.3173 17.6876 37.3566 17.603C37.3918 17.5278 37.4271 17.4525 37.4634 17.3749C37.4944 17.3084 37.5254 17.242 37.5574 17.1735C37.6808 16.9307 37.6869 16.9258 37.9742 16.9188Z" fill="#0652C2"/>
<path d="M25.8982 16.2532C26.0129 16.2561 26.0129 16.2561 26.13 16.2591C25.9388 16.8786 25.6999 17.4613 25.425 18.048C25.3658 18.1756 25.3658 18.1756 25.3054 18.3058C25.2226 18.484 25.1397 18.662 25.0565 18.8399C24.9287 19.1134 24.8017 19.3872 24.6747 19.6611C24.594 19.8346 24.5133 20.0081 24.4325 20.1815C24.3944 20.2636 24.3562 20.3457 24.317 20.4303C24.2817 20.5056 24.2465 20.5809 24.2102 20.6584C24.1791 20.7249 24.1481 20.7913 24.1162 20.8598C24.0381 21.0135 24.0381 21.0135 23.943 21.1086C23.7845 21.1125 23.626 21.1127 23.4675 21.1086C23.9358 20.0014 24.4144 18.899 24.9051 17.8015C24.9611 17.6765 25.0169 17.5514 25.0727 17.4262C25.1515 17.2496 25.2307 17.073 25.3098 16.8965C25.3557 16.7942 25.4015 16.6919 25.4488 16.5865C25.6042 16.2604 25.6042 16.2604 25.8982 16.2532Z" fill="#0652C2"/>
<path d="M7.77807 16.2591C7.96635 16.2591 8.15462 16.2591 8.3486 16.2591C7.65185 17.8912 6.91522 19.5023 6.16159 21.1086C6.0047 21.1086 5.84781 21.1086 5.68616 21.1086C5.87289 20.506 6.10194 19.9385 6.37034 19.368C6.4077 19.2876 6.44506 19.2072 6.48355 19.1243C6.60163 18.8703 6.72033 18.6166 6.83909 18.3629C6.95842 18.1072 7.07762 17.8513 7.19666 17.5954C7.27044 17.4369 7.3444 17.2785 7.41858 17.1202C7.45191 17.0487 7.48525 16.9772 7.5196 16.9036C7.54894 16.8409 7.57827 16.7783 7.60849 16.7137C7.69342 16.5278 7.69342 16.5278 7.77807 16.2591Z" fill="#0652C2"/>
<path d="M66.1616 7.51111C66.3185 7.51111 66.4754 7.51111 66.637 7.51111C66.4547 8.09568 66.2367 8.64914 65.977 9.20336C65.942 9.27911 65.907 9.35487 65.8709 9.43291C65.7602 9.67207 65.6489 9.91093 65.5376 10.1498C65.426 10.39 65.3146 10.6303 65.2033 10.8707C65.1344 11.0195 65.0653 11.1682 64.996 11.3168C64.8359 11.6614 64.6815 12.0056 64.5451 12.3606C64.3569 12.3606 64.1686 12.3606 63.9746 12.3606C64.6714 10.7285 65.408 9.11742 66.1616 7.51111Z" fill="#0652C2"/>
<path d="M57.2235 7.51111C57.4118 7.51111 57.6001 7.51111 57.794 7.51111C57.0973 9.14314 56.3607 10.7542 55.607 12.3606C55.4501 12.3606 55.2932 12.3606 55.1316 12.3606C55.314 11.776 55.5319 11.2225 55.7916 10.6683C55.8442 10.5547 55.8442 10.5547 55.8978 10.4387C56.0084 10.1996 56.1197 9.96073 56.231 9.72188C56.3426 9.48163 56.454 9.24132 56.5653 9.00095C56.6343 8.85218 56.7034 8.70348 56.7726 8.55487C56.9328 8.21026 57.0872 7.86604 57.2235 7.51111Z" fill="#0652C2"/>
<path d="M46.5737 7.51111C46.7306 7.51111 46.8875 7.51111 47.0492 7.51111C46.8713 8.07767 46.6641 8.61709 46.4133 9.15508C46.3806 9.22616 46.3479 9.29724 46.3142 9.37047C46.211 9.59478 46.1071 9.8188 46.0032 10.0428C45.8994 10.2675 45.7958 10.4923 45.6922 10.7172C45.6281 10.8562 45.5639 10.9952 45.4995 11.1341C45.3117 11.5401 45.1317 11.9486 44.9572 12.3606C44.8004 12.3606 44.6435 12.3606 44.4818 12.3606C44.5446 11.8997 44.7311 11.5158 44.9264 11.0992C44.9613 11.0238 44.9961 10.9484 45.032 10.8707C45.1433 10.6302 45.2553 10.39 45.3673 10.1498C45.4782 9.91087 45.5889 9.6719 45.6996 9.43291C45.7683 9.28457 45.8372 9.13628 45.9063 8.98806C46.1342 8.49812 46.3557 8.00555 46.5737 7.51111Z" fill="#0652C2"/>
<path d="M37.6355 7.51111C37.8238 7.51111 38.012 7.51111 38.206 7.51111C37.5093 9.14314 36.7726 10.7542 36.019 12.3606C35.8621 12.3606 35.7052 12.3606 35.5436 12.3606C35.7303 11.758 35.9594 11.1904 36.2278 10.62C36.2651 10.5396 36.3025 10.4592 36.341 10.3763C36.4591 10.1223 36.5777 9.86859 36.6965 9.61491C36.8158 9.35914 36.935 9.10331 37.0541 8.84741C37.1279 8.6889 37.2018 8.53047 37.276 8.37214C37.3093 8.30068 37.3427 8.22922 37.377 8.15559C37.4064 8.09293 37.4357 8.03026 37.4659 7.9657C37.5508 7.77975 37.5508 7.77975 37.6355 7.51111Z" fill="#0652C2"/>
<path d="M96.3578 44.4941C96.4725 44.497 96.4725 44.497 96.5896 44.5C96.4357 44.9991 96.2309 45.4665 96.0164 45.9416C95.9794 46.024 95.9424 46.1065 95.9042 46.1915C95.8261 46.3652 95.7478 46.5389 95.6695 46.7125C95.5499 46.9775 95.4309 47.2428 95.312 47.5081C95.2358 47.6773 95.1596 47.8465 95.0834 48.0156C95.048 48.0946 95.0127 48.1736 94.9762 48.2549C94.6128 49.0575 94.6128 49.0575 94.4026 49.3495C94.147 49.3792 94.147 49.3792 93.9271 49.3495C94.3954 48.2422 94.874 47.1398 95.3647 46.0424C95.4207 45.9173 95.4765 45.7922 95.5323 45.6671C95.6111 45.4904 95.6903 45.3139 95.7694 45.1374C95.8153 45.0351 95.8611 44.9328 95.9084 44.8273C96.0638 44.5013 96.0638 44.5013 96.3578 44.4941Z" fill="#0652C2"/>
<path d="M16.7163 44.5C16.9046 44.5 17.0929 44.5 17.2868 44.5C16.5901 46.1321 15.8535 47.7432 15.0998 49.3495C14.9429 49.3495 14.786 49.3495 14.6244 49.3495C14.8526 48.5972 15.1732 47.9012 15.5099 47.1922C15.9305 46.3017 16.3343 45.4076 16.7163 44.5Z" fill="#0652C2"/>
<path d="M87.1759 25.6728C87.3328 25.6728 87.4897 25.6728 87.6513 25.6728C87.4232 26.425 87.1025 27.121 86.7658 27.83C86.3452 28.7205 85.9415 29.6147 85.5594 30.5222C85.3711 30.5222 85.1829 30.5222 84.9889 30.5222C85.6856 28.8902 86.4223 27.2791 87.1759 25.6728Z" fill="#0652C2"/>
<path d="M7.87316 25.6728C8.12871 25.6431 8.12871 25.6431 8.3486 25.6728C7.88029 26.78 7.40176 27.8824 6.91099 28.9798C6.85507 29.1049 6.79922 29.23 6.74344 29.3551C6.66462 29.5318 6.58546 29.7083 6.50628 29.8848C6.46044 29.9872 6.4146 30.0895 6.36737 30.1949C6.25668 30.4271 6.25668 30.4271 6.16159 30.5222C6.00316 30.5261 5.84458 30.5263 5.68616 30.5222C5.83999 30.0232 6.0448 29.5557 6.25928 29.0807C6.29632 28.9982 6.33337 28.9157 6.37154 28.8307C6.44964 28.657 6.52789 28.4833 6.60627 28.3097C6.72584 28.0447 6.8448 27.7795 6.96371 27.5142C7.03987 27.3449 7.11608 27.1758 7.19232 27.0066C7.22769 26.9276 7.26306 26.8487 7.2995 26.7673C7.66296 25.9647 7.66296 25.9647 7.87316 25.6728Z" fill="#0652C2"/>
<path d="M57.2235 16.9247C57.4118 16.9247 57.6001 16.9247 57.794 16.9247C57.0973 18.5568 56.3607 20.1679 55.607 21.7742C55.4501 21.7742 55.2932 21.7742 55.1316 21.7742C55.3598 21.0219 55.6804 20.326 56.0171 19.6169C56.4377 18.7265 56.8415 17.8323 57.2235 16.9247Z" fill="#0652C2"/>
<path d="M87.4196 16.2532C87.5343 16.2561 87.5343 16.2561 87.6513 16.2591C87.4934 16.7757 87.277 17.2582 87.0541 17.749C87.0147 17.8361 86.9753 17.9233 86.9347 18.0131C86.8517 18.1966 86.7686 18.38 86.6854 18.5633C86.5579 18.8442 86.431 19.1253 86.3041 19.4065C86.2233 19.585 86.1425 19.7635 86.0616 19.9419C86.0237 20.026 85.9857 20.1101 85.9466 20.1967C85.9111 20.2748 85.8755 20.3529 85.8389 20.4334C85.8078 20.502 85.7767 20.5706 85.7447 20.6413C85.6545 20.8233 85.6545 20.8233 85.4643 21.1086C85.2147 21.1264 85.2147 21.1264 84.9889 21.1086C85.4572 20.0014 85.9357 18.899 86.4265 17.8015C86.4824 17.6765 86.5383 17.5514 86.5941 17.4262C86.6729 17.2496 86.752 17.073 86.8312 16.8965C86.877 16.7942 86.9229 16.6919 86.9701 16.5865C87.1255 16.2604 87.1255 16.2604 87.4196 16.2532Z" fill="#0652C2"/>
<path d="M17.2869 35.0864C17.3496 35.0864 17.4124 35.0864 17.477 35.0864C17.477 36.6867 17.477 38.287 17.477 39.9358C17.4457 39.9358 17.4143 39.9358 17.3819 39.9358C17.3349 37.959 17.3349 37.959 17.2869 35.9422C17.0417 36.4776 16.7966 37.013 16.544 37.5646C16.4287 37.8161 16.4287 37.8161 16.3112 38.0727C16.2495 38.2076 16.1878 38.3424 16.1261 38.4772C16.0947 38.5457 16.0633 38.6141 16.031 38.6847C15.8414 39.0993 15.6582 39.5161 15.4802 39.9358C15.3547 39.9358 15.2292 39.9358 15.0999 39.9358C15.2578 39.4193 15.4742 38.9368 15.6971 38.446C15.7365 38.3589 15.7759 38.2717 15.8165 38.1819C15.8994 37.9984 15.9826 37.815 16.0658 37.6317C16.1933 37.3508 16.3202 37.0697 16.447 36.7885C16.5279 36.61 16.6087 36.4315 16.6896 36.2531C16.7275 36.169 16.7655 36.0849 16.8046 35.9982C16.8401 35.9201 16.8756 35.8421 16.9123 35.7616C16.9434 35.693 16.9745 35.6244 17.0065 35.5537C17.0967 35.3717 17.0967 35.3717 17.2869 35.0864Z" fill="#E6F6F4"/>
<path d="M96.5896 35.0864C96.6524 35.0864 96.7151 35.0864 96.7798 35.0864C96.8081 35.5427 96.7301 35.8313 96.5328 36.2416C96.4804 36.3522 96.428 36.4628 96.374 36.5768C96.3171 36.6942 96.2602 36.8114 96.2033 36.9287C96.0889 37.1676 95.975 37.4068 95.8612 37.6459C95.8333 37.7043 95.8054 37.7627 95.7766 37.8229C95.6185 38.155 95.469 38.4888 95.3301 38.8293C95.301 38.9004 95.2719 38.9716 95.2419 39.0448C95.1688 39.2268 95.0976 39.4095 95.0266 39.5923C94.878 39.8408 94.878 39.8408 94.631 39.9038C94.5556 39.9144 94.4803 39.925 94.4026 39.9358C95.0993 38.3038 95.836 36.6927 96.5896 35.0864Z" fill="#E6F6F4"/>
<path d="M87.6514 35.0864C87.7141 35.0864 87.7769 35.0864 87.8415 35.0864C87.9026 35.6593 87.6888 36.0702 87.453 36.5762C87.3935 36.707 87.3935 36.707 87.3329 36.8403C87.2063 37.1179 87.0782 37.3947 86.9501 37.6716C86.8646 37.8589 86.7791 38.0463 86.6938 38.2337C86.6122 38.4123 86.5305 38.5907 86.4487 38.7692C86.4101 38.8533 86.3716 38.9374 86.3319 39.024C86.2957 39.1021 86.2596 39.1802 86.2223 39.2606C86.1906 39.3292 86.159 39.3978 86.1263 39.4685C86.0349 39.6506 86.0349 39.6506 85.8447 39.9358C85.7506 39.9358 85.6564 39.9358 85.5594 39.9358C85.7373 39.3693 85.9445 38.8299 86.1953 38.2919C86.228 38.2208 86.2607 38.1497 86.2944 38.0765C86.3977 37.8522 86.5015 37.6281 86.6054 37.4041C86.7092 37.1794 86.8128 36.9546 86.9164 36.7298C86.9805 36.5907 87.0447 36.4518 87.1091 36.3129C87.2969 35.9068 87.4769 35.4984 87.6514 35.0864Z" fill="#E6F6F4"/>
<path d="M26.13 35.0864C26.1928 35.0864 26.2555 35.0864 26.3202 35.0864C26.3752 35.6444 26.1848 36.0344 25.9558 36.5279C25.9185 36.6104 25.8812 36.6929 25.8427 36.7779C25.7638 36.9518 25.6845 37.1254 25.6046 37.2989C25.4827 37.5636 25.3623 37.8289 25.2421 38.0945C25.1651 38.2637 25.088 38.4329 25.0109 38.602C24.9749 38.681 24.9389 38.7599 24.9019 38.8413C24.5214 39.6664 24.5214 39.6664 24.3233 39.9358C24.2292 39.9358 24.1351 39.9358 24.0381 39.9358C24.2204 39.3513 24.4384 38.7978 24.6981 38.2436C24.7507 38.13 24.7507 38.13 24.8043 38.014C24.9149 37.7749 25.0262 37.536 25.1375 37.2972C25.2491 37.0569 25.3605 36.8166 25.4718 36.5762C25.5408 36.4275 25.6099 36.2788 25.6791 36.1302C25.8393 35.7855 25.9936 35.4413 26.13 35.0864Z" fill="#E6F6F4"/>
<path d="M78.8082 35.0864C78.8396 35.0864 78.871 35.0864 78.9033 35.0864C78.9525 35.6843 78.7937 36.0776 78.5356 36.6115C78.498 36.6917 78.4605 36.772 78.4218 36.8547C78.3022 37.1097 78.1809 37.3639 78.0594 37.6181C77.939 37.8731 77.819 38.1283 77.699 38.3836C77.6244 38.5419 77.5495 38.7001 77.4742 38.8582C77.3053 39.2137 77.1415 39.5676 77.0016 39.9358C76.876 39.9358 76.7505 39.9358 76.6212 39.9358C76.775 39.4368 76.9799 38.9693 77.1943 38.4943C77.2314 38.4118 77.2684 38.3293 77.3066 38.2443C77.3847 38.0706 77.4629 37.897 77.5413 37.7234C77.6609 37.4584 77.7799 37.1931 77.8988 36.9278C77.9749 36.7586 78.0511 36.5894 78.1274 36.4202C78.1628 36.3413 78.1981 36.2623 78.2346 36.181C78.4059 35.8026 78.5756 35.4321 78.8082 35.0864Z" fill="#E6F6F4"/>
<path d="M93.5468 44.5C93.9233 44.5 94.2998 44.5 94.6878 44.5C94.5517 44.8252 94.415 45.15 94.2777 45.4747C94.2393 45.5667 94.2009 45.6588 94.1613 45.7536C94.1236 45.8425 94.0859 45.9314 94.0471 46.0229C94.0127 46.1046 93.9784 46.1862 93.943 46.2704C93.832 46.4969 93.832 46.4969 93.5468 46.8772C93.5468 46.0927 93.5468 45.3083 93.5468 44.5Z" fill="#0652C2"/>
<path d="M93.5468 35.0864C93.9233 35.0864 94.2998 35.0864 94.6878 35.0864C94.5338 35.4472 94.3792 35.8077 94.2242 36.168C94.1805 36.2707 94.1367 36.3734 94.0916 36.4793C94.0494 36.5773 94.0071 36.6754 93.9635 36.7764C93.9247 36.867 93.8858 36.9577 93.8458 37.0511C93.7369 37.2734 93.7369 37.2734 93.5468 37.4636C93.5468 36.6791 93.5468 35.8946 93.5468 35.0864Z" fill="#0652C2"/>
<path d="M5.30591 44.5C5.68245 44.5 6.059 44.5 6.44695 44.5C6.29298 44.8608 6.13839 45.2213 5.9834 45.5816C5.93965 45.6844 5.89589 45.7871 5.8508 45.8929C5.80851 45.991 5.76623 46.089 5.72266 46.1901C5.68382 46.2807 5.64498 46.3713 5.60496 46.4647C5.49608 46.687 5.49608 46.687 5.30591 46.8772C5.30591 46.0927 5.30591 45.3083 5.30591 44.5Z" fill="#0652C2"/>
<path d="M93.5468 25.6728C93.9233 25.6728 94.2998 25.6728 94.6878 25.6728C94.5338 26.0335 94.3792 26.394 94.2242 26.7544C94.1805 26.8571 94.1367 26.9598 94.0916 27.0656C94.0494 27.1637 94.0071 27.2618 93.9635 27.3628C93.9247 27.4534 93.8858 27.544 93.8458 27.6374C93.7369 27.8598 93.7369 27.8598 93.5468 28.0499C93.5468 27.2655 93.5468 26.481 93.5468 25.6728Z" fill="#0652C2"/>
<path d="M5.30591 35.0864C5.65107 35.0864 5.99624 35.0864 6.35187 35.0864C6.2787 35.4522 6.21085 35.6956 6.06029 36.0243C6.02199 36.1085 5.98368 36.1928 5.94422 36.2796C5.9042 36.3663 5.86418 36.4531 5.82294 36.5424C5.78256 36.631 5.74217 36.7195 5.70056 36.8108C5.60115 37.0286 5.50128 37.2462 5.401 37.4636C5.36962 37.4636 5.33824 37.4636 5.30591 37.4636C5.30591 36.6791 5.30591 35.8946 5.30591 35.0864Z" fill="#0652C2"/>
<path d="M93.5468 16.2591C93.8919 16.2591 94.2371 16.2591 94.5927 16.2591C94.5195 16.6249 94.4517 16.8683 94.3011 17.197C94.2628 17.2813 94.2245 17.3655 94.1851 17.4524C94.145 17.5391 94.105 17.6258 94.0638 17.7151C94.0234 17.8037 93.983 17.8923 93.9414 17.9835C93.842 18.2013 93.7421 18.4189 93.6418 18.6363C93.6105 18.6363 93.5791 18.6363 93.5468 18.6363C93.5468 17.8518 93.5468 17.0674 93.5468 16.2591Z" fill="#0652C2"/>
<path d="M5.30591 25.6728C5.65107 25.6728 5.99624 25.6728 6.35187 25.6728C6.11359 26.4717 5.76135 27.2055 5.401 27.9549C5.36962 27.9549 5.33824 27.9549 5.30591 27.9549C5.30591 27.2018 5.30591 26.4487 5.30591 25.6728Z" fill="#0652C2"/>
<path d="M35.1632 16.9247C35.5084 16.9247 35.8535 16.9247 36.2092 16.9247C35.9709 17.7237 35.6187 18.4575 35.2583 19.2068C35.2269 19.2068 35.1955 19.2068 35.1632 19.2068C35.1632 18.4537 35.1632 17.7007 35.1632 16.9247Z" fill="#0652C2"/>
<path d="M75.7655 44.5C76.1107 44.5 76.4558 44.5 76.8115 44.5C76.5732 45.2989 76.2209 46.0328 75.8606 46.7821C75.8292 46.7821 75.7978 46.7821 75.7655 46.7821C75.7655 46.029 75.7655 45.2759 75.7655 44.5Z" fill="#0652C2"/>
<path d="M14.244 44.5C14.5892 44.5 14.9344 44.5 15.29 44.5C15.0517 45.2989 14.6995 46.0328 14.3391 46.7821C14.3077 46.7821 14.2763 46.7821 14.244 46.7821C14.244 46.029 14.244 45.2759 14.244 44.5Z" fill="#0652C2"/>
<path d="M54.7512 16.9247C55.0964 16.9247 55.4416 16.9247 55.7972 16.9247C55.5589 17.7237 55.2067 18.4575 54.8463 19.2068C54.8149 19.2068 54.7836 19.2068 54.7512 19.2068C54.7512 18.4537 54.7512 17.7007 54.7512 16.9247Z" fill="#0652C2"/>
<path d="M5.30591 16.2591C5.65107 16.2591 5.99624 16.2591 6.35187 16.2591C6.11359 17.058 5.76135 17.7919 5.401 18.5412C5.36962 18.5412 5.33824 18.5412 5.30591 18.5412C5.30591 17.7881 5.30591 17.035 5.30591 16.2591Z" fill="#0652C2"/>
<path d="M35.1632 7.51111C35.5084 7.51111 35.8535 7.51111 36.2092 7.51111C35.9709 8.31002 35.6187 9.04386 35.2583 9.7932C35.2269 9.7932 35.1955 9.7932 35.1632 9.7932C35.1632 9.04011 35.1632 8.28702 35.1632 7.51111Z" fill="#0652C2"/>
<path d="M75.7655 35.0864C76.1107 35.0864 76.4558 35.0864 76.8115 35.0864C76.5732 35.8853 76.2209 36.6191 75.8606 37.3685C75.8292 37.3685 75.7978 37.3685 75.7655 37.3685C75.7655 36.6154 75.7655 35.8623 75.7655 35.0864Z" fill="#0652C2"/>
<path d="M14.244 35.0864C14.5892 35.0864 14.9344 35.0864 15.29 35.0864C15.0517 35.8853 14.6995 36.6191 14.3391 37.3685C14.3077 37.3685 14.2763 37.3685 14.244 37.3685C14.244 36.6154 14.244 35.8623 14.244 35.0864Z" fill="#0652C2"/>
<path d="M54.7512 7.51111C55.0964 7.51111 55.4416 7.51111 55.7972 7.51111C55.5589 8.31002 55.2067 9.04386 54.8463 9.7932C54.8149 9.7932 54.7836 9.7932 54.7512 9.7932C54.7512 9.04011 54.7512 8.28702 54.7512 7.51111Z" fill="#0652C2"/>
<path d="M23.1823 44.5C23.5274 44.5 23.8726 44.5 24.2282 44.5C24.0726 45.0061 23.8632 45.4804 23.6458 45.962C23.6104 46.0411 23.575 46.1201 23.5385 46.2016C23.4517 46.3952 23.3646 46.5887 23.2773 46.7821C23.246 46.7821 23.2146 46.7821 23.1823 46.7821C23.1823 46.029 23.1823 45.2759 23.1823 44.5Z" fill="#0652C2"/>
<path d="M35.1632 35.8471C35.5084 35.8471 35.8535 35.8471 36.2092 35.8471C36.0536 36.3532 35.8441 36.8274 35.6268 37.3091C35.5913 37.3881 35.5559 37.4672 35.5194 37.5486C35.4326 37.7423 35.3456 37.9358 35.2583 38.1292C35.2269 38.1292 35.1955 38.1292 35.1632 38.1292C35.1632 37.3761 35.1632 36.623 35.1632 35.8471Z" fill="#0652C2"/>
<path d="M75.7655 25.6728C76.1107 25.6728 76.4558 25.6728 76.8115 25.6728C76.6559 26.1788 76.4464 26.6531 76.2291 27.1347C76.1936 27.2138 76.1582 27.2928 76.1217 27.3743C76.0349 27.5679 75.9479 27.7614 75.8606 27.9549C75.8292 27.9549 75.7978 27.9549 75.7655 27.9549C75.7655 27.2018 75.7655 26.4487 75.7655 25.6728Z" fill="#0652C2"/>
<path d="M14.244 25.6728C14.5892 25.6728 14.9344 25.6728 15.29 25.6728C15.1344 26.1788 14.925 26.6531 14.7076 27.1347C14.6721 27.2138 14.6367 27.2928 14.6002 27.3743C14.5134 27.5679 14.4264 27.7614 14.3391 27.9549C14.3077 27.9549 14.2763 27.9549 14.244 27.9549C14.244 27.2018 14.244 26.4487 14.244 25.6728Z" fill="#0652C2"/>
<path d="M44.1014 16.9247C44.4466 16.9247 44.7918 16.9247 45.1474 16.9247C44.9918 17.4308 44.7824 17.9051 44.565 18.3867C44.5296 18.4658 44.4941 18.5448 44.4576 18.6263C44.3708 18.8199 44.2838 19.0134 44.1965 19.2068C44.1651 19.2068 44.1338 19.2068 44.1014 19.2068C44.1014 18.4537 44.1014 17.7007 44.1014 16.9247Z" fill="#0652C2"/>
<path d="M54.7512 35.8471C55.0964 35.8471 55.4416 35.8471 55.7972 35.8471C55.6416 36.3532 55.4322 36.8274 55.2148 37.3091C55.1793 37.3881 55.1439 37.4672 55.1074 37.5486C55.0206 37.7423 54.9336 37.9358 54.8463 38.1292C54.8149 38.1292 54.7836 38.1292 54.7512 38.1292C54.7512 37.3761 54.7512 36.623 54.7512 35.8471Z" fill="#0652C2"/>
<path d="M35.1632 26.4335C35.5084 26.4335 35.8535 26.4335 36.2092 26.4335C36.0536 26.9396 35.8441 27.4138 35.6268 27.8954C35.5913 27.9745 35.5559 28.0536 35.5194 28.135C35.4326 28.3286 35.3456 28.5222 35.2583 28.7156C35.2269 28.7156 35.1955 28.7156 35.1632 28.7156C35.1632 27.9625 35.1632 27.2094 35.1632 26.4335Z" fill="#0652C2"/>
<path d="M63.6893 16.9247C64.0345 16.9247 64.3797 16.9247 64.7353 16.9247C64.5882 17.3918 64.4073 17.8373 64.2123 18.2857C64.183 18.3549 64.1537 18.4241 64.1235 18.4954C63.902 19.0054 63.902 19.0054 63.6893 19.1117C63.6893 18.39 63.6893 17.6683 63.6893 16.9247Z" fill="#0652C2"/>
<path d="M14.244 16.2591C14.5892 16.2591 14.9344 16.2591 15.29 16.2591C15.1344 16.7652 14.925 17.2395 14.7076 17.7211C14.6721 17.8001 14.6367 17.8792 14.6002 17.9607C14.5134 18.1543 14.4264 18.3478 14.3391 18.5412C14.3077 18.5412 14.2763 18.5412 14.244 18.5412C14.244 17.7881 14.244 17.035 14.244 16.2591Z" fill="#0652C2"/>
<path d="M44.1014 7.51111C44.4466 7.51111 44.7918 7.51111 45.1474 7.51111C44.9918 8.01719 44.7824 8.49144 44.565 8.97307C44.5296 9.05213 44.4941 9.13119 44.4576 9.21265C44.3708 9.40628 44.2838 9.59979 44.1965 9.7932C44.1651 9.7932 44.1338 9.7932 44.1014 9.7932C44.1014 9.04011 44.1014 8.28702 44.1014 7.51111Z" fill="#0652C2"/>
<path d="M84.7036 44.5C85.0488 44.5 85.3939 44.5 85.7496 44.5C85.5993 44.9951 85.3903 45.4494 85.1672 45.9145C85.1317 45.989 85.0963 46.0635 85.0598 46.1403C84.9731 46.3227 84.8859 46.5049 84.7987 46.687C84.7673 46.687 84.7359 46.687 84.7036 46.687C84.7036 45.9653 84.7036 45.2436 84.7036 44.5Z" fill="#0652C2"/>
<path d="M75.7655 16.2591C76.1107 16.2591 76.4558 16.2591 76.8115 16.2591C76.522 17.0338 76.213 17.7929 75.8606 18.5412C75.8292 18.5412 75.7978 18.5412 75.7655 18.5412C75.7655 17.7881 75.7655 17.035 75.7655 16.2591Z" fill="#0652C2"/>
<path d="M23.1823 35.0864C23.5274 35.0864 23.8726 35.0864 24.2282 35.0864C23.9511 35.8388 23.6533 36.5647 23.2773 37.2734C23.246 37.2734 23.2146 37.2734 23.1823 37.2734C23.1823 36.5517 23.1823 35.83 23.1823 35.0864Z" fill="#0652C2"/>
<path d="M54.7512 26.4335C55.0964 26.4335 55.4416 26.4335 55.7972 26.4335C55.4949 27.2008 55.1735 27.9586 54.8463 28.7156C54.8149 28.7156 54.7836 28.7156 54.7512 28.7156C54.7512 27.9625 54.7512 27.2094 54.7512 26.4335Z" fill="#0652C2"/>
<path d="M84.7036 35.0864C85.0488 35.0864 85.3939 35.0864 85.7496 35.0864C85.4611 35.8297 85.1379 36.552 84.7987 37.2734C84.7673 37.2734 84.7359 37.2734 84.7036 37.2734C84.7036 36.5517 84.7036 35.83 84.7036 35.0864Z" fill="#0652C2"/>
<path d="M63.6893 7.51111C64.0345 7.51111 64.3797 7.51111 64.7353 7.51111C64.4468 8.2544 64.1237 8.97668 63.7844 9.69811C63.753 9.69811 63.7217 9.69811 63.6893 9.69811C63.6893 8.9764 63.6893 8.25469 63.6893 7.51111Z" fill="#0652C2"/>
<path d="M23.1823 25.6728C23.5274 25.6728 23.8726 25.6728 24.2282 25.6728C24.1235 25.9304 24.0185 26.1879 23.9132 26.4453C23.8839 26.5177 23.8545 26.59 23.8243 26.6645C23.6574 27.072 23.4805 27.4685 23.2773 27.8598C23.246 27.8598 23.2146 27.8598 23.1823 27.8598C23.1823 27.1381 23.1823 26.4163 23.1823 25.6728Z" fill="#0652C2"/>
<path d="M63.6893 35.8471C64.0345 35.8471 64.3797 35.8471 64.7353 35.8471C64.4333 36.5834 64.1185 37.3119 63.7844 38.0341C63.753 38.0341 63.7217 38.0341 63.6893 38.0341C63.6893 37.3124 63.6893 36.5907 63.6893 35.8471Z" fill="#0652C2"/>
<path d="M44.1014 35.8471C44.4466 35.8471 44.7918 35.8471 45.1474 35.8471C44.8454 36.5834 44.5306 37.3119 44.1965 38.0341C44.1651 38.0341 44.1338 38.0341 44.1014 38.0341C44.1014 37.3124 44.1014 36.5907 44.1014 35.8471Z" fill="#0652C2"/>
<path d="M84.7036 25.6728C85.0488 25.6728 85.3939 25.6728 85.7496 25.6728C85.4476 26.409 85.1328 27.1375 84.7987 27.8598C84.7673 27.8598 84.7359 27.8598 84.7036 27.8598C84.7036 27.1381 84.7036 26.4163 84.7036 25.6728Z" fill="#0652C2"/>
<path d="M23.1823 16.2591C23.5274 16.2591 23.8726 16.2591 24.2282 16.2591C24.0901 16.5882 23.9513 16.917 23.8122 17.2457C23.773 17.3393 23.7338 17.4329 23.6933 17.5294C23.6553 17.6189 23.6173 17.7084 23.5782 17.8006C23.5259 17.9246 23.5259 17.9246 23.4726 18.0511C23.3724 18.256 23.3724 18.256 23.1823 18.4461C23.1823 17.7244 23.1823 17.0027 23.1823 16.2591Z" fill="#0652C2"/>
<path d="M44.1014 26.4335C44.4466 26.4335 44.7918 26.4335 45.1474 26.4335C45.0093 26.7626 44.8705 27.0914 44.7314 27.42C44.6922 27.5136 44.6529 27.6073 44.6125 27.7038C44.5745 27.7933 44.5365 27.8827 44.4974 27.9749C44.4451 28.0989 44.4451 28.0989 44.3918 28.2254C44.2916 28.4303 44.2916 28.4303 44.1014 28.6205C44.1014 27.8988 44.1014 27.1771 44.1014 26.4335Z" fill="#0652C2"/>
<path d="M84.7036 16.2591C85.0488 16.2591 85.3939 16.2591 85.7496 16.2591C85.6115 16.5882 85.4727 16.917 85.3336 17.2457C85.2943 17.3393 85.2551 17.4329 85.2147 17.5294C85.1767 17.6189 85.1387 17.7084 85.0996 17.8006C85.0473 17.9246 85.0473 17.9246 84.9939 18.0511C84.8938 18.256 84.8938 18.256 84.7036 18.4461C84.7036 17.7244 84.7036 17.0027 84.7036 16.2591Z" fill="#0652C2"/>
<path d="M63.6893 26.4335C64.0345 26.4335 64.3797 26.4335 64.7353 26.4335C64.4215 27.1552 64.1077 27.8769 63.7844 28.6205C63.753 28.6205 63.7217 28.6205 63.6893 28.6205C63.6893 27.8988 63.6893 27.1771 63.6893 26.4335Z" fill="#0652C2"/>
<path d="M46.3835 54.8645C46.4149 54.8645 46.4463 54.8645 46.4786 54.8645C46.4786 55.1469 46.4786 55.4294 46.4786 55.7203C46.3531 55.6889 46.2276 55.6576 46.0983 55.6252C46.1924 55.3742 46.2865 55.1232 46.3835 54.8645Z" fill="#E6F6F4"/>
</svg>
