<svg width="24" height="24" viewBox="0 0 24 24" fill="none" xmlns="http://www.w3.org/2000/svg">
<path d="M21.4609 10.5892C21.2238 8.64608 20.3685 6.82813 19.0187 5.39858C17.6689 3.96903 15.8948 3.00207 13.9532 2.63771C12.0117 2.27336 10.0034 2.53051 8.21919 3.37195C6.43499 4.21338 4.96749 5.59542 4.02916 7.31796M7.86443 7.96154L4.26219 7.96154C3.70726 7.96154 3.2574 7.51597 3.2574 6.96635L3.2574 3.39851" stroke="black" stroke-width="1.5" stroke-linecap="round"/>
<path d="M2.96554 12.8716C3.20453 14.8131 4.06081 16.6291 5.41055 18.0568C6.76029 19.4846 8.53354 20.4501 10.4739 20.8138C12.4142 21.1776 14.4211 20.9206 16.2042 20.0802C17.9874 19.2397 19.4545 17.8593 20.3933 16.1385M16.5609 15.4897L20.1632 15.4897C20.7181 15.4897 21.168 15.9352 21.168 16.4849L21.168 20.0527" stroke="black" stroke-width="1.5" stroke-linecap="round"/>
</svg>
