<svg width="24" height="25" viewBox="0 0 24 25" fill="none" xmlns="http://www.w3.org/2000/svg">
<path fill-rule="evenodd" clip-rule="evenodd" d="M15.8858 20.4498C14.2446 21.2238 12.3967 21.4605 10.61 21.1252C8.82331 20.7899 7.19192 19.9003 5.9515 18.5866C4.71117 17.273 3.92603 15.6034 3.70842 13.82C3.65825 13.4089 3.28427 13.1162 2.8731 13.1664C2.46194 13.2166 2.16929 13.5906 2.21947 14.0017C2.47606 16.1046 3.40163 18.0709 4.86084 19.6164C6.31995 21.1617 8.23678 22.2061 10.3333 22.5995C12.4298 22.9929 14.5984 22.7153 16.5256 21.8065C18.0877 21.0698 19.426 19.949 20.4175 18.5586L20.4175 21.1016C20.4175 21.5158 20.7533 21.8516 21.1675 21.8516C21.5817 21.8516 21.9175 21.5158 21.9175 21.1016L21.9175 17.5337C21.9175 16.5631 21.125 15.7885 20.1627 15.7885L16.5605 15.7885C16.1462 15.7885 15.8105 16.1243 15.8105 16.5385C15.8105 16.9528 16.1462 17.2885 16.5605 17.2885L19.4641 17.2885C18.6027 18.6545 17.3627 19.7532 15.8858 20.4498Z" fill="#78829D"/>
<path fill-rule="evenodd" clip-rule="evenodd" d="M21.5528 12.3728C21.964 12.3222 22.2562 11.9479 22.2056 11.5368C21.947 9.43566 21.0204 7.47148 19.5612 5.92797C18.1021 4.38457 16.1862 3.34177 14.0911 2.94902C11.9959 2.55628 9.82883 2.83363 7.90276 3.74145C6.33978 4.47813 5.00073 5.59929 4.00879 6.99034L4.00879 4.44731C4.00879 4.0331 3.673 3.69731 3.25879 3.69731C2.84458 3.69731 2.50879 4.0331 2.50879 4.44731L2.50879 8.01515C2.50879 8.98577 3.30124 9.76034 4.26358 9.76034L7.86582 9.76034C8.28003 9.76034 8.61582 9.42456 8.61582 9.01034C8.61582 8.59613 8.28003 8.26034 7.86582 8.26034L4.96225 8.26034C5.82403 6.89382 7.06461 5.79476 8.54228 5.09828C10.1826 4.32517 12.0291 4.08863 13.8147 4.42334C15.6002 4.75805 17.2308 5.64635 18.4712 6.95844C19.7115 8.27042 20.4975 9.93813 20.7168 11.7201C20.7674 12.1312 21.1417 12.4234 21.5528 12.3728Z" fill="#78829D"/>
</svg>
