<svg width="24" height="24" viewBox="0 0 24 24" fill="none" xmlns="http://www.w3.org/2000/svg">
<path d="M21.25 12C21.25 14.2644 20.4194 16.4501 18.9157 18.143C17.4119 19.8359 15.3394 20.9184 13.0909 21.1855C10.8423 21.4525 8.57394 20.8855 6.71549 19.5919C4.85705 18.2983 3.53766 16.3679 3.00731 14.1665C2.47696 11.9652 2.7725 9.64573 3.83792 7.6477C4.90334 5.64967 6.66464 4.11184 8.7881 3.32558C10.9116 2.53932 13.2497 2.55926 15.3594 3.38162C17.4691 4.20397 19.2039 5.77162 20.2351 7.78753" stroke="#00109D" stroke-width="1.5" stroke-linecap="round" stroke-linejoin="round"/>
<path d="M21.0298 3.70004L21.0298 7.30004C21.0298 7.85232 20.5821 8.30004 20.0298 8.30004L16.3998 8.30004" stroke="#00109D" stroke-width="1.5" stroke-linecap="round" stroke-linejoin="round"/>
</svg>
