<svg width="992" height="1000" viewBox="0 0 992 1000" fill="none" xmlns="http://www.w3.org/2000/svg">
<path d="M461.3 922.449C716.07 922.449 922.601 715.952 922.601 461.224C922.601 206.497 716.07 0 461.3 0C206.531 0 0 206.497 0 461.224C0 715.952 206.531 922.449 461.3 922.449Z" fill="#FCFCFC"/>
<path d="M821.504 218.178L420.283 201.012C407.469 200.464 396.634 210.046 396.083 222.414L370.818 789.465C370.267 801.833 380.207 812.306 393.021 812.853L794.247 830.02C807.057 830.567 817.891 820.984 818.442 808.616L843.708 241.565C844.259 229.197 834.319 218.726 821.504 218.178Z" stroke="#C6CCCE" stroke-width="1.99998"/>
<path d="M568.275 114.25L170.132 165.614C153.775 167.724 142.233 182.222 144.352 197.995L219.959 760.755C222.078 776.531 237.056 787.604 253.412 785.494L651.554 734.131C667.912 732.02 679.452 717.522 677.334 701.751L601.725 138.99C599.606 123.216 584.628 112.14 568.275 114.25Z" fill="#FAFAFA" stroke="#C6CCCE" stroke-width="2"/>
<path d="M147.643 197.568C145.76 183.547 156.019 170.66 170.558 168.784L568.703 117.42C583.241 115.544 596.553 125.39 598.435 139.411L613.984 255.137L163.191 313.293L147.643 197.568Z" fill="#F1F1F1"/>
<path d="M556.879 286.182L206.899 331.335C203.264 331.8 200.699 335.025 201.17 338.531L202.762 350.384C203.234 353.89 206.562 356.351 210.197 355.882L560.177 310.731C563.81 310.262 566.374 307.04 565.905 303.535L564.313 291.68C563.839 288.175 560.512 285.713 556.879 286.182Z" fill="#F6F7F7"/>
<path d="M573.375 408.89L223.395 454.041C219.76 454.51 217.195 457.731 217.666 461.237L219.259 473.09C219.73 476.596 223.058 479.057 226.693 478.588L576.674 433.437C580.307 432.971 582.871 429.747 582.401 426.241L580.809 414.388C580.336 410.882 577.008 408.42 573.375 408.89Z" fill="#F6F7F7"/>
<path d="M589.851 531.596L239.872 576.747C236.237 577.212 233.672 580.437 234.143 583.943L235.736 595.796C236.207 599.302 239.535 601.763 243.17 601.294L593.15 556.143C596.783 555.673 599.347 552.453 598.877 548.947L597.285 537.094C596.816 533.588 593.485 531.127 589.851 531.596Z" fill="#F6F7F7"/>
<path d="M331.82 365.151L213.501 380.416C209.866 380.886 207.301 384.106 207.772 387.612L209.364 399.465C209.835 402.971 213.164 405.433 216.799 404.963L335.118 389.702C338.753 389.233 341.317 386.008 340.847 382.506L339.255 370.649C338.782 367.143 335.455 364.682 331.82 365.151Z" fill="#EEEEEE"/>
<path d="M348.297 487.861L229.977 503.122C226.342 503.592 223.777 506.816 224.248 510.318L225.841 522.176C226.312 525.682 229.64 528.143 233.275 527.673L351.596 512.408C355.229 511.939 357.793 508.718 357.323 505.212L355.731 493.359C355.258 489.853 351.931 487.392 348.297 487.861Z" fill="#EEEEEE"/>
<path d="M364.786 610.563L246.466 625.829C242.831 626.298 240.266 629.518 240.737 633.025L242.33 644.878C242.801 648.384 246.129 650.845 249.764 650.375L368.084 635.11C371.718 634.645 374.281 631.42 373.812 627.918L372.22 616.061C371.75 612.555 368.419 610.094 364.786 610.563Z" fill="#EEEEEE"/>
<rect x="739.586" y="872.569" width="52.6667" height="81.2759" transform="rotate(-30.4935 739.586 872.569)" fill="#F7F7F7" stroke="#E7E7E7"/>
<path d="M719.275 883.948C710.038 889.387 703.631 884.947 704.974 874.02L713.871 801.493C715.247 790.306 724.831 784.662 735.282 788.885L803.023 816.28C813.229 820.405 814.006 828.162 804.768 833.601L719.275 883.948Z" fill="#F2F2F2" stroke="#D9D9D9" stroke-linecap="round" stroke-linejoin="round"/>
</svg>
