<svg width="24" height="24" viewBox="0 0 24 24" fill="none" xmlns="http://www.w3.org/2000/svg">
<g clip-path="url(#clip0_5072_2723)">
<path d="M19.2222 20.8889C17.6881 20.8889 16.4444 19.6453 16.4444 18.1112C16.4444 16.577 17.6881 15.3334 19.2222 15.3334C20.7563 15.3334 22 16.577 22 18.1112C22 19.6453 20.7563 20.8889 19.2222 20.8889Z" fill="black"/>
<path d="M11.4444 15.3334C11.9938 15.3334 12.5308 15.4963 12.9876 15.8015C13.4444 16.1067 13.8005 16.5406 14.0107 17.0481C14.221 17.5557 14.276 18.1142 14.1688 18.6531C14.0616 19.1919 13.7971 19.6869 13.4086 20.0753C13.0201 20.4638 12.5251 20.7284 11.9863 20.8356C11.4475 20.9427 10.889 20.8877 10.3814 20.6775C9.87381 20.4672 9.43998 20.1112 9.13475 19.6544C8.82953 19.1976 8.66661 18.6605 8.66661 18.1112C8.66661 17.3744 8.95927 16.6679 9.4802 16.147C10.0011 15.626 10.7077 15.3334 11.4444 15.3334ZM11.4444 19.0371C11.6275 19.0371 11.8065 18.9828 11.9588 18.881C12.1111 18.7793 12.2298 18.6347 12.2998 18.4655C12.3699 18.2963 12.3883 18.1101 12.3525 17.9305C12.3168 17.7509 12.2286 17.5859 12.0991 17.4564C11.9696 17.3269 11.8046 17.2387 11.625 17.203C11.4454 17.1673 11.2592 17.1856 11.0901 17.2557C10.9209 17.3258 10.7763 17.4445 10.6745 17.5967C10.5728 17.749 10.5185 17.928 10.5185 18.1112C10.5185 18.3567 10.616 18.5922 10.7897 18.7659C10.9633 18.9395 11.1988 19.0371 11.4444 19.0371Z" fill="black"/>
<path d="M4.77789 20.8889C3.24376 20.8889 2.00011 19.6453 2.00011 18.1112C2.00011 16.577 3.24376 15.3334 4.77789 15.3334C6.31201 15.3334 7.55566 16.577 7.55566 18.1112C7.55566 19.6453 6.31201 20.8889 4.77789 20.8889Z" fill="black"/>
<path d="M6.06264 9.73706C6.15349 9.63814 6.26665 9.56061 6.39342 9.51041C6.5202 9.46021 6.65723 9.43867 6.79399 9.44746C6.93074 9.45625 7.06359 9.49512 7.18233 9.5611C7.30108 9.62707 7.40255 9.7184 7.47897 9.82806C7.61612 10.0107 7.68187 10.2341 7.6646 10.4589C7.64732 10.6837 7.54812 10.8954 7.38455 11.0566L5.49612 12.8311C5.41209 12.9193 5.30995 12.9898 5.19617 13.038C5.08239 13.0862 4.95946 13.1111 4.83517 13.1111C4.71088 13.1111 4.58794 13.0862 4.47417 13.038C4.36039 12.9898 4.25824 12.9193 4.17422 12.8311L2.28579 11.0566C2.12989 10.8928 2.03213 10.6855 2.00667 10.4646C1.98121 10.2437 2.02936 10.0208 2.14416 9.82806C2.22547 9.7176 2.33134 9.62604 2.45405 9.56003C2.57675 9.49403 2.7132 9.45525 2.85343 9.44654C2.99366 9.43782 3.13414 9.45937 3.26463 9.50963C3.39512 9.55989 3.51232 9.63759 3.60769 9.73706L3.89095 10.0101C3.94104 7.83793 4.88438 5.77393 6.51347 4.27214C8.14256 2.77034 10.3239 1.95375 12.5777 2.00202C14.8315 2.05029 16.9731 2.95946 18.5314 4.52952C20.0896 6.09958 20.9369 8.20193 20.8868 10.3741V11.2841C20.8868 11.5254 20.7873 11.7569 20.6103 11.9275C20.4332 12.0982 20.193 12.1941 19.9426 12.1941C19.6922 12.1941 19.452 12.0982 19.2749 11.9275C19.0979 11.7569 18.9984 11.5254 18.9984 11.2841V10.3741C19.0547 8.68462 18.4124 7.04281 17.2127 5.8098C16.0131 4.57679 14.3543 3.85359 12.6013 3.79928C10.8484 3.74498 9.14485 4.36402 7.86548 5.52024C6.58612 6.67645 5.83573 8.27512 5.77938 9.96456L6.06264 9.73706Z" fill="black"/>
</g>
<defs>
<clipPath id="clip0_5072_2723">
<rect width="20" height="20" fill="white" transform="matrix(-1 0 0 1 22 2)"/>
</clipPath>
</defs>
</svg>
