<svg width="25" height="25" viewBox="0 0 25 25" fill="none" xmlns="http://www.w3.org/2000/svg">
<path d="M14.6428 12.0724C14.6486 10.9674 13.7582 10.0678 12.6532 10.0621C11.5482 10.0563 10.6486 10.9467 10.6429 12.0517C10.6372 13.1566 11.5275 14.0563 12.6325 14.062C13.7375 14.0677 14.6371 13.1774 14.6428 12.0724Z" fill="black"/>
<path d="M14.6843 4.07251C14.69 2.96753 13.7997 2.0679 12.6947 2.06218C11.5897 2.05645 10.6901 2.9468 10.6843 4.05178C10.6786 5.15677 11.569 6.0564 12.6739 6.06212C13.7789 6.06785 14.6785 5.1775 14.6843 4.07251ZM14.6014 20.0723C14.6071 18.9673 13.7167 18.0677 12.6117 18.062C11.5068 18.0562 10.6071 18.9466 10.6014 20.0516C10.5957 21.1566 11.486 22.0562 12.591 22.0619C13.696 22.0676 14.5956 21.1773 14.6014 20.0723Z" fill="black" fill-opacity="0.4"/>
</svg>
