<svg width="17" height="16" viewBox="0 0 17 16" fill="none" xmlns="http://www.w3.org/2000/svg">
<path d="M5.43914 6.09528C5.96581 6.14204 6.09388 6.26499 6.08738 6.78252C6.08492 6.97871 6.15746 7.06679 6.32035 7.15577C7.5204 7.81126 8.18419 9.10777 8.01774 10.4427C7.84551 11.824 6.90825 12.8932 5.5699 13.2352C4.00848 13.6342 2.38207 12.7852 1.79373 11.2641C1.19669 9.7205 1.8126 7.96611 3.23731 7.18687C3.4261 7.08361 3.53047 6.99299 3.52074 6.74895C3.50192 6.27711 3.6521 6.1411 4.19248 6.10245C4.64555 6.10041 5.04235 6.09784 5.43914 6.09528ZM6.76701 10.1383C6.74455 9.09334 6.16038 8.33774 5.20339 8.11583C4.36707 7.92191 3.43827 8.36684 3.0573 9.16125C2.69145 9.92413 2.76443 10.6571 3.29799 11.3106C3.84078 11.9753 4.55514 12.1743 5.37007 11.9535C6.12953 11.7477 6.66084 11.0552 6.76701 10.1383Z" fill="#5E92D2"/>
<path d="M12.2755 6.09528C12.8064 6.14199 12.9356 6.26495 12.929 6.78226C12.9266 6.97828 12.9995 7.06648 13.1637 7.15546C14.3734 7.81076 15.0425 9.10663 14.8749 10.4413C14.7003 11.8326 13.7441 12.905 12.3768 13.243C11.0366 13.5744 9.57401 12.9731 8.8749 11.7848C8.80468 11.6655 8.78571 11.4719 8.82617 11.338C9.08472 10.4828 9.08342 9.6368 8.8302 8.78036C8.78807 8.63789 8.81432 8.43575 8.88733 8.30534C9.16635 7.80698 9.57537 7.42504 10.0864 7.17409C10.2862 7.07595 10.3442 6.96396 10.3395 6.7489C10.3291 6.2766 10.4742 6.14107 11.0188 6.10243C11.4756 6.10039 11.8756 6.09783 12.2755 6.09528ZM10.348 11.5566C10.7429 11.8799 11.1894 12.0557 11.7047 12.0284C12.5082 11.9858 13.098 11.5937 13.431 10.871C13.7601 10.1568 13.6769 9.45387 13.1818 8.83435C12.6819 8.20881 12.0165 7.96033 11.2328 8.12344C10.4771 8.28071 9.96325 8.75217 9.74188 9.49221C9.50701 10.2773 9.72571 10.9597 10.348 11.5566Z" fill="#5E92D2"/>
<path d="M6.54344 3.19997C6.65905 2.81296 6.86462 2.62602 7.15949 2.6741C7.42207 2.71692 7.6081 2.91232 7.65098 3.27343C7.6874 3.58016 7.6376 3.86212 7.42679 4.04231C7.22753 4.21263 7.00866 4.25229 6.79723 4.0755C6.55959 3.87679 6.47145 3.59015 6.54344 3.19997Z" fill="#5E92D2"/>
<path d="M9.16569 2.66669C9.59894 2.70839 9.88165 2.8894 9.93789 3.30671C9.98415 3.64987 9.8771 3.93801 9.54387 4.09828C9.25589 4.23679 8.96803 4.22664 8.70978 4.01735C8.45691 3.8124 8.37556 3.55143 8.45177 3.2401C8.53817 2.88712 8.78413 2.71807 9.16569 2.66669Z" fill="#5E92D2"/>
<path d="M5.96158 3.99609C6.21584 4.32311 6.19222 4.60239 5.91588 4.79625C5.65305 4.98063 5.24783 5.00447 4.95252 4.85292C4.5975 4.67073 4.50621 4.29566 4.756 4.04547C5.04866 3.75235 5.48212 3.72823 5.96158 3.99609Z" fill="#5E92D2"/>
<path d="M10.3286 4.38104C10.4242 3.94779 10.691 3.74541 11.0307 3.82741C11.3337 3.90057 11.4923 4.12151 11.4693 4.4384C11.4487 4.72191 11.2415 4.92418 10.945 4.95021C10.6718 4.97419 10.4312 4.79608 10.355 4.51295C10.3452 4.47634 10.3373 4.4392 10.3286 4.38104Z" fill="#5E92D2"/>
<path d="M5.37625 6.0626C5.00571 6.09473 4.63394 6.09774 4.23353 6.09404C4.22748 5.64332 4.4373 5.35223 4.74759 5.33442C5.08103 5.31528 5.29967 5.55887 5.37625 6.0626Z" fill="#5E92D2"/>
<path d="M12.2337 6.06262C11.8631 6.09474 11.4914 6.09774 11.0909 6.09404C11.0849 5.6433 11.2948 5.35223 11.605 5.33442C11.9384 5.31528 12.1571 5.55887 12.2337 6.06262Z" fill="#5E92D2"/>
</svg>
