<svg width="24" height="24" viewBox="0 0 24 24" fill="none" xmlns="http://www.w3.org/2000/svg">
<path d="M6.99902 0C6.44672 0 5.99902 0.447769 5.99902 0.999485C5.99902 1.5512 6.44672 1.99897 6.99902 1.99897C6.99902 7.33261 6.98861 12.6664 7 18L11.999 17.9907C12.551 17.9907 12.999 17.543 12.999 16.9912V14.9923C12.999 14.4406 13.447 13.9928 13.999 13.9928C14.551 13.9928 14.999 14.4406 14.999 14.9923V16.9912C14.999 17.543 15.447 17.9907 15.999 17.9907H19.999C20.551 17.9907 20.999 17.543 20.999 16.9912V1.99897C21.551 1.99897 21.999 1.5512 21.999 0.999485C21.999 0.447769 21.551 0 20.999 0H6.99902ZM8.99902 1.99897H18.999V15.9918H16.999V14.9923C16.999 13.3361 15.656 11.9938 13.999 11.9938C12.342 11.9938 10.999 13.3361 10.999 14.9923V15.9918H8.99902V1.99897Z" fill="black"/>
<path fill-rule="evenodd" clip-rule="evenodd" d="M3 4C2.44772 4 2 4.44772 2 5C2 5.55228 2.44772 6 3 6V17C3 17.5523 3.44772 18 4 18H7V16H5V6H7V4H3ZM13 5C13 5.55228 12.5523 6 12 6C11.4477 6 11 5.55228 11 5C11 4.44772 11.4477 4 12 4C12.5523 4 13 4.44772 13 5ZM17 5C17 5.55228 16.5523 6 16 6C15.4477 6 15 5.55228 15 5C15 4.44772 15.4477 4 16 4C16.5523 4 17 4.44772 17 5ZM12 10C12.5523 10 13 9.55228 13 9C13 8.44772 12.5523 8 12 8C11.4477 8 11 8.44772 11 9C11 9.55228 11.4477 10 12 10ZM17 9C17 9.55228 16.5523 10 16 10C15.4477 10 15 9.55228 15 9C15 8.44772 15.4477 8 16 8C16.5523 8 17 8.44772 17 9Z" fill="black" fill-opacity="0.4"/>
</svg>
