<svg width="17" height="16" viewBox="0 0 17 16" fill="none" xmlns="http://www.w3.org/2000/svg">
<path fill-rule="evenodd" clip-rule="evenodd" d="M6.70022 14.6666L3.36686 11.3333L6.70022 7.99998C6.70022 8.66665 6.70022 13.3333 6.70022 14.6666ZM11.3669 7.99998L14.7002 4.66665L11.3669 1.33331C11.3669 8.53952 11.3669 1.61837 11.3669 7.99998Z" fill="#719FD8"/>
<path fill-rule="evenodd" clip-rule="evenodd" d="M14.7002 11.3333C14.7002 11.7015 14.4017 12 14.0335 12L6.70022 12L6.70022 10.6667L14.0335 10.6667C14.4017 10.6667 14.7002 10.9651 14.7002 11.3333ZM11.3669 5.33333L3.36691 5.33333C2.99872 5.33333 2.70024 5.03486 2.70024 4.66667C2.70024 4.29848 2.99872 4 3.36691 4L11.3669 4L11.3669 5.33333Z" fill="#85ACDD"/>
</svg>
