<svg width="45" height="44" viewBox="0 0 45 44" fill="none" xmlns="http://www.w3.org/2000/svg">
<path d="M23.4865 32.4368C23.1023 32.2989 22.685 32.4991 22.5486 32.8812C22.4137 33.2625 22.6124 33.6827 22.9938 33.8184C23.4052 33.9651 23.7278 34.2848 23.8782 34.6955C23.9867 34.9925 24.2683 35.1772 24.5668 35.1772C24.6511 35.1772 24.7362 35.1625 24.819 35.1318C25.1996 34.9925 25.3947 34.5716 25.2561 34.1916C24.9547 33.3696 24.3101 32.7302 23.4865 32.4368Z" fill="#999999"/>
<path d="M5.9599 8.67677C7.00713 9.37492 7.83359 9.92561 7.83359 12.4666C7.83359 12.8714 8.16136 13.1999 8.5669 13.1999C8.97244 13.1999 9.3002 12.8714 9.3002 12.4666C9.3002 9.14091 7.9582 8.24631 6.7739 7.45645C5.83598 6.83177 5.07474 6.32423 4.92659 4.4H11.5002C11.9057 4.4 12.2335 4.07146 12.2335 3.6667C12.2335 2.45377 13.2206 1.4667 14.4335 1.4667H30.5668C31.7797 1.4667 32.7668 2.45377 32.7668 3.6667C32.7668 4.07146 33.0946 4.4 33.5001 4.4H40.0737C39.9256 6.32423 39.1644 6.83177 38.2265 7.45654C37.0422 8.24631 35.7002 9.141 35.7002 12.4667C35.7002 12.8715 36.028 13.2 36.4335 13.2C36.839 13.2 37.1668 12.8715 37.1668 12.4667C37.1668 9.9257 37.9933 9.37492 39.0405 8.67685C40.2248 7.88709 41.5668 6.99239 41.5668 3.6667C41.5668 3.26193 41.239 2.93339 40.8335 2.93339H34.1587C33.8192 1.26208 32.3371 0 30.5669 0H14.4335C12.6633 0 11.1812 1.26208 10.8417 2.9333H4.1669C3.76136 2.9333 3.43359 3.26184 3.43359 3.66661C3.43351 6.99231 4.77551 7.887 5.9599 8.67677Z" fill="#999999"/>
<path d="M22.5 29.3333C19.2652 29.3333 16.6333 31.9652 16.6333 35.1999C16.6333 38.4347 19.2652 41.0666 22.5 41.0666C25.7348 41.0666 28.3667 38.4347 28.3667 35.1999C28.3667 31.9652 25.7348 29.3333 22.5 29.3333ZM22.5 39.5999C20.0734 39.5999 18.1 37.6266 18.1 35.1999C18.1 32.7733 20.0734 30.7999 22.5 30.7999C24.9266 30.7999 26.9 32.7733 26.9 35.1999C26.9 37.6266 24.9266 39.5999 22.5 39.5999Z" fill="black"/>
<path d="M23.4865 19.2367C23.1023 19.0989 22.685 19.299 22.5486 19.6811C22.4137 20.0624 22.6124 20.4826 22.9938 20.6183C23.4052 20.765 23.7278 21.0847 23.8782 21.4954C23.9867 21.7924 24.2683 21.9772 24.5668 21.9772C24.6511 21.9772 24.7362 21.9625 24.819 21.9317C25.1996 21.7924 25.3947 21.3715 25.2561 20.9916C24.9547 20.1696 24.3101 19.5301 23.4865 19.2367Z" fill="#999999"/>
<path d="M22.5 16.1333C19.2652 16.1333 16.6333 18.7652 16.6333 22C16.6333 25.2348 19.2652 27.8667 22.5 27.8667C25.7348 27.8667 28.3667 25.2348 28.3667 22C28.3667 18.7652 25.7348 16.1333 22.5 16.1333ZM22.5 26.4C20.0734 26.4 18.1 24.4266 18.1 22C18.1 19.5734 20.0734 17.6 22.5 17.6C24.9266 17.6 26.9 19.5734 26.9 22C26.9 24.4266 24.9266 26.4 22.5 26.4Z" fill="black"/>
<path d="M40.8337 16.1333H34.2337V6.6C34.2337 6.19524 33.9059 5.8667 33.5004 5.8667C33.0949 5.8667 32.7671 6.19524 32.7671 6.6V16.8667C32.7671 17.2715 33.0949 17.6 33.5004 17.6H40.074C39.9259 19.5242 39.1647 20.0318 38.2268 20.6565C37.0425 21.4463 35.7005 22.341 35.7005 25.6667C35.7005 26.0715 36.0282 26.4 36.4338 26.4C36.8393 26.4 37.1671 26.0715 37.1671 25.6667C37.1671 23.1257 37.9935 22.5749 39.0408 21.8769C40.2251 21.0871 41.5671 20.1924 41.5671 16.8667C41.5671 16.4618 41.2392 16.1333 40.8337 16.1333Z" fill="#999999"/>
<path d="M23.4865 6.03676C23.1023 5.89961 22.685 6.09984 22.5486 6.48115C22.4137 6.86245 22.6124 7.28268 22.9938 7.41838C23.4052 7.56508 23.7278 7.88476 23.8782 8.29546C23.9867 8.59246 24.2683 8.77722 24.5668 8.77722C24.6511 8.77722 24.7362 8.76253 24.819 8.73176C25.1996 8.59246 25.3947 8.17154 25.2561 7.79092C24.9547 6.96961 24.3101 6.33015 23.4865 6.03676Z" fill="#999999"/>
<path d="M40.8337 29.3333H34.2337V19.8C34.2337 19.3952 33.9059 19.0667 33.5004 19.0667C33.0949 19.0667 32.7671 19.3952 32.7671 19.8V30.0667C32.7671 30.4714 33.0949 30.8 33.5004 30.8H40.074C39.9259 32.7242 39.1647 33.2317 38.2268 33.8565C37.0425 34.6463 35.7005 35.541 35.7005 38.8667C35.7005 39.2714 36.0282 39.6 36.4338 39.6C36.8393 39.6 37.1671 39.2714 37.1671 38.8667C37.1671 36.3257 37.9935 35.7749 39.0408 35.0768C40.2251 34.287 41.5671 33.3923 41.5671 30.0667C41.5671 29.6618 41.2392 29.3333 40.8337 29.3333Z" fill="#999999"/>
<path d="M6.7739 33.8565C5.83598 33.2317 5.07474 32.7243 4.92667 30.8H11.5002C11.9057 30.8 12.2335 30.4714 12.2335 30.0667V19.8C12.2335 19.3952 11.9057 19.0667 11.5002 19.0667C11.0947 19.0667 10.7669 19.3952 10.7669 19.8V29.3333H4.1669C3.76136 29.3333 3.43359 29.6618 3.43359 30.0666C3.43359 33.3923 4.77559 34.2869 5.9599 35.0767C7.00713 35.7749 7.83359 36.3256 7.83359 38.8666C7.83359 39.2713 8.16136 39.5999 8.5669 39.5999C8.97244 39.5999 9.3002 39.2713 9.3002 38.8666C9.3002 35.541 7.9582 34.6463 6.7739 33.8565Z" fill="#999999"/>
<path d="M33.5004 32.2667C33.0949 32.2667 32.7671 32.5953 32.7671 33V40.3333C32.7671 41.5463 31.78 42.5333 30.5671 42.5333H14.4337C13.2208 42.5333 12.2337 41.5463 12.2337 40.3333V33C12.2337 32.5953 11.9059 32.2667 11.5004 32.2667C11.0949 32.2667 10.7671 32.5953 10.7671 33V40.3333C10.7671 42.3551 12.4119 44 14.4338 44H30.5671C32.5889 44 34.2338 42.3552 34.2338 40.3333V33C34.2337 32.5953 33.9059 32.2667 33.5004 32.2667Z" fill="#999999"/>
<path d="M5.9599 21.8768C7.00713 22.5749 7.83359 23.1256 7.83359 25.6666C7.83359 26.0714 8.16136 26.3999 8.5669 26.3999C8.97244 26.3999 9.3002 26.0714 9.3002 25.6666C9.3002 22.3409 7.9582 21.4463 6.7739 20.6565C5.83598 20.0317 5.07474 19.5242 4.92667 17.5999H11.5002C11.9057 17.5999 12.2335 17.2714 12.2335 16.8666V6.6C12.2335 6.19524 11.9057 5.8667 11.5002 5.8667C11.0947 5.8667 10.7669 6.19524 10.7669 6.6V16.1333H4.1669C3.76136 16.1333 3.43359 16.4618 3.43359 16.8666C3.43351 20.1923 4.77551 21.087 5.9599 21.8768Z" fill="#999999"/>
<path d="M22.5 2.93335C19.2652 2.93335 16.6333 5.56527 16.6333 8.80004C16.6333 12.0348 19.2652 14.6667 22.5 14.6667C25.7348 14.6667 28.3667 12.0348 28.3667 8.80004C28.3667 5.56527 25.7348 2.93335 22.5 2.93335ZM22.5 13.2C20.0734 13.2 18.1 11.2267 18.1 8.80004C18.1 6.37343 20.0734 4.40004 22.5 4.40004C24.9266 4.40004 26.9 6.37343 26.9 8.80004C26.9 11.2267 24.9266 13.2 22.5 13.2Z" fill="black"/>
</svg>
