<svg width="24" height="24" viewBox="0 0 24 24" fill="none" xmlns="http://www.w3.org/2000/svg">
<path fill-rule="evenodd" clip-rule="evenodd" d="M4 7.5C4 5.0147 6.0147 3 8.5 3C10.9853 3 13 5.0147 13 7.5C13 9.9853 10.9853 12 8.5 12C6.0147 12 4 9.9853 4 7.5ZM11 7.5C11 6.1193 9.8807 5 8.5 5C7.1193 5.0001 6 6.1193 6 7.5C6 8.8807 7.1193 10 8.5 10C9.8807 9.9999 11 8.8807 11 7.5Z" fill="black" fill-opacity="0.4"/>
<path fill-rule="evenodd" clip-rule="evenodd" d="M2 18C2 15.9561 3.2284 14.1006 5.0625 13.3438C5.3183 13.2385 5.5919 13.2604 5.8438 13.375C6.7598 13.792 7.6248 14 8.5 14C9.3782 13.9998 10.2402 13.8028 11.125 13.4062C11.3806 13.292 11.6803 13.2954 11.9375 13.4062C13.7648 14.1937 15 16.0042 15 18V20C15 20.5523 14.5523 21 14 21H3C2.4477 21 2 20.5523 2 20V18ZM8.5 16C7.5309 16.0002 6.3918 15.7481 5.447 15.3896C4.6559 15.8531 4 16.8353 4 18V19H13V18C13 16.8994 12.3818 15.9374 11.4792 15.4226C10.5535 15.7646 9.4615 16 8.5 16Z" fill="black" fill-opacity="0.4"/>
<path d="M17.7368 8.02312C17.1459 8.21062 16.6363 8.51646 16.1872 8.93479C16.0484 9.06396 16.0059 9.27562 16.0959 9.44229C16.4297 10.0594 16.0805 10.7198 15.3276 10.7577C15.1434 10.7669 14.9805 10.9035 14.9372 11.0831C14.8626 11.3935 14.833 11.6535 14.833 11.9944C14.833 12.2806 14.8638 12.6048 14.9243 12.8931C14.9618 13.0731 15.1184 13.2027 15.3018 13.2185C16.0593 13.284 16.4343 13.8619 16.0959 14.5985C16.0209 14.7623 16.0551 14.9581 16.1872 15.0806C16.6297 15.4898 17.138 15.7785 17.7368 15.966C17.9076 16.0194 18.1005 15.9548 18.2055 15.8098C18.6688 15.1685 19.3409 15.1665 19.7809 15.8098C19.8847 15.961 20.0747 16.034 20.2497 15.979C20.8276 15.7969 21.3659 15.4873 21.8122 15.0806C21.9497 14.9552 21.9859 14.7523 21.9034 14.5856C21.5568 13.886 21.9555 13.244 22.6713 13.2315C22.8613 13.2281 23.0305 13.1035 23.0751 12.919C23.1472 12.6202 23.1663 12.3602 23.1663 11.9944C23.1663 11.6802 23.1293 11.3706 23.0622 11.0702C23.0197 10.8798 22.8534 10.7448 22.6584 10.7444C21.9538 10.7431 21.5588 10.0506 21.9034 9.44229C21.9993 9.27312 21.9693 9.06562 21.8251 8.93479C21.3709 8.52229 20.8172 8.19979 20.2368 8.02312C20.0584 7.96895 19.8688 8.03562 19.768 8.19229C19.3655 8.81771 18.6138 8.82854 18.2184 8.20562C18.1172 8.04562 17.9168 7.96604 17.7368 8.02312ZM20.2693 8.90812C20.5538 9.02729 20.7784 9.15187 21.0363 9.34729C20.7338 10.3044 21.2468 11.2985 22.3093 11.5406C22.3355 11.7127 22.333 11.8169 22.333 11.9944C22.333 12.2065 22.3359 12.281 22.3118 12.4344C21.2538 12.6535 20.7305 13.6198 21.0251 14.641C20.7718 14.8248 20.5905 14.9523 20.2726 15.0752C19.5259 14.3152 18.4893 14.2819 17.7268 15.0802C17.4293 14.9494 17.2005 14.8331 16.9693 14.6377C17.2559 13.6006 16.7713 12.7052 15.6955 12.4335C15.6476 12.2435 15.6668 11.7069 15.6943 11.544C16.8068 11.2773 17.2451 10.2927 16.9688 9.34437C17.213 9.16062 17.4326 9.02688 17.718 8.91104C18.4368 9.64229 19.5159 9.71521 20.2693 8.90812Z" fill="black"/>
<path fill-rule="evenodd" clip-rule="evenodd" d="M18.9999 11.1667C18.5397 11.1667 18.1666 11.5398 18.1666 12C18.1666 12.4602 18.5397 12.8333 18.9999 12.8333C19.4602 12.8333 19.8333 12.4602 19.8333 12C19.8333 11.5398 19.4602 11.1667 18.9999 11.1667ZM17.3333 12C17.3333 11.0795 18.0794 10.3333 18.9999 10.3333C19.9204 10.3333 20.6666 11.0795 20.6666 12C20.6666 12.9205 19.9204 13.6667 18.9999 13.6667C18.0794 13.6667 17.3333 12.9205 17.3333 12Z" fill="black" fill-opacity="0.4"/>
</svg>
