<svg width="35" height="36" viewBox="0 0 35 36" fill="none" xmlns="http://www.w3.org/2000/svg">
<circle cx="17.5" cy="18" r="17" stroke="#0700C4" stroke-dasharray="2 2"/>
<path d="M14.4892 13.4063C12.7948 13.8694 11.5928 15.3427 11.5928 17.0926V18.3889C11.5928 18.7469 11.8829 19.037 12.2409 19.037H21.315C21.673 19.037 21.9631 18.7469 21.9631 18.3889V17.0926C21.9631 15.3427 20.7612 13.8694 19.0667 13.4063C18.9214 13.3665 18.7787 13.3849 18.6414 13.4468C18.048 13.7142 17.4163 13.8519 16.778 13.8519C16.1396 13.8519 15.5079 13.7142 14.9145 13.4468C14.7772 13.3849 14.6345 13.3665 14.4892 13.4063ZM14.7525 14.7026C15.407 14.9501 16.0778 15.1482 16.778 15.1482C17.4782 15.1482 18.1489 14.9501 18.8034 14.7026C19.9075 15.037 20.6668 15.969 20.6668 17.0926V17.7408H12.8891V17.0926C12.8891 15.969 13.6484 15.037 14.7525 14.7026Z" fill="#08C28D"/>
<path d="M16.7778 6.07422C14.9881 6.07422 13.5371 7.52516 13.5371 9.31496C13.5371 11.1048 14.9881 12.5557 16.7778 12.5557C18.5676 12.5557 20.0186 11.1048 20.0186 9.31496C20.0186 7.52516 18.5676 6.07422 16.7778 6.07422ZM16.7778 7.37052C17.8518 7.37052 18.7223 8.24104 18.7223 9.31496C18.7223 10.3889 17.8518 11.2594 16.7778 11.2594C15.7039 11.2594 14.8334 10.3889 14.8334 9.31496C14.8334 8.24104 15.7039 7.37052 16.7778 7.37052Z" fill="#0700C4"/>
<path d="M9.23852 29.3335C8.86052 29.3335 8.49452 29.2885 8.14052 29.1985C7.78652 29.1085 7.47452 28.9675 7.20452 28.7755C6.93452 28.5775 6.71852 28.3285 6.55652 28.0285C6.39452 27.7285 6.31352 27.3685 6.31352 26.9485C6.31352 26.6125 6.37952 26.3005 6.51152 26.0125C6.64952 25.7185 6.84452 25.4665 7.09652 25.2565C7.35452 25.0405 7.66352 24.8725 8.02352 24.7525C8.38352 24.6265 8.78852 24.5635 9.23852 24.5635H9.77852V24.1135H10.1835V28.9285H11.3895V29.3335H9.23852ZM9.77852 28.9285V24.9685H8.98652C8.70452 24.9685 8.42552 25.0165 8.14952 25.1125C7.87952 25.2085 7.63652 25.3435 7.42052 25.5175C7.21052 25.6855 7.03952 25.8925 6.90752 26.1385C6.78152 26.3845 6.71852 26.6545 6.71852 26.9485C6.71852 27.2605 6.77852 27.5395 6.89852 27.7855C7.01852 28.0315 7.18052 28.2385 7.38452 28.4065C7.58852 28.5745 7.82852 28.7035 8.10452 28.7935C8.38052 28.8835 8.67452 28.9285 8.98652 28.9285H9.77852ZM8.59052 22.9435C8.51852 23.0155 8.43152 23.0515 8.32952 23.0515C8.22752 23.0515 8.14052 23.0155 8.06852 22.9435C7.99652 22.8715 7.96052 22.7845 7.96052 22.6825C7.96052 22.5805 7.99652 22.4935 8.06852 22.4215C8.14052 22.3495 8.22752 22.3135 8.32952 22.3135C8.43152 22.3135 8.51852 22.3495 8.59052 22.4215C8.66252 22.4935 8.69852 22.5805 8.69852 22.6825C8.69852 22.7845 8.66252 22.8715 8.59052 22.9435ZM10.2015 22.9435C10.1295 23.0155 10.0425 23.0515 9.94052 23.0515C9.83852 23.0515 9.75152 23.0155 9.67952 22.9435C9.60752 22.8715 9.57152 22.7845 9.57152 22.6825C9.57152 22.5805 9.60752 22.4935 9.67952 22.4215C9.75152 22.3495 9.83852 22.3135 9.94052 22.3135C10.0425 22.3135 10.1295 22.3495 10.2015 22.4215C10.2735 22.4935 10.3095 22.5805 10.3095 22.6825C10.3095 22.7845 10.2735 22.8715 10.2015 22.9435ZM11.2129 28.9285H13.2469V24.5635H13.6519V29.3335H11.2129V28.9285ZM12.0139 31.0885C11.9419 31.1605 11.8549 31.1965 11.7529 31.1965C11.6509 31.1965 11.5639 31.1605 11.4919 31.0885C11.4199 31.0165 11.3839 30.9295 11.3839 30.8275C11.3839 30.7255 11.4199 30.6385 11.4919 30.5665C11.5639 30.4945 11.6509 30.4585 11.7529 30.4585C11.8549 30.4585 11.9419 30.4945 12.0139 30.5665C12.0859 30.6385 12.1219 30.7255 12.1219 30.8275C12.1219 30.9295 12.0859 31.0165 12.0139 31.0885ZM13.6249 31.0885C13.5529 31.1605 13.4659 31.1965 13.3639 31.1965C13.2619 31.1965 13.1749 31.1605 13.1029 31.0885C13.0309 31.0165 12.9949 30.9295 12.9949 30.8275C12.9949 30.7255 13.0309 30.6385 13.1029 30.5665C13.1749 30.4945 13.2619 30.4585 13.3639 30.4585C13.4659 30.4585 13.5529 30.4945 13.6249 30.5665C13.6969 30.6385 13.7329 30.7255 13.7329 30.8275C13.7329 30.9295 13.6969 31.0165 13.6249 31.0885ZM14.7271 28.9285H18.2191V26.4445C18.2191 26.2165 18.1951 26.0215 18.1471 25.8595C18.1051 25.6975 18.0301 25.5475 17.9221 25.4095C17.8141 25.2715 17.6731 25.1635 17.4991 25.0855C17.3251 25.0075 17.1511 24.9685 16.9771 24.9685H16.3201V24.5635H16.9231C17.2111 24.5635 17.4571 24.6115 17.6611 24.7075C17.8651 24.8035 18.0541 24.9475 18.2281 25.1395C18.3661 25.2955 18.4651 25.4815 18.5251 25.6975C18.5911 25.9075 18.6241 26.1205 18.6241 26.3365V29.3335H14.7271V28.9285ZM19.9759 31.3225C19.8259 31.3225 19.6759 31.2895 19.5259 31.2235L19.6699 30.8455C19.7839 30.8935 19.8979 30.9175 20.0119 30.9175C20.1799 30.9175 20.3119 30.8815 20.4079 30.8095C20.5039 30.7375 20.5759 30.6445 20.6239 30.5305C20.6779 30.4225 20.7109 30.2995 20.7229 30.1615C20.7349 30.0295 20.7409 29.9005 20.7409 29.7745V24.5635H21.1459V28.9285H22.5409V29.3335H21.1459V29.7745C21.1459 29.9845 21.1309 30.1825 21.1009 30.3685C21.0709 30.5605 21.0139 30.7255 20.9299 30.8635C20.8459 31.0075 20.7259 31.1185 20.5699 31.1965C20.4199 31.2805 20.2219 31.3225 19.9759 31.3225ZM22.3574 28.9285H24.4274C24.2714 28.8265 24.1274 28.7125 23.9954 28.5865C23.8634 28.4545 23.7464 28.3075 23.6444 28.1455C23.5424 27.9775 23.4614 27.7945 23.4014 27.5965C23.3474 27.3985 23.3204 27.1795 23.3204 26.9395C23.3204 26.5915 23.3834 26.2705 23.5094 25.9765C23.6414 25.6825 23.8304 25.4335 24.0764 25.2295C24.3224 25.0195 24.6224 24.8575 24.9764 24.7435C25.3364 24.6235 25.7474 24.5635 26.2094 24.5635H27.3254V29.3335H22.3574V28.9285ZM23.7254 26.9395C23.7254 27.1735 23.7614 27.3925 23.8334 27.5965C23.9054 27.7945 24.0014 27.9775 24.1214 28.1455C24.2474 28.3075 24.3914 28.4545 24.5534 28.5865C24.7214 28.7185 24.9014 28.8325 25.0934 28.9285H26.9204V24.9685H25.9574C25.6754 24.9685 25.3994 25.0135 25.1294 25.1035C24.8594 25.1875 24.6194 25.3135 24.4094 25.4815C24.2054 25.6495 24.0404 25.8565 23.9144 26.1025C23.7884 26.3485 23.7254 26.6275 23.7254 26.9395ZM26.2904 23.2945C26.2184 23.3665 26.1314 23.4025 26.0294 23.4025C25.9274 23.4025 25.8404 23.3665 25.7684 23.2945C25.6964 23.2225 25.6604 23.1355 25.6604 23.0335C25.6604 22.9315 25.6964 22.8445 25.7684 22.7725C25.8404 22.7005 25.9274 22.6645 26.0294 22.6645C26.1314 22.6645 26.2184 22.7005 26.2904 22.7725C26.3624 22.8445 26.3984 22.9315 26.3984 23.0335C26.3984 23.1355 26.3624 23.2225 26.2904 23.2945Z" fill="#0700C4"/>
</svg>
