<svg width="29" height="29" viewBox="0 0 29 29" fill="none" xmlns="http://www.w3.org/2000/svg">
<rect x="0.5" y="0.5" width="28" height="28" rx="3" fill="#FFCC49"/>
<path d="M14.4999 12.8334C13.5791 12.8334 12.8333 13.5792 12.8333 14.5C12.8333 15.4209 13.5791 16.1667 14.4999 16.1667C15.4208 16.1667 16.1666 15.4209 16.1666 14.5C16.1666 13.5792 15.4208 12.8334 14.4999 12.8334Z" fill="white"/>
<path d="M7.83341 12.8334C6.91258 12.8334 6.16675 13.5792 6.16675 14.5C6.16675 15.4209 6.91258 16.1667 7.83341 16.1667C8.75425 16.1667 9.50008 15.4209 9.50008 14.5C9.50008 13.5792 8.75425 12.8334 7.83341 12.8334ZM21.1667 12.8334C20.2459 12.8334 19.5001 13.5792 19.5001 14.5C19.5001 15.4209 20.2459 16.1667 21.1667 16.1667C22.0876 16.1667 22.8334 15.4209 22.8334 14.5C22.8334 13.5792 22.0876 12.8334 21.1667 12.8334Z" fill="white"/>
</svg>
