<svg width="360" height="428" viewBox="0 0 360 428" fill="none" xmlns="http://www.w3.org/2000/svg">
<path fill-rule="evenodd" clip-rule="evenodd" d="M178.934 0.72227C178.494 1.13886 178.134 1.31884 178.134 1.12059C178.134 0.923256 177.56 1.27042 176.86 1.89347C176.159 2.51653 175.585 2.85913 175.585 2.6554C175.585 2.45167 174.438 3.06468 173.037 4.01754C171.635 4.9704 170.35 5.75059 170.18 5.75059C170.011 5.75059 169.192 6.29235 168.358 6.9556C167.526 7.61795 166.569 8.16061 166.232 8.16061C165.895 8.16061 165.294 8.58634 164.899 9.10708C164.502 9.62782 163.534 10.1869 162.747 10.3505C161.961 10.514 161.318 10.8474 161.318 11.0914C161.318 11.3353 160.992 11.5354 160.596 11.5354C160.199 11.5354 159.797 11.6998 159.704 11.9017C159.611 12.1027 155.521 14.6406 150.617 17.5394C138.762 24.5474 134.983 26.8213 132.443 28.474C131.277 29.2341 130.073 29.8553 129.769 29.8553C129.463 29.8553 129.214 30.0472 129.214 30.281C129.214 30.5149 128.813 30.8347 128.323 30.99C127.456 31.2659 125.653 32.2608 125.138 32.7477C124.769 33.0958 122.972 34.1446 122.08 34.5319C121.12 34.9485 119.788 36.18 119.788 36.6505C119.788 36.846 119.579 37.1868 119.323 37.4079C119.05 37.6445 119.024 37.5412 119.259 37.1557C119.827 36.2284 117.635 36.9255 116.309 38.093C115.755 38.5818 115.107 38.8677 114.87 38.7289C114.631 38.59 114.437 38.7188 114.437 39.0148C114.437 39.3117 114.206 39.4186 113.923 39.2542C113.641 39.0888 113.273 39.2917 113.106 39.7046C112.938 40.1175 112.595 40.335 112.342 40.187C112.089 40.039 111.745 40.2564 111.577 40.6693C111.41 41.0823 111.067 41.2997 110.817 41.1535C110.566 41.0064 110.36 41.1161 110.36 41.3974C110.36 41.6779 110.016 41.9072 109.596 41.9072C109.175 41.9072 108.831 42.1374 108.831 42.4179C108.831 42.6993 108.637 42.8153 108.399 42.6755C108.161 42.5367 107.498 42.8363 106.924 43.3415C106.352 43.8467 105.749 44.1336 105.586 43.9792C105.422 43.8248 105.145 44.0532 104.968 44.4872C104.792 44.9211 104.477 45.1769 104.269 45.0554C104.06 44.933 103.407 45.26 102.816 45.7808C102.224 46.3024 101.501 46.7282 101.21 46.7282C100.917 46.7282 100.679 46.9584 100.679 47.2388C100.679 47.5202 100.449 47.6152 100.169 47.4517C99.8887 47.2882 99.6589 47.3832 99.6589 47.6646C99.6589 47.945 99.3151 48.1753 98.895 48.1753C98.474 48.1753 98.1303 48.3918 98.1303 48.6567C98.1303 48.9226 97.8435 49.1391 97.4929 49.1391C97.1424 49.1391 94.9272 50.3322 92.5711 51.7903C90.2149 53.2493 88.1938 54.4424 88.0789 54.4424C87.965 54.4424 87.119 54.9842 86.2007 55.6474C85.2824 56.3107 84.2656 56.8524 83.9421 56.8524C83.6176 56.8524 83.3531 57.0351 83.3531 57.259C83.3531 57.4819 82.4994 58.0784 81.4556 58.5846C80.4127 59.0907 79.0984 59.8919 78.5364 60.3669C77.9735 60.8411 76.9924 61.3527 76.356 61.5034C75.7206 61.6542 75.2002 61.9712 75.2002 62.2078C75.2002 62.4444 74.8554 62.6381 74.4354 62.6381C74.0153 62.6381 73.6706 62.8674 73.6706 63.1488C73.6706 63.4293 73.461 63.5361 73.2051 63.3863C72.9483 63.2365 72.6624 63.3269 72.5678 63.5873C72.4741 63.8477 70.2184 65.3277 67.5561 66.8771L62.7154 69.6927L62.3977 82.9186C61.7034 111.763 55.0868 136.943 43.8226 153.603C42.8695 155.012 42.2457 156.165 42.436 156.165C42.6262 156.165 42.3365 156.483 41.7928 156.873C41.2482 157.262 40.9643 157.588 41.1613 157.596C41.3583 157.604 40.9566 158.185 40.27 158.887C39.5825 159.589 39.0205 160.405 39.0205 160.7C39.0205 160.995 38.5522 161.513 37.9815 161.85C37.4098 162.188 37.0689 162.657 37.2225 162.893C37.377 163.13 36.813 163.788 35.9691 164.357C35.1241 164.925 34.4337 165.663 34.4337 165.997C34.4337 166.33 33.8707 167.104 33.1822 167.715C32.4947 168.327 31.9781 169.06 32.036 169.344C32.094 169.628 31.7965 169.871 31.3765 169.883C30.9564 169.895 30.6117 170.158 30.6117 170.468C30.6117 170.776 30.4031 171.21 30.1482 171.431C29.8817 171.663 29.8305 171.591 30.0294 171.264C30.8348 169.934 29.3139 170.274 28.0286 171.711C27.2571 172.574 26.4276 173.223 26.1842 173.154C25.9419 173.086 25.6097 173.357 25.4475 173.757C25.2852 174.157 24.8883 174.485 24.5649 174.485C24.2414 174.485 23.4061 174.985 22.7089 175.597C22.0107 176.21 21.2102 176.75 20.9302 176.799C20.6502 176.848 20.0766 177.166 19.6565 177.507C19.2355 177.847 18.7015 178.147 18.4678 178.174C18.2351 178.2 17.0889 178.814 15.9204 179.538C14.752 180.261 13.4146 180.923 12.9482 181.008C12.4818 181.093 10.5331 181.808 8.6173 182.595C6.70147 183.383 3.93008 184.426 2.45845 184.914C-0.730097 185.969 -0.668295 185.127 1.78636 194.01C5.58712 207.77 13.2862 225.119 21.4681 238.363C22.4511 239.953 23.4814 241.689 23.7566 242.22C24.0318 242.75 24.7155 243.834 25.2756 244.63C25.8347 245.426 26.4314 246.456 26.6004 246.92C26.7704 247.384 27.0746 247.763 27.2773 247.763C27.4801 247.763 28.0837 248.63 28.6196 249.69C29.1545 250.75 29.8537 251.526 30.1723 251.414C30.5267 251.289 30.6523 251.57 30.4949 252.139C30.3539 252.649 30.4949 253.067 30.8077 253.067C31.1206 253.067 31.3765 253.392 31.3765 253.79C31.3765 254.188 31.6053 254.513 31.8863 254.513C32.1664 254.513 32.3952 254.838 32.3952 255.236C32.3952 255.634 32.6251 255.959 32.9051 255.959C33.1851 255.959 33.415 256.308 33.415 256.734C33.415 257.208 33.6979 257.406 34.144 257.244C34.6539 257.059 34.8161 257.261 34.6828 257.915C34.5785 258.43 34.6819 258.852 34.9136 258.852C35.1444 258.852 35.4621 259.314 35.6176 259.878C35.8194 260.607 36.1545 260.814 36.7686 260.591C37.4484 260.344 37.5141 260.415 37.0709 260.92C36.6383 261.413 36.8478 261.919 37.9622 263.073C38.7627 263.903 39.2957 264.697 39.146 264.839C38.9964 264.981 39.2513 265.234 39.7119 265.401C40.1715 265.568 40.5491 266.005 40.5491 266.372C40.5491 266.739 41.0078 267.31 41.5679 267.642C42.1289 267.973 42.5866 268.424 42.5866 268.643C42.5866 270.534 70.398 298.864 71.578 298.176C71.8243 298.031 72.3399 298.277 72.7214 298.723C73.1993 299.28 73.2177 299.421 72.7793 299.171C71.7036 298.56 72.0734 299.601 73.3268 300.715C74.6198 301.865 75.5671 301.592 74.5735 300.357C74.2345 299.935 74.5735 300.109 75.3267 300.744C76.0808 301.379 76.5772 302.083 76.4304 302.307C76.1648 302.714 76.9393 303.482 80.6357 306.473C81.7095 307.342 83.7355 309.019 85.1366 310.198C86.5377 311.379 87.8394 312.349 88.0297 312.354C88.2199 312.36 88.6786 312.646 89.0494 312.989C91.7899 315.53 107.054 325.617 116.221 330.944C118.463 332.247 120.6 333.589 120.971 333.927C121.34 334.265 121.953 334.541 122.329 334.541C122.706 334.541 123.091 334.715 123.185 334.926C123.277 335.138 125.413 336.257 127.93 337.414C130.446 338.57 133.416 340.141 134.528 340.903C135.642 341.665 137.535 342.524 138.737 342.81C139.939 343.096 140.783 343.544 140.612 343.805C140.442 344.066 140.816 344.02 141.444 343.701C142.357 343.24 142.506 343.246 142.187 343.735C141.901 344.172 142.036 344.256 142.661 344.03C143.142 343.855 143.416 343.895 143.27 344.118C142.973 344.574 143.102 344.635 152.655 348.587C156.439 350.151 160.222 351.732 161.063 352.1C162.631 352.787 168.011 354.699 177.879 358.08L183.484 360L189.09 358.178C195.961 355.946 201.633 353.918 206.669 351.893C211.893 349.793 222.779 345.187 224.389 344.397C225.113 344.042 225.894 343.861 226.124 343.995C226.355 344.13 226.543 343.998 226.543 343.701C226.543 343.405 226.772 343.296 227.053 343.461C227.333 343.624 227.562 343.515 227.562 343.219C227.562 342.922 227.792 342.815 228.072 342.978C228.352 343.142 228.582 343.096 228.582 342.876C228.582 342.153 232.984 340.163 233.681 340.57C234.119 340.826 234.22 340.768 233.98 340.401C233.781 340.095 233.86 339.817 234.156 339.784C235.225 339.665 235.479 339.567 236.734 338.789C237.435 338.355 239.191 337.384 240.637 336.633C248.502 332.54 269.616 319.381 270.823 317.821C270.992 317.603 272.105 316.799 273.297 316.034C274.487 315.269 275.461 314.456 275.461 314.228C275.461 313.999 275.765 313.811 276.135 313.811C276.504 313.811 277.311 313.323 277.926 312.726C278.541 312.13 279.858 310.991 280.852 310.195C281.846 309.4 283.368 308.052 284.234 307.199C285.1 306.347 285.946 305.709 286.113 305.782C286.281 305.854 287.563 304.708 288.962 303.234C290.361 301.759 290.82 301.096 289.981 301.759L288.456 302.964L289.589 301.742C290.212 301.07 291.238 300.483 291.87 300.438C292.954 300.361 294.641 298.816 304.169 289.18C309.069 284.225 315.208 277.456 315.208 277.009C315.208 276.863 316.01 275.918 316.99 274.909C317.969 273.899 318.771 272.922 318.773 272.737C318.774 272.552 319.349 271.815 320.05 271.1C320.75 270.385 321.324 269.528 321.324 269.199C321.324 268.868 321.667 268.472 322.087 268.32C322.508 268.167 322.852 267.733 322.852 267.355C322.852 266.978 323.21 266.538 323.649 266.379C324.087 266.22 324.318 265.894 324.162 265.655C324.005 265.416 324.234 265.09 324.671 264.932C325.107 264.773 325.321 264.424 325.146 264.155C324.97 263.886 325.184 263.536 325.623 263.376C326.061 263.217 326.419 262.785 326.419 262.416C326.419 262.046 326.648 261.745 326.929 261.745C327.209 261.745 327.438 261.442 327.438 261.073C327.438 260.703 327.797 260.271 328.235 260.112C328.673 259.953 328.889 259.604 328.715 259.338C328.54 259.071 328.654 258.852 328.967 258.852C329.28 258.852 329.395 258.635 329.222 258.37C329.049 258.105 329.15 257.888 329.447 257.888C329.743 257.888 329.986 257.562 329.986 257.165C329.986 256.767 330.215 256.441 330.496 256.441C330.776 256.441 331.005 256.132 331.005 255.753C331.005 255.374 331.319 254.767 331.702 254.404C332.086 254.042 332.56 253.267 332.756 252.683C332.952 252.098 333.327 251.621 333.587 251.621C333.849 251.621 334.062 251.311 334.062 250.932C334.062 250.553 334.352 249.956 334.705 249.606C335.059 249.255 335.633 248.427 335.981 247.763C336.329 247.101 337.885 244.389 339.44 241.737C340.994 239.086 342.845 235.723 343.552 234.265C344.259 232.806 345.373 230.529 346.027 229.203C352.792 215.49 361.407 188.522 359.805 186.07C359.49 185.585 355.16 183.645 354.396 183.645C354.159 183.645 352.755 183.131 351.276 182.502C349.796 181.874 347.971 181.223 347.22 181.055C346.469 180.888 345.552 180.471 345.182 180.13C344.047 179.084 340.689 177.275 340.672 177.699C340.663 177.92 340.42 177.716 340.13 177.246C339.842 176.777 339.414 176.504 339.18 176.641C338.947 176.778 338.618 176.552 338.451 176.139C338.283 175.726 337.939 175.509 337.686 175.657C337.434 175.805 337.086 175.576 336.913 175.151C336.723 174.683 336.223 174.468 335.653 174.609C335.011 174.769 334.727 174.596 334.767 174.073C334.8 173.65 334.574 173.298 334.264 173.291C333.955 173.285 333.07 172.568 332.296 171.699C331.28 170.557 330.717 170.254 330.266 170.608C329.818 170.96 329.295 170.725 328.413 169.778L327.183 168.459L328.713 169.662L330.241 170.866L328.762 169.317C327.948 168.466 327.09 167.881 326.857 168.018C326.622 168.155 326.553 167.964 326.704 167.594C326.854 167.224 326.227 166.183 325.31 165.279C324.393 164.377 323.408 163.294 323.121 162.875C322.833 162.455 320.903 159.744 318.83 156.849C305.645 138.425 298.689 113.797 297.946 82.9186L297.629 69.6927L292.787 66.8826C290.125 65.3377 287.543 63.7499 287.049 63.3553C286.555 62.9606 285.924 62.6381 285.648 62.6381C285.371 62.6381 285.144 62.4444 285.144 62.2078C285.144 61.9712 284.623 61.6542 283.987 61.5034C283.351 61.3527 282.376 60.8411 281.821 60.3669C281.267 59.8919 279.953 59.0751 278.901 58.5507C277.85 58.0264 276.991 57.4298 276.991 57.2252C276.991 57.0205 276.666 56.8524 276.269 56.8524C275.872 56.8524 275.47 56.6615 275.376 56.4285C275.284 56.1956 274.404 55.588 273.424 55.0792C272.443 54.5703 269.694 52.9715 267.314 51.5263C264.935 50.081 262.814 48.9527 262.6 49.0185C262.388 49.0852 262.213 48.9226 262.213 48.6567C262.213 48.3918 261.984 48.1753 261.705 48.1753C261.425 48.1753 260.049 47.3951 258.647 46.4422C257.246 45.4894 256.098 44.88 256.098 45.0883C256.098 45.2966 255.761 45.0454 255.35 44.531C254.939 44.0158 254.595 43.7663 254.585 43.9756C254.577 44.1848 254.076 43.9207 253.473 43.389C252.87 42.8582 252.182 42.5367 251.944 42.6755C251.707 42.8153 251.512 42.6993 251.512 42.4179C251.512 42.1374 251.168 41.9072 250.748 41.9072C250.327 41.9072 249.983 41.6779 249.983 41.3974C249.983 41.1161 249.752 41.022 249.47 41.1864C249.188 41.3518 248.819 41.1489 248.652 40.736C248.484 40.3231 248.143 40.1047 247.891 40.2518C247.64 40.398 247.436 40.2884 247.436 40.0079C247.436 39.7265 247.091 39.4972 246.671 39.4972C246.251 39.4972 245.907 39.2798 245.907 39.0148C245.907 38.7499 245.62 38.5873 245.27 38.6531C244.919 38.7197 244.687 38.5105 244.754 38.189C244.824 37.8509 244.555 37.7194 244.117 37.8783C243.7 38.03 243.359 37.914 243.359 37.6207C243.359 37.3265 243.015 37.0863 242.595 37.0863C242.174 37.0863 241.83 36.8698 241.83 36.6048C241.83 36.339 241.503 36.1225 241.102 36.1225C240.701 36.1225 240.071 35.8392 239.701 35.493C239.33 35.1468 238.224 34.4415 237.244 33.9262C236.263 33.411 235.346 32.8802 235.206 32.7477C234.691 32.2608 232.887 31.2659 232.021 30.99C231.531 30.8347 231.129 30.5149 231.129 30.281C231.129 30.0472 230.88 29.8553 230.576 29.8553C230.27 29.8553 229.067 29.2341 227.9 28.474C225.36 26.8213 221.581 24.5474 209.727 17.5394C204.822 14.6406 200.733 12.1027 200.64 11.9017C200.546 11.6998 200.145 11.5354 199.748 11.5354C199.351 11.5354 199.026 11.3417 199.026 11.106C199.026 10.8694 198.506 10.5524 197.869 10.4007C197.233 10.25 196.21 9.68446 195.597 9.14362C194.984 8.60278 194.243 8.16061 193.952 8.16061C193.659 8.16061 193.421 7.94409 193.421 7.67824C193.421 7.41331 193.156 7.19679 192.832 7.19679C192.508 7.19679 191.491 6.65412 190.573 5.99087C189.654 5.32852 188.758 4.78586 188.58 4.78586C188.402 4.78586 187.469 4.21761 186.508 3.5233C185.545 2.82898 184.758 2.4334 184.758 2.64352C184.758 2.85364 184.184 2.51653 183.484 1.89347C182.783 1.27042 182.203 0.961627 182.194 1.20647C182.186 1.45222 181.945 1.27316 181.66 0.809059C181.015 -0.2379 179.984 -0.270788 178.934 0.72227ZM182.945 25.979C184.151 26.7647 185.281 27.2708 185.457 27.1045C185.634 26.9383 185.777 27.0552 185.777 27.364C185.777 27.6737 186.004 27.9268 186.281 27.9268C186.558 27.9268 187.253 28.3068 187.826 28.7709C188.399 29.2341 188.923 29.5054 188.99 29.3729C189.058 29.2405 189.659 29.6123 190.325 30.1997C190.991 30.7872 191.708 31.1681 191.916 31.0466C192.124 30.9242 192.432 31.1626 192.599 31.5756C192.767 31.9885 193.135 32.1913 193.417 32.0269C193.7 31.8615 193.93 31.9565 193.93 32.237C193.93 32.5184 194.274 32.7477 194.694 32.7477C195.115 32.7477 195.459 32.9779 195.459 33.2584C195.459 33.5389 195.664 33.6485 195.915 33.5023C196.166 33.3552 196.509 33.5736 196.676 33.9865C196.844 34.3994 197.212 34.6023 197.494 34.4369C197.776 34.2725 198.006 34.3793 198.006 34.6763C198.006 34.9723 198.212 35.0947 198.463 34.9485C198.714 34.8014 199.056 35.0198 199.224 35.4327C199.391 35.8456 199.735 36.0622 199.988 35.9151C200.241 35.7671 200.585 35.9836 200.753 36.3965C200.92 36.8095 201.288 37.0123 201.571 36.8478C201.853 36.6825 202.083 36.7629 202.083 37.026C202.083 37.2891 202.599 37.6563 203.23 37.8427C203.86 38.0282 204.491 38.3141 204.632 38.4777C205.312 39.2697 208.269 40.4766 208.788 40.1733C209.121 39.9787 209.238 40.0408 209.057 40.3158C208.772 40.7534 212.709 43.8358 213.553 43.8358C213.744 43.8358 214.619 44.3245 215.498 44.9211C216.376 45.5177 217.49 46.222 217.974 46.4879C223.934 49.753 244.709 62.4892 244.534 62.7706C244.406 62.9761 244.504 63.0839 244.75 63.0117C245.342 62.8363 248.964 64.6809 248.964 65.1577C248.964 65.3633 249.308 65.5305 249.728 65.5305C250.149 65.5305 250.493 65.7223 250.493 65.9562C250.493 66.191 250.894 66.5135 251.384 66.6752C252.705 67.1082 256.878 69.5027 258.004 70.4729C258.542 70.9379 259.087 71.2202 259.214 71.1006C259.34 70.9809 260.443 71.6313 261.664 72.5458C262.886 73.4603 264.162 74.2085 264.499 74.2085C264.837 74.2085 265.529 74.6434 266.038 75.1751C266.547 75.7077 267.059 76.0512 267.178 75.9389C267.297 75.8265 267.842 76.159 268.389 76.6761C268.937 77.1941 269.605 77.4892 269.875 77.3311C270.146 77.1731 270.366 77.2736 270.366 77.5541C270.366 77.8354 270.711 78.0647 271.131 78.0647C271.551 78.0647 271.895 78.295 271.895 78.5754C271.895 78.8559 272.11 78.9601 272.373 78.8066C272.636 78.6531 273.088 78.9107 273.377 79.3803C273.665 79.8499 273.913 80.0171 273.925 79.7521C273.939 79.4872 274.167 79.5959 274.432 79.9933C274.698 80.3907 275.21 80.7169 275.571 80.7169C276.065 80.7169 276.31 82.6765 276.569 88.6714C277.296 105.581 280.767 124.133 285.854 138.311C286.826 141.022 287.508 143.523 287.368 143.869C287.008 144.757 288.222 145.339 288.76 144.536C289.375 143.618 289.336 144.453 288.713 145.555C288.175 146.505 288.545 148.123 289.21 147.734C289.426 147.608 289.602 148.08 289.602 148.784C289.602 149.488 289.998 150.337 290.482 150.671C290.965 151.007 291.209 151.511 291.025 151.794C290.84 152.077 290.945 152.308 291.258 152.308C291.572 152.308 291.687 152.525 291.513 152.79C291.34 153.056 291.411 153.272 291.67 153.272C291.93 153.272 292.659 154.628 293.29 156.285C293.923 157.942 294.689 159.593 294.994 159.952C295.633 160.703 296.539 162.142 297.469 163.879C297.824 164.541 298.542 165.452 299.065 165.902C299.587 166.352 299.878 166.93 299.711 167.187C299.543 167.443 299.579 167.726 299.791 167.815C300.003 167.904 301.893 170.146 303.99 172.797C311.915 182.813 324.032 192.808 334.145 197.672C335.106 198.134 335.52 198.575 335.182 198.772C334.871 198.954 334.746 199.422 334.904 199.811C335.062 200.2 334.944 200.518 334.643 200.518C334.341 200.518 334.226 200.843 334.388 201.241C334.55 201.64 334.403 201.964 334.062 201.964C333.722 201.964 333.576 202.289 333.738 202.688C333.899 203.085 333.784 203.41 333.483 203.41C333.182 203.41 333.067 203.736 333.228 204.134C333.389 204.531 333.274 204.857 332.973 204.857C332.672 204.857 332.557 205.183 332.718 205.58C332.879 205.977 332.765 206.303 332.463 206.303C332.162 206.303 332.052 206.64 332.219 207.052C332.417 207.54 332.317 207.68 331.932 207.455C331.54 207.225 331.449 207.373 331.661 207.896C331.837 208.329 331.757 208.813 331.484 208.973C331.212 209.132 331.121 209.464 331.282 209.711C331.444 209.958 331.336 210.16 331.046 210.16C330.754 210.16 330.596 210.811 330.693 211.606C330.792 212.402 330.723 213.053 330.543 213.053C330.361 213.053 329.55 214.517 328.739 216.307C322.209 230.716 308.174 253.059 300.723 260.901C300.282 261.365 299.921 261.913 299.921 262.119C299.921 262.326 299.52 262.855 299.03 263.294C298.539 263.735 297.679 264.687 297.119 265.412C296.558 266.135 295.526 267.288 294.825 267.973C294.125 268.657 293.226 269.813 292.828 270.543C292.431 271.272 291.844 271.868 291.523 271.868C291.202 271.868 290.267 272.565 289.443 273.417C288.62 274.269 288.405 274.663 288.966 274.292C291.998 272.289 273.575 289.226 267.309 294.202C263.245 297.43 259.806 300.179 259.666 300.312C258.888 301.049 256.06 302.723 255.593 302.723C255.293 302.723 254.916 303.047 254.755 303.443C254.594 303.84 254.257 304.043 254.007 303.897C253.756 303.75 253.55 303.991 253.55 304.434C253.55 304.95 253.277 305.137 252.786 304.959C252.314 304.788 252.021 304.961 252.021 305.411C252.021 305.812 251.702 306.076 251.312 305.998C250.922 305.92 250.015 306.453 249.297 307.182C248.581 307.911 247.753 308.508 247.46 308.508C247.166 308.508 246.926 308.725 246.926 308.99C246.926 309.255 246.582 309.472 246.161 309.472C245.741 309.472 245.397 309.689 245.397 309.954C245.397 310.219 245.053 310.437 244.632 310.437C244.212 310.437 243.869 310.69 243.869 310.999C243.869 311.308 243.732 311.432 243.565 311.275C243.399 311.117 241.966 311.774 240.381 312.734C230.791 318.542 207.251 330.304 204.262 330.781C203.765 330.861 203.243 331.061 203.102 331.225C202.145 332.349 184.405 338.552 183.034 338.242C178.605 337.24 160.253 329.972 150.617 325.403C141.164 320.922 129.985 315.047 126.539 312.751C125.769 312.237 125.134 311.994 125.131 312.212C125.126 312.428 124.954 312.379 124.748 312.1C124.073 311.19 121.209 309.494 120.876 309.808C120.698 309.977 120.551 309.862 120.551 309.552C120.551 309.243 120.232 308.99 119.842 308.99C119.452 308.99 118.995 308.651 118.826 308.237C118.658 307.822 118.314 307.604 118.061 307.752C117.808 307.9 117.464 307.682 117.296 307.269C117.129 306.856 116.785 306.64 116.532 306.788C116.279 306.935 115.941 306.732 115.78 306.336C115.62 305.94 115.137 305.616 114.707 305.616C114.279 305.616 113.927 305.398 113.927 305.133C113.927 304.868 113.555 304.651 113.101 304.651C112.386 304.651 112.369 304.766 112.973 305.495C113.602 306.253 113.585 306.274 112.811 305.701C112.337 305.35 112.075 304.753 112.229 304.375C112.382 303.997 112.237 303.687 111.907 303.687C111.577 303.687 111.007 303.416 110.641 303.084C110.275 302.753 109.468 302.157 108.847 301.759C108.225 301.361 107.302 300.71 106.793 300.312C106.285 299.915 105.358 299.264 104.734 298.866C104.109 298.469 103.229 297.807 102.776 297.398C102.323 296.988 100.691 295.695 99.15 294.525C90.3646 287.856 74.0404 273.092 71.8127 269.802C71.1329 268.798 70.3816 268.091 70.1421 268.231C69.9026 268.371 69.3262 267.728 68.8617 266.802C68.3982 265.877 67.7068 265.12 67.3273 265.12C66.9478 265.12 66.3974 264.468 66.1038 263.673C65.8103 262.878 65.2425 262.226 64.8417 262.226C64.441 262.226 63.8278 261.576 63.4792 260.78C63.1316 259.985 62.5551 259.334 62.1988 259.334C61.8415 259.334 61.4359 259.053 61.2968 258.71C61.1578 258.366 58.875 255.275 56.2243 251.84C51.8181 246.131 44.3199 235.535 43.446 233.783C43.2481 233.385 42.6407 232.409 42.097 231.613C40.383 229.104 37.1848 223.571 34.93 219.215C33.7336 216.904 32.5623 215.125 32.3267 215.263C32.0901 215.4 32.0486 215.141 32.233 214.686C32.4512 214.148 32.3721 213.974 32.008 214.187C31.699 214.367 31.2809 214.261 31.0781 213.95C30.8483 213.597 30.9304 213.515 31.2973 213.73C32.2021 214.259 32.0099 213.425 30.5151 210.339C29.76 208.782 29.1729 207.128 29.2096 206.664C29.2453 206.201 29.0464 205.821 28.7673 205.821C28.4873 205.821 28.4004 205.605 28.5742 205.339C28.747 205.074 28.6949 204.857 28.4574 204.857C28.2208 204.857 27.989 204.389 27.9436 203.816C27.8983 203.243 27.5999 202.622 27.2822 202.436C26.9635 202.25 26.7404 201.956 26.7858 201.782C27.0021 200.951 26.1311 198.588 25.6029 198.575C25.2756 198.567 25.4658 198.314 26.0259 198.014C26.5869 197.713 27.1595 197.339 27.2996 197.181C27.4396 197.024 29.3651 195.851 31.5773 194.574C42.0623 188.523 56.3112 174.947 60.8807 166.653C61.2737 165.941 61.8251 165.492 62.1061 165.657C62.388 165.821 62.4711 165.731 62.2915 165.456C62.1119 165.181 62.3716 164.443 62.8699 163.815C63.3672 163.187 64.0605 162.131 64.4091 161.468C64.7577 160.806 65.5872 159.415 66.2535 158.38C66.9188 157.344 67.3563 156.233 67.2259 155.912C67.0946 155.589 67.3659 154.968 67.8285 154.53C68.29 154.093 68.7139 153.469 68.769 153.142C68.825 152.816 69.2557 152 69.7279 151.328C70.2001 150.656 70.6607 149.646 70.7514 149.084C70.8422 148.523 71.2246 147.711 71.6022 147.282C71.9788 146.852 72.1536 146.373 71.9904 146.218C71.8262 146.063 72.4741 143.845 73.4301 141.289C79.3379 125.485 83.0276 106.666 83.7934 88.4302C84.0377 82.6226 84.2791 80.7169 84.7725 80.7169C85.1337 80.7169 85.6455 80.3907 85.912 79.9933C86.1776 79.5959 86.4054 79.4872 86.418 79.7521C86.4306 80.0171 86.6778 79.8499 86.9665 79.3803C87.2562 78.9107 87.7071 78.6531 87.9707 78.8066C88.2334 78.9601 88.4487 78.8431 88.4487 78.5471C88.4487 78.2502 88.6641 78.1342 88.9267 78.2877C89.1904 78.4411 89.6413 78.1835 89.931 77.7139C90.2197 77.2444 90.4631 77.0333 90.4718 77.2444C90.4795 77.4563 91.4615 76.9949 92.6522 76.2193C93.8438 75.4446 95.0479 74.7613 95.328 74.7028C95.608 74.6434 96.9 73.8577 98.1988 72.9551C99.4976 72.0534 100.744 71.3152 100.968 71.3152C101.193 71.3152 101.857 70.8895 102.444 70.3679C103.566 69.3702 107.445 67.1722 108.959 66.6752C109.449 66.5135 109.85 66.2157 109.85 66.0128C109.85 65.8091 110.252 65.5159 110.742 65.3596C111.675 65.0636 113.49 64.0414 113.927 63.5663C114.067 63.4137 120.332 59.6178 127.849 55.1294C135.366 50.6419 142.131 46.592 142.882 46.1316C143.632 45.6702 144.591 45.1458 145.011 44.9668C146.635 44.2734 150.063 41.7483 149.841 41.4093C149.713 41.2129 149.892 41.0649 150.24 41.0804C151.167 41.1225 154.184 39.8297 154.184 39.3912C154.184 39.1848 154.552 39.0148 155.003 39.0148C155.453 39.0148 155.711 38.7435 155.577 38.4128C155.425 38.0355 155.827 37.7815 156.653 37.734C157.38 37.692 158.058 37.4197 158.16 37.1283C158.264 36.8369 158.558 36.7218 158.817 36.8734C159.075 37.0241 159.423 36.8095 159.591 36.3965C159.758 35.9836 160.102 35.7671 160.355 35.9151C160.608 36.0622 160.952 35.8456 161.12 35.4327C161.287 35.0198 161.63 34.8014 161.881 34.9485C162.131 35.0947 162.337 34.9723 162.337 34.6763C162.337 34.3793 162.567 34.2725 162.849 34.4369C163.132 34.6023 163.5 34.3994 163.667 33.9865C163.835 33.5736 164.177 33.3552 164.428 33.5023C164.679 33.6485 164.885 33.5389 164.885 33.2584C164.885 32.9779 165.229 32.7477 165.649 32.7477C166.069 32.7477 166.414 32.5184 166.414 32.237C166.414 31.9565 166.608 31.8405 166.845 31.9794C167.084 32.1182 167.762 31.8058 168.354 31.2851C168.945 30.7634 169.667 30.3377 169.959 30.3377C170.251 30.3377 170.49 30.1075 170.49 29.827C170.49 29.5456 170.719 29.4506 170.999 29.6141C171.279 29.7777 171.509 29.6826 171.509 29.4013C171.509 29.1208 171.853 28.8906 172.273 28.8906C172.694 28.8906 173.038 28.6741 173.038 28.4091C173.038 28.1433 173.382 27.9268 173.802 27.9268C174.223 27.9268 174.567 27.6974 174.567 27.4161C174.567 27.1356 174.738 27.0059 174.949 27.1274C175.158 27.2498 176.248 26.7291 177.369 25.9708C179.933 24.2359 180.268 24.2368 182.945 25.979ZM177.49 54.3218C175.086 59.182 173.476 64.3766 173.374 67.5997L173.293 70.176L170.437 67.4399C161.857 59.2168 149.666 58.1661 136.666 64.5301C130.725 67.438 130.899 67.6472 139.528 67.9807C146.765 68.2612 149.278 68.6768 152.994 70.208C154.069 70.6502 155.119 70.9727 155.33 70.9233C155.54 70.874 155.712 71.0503 155.712 71.3152C155.712 71.5811 155.999 71.7985 156.35 71.7994C156.699 71.7994 157.445 72.4499 158.006 73.2438C158.566 74.0377 159.286 74.6882 159.607 74.6891C159.927 74.69 160.324 75.0225 160.489 75.4291C160.745 76.0622 160.408 76.1133 158.123 75.7909C147.778 74.3273 132.914 76.7629 128.576 80.6319C128.226 80.9434 126.949 81.836 125.737 82.6153C123.406 84.1135 121.963 85.6913 122.364 86.3043C122.496 86.5071 122.14 86.8131 121.571 86.984C121.002 87.1548 120.669 87.4974 120.831 87.745C120.994 87.9926 120.769 88.3251 120.332 88.4841C119.896 88.6421 119.655 88.9518 119.798 89.1711C120.132 89.6818 118.469 93.0099 117.88 93.0099C117.634 93.0099 117.585 93.2411 117.77 93.5243C117.955 93.8066 117.692 94.3246 117.186 94.6745C116.405 95.2153 116.361 95.4812 116.892 96.4505C117.494 97.5523 117.507 97.5413 117.243 96.1435C117.017 94.9422 117.065 94.8453 117.53 95.5707C118.294 96.762 117.735 98.1379 116.789 97.3951C116.236 96.9612 116.031 97.1603 115.773 98.3827C115.292 100.657 115.551 100.58 119.356 97.3138C125.633 91.9255 131.963 88.1031 137.706 86.233C141.087 85.1331 146.13 84.8563 146.446 85.7534C146.581 86.1362 146.44 86.2595 146.097 86.0585C145.78 85.8731 145.521 85.9644 145.521 86.2604C145.521 86.5574 145.291 86.6652 145.011 86.5016C144.731 86.3381 144.501 86.4459 144.501 86.7428C144.501 87.0388 144.292 87.1594 144.036 87.0096C143.779 86.8597 143.488 86.9666 143.39 87.248C143.29 87.5294 142.865 87.8071 142.445 87.8656C141.304 88.0237 137.877 90.1258 137.877 90.6675C137.877 90.9261 137.656 91.0092 137.385 90.8503C137.113 90.6922 136.599 91.0046 136.242 91.5455C135.886 92.0854 135.325 92.5276 134.997 92.5276C134.198 92.5276 128.195 98.7591 128.195 99.5877C128.195 99.9476 127.97 100.242 127.696 100.242C127.271 100.242 125 103.871 124.981 104.58C124.977 104.713 124.46 105.781 123.832 106.954C123.203 108.126 122.806 109.373 122.949 109.726C123.092 110.077 122.93 110.365 122.59 110.365C122.25 110.365 122.1 110.684 122.259 111.073C122.416 111.462 122.311 111.918 122.023 112.086C121.736 112.254 121.632 112.715 121.792 113.11C121.953 113.504 121.925 114.072 121.73 114.369C121.246 115.109 121.134 125.778 121.606 126.055C121.815 126.176 121.865 126.711 121.718 127.242C121.571 127.773 121.705 128.499 122.016 128.853C122.327 129.208 122.441 129.63 122.27 129.791C122.099 129.953 122.294 130.403 122.704 130.791C123.358 131.408 123.525 131.107 124.065 128.329C127.117 112.664 136.717 100.182 147.727 97.5678L149.131 97.2343L147.708 98.633C137.283 108.881 131.879 128.882 135.26 144.715C135.86 147.527 136.855 149.176 136.859 147.367C136.876 140.606 141.682 123.383 143.552 123.383C143.794 123.383 143.965 123.219 143.932 123.021C143.794 122.201 144.028 121.487 144.629 120.886C144.979 120.535 145.61 119.61 146.031 118.829C147.189 116.676 152.928 111.291 152.461 112.794C148.148 126.662 149.088 140.898 155.133 153.272C157.339 157.79 161.44 163.368 160.625 160.745C158.699 154.548 157.724 143.776 158.442 136.64C158.682 134.253 158.912 131.725 158.951 131.021C158.992 130.318 159.232 129.864 159.487 130.012C159.741 130.161 159.82 129.814 159.662 129.242C159.503 128.67 159.53 128.293 159.72 128.404C159.91 128.515 160.485 127.648 160.997 126.476C161.509 125.305 162.135 124.347 162.387 124.347C162.64 124.347 162.847 124.125 162.847 123.856C162.847 122.641 167.383 119.284 169.141 119.199C170.78 119.119 170.984 119.268 171.772 121.127C173.869 126.07 173.08 219.194 170.915 222.298C170.565 222.801 170.303 222.732 169.679 221.971C169.245 221.441 168.683 221.06 168.431 221.123C168.179 221.187 167.725 220.801 167.422 220.266C167.119 219.73 166.652 219.422 166.384 219.578C166.116 219.735 165.759 219.524 165.591 219.109C165.423 218.695 164.966 218.355 164.575 218.355C164.185 218.355 163.865 218.113 163.865 217.817C163.865 217.521 163.438 217.385 162.914 217.514C162.26 217.676 161.981 217.505 162.022 216.968C162.055 216.538 161.795 216.24 161.445 216.307C161.095 216.373 160.808 216.185 160.808 215.889C160.808 215.593 160.367 215.46 159.827 215.594C159.098 215.774 158.924 215.644 159.149 215.088C159.342 214.612 159.246 214.462 158.882 214.675C158.567 214.858 158.064 214.57 157.759 214.031C157.454 213.492 156.861 213.053 156.44 213.053C155.653 213.053 153.422 211.842 152.236 210.769C151.866 210.434 151.254 210.16 150.877 210.16C150.501 210.16 150.116 209.987 150.022 209.775C149.827 209.332 136.577 203.133 132.018 201.352C111.536 193.35 89.7485 190.429 73.3799 193.492C64.3773 195.178 54.0372 198.893 47.5239 202.783C44.5749 204.544 45.8495 205.017 49.8473 203.644C55.7367 201.621 76.4719 198.526 78.8966 199.308C79.2452 199.421 81.5946 199.624 84.1169 199.76C92.3625 200.204 104.086 202.322 110.775 204.577C111.984 204.984 113.131 205.283 113.324 205.239C113.516 205.195 114.557 205.524 115.637 205.969C116.718 206.415 117.788 206.671 118.015 206.538C118.241 206.406 118.506 206.526 118.605 206.804C118.703 207.082 119.29 207.346 119.909 207.391C120.528 207.435 121.146 207.746 121.283 208.083C121.42 208.42 122.444 208.834 123.558 209.003C124.673 209.171 125.712 209.623 125.867 210.006C126.023 210.39 126.371 210.574 126.643 210.415C128.22 209.493 151.722 223.376 158.981 229.517C160.126 230.486 161.953 232.004 163.043 232.892C164.131 233.779 165.764 235.223 166.669 236.098L168.318 237.689L166.762 239.352C165.907 240.267 164.962 241.014 164.664 241.014C164.365 241.014 163.48 241.774 162.697 242.701C161.915 243.63 160.942 244.389 160.536 244.389C160.13 244.389 159.509 244.831 159.156 245.372C158.341 246.622 144.404 258.168 143.896 258.014C143.687 257.951 142.878 258.655 142.099 259.581C141.319 260.505 140.452 261.262 140.174 261.262C139.897 261.262 138.865 262.028 137.882 262.964C136.14 264.623 133.341 267.013 129.724 269.931C128.743 270.723 127.186 272.016 126.265 272.806L124.589 274.242L122.602 272.417C118.381 268.542 111.706 268.44 107.508 272.185C100.323 278.596 103.602 290.278 112.896 291.382C115.227 291.659 119.275 293.678 119.725 294.788C119.882 295.175 120.361 295.491 120.791 295.491C121.22 295.491 121.571 295.793 121.571 296.162C121.571 296.531 122.144 296.97 122.845 297.136C123.546 297.302 124.119 297.651 124.119 297.911C124.119 298.171 124.358 298.384 124.652 298.384C124.944 298.384 125.757 298.926 126.458 299.589C127.158 300.252 128.066 300.795 128.474 300.795C128.881 300.795 129.214 300.987 129.214 301.22C129.214 301.454 129.616 301.776 130.106 301.936C130.597 302.095 132.374 303.045 134.055 304.047C139.761 307.449 148.545 311.148 149.238 310.44C149.576 310.095 149.603 309.944 149.299 310.104C148.773 310.381 146.954 309.267 144.922 307.424C144.411 306.96 143.788 306.58 143.537 306.58C143.287 306.58 142.945 306.241 142.777 305.826C142.608 305.411 142.238 305.208 141.954 305.375C141.67 305.541 141.299 305.337 141.131 304.923C140.963 304.508 140.549 304.169 140.212 304.169C139.874 304.169 139.084 303.513 138.457 302.71C137.83 301.907 137.14 301.353 136.924 301.479C136.709 301.605 134.183 299.478 131.313 296.753L126.093 291.799L130.584 289.131C141.151 282.856 159.279 274.382 159.279 275.718C159.279 275.956 159.068 276.274 158.809 276.425C157.02 277.472 155.34 286.655 156.167 290.869C156.776 293.962 159.614 300.317 160.665 300.939C161.024 301.151 161.318 301.617 161.318 301.974C161.318 302.522 162.654 303.77 165.755 306.114C166.093 306.37 166.59 306.58 166.859 306.58C167.127 306.58 167.424 306.742 167.517 306.941C167.785 307.511 172.537 309.401 175.24 310.013C180.495 311.201 189.4 309.68 193.676 306.864C195.953 305.363 198.994 302.107 198.652 301.536C198.487 301.261 198.535 301.19 198.757 301.38C199.285 301.832 201.174 300.871 200.82 300.33C200.671 300.1 200.744 299.84 200.984 299.75C204.496 298.448 205.74 284.219 202.863 278.271C202.185 276.871 201.846 275.725 202.108 275.725C203.864 275.725 220.528 283.484 227.562 287.577C229.944 288.964 232.123 290.157 232.403 290.229C234.45 290.757 234.248 291.662 231.394 294.737C228.037 298.355 224.281 301.387 223.763 300.896C223.564 300.708 223.477 300.869 223.571 301.254C223.664 301.641 223.49 301.966 223.185 301.978C222.878 301.99 221.794 302.814 220.773 303.808C219.753 304.802 218.569 305.616 218.144 305.616C217.719 305.616 217.37 305.804 217.37 306.033C217.37 306.577 213.517 308.99 212.649 308.99C212.283 308.99 211.984 309.393 211.984 309.887C211.984 310.713 212.114 310.732 213.662 310.12C218.663 308.143 227.326 303.771 229.904 301.925C230.771 301.303 231.769 300.795 232.124 300.795C232.477 300.795 232.645 300.493 232.495 300.126C232.305 299.657 232.517 299.529 233.205 299.7C233.779 299.842 234.186 299.698 234.186 299.353C234.186 299.027 234.528 298.887 234.951 299.041C235.413 299.209 235.715 299.043 235.715 298.62C235.715 298.235 236.267 297.789 236.941 297.629C237.615 297.469 238.285 296.909 238.43 296.385C238.575 295.861 238.998 295.488 239.37 295.556C239.742 295.624 241.078 294.77 242.339 293.657C243.703 292.454 245.124 291.634 245.847 291.634C253.056 291.634 258.48 284.264 256.356 277.353C253.9 269.358 243.184 266.817 237.253 272.824L235.827 274.268L233.605 272.335C232.383 271.272 230.53 269.701 229.487 268.845C224.958 265.129 223.115 263.548 221.341 261.857C220.301 260.868 219.233 260.057 218.967 260.057C218.7 260.057 217.986 259.461 217.38 258.732C216.774 258.002 216.043 257.405 215.756 257.405C215.276 257.405 204.892 248.933 200.434 244.905C198.028 242.73 195.063 240.281 193.432 239.123C191.943 238.064 192.603 236.198 194.945 234.84C195.648 234.433 196.94 233.431 197.816 232.615C204.569 226.325 227.077 211.79 228.289 212.937C228.449 213.089 228.582 212.947 228.582 212.623C228.582 212.297 228.81 212.166 229.09 212.329C229.371 212.493 229.6 212.385 229.6 212.088C229.6 211.792 229.792 211.662 230.028 211.8C230.512 212.083 233.973 210.431 235.068 209.395C235.464 209.02 236.209 208.714 236.723 208.714C237.238 208.714 239.228 208.032 241.145 207.199C243.063 206.365 244.977 205.632 245.397 205.569C245.817 205.506 248.913 204.691 252.276 203.758C272.095 198.26 292.875 198.094 309.748 203.297C316.927 205.511 316.291 204.21 308.329 200.395C302.445 197.577 292.998 194.327 290.36 194.212C289.874 194.191 289.737 194.073 290.055 193.949C290.374 193.826 292.074 194.039 293.835 194.423C299.272 195.612 300.195 194.184 295.326 192.116C291.768 190.605 290.737 189.372 290.596 186.463C290.428 182.998 294.055 183.887 294.829 187.501C295.356 189.962 298.628 188.995 299.208 186.208C299.9 182.871 296.315 181.365 289.049 181.937C283.501 182.374 283.348 182.486 283.416 186.039L283.473 188.947H281.314C278.169 188.947 275.924 189.467 275.599 190.27C275.215 191.216 276.354 191.824 278.52 191.832C280.561 191.839 289.375 193.301 289.077 193.583C288.969 193.685 286.606 193.445 283.827 193.048C266.47 190.574 245.313 194.027 225.138 202.629C222.264 203.854 219.791 204.857 219.644 204.857C219.496 204.857 216.459 206.448 212.895 208.392C209.331 210.337 205.612 212.343 204.632 212.852C203.651 213.36 202.771 213.94 202.677 214.14C202.583 214.341 202.295 214.381 202.036 214.231C201.778 214.079 201.43 214.294 201.262 214.707C201.095 215.12 200.751 215.337 200.498 215.189C200.245 215.041 199.901 215.257 199.733 215.67C199.566 216.084 199.222 216.301 198.969 216.153C198.716 216.005 198.372 216.222 198.204 216.635C198.037 217.048 197.694 217.265 197.441 217.117C197.188 216.969 196.843 217.188 196.675 217.602C196.507 218.016 196.074 218.355 195.714 218.355C195.353 218.355 194.921 218.695 194.752 219.109C194.584 219.524 194.214 219.727 193.93 219.561C193.646 219.395 193.276 219.598 193.108 220.013C192.94 220.427 192.533 220.766 192.206 220.766C191.878 220.766 191.198 221.22 190.695 221.776C189.43 223.175 189.317 222.922 188.802 217.551C187.356 202.456 187.02 125.411 188.384 121.708C189.672 118.213 193.489 118.382 196.385 122.063C196.755 122.532 197.269 122.793 197.527 122.642C197.784 122.491 197.861 122.699 197.696 123.104C197.532 123.509 197.748 124.17 198.175 124.575C199.102 125.452 201.127 130.341 201.293 132.101C201.357 132.787 201.578 133.606 201.784 133.921C201.991 134.236 202.014 135.119 201.836 135.882C201.653 136.675 201.745 137.407 202.053 137.587C202.647 137.934 202.815 145.669 202.241 146.213C202.048 146.396 201.821 148.005 201.737 149.789C201.654 151.572 201.16 154.821 200.642 157.009C199.404 162.233 199.892 162.086 203.781 156.068C210.759 145.268 212.628 125.972 207.943 113.101C207.574 112.086 207.336 111.327 207.416 111.414C207.495 111.5 208.499 112.607 209.647 113.873C210.795 115.14 211.835 116.116 211.959 116.043C212.29 115.846 214.313 118.385 214.313 118.998C214.313 119.288 214.518 119.526 214.769 119.526C217.007 119.526 222.251 135.095 223.267 144.758C224.038 152.086 226.029 143.595 226.032 132.967C226.035 119.937 218.774 101.911 211.875 97.8245C210.432 96.9703 214.282 97.8117 216.352 98.8029C223.248 102.108 233.167 113.467 233.167 118.06C233.167 118.495 233.371 119.057 233.62 119.308C234.177 119.871 235.435 124.056 236.247 128.047C236.793 130.734 238.622 132.317 238.169 129.711C238.095 129.279 238.237 128.619 238.485 128.244C239.918 126.08 238.916 110.854 237.14 107.802C236.804 107.223 236.479 106.467 236.418 106.123C236.357 105.777 235.896 104.909 235.394 104.194C234.892 103.479 234.429 102.584 234.366 102.206C234.302 101.828 233.893 101.329 233.454 101.097C233.016 100.866 232.658 100.4 232.658 100.063C232.658 99.2981 225.362 92.0461 224.593 92.0461C224.284 92.0461 223.782 91.6058 223.478 91.0686C223.174 90.5305 222.731 90.2034 222.494 90.3423C222.258 90.4812 221.926 90.2564 221.759 89.8435C221.591 89.4296 221.247 89.2131 220.994 89.3611C220.742 89.5091 220.398 89.2917 220.231 88.8787C220.063 88.4658 219.695 88.263 219.413 88.4284C219.13 88.5928 218.899 88.5526 218.899 88.3379C218.898 87.7231 213.86 85.2062 213.294 85.5378C213.014 85.7013 212.785 85.6054 212.785 85.3249C212.785 84.6663 215.865 84.6726 219.676 85.3396C225.628 86.3801 233.431 90.7479 241.776 97.7076C243.94 99.5128 244.448 99.7695 244.162 98.9135C243.825 97.9067 243.478 95.9571 243.393 94.6115C243.374 94.299 243.045 93.7463 242.661 93.3827C241.555 92.3366 240.23 89.6525 240.565 89.1391C240.733 88.8815 240.489 88.6714 240.022 88.6714C239.484 88.6714 239.279 88.411 239.461 87.9606C239.62 87.5705 239.452 87.0817 239.089 86.8762C238.725 86.6697 238.219 86.1462 237.963 85.7123C237.551 85.0125 235.988 83.7107 232.062 80.8C226.499 76.6743 213.63 74.299 203.915 75.6063C201.7 75.9041 199.807 76.0722 199.709 75.98C199.44 75.7251 203.621 71.7976 204.16 71.7976C204.419 71.7976 204.632 71.6204 204.632 71.4039C204.632 70.0244 215.384 67.9405 222.506 67.9405C228.987 67.9405 229.52 67.5705 225.854 65.6127C212.006 58.2191 199.001 58.8531 189.968 67.3622L187.051 70.1102L186.922 67.6938C186.661 62.7925 181.831 50.6237 180.136 50.5981C179.631 50.5899 178.654 51.9648 177.49 54.3218ZM145.903 84.1821C145.413 84.3036 144.61 84.3036 144.12 84.1821C143.629 84.0615 144.03 83.9619 145.011 83.9619C145.992 83.9619 146.393 84.0615 145.903 84.1821ZM216.734 84.1958C215.963 84.3063 214.701 84.3063 213.931 84.1958C213.16 84.0852 213.791 83.9948 215.332 83.9948C216.874 83.9948 217.505 84.0852 216.734 84.1958ZM157.092 142.781C156.97 143.381 156.865 143.004 156.86 141.943C156.855 140.882 156.954 140.392 157.082 140.853C157.209 141.314 157.214 142.181 157.092 142.781ZM63.4792 182.066C60.0579 183.273 58.7524 186.359 60.8894 188.188C62.2847 189.383 64.2005 189.009 64.4178 187.501C64.6698 185.757 65.9648 184.609 67.6797 184.609C69.1533 184.609 69.1697 184.638 68.826 186.658C68.3132 189.674 67.3302 190.787 63.9591 192.17C61.1163 193.337 60.2636 194.285 61.4417 194.974C61.7217 195.138 65.1266 194.618 69.0075 193.819C72.8884 193.018 77.565 192.219 79.4007 192.041C86.3939 191.363 84.9715 188.973 77.5631 188.953C75.598 188.947 75.5961 188.946 75.9244 187.289C76.3995 184.897 75.7931 183.169 74.2886 182.627C72.7967 182.091 64.6138 181.666 63.4792 182.066ZM296.864 193.812C297.544 194.176 297.544 194.222 296.864 194.23C295.509 194.243 293.807 193.67 293.807 193.198C293.807 192.732 295.471 193.067 296.864 193.812ZM64.244 193.768C64.0711 194.034 63.4271 194.235 62.8129 194.217C61.7362 194.184 61.7324 194.168 62.7154 193.768C64.1175 193.198 64.6167 193.198 64.244 193.768ZM186.917 273.294C196.796 277.734 199.515 290.214 192.193 297.508C189.974 299.719 187.383 301.378 186.739 301.002C186.346 300.773 186.263 300.85 186.506 301.221C186.774 301.633 186.527 301.713 185.639 301.502C184.904 301.327 184.104 301.468 183.685 301.844C182.895 302.553 176.605 302.753 176.605 302.068C176.605 301.842 176.249 301.785 175.814 301.943C175.301 302.129 175.15 302.035 175.384 301.677C175.63 301.302 175.393 301.211 174.646 301.397C174.042 301.546 173.548 301.459 173.548 301.203C173.548 300.947 173.347 300.855 173.102 300.998C172.469 301.368 168.802 298.754 167.245 296.823C156.968 284.075 171.699 266.454 186.917 273.294ZM176.616 277.948C167.103 281.202 167.675 295.409 177.369 296.685C177.65 296.722 178.28 296.926 178.772 297.138C179.262 297.351 180.295 297.361 181.064 297.161C181.835 296.961 182.862 296.758 183.349 296.708C183.836 296.658 184.638 296.289 185.133 295.887C185.627 295.485 186.399 295.034 186.847 294.885C188.354 294.382 190.363 289.958 190.363 287.139C190.363 280.349 183.334 275.649 176.616 277.948ZM183.757 281.838C186.185 283.196 187.772 287.296 185.868 287.296C184.881 287.296 181.955 285.034 181.053 283.571C179.531 281.106 180.889 280.236 183.757 281.838ZM197.339 288.14C197.211 288.603 197.106 288.224 197.106 287.296C197.106 286.368 197.211 285.988 197.339 286.453C197.467 286.916 197.467 287.676 197.339 288.14ZM203.972 288.375C203.851 288.975 203.746 288.598 203.74 287.537C203.735 286.476 203.835 285.986 203.963 286.446C204.09 286.907 204.095 287.775 203.972 288.375Z" fill="black" fill-opacity="0.03"/>
<path d="M101.173 422.52C99.9461 422.52 98.8261 422.453 97.8128 422.32C96.8261 422.213 95.9061 422.013 95.0528 421.72C94.1995 421.453 93.4128 421.093 92.6928 420.64C91.9728 420.213 91.2928 419.693 90.6528 419.08C89.5861 418.093 88.8395 416.827 88.4128 415.28C88.0128 413.733 87.8128 412.12 87.8128 410.44V396.84H94.4528V409.76C94.4528 410.907 94.5595 411.867 94.7728 412.64C95.0128 413.413 95.3995 414.027 95.9328 414.48C96.5728 415.013 97.3728 415.387 98.3328 415.6C99.3195 415.787 100.399 415.88 101.573 415.88H104.253V396.84H110.893V410.88H115.213V417.52H110.893V422.52H101.173ZM102.293 393.44C101.519 394.027 100.639 394.32 99.6528 394.32C98.6661 394.32 97.7861 394.027 97.0128 393.44C96.2395 392.827 95.8528 391.947 95.8528 390.8C95.8528 389.76 96.2128 388.92 96.9328 388.28C97.6795 387.64 98.5861 387.32 99.6528 387.32C100.719 387.32 101.613 387.64 102.333 388.28C103.079 388.92 103.453 389.76 103.453 390.8C103.453 391.947 103.066 392.827 102.293 393.44ZM113.425 410.88H117.145C117.145 410.88 117.119 410.667 117.065 410.24C117.039 409.787 117.025 409.32 117.025 408.84C117.025 407.053 117.345 405.4 117.985 403.88C118.652 402.333 119.545 400.987 120.665 399.84C121.785 398.667 123.105 397.747 124.625 397.08C126.145 396.413 127.772 396.08 129.505 396.08C131.265 396.08 132.905 396.413 134.425 397.08C135.972 397.72 137.319 398.613 138.465 399.76C139.639 400.907 140.545 402.253 141.185 403.8C141.852 405.347 142.185 407.027 142.185 408.84C142.185 410.627 141.839 412.28 141.145 413.8C140.479 415.32 139.559 416.627 138.385 417.72C137.212 418.84 135.865 419.72 134.345 420.36C132.825 421 131.212 421.32 129.505 421.32C127.719 421.32 126.039 420.96 124.465 420.24C122.919 419.547 121.612 418.64 120.545 417.52H113.425V410.88ZM127.185 414.24C127.905 414.533 128.679 414.68 129.505 414.68C130.332 414.68 131.119 414.533 131.865 414.24C132.612 413.947 133.252 413.533 133.785 413C134.345 412.467 134.772 411.84 135.065 411.12C135.385 410.4 135.545 409.613 135.545 408.76C135.545 407.907 135.399 407.107 135.105 406.36C134.812 405.613 134.399 404.973 133.865 404.44C133.332 403.907 132.692 403.493 131.945 403.2C131.199 402.88 130.385 402.72 129.505 402.72C128.652 402.72 127.865 402.88 127.145 403.2C126.452 403.52 125.839 403.947 125.305 404.48C124.799 405.013 124.399 405.653 124.105 406.4C123.812 407.147 123.665 407.933 123.665 408.76C123.665 409.587 123.812 410.373 124.105 411.12C124.399 411.84 124.799 412.467 125.305 413C125.839 413.507 126.465 413.92 127.185 414.24ZM148.444 388.88H155.084V417.52H148.444V388.88ZM147.044 384.56C147.044 382.587 147.537 381.187 148.524 380.36C149.537 379.507 150.897 379.08 152.604 379.08H155.124V381.92H152.924C152.284 381.92 151.844 382.04 151.604 382.28C151.391 382.52 151.284 382.72 151.284 382.88H156.404V386.92H147.044V384.56ZM195.933 410.88V417.52H185.333C183.28 417.52 181.386 417.293 179.653 416.84C177.946 416.36 176.453 415.627 175.173 414.64C173.92 413.653 172.933 412.427 172.213 410.96C171.493 409.467 171.133 407.733 171.133 405.76C171.133 404.053 171.453 402.48 172.093 401.04C172.733 399.6 173.666 398.36 174.893 397.32C176.12 396.253 177.613 395.427 179.373 394.84C181.133 394.253 183.12 393.96 185.333 393.96H185.613V391.96H192.253V410.88H195.933ZM185.613 410.88V400.6H183.973C183.2 400.6 182.44 400.72 181.693 400.96C180.946 401.2 180.28 401.547 179.693 402C179.106 402.427 178.64 402.96 178.293 403.6C177.946 404.213 177.773 404.933 177.773 405.76C177.773 406.613 177.933 407.36 178.253 408C178.573 408.613 179 409.133 179.533 409.56C180.093 409.987 180.733 410.32 181.453 410.56C182.173 410.773 182.92 410.88 183.693 410.88H185.613ZM190.933 389.16C190.213 389.747 189.36 390.04 188.373 390.04C187.386 390.04 186.533 389.747 185.813 389.16C185.093 388.573 184.733 387.733 184.733 386.64C184.733 385.627 185.08 384.813 185.773 384.2C186.493 383.587 187.36 383.28 188.373 383.28C189.413 383.28 190.28 383.587 190.973 384.2C191.666 384.813 192.013 385.627 192.013 386.64C192.013 387.733 191.653 388.573 190.933 389.16ZM182.253 389.16C181.533 389.747 180.68 390.04 179.693 390.04C178.706 390.04 177.853 389.747 177.133 389.16C176.413 388.573 176.053 387.733 176.053 386.64C176.053 385.627 176.4 384.813 177.093 384.2C177.813 383.587 178.68 383.28 179.693 383.28C180.706 383.28 181.56 383.587 182.253 384.2C182.973 384.813 183.333 385.627 183.333 386.64C183.333 387.733 182.973 388.573 182.253 389.16ZM194.128 410.88H198.048V393.96H204.688V395.96H216.368C218.235 395.96 219.875 396.213 221.288 396.72C222.728 397.2 223.982 398 225.048 399.12C225.982 400.107 226.622 401.333 226.968 402.8C227.342 404.24 227.528 405.813 227.528 407.52V410.88H231.848V417.52H194.128V410.88ZM204.688 402.56V410.88H220.888V407.28C220.888 406.533 220.808 405.893 220.648 405.36C220.488 404.8 220.248 404.32 219.928 403.92C219.635 403.52 219.222 403.2 218.688 402.96C218.155 402.693 217.568 402.56 216.928 402.56H204.688ZM230.066 410.88H235.026V393.96H241.666V410.88H245.946V417.52H230.066V410.88ZM240.826 390.72C240.053 391.307 239.173 391.6 238.186 391.6C237.199 391.6 236.319 391.307 235.546 390.72C234.773 390.107 234.386 389.227 234.386 388.08C234.386 387.04 234.746 386.2 235.466 385.56C236.213 384.92 237.119 384.6 238.186 384.6C239.253 384.6 240.146 384.92 240.866 385.56C241.613 386.2 241.986 387.04 241.986 388.08C241.986 389.227 241.599 390.107 240.826 390.72ZM244.128 410.88H247.848C247.848 410.88 247.822 410.667 247.768 410.24C247.742 409.787 247.728 409.32 247.728 408.84C247.728 407.053 248.048 405.4 248.688 403.88C249.355 402.333 250.248 400.987 251.368 399.84C252.488 398.667 253.808 397.747 255.328 397.08C256.848 396.413 258.475 396.08 260.208 396.08C261.968 396.08 263.608 396.413 265.128 397.08C266.675 397.72 268.022 398.613 269.168 399.76C270.342 400.907 271.248 402.253 271.888 403.8C272.555 405.347 272.888 407.027 272.888 408.84C272.888 410.627 272.542 412.28 271.848 413.8C271.182 415.32 270.262 416.627 269.088 417.72C267.915 418.84 266.568 419.72 265.048 420.36C263.528 421 261.915 421.32 260.208 421.32C258.422 421.32 256.742 420.96 255.168 420.24C253.622 419.547 252.315 418.64 251.248 417.52H244.128V410.88ZM257.888 414.24C258.608 414.533 259.382 414.68 260.208 414.68C261.035 414.68 261.822 414.533 262.568 414.24C263.315 413.947 263.955 413.533 264.488 413C265.048 412.467 265.475 411.84 265.768 411.12C266.088 410.4 266.248 409.613 266.248 408.76C266.248 407.907 266.102 407.107 265.808 406.36C265.515 405.613 265.102 404.973 264.568 404.44C264.035 403.907 263.395 403.493 262.648 403.2C261.902 402.88 261.088 402.72 260.208 402.72C259.355 402.72 258.568 402.88 257.848 403.2C257.155 403.52 256.542 403.947 256.008 404.48C255.502 405.013 255.102 405.653 254.808 406.4C254.515 407.147 254.368 407.933 254.368 408.76C254.368 409.587 254.515 410.373 254.808 411.12C255.102 411.84 255.502 412.467 256.008 413C256.542 413.507 257.168 413.92 257.888 414.24Z" fill="black" fill-opacity="0.03"/>
</svg>
