<svg width="26" height="26" viewBox="0 0 26 26" fill="none" xmlns="http://www.w3.org/2000/svg">
<rect x="0.5" y="0.5" width="25" height="25" rx="12.5" fill="#B99855"/>
<path d="M8.34021 18.3333C8.16986 18.3333 7.99172 18.276 7.86171 18.1461C7.60176 17.8857 7.60176 17.4486 7.86171 17.1882L12.0431 13.0038L7.86171 8.81951C7.60176 8.55903 7.60176 8.12202 7.86171 7.86154C8.12173 7.60172 8.5587 7.60172 8.81872 7.86154L13.0001 12.0459L17.1814 7.86154C17.4415 7.60172 17.8784 7.60172 18.1384 7.86154C18.3984 8.12202 18.3984 8.55903 18.1384 8.81951L13.957 13.0038L18.1384 17.1882C18.3984 17.4486 18.3984 17.8857 18.1384 18.1461C18.0084 18.276 17.8302 18.3333 17.6599 18.3333C17.4896 18.3333 17.3115 18.276 17.1814 18.1461L13.0001 13.9618L8.81872 18.1461C8.68871 18.276 8.51057 18.3333 8.34021 18.3333Z" fill="white"/>
<rect x="0.5" y="0.5" width="25" height="25" rx="12.5" stroke="white"/>
</svg>
